<svg width="170" height="60" viewBox="0 0 170 60" fill="none" xmlns="http://www.w3.org/2000/svg">
<g opacity="0.85" filter="url(#filter0_d)">
<rect x="5.5" y="3.5" width="159" height="49" rx="6.5" fill="black" stroke="#A9AAA9"/>
<path fill-rule="evenodd" clip-rule="evenodd" d="M35.4966 26.83C35.4654 23.3912 38.3116 21.7176 38.4428 21.6388C36.8304 19.2887 34.3304 18.9675 33.4528 18.9425C31.3542 18.7212 29.3192 20.1987 28.2492 20.1987C27.1592 20.1987 25.5128 18.9637 23.7391 19.0012C21.4566 19.0362 19.3191 20.3587 18.1479 22.4112C15.7304 26.5962 17.5341 32.7476 19.8491 36.13C21.0079 37.7876 22.3616 39.6388 24.1341 39.5726C25.8678 39.5012 26.5154 38.4662 28.6078 38.4662C30.6816 38.4662 31.2892 39.5726 33.0966 39.5312C34.9566 39.5012 36.1292 37.8662 37.2478 36.1938C38.5866 34.295 39.1242 32.4238 39.1454 32.3288C39.1016 32.3138 35.5316 30.9526 35.4966 26.83Z" fill="#FFFFFE"/>
<path fill-rule="evenodd" clip-rule="evenodd" d="M32.0818 16.7175C33.0142 15.5513 33.6518 13.965 33.4754 12.3538C32.1254 12.4138 30.438 13.2875 29.4654 14.4288C28.6054 15.4338 27.838 17.0813 28.0354 18.63C29.5518 18.7438 31.1092 17.865 32.0818 16.7175Z" fill="#FFFFFE"/>
<path fill-rule="evenodd" clip-rule="evenodd" d="M58.109 33.4425H62.799L60.4866 26.6337H60.4228L58.109 33.4425ZM63.4128 35.3787H57.4966L56.0754 39.5737H53.569L59.174 24.0511H61.7778L67.3816 39.5737H64.8328L63.4128 35.3787Z" fill="#FFFFFE"/>
<path fill-rule="evenodd" clip-rule="evenodd" d="M77.098 33.9161C77.098 31.6249 75.913 30.1187 74.1066 30.1187C72.3316 30.1187 71.138 31.6561 71.138 33.9161C71.138 36.1961 72.3316 37.7237 74.1066 37.7237C75.913 37.7237 77.098 36.2275 77.098 33.9161ZM79.4854 33.9161C79.4854 37.4325 77.603 39.6925 74.7618 39.6925C73.1492 39.6925 71.8692 38.9711 71.2018 37.7125H71.148V43.3175H68.8242V28.2561H71.073V30.1387H71.1154C71.7618 28.9249 73.1392 28.1387 74.7192 28.1387C77.5918 28.1387 79.4854 30.4087 79.4854 33.9161Z" fill="#FFFFFE"/>
<path fill-rule="evenodd" clip-rule="evenodd" d="M89.5529 33.9161C89.5529 31.6249 88.3691 30.1187 86.5629 30.1187C84.7879 30.1187 83.5941 31.6561 83.5941 33.9161C83.5941 36.1961 84.7879 37.7237 86.5629 37.7237C88.3691 37.7237 89.5529 36.2275 89.5529 33.9161ZM91.9403 33.9161C91.9403 37.4325 90.0591 39.6925 87.2179 39.6925C85.6053 39.6925 84.3253 38.9711 83.6579 37.7125H83.6041V43.3175H81.2803V28.2561H83.5291V30.1387H83.5717C84.2179 28.9249 85.5941 28.1387 87.1753 28.1387C90.0479 28.1387 91.9403 30.4087 91.9403 33.9161Z" fill="#FFFFFE"/>
<path fill-rule="evenodd" clip-rule="evenodd" d="M100.174 35.2487C100.345 36.7887 101.842 37.7987 103.884 37.7987C105.843 37.7987 107.252 36.7887 107.252 35.3999C107.252 34.1949 106.402 33.4737 104.39 32.9799L102.378 32.4949C99.528 31.8061 98.2042 30.4737 98.2042 28.3099C98.2042 25.6325 100.539 23.7925 103.853 23.7925C107.133 23.7925 109.382 25.6325 109.457 28.3099H107.112C106.972 26.7611 105.69 25.8261 103.82 25.8261C101.948 25.8261 100.668 26.7725 100.668 28.1487C100.668 29.2461 101.485 29.8925 103.487 30.3875L105.197 30.8061C108.382 31.5599 109.705 32.8387 109.705 35.1099C109.705 38.0137 107.392 39.8325 103.713 39.8325C100.27 39.8325 97.9454 38.0561 97.7954 35.2487H100.174Z" fill="#FFFFFE"/>
<path fill-rule="evenodd" clip-rule="evenodd" d="M114.718 25.5787V28.2563H116.87V30.0963H114.718V36.3349C114.718 37.3049 115.149 37.7563 116.095 37.7563C116.332 37.7563 116.709 37.7237 116.859 37.7025V39.5313C116.602 39.5963 116.085 39.6387 115.569 39.6387C113.278 39.6387 112.384 38.7775 112.384 36.5837V30.0963H110.739V28.2563H112.384V25.5787H114.718Z" fill="#FFFFFE"/>
<path fill-rule="evenodd" clip-rule="evenodd" d="M126.485 33.9162C126.485 31.4738 125.367 30.0312 123.484 30.0312C121.602 30.0312 120.484 31.4838 120.484 33.9162C120.484 36.3688 121.602 37.7988 123.484 37.7988C125.367 37.7988 126.485 36.3688 126.485 33.9162ZM118.117 33.9162C118.117 30.355 120.214 28.1176 123.484 28.1176C126.765 28.1176 128.853 30.355 128.853 33.9162C128.853 37.4862 126.777 39.7138 123.484 39.7138C120.193 39.7138 118.117 37.4862 118.117 33.9162Z" fill="#FFFFFE"/>
<path fill-rule="evenodd" clip-rule="evenodd" d="M130.768 28.2561H132.984V30.1825H133.038C133.393 28.9025 134.426 28.1387 135.759 28.1387C136.093 28.1387 136.372 28.1825 136.556 28.2249V30.3975C136.372 30.3225 135.963 30.2575 135.512 30.2575C134.017 30.2575 133.092 31.2699 133.092 32.8611V39.5737H130.768V28.2561Z" fill="#FFFFFE"/>
<path fill-rule="evenodd" clip-rule="evenodd" d="M139.413 32.8726H145.07C145.017 31.14 143.909 30 142.295 30C140.693 30 139.532 31.1626 139.413 32.8726ZM147.265 36.25C146.953 38.305 144.953 39.7138 142.393 39.7138C139.1 39.7138 137.057 37.5088 137.057 33.97C137.057 30.42 139.112 28.1176 142.295 28.1176C145.427 28.1176 147.395 30.2688 147.395 33.7V34.4962H139.402V34.6362C139.402 36.5726 140.618 37.8412 142.447 37.8412C143.737 37.8412 144.749 37.2288 145.06 36.25H147.265Z" fill="#FFFFFE"/>
<path fill-rule="evenodd" clip-rule="evenodd" d="M56.2831 18.7712H57.6895C59.2495 18.7712 60.1481 17.7999 60.1481 16.0887C60.1481 14.4037 59.2345 13.4212 57.6895 13.4212H56.2831V18.7712ZM57.8181 12.3674C60.0307 12.3674 61.3281 13.7262 61.3281 16.0737C61.3281 18.4562 60.0407 19.8262 57.8181 19.8262H55.1243V12.3674H57.8181Z" fill="#FFFFFE"/>
<path fill-rule="evenodd" clip-rule="evenodd" d="M66.8029 17.0087C66.8029 15.7887 66.2541 15.0762 65.2929 15.0762C64.3267 15.0762 63.7841 15.7887 63.7841 17.0087C63.7841 18.2387 64.3267 18.9475 65.2929 18.9475C66.2541 18.9475 66.8029 18.2337 66.8029 17.0087ZM62.6367 17.0087C62.6367 15.195 63.6491 14.0887 65.2929 14.0887C66.9317 14.0887 67.9453 15.195 67.9453 17.0087C67.9453 18.8337 66.9367 19.935 65.2929 19.935C63.6441 19.935 62.6367 18.8337 62.6367 17.0087Z" fill="#FFFFFE"/>
<path fill-rule="evenodd" clip-rule="evenodd" d="M75.0016 19.8262H73.849L72.6866 15.6799H72.5978L71.4404 19.8262H70.299L68.7466 14.1974H69.874L70.8816 18.4924H70.9654L72.1228 14.1974H73.1878L74.3454 18.4924H74.4328L75.4366 14.1974H76.5478L75.0016 19.8262Z" fill="#FFFFFE"/>
<path fill-rule="evenodd" clip-rule="evenodd" d="M77.853 14.1975H78.9218V15.0912H79.0042C79.278 14.4662 79.8368 14.0887 80.6842 14.0887C81.9406 14.0887 82.633 14.8425 82.633 16.1825V19.8262H81.5218V16.4612C81.5218 15.5562 81.1292 15.1062 80.3068 15.1062C79.4856 15.1062 78.963 15.655 78.963 16.5325V19.8262H77.853V14.1975Z" fill="#FFFFFE"/>
<path fill-rule="evenodd" clip-rule="evenodd" d="M84.4028 19.8262H85.5142V12H84.4028V19.8262Z" fill="#FFFFFE"/>
<path fill-rule="evenodd" clip-rule="evenodd" d="M91.2243 17.0087C91.2243 15.7887 90.6755 15.0762 89.7143 15.0762C88.7481 15.0762 88.2055 15.7887 88.2055 17.0087C88.2055 18.2387 88.7481 18.9475 89.7143 18.9475C90.6755 18.9475 91.2243 18.2337 91.2243 17.0087ZM87.0579 17.0087C87.0579 15.195 88.0705 14.0887 89.7143 14.0887C91.3529 14.0887 92.3667 15.195 92.3667 17.0087C92.3667 18.8337 91.3579 19.935 89.7143 19.935C88.0655 19.935 87.0579 18.8337 87.0579 17.0087Z" fill="#FFFFFE"/>
<path fill-rule="evenodd" clip-rule="evenodd" d="M97.1542 17.7537V17.2825L95.7804 17.37C95.0054 17.4225 94.6542 17.6862 94.6542 18.1825C94.6542 18.6887 95.0928 18.9837 95.6966 18.9837C96.5342 18.9837 97.1542 18.4512 97.1542 17.7537ZM93.5366 18.2337C93.5366 17.2212 94.2904 16.6362 95.6304 16.5537L97.1542 16.4662V15.98C97.1542 15.3862 96.7616 15.05 96.0028 15.05C95.3828 15.05 94.9528 15.2775 94.8292 15.675H93.7542C93.8678 14.7087 94.7766 14.0887 96.0542 14.0887C97.4654 14.0887 98.2604 14.7912 98.2604 15.98V19.8262H97.1916V19.035H97.1028C96.7678 19.5987 96.1528 19.9187 95.4128 19.9187C94.3278 19.9187 93.5366 19.2625 93.5366 18.2337Z" fill="#FFFFFE"/>
<path fill-rule="evenodd" clip-rule="evenodd" d="M100.868 17.0087C100.868 18.2025 101.431 18.9212 102.372 18.9212C103.308 18.9212 103.887 18.1925 103.887 17.0137C103.887 15.8412 103.302 15.1012 102.372 15.1012C101.437 15.1012 100.868 15.825 100.868 17.0087ZM99.7205 17.0087C99.7205 15.23 100.635 14.1037 102.057 14.1037C102.828 14.1037 103.478 14.4712 103.783 15.0912H103.867V12H104.977V19.8262H103.913V18.9362H103.824C103.489 19.5525 102.832 19.9187 102.057 19.9187C100.625 19.9187 99.7205 18.7925 99.7205 17.0087Z" fill="#FFFFFE"/>
<path fill-rule="evenodd" clip-rule="evenodd" d="M113.739 17.0087C113.739 15.7887 113.19 15.0762 112.229 15.0762C111.263 15.0762 110.72 15.7887 110.72 17.0087C110.72 18.2387 111.263 18.9475 112.229 18.9475C113.19 18.9475 113.739 18.2337 113.739 17.0087ZM109.573 17.0087C109.573 15.195 110.587 14.0887 112.229 14.0887C113.868 14.0887 114.882 15.195 114.882 17.0087C114.882 18.8337 113.873 19.935 112.229 19.935C110.582 19.935 109.573 18.8337 109.573 17.0087Z" fill="#FFFFFE"/>
<path fill-rule="evenodd" clip-rule="evenodd" d="M116.373 14.1975H117.442V15.0912H117.524C117.798 14.4662 118.357 14.0887 119.204 14.0887C120.46 14.0887 121.153 14.8425 121.153 16.1825V19.8262H120.042V16.4612C120.042 15.5562 119.649 15.1062 118.827 15.1062C118.005 15.1062 117.483 15.655 117.483 16.5325V19.8262H116.373V14.1975Z" fill="#FFFFFE"/>
<path fill-rule="evenodd" clip-rule="evenodd" d="M127.429 12.7963V14.2225H128.649V15.1588H127.429V18.0525C127.429 18.6425 127.673 18.9013 128.225 18.9013C128.397 18.9013 128.494 18.89 128.649 18.875V19.8C128.468 19.8313 128.26 19.8575 128.044 19.8575C126.809 19.8575 126.318 19.4225 126.318 18.3375V15.1588H125.424V14.2225H126.318V12.7963H127.429Z" fill="#FFFFFE"/>
<path fill-rule="evenodd" clip-rule="evenodd" d="M130.167 12H131.268V15.1012H131.355C131.628 14.4712 132.223 14.0937 133.072 14.0937C134.27 14.0937 135.01 14.8537 135.01 16.1925V19.8262H133.898V16.4662C133.898 15.5675 133.479 15.1112 132.694 15.1112C131.784 15.1112 131.277 15.6862 131.277 16.5387V19.8262H130.167V12Z" fill="#FFFFFE"/>
<path fill-rule="evenodd" clip-rule="evenodd" d="M137.579 16.4925H140.423C140.397 15.6087 139.859 15.0337 139.037 15.0337C138.215 15.0337 137.642 15.6137 137.579 16.4925ZM141.487 18.3062C141.234 19.315 140.334 19.935 139.048 19.935C137.435 19.935 136.448 18.8287 136.448 17.0287C136.448 15.23 137.457 14.0887 139.043 14.0887C140.609 14.0887 141.554 15.1587 141.554 16.9262V17.3137H137.579V17.3762C137.617 18.3625 138.19 18.9887 139.078 18.9887C139.752 18.9887 140.212 18.745 140.418 18.3062H141.487Z" fill="#FFFFFE"/>
</g>
<defs>
<filter id="filter0_d" x="0" y="0" width="170" height="60" filterUnits="userSpaceOnUse" color-interpolation-filters="sRGB">
<feFlood flood-opacity="0" result="BackgroundImageFix"/>
<feColorMatrix in="SourceAlpha" type="matrix" values="0 0 0 0 0 0 0 0 0 0 0 0 0 0 0 0 0 0 127 0"/>
<feOffset dy="2"/>
<feGaussianBlur stdDeviation="2.5"/>
<feColorMatrix type="matrix" values="0 0 0 0 0.145098 0 0 0 0 0.215686 0 0 0 0 0.345098 0 0 0 0.2 0"/>
<feBlend mode="normal" in2="BackgroundImageFix" result="effect1_dropShadow"/>
<feBlend mode="normal" in="SourceGraphic" in2="effect1_dropShadow" result="shape"/>
</filter>
</defs>
</svg>
