<svg width="10" height="10" viewBox="0 0 10 10" fill="none" xmlns="http://www.w3.org/2000/svg">
<path fill-rule="evenodd" clip-rule="evenodd" d="M5.61351 0.15669C5.4239 -0.0440696 5.10745 -0.0531111 4.90669 0.136495C4.70593 0.326101 4.69689 0.642554 4.88649 0.843313L8.34003 4.5H0.5C0.223858 4.5 0 4.72386 0 5C0 5.27614 0.223858 5.5 0.5 5.5H8.34003L4.88649 9.15669C4.69689 9.35745 4.70593 9.6739 4.90669 9.86351C5.10745 10.0531 5.4239 10.0441 5.61351 9.84331L9.86274 5.34412C9.86863 5.33792 9.87436 5.33157 9.87992 5.32507C9.95478 5.23766 10 5.12411 10 5C10 4.9179 9.98021 4.84042 9.94514 4.77207C9.93124 4.74493 9.91469 4.7188 9.8955 4.69404C9.88554 4.6812 9.87488 4.66873 9.86351 4.65669M5.61351 0.15669L9.86265 4.65578Z" fill="white"/>
</svg>
