<?xml version="1.0" encoding="utf-8"?>
<!-- Generator: Adobe Illustrator 20.1.0, SVG Export Plug-In . SVG Version: 6.00 Build 0)  -->
<svg version="1.1" id="Layer_1" xmlns="http://www.w3.org/2000/svg" xmlns:xlink="http://www.w3.org/1999/xlink" x="0px" y="0px"
	 viewBox="0 0 254 284" style="enable-background:new 0 0 254 284;" xml:space="preserve">
<style type="text/css">
	.st0{opacity:0.2;enable-background:new    ;}
	.st1{fill:#0268CE;}
	.st2{fill:#0081E0;}
	.st3{fill:#FF0000;stroke:#050505;stroke-width:0.8314;stroke-miterlimit:10;}
	.st4{fill:none;stroke:#000000;stroke-width:0.6404;stroke-linecap:round;stroke-linejoin:round;stroke-miterlimit:10;}
	.st5{opacity:0.35;fill:#0C4291;enable-background:new    ;}
	.st6{fill:#9C6BFE;}
	.st7{fill:#0081E0;stroke:#000000;stroke-width:0.8539;stroke-miterlimit:10;}
	.st8{fill:none;stroke:#000000;stroke-width:0.5957;stroke-linecap:round;stroke-linejoin:round;stroke-miterlimit:10;}
	.st9{fill:#5D6473;}
	.st10{fill:#FFFFFF;}
	.st11{fill:none;stroke:#000000;stroke-width:0.6176;stroke-linecap:round;stroke-linejoin:round;stroke-miterlimit:10;}
	.st12{fill:#9AA8C4;}
	.st13{fill:#014A77;}
	.st14{fill:#FF0000;stroke:#050505;stroke-width:0.8064;stroke-miterlimit:10;}
	.st15{fill:#DD9C3E;stroke:#222426;stroke-width:0.8539;stroke-miterlimit:10;}
	.st16{fill:#FF0000;stroke:#050505;stroke-width:0.8317;stroke-linecap:round;stroke-miterlimit:10;}
	.st17{fill:#FCE227;stroke:#000000;stroke-width:0.8539;stroke-miterlimit:10;}
	.st18{fill:#222426;}
	.st19{fill:#010101;}
	.st20{fill:none;stroke:#000000;stroke-width:0.6784;stroke-linecap:round;stroke-linejoin:round;stroke-miterlimit:10;}
	.st21{fill:#DD9C3E;stroke:#222426;stroke-width:0.8539;stroke-linejoin:round;stroke-miterlimit:10;}
</style>
<g>
	<g>
		<path d="M142,247.4c-0.3,0-0.4-0.1-0.7-0.2c-3.6-2.1-6.5-5.3-8.8-9.4c-1.3-2.3-2.3-3.8-3.3-4.6c-0.5-0.4-1-0.7-1.5-0.8
			c-0.2,0-0.3,0.1-0.4,0.1h-0.1c-1.1,0.3-2.1,1.8-3,4.4c-0.6,1.7-1.5,4-2.6,6.8l-0.5,1.3c-0.2,0.5-0.7,0.8-1.2,0.8h-13.1
			c-0.6,0-1.1-0.3-1.2-0.9c-0.2-0.5,0.1-1.1,0.5-1.5l3.1-2c-3.2-5-7.7-13.2-8.7-21.1c-2.8-1.5-5.5-3.5-8-5.8
			c-9.9-9.1-12.4-24.3-13-33.2c-0.9-0.3-1.8-0.8-2.4-1.2c-0.9,0.2-1.9,0.3-2.9,0.5c-0.3,0.1-0.8,0.1-1.1,0.1c-0.4,0-0.9,0-1.4-0.1
			c-0.9-0.1-1.8-0.3-2.6-0.6c-0.3-0.1-0.6-0.3-0.9-0.5c-1.8-0.9-2.9-1.8-3-1.9c-0.3-0.3-0.4-0.5-0.4-0.9v-0.2
			c-1.5,0-3.6-0.3-5.1-1.3c-1.8-1.2-2.3-3.3-2.6-4.7c-0.1,0-0.2,0-0.3,0c-0.3,0.1-0.6,0.1-0.9,0.1c-0.8,0-1.5-0.2-2.1-0.6
			c-0.9-0.5-1.8-1.2-2.5-2c-3-2.7-2.7-6.1-2.7-6.3c0-0.2,0.1-0.3,0.1-0.4l0.4-1.1c0.1-0.3,0.2-0.5,0.3-0.8c-1.5-0.7-3.8-2.3-4.4-6.1
			c-0.7-4.6,2.5-7.4,4.4-8.4c0.5-0.4,1-0.7,1.5-0.9c-0.3-0.9-0.5-2.1-0.2-3.8c0.8-3.9,4.6-5.6,7.9-5.7c0-0.1,0-0.3,0-0.3
			c-0.1-2-0.2-4.4,3.2-6.7c2.3-1.6,4.5-2.4,6.7-2.4c0.6,0,1.2,0.1,1.8,0.3c0.3-0.3,0.7-0.5,1-0.8c-2.4-0.9-4.6-1.2-6.7-1.2
			c-1.8,0-3.3,0.3-4.7,0.5c-17.9,3.7-29.9,5.4-37.7,5.4c-5.9,0-9.4-0.9-11.1-3.1c-1-1.3-1.3-2.8-0.9-4.7
			c1.4-6.6,20.7-20.2,39.4-30.6c-0.6-1.4-1.1-2.7-1.5-4c-3.3-7.8-4.1-13.2-2.2-16.1c0.7-1,2-2.2,4.5-2.2c1.3,0,2.6,0.3,4.3,0.9
			c2.1,0.8,4.4,2.3,7.1,4.3c2.6,1.8,5.8,4.1,10,6.3c8.1-3.2,17.9-6.5,27.7-9.1c1.5-3.5,2.9-6.8,4.1-9.8c3.9-9.6,6.2-15.3,9.7-15.3
			c0.1,0,0.1,0,0.2,0c1.8,0.1,4,0.4,6.5,0.9c3.3,0,6.1,1.1,7.6,1.8c3.2-3.3,11.6-11.6,15.2-11.6c0.4,0,0.8,0.1,1.1,0.3
			c17.2,9.2,25.7,15.6,30.1,22.7c0.7,0.9,1.1,1.7,1.4,2.5c0.8,1.5,1.4,3.1,1.9,4.8c1.3,4.2,2.6,8.2,3.8,12c1.8-0.9,3.5-1.6,5.2-2.5
			c10.8-5.1,20-9.5,29.5-9.5c3.6,0,7,0.6,10.4,1.9c9.9,3.7,16.7,10.1,20.2,18.8c4.4,10.9,3,25.4-3.5,38.5c-0.9,1.7-1.8,3.4-2.7,5.1
			c-1.3,2.6-2.8,4.8-4.5,6.7c-3.6,4.5-7.7,8.4-12.2,11.4c0,0-0.3,0.2-0.4,0.3c0.5,1.1,0.7,2.4,0.5,3.8c0.7,0.2,1.4,0.4,2,0.8
			c0.1-0.1,0.2-0.2,0.3-0.2c0.2-0.1,0.4-0.2,0.7-0.2c0.3,0,0.6,0.1,0.9,0.3c0.2,0.2,4.8,4.3,4.9,11c0,0.2,0,0.3,0,0.4v0.2
			c0.1,1.8-0.3,3.5-0.9,5c-0.9,2-2.1,3-2.6,3.2c-0.6,0.4-1.2,0.8-1.8,1c0.9,1.8,1.7,5-0.1,9.6c-2,6.6-5.9,7.9-6.8,8.2
			c-0.8,0.3-1.6,0.6-2.4,0.7c0,0.2,0,0.4-0.1,0.7c-0.3,1.5-1.4,2.9-3.2,4.2c-1.7,1.4-3.8,2-5.9,2c-0.7,0-1.5-0.1-2.1-0.3
			c-0.4,1.1-1.5,2.6-3.8,3.6c-0.8,0.3-1.5,0.4-2.3,0.4c-0.3,0-0.6,0-0.9-0.1c-0.1,0-0.3-0.1-0.3-0.1c-0.1,0-0.2,0-0.2,0
			c-1.1-0.2-2.1-0.7-3.1-1.3c-0.9,0.7-2,1.2-3.2,1.5c-0.9,0.3-1.9,0.5-2.7,0.5c-0.7,0-1.3-0.1-1.9-0.3c-0.6-0.1-1.1-0.3-1.5-0.4
			c-2-0.8-3.6-2.2-4.6-4.1c-0.3,0-0.6-0.1-0.9-0.1c-0.9-0.1-2-0.3-3.2-0.7c-0.5-0.2-1-0.3-1.5-0.6c-4-1.4-5.5-4.1-5.9-5.6
			c-0.4-0.1-0.9-0.2-1.4-0.4c-0.2-0.1-0.3-0.1-0.4-0.2c-1.5-0.6-2.8-1.6-3.8-3c-0.2-0.2-0.3-0.3-0.4-0.6c-2.6-0.2-5.6-0.3-8.7-0.5
			c-0.9,0-1.6,0-2.5-0.1c3,2.6,5.2,4.8,6.7,6.9c0.6,0.8,1,1.6,1.1,2.7c0.2,0.9,0.1,2-0.4,3c0,0.1-0.1,0.1-0.1,0.2
			c-0.2,0.3-0.4,0.7-0.8,1c-0.1,0.1-0.1,0.2-0.2,0.2l-0.1,0.1c-0.1,0.1-0.2,0.2-0.2,0.3l0,0c1.1,2.1,1.7,4.1,1.8,4.3
			c0.1,0.3,0.1,0.8-0.2,1c-0.2,0.3-0.5,0.5-0.9,0.6c-2.4,0.3-8.3,1.3-10.7,1.8c0,0.3,0.1,0.4,0.1,0.7c0.2,0.1,0.4,0.3,0.6,0.4
			c0.4,0.2,0.9,0.4,1.1,0.9c2,1.5,4.5,3.5,6.2,5.4c2.8,3.1,5.8,6.7,6.1,10.2c0.3,2.9-1.3,7.6-5.6,9c-0.4,0.1-0.8,0.3-1.2,0.3
			c-0.4,0.7-1,1.2-1.6,1.5l0.2,0.6l0.2,0.2c0.2,0.2,0.3,0.3,0.3,0.5l0.8,2.4l3,1.9c0.5,0.3,0.7,0.9,0.5,1.5
			c-0.2,0.5-0.7,0.9-1.2,0.9L142,247.4L142,247.4z M153,233.4c0.2,0,0.3,0,0.4,0c0-0.2,0.1-0.3,0.1-0.5c0.3-3.8-2.9-10.3-4.9-14.1
			c-0.1,0.1-0.2,0.2-0.3,0.2L153,233.4z M156.1,224.2c1.1,2.8,1.9,5,2.1,7c0.3-0.6,0.4-1.3,0.3-2.1
			C158.4,227.8,157.6,226.1,156.1,224.2z M84.4,184.9c0.2,1.3,0.3,2.5,0.6,3.6c0.3,1.1,0.4,2.2,0.6,3.2c0.9,5.3,1.6,9.9,8.5,18.4
			c1.7,2.1,3.8,3.9,6.2,5.4c0.1-1.3,0.2-2.6,0.4-4.1c-0.9,0.1-1.7,0.1-2.1,0.1c-0.3,0-0.5,0-0.5,0c-0.4,0-0.8-0.3-1-0.6
			c-0.3-0.3-0.3-0.8-0.2-1.2l5.7-15.5c-1.1-0.5-2.5-1.3-4-2.1h-0.1c-0.9-0.6-2-1.2-2.8-1.9c-2.5,2.2-4.9,3.4-5,3.4
			c-0.2,0.1-0.3,0.1-0.5,0.1c-0.4,0-0.9-0.3-1.1-0.6L84.4,184.9z M52.2,95.8c-21.8,12.3-36,24.4-35.9,27.2c0,0,0.5,1.1,6.2,1.1
			c9.6,0,25.8-2.9,34.5-4.5l1.6-0.3c2.1-0.3,4-0.6,5.8-0.6c4.3,0,7.1,1.1,9.5,2.3c0.4-0.9,0.9-1.7,1.5-2.6
			c-4.1-2.8-12.6-8.7-19.4-17.4C54.6,99.3,53.3,97.5,52.2,95.8z M78.2,123.3c0-0.1,0-0.2,0-0.2C78.2,123.2,78.2,123.2,78.2,123.3
			C78.1,123.2,78.1,123.2,78.2,123.3z M78.3,83.6c3.9,1.7,8.1,3.2,12.7,4.4c2-3.2,3.8-6.6,5.8-10.3C90.3,79.5,83.9,81.5,78.3,83.6z"
			/>
		<path d="M143,38.7c0.2,0,0.3,0,0.5,0.1c17.4,9.3,25.5,15.5,29.7,22.3c0.6,0.8,1,1.5,1.3,2.2l0,0c0.8,1.5,1.4,3.1,1.9,4.7
			c1.5,5,2.9,9.5,4.2,13.4c13.5-6.2,24.4-12.5,35.4-12.5c3.3,0,6.6,0.5,10,1.8c26.6,9.9,24.8,37.5,16,55.6c-0.9,1.8-1.8,3.4-2.7,5
			c-1.2,2.3-2.6,4.5-4.4,6.5l0,0c-3.8,4.9-7.9,8.5-12,11.2l0,0l0,0c-0.4,0.3-0.9,0.6-1.5,0.9c0.9,1.2,1.4,2.8,0.8,5.4
			c1.5,0.1,3.3,0.8,4.8,2c-0.2-0.9-0.3-1.5-0.3-1.5s4.4,3.8,4.4,10.1c0,0.2,0,0.3,0,0.5c0.1,1.9-0.3,3.3-0.8,4.4
			c-0.9,2.1-2.1,2.6-2.1,2.6l0,0c-1.5,1.2-3,1.5-3,1.5s3.2,3.5,0.7,9.9l0,0c-2.1,6.7-6.1,7.4-6.1,7.4c-0.9,0.4-1.7,0.6-2.6,0.6
			c-0.3,0-0.6,0-0.9-0.1c0,0,1.6,2.4-2.5,5.2l0,0c-1.5,1.2-3.3,1.8-5.2,1.8c-0.9,0-2-0.2-2.9-0.5c-0.1,0-0.1,0-0.1,0s-0.1,2.6-3.3,4
			c-0.6,0.3-1.2,0.3-1.8,0.3c-0.3,0-0.4,0-0.7-0.1c-0.1,0-0.2,0-0.3-0.1c-0.1,0-0.1,0-0.2,0c-1.3-0.3-2.5-0.9-3.2-1.8
			c-1,0.9-2.2,1.6-3.6,2c-0.8,0.3-1.5,0.4-2.3,0.4c-0.5,0-0.9-0.1-1.5-0.3c0,0,0,0-0.1,0c-0.5-0.1-1-0.3-1.5-0.4
			c-2-0.9-3.5-2.4-4.3-4.2c0,0-0.1,0-0.4,0c-0.3,0-0.6,0-1.1-0.1c-0.9-0.1-1.9-0.3-3-0.7c-0.5-0.2-1-0.3-1.5-0.6l0,0
			c-5-1.7-5.4-5.6-5.4-5.6l0,0c-0.2,0-0.9,0-1.9-0.4c-0.1-0.1-0.3-0.1-0.3-0.2c-1.4-0.6-2.5-1.5-3.3-2.6l0,0c-0.3-0.3-0.5-0.7-0.7-1
			c-2.7-0.2-6-0.3-9.4-0.6c-2.1,0-4.3-0.1-6.4-0.2c4.3,3.3,7.5,6.3,9.6,9.1c0.5,0.6,0.8,1.3,0.9,2.1c0.2,0.8,0,1.5-0.3,2.3
			c-0.2,0.3-0.4,0.6-0.8,0.9l0,0l-0.1,0.1c-0.1,0.1-0.1,0.2-0.2,0.3c-0.1,0.1-0.3,0.3-0.4,0.4l-0.3,0.2c1.4,2.4,2.2,5,2.2,5
			s-9.7,1.5-11.7,2.1c-0.1,0.3-0.2,0.5-0.2,0.9c0.2,0.6,0.2,1.1,0.2,1.5l0,0c0,0,0.5,0.3,1.4,0.9h0.1c0.3,0.1,0.4,0.2,0.6,0.5
			c1.9,1.4,4.5,3.5,6.3,5.4c2.9,3.1,5.5,6.4,5.8,9.5c0.2,2.3-1,6.5-4.8,7.6c-0.5,0.2-1.1,0.3-1.6,0.4c-0.5,0.9-1.3,1.6-2.4,2
			l0.6,1.9v0.1c0.1,0.1,0.3,0.3,0.3,0.3l0.9,2.8l3.4,2.1h-0.3h-16.2h-0.3c-3.3-2-6.1-5-8.3-8.9c-1.3-2.3-2.4-3.9-3.6-5
			c-0.8-0.7-1.7-1-2.5-1.1c-0.2,0-0.3,0.1-0.3,0.1h-0.1c-0.1,0-0.1,0-0.2,0c-1.6,0.4-2.9,2-4,5.2c-0.7,2-1.8,4.7-3.2,8.1h-3.7h-0.3
			h-8.9h-0.3l4.2-2.6c-4.1-6.2-8.5-14.9-9.3-22.3c-2.7-1.5-5.6-3.3-8.4-6c-9.8-9.1-12.1-24.4-12.6-33.2c-1.2-0.3-2.5-0.9-3.3-1.6
			c-0.9,0.3-2,0.4-3.4,0.6c-0.3,0-0.7,0.1-0.9,0.1c-0.4,0-0.9,0-1.2-0.1c-0.8-0.1-1.5-0.2-2.3-0.5c-0.3-0.1-0.6-0.3-0.9-0.4
			c-1.6-0.8-2.7-1.7-2.7-1.7l-0.1-1.5c0,0-0.3,0-0.9,0c-1.2,0-3.2-0.2-4.7-1.1c-2.1-1.4-2-4.9-2-4.9s-0.1,0-0.3,0
			c-0.3,0-0.7,0-1.3-0.1c-0.3,0.1-0.5,0.1-0.9,0.1c-0.5,0-1-0.1-1.5-0.4c-0.9-0.5-1.6-1-2.2-1.7l0,0c-2.6-2.3-2.4-5.3-2.4-5.3
			l0.5-1.2c0.1-0.3,0.2-0.7,0.3-1c0.2-0.3,0.3-0.7,0.5-0.9c0,0,0,0-0.1,0c-0.2,0-0.3-0.1-0.5-0.1c-1.2-0.3-3.7-1.5-4.3-5.3
			c-0.8-5,3.8-7.1,3.8-7.1c1.2-1,2.3-1,2.6-1.3c0,0-1.5-1.3-0.9-4.2c0.8-3.8,4.8-4.8,7.5-4.8c0.2,0,0.3,0,0.4,0
			c0.3-2.5-0.9-4.8,2.6-7.3c2.3-1.6,4.3-2.2,5.9-2.2c0.9,0,1.5,0.2,2.2,0.4c0.8-0.9,1.8-1.5,3-1.6c0.1-0.5,0.3-0.9,0.3-0.9l1.7,0.9
			c0.2,0,0.3,0.1,0.5,0.1c-0.2-0.1-0.4-0.3-0.6-0.3c-4.5-2.2-7.9-2.9-10.9-2.9c-1.8,0-3.4,0.3-5,0.6c-17.3,3.5-29.5,5.3-37.4,5.3
			c-8.3,0-11.6-2-10.8-6.2c1.2-5.7,19.6-19.2,39.8-30.2c-0.9-1.6-1.5-3.2-2-5l0,0c-4.9-11.3-3.8-16.6,1.1-16.6
			c1.1,0,2.4,0.3,3.8,0.8c4,1.5,8.6,6.1,17.4,10.8c8.3-3.3,18.5-6.7,28.7-9.4c6.1-13.5,9.3-24.8,13-24.8h0.1c2,0.1,4.3,0.4,6.5,0.9
			h0.1c3.3,0,6.1,1.2,7.3,1.7c0.5,0.2,0.8,0.3,0.8,0.3S139.4,38.7,143,38.7 M91.5,89.4c2.9-4.5,5.5-9.3,7.6-13.8
			c-8.6,2.5-17.2,5.2-24.3,7.9C79.4,85.6,84.7,87.7,91.5,89.4 M22.5,125.3c10.3,0,28.4-3.4,36.4-4.8c2.1-0.3,3.9-0.5,5.6-0.5
			c5.6,0,8.6,2,11.6,3.6c1.3,0.7,2.6,1.5,3.8,2.2c0.1-0.1,0.3-0.2,0.3-0.3c-0.3-0.6-0.6-1.5-0.9-2.9l0,0l-0.6-2.9
			c-1.6,2-2.1,3.8-2.1,3.8l-2-0.9c0.9-1.9,1.5-3.1,2.8-4.4c-3.1-2.2-12.9-8.5-20.3-17.9c-1.6-2-3.2-4-4.4-6.1
			C33,105.2,14.7,118.9,15,123.2C15.1,124.6,18.1,125.3,22.5,125.3 M113.1,183c-4.3-1-8.2-2-11.8-3.2c0,0,0,0,0,0.1
			c5.6,2.4,10.8,2.8,10.7,3c0,0,0,0,0,0.1C112.3,182.9,112.8,183,113.1,183 M101.7,217.6c-0.1-2.4,0.2-5,0.7-7.8
			c-1.5,0.3-3,0.3-3.8,0.3c-0.3,0-0.4,0-0.4,0l5.9-15.8c0,0,0.3-0.3,0.8-0.6c-1-0.4-3.1-1.4-5.5-2.8c0,0,0,0-0.1,0l0,0
			c-1.1-0.7-2.4-1.5-3.6-2.4c-2.6,2.6-5.4,3.9-5.4,3.9l-6.6-11.3c0,0-0.3-0.1-0.9-0.2c0.2,2.2,0.4,5,0.9,7.8
			c1.4,6.7,0.9,11.7,9.3,22.1C95.5,213.9,98.5,216.1,101.7,217.6 M146.4,197.4l0.1-0.4c-1-0.4-2.1-0.8-3.6-1.6
			C144.3,196.3,145.4,196.9,146.4,197.4 M156.9,234c2-0.9,3.3-2.6,2.9-5.1c-0.8-4.3-6.6-10.2-9.9-13.2l0,0c1.3,1.8,3.2,4.5,4.1,6.9
			C156.2,227.6,157.7,231.2,156.9,234 M153.7,234.6c0.3,0,0.5,0,0.8,0c0.2-0.5,0.3-1,0.4-1.6c0.4-4.5-3.8-12.5-5.8-16.1
			c-0.6,0.6-1.4,1.1-2.3,1.5l5.3,16.1C152.5,234.6,153.1,234.6,153.7,234.6 M143,36.1L143,36.1c-1.6,0-4.1,0.8-10.5,6.6
			c-2,1.9-3.8,3.7-5,4.8c-1.7-0.7-4.3-1.5-7.2-1.5c-2.5-0.5-4.7-0.8-6.6-0.9c-0.1,0-0.2,0-0.3,0c-4.4,0-6.7,5.7-10.9,16.1
			c-1.1,2.8-2.5,6-3.8,9.2c-9.4,2.6-18.8,5.6-26.7,8.8c-3.8-2.1-6.8-4.3-9.3-6c-2.8-2-5.1-3.6-7.4-4.4c-1.7-0.6-3.3-0.9-4.7-0.9
			c-2.4,0-4.4,1-5.6,2.8c-2.1,3.3-1.5,9,2,17.2c0.3,1,0.7,2,1.1,3c-13.8,7.8-37.2,22.7-38.9,30.8c-0.6,2.8,0.3,4.7,1.2,5.7
			c2,2.4,5.8,3.5,12,3.5c7.8,0,19.8-1.7,37.9-5.4c1.2-0.3,2.6-0.5,4.3-0.5c-1.1,0.4-2.2,1-3.4,1.9c-3.4,2.4-3.8,5-3.7,7
			c-3.5,0.5-7.1,2.5-7.9,6.7c-0.3,1.3-0.3,2.4-0.1,3.3c-0.2,0.2-0.4,0.3-0.6,0.4c-2.2,1.1-5.8,4.4-5,9.6c0.5,3.6,2.4,5.5,4,6.5
			l-0.3,0.7c-0.1,0.3-0.2,0.5-0.2,0.8c0,0.4-0.2,4.2,3.1,7.3c0.8,0.9,1.7,1.5,2.7,2.1c0.9,0.5,1.8,0.8,2.8,0.8h0.1
			c0.3,1.5,1.1,3.3,2.9,4.4c1.5,0.9,3.2,1.4,4.8,1.5c0.2,0.3,0.3,0.6,0.6,0.9c0.2,0.1,1.4,1.1,3.2,2c0.3,0.2,0.7,0.3,1,0.5
			c0.9,0.4,2,0.6,3,0.7c0.5,0.1,1,0.1,1.5,0.1c0.4,0,0.9,0,1.3-0.1c0.9-0.1,1.7-0.3,2.5-0.4c0.4,0.3,0.9,0.5,1.5,0.8
			c0.7,9.1,3.4,24.1,13.3,33.2c2.5,2.2,5,4.2,7.7,5.6c1.1,7.3,5,14.9,8.1,19.9l-2,1.3c-0.9,0.6-1.4,1.8-1.1,2.9
			c0.3,1.1,1.3,1.9,2.5,1.9h0.3h8.9h0.3h3.7c1,0,2-0.6,2.4-1.6l0.5-1.3c1.2-2.9,2-5.1,2.6-6.9c0.9-2.5,1.6-3.2,2-3.5
			c0.1,0,0.2,0,0.3,0c0.2,0.1,0.4,0.2,0.7,0.4c0,0,0,0,0.1,0c0.9,0.8,1.8,2,3,4.3c2.3,4.3,5.5,7.6,9.2,9.8c0.4,0.3,0.9,0.3,1.3,0.3
			h0.3h16.2h0.3c1.1,0,2.1-0.8,2.5-1.9c0.3-1.1-0.2-2.3-1.1-2.9l-2.6-1.6l-0.7-2c-0.1-0.2-0.2-0.3-0.3-0.5c0.3-0.3,0.5-0.5,0.8-0.8
			c0.3-0.1,0.6-0.2,0.9-0.3c5-1.5,6.8-7,6.6-10.3c-0.3-4-3.3-7.7-6.4-11c-1.7-1.9-4.3-3.9-6.2-5.4c-0.1-0.1-0.2-0.2-0.3-0.3
			c2.5-0.4,5.8-1,8.4-1.4c0.8-0.1,1.4-0.5,1.8-1.2c0.4-0.6,0.5-1.5,0.3-2.1c0-0.1-0.5-1.7-1.5-3.7c0.3-0.4,0.6-0.8,0.8-1.1
			c0.1-0.1,0.1-0.2,0.2-0.3c0.6-1.3,0.8-2.6,0.5-3.8c-0.2-1.3-0.6-2.4-1.4-3.3c-1.1-1.5-2.5-3.1-4.3-4.8c2.5,0.2,5,0.3,7.1,0.4
			c0,0.1,0.1,0.1,0.1,0.2c1.1,1.5,2.6,2.6,4.4,3.3c0.2,0.1,0.3,0.1,0.4,0.2l0,0c0.3,0.1,0.6,0.2,0.9,0.3c0.9,2,2.7,4.4,6.4,5.6
			c0.5,0.3,1,0.4,1.6,0.6c1.2,0.3,2.3,0.6,3.4,0.8c0.1,0,0.2,0,0.3,0.1c1.2,1.9,2.9,3.2,4.9,4.1c0.5,0.2,1,0.3,1.7,0.5
			c0.7,0.3,1.5,0.4,2.2,0.4c0.9,0,2-0.2,3.1-0.6c0.9-0.3,1.9-0.7,2.7-1.2c0.9,0.5,1.8,0.9,2.8,1c0.1,0,0.1,0,0.2,0h0.1
			c0.2,0,0.3,0,0.3,0.1c0.3,0.1,0.7,0.1,1,0.1c0.9,0,1.9-0.2,2.8-0.6c2-0.9,3.2-2,4-3.3c0.4,0.1,0.9,0.1,1.4,0.1
			c2.4,0,4.8-0.9,6.7-2.3c2-1.5,3.3-3,3.8-4.8c0.5-0.1,1.1-0.3,1.6-0.5c1.4-0.3,5.4-2,7.6-9c1.5-3.9,1.3-7.2,0.5-9.5
			c0.3-0.2,0.5-0.3,0.9-0.5c0.7-0.4,2.1-1.5,3.1-3.8c0.8-1.6,1.1-3.4,1-5.5v-0.1c0-0.2,0-0.3,0-0.4c-0.1-7.3-5-11.8-5.3-12
			c-0.5-0.4-1.1-0.6-1.7-0.6c-0.3,0-0.7,0.1-1,0.2c-0.2-0.1-0.4-0.2-0.6-0.3c0-0.9-0.1-1.6-0.3-2.4c4.5-3.1,8.5-6.8,12.1-11.4
			c1.7-2,3.3-4.3,4.7-6.9c0.9-1.6,1.9-3.3,2.7-5.1c6.7-13.5,8-28.3,3.5-39.6c-3.6-9.1-10.6-15.6-20.9-19.6c-3.6-1.4-7.2-2-10.9-2
			c-9.8,0-19.2,4.4-30.1,9.6c-1.3,0.6-2.6,1.2-3.8,1.9c-1.1-3.3-2.2-6.9-3.3-10.6c-0.5-1.8-1.2-3.4-2-4.9c-0.3-0.9-0.8-1.7-1.5-2.6
			c-4.6-7.3-13.2-13.7-30.7-23.1C144.2,36.3,143.6,36.1,143,36.1L143,36.1z M81.8,83.7c3.9-1.4,8.1-2.7,12.4-4
			c-1.3,2.5-2.6,4.7-3.8,6.8C87.4,85.6,84.5,84.7,81.8,83.7L81.8,83.7z M17.9,122.3c2-3.2,13-13,33.9-24.8c1,1.5,2.1,2.9,3.3,4.4
			c6.3,8.1,14.2,13.8,18.6,16.9c-0.1,0.2-0.3,0.3-0.3,0.5c-2.3-1-5-1.9-9-1.9c-1.9,0-3.8,0.2-6.1,0.6l-1.6,0.3
			c-8,1.5-24.8,4.4-34.2,4.4C20,122.8,18.7,122.5,17.9,122.3L17.9,122.3z M95.7,210c-0.2-0.2-0.3-0.4-0.5-0.6
			c-6.6-8.1-7.3-12.6-8.2-17.6l1.2,2c0.5,0.8,1.4,1.3,2.2,1.3c0.3,0,0.8-0.1,1.1-0.3c0.1-0.1,2.1-1,4.5-3c0.7,0.4,1.4,0.9,2,1.3
			l0.1,0.1l0,0c1.2,0.7,2.2,1.3,3.1,1.7l-5.4,14.4C95.7,209.5,95.7,209.7,95.7,210L95.7,210z M98.7,212.8c0.2,0,0.4,0,0.7,0
			c0,0.2,0,0.3-0.1,0.5C99.1,213.1,98.8,212.9,98.7,212.8L98.7,212.8z"/>
	</g>
	<path class="st0" d="M125.8,254.7c14.2,0,26.4-0.8,36.4-2.4c10.1-1.7,15.1-3.7,15.1-6c0-2.2-5-4.3-15.1-6
		c-10-1.5-22.2-2.4-36.4-2.4c-14.3,0-26.4,0.9-36.4,2.4c-10.1,1.7-15,3.8-15,6c0,2.3,5,4.3,15,6C99.4,253.9,111.6,254.7,125.8,254.7
		z"/>
	<g>
		<g>
			<g>
				<g>
					<path class="st1" d="M142.5,186c-10.8,1.1-20.8-2.3-31.4-3.3c-0.9,1.9-2.6,5.9-3.3,7.1c0.8-0.2,1.5-0.2,2.1-0.3
						c0.3-0.1,2-0.1,5-0.1c6.8,0,11.9,1.1,15.2,3.4c3.8,2.5,5.7,6.8,5.8,12.8c0,6.3,2.4,13.3,6.8,21.1c3,5.4,6.7,10,11,14l-9.4-28.8
						c-0.9-0.4-1.8-0.9-2.7-1.5c-1.2-0.6-2-1.4-2.2-2.2c-0.3-0.9-0.3-1.8,0-2.7c0.3-0.9,0.8-1.6,1.6-2.2l0.4-0.3
						c-1.3-4.7-0.9-5.8-0.6-8.2c0-0.3,0-0.6,0.1-0.9c0.2,0.1,0.3,0.2,0.3,0.3c0.5-0.6,0-3.7,0.3-3.9c0.5-0.8,1.3-1.1,2.2-1.1
						c1.3,0,2.9,0.7,5.1,2.2c0.2,0.2,0.4,0.3,0.6,0.4v0.3c2.5,2.5,5.4,5.8,8.5,9.8c0.4-0.4,0.8-0.9,1-1.3c0.3-0.8,0.5-1.5,0.3-2.3
						c-0.1-0.9-0.3-1.5-0.9-2.1c-2.3-3.2-6.1-6.7-11.4-10.5v-0.4C145.5,185.5,143.9,185.7,142.5,186z"/>
					<path class="st2" d="M148.9,191.1c-2.2-1.5-3.6-2.2-5-2.2c-0.9,0-2,0.6-2.5,1.4c-0.3,0.3,0.2,3.3-0.3,3.9
						c3.4,2.2,5.2,1.9,7.3,3.9l-7.1,5l-0.4,0.3c-0.9,0.6-1.4,1.3-1.6,2.2s-0.3,1.8,0,2.7c0.3,0.9,1,1.6,2.2,2.2
						c0.9,0.6,1.9,1,2.7,1.5c1.7,0.1,3.2-1.2,3.2-3.8l10.1-5.7c0.2-0.2,0.7-0.7,0.8-0.8c-3.1-4-5.1-6.6-7.6-9.1l-1-0.9
						C149.6,191.6,149,191.3,148.9,191.1z"/>
					<path class="st2" d="M105.6,195c-3.7,10.7-3.9,17.3-4,19.4c0,0,0,0.1-0.1,0.2c0,0.3,0,0.5,0,0.9c0.1,0.3,0.1,0.8,0,1.2
						c0,0.3,0,0.6,0,0.9c0.2,7.9,5,17.2,9.4,24l-4.2,2.6h9.1v-0.2c0.7-1.1,1.4-3,2-5.7s1.4-4.7,1.9-5.6c0.9-1.7,2.4-2.6,4.3-2.6
						c0.4,0,1.4,0.3,2.9,0.8c0.1,0,0.3-0.1,0.4-0.1c0.9,0,1.8,0.3,2.6,1.1c1.2,1,2.3,2.6,3.6,5c2.1,3.9,5,6.9,8.3,8.9h16.5l-3.4-2.1
						l-0.9-2.8c-4.3-4-8-8.6-11-14c-4.4-7.8-6.8-14.8-6.8-21.1c-0.1-6-2-10.3-5.8-12.8c-3.3-2.3-8.4-3.4-15.2-3.4
						c-3.1,0-4.7,0-5,0.1c-0.7,0.1-1.4,0.1-2.1,0.3 M101.2,214.6l0.3-0.2"/>
					<path class="st3" d="M139.8,186.5c0,0-1.9,0.8-1,4.2c0.5,2.2,2.1,3.2,2.1,3.2s2,10.2,2.1,11.7c0.2,1.5,1.5,7.3,1.5,7.3
						l-7.3-3.1c-4.2-1.5-6.4-7.1-6.5-11.5c0-0.3,0-0.7,0-1c0.2-6.8,3.1-11.2,3.1-11.2L139.8,186.5z"/>
					<path class="st1" d="M115.6,243.9v0.2h3.9c1.4-3.4,2.5-6.1,3.2-8.1c1.1-3.2,2.5-6,4.7-5.3c-1.5-0.5-3.2-0.7-3.6-0.7
						c-1.9,0-3.3,0.9-4.3,2.6c-0.5,0.9-1.2,2.9-1.9,5.6C116.9,241,116.3,242.8,115.6,243.9z"/>
					<path class="st4" d="M147.2,185.7c5.2,3.8,9.1,7.3,11.4,10.5c0.5,0.6,0.8,1.3,0.9,2.1c0.2,0.8,0,1.5-0.3,2.3
						c-0.3,0.4-0.6,0.9-1,1.3c-0.1,0.1-0.3,0.3-0.4,0.4l-10.2,5.7c-0.9,2.7,0,4.4-3.1,3.8"/>
					<path class="st4" d="M140.9,193.9c0.2,0.1,0.3,0.2,0.3,0.3c3.4,2.2,4.8,2.7,7.3,3.9l-7.1,5"/>
					<path class="st4" d="M144.4,211.9c-0.9-0.4-1.8-0.9-2.7-1.5c-1.2-0.6-2-1.4-2.2-2.2c-0.3-0.9-0.3-1.8,0-2.7
						c0.3-0.9,0.8-1.6,1.6-2.2l0.4-0.3"/>
					<path class="st4" d="M107.7,189.7c0.9-2,0.9-2.4,1.7-4"/>
					<path class="st4" d="M144.4,211.9l9.4,28.8l0.9,2.8l3.4,2.1h-16.5c-3.3-2-6.1-5-8.3-8.9c-1.3-2.3-2.4-3.9-3.6-5
						c-0.9-0.8-1.8-1.1-2.6-1.1c-0.2,0-0.3,0.1-0.4,0.1c-1.6,0.4-2.9,2-4,5.2c-0.7,2-1.8,4.7-3.2,8.1h-3.9h-9.1l4.2-2.6
						c-4.4-6.7-9.2-16.1-9.4-24c-0.6-13.3,9.8-34.5,9.8-34.8"/>
				</g>
				<polygon class="st5" points="144.7,234.6 148.3,242.7 152.9,245.6 158.4,245.6 154.8,243.4 152.7,237.9 				"/>
				<g>
					<path class="st6" d="M71.9,179.4c-1,0-2-0.2-2.9-0.6c-1.6-0.7-3-2-3.8-3.5c-1.1,0-2.3-0.3-3.7-0.7c-2.7-0.9-3.8-4.3-4.2-5.6
						c-0.4,0.2-1.1,0.4-1.9,0.4c-0.6,0-1.2-0.2-1.8-0.4c-3.8-2.2-5.5-6.1-3.9-9.7c0.1-0.2,0.2-0.3,0.3-0.5c-0.9-0.3-1.6-0.9-2.6-2.2
						c-1.5-2-2.7-4.8,1-9.8c1.2-1.6,2.5-2,3.2-2.2l0,0c-0.4-0.7-0.9-2-0.6-4.1c0.8-3.8,4.6-5.1,7.9-5.1l0,0c0-0.4,0-0.9,0-1.3
						c-0.1-2-0.2-3.9,2.8-6c2.1-1.5,4.2-2.3,6.1-2.3c0.7,0,1.5,0.1,2,0.3c0.9-1,2.3-1.6,3.9-1.6c1.3,0,2.7,0.3,4.4,0.9
						c1.5-1.4,2.7-2,4.2-2c0.9,0,2,0.3,3.4,0.8c3.8,1.4,6.2,4.2,6.8,8.1c0.7,0.1,1.5,0.3,2,0.5c2.4,1,4.9,2.4,4.2,6.5
						c2.6,0.4,6,2.9,6.9,6.5c0.9,3.2,0.7,5.9-0.6,7.9c-1.1,1.6-2.6,2.3-3.6,2.6c0.9,1.4,2.6,5.3-1.5,11.3c-1.1,1.6-3.4,3.3-5.7,3.3
						l0,0c-0.1,0-0.3,0-0.3,0c0.1,0.3,0.2,0.6,0.1,0.9c-1.2,2.7-3.8,4.5-6.8,4.5c-1,0-2-0.2-2.8-0.6c-0.3,1.5-1.3,2.7-2.6,3.2
						c-0.5,0.2-1,0.3-1.6,0.3c-1.4,0-2.8-0.6-3.8-1.5C75.3,178.9,73.6,179.4,71.9,179.4z"/>
					<g>
						<path d="M82.6,123.9c0.9,0,2,0.3,3.3,0.8c4.6,1.7,6.2,5.1,6.6,8.1c0.8,0.1,1.5,0.3,2.3,0.5c2.3,0.9,4.8,2.3,3.8,6.4
							c2.7,0.2,6.1,2.7,7,6.2c2.4,9.1-4.5,10-4.5,10s3.8,4.1-1.2,11.4c-1.2,1.7-3.3,3.2-5.4,3.2c-0.3,0-0.6,0-0.9-0.1
							c-0.1,0.3,0.3,0.9,0.2,1.3c-1.1,2.6-3.8,4.3-6.5,4.3c-0.9,0-1.9-0.2-2.7-0.5c-0.2-0.1-0.3-0.2-0.5-0.3c-0.1,1.7-1.1,3-2.4,3.4
							c-0.5,0.2-0.9,0.3-1.5,0.3c-1.5,0-2.9-0.6-3.8-1.6c-1.3,1.2-3,1.8-4.7,1.8c-0.9,0-1.8-0.2-2.7-0.5c-1.7-0.7-2.9-2-3.7-3.6
							c0,0,0,0-0.1,0c-1,0-2.2-0.2-3.8-0.7c-3.2-1.1-4-5.9-4-5.9s-0.9,0.7-2.2,0.7c-0.5,0-1-0.1-1.5-0.4c-3.3-2-5.2-5.6-3.8-9.2
							c0.2-0.3,0.3-0.6,0.5-0.9c-0.8-0.1-1.6-0.5-2.9-2.2c-1.6-2.1-2.3-4.8,1-9.3c1.5-2,3.1-1.9,3.6-2.2c0,0-1.5-1.3-0.9-4.2
							c0.8-3.8,4.8-4.8,7.5-4.8c0.2,0,0.3,0,0.4,0c0.3-2.5-0.9-4.8,2.6-7.3c2.3-1.6,4.3-2.2,5.9-2.2c0.9,0,1.5,0.2,2.2,0.4
							c0.9-1.2,2.3-1.6,3.8-1.6c1.5,0,3,0.4,4.4,1C80.1,124.5,81.2,123.9,82.6,123.9 M78.5,125.9L78.5,125.9L78.5,125.9 M78.5,125.9
							L78.5,125.9L78.5,125.9 M78.5,125.9L78.5,125.9L78.5,125.9 M78.5,125.9L78.5,125.9L78.5,125.9 M78.5,125.9L78.5,125.9
							L78.5,125.9 M78.5,125.9L78.5,125.9L78.5,125.9 M78.5,125.9L78.5,125.9L78.5,125.9 M78.5,125.9L78.5,125.9L78.5,125.9
							 M78.5,125.9L78.5,125.9L78.5,125.9 M78.5,125.9C78.5,125.9,78.5,126,78.5,125.9C78.5,126,78.5,125.9,78.5,125.9 M78.5,126
							L78.5,126L78.5,126 M78.5,126L78.5,126L78.5,126 M78.5,126L78.5,126L78.5,126 M78.5,126L78.5,126L78.5,126 M78.5,126L78.5,126
							L78.5,126 M78.5,126L78.5,126L78.5,126 M78.5,126L78.5,126L78.5,126 M78.5,126L78.5,126L78.5,126 M82.6,123
							c-1.5,0-2.8,0.6-4.3,2c-1.5-0.6-3-0.9-4.3-0.9c-1.7,0-3.1,0.5-4.1,1.5c-0.6-0.2-1.3-0.3-2-0.3c-2,0-4.2,0.8-6.4,2.4
							c-3.1,2.1-3,4.4-3,6.3c0,0.3,0,0.5,0,0.8c-5.1,0.2-7.4,2.9-7.9,5.5c-0.3,1.8,0,3.1,0.3,3.9c-0.8,0.3-1.9,0.8-2.9,2.2
							c-3.1,4.1-3.3,7.3-1,10.3c0.9,1.1,1.6,1.8,2.4,2.2v0.1c-1.6,3.8,0.1,7.9,4.1,10.2c0.6,0.3,1.3,0.5,2,0.5
							c0.6,0,1.2-0.2,1.6-0.3c0.4,1.6,1.6,4.6,4.3,5.5c1.3,0.4,2.5,0.7,3.5,0.8c0.9,1.5,2.2,2.8,3.8,3.5c0.9,0.4,2,0.6,3.1,0.6
							c1.7,0,3.3-0.5,4.7-1.5c1,0.9,2.5,1.4,3.8,1.4c0.6,0,1.2-0.1,1.8-0.3c1.3-0.4,2.3-1.6,2.7-3c0.9,0.3,1.7,0.4,2.6,0.4
							c3.2,0,6-1.9,7.3-4.8c0.1-0.3,0.1-0.4,0.1-0.6c2.5-0.1,4.8-1.9,6-3.6c3.8-5.6,2.7-9.6,1.8-11.4c0.9-0.3,2.3-1.1,3.2-2.6
							c1.4-2,1.5-4.8,0.7-8.2c-0.9-3.6-4.1-6.1-6.8-6.7c0.5-4.4-2.7-5.7-4.5-6.5c-0.6-0.3-1.2-0.4-1.9-0.5c-0.7-3.9-3.2-6.7-7.1-8.2
							C84.7,123.3,83.6,123,82.6,123L82.6,123z"/>
					</g>
				</g>
				<path class="st5" d="M49.8,145.9c0,0-1.2,4.8,1.4,7.1c2.6,2.2,6.7,2.4,6.7,2.4s-0.3,5.6,3.7,7.1s6.8-2.6,6.8-2.6s2,2.5,4.3,2.3
					s3.8-2.6,3.8-2.6l6.8,5.6l2.6,6.7l-5.8,5.7c0,0-2,1-6.4,1.6c-4.3,0.5-8-2.6-8-2.6l-0.1-1.5c0,0-3.5,0.3-5.6-1
					c-2.1-1.4-2-4.9-2-4.9s-3.5,0.2-6.1-2.1c-2.6-2.3-2.4-5.3-2.4-5.3l1.3-3.1c0,0-4.1-0.4-4.9-5.5C45.1,148,49.8,145.9,49.8,145.9z
					"/>
				<path class="st7" d="M88.9,108.1c-3.9,14.2-10.3,39.3-12.5,51.4c-2.2,12.3,33.8,31.3,102.6,27.2c6.1-0.3,6.2-24.1,7.3-54
					C187.6,102.8,108.6,36.3,88.9,108.1z"/>
				<g>
					<line class="st8" x1="88.5" y1="135.3" x2="93.5" y2="138.7"/>
					<polyline class="st8" points="86.9,140 91.8,142.6 92,142.8 					"/>
					<ellipse transform="matrix(0.1718 -0.9851 0.9851 0.1718 -60.2507 214.91)" cx="97.7" cy="143.3" rx="7.1" ry="5.6"/>
				</g>
				<g>
					<path class="st9" d="M105.3,156.4c0.2,2.6,1.5,5.1,3.8,7.4c3,2.9,6.8,4.5,11.5,5c0.9,0,2,0.1,2.9,0.1v-0.3
						c0.6,0.1,1.2,0.1,1.9,0.2c0.3-0.1,0.5-0.1,0.8-0.2c2.6-0.4,4.9-1.4,7-2.7c2.6-1.5,4.4-3.5,5.5-5.8l-20.3,1.1l-3-5.4
						L105.3,156.4z"/>
					<path class="st10" d="M138.5,160.2c0.5-1,0.9-2.1,1-3.2c0.1-0.7,0.2-1.5,0.1-2.1l-29.2,1.4c0,0,1.7,4.8,3,5.6
						C119,165,138.5,160.2,138.5,160.2z"/>
					<path class="st11" d="M138.5,160.2c0,0-19.6,4.8-25.1,1.5c-1.3-0.8-3-5.6-3-5.6"/>
					<path class="st11" d="M138.5,160.2c0.5-1,0.9-2.1,1-3.2c0.1-0.7,0.2-1.5,0.1-2.1l-24.3,1.1"/>
					<path class="st11" d="M115.2,155.9l-9.9,0.5c0.2,2.6,1.5,5.1,3.8,7.4c3,2.9,6.8,4.5,11.5,5c0.9,0,2,0.1,2.9,0.1
						c0.5,0,1.2-0.1,1.8-0.1c0.3-0.1,0.5-0.1,0.8-0.2c2.6-0.4,4.9-1.4,7-2.7c2.6-1.5,4.4-3.5,5.5-5.8"/>
				</g>
				<g>
					<g>
						<path class="st12" d="M90.2,139.1l-0.3,0.5l0.3,0.2C90.2,139.5,90.2,139.3,90.2,139.1z"/>
						<path class="st13" d="M151.8,161.5c0-0.3-0.2-0.7-0.3-0.9c-0.3-0.3-0.7-0.4-1.1-0.4c-0.4,0-0.8,0-1.1,0.3
							c-0.3,0.3-0.5,0.5-0.6,0.9c0,0.3,0.1,0.7,0.3,0.9c0.3,0.3,0.7,0.4,1.1,0.4s0.8,0,1.1-0.3C151.4,162.2,151.7,161.9,151.8,161.5
							z"/>
						<path class="st13" d="M145.1,167.3c-0.3,0.3-0.4,0.6-0.5,0.9c0,0.3,0,0.6,0.3,0.9c0.3,0.3,0.6,0.5,1,0.5s0.7,0,1.1-0.3
							c0.3-0.3,0.5-0.4,0.6-0.8c0-0.3-0.1-0.7-0.3-0.9c-0.3-0.3-0.6-0.5-1-0.5C145.8,166.9,145.5,167.1,145.1,167.3z"/>
						<path class="st13" d="M152.5,168.6c0.2,0.3,0.5,0.5,1,0.5c0.4,0,0.8-0.1,1.1-0.3c0.4-0.3,0.5-0.5,0.6-0.9c0-0.3,0-0.6-0.4-0.9
							c-0.2-0.3-0.6-0.5-1-0.5c-0.5-0.1-0.8,0-1.1,0.3c-0.3,0.3-0.6,0.4-0.6,0.8C152.1,167.9,152.3,168.3,152.5,168.6z"/>
						<path class="st13" d="M83.6,154.6c0,0.3,0.1,0.6,0.4,0.9c0.3,0.3,0.7,0.5,1,0.5s0.8,0,1.1-0.3c0.3-0.3,0.4-0.5,0.5-0.9
							c0-0.4-0.1-0.7-0.3-0.9c-0.3-0.3-0.7-0.5-1-0.5c-0.4,0-0.8,0.1-1.1,0.3C83.8,153.9,83.6,154.2,83.6,154.6z"/>
						<path class="st13" d="M94.1,153.7c-0.3-0.3-0.6-0.5-1-0.5c-0.4,0-0.8,0.1-1.1,0.3s-0.5,0.5-0.6,0.8c0,0.3,0.1,0.7,0.3,1
							c0.3,0.2,0.6,0.4,1,0.4c0.5,0.1,0.8-0.1,1.1-0.3c0.3-0.3,0.5-0.6,0.6-0.9C94.6,154.4,94.4,153.9,94.1,153.7z"/>
						<path class="st13" d="M94.4,162.1c-0.4,0-0.8,0.1-1.1,0.3s-0.5,0.4-0.6,0.9c0,0.3,0.1,0.7,0.4,0.9c0.3,0.3,0.7,0.5,1,0.5
							c0.4,0,0.8-0.1,1.1-0.3c0.3-0.2,0.5-0.4,0.6-0.8c0-0.4-0.1-0.7-0.3-0.9C95.2,162.4,94.7,162.1,94.4,162.1z"/>
						<path class="st12" d="M89.3,133.2H89c-0.1,0.1-0.1,0.2-0.1,0.3L89.3,133.2z"/>
					</g>
				</g>
				<g>
					<path class="st6" d="M193.2,156.9c-1,0-1.3-0.7-1.6-1.4c-0.5-1.1-1.3-2.6-5.4-2.8c-8.4-0.5-13.4-2.9-15-7.2
						c-1.4-3.6,0.3-7.4,1.7-9.6c-0.4,0.1-0.9,0.2-1.3,0.2c-1.5,0-3-0.5-4.4-1.6c-2-1.4-3.1-3.1-3.4-5c-0.3-1.8,0.3-3.4,0.8-4.6
						c-1.5,1-3.9,2.2-6.5,2.2c-0.9,0-1.7-0.2-2.6-0.4c-2.8-1-3.9-3.1-4.3-4.4c-0.7,0.9-2.1,2.1-4.9,2.1c-0.8,0-1.6-0.1-2.6-0.3
						c-2.5-0.6-3.7-2.5-4.2-3.8c-0.6,1.5-1.9,3.5-5,3.5c-0.4,0-0.9-0.1-1.5-0.2c-3.8-0.7-5.1-3-5.6-4.8c-0.6,1.7-2,3.8-4.9,3.8
						c-0.3,0-0.8,0-1.1-0.1c-3.8-0.7-5.1-4.3-5.5-6.4c-1.1,2.5-3.8,7.1-7.7,7.1c-1.3,0-2.6-0.5-3.8-1.4c-1.8-1.3-2.1-4.2-2-6.4
						c-1.5,3-4.4,7.3-9,7.4c-0.1,0-0.3,0-0.3,0c-3.1,0-5-1.3-6.3-2.6c0.7,3,0.8,7.1-2.9,9.7c-1.1,0.8-3.8,11.4-5.1,17.8l-0.4,1.9
						L78,148c0-0.1-1.8-8.5-0.1-16.5c0.7-3.2,1.6-5.3,2-6c-0.6-0.9-2.6-5-0.2-13.9c1.4-4.9,8.1-5.9,9-6.1c0.3-0.2,1.5-0.7,3.8-0.7
						c1.1,0,2.2,0.1,3.5,0.3c0.4,0.1,0.8,0.1,1.2,0.1c7.2,0,14.4-10.5,14.5-10.6l1.5-2.2l-0.8,2.6c-0.9,2.6-2.6,10-1,12.1
						c0.3,0.3,0.7,0.6,1.2,0.6c0.4,0,0.9-0.1,1.4-0.3c4.5-2,13-2.3,19.2-2.3c2.8,0,4.9,0.1,4.9,0.1h0.4l-0.1,0.4
						c0,0-0.4,3.6,1.3,5.6c0.9,0.9,2.1,1.5,3.7,1.5c0.5,0,1-0.1,1.6-0.2c0.9-0.2,2-0.3,3.2-0.3c6.8,0,15.1,2.8,17.5,3.7
						c-0.1-0.9,0-2.4,0.9-3.8c1-1.5,2.8-2.4,5.4-2.7c0.2,0,0.4,0,0.7,0c3.7,0,15.1,2.4,20.2,6.4c4.2,3.3,1.6,9.9-0.1,13.1
						c0.3-0.2,0.8-0.3,1.2-0.3c1.4,0,2.8,0.9,4.2,2.6c4.7,5.7,1,12.7,0.4,13.8c0.3,1,1.3,5.9-0.8,9.1c-0.9,1.5-2.3,2.3-4.2,2.6
						C193.5,156.9,193.3,156.9,193.2,156.9z"/>
					<path d="M111.9,95.1c0,0-4.1,13.2,0.5,13.2c0.4,0,0.9-0.1,1.5-0.3c4.6-2,13.5-2.3,19-2.3c2.9,0,4.9,0.1,4.9,0.1s-1,7.5,5.5,7.5
						c0.5,0,1-0.1,1.7-0.2c1-0.2,2-0.3,3.2-0.3c8,0,18,3.9,18,3.9s-1.5-5.9,5.8-6.7c0.2,0,0.3,0,0.6,0c3.7,0,14.9,2.4,19.9,6.3
						c5.3,4.2-1.1,14.3-1.1,14.3s0.9-1.4,2.6-1.4c1,0,2.3,0.6,3.8,2.4c5,6.1,0.3,13.5,0.3,13.5s2.7,10.2-4.6,11.3
						c-0.1,0-0.3,0-0.3,0c-2,0-0.3-3.8-7-4.2c-20.9-1.3-15-14.3-12-17.2c0.5-0.3,0.8-0.6,0.8-0.6c-0.3,0.1-0.5,0.3-0.8,0.6
						c-0.6,0.3-1.5,0.7-2.6,0.7c-1.2,0-2.6-0.3-4.2-1.5c-6.5-4.6-1.5-11-1.5-11s-3.8,3.5-7.9,3.5c-0.8,0-1.6-0.1-2.4-0.4
						c-4-1.5-4.3-5.1-4.3-5.1s-0.9,2.9-5,2.9c-0.7,0-1.5-0.1-2.5-0.3c-3.7-0.9-4.4-4.9-4.4-4.9s-0.4,4.6-5,4.6c-0.4,0-0.9,0-1.4-0.1
						c-5.9-1-5.6-6.4-5.6-6.4s-0.6,5.6-5,5.6c-0.3,0-0.7,0-1-0.1c-5.3-0.9-5.4-7.6-5.4-7.6S113,123,108,123c-1.1,0-2.3-0.4-3.6-1.3
						c-2.9-2.1-1.5-9-1.5-9s-3.2,9.6-9.7,9.9c-0.1,0-0.3,0-0.3,0c-4.4,0-6.6-2.8-7.5-4.4c-0.3-0.7-0.5-1.1-0.5-1.1s0.2,0.4,0.5,1.1
						c0.9,2.5,2.6,8.4-2,11.7c-1.6,1.2-5.3,18-5.3,18s-1.8-8.4-0.1-16.3c0.9-3.9,2-6.1,2-6.1s-3.1-3.7-0.3-13.8
						c1.4-4.9,8.7-5.7,8.7-5.7s1.1-0.7,3.8-0.7c0.9,0,2,0.1,3.4,0.3c0.4,0.1,0.9,0.1,1.3,0.1C104.6,105.9,111.9,95.1,111.9,95.1
						 M114.3,90.2l-3.1,4.4C111.1,94.7,104,105,97,105c-0.3,0-0.8,0-1.1-0.1c-1.3-0.3-2.5-0.3-3.6-0.3c-2.3,0-3.6,0.5-4,0.7
						c-1.1,0.2-7.9,1.4-9.3,6.3c-2.4,8.5-0.7,12.7,0.1,14.1c-0.4,0.9-1.3,2.8-1.9,5.9c-1.6,7.9,0,16.3,0.1,16.7l0.8,3.8l0.9-3.8
						c1.7-7.9,4.1-16.7,5-17.6c3.4-2.4,3.8-6.1,3.3-9c1.4,1,3.2,1.9,5.7,1.9c0.1,0,0.3,0,0.3,0c4-0.1,6.8-3.4,8.5-6.2
						c0.1,2,0.6,4,2.1,5.1c1.4,0.9,2.7,1.5,4.1,1.5c3.7,0,6.2-3.7,7.6-6.2c0.1,0.3,0.2,0.6,0.3,0.9c1,2.6,2.8,4.3,5.3,4.7
						c0.4,0.1,0.8,0.1,1.2,0.1c2.5,0,4-1.5,4.9-3.2c0.7,1.5,2.2,3.4,5.6,4c0.5,0.1,1,0.2,1.5,0.2c2.7,0,4.3-1.5,5.1-3
						c0.7,1.3,2,2.7,4.1,3.2c0.9,0.3,1.9,0.3,2.6,0.3c2.4,0,3.8-0.9,4.7-1.8c0.6,1.4,1.8,3,4.3,3.9c0.9,0.3,1.7,0.4,2.6,0.4
						c2.1,0,4.2-0.9,5.7-1.7c-0.3,1.1-0.6,2.4-0.3,3.7c0.3,2,1.5,3.8,3.6,5.3c1.5,1.1,3.2,1.7,4.7,1.7c0.2,0,0.3,0,0.5,0
						c-1.4,2.3-2.5,5.8-1.3,9.1c1.6,4.4,6.8,6.9,15.4,7.4c3.8,0.3,4.5,1.5,5,2.6c0.3,0.7,0.8,1.6,2,1.6c0.2,0,0.3,0,0.4,0
						c2-0.3,3.5-1.3,4.5-2.8c2-3.2,1.2-7.9,0.9-9.2c0.9-1.5,4.2-8.4-0.5-14.2c-1.5-1.8-3-2.7-4.4-2.7c-0.2,0-0.3,0-0.4,0
						c1.6-3.5,3.7-9.6-0.4-12.8c-5.1-4-16.7-6.5-20.4-6.5c-0.3,0-0.5,0-0.7,0c-2.6,0.3-4.5,1.3-5.6,2.9c-0.9,1.2-1,2.5-1,3.4
						c-3-1-10.5-3.5-17.1-3.5c-1.2,0-2.3,0.1-3.3,0.3c-0.5,0.1-1,0.2-1.5,0.2c-1.5,0-2.6-0.4-3.4-1.4c-1.6-1.9-1.2-5.2-1.2-5.3
						l0.1-0.9h-0.9c0,0-2-0.1-4.9-0.1c-6.3,0-14.9,0.4-19.4,2.4c-0.5,0.2-0.9,0.3-1.2,0.3c-0.3,0-0.6-0.1-0.9-0.4
						c-1.3-1.8-0.1-8.2,1-11.8L114.3,90.2L114.3,90.2z"/>
				</g>
				<path class="st5" d="M132.6,186c0,0,14.6,0.2,24.5-3c3.4-1.1,4.6-3,4.6-3s-5-3.8-3.4-11c1.5-7.3,5.8-7.4,5.8-7.4s-0.9-7.7,1-11
					c3.2-5.6,11.4-6.6,11.4-6.6l9.9,0.3l-7,41.2l-7.7,3C171.8,188.3,138.5,186.1,132.6,186z"/>
				<path class="st14" d="M83.5,98.9C102,78.5,107,46.8,113.2,47.1c6.1,0.3,14.6,2.8,14.6,2.8s12.6-13.2,15.4-11.7
					c23.1,12.4,29.8,19.3,32.8,29.1c9,29.5,13.5,38.8,13.5,38.8L83.5,98.9z"/>
				<path class="st5" d="M132.6,95.9c0,0,17.5-3.2,16-12c-3.9-22.7-4.8-41.2-0.9-40.3c5,1.2,24.4,12.8,26.5,19.1
					c1.9,5.6,7.9,23.6,7.9,23.6S160.1,94.8,160,95s-61.4,1.7-61.4,1.7l-9-2.6L132.6,95.9z"/>
				<path class="st3" d="M225.6,70.2c-26.5-9.9-47.6,23.8-98.4,23.1c-52.8-0.9-64.3-19.4-73.3-22.6c-8.9-3.2-11.7,3.2-2.1,21.6
					c8,15.4,24.8,24.8,26.1,26.1c0,0,0-6.5,2.4-8.5c2.1-1.9,5.4-0.3,5.4-0.3s19.8,8.9,32.8,9.2c21.5,0.5,60.9,0.3,67.6,2.2
					c11.3,3.3,6.2,11.8,6.2,11.8s-0.2,5.6-4.9,17.4c-0.9,2.4,14.3,7,22,4.5c11.2-3.6,23.2-10.8,32.1-28.9
					C250.4,107.7,252,80.1,225.6,70.2z"/>
				<g>
					<path class="st6" d="M189.7,204.1c-1.1,0-2.1-0.2-3.2-0.6c-2-0.8-3.5-2.2-4.4-4.2c0,0,0,0-0.1,0c-1.3,0-2.7-0.3-4.3-0.8
						c-3.3-1.1-5.6-3.2-7-6.1c-0.8-0.1-1.5-0.3-2.1-0.6c-2.1-0.9-3.8-2.6-4.7-4.8c-0.9-2.2-0.9-4.6,0.1-6.9c0.1-0.3,0.2-0.4,0.3-0.7
						c-1-0.3-2-1.1-3.2-2.6c-1.7-2.3-3.2-5.7,1.2-12c1.4-2,2.8-2.5,3.8-2.7c0.1,0,0.1,0,0.2-0.1c-0.5-0.8-1.2-2.3-0.7-5
						c0.9-4.7,3.2-5.7,6.7-5.7c0.5-3.8,2.5-7,6.1-9.6c2.6-2,5.1-3,7.4-3c0.8,0,1.5,0.1,2.2,0.3c1.2-1.4,2.8-2.1,5-2.1
						c1.5,0,3.2,0.3,5,1c1.8-1.8,3.3-2.6,5.1-2.6c1,0,2.2,0.3,3.8,0.9c4.5,1.5,7.3,5,8,9.7c0.9,0.1,1.7,0.3,2.5,0.6
						c2.8,1.1,5.7,2.8,4.9,7.8c3.2,0.4,7.1,3.4,8.2,7.7c1,4,0.8,7.2-0.8,9.6c-1.4,2-3.2,2.9-4.3,3.2c1,1.5,3.2,6.3-1.8,13.9
						c-1.4,2-4.1,4.3-6.9,4.3l0,0c-0.2,0-0.3,0-0.4,0v0.1c0.1,0.3,0.3,0.8,0.1,1.1c-1.5,3.5-4.7,5.7-8.3,5.7c-1.1,0-2.1-0.2-3.2-0.6
						c0,0,0,0-0.1,0c-0.3,1.9-1.5,3.4-3,4c-0.7,0.3-1.4,0.3-2,0.3c-1.6,0-3.2-0.6-4.4-1.7C193.9,203.3,191.8,204.1,189.7,204.1z"/>
					<g>
						<path d="M203,135.9c1.1,0,2.3,0.3,3.8,0.8c5.5,1.9,7.3,6,7.8,9.7c0.9,0,1.8,0.2,2.7,0.6c2.6,1.1,5.6,2.6,4.5,7.8
							c3.2,0.1,7.2,3.2,8.3,7.3c2.8,11-5.4,12.4-5.4,12.4s4.5,4.9-1.5,13.9c-1.5,2.1-4.1,4.1-6.6,4.1c-0.3,0-0.6,0-0.9-0.1
							c-0.1,0.4,0.4,1.1,0.3,1.5c-1.4,3.4-4.6,5.5-7.9,5.5c-1,0-2-0.2-3-0.6c-0.2-0.1-0.4-0.2-0.6-0.3c-0.2,2.1-1.4,3.8-2.8,4.3
							c-0.6,0.3-1.3,0.3-1.9,0.3c-1.6,0-3.2-0.7-4.3-1.9c-1.6,1.5-3.7,2.4-5.8,2.4c-1,0-2-0.2-3-0.6c-2-0.9-3.5-2.4-4.3-4.2
							c-0.1,0-0.3,0-0.3,0c-1.2,0-2.5-0.3-4.1-0.8c-3.8-1.2-5.8-3.6-6.8-6.1c-0.8-0.1-1.5-0.3-2.3-0.5c-4.2-1.7-6.2-6.7-4.4-11.1
							c0.2-0.4,0.3-0.8,0.6-1.2c-0.9-0.1-1.9-0.5-3.5-2.6c-2-2.6-2.7-5.8,1.3-11.4c1.8-2.5,3.7-2.5,4.2-2.9c0,0-1.7-1.5-0.9-5
							c0.9-4.7,3.2-5.4,6.3-5.4c0.1,0,0.2,0,0.3,0c0.3-3.1,1.7-6.6,6-9.7c2.8-2.1,5.2-2.9,7.2-2.9c0.9,0,1.7,0.2,2.4,0.4
							c1.2-1.5,2.9-2.1,4.8-2.1c1.6,0,3.4,0.4,5,1.1C199.8,136.7,201.2,135.9,203,135.9 M198,138.6L198,138.6L198,138.6 M198,138.6
							L198,138.6L198,138.6 M198,138.6L198,138.6L198,138.6 M198,138.6L198,138.6L198,138.6 M198,138.6L198,138.6L198,138.6
							 M198,138.6L198,138.6L198,138.6 M198,138.6L198,138.6L198,138.6 M198,138.6L198,138.6L198,138.6 M198,138.6L198,138.6
							L198,138.6 M198,138.6L198,138.6L198,138.6 M198,138.6L198,138.6L198,138.6 M198,138.6L198,138.6L198,138.6 M198,138.6
							L198,138.6L198,138.6 M198,138.6L198,138.6L198,138.6 M203,135.1c-1.9,0-3.5,0.8-5.2,2.6c-1.7-0.7-3.3-0.9-4.8-0.9
							c-2.1,0-3.8,0.7-5,2c-0.7-0.2-1.4-0.3-2.1-0.3c-2.4,0-5,1-7.7,3.1c-3.5,2.6-5.6,5.9-6.1,9.6c-3.3,0.1-5.7,1.3-6.7,6.1
							c-0.4,2.3,0,3.9,0.5,4.9c-0.9,0.3-2.3,0.9-3.6,2.8c-3.6,5-3.9,8.9-1.2,12.5c1,1.4,2,2.2,2.9,2.6c0,0.1-0.1,0.2-0.1,0.3
							c-2,4.9,0.3,10.3,4.9,12.2c0.7,0.3,1.4,0.4,2,0.5c1.4,3,3.8,5,7.2,6.1c1.5,0.5,2.9,0.8,4.2,0.8c1,1.9,2.6,3.3,4.5,4.2
							c1,0.4,2.1,0.7,3.3,0.7c2.1,0,4.1-0.8,5.8-2c1.2,1,2.7,1.5,4.4,1.5c0.8,0,1.5-0.2,2.2-0.4c1.5-0.6,2.7-2,3.2-3.8
							c0.9,0.3,1.9,0.5,2.9,0.5c3.8,0,7.2-2.4,8.7-6c0.1-0.3,0.1-0.6,0.1-0.9c2.9-0.1,5.7-2.3,7.1-4.4c4.7-7.2,3.2-11.9,2-13.9
							c1.1-0.4,2.8-1.4,4-3.2c1.6-2.5,1.9-5.8,0.9-9.9c-1.1-4.4-4.9-7.3-8.1-7.9c0.8-5.4-3.1-6.9-5.2-7.8c-0.7-0.3-1.5-0.5-2.3-0.6
							c-0.8-4.8-3.7-8.1-8.3-9.7C205.3,135.3,204.1,135.1,203,135.1L203,135.1z"/>
					</g>
				</g>
				<path class="st15" d="M138.5,215.3c0,0-1.4,3.8-1.5,7.2c-0.3,8.8,2,16.3,2,16.3l2.6,0.4c0,0-3.2-9.4-2.6-16.2
					c0.2-2.6,0.3-6.3,0.3-6.3L138.5,215.3z"/>
				<path class="st15" d="M147.3,214.4c0,0,7.4,12,6.9,18.1c-0.5,6.1-7.8,4.6-11.1-1c-3.3-5.6-3.2-13.7-3.2-13.7l-1.6-1.6
					c0,0-0.8,11,3,17c3,4.7,5.7,5.9,9.6,5.7c3.8-0.2,4.8-2.9,5.5-5.1c0.8-2.7-0.7-6.4-2.8-11.5c-1.6-3.9-5.6-8.9-5.6-8.9
					L147.3,214.4z"/>
				<path class="st3" d="M135.8,210c0.3-1.5,1-2.6,2.7-4.4c2.4-2.4,8.8-8.2,8.8-8.2s5.1-0.2,7.8,2.3c2.6,2.4,4.3,7.7,4.3,7.7
					s-12.2,1.8-12,2.3c0.8,2,0,3.5,0,3.5s2.4-1.1,2.5,0.6s-2.3,4-5,4.4C140.3,218.8,135,215.2,135.8,210z"/>
				<g>
					<path class="st7" d="M105.1,193.5c0.9,0.6-7.5-2.6-14.3-9.1c-5.6-5.2-8.2-8.1-8.2-8.1l2.5-7c0,0,3,1.1,9.4,6.2
						c7.3,5.8,17.3,6.6,17.2,6.7c-0.2,0.3-0.3,3.7-1.8,6.2C108.1,191.3,105.1,193.5,105.1,193.5z"/>
					<g>
						<path class="st3" d="M85.1,167.9c0,0-1.5-4.4-0.1-4.9c1.4-0.4,3.4,0.9,4.5,3.3c1.4,2.9,0.9,3.6,1.1,5.6l10.8,4.4
							c0,0,0.3,3.3-4.4,9.6c-3.1,4.1-7.3,6.1-7.3,6.1l-6.6-11.3c0,0-5.1-0.7-7.9-3.8c-1.5-1.7-0.9-4.6-0.9-4.6s-0.1-1.5,1.2-3.3
							c1.5-2,2.4-0.9,2.4-0.9s-0.7-1.6,0.6-3C81.1,162.8,85.1,167.9,85.1,167.9z"/>
						<path class="st3" d="M78.3,164.9c-0.3,0.9,0.1,2,1.1,3.3c0.9,1.2,2.9,1.8,3.7,1.5c1.3-0.6,1.5-1.2,1.3-3
							S79.5,161.2,78.3,164.9z"/>
						<path class="st3" d="M75.1,167.9c-0.3,0.9,0.1,2,1.1,3.3c0.9,1.2,2.9,1.8,3.7,1.5c1.3-0.6,1.5-1.2,1.3-3
							C80.9,167.9,76.3,164.2,75.1,167.9z"/>
						<path class="st16" d="M74.7,172.3c0,0,0.3-1.4,1.3-1.6s1.8,0.3,2.4,0.9c1.5,1.5,0.4,2.6,0.4,2.6"/>
						<path class="st16" d="M84.7,166.6l0.9,2.9c0,0-2.5,0.9-2.3,3.1c0.2,2.1,2.4,2.6,2.4,2.6"/>
					</g>
				</g>
				<path class="st5" d="M78.1,166.5c0,0-1.8,1-1.7,2.2c0.1,0.9,1.2,2.4,1.2,2.4s-2,1.8-0.6,4c0.8,1.1,3.2,2.2,5.5,2
					c2.6-0.2,1.8-0.9,1.8-0.9s-1.8-1.6-2-2.5c-0.5-2,2.7-4.6,2.7-4.6s0.2,6.4,2.8,5.9c1.5-0.3,8.6,10.2,8.6,10.2l2.4-1
					c0,0,2.5,2.1,4.2,2.1s5-4.7,5-4.7l2.8,0.9l-1.9,5.3l-4,5.6c0,0-4.6-2-6.2-3c-1.6-1-3.3-2.7-3.3-2.7l-5.7,4.3l-6.2-11.4
					c0,0-4.9-0.3-6.7-2.3c0,0-2.5-2.3-2.6-4l0.8-3.8c0,0-1.2-2.9,0.5-4L78.1,166.5z"/>
				<path class="st5" d="M156.7,201.8l-11.6,6.3c0,0,1.7,4.8-0.9,6.5c-2.6,1.7-7.5-0.1-7.5-0.1s4,4.7,9.2,3.1c5.1-1.6,4-4.3,3.3-4.6
					c-0.7-0.3-1.8,0.3-1.8,0.3s0.4-1,0.3-2.3c-0.3-1.2,0.4-2,0.4-2l11.4-1.5L156.7,201.8z"/>
				<path class="st5" d="M49,86.3c0,0-0.8-9,3.1-6.8c3.8,2.1,22.6,18.6,51.5,24.2c28.8,5.6,63.4-1.9,80.4-8.5s39.7-9.2,49.1-3.1
					c8.5,5.6,13,13.1,10.4,24.9c-1.2,5.5-3.6,14.2-9.1,20.3c-2.6,2.9-12,11.2-12,11.2l-1.8,1.1c0,0-1.6-1.6-5-1.8
					c-3.8-0.2-6.3,0.7-6.3,0.7s-1-8.8-6.1-9.6c-5.1-0.8-7,4.4-7,4.4s-3-3.3-6.7-3.3c-3.8,0-8.7,3.8-9.9,1.5
					c-2.6-4.5,2.4-9.6,1.5-9.6c-3.4,0-15.1,1.5-22.9,1.6s-19.4,1.2-53.5-3.3c-9.1-1.2-25.8-8.2-25.8-8.2l-1-4.6
					C77.9,117.5,53.8,103.2,49,86.3z"/>
				<path class="st5" d="M125.3,57.7c-2-2.1-4.9-4.4-7.9-6.7c-2-1.5-2.2-3,2.1-3c4.4,0,7.9,2,7.9,2S130.5,63.3,125.3,57.7z"/>
				<path class="st5" d="M164.1,163.7c0,0-0.9,10.9,4.2,12.6c5.1,1.6,6,0,6,0s0.8,7.8,8.4,8.3c7.6,0.5,11.5-5.6,11.5-5.6
					s9.1,7.3,13.9,3.4c4.9-3.8,6-10.7,6-10.7s6.9,1.9,9.6-0.1c2.7-2,3.8-3.9,4-6.7c0.3-2.7-1.5-9.6-1.5-9.6s4.4,3.8,4.4,10.1
					c0.1,6.3-2.9,7.7-2.9,7.7l-3,1.5c0,0,2.8,3.2,0.7,9.9c-2.1,6.7-6.1,7.4-6.1,7.4l-3.5,0.5c0,0,1.6,2.4-2.5,5.2s-8.2,1.3-8.2,1.3
					s-0.1,2.6-3.3,4c-3.2,1.4-6.2-1.5-6.2-1.5s-4.3,3.5-7.3,2.2c-3-1.3-5.8-4.7-5.8-4.7s-1,0.4-5.9-1.3c-5-1.7-5.4-5.6-5.4-5.6
					s-2.8,0.2-5.6-3.2c-2.9-3.2-1-8.5-1-8.5s-3.3-2.7-4.4-7.9C158.8,167.1,164.1,163.7,164.1,163.7z"/>
				<path class="st3" d="M114.8,183c0,0,3.4,11.1-3.6,19.6c-2,2.3-4.8,5.4-7.8,6.4c-2.5,0.9-5.6,0.8-5.6,0.8l5.8-15.8
					c0,0,3.2-2.3,5-5c2-3.2,2.5-6.2,2.5-6.2L114.8,183z"/>
				<path class="st17" d="M110.1,182.1c0,0-0.7,4.1,3.3,5.6c3.2,1.1,8.5,0.6,8.5,0.6s7.5,3.1,11.7,2.9c6-0.3,6.9-4.6,6.9-4.6
					S116.9,183,110.1,182.1z"/>
				<path class="st17" d="M123.8,188.3c0,0.1-0.1,2.9,0.3,7.5c0.5,5.3,5,11.6,5,11.6s3.1-9,1.5-14.3c-1.6-5.3-4.6-7.3-5.4-7.5
					c-0.8-0.3-2,0.7-2,0.7L123.8,188.3z"/>
				<path class="st17" d="M119.3,184.9c0,0-4.5,0.3-6.8,3.4c-3.8,5-5,12.9-5,12.9s7.9-3.3,9.7-8.1c1.4-3.5,2.5-5.1,2.5-5.1l0.7-3.9"
					/>
				<path class="st17" d="M121.1,189.4c0,0-1.8,0.7-2-1.1c-0.3-1.8,0.4-4.3,1.2-4.3c0.7-0.1,2.1,0.2,2.1,0.2s2,0.2,2.9,0.3
					c0.9,0.2,0.8,1.1,0.8,1.1s-1.7,0.7-1.9,2c-0.2,1.4-0.7,1.9-0.7,1.9S122.6,190.8,121.1,189.4z"/>
				<path class="st5" d="M110.1,182.1c0,0,0.7,0.9,1.5,1.8c1.5,1.7,5.7,1.3,5.7,1.3s-0.9,5.5-2.6,7.9c-1.6,2.4-5.4,6.5-5.4,6.5
					l4.2-0.8c0,0-3.2,5-5.2,6.7s-6.3,3.7-6.3,3.7l-0.3,2.7c0,0,8.3-4.4,11.3-9c3-4.5,3.8-5.6,3.8-5.6s1.6-0.5,2.8-2.5
					s1.9-2.5,1.9-2.5s0.3,5,1.1,7.6c1.8,5.9,6.1,9.6,6.1,9.6l-0.4-3.7l1.1,0.7l0.7-2.5c0,0,0.3,2.1,1.4,3.6c1.7,2.3,4.4,2.6,4.4,2.6
					l1.3-3.1c0,0-2.4-2.1-3.5-7.1c-0.5-2.4-0.4-7.9-0.4-7.9s4.7-0.3,5.6-1.7c0.9-1.5,1.7-4.1,1.7-4.1l-14.3-1.7l0.7,1.8
					c0,0,11,0.3,6.8,2.1c-2,0.9-5.4-0.6-5.4-0.6s1.2,6.2,0.8,8.3c-0.4,2-0.9,4.6-0.9,4.6s-1.7-3.3-2.3-6.1c-0.8-3.8-0.8-8.6-0.8-8.6
					s-2.1,2.6-3.9,2c-2.5-0.8-2.2-3-0.5-3.2c1.5-0.1,4.6,0.9,4.6,0.9l0.9-1.5L110.1,182.1z"/>
				<path class="st15" d="M147.4,213.3c0,0,11,9.1,12,15.1c1,6-8.1,7.9-12.7,3.2c-4.6-4.6-5.6-13.3-5.6-13.3l-2-1.1
					c0,0,0.4,11.3,5.6,16.1c4.1,3.8,8.6,3.8,12.3,2.7c3.7-1.1,5-5.3,4.8-7.6c-0.3-3.2-2.9-6.4-5.8-9.5c-2.9-3.1-8.3-6.8-8.3-6.8
					L147.4,213.3z"/>
				<g>
					<g>
						<path class="st18" d="M152.5,218.2c0.8,0,1.5,0,2.2,0c0.5,0,0.5-0.9,0-0.9c-0.8,0-1.5,0-2.2,0
							C152,217.3,152,218.2,152.5,218.2L152.5,218.2z"/>
					</g>
				</g>
				<g>
					<g>
						<g>
							<path class="st18" d="M150.5,215.7c0.6-0.1,1.2-0.2,1.8-0.2c0.3,0,0.3-0.4,0-0.4c-0.6,0-1.3,0.1-1.9,0.2
								C150.1,215.3,150.2,215.8,150.5,215.7L150.5,215.7z"/>
						</g>
					</g>
					<g>
						<g>
							<path class="st18" d="M155.2,220.6c0.7-0.1,1.3-0.2,2-0.1c0.3,0,0.3-0.4,0-0.4c-0.7,0-1.4,0-2,0.1
								C154.8,220.2,154.9,220.6,155.2,220.6L155.2,220.6z"/>
						</g>
					</g>
					<g>
						<g>
							<path class="st18" d="M157,223.1c0.7,0,1.4,0,2,0.3c0.3,0.1,0.3-0.3,0.1-0.4c-0.7-0.2-1.5-0.3-2.2-0.3
								C156.7,222.7,156.7,223.1,157,223.1L157,223.1z"/>
						</g>
					</g>
					<g>
						<g>
							<path class="st18" d="M159.1,226.9c0.7,0.3,2,0.7,2.3,1.4c0.1,0.3,0.5,0,0.3-0.3c-0.2-0.4-0.6-0.7-0.9-0.9
								c-0.5-0.3-1.1-0.5-1.6-0.8C159,226.4,158.9,226.8,159.1,226.9L159.1,226.9z"/>
						</g>
					</g>
					<g>
						<g>
							<path class="st18" d="M159.3,230.9c0.5,0.5,0.9,1.2,1.2,1.9c0.1,0.3,0.5,0.2,0.4-0.1c-0.3-0.8-0.7-1.5-1.3-2
								C159.4,230.4,159,230.7,159.3,230.9L159.3,230.9z"/>
						</g>
					</g>
					<g>
						<g>
							<path class="st18" d="M157.4,233.1c0.2,0.9,0,1.7-0.5,2.5c-0.2,0.3,0.2,0.4,0.3,0.3c0.6-0.9,0.8-1.8,0.6-2.8
								C157.8,232.7,157.3,232.8,157.4,233.1L157.4,233.1z"/>
						</g>
					</g>
					<g>
						<g>
							<path class="st18" d="M153.1,236.6c0.9-0.5,1.3-1.4,1.3-2.4c0-0.3-0.4-0.3-0.4,0c0,0.9-0.3,1.5-1.1,2
								C152.7,236.4,153,236.8,153.1,236.6L153.1,236.6z"/>
						</g>
					</g>
					<g>
						<g>
							<path class="st18" d="M149.3,236c0.9-0.2,1.6-1,1.7-2c0-0.3-0.4-0.3-0.4,0c-0.1,0.8-0.7,1.4-1.4,1.5
								C148.9,235.6,149,236,149.3,236L149.3,236z"/>
						</g>
					</g>
					<g>
						<g>
							<path class="st18" d="M145.6,234.1c1,0.2,2-0.3,2.6-1.1c0.2-0.3-0.2-0.4-0.3-0.3c-0.5,0.7-1.3,1-2.1,0.9
								C145.5,233.7,145.4,234,145.6,234.1L145.6,234.1z"/>
						</g>
					</g>
					<g>
						<g>
							<path class="st18" d="M143.2,231.2c0.9,0.3,2,0.3,2.8-0.3c0.3-0.2,0-0.5-0.3-0.3c-0.8,0.5-1.6,0.6-2.5,0.3
								C143,230.7,142.9,231.1,143.2,231.2L143.2,231.2z"/>
						</g>
					</g>
					<g>
						<g>
							<path class="st18" d="M141.4,228.2c0.9,0.3,1.9,0.5,2.6-0.2c0.2-0.2-0.1-0.5-0.3-0.3c-0.6,0.5-1.5,0.3-2.2,0.1
								C141.2,227.7,141.1,228.1,141.4,228.2L141.4,228.2z"/>
						</g>
					</g>
					<g>
						<g>
							<path class="st18" d="M140.6,225.1c0.6,0.4,1.4,0.7,2.1,0.6c0.3,0,0.3-0.4,0-0.4c-0.7,0-1.4-0.2-2-0.6
								C140.6,224.6,140.4,224.9,140.6,225.1L140.6,225.1z"/>
						</g>
					</g>
					<g>
						<g>
							<path class="st18" d="M139.7,221.8c0.6,0.5,1.2,0.9,2,0.9c0.3,0.1,0.4-0.3,0.1-0.4c-0.7-0.1-1.3-0.4-1.8-0.9
								C139.7,221.3,139.5,221.7,139.7,221.8L139.7,221.8z"/>
						</g>
					</g>
					<g>
						<g>
							<path class="st18" d="M139.6,218.7c0.4,0.5,0.9,0.9,1.5,1.2c0.3,0.2,0.4-0.3,0.3-0.3c-0.5-0.3-0.9-0.7-1.4-1.1
								C139.7,218.2,139.3,218.5,139.6,218.7L139.6,218.7z"/>
						</g>
					</g>
					<g>
						<g>
							<path class="st18" d="M149.7,218c0.5,0.3,1.1,0.3,1.7,0.4c0.3,0,0.3-0.4,0-0.4c-0.6-0.1-1.1-0.2-1.6-0.4
								C149.6,217.5,149.5,217.9,149.7,218L149.7,218z"/>
						</g>
					</g>
					<g>
						<g>
							<path class="st18" d="M151,220.7c0.7,0.2,1.4,0.4,2,0.6c0.3,0.1,0.3-0.3,0.1-0.4c-0.7-0.2-1.4-0.4-2-0.6
								C150.9,220.2,150.8,220.6,151,220.7L151,220.7z"/>
						</g>
					</g>
					<g>
						<g>
							<path class="st18" d="M152.5,223.9c0.7,0.1,1.4,0.3,2,0.8c0.3,0.2,0.4-0.2,0.3-0.3c-0.6-0.4-1.3-0.8-2-0.9
								C152.3,223.4,152.2,223.9,152.5,223.9L152.5,223.9z"/>
						</g>
					</g>
					<g>
						<g>
							<path class="st18" d="M153.7,227.4c0.9,0.1,1.5,0.5,2.1,1.1c0.2,0.2,0.5-0.1,0.3-0.3c-0.6-0.7-1.4-1.1-2.3-1.3
								C153.6,226.9,153.5,227.3,153.7,227.4L153.7,227.4z"/>
						</g>
					</g>
					<g>
						<g>
							<path class="st18" d="M154.4,230.4c0.8,0.4,1.4,0.9,1.9,1.6c0.2,0.3,0.5,0,0.3-0.3c-0.6-0.7-1.2-1.3-2-1.7
								C154.4,229.9,154.2,230.2,154.4,230.4L154.4,230.4z"/>
						</g>
					</g>
					<g>
						<g>
							<path class="st18" d="M154.5,232.9c0.3,0.2,0.5,0.4,0.8,0.6c0.2,0.2,0.5-0.1,0.3-0.3c-0.3-0.2-0.5-0.4-0.8-0.6
								S154.3,232.7,154.5,232.9L154.5,232.9z"/>
						</g>
					</g>
					<g>
						<g>
							<path class="st18" d="M151.3,236.9c-0.2,0.6-0.6,1.1-1.2,1.5c-0.3,0.2,0,0.5,0.3,0.3c0.7-0.4,1.1-1,1.4-1.7
								C151.8,236.8,151.4,236.7,151.3,236.9L151.3,236.9z"/>
						</g>
					</g>
					<g>
						<g>
							<path class="st18" d="M146,237.7c1,0.2,2-0.4,2.1-1.5c0.1-0.3-0.3-0.3-0.4-0.1c-0.2,0.8-0.8,1.4-1.6,1.2
								C145.8,237.2,145.7,237.6,146,237.7L146,237.7z"/>
						</g>
					</g>
					<g>
						<g>
							<path class="st18" d="M143.3,235.3c0.9,0.1,1.6-0.2,2-0.9c0.2-0.3-0.2-0.4-0.3-0.3c-0.3,0.5-1,0.8-1.6,0.7
								C143.2,234.8,143.1,235.2,143.3,235.3L143.3,235.3z"/>
						</g>
					</g>
					<g>
						<g>
							<path class="st18" d="M141.4,232.7c0.8,0.3,1.5,0.1,2-0.4c0.2-0.2-0.1-0.5-0.3-0.3c-0.5,0.4-1.1,0.5-1.7,0.3
								C141.2,232.2,141.1,232.6,141.4,232.7L141.4,232.7z"/>
						</g>
					</g>
					<g>
						<g>
							<path class="st18" d="M139.9,229.2c0.5,0.3,1.1,0.3,1.6,0c0.3-0.2,0-0.5-0.3-0.3c-0.3,0.3-0.8,0.3-1.2,0
								C139.9,228.6,139.7,229,139.9,229.2L139.9,229.2z"/>
						</g>
					</g>
					<g>
						<g>
							<path class="st18" d="M139.1,225.2c0.3,0.3,0.7,0.3,1.1,0.3c0.3-0.1,0.2-0.5-0.1-0.4c-0.3,0.1-0.5,0-0.7-0.2
								C139.2,224.6,138.9,225,139.1,225.2L139.1,225.2z"/>
						</g>
					</g>
					<g>
						<g>
							<path class="st18" d="M137.5,224.5c0.3-0.3,0.8-0.6,1.1-0.9c0.3-0.2,0-0.5-0.3-0.3c-0.4,0.3-0.9,0.6-1.2,0.9
								C137,224.3,137.4,224.6,137.5,224.5L137.5,224.5z"/>
						</g>
					</g>
					<g>
						<g>
							<path class="st18" d="M137.4,228c0.7-0.3,1.2-0.6,1.7-1.2c0.2-0.2-0.1-0.5-0.3-0.3c-0.4,0.5-0.9,0.9-1.5,1
								C137,227.6,137.1,228.1,137.4,228L137.4,228z"/>
						</g>
					</g>
					<g>
						<g>
							<path class="st18" d="M137.9,231.4c0.7-0.4,1.2-0.9,1.6-1.5c0.2-0.3-0.3-0.4-0.3-0.3c-0.3,0.6-0.9,1-1.5,1.5
								C137.5,231.2,137.7,231.6,137.9,231.4L137.9,231.4z"/>
						</g>
					</g>
					<g>
						<g>
							<path class="st18" d="M138.5,235c0.3-0.1,0.6-0.4,0.8-0.7c0.3-0.3,0.6-0.7,0.9-1c0.2-0.2-0.1-0.5-0.3-0.3
								c-0.3,0.3-0.4,0.5-0.7,0.9c-0.2,0.3-0.5,0.7-0.9,0.8C138.2,234.5,138.3,235,138.5,235L138.5,235z"/>
						</g>
					</g>
					<g>
						<g>
							<path class="st18" d="M139.2,238.1c0.9-0.3,1.5-0.9,1.7-1.8c0.1-0.3-0.3-0.3-0.4-0.1c-0.3,0.7-0.7,1.2-1.4,1.5
								C138.9,237.9,139,238.2,139.2,238.1L139.2,238.1z"/>
						</g>
					</g>
				</g>
				<g>
					<g transform="matrix( 1, 0, 0, 1, 180.1,-70.1) ">
						<g>
							<g id="Layer0_1_MEMBER_2_MEMBER_0_MEMBER_3_MEMBER_0_FILL_1_">
								<path class="st19" d="M-38.4,214.6c1.4-0.6,2.9-0.7,4.4-0.4c1.6,0.3,3,0.8,4.1,1.8c1.4,1,1.8,2,2.1,3.5
									c0.3,1.1,0.4,1.4,0.3,1.9c0.2-1,0.4-1.4,0.5-2.1l0.2-1.1c0.1-0.4-0.1-1.5-0.2-1.7v-0.1v-0.1l-0.4-1.1V215
									c-0.4-0.9-1.1-1.6-2-2.3c-1.2-0.9-2.6-1.5-4.1-1.8s-3-0.1-4.4,0.4c-1.7,0.7-2.9,1.8-3.6,3.2c-0.2,0.3-0.8,1.7-0.8,3.7
									c0.1-0.2,0.1-0.3,0.2-0.4C-41.3,216.4-40.1,215.2-38.4,214.6z"/>
							</g>
						</g>
					</g>
					<polyline class="st20" points="158.5,141.6 156.6,142.4 152,144.2 152,144.2 151.7,144.3 					"/>
					<line class="st8" x1="153.5" y1="147.3" x2="159.1" y2="146.4"/>
				</g>
			</g>
		</g>
		<path class="st15" d="M80.3,173.2c0,0-1.6,26.6,12.7,40c14.4,13.3,29.5,9.6,35.9,6.5c4.7-2.4,7.2-4.3,8.5-4.4l0,0l-1-1.7
			c0,0-0.8,0.4-3.2,1.7c-2.5,1.3-4.2,2.7-7.4,3.8c-7.9,2.6-24,2.2-32.9-8.7c-8.5-10.4-7.9-15.5-9.3-22.1c-1.4-6.7-1-12.9-1.1-13.1
			c-0.1-0.2-0.1-3,0.3-4.4c0.3-1.4,0.3-0.8,0.3-0.8l-1.2,0.1C81.8,170.2,81.8,171.4,80.3,173.2z"/>
		<g>
			<path class="st21" d="M81.8,163.4c0,0,6.8-13.3,6.1-23.5c-0.4-5.2-5.5-11.6-12.7-15.2c-7.2-3.5-11.7-3.2-15.9-2.3
				c-35.6,7.3-49.9,7.3-48.2-0.9c1.5-7.1,29.8-26.5,54.8-37.8c28.6-13.1,94.4-28.5,76.5-5.8c-6.1,7.7-48.8,30.3-62,39.3
				c-3.4,2.3-4.4,5.8-4.4,5.8l-2-0.9c1.5-3.2,2.4-4.6,7-7.4c14.6-8.9,52.3-31.3,58-37.7c17.2-19.2-49.7-1.2-73.1,9.6
				c-23.8,11-51.7,30.7-51.4,36c0.3,5.6,32.5-0.5,43.8-2.5c9.6-1.7,13.3,0.9,17.2,3.1c7.3,3.9,13.9,9.1,14.6,16.4
				c0.8,8-4.8,21.3-5.4,22.5s-1.2,3.1-1.2,3.1L81.8,163.4z"/>
			<path class="st15" d="M73.5,124.1c0,0-1.3,3.4,0.6,4.2c1.9,0.8,6-1.3,7.2-1.4c1.2,0,2.9,1.4,2.9,1.4s0.6-0.5,0.5-1.7
				c-0.1-1.3-1.2-2.2-3.2-1.8c-2,0.4-4.3,2-5.2,1.9s-1.2-0.4-1.1-0.9c0.1-0.4,0.3-0.7,0.3-0.7L73.5,124.1z"/>
		</g>
		<g>
			<g>
				<path class="st18" d="M133.4,217.2c0.4-0.6,0.6-1.2,0.7-2c0-0.3-0.4-0.3-0.4,0c-0.1,0.6-0.3,1.2-0.7,1.7
					C132.9,217.2,133.3,217.5,133.4,217.2L133.4,217.2z"/>
			</g>
		</g>
		<g>
			<g>
				<path class="st18" d="M129.8,219.2c0.4-0.6,0.6-1.2,0.7-2c0-0.3-0.4-0.3-0.4,0c-0.1,0.6-0.3,1.2-0.7,1.7
					C129.2,219.2,129.6,219.4,129.8,219.2L129.8,219.2z"/>
			</g>
		</g>
		<g>
			<g>
				<path class="st18" d="M125.7,221.1c0.4-0.6,0.6-1.2,0.7-2c0-0.3-0.4-0.3-0.4,0c-0.1,0.6-0.3,1.2-0.7,1.7
					C125.1,221.1,125.6,221.3,125.7,221.1L125.7,221.1z"/>
			</g>
		</g>
		<g>
			<g>
				<path class="st18" d="M120.1,222.3c0.4-0.6,0.6-1.2,0.7-2c0-0.3-0.4-0.3-0.4,0c-0.1,0.6-0.3,1.2-0.7,1.7
					C119.6,222.3,119.9,222.6,120.1,222.3L120.1,222.3z"/>
			</g>
		</g>
		<g>
			<g>
				<path class="st18" d="M113.1,222.6c0.5-0.5,0.9-1,1.2-1.7c0.1-0.3-0.3-0.3-0.4-0.1c-0.3,0.6-0.6,1.1-1,1.5
					C112.6,222.5,112.8,222.9,113.1,222.6L113.1,222.6z"/>
			</g>
		</g>
		<g>
			<g>
				<path class="st18" d="M107.3,221.3c0.5-0.5,0.9-1,1.2-1.7c0.1-0.3-0.3-0.3-0.4-0.1c-0.3,0.6-0.6,1.1-1,1.5
					C106.8,221.2,107.1,221.6,107.3,221.3L107.3,221.3z"/>
			</g>
		</g>
		<g>
			<g>
				<path class="st18" d="M100.8,218.8c0.7-0.2,1.3-0.5,1.8-1c0.2-0.2-0.1-0.5-0.3-0.3c-0.5,0.4-1,0.7-1.6,0.9
					C100.4,218.5,100.5,218.9,100.8,218.8L100.8,218.8z"/>
			</g>
		</g>
		<g>
			<g>
				<path class="st18" d="M94.8,214.8c0.7,0.2,1.4,0.1,2-0.1c0.3-0.1,0.2-0.5-0.1-0.4c-0.6,0.2-1.2,0.2-1.9,0.1
					C94.7,214.4,94.5,214.8,94.8,214.8L94.8,214.8z"/>
			</g>
		</g>
		<g>
			<g>
				<path class="st18" d="M90.4,210.7c0.7,0.2,1.4,0.1,2-0.1c0.3-0.1,0.2-0.5-0.1-0.4c-0.6,0.2-1.2,0.2-1.9,0.1
					C90.3,210.2,90.1,210.6,90.4,210.7L90.4,210.7z"/>
			</g>
		</g>
		<g>
			<g>
				<path class="st18" d="M85.7,203.2c0.7,0.2,1.4,0.1,2-0.1c0.3-0.1,0.2-0.5-0.1-0.4c-0.6,0.2-1.2,0.2-1.9,0.1
					C85.5,202.8,85.4,203.1,85.7,203.2L85.7,203.2z"/>
			</g>
		</g>
		<g>
			<g>
				<path class="st18" d="M82.8,194.9c0.5,0.4,1.1,0.8,1.8,0.9c0.3,0.1,0.3-0.3,0.1-0.4c-0.6-0.2-1.2-0.4-1.6-0.9
					C82.9,194.5,82.5,194.8,82.8,194.9L82.8,194.9z"/>
			</g>
		</g>
		<g>
			<g>
				<path class="st18" d="M81.1,187.1c0.5,0.4,1.1,0.8,1.8,0.9c0.3,0.1,0.3-0.3,0.1-0.4c-0.6-0.2-1.2-0.4-1.6-0.9
					C81.2,186.6,80.9,186.9,81.1,187.1L81.1,187.1z"/>
			</g>
		</g>
		<g>
			<g>
				<path class="st18" d="M80.6,181.1c0.5,0.4,1.1,0.8,1.8,0.9c0.3,0.1,0.3-0.3,0.1-0.4c-0.6-0.2-1.2-0.4-1.6-0.9
					C80.8,180.6,80.5,180.9,80.6,181.1L80.6,181.1z"/>
			</g>
		</g>
		<g>
			<g>
				<path class="st18" d="M80.2,174.9c0.5,0.4,1.1,0.8,1.8,0.9c0.3,0.1,0.3-0.3,0.1-0.4c-0.6-0.2-1.2-0.4-1.6-0.9
					C80.3,174.4,80.1,174.7,80.2,174.9L80.2,174.9z"/>
			</g>
		</g>
		<g>
			<g>
				<path class="st18" d="M83,160.8c0.3,0.6,0.8,1.2,1.3,1.6c0.3,0.2,0.4-0.2,0.3-0.3c-0.5-0.3-0.9-0.9-1.2-1.5
					C83.2,160.3,82.9,160.5,83,160.8L83,160.8z"/>
			</g>
		</g>
		<g>
			<g>
				<path class="st18" d="M84.9,156.6c0.3,0.6,0.8,1.2,1.3,1.6c0.3,0.2,0.4-0.2,0.3-0.3c-0.5-0.3-0.9-0.9-1.2-1.5
					C85.2,156.2,84.8,156.4,84.9,156.6L84.9,156.6z"/>
			</g>
		</g>
		<g>
			<g>
				<path class="st18" d="M86.7,149.7c0.3,0.6,0.8,1.2,1.3,1.6c0.3,0.2,0.4-0.2,0.3-0.3c-0.5-0.3-0.9-0.9-1.2-1.5
					C87,149.2,86.5,149.4,86.7,149.7L86.7,149.7z"/>
			</g>
		</g>
		<g>
			<g>
				<path class="st18" d="M88.2,142.8c0.3,0.6,0.8,1.2,1.3,1.6c0.3,0.2,0.4-0.2,0.3-0.3c-0.5-0.3-0.9-0.9-1.2-1.5
					C88.4,142.4,88,142.6,88.2,142.8L88.2,142.8z"/>
			</g>
		</g>
		<g>
			<g>
				<path class="st18" d="M86.5,135.2c0.9,0.3,1.7,0.3,2.6,0.2c0.3-0.1,0.2-0.6-0.2-0.5c-0.8,0.2-1.5,0.1-2.3-0.2
					C86.4,134.6,86.2,135.2,86.5,135.2L86.5,135.2z"/>
			</g>
		</g>
		<g>
			<g>
				<path class="st18" d="M81.8,129.4c0.9,0.3,1.7,0.3,2.6,0.2c0.3-0.1,0.2-0.6-0.2-0.5c-0.8,0.2-1.5,0.1-2.3-0.2
					C81.7,128.8,81.6,129.3,81.8,129.4L81.8,129.4z"/>
			</g>
		</g>
		<g>
			<g>
				<path class="st18" d="M75.8,125.1c0.9,0.2,1.7,0.1,2.6-0.3c0.3-0.1,0.2-0.6-0.2-0.5c-0.8,0.3-1.5,0.3-2.2,0.3
					C75.6,124.6,75.4,125.1,75.8,125.1L75.8,125.1z"/>
			</g>
		</g>
		<g>
			<g>
				<path class="st18" d="M69.5,122.6c0.9-0.2,1.6-0.5,2.3-1.1c0.3-0.3-0.1-0.6-0.3-0.3c-0.6,0.5-1.3,0.9-2,0.9
					C69,122.2,69.1,122.7,69.5,122.6L69.5,122.6z"/>
			</g>
		</g>
		<g>
			<g>
				<path class="st18" d="M62.3,121.8c0.7-0.5,1.2-1.3,1.5-2c0.2-0.3-0.4-0.4-0.5-0.2c-0.3,0.7-0.8,1.4-1.4,1.8
					C61.6,121.7,62,122.1,62.3,121.8L62.3,121.8z"/>
			</g>
		</g>
		<g>
			<g>
				<path class="st18" d="M54.5,123.2c0.7-0.5,1.2-1.3,1.5-2c0.2-0.3-0.4-0.4-0.5-0.2c-0.3,0.7-0.8,1.4-1.4,1.8
					C53.8,123,54.3,123.4,54.5,123.2L54.5,123.2z"/>
			</g>
		</g>
		<g>
			<g>
				<path class="st18" d="M46,124.7c0.6-0.7,1-1.4,1.2-2.2c0.1-0.3-0.4-0.5-0.5-0.2c-0.2,0.8-0.5,1.5-1,2
					C45.4,124.6,45.8,125,46,124.7L46,124.7z"/>
			</g>
		</g>
		<g>
			<g>
				<path class="st18" d="M36.7,126.4c0.6-0.7,0.9-1.5,1.1-2.3c0.1-0.3-0.4-0.5-0.5-0.2c-0.2,0.8-0.4,1.5-0.9,2
					C36.1,126.3,36.4,126.6,36.7,126.4L36.7,126.4z"/>
			</g>
		</g>
		<g>
			<g>
				<path class="st18" d="M29,127.1c0.6-0.7,0.9-1.5,1.1-2.3c0.1-0.3-0.4-0.5-0.5-0.2c-0.2,0.8-0.4,1.5-0.9,2
					C28.4,127,28.8,127.4,29,127.1L29,127.1z"/>
			</g>
		</g>
		<g>
			<g>
				<path class="st18" d="M21.6,127.5c0.6-0.7,0.9-1.5,1.1-2.3c0.1-0.3-0.4-0.5-0.5-0.2c-0.2,0.8-0.4,1.5-0.9,2
					C21,127.4,21.4,127.7,21.6,127.5L21.6,127.5z"/>
			</g>
		</g>
		<g>
			<g>
				<path class="st18" d="M14.3,126.5c0.8-0.4,1.4-1.1,1.8-1.9c0.2-0.3-0.3-0.6-0.4-0.3c-0.4,0.7-0.9,1.3-1.5,1.6
					C13.8,126.3,14,126.7,14.3,126.5L14.3,126.5z"/>
			</g>
		</g>
		<g>
			<g>
				<path class="st18" d="M12.3,120c0.4,0.8,1.1,1.4,1.8,1.8c0.3,0.2,0.6-0.3,0.3-0.4c-0.7-0.4-1.2-0.9-1.6-1.6
					C12.6,119.4,12.1,119.7,12.3,120L12.3,120z"/>
			</g>
		</g>
		<g>
			<g>
				<path class="st18" d="M18.9,112.8c0.1,0.9,0.4,1.7,0.9,2.4c0.2,0.3,0.7,0,0.4-0.3c-0.4-0.6-0.8-1.4-0.9-2.1
					C19.4,112.4,18.9,112.4,18.9,112.8L18.9,112.8z"/>
			</g>
		</g>
		<g>
			<g>
				<path class="st18" d="M34.5,101.2c0.1,0.9,0.4,1.7,0.9,2.4c0.2,0.3,0.7,0,0.4-0.3c-0.4-0.6-0.8-1.4-0.9-2.1
					C35.1,100.8,34.5,100.8,34.5,101.2L34.5,101.2z"/>
			</g>
		</g>
		<g>
			<g>
				<path class="st18" d="M42.8,96c0.1,0.9,0.4,1.7,0.9,2.4c0.2,0.3,0.7,0,0.4-0.3c-0.4-0.6-0.8-1.4-0.9-2.1
					C43.2,95.6,42.7,95.6,42.8,96L42.8,96z"/>
			</g>
		</g>
		<g>
			<g>
				<path class="st18" d="M61.2,86c-0.3,0.8-0.5,1.6-0.5,2.5c0,0.3,0.5,0.3,0.5,0c0-0.8,0.1-1.5,0.4-2.2C61.8,86,61.4,85.6,61.2,86
					L61.2,86z"/>
			</g>
		</g>
		<g>
			<g>
				<path class="st18" d="M70.1,82c-0.3,0.8-0.5,1.6-0.5,2.5c0,0.3,0.5,0.3,0.5,0c0-0.8,0.1-1.5,0.4-2.2C70.7,82,70.2,81.8,70.1,82
					L70.1,82z"/>
			</g>
		</g>
		<g>
			<g>
				<path class="st18" d="M78,78.8c-0.3,0.8-0.5,1.6-0.5,2.5c0,0.3,0.5,0.3,0.5,0c0-0.8,0.1-1.5,0.4-2.2
					C78.6,78.8,78.2,78.5,78,78.8L78,78.8z"/>
			</g>
		</g>
		<g>
			<g>
				<path class="st18" d="M85.9,76.1c-0.3,0.8-0.5,1.6-0.5,2.5c0,0.3,0.5,0.3,0.5,0c0-0.8,0.1-1.5,0.4-2.2
					C86.5,76.1,86.1,75.9,85.9,76.1L85.9,76.1z"/>
			</g>
		</g>
		<g>
			<g>
				<path class="st18" d="M96.2,73.1c-0.3,0.8-0.5,1.6-0.5,2.5c0,0.3,0.5,0.3,0.5,0c0-0.8,0.1-1.5,0.4-2.2
					C96.9,73,96.4,72.7,96.2,73.1L96.2,73.1z"/>
			</g>
		</g>
		<g>
			<g>
				<path class="st18" d="M106.3,70.4c-0.3,0.8-0.5,1.6-0.5,2.5c0,0.3,0.5,0.3,0.5,0c0-0.8,0.1-1.5,0.4-2.2
					C106.9,70.3,106.4,70.1,106.3,70.4L106.3,70.4z"/>
			</g>
		</g>
		<g>
			<g>
				<path class="st18" d="M118.1,67.9c-0.3,0.8-0.5,1.6-0.5,2.5c0,0.3,0.5,0.3,0.5,0c0-0.8,0.1-1.5,0.4-2.2
					C118.6,67.9,118.1,67.5,118.1,67.9L118.1,67.9z"/>
			</g>
		</g>
		<g>
			<g>
				<path class="st18" d="M132.1,66c-0.3,0.8-0.5,1.6-0.5,2.5c0,0.3,0.5,0.3,0.5,0c0-0.8,0.1-1.5,0.4-2.2
					C132.7,66,132.2,65.6,132.1,66L132.1,66z"/>
			</g>
		</g>
		<g>
			<g>
				<path class="st18" d="M143.4,68.5c-0.9,0.2-1.6,0.5-2.3,1.1c-0.3,0.3,0.1,0.6,0.3,0.3c0.6-0.5,1.3-0.8,2-0.9
					C143.9,68.9,143.8,68.4,143.4,68.5L143.4,68.5z"/>
			</g>
		</g>
		<g>
			<g>
				<path class="st18" d="M141.8,78.4c-0.2-0.9-0.5-1.8-1.1-2.6c-0.3-0.3-0.8,0-0.5,0.3c0.5,0.7,0.9,1.5,1,2.4
					C141.2,79,141.8,78.8,141.8,78.4L141.8,78.4z"/>
			</g>
		</g>
		<g>
			<g>
				<path class="st18" d="M131.1,86.5c0.3-0.9,0.3-1.9,0.2-2.8c-0.1-0.3-0.6-0.3-0.6,0.2c0.2,0.9,0.1,1.7-0.2,2.6
					C130.4,86.7,130.9,86.8,131.1,86.5L131.1,86.5z"/>
			</g>
		</g>
		<g>
			<g>
				<path class="st18" d="M120,93.6c0.3-0.9,0.3-1.9,0.2-2.8c-0.1-0.3-0.6-0.3-0.6,0.2c0.2,0.9,0.1,1.7-0.2,2.6
					C119.3,93.7,119.9,93.9,120,93.6L120,93.6z"/>
			</g>
		</g>
		<g>
			<g>
				<path class="st18" d="M109.1,100.3c0.3-0.9,0.3-1.9,0.2-2.8c-0.1-0.3-0.6-0.3-0.6,0.2c0.2,0.9,0.1,1.7-0.2,2.6
					C108.4,100.5,109,100.7,109.1,100.3L109.1,100.3z"/>
			</g>
		</g>
		<g>
			<g>
				<path class="st18" d="M96.8,107.6c0.3-0.9,0.3-1.9,0.2-2.8c-0.1-0.3-0.6-0.3-0.6,0.2c0.2,0.9,0.1,1.7-0.2,2.6
					C96.1,107.8,96.7,108,96.8,107.6L96.8,107.6z"/>
			</g>
		</g>
		<g>
			<g>
				<path class="st18" d="M85.4,114.6c0.4-0.9,0.7-2,0.6-3.1c0-0.4-0.6-0.4-0.6,0c0,0.9-0.2,1.9-0.5,2.7
					C84.7,114.6,85.3,114.9,85.4,114.6L85.4,114.6z"/>
			</g>
		</g>
		<g>
			<g>
				<path class="st18" d="M78.5,118.9c0.4-0.9,0.7-2,0.6-3.1c0-0.4-0.6-0.4-0.6,0c0,0.9-0.2,1.9-0.5,2.7
					C77.8,119,78.3,119.4,78.5,118.9L78.5,118.9z"/>
			</g>
		</g>
		<g>
			<g>
				<path class="st18" d="M76.6,126.4c-1,0.1-2,0.4-3,0.9c-0.3,0.2,0,0.8,0.3,0.5c0.9-0.5,1.7-0.8,2.6-0.9
					C77,127,77,126.4,76.6,126.4L76.6,126.4z"/>
			</g>
		</g>
		<g>
			<g>
				<path class="st18" d="M81.2,124.8c-0.9,0.6-1.6,1.4-2.1,2.3c-0.2,0.3,0.3,0.7,0.5,0.3c0.4-0.9,1.1-1.5,1.9-2
					C81.8,125.2,81.6,124.6,81.2,124.8L81.2,124.8z"/>
			</g>
		</g>
		<g>
			<g>
				<path class="st18" d="M51.9,90.7c0.1,0.9,0.4,1.7,0.9,2.4c0.2,0.3,0.7,0,0.4-0.3c-0.4-0.6-0.8-1.4-0.9-2.1
					C52.4,90.4,51.9,90.4,51.9,90.7L51.9,90.7z"/>
			</g>
		</g>
		<g>
			<g>
				<path class="st18" d="M27.2,105.9c0.1,0.9,0.4,1.7,0.9,2.4c0.2,0.3,0.7,0,0.4-0.3c-0.4-0.6-0.8-1.4-0.9-2.1
					C27.7,105.6,27.2,105.6,27.2,105.9L27.2,105.9z"/>
			</g>
		</g>
	</g>
</g>
</svg>
