<svg width="402" height="359" viewBox="0 0 402 359" version="1.1" xmlns="http://www.w3.org/2000/svg" xmlns:xlink="http://www.w3.org/1999/xlink">
<title>orange</title>
<desc>Created using Figma</desc>
<g id="Canvas" transform="translate(-1336 241)">
<g id="orange">
<g id="Fill 3" opacity="0.713542">
<use xlink:href="#path0_fill" transform="translate(1336.01 -240.3)" fill="#54D757"/>
</g>
<g id="Fill 1">
<use xlink:href="#path1_fill" transform="translate(1495 79.9999)" fill="#EF2020"/>
</g>
</g>
</g>
<defs>
<path id="path0_fill" fill-rule="evenodd" d="M 314.507 270.173C 367.332 254.632 401.985 224.923 401.985 176.276C 401.985 97.8842 311.999 0 200.993 0C 89.9869 0 0 97.8842 0 176.276C 0 254.668 89.9869 283.882 200.993 283.882C 211.887 283.882 222.579 283.601 233.003 283.019C 238.118 284.629 241.501 286.966 242.037 290.292C 246.348 317.029 210.335 333.088 210.335 333.088C 210.335 333.088 264.786 327.261 290.266 302.668C 303.824 289.578 309.721 279.921 314.507 270.173Z"/>
<path id="path1_fill" fill-rule="evenodd" d="M 28.5895 0.161176C 22.3924 0.934925 20.7543 4.78371 20.7543 4.78371C 20.7543 4.78371 18.1884 1.9758 15.6809 1.18875C 7.84466 -1.27067 1.04417 4.08416 0.148631 10.6088C -2.12963 27.2091 22.5372 37.731 22.5372 37.731C 22.7931 37.731 34.3368 30.0114 38.4011 22.6986C 41.3789 17.3413 42.4806 14.2125 42.431 9.77725C 42.385 5.64036 38.072 2.0326 36.7379 1.36581C 34.3287 0.161688 32.0043 -0.265613 28.5895 0.161176Z"/>
</defs>
</svg>
