<svg width="432" height="381" viewBox="0 0 432 381" version="1.1" xmlns="http://www.w3.org/2000/svg" xmlns:xlink="http://www.w3.org/1999/xlink">
<title>orange</title>
<desc>Created using Figma</desc>
<g id="Canvas" transform="translate(-1023 349)">
<g id="orange">
<g id="Fill 3" opacity="0.713542">
<use xlink:href="#path0_fill" transform="matrix(-1 0 0 1 1454.51 -348.596)" fill="#FC4429"/>
</g>
<g id="Fill 1">
<use xlink:href="#path1_fill" transform="translate(1239 -10.0001)" fill="#EF2020"/>
</g>
</g>
</g>
<defs>
<path id="path0_fill" fill-rule="evenodd" d="M 337.195 289.37C 393.831 272.724 430.984 240.904 430.984 188.801C 430.984 104.839 334.506 0 215.492 0C 96.4785 0 0 104.839 0 188.801C 0 272.763 96.4785 304.053 215.492 304.053C 227.172 304.053 238.636 303.751 249.812 303.128C 255.296 304.853 258.922 307.356 259.497 310.918C 264.12 339.554 225.508 356.755 225.508 356.755C 225.508 356.755 283.887 350.514 311.206 324.173C 325.742 310.154 332.064 299.81 337.195 289.37Z"/>
<path id="path1_fill" fill-rule="evenodd" d="M 40.4025 1.50368C 37.7529 0.17801 35.1967 -0.292426 31.4413 0.177447C 24.626 1.0293 22.8245 5.26661 22.8245 5.26661C 22.8245 5.26661 20.0027 2.17525 17.2451 1.30875C 8.62716 -1.39894 1.14833 4.49644 0.163457 11.6797C -2.34206 29.9558 24.7852 41.5398 24.7852 41.5398C 25.0666 41.5398 37.7619 33.0409 42.2315 24.99C 45.5064 19.0918 46.718 15.6472 46.6634 10.7642C 46.6128 6.20973 41.8697 2.23779 40.4025 1.50368Z"/>
</defs>
</svg>
