<svg id="Layer_1" data-name="Layer 1" xmlns="http://www.w3.org/2000/svg" viewBox="0 0 151.23 96.7"><defs><style>.cls-1{fill:#fff;}.cls-2{fill:#467589;}.cls-3{fill:#96bac6;}</style></defs><title>cloud</title><path class="cls-1" d="M227.7,109.62h-.93c-11.6-.28-16.08-9.34-17.44-13.14-2.6,2.43-9,7.75-15.21,7.75a9.53,9.53,0,0,1-4.44-1.06,8.14,8.14,0,0,1-4.51-5.35,11.69,11.69,0,0,1,1.16-7.46,25.12,25.12,0,0,1-6.44.93c-5,0-11.05-2-11.92-11.25-.38-4.06.51-7.3,2.64-9.64,3.12-3.43,8.23-4.15,12-4.15.83,0,1.58,0,2.24.08-2.72-3.77-7.29-12.26-.07-19.75a14.71,14.71,0,0,1,11-4.45,28.54,28.54,0,0,1,10.7,2.39c-2-3.17-4.37-8.14-3.35-13.21.92-4.57,4.37-8.25,10.25-10.95a29,29,0,0,1,12.08-2.8c10.26,0,17.21,6.13,19.9,9,1.31-3.69,5.31-11.66,15.48-11.66l1,0a10.53,10.53,0,0,1,8.23,4c3.17,4.1,3,10.24,2.68,13.45a25.28,25.28,0,0,1,11.33-3.14c4.49,0,10.61,1.85,14.3,10.67,2.84,6.78,3.26,12.27,1.27,16.33a10.31,10.31,0,0,1-2.35,3.11h.26c7.42,0,12.34,3.45,13.87,9.72.89,3.65.44,6.75-1.34,9.22A11.86,11.86,0,0,1,305.36,82c5,.88,11.51,3.59,11.74,11.65a10.45,10.45,0,0,1-2.69,7.9c-2.34,2.41-6.14,3.63-11.29,3.63a49.68,49.68,0,0,1-11.57-1.58A28.61,28.61,0,0,1,280.64,98a7.29,7.29,0,0,1-1,4.43c-2,3.22-6.57,4.85-13.7,4.85h-.83c-12.18-.21-17.76-5.26-20.28-9.33a13,13,0,0,1-2.9,6.53C239,107.89,234.22,109.62,227.7,109.62Z" transform="translate(-166.87 -13.92)"/><path class="cls-2" d="M260.84,15.92l1,0c13.33.67,9.67,18.33,9.67,18.33s6-4.06,12.62-4.06c4.9,0,10.11,2.24,13.38,10.06,6.91,16.53-3,20.05-5,20.59l-.35.08.35-.08a24.71,24.71,0,0,1,5.09-.54c4.72,0,11.08,1.47,12.9,9,2.92,12-10.56,13.27-11.3,13.33h0c.13,0,.66,0,1.45,0,4.08,0,15.2.93,15.49,11.09.24,8.3-6.18,10.5-13,10.5a48.81,48.81,0,0,1-11.32-1.55,28,28,0,0,1-13-7.67s5.83,11.34-12.85,11.34h-.82C247.4,106,244.3,95.14,243.86,93c0-.23-.06-.36-.06-.36s0,.13.06.36c.37,2.37,1.64,15.61-16.16,15.61h-.91c-14-.34-17-14-17-14s-8.13,8.61-15.68,8.61a8.51,8.51,0,0,1-4-.94c-8.33-4.33-1.67-13.67-1.67-13.67a25.81,25.81,0,0,1-8.59,1.68c-4.87,0-10.15-2-10.92-10.34-1-11,7.9-12.7,13.62-12.7a27.55,27.55,0,0,1,4.56.36s-10.67-11-1.67-20.33a13.79,13.79,0,0,1,10.31-4.15c7.21,0,14,4.15,14,4.15s-15.67-17,4-26a27.86,27.86,0,0,1,11.67-2.71c12.75,0,20.33,10,20.33,10s2.54-12.69,15-12.69m0-2c-8.9,0-13.77,5.92-15.89,10.83-3.37-3.21-10.09-8.17-19.48-8.17A30,30,0,0,0,213,19.46c-6.19,2.83-9.83,6.76-10.82,11.66-.85,4.2.46,8.31,2.09,11.5a27.33,27.33,0,0,0-8.46-1.49A15.68,15.68,0,0,0,184,45.89c-6.33,6.56-4.35,14.24-1.21,19.36h-.24c-3.94,0-9.34.78-12.71,4.47-2.33,2.56-3.31,6.06-2.9,10.41.73,7.84,5.32,12.16,12.92,12.16a24.41,24.41,0,0,0,4.8-.51,11.43,11.43,0,0,0-.49,6.28,9.1,9.1,0,0,0,5,6,10.52,10.52,0,0,0,4.91,1.17c5.8,0,11.68-4.31,14.82-7,1.94,4.47,6.86,12.17,17.82,12.44h1c6.82,0,11.86-1.85,15-5.49a13.42,13.42,0,0,0,2.62-4.8c3.11,3.83,8.94,7.76,19.79,7.95h.85c7.5,0,12.39-1.79,14.55-5.33a7.84,7.84,0,0,0,1.07-3,29.1,29.1,0,0,0,9.75,4.58,50.67,50.67,0,0,0,11.81,1.61c5.43,0,9.47-1.32,12-3.93a11.4,11.4,0,0,0,3-8.62c-.17-6-3.78-10.26-10-12.06a11.55,11.55,0,0,0,2.77-2.69c2-2.71,2.46-6.09,1.5-10-1.51-6.2-6.06-9.84-12.92-10.4a11.34,11.34,0,0,0,1.06-1.74c2.13-4.32,1.71-10.09-1.24-17.15-3.9-9.33-10.43-11.29-15.22-11.29a25.11,25.11,0,0,0-10.2,2.47c.18-3.55-.17-8.71-3-12.39a11.49,11.49,0,0,0-9-4.35l-1.06,0Z" transform="translate(-166.87 -13.92)"/><path class="cls-3" d="M292.47,60.86l-.34.08Z" transform="translate(-166.87 -13.92)"/><path class="cls-3" d="M243.86,93c0-.22-.06-.35-.06-.35S243.81,92.78,243.86,93Z" transform="translate(-166.87 -13.92)"/><path class="cls-3" d="M188.15,77.89l-.06-.28A1.11,1.11,0,0,0,188.15,77.89Z" transform="translate(-166.87 -13.92)"/><path class="cls-3" d="M169,79.94c1.49,16,19.51,8.67,19.51,8.67s-6.67,9.33,1.67,13.67,19.67-7.67,19.67-7.67,3,13.66,17,14c18.81.46,17.43-13.27,17.06-15.61,0-.22-.06-.35-.06-.35s0,.13.06.35c.43,2.09,3.49,13,21.27,13.28,19.67.33,13.67-11.33,13.67-11.33a28,28,0,0,0,13,7.67c8,2,24.68,4.33,24.3-9a11.11,11.11,0,0,0-.82-4c-.69,7.76-5.86,9.76-14.11,8.76A47,47,0,0,1,284.42,93c-7-3.67-12.25-10.35-12.25-10.35l3.92,9.28a9.75,9.75,0,0,1-8.92,7.72c-5.25.51-14.25-1.71-19.25-8-3.81-4.8-7.17-9.25-7.17-9.25l1.74,7.21a21.72,21.72,0,0,1-6.07,10.29c-5.17,5.17-13.41,3.13-17.25,0a24.12,24.12,0,0,1-8.14-13s-7.94,12.12-17.61,9c-4.69-1.54-.56-11.69-.56-11.69a24.4,24.4,0,0,1-17.44-.31c-4.93-2.08-5.88-7.81-4.1-12.8C169.6,73,168.57,75.82,169,79.94Z" transform="translate(-166.87 -13.92)"/><path class="cls-3" d="M287.46,78.9A15.83,15.83,0,0,0,296,82.44c3.1.17,3,.52,6-.34,4.21-1.2,6.07-2.76,7.15-4.21a8.43,8.43,0,0,0,1.76-5.51s-2.5,4.56-6.5,6.35S297,82.15,287.46,78.9Z" transform="translate(-166.87 -13.92)"/><path class="cls-3" d="M181.92,54.52s-.24,4.66,1.59,7.75,3,5.55,4.58,6.63a19.05,19.05,0,0,0,13.17,3.48,13.75,13.75,0,0,0,9.17-5.15S207,69.92,199.25,68.9C190.42,67.74,185.79,66.11,181.92,54.52Z" transform="translate(-166.87 -13.92)"/><path class="cls-3" d="M265.75,59.4c.17.09,3,9.5,14.67,10,9,.39,11.71-8.46,11.71-8.46s3.83-1.1,5.63-3.58a10.62,10.62,0,0,0,2.06-8.31c-.42-2.76-1-5.08-1-5.08s.95,6.65-2.22,10.54a6.73,6.73,0,0,1-7.5,2.18s-2.44,8.93-8.28,8.58C267.33,64.47,265.75,59.4,265.75,59.4Z" transform="translate(-166.87 -13.92)"/></svg>