<svg width="392" height="151" viewBox="0 0 392 151" fill="none" xmlns="http://www.w3.org/2000/svg">
<g clip-path="url(#clip0)">
<path d="M76.4406 105.596C76.3546 105.347 76.1919 105.133 75.9762 104.983C75.7604 104.833 75.5027 104.756 75.24 104.761C74.9814 104.757 74.7283 104.836 74.5178 104.986C74.3072 105.136 74.1502 105.35 74.0699 105.596L65.177 128.074C65.0975 128.246 65.0592 128.434 65.065 128.624C65.065 128.953 65.1958 129.268 65.4286 129.501C65.6614 129.734 65.9771 129.864 66.3064 129.864C66.5757 129.874 66.8405 129.794 67.0583 129.635C67.2761 129.476 67.4341 129.249 67.507 128.99L70.1627 122.327H80.3376L82.973 129.02C83.0533 129.272 83.2145 129.49 83.4316 129.641C83.6487 129.792 83.9095 129.867 84.1736 129.854C84.3416 129.858 84.5085 129.828 84.6643 129.765C84.82 129.702 84.9612 129.608 85.0792 129.488C85.1969 129.375 85.2902 129.239 85.3533 129.089C85.4163 128.938 85.4477 128.776 85.4455 128.613C85.4466 128.424 85.4085 128.237 85.3335 128.064L76.4406 105.596ZM70.936 120.059L75.24 108.871L79.5745 120.059H70.936Z" fill="white"/>
<path d="M116.743 106.796C118.015 106.786 119.271 107.079 120.406 107.65C121.462 108.162 122.38 108.918 123.082 109.858C123.224 110.064 123.428 110.218 123.664 110.299C123.901 110.38 124.157 110.382 124.395 110.306C124.633 110.229 124.839 110.078 124.984 109.874C125.129 109.671 125.204 109.426 125.199 109.176C125.196 108.901 125.107 108.635 124.944 108.413C124.043 107.2 122.854 106.228 121.485 105.586C120.003 104.89 118.381 104.542 116.743 104.568C113.121 104.568 110.32 105.643 108.339 107.793C106.358 109.942 105.364 113.116 105.358 117.313C105.358 125.816 109.146 130.068 116.723 130.068C118.369 130.084 119.999 129.737 121.495 129.051C122.881 128.444 124.076 127.474 124.955 126.244C125.094 126.04 125.168 125.799 125.168 125.552C125.171 125.4 125.144 125.249 125.088 125.107C125.032 124.966 124.949 124.837 124.843 124.728C124.736 124.615 124.606 124.526 124.462 124.466C124.319 124.407 124.164 124.378 124.008 124.382C123.823 124.374 123.638 124.413 123.472 124.497C123.307 124.581 123.165 124.706 123.062 124.86C122.372 125.837 121.424 126.605 120.325 127.078C119.189 127.586 117.958 127.846 116.713 127.84C113.796 127.84 111.598 127.01 110.12 125.349C108.641 123.687 107.912 121.009 107.932 117.313C107.932 113.794 108.692 111.159 110.211 109.41C111.037 108.516 112.052 107.818 113.182 107.366C114.312 106.914 115.529 106.719 116.743 106.796Z" fill="white"/>
<path d="M156.477 105.596C156.391 105.347 156.228 105.133 156.012 104.983C155.797 104.833 155.539 104.756 155.276 104.761C155.018 104.757 154.764 104.836 154.554 104.986C154.343 105.136 154.186 105.35 154.106 105.596L145.213 128.074C145.134 128.246 145.095 128.434 145.101 128.623C145.101 128.953 145.232 129.268 145.465 129.501C145.698 129.734 146.013 129.864 146.343 129.864C146.612 129.874 146.877 129.794 147.094 129.635C147.312 129.476 147.47 129.249 147.543 128.99L150.199 122.327H160.374L162.999 129.03C163.079 129.282 163.241 129.5 163.458 129.651C163.675 129.802 163.936 129.877 164.2 129.864C164.368 129.868 164.535 129.838 164.69 129.775C164.846 129.712 164.987 129.618 165.105 129.498C165.223 129.385 165.316 129.249 165.379 129.099C165.442 128.948 165.474 128.787 165.471 128.623C165.473 128.435 165.435 128.248 165.36 128.074L156.477 105.596ZM150.972 120.059L155.276 108.871L159.611 120.059H150.972Z" fill="white"/>
<path d="M193.097 105.046H187.958C187.636 105.057 187.331 105.192 187.107 105.424C186.883 105.655 186.757 105.965 186.758 106.287V128.329C186.758 128.658 186.888 128.973 187.121 129.206C187.354 129.439 187.67 129.57 187.999 129.57H193.137C196.78 129.57 199.568 128.61 201.501 126.691C203.434 124.772 204.387 121.646 204.36 117.313C204.36 112.994 203.394 109.868 201.46 107.935C199.527 106.002 196.739 105.04 193.097 105.046ZM199.619 125.033C198.133 126.552 195.959 127.311 193.097 127.311H189.2V107.304H193.097C195.966 107.304 198.14 108.074 199.619 109.613C201.097 111.153 201.84 113.723 201.847 117.323C201.847 120.944 201.104 123.514 199.619 125.033Z" fill="white"/>
<path d="M239.565 127.311H228.709V118.33H236.727C237.026 118.33 237.313 118.211 237.525 117.999C237.737 117.788 237.856 117.501 237.856 117.201C237.856 116.902 237.737 116.615 237.525 116.403C237.313 116.191 237.026 116.072 236.727 116.072H228.709V107.304H239.169C239.468 107.304 239.755 107.185 239.967 106.974C240.179 106.762 240.298 106.475 240.298 106.175C240.298 105.876 240.179 105.589 239.967 105.377C239.755 105.165 239.468 105.046 239.169 105.046H227.457C227.128 105.046 226.812 105.177 226.579 105.41C226.347 105.642 226.216 105.958 226.216 106.287V128.329C226.229 128.649 226.366 128.952 226.597 129.173C226.828 129.395 227.137 129.519 227.457 129.519H239.565C239.865 129.519 240.152 129.4 240.364 129.188C240.576 128.976 240.695 128.689 240.695 128.39C240.695 128.09 240.576 127.803 240.364 127.591C240.152 127.38 239.865 127.261 239.565 127.261V127.311Z" fill="white"/>
<path d="M283.155 104.761C282.927 104.764 282.704 104.83 282.512 104.952C282.32 105.074 282.165 105.248 282.066 105.453L273.245 121.951L264.423 105.443C264.334 105.23 264.182 105.05 263.987 104.926C263.793 104.803 263.565 104.742 263.334 104.751C263.021 104.751 262.721 104.876 262.5 105.097C262.382 105.206 262.289 105.338 262.226 105.485C262.163 105.632 262.131 105.791 262.134 105.951V128.644C262.134 128.962 262.26 129.267 262.485 129.492C262.711 129.718 263.016 129.844 263.334 129.844C263.653 129.844 263.958 129.718 264.183 129.492C264.408 129.267 264.535 128.962 264.535 128.644V110.732L272.156 124.901C272.245 125.113 272.397 125.294 272.592 125.417C272.787 125.541 273.014 125.602 273.245 125.592C273.476 125.598 273.703 125.536 273.899 125.413C274.095 125.29 274.249 125.112 274.344 124.901L281.995 110.732V128.654C281.995 128.967 282.12 129.267 282.341 129.488C282.452 129.602 282.585 129.693 282.732 129.756C282.879 129.818 283.036 129.85 283.196 129.85C283.355 129.85 283.513 129.818 283.66 129.756C283.807 129.693 283.94 129.602 284.051 129.488C284.272 129.267 284.396 128.967 284.397 128.654V105.962C284.399 105.803 284.37 105.646 284.311 105.499C284.251 105.352 284.163 105.219 284.051 105.107C283.939 104.995 283.805 104.906 283.659 104.847C283.512 104.788 283.354 104.759 283.196 104.761H283.155Z" fill="white"/>
<path d="M321.565 104.762C321.36 104.76 321.158 104.813 320.979 104.915C320.8 105.017 320.652 105.164 320.548 105.341L314.097 115.686L307.646 105.341C307.542 105.165 307.393 105.018 307.214 104.916C307.036 104.815 306.834 104.761 306.629 104.762C306.299 104.762 305.984 104.892 305.751 105.125C305.518 105.358 305.387 105.673 305.387 106.002C305.385 106.232 305.449 106.458 305.57 106.653L312.896 118.167V128.624C312.896 128.953 313.027 129.268 313.26 129.501C313.493 129.734 313.809 129.865 314.138 129.865C314.467 129.865 314.783 129.734 315.016 129.501C315.248 129.268 315.379 128.953 315.379 128.624V118.167L322.705 106.653C322.827 106.458 322.89 106.232 322.888 106.002C322.888 105.84 322.856 105.678 322.794 105.528C322.731 105.377 322.64 105.24 322.525 105.125C322.409 105.01 322.273 104.918 322.122 104.856C321.971 104.794 321.81 104.762 321.647 104.762H321.565Z" fill="white"/>
<path d="M99.0187 82.6387C98.9986 82.6789 99.0086 82.6789 99.0187 82.6387V82.6387Z" fill="#21375B"/>
<path d="M99.2215 83.136L99.1511 83.0555L99.2215 83.136Z" fill="#21375B"/>
<path d="M170.64 89.2908C170.762 89.4027 170.895 89.5146 171.017 89.6163L170.66 89.301L170.64 89.2908Z" fill="#21375B"/>
<path d="M366.946 74.593C364.795 71.345 362.421 67.8426 359.823 64.086C361.94 58.5528 366.159 50.8666 372.481 41.0275L370.019 38.566L359.732 35.0874C357.768 34.8738 355.58 37.2234 351.51 41.9429V37.2336L349.302 34.4263L343.879 35.2501C343.879 35.2501 337.571 36.2673 334.569 36.4198L332.961 36.5419L333.033 37.1013C333.033 37.3861 333.033 37.6709 333.033 37.9354C333.128 38.8068 333.172 39.683 333.165 40.5596V43.1736C333.15 50.4 332.726 57.6197 331.893 64.798L330.407 78.1327C329.47 76.7404 328.433 75.418 327.304 74.176L321.199 67.3612C324.816 65.3824 327.829 62.4616 329.919 58.9088C331.561 55.8031 332.381 51.8227 332.381 46.9676C332.422 45.6151 332.178 44.2692 331.667 43.0166C331.155 41.764 330.386 40.6325 329.41 39.695L328.189 38.505C327.253 37.1854 326.063 36.0652 324.689 35.2094C324.231 34.9145 323.743 34.6297 323.224 34.3551C322.705 34.0804 322.115 33.8261 321.545 33.5922C318.369 32.3858 314.991 31.8022 311.594 31.8732C304.54 31.7237 297.584 33.5336 291.498 37.1013C291.431 41.0953 290.867 47.7067 289.809 56.9355C289.657 58.2273 289.535 59.4784 289.412 60.7193C285.756 52.1075 281.72 43.394 277.304 34.5788L275.096 32.3716C274.984 32.2171 274.898 32.0453 274.842 31.8631H274.73L272.563 31.9648L266.325 32.1479C263.487 32.2801 261.319 32.2292 259.813 32.2292H258.796L254.726 32.3004C254.726 32.4123 254.655 32.5954 254.624 32.7073V32.7683C254.217 34.0804 253.82 35.4434 253.444 36.8369C252.867 38.9593 252.321 41.1733 251.806 43.4788C251.178 42.3354 250.46 41.2437 249.659 40.2138L248.865 38.8915C245.396 33.9075 239.403 31.8732 231.273 31.8732C225.093 31.8694 218.947 32.7882 213.039 34.5992C212.206 33.1817 211.178 31.8876 209.987 30.7544L208.969 29.8288C207.474 27.6892 205.606 25.8357 203.454 24.3566C200.017 22.0806 195.966 20.9094 191.845 21C184.329 21 178.292 22.9462 173.733 26.8384C171.947 28.3725 170.421 30.1863 169.216 32.2089C168.643 33.1739 168.137 34.1763 167.7 35.2094L165.665 33.2667C165.665 33.2667 156.629 32.2496 151.359 32.2496H137.337C137.256 32.2496 136.32 37.7218 136.32 37.7218C135.882 40.4884 135.516 43.0719 135.191 45.5232C135.079 46.3471 134.977 47.171 134.875 47.9644C133.726 45.4376 132.134 43.1366 130.174 41.1699L129.35 40.346C128.868 39.7967 127.912 38.8067 126.481 37.376C125.794 36.7472 125.07 36.1597 124.313 35.6163C119.368 32.0428 112.897 30.256 104.9 30.256C104.418 30.256 103.682 30.3068 102.692 30.4086L101.99 30.4798C101.826 30.4754 101.665 30.4445 101.511 30.3882C101.379 30.3882 101.186 30.2153 100.952 30.2153H99.2526C99.2526 30.2153 99.2526 31.2324 99.2526 32.4327L99.4052 39.7154C99.4052 41.6276 99.4052 44.0585 99.3034 46.9065C99.5578 47.4456 99.5578 47.4761 99.3034 46.9065C98.2859 44.6656 96.8922 42.6152 95.1826 40.8444L94.277 40.0103C92.9515 38.3265 91.3603 36.8699 89.566 35.6977C85.6927 33.148 80.802 31.8732 74.8937 31.8732C73.7841 31.8768 72.6771 31.9823 71.5868 32.1885C68.0709 32.9197 64.7555 34.405 61.8698 36.5419C59.3031 38.3357 56.9807 40.4556 54.961 42.8482C54.7982 43.0516 56.4567 39.1763 56.8026 38.2202L57.8812 35.2705C57.0174 34.0232 56.0398 32.8587 54.961 31.7919C53.6043 29.6084 50.7519 28.5167 46.4038 28.5167C38.7115 28.5167 32.2674 32.019 27.0714 39.0237C22.4497 45.0741 19.9469 52.476 19.9489 60.0886C19.8982 64.6506 21.236 69.1202 23.7849 72.9046C24.4817 73.9301 25.2537 74.9024 26.0946 75.8136C26.9348 76.7681 27.8612 77.6431 28.8622 78.4276L29.5846 79.1498C30.5426 80.0967 31.5847 80.9547 32.6981 81.713C36.028 84.0082 39.9887 85.213 44.033 85.1611C47.8385 85.1611 52.0102 83.5167 56.5482 80.228L57.1689 80.8484C58.4073 82.0824 59.7713 83.1835 61.2389 84.1338C65.743 87.0699 71.2138 88.538 77.6511 88.538C80.9722 88.5922 84.2668 87.939 87.3159 86.622C90.365 85.3049 93.0987 83.3541 95.3352 80.8993C96.5857 79.4445 97.7478 77.9161 98.815 76.3222L99.0389 81.4689C99.0803 81.8509 99.0803 82.2362 99.0389 82.6182C99.0389 82.6793 101.654 85.6697 101.654 85.6697C104.884 86.288 108.15 86.6991 111.432 86.9004C114.854 86.9339 118.247 86.2672 121.402 84.9413C124.557 83.6154 127.407 81.6584 129.777 79.1905C130.123 78.8447 132.555 76.0272 133.298 74.9185L132.972 84.7135L135.679 87.592C139.606 87.9989 141.835 88.2023 142.282 88.2023L165.339 87.6937V83.6252C166.259 85.2079 167.508 86.5746 169.002 87.6327L170.192 88.8431L170.63 89.3619C170.783 89.5144 170.945 89.6568 171.108 89.7992L170.945 89.6568L171.251 89.9213L171.403 90.0433L171.312 89.962L171.607 90.1857L171.403 90.0433C174.849 92.8913 180.673 94.3119 188.874 94.3051C195.284 94.3051 200.229 92.6574 204.513 88.6397L204.859 88.1922C206.849 86.3786 208.443 84.1726 209.539 81.713C209.699 83.3172 210.194 84.8698 210.994 86.2698C211.28 86.786 211.66 87.2447 212.113 87.6226C212.51 87.9379 213.812 88.7312 213.812 88.7312C213.812 88.7312 215.573 88.4058 218.9 87.7141L231.324 85.3747C231.324 83.4625 231.212 80.4924 230.805 76.4544C230.595 74.4268 230.49 72.3899 230.489 70.3516V69.9956C239.138 66.9441 247.899 62.8146 248.804 60.9939L245.823 81.713C245.95 81.7514 246.073 81.8025 246.189 81.8656L246.383 81.9673L248.479 84.1134L248.529 84.1643C251.671 85.7879 255.068 86.8612 258.572 87.3378L260.607 87.6429C261.326 87.7446 262.401 87.9141 263.833 88.1515C264.975 85.3915 265.686 82.4719 265.939 79.4956C266.346 76.2137 266.705 74.4201 267.017 74.115C268.538 73.7487 270.081 73.4836 271.637 73.3216H271.84C272.559 74.6778 273.343 76.1119 274.191 77.6241L279.217 86.5952L281.985 89.0567L289.921 84.7644L291.234 86.0562C292.638 87.4903 294.958 88.0904 298.204 88.0904C298.204 88.0904 303.708 88.3956 305.509 88.5278C307.666 88.182 308.816 85.334 308.816 79.9737V78.4581C308.81 78.478 308.81 78.4993 308.816 78.5192C310.251 81.3163 311.512 83.7168 312.672 85.69L315.318 88.1006C318.316 87.9423 321.293 87.5065 324.211 86.7987L329.675 85.5069L329.42 87.7344L332.137 90.1959C334.429 90.7918 336.781 91.1329 339.148 91.2131C339.595 91.2131 340.043 91.2131 340.491 91.2131H342.872C344.678 91.1755 346.486 91.24 348.285 91.4063C349.141 89.4861 349.578 87.4057 349.567 85.3035C349.567 84.4796 349.343 81.3265 349.343 81.3265V80.9501V81.0112C349.818 81.9876 350.408 83.1472 351.113 84.4898L353.026 88.1108V88.182L355.662 90.5519C358.47 89.8363 361.312 89.2626 364.178 88.8329L372.959 87.3988C372.749 84.6322 370.744 80.3636 366.946 74.593ZM20.7018 59.7835C20.6176 53.7752 22.1989 47.8608 25.2704 42.6956C22.1989 47.8608 20.6176 53.7752 20.7018 59.7835ZM52.0306 46.8353C49.3314 50.8025 47.8367 55.465 47.7266 60.2616C47.7254 61.8475 47.8376 63.4315 48.0623 65.0014C44.3247 64.8251 41.4283 64.147 39.3729 62.9671C38.6446 61.4855 38.295 59.8465 38.3554 58.1968C38.3473 56.5835 38.6406 54.9829 39.2203 53.4772C39.7282 51.957 40.6951 50.6315 41.9879 49.6833C43.7223 48.6838 45.5843 47.9242 47.5231 47.4253C49.142 46.924 50.7858 46.5064 52.4477 46.1742C52.3256 46.3878 52.173 46.6116 52.0306 46.8353ZM80.2763 63.1095C79.5977 64.159 78.6618 65.0175 77.5576 65.6032C76.4533 66.189 75.2176 66.4825 73.9678 66.4559C72.3235 66.4837 70.7025 66.0654 69.2771 65.2455L69.1449 65.1743C68.6812 64.1177 68.4587 62.9711 68.4937 61.8178C68.5848 59.0252 69.642 56.3508 71.4851 54.2503C73.4862 51.7413 75.6975 50.4869 78.1192 50.4869C79.1516 50.4869 80.173 50.6981 81.1208 51.1073H81.2429C81.4261 51.4347 81.5859 51.7746 81.7211 52.1244C82.1715 53.3237 82.3924 54.5969 82.3723 55.8777C82.4597 58.4401 81.7252 60.9634 80.2763 63.079V63.1095ZM126.237 75.6102C123.989 77.9504 121.285 79.8057 118.293 81.0617C115.301 82.3178 112.083 82.9479 108.837 82.9132C106.017 82.758 103.209 82.4182 100.433 81.8961C100.433 81.557 100.382 80.4314 100.28 78.5192C100.212 77.2172 100.178 76.1086 100.178 75.1931C100.178 74.7456 100.178 74.2675 100.178 73.7691C101.694 70.3605 102.461 66.6666 102.427 62.9366C102.494 58.7798 101.945 54.6359 100.799 50.6394C100.931 46.0827 100.992 42.4311 100.992 39.7357C100.992 37.0403 100.942 34.4059 100.84 31.9444C101.518 32.0091 102.201 31.992 102.875 31.8936C103.933 31.7919 104.611 31.741 104.91 31.741C113.525 31.741 120.376 33.9787 125.463 38.4541C130.829 43.1329 133.512 49.7274 133.512 58.2374C133.547 61.476 132.921 64.6876 131.67 67.6751C130.418 70.6626 128.57 73.3629 126.237 75.6102ZM153.404 49.4697C153.404 48.6967 153.343 48.9612 153.332 49.5816C153.332 48.9408 153.353 48.656 153.404 49.4901V49.4697ZM163.64 73.3725C163.64 73.2911 163.64 73.2097 163.64 73.1385C163.64 73.2199 163.64 73.3013 163.64 73.3826V73.3725ZM165.675 64.7268L165.604 64.8082L163.803 65.9982C163.271 68.2088 163.028 70.479 163.08 72.752L162.826 72.4977C162.317 71.1958 159.997 70.3922 155.703 70.0871C154.299 69.9854 152.203 69.8837 151.186 69.782V68.8564C151.186 68.7241 153.963 68.1749 157.86 67.2188C158.65 67.0482 159.424 66.8065 160.17 66.4966C161.096 64.1063 161.534 60.5158 161.534 55.7353L159.112 53.3247C159.112 53.3247 153.455 52.3889 153.455 52.2058C153.455 52.2058 153.455 50.4869 153.516 50.4869H155.459C159.244 50.3698 163.013 49.9548 166.733 49.246C167.701 51.196 168.828 53.0636 170.101 54.83C170.895 55.7944 171.766 56.6925 172.706 57.5153L173.367 58.1154C173.367 58.1154 177.925 61.6652 180.958 64.564L165.675 64.7268ZM185.302 70.972V70.7076C185.302 70.4634 185.211 70.1074 185.15 69.6904L184.885 67.9715L181.833 65.0218C182.423 65.4591 185.903 67.768 186.076 67.9409C186.227 68.2056 186.318 68.5011 186.34 68.8055C186.374 69.2301 186.295 69.6561 186.111 70.0403C185.927 70.4244 185.644 70.7529 185.292 70.9924L185.302 70.972ZM188.792 94.2441C187.782 94.2441 186.805 94.2204 185.862 94.1729C186.805 94.2204 187.782 94.2441 188.792 94.2441ZM190.715 45.5334C190.807 44.4247 192.75 43.3669 192.75 43.3567L193.137 44.1094L194.348 46.4793C194.409 46.4793 194.348 46.4793 194.348 46.4793L196.383 48.5136L197.064 49.1951C195.528 48.2085 190.98 45.7572 190.664 45.5334H190.715ZM210.658 50.6191C210.587 51.8498 210.577 54.1079 210.404 57.3831C210.272 59.6208 210.17 61.7059 210.17 63.669C209.151 61.0819 207.621 58.7263 205.673 56.7423C205.673 56.7423 203.393 54.4232 202.386 53.2738C200.903 51.9007 199.307 50.6553 197.614 49.5511C197.929 49.5511 210.841 46.4997 210.841 46.4997L210.658 50.6191ZM236.492 62.662L226.44 66.4559C226.406 66.8628 226.389 67.3239 226.389 67.8392C226.389 69.2768 226.524 71.3619 226.796 74.0946C227.203 78.1632 227.406 80.6925 227.406 81.6825L220.945 82.9132L212.073 84.6525C211.34 83.3709 210.974 81.357 210.974 78.6107C210.974 78.2242 210.974 77.797 210.974 77.38C211.276 75.8217 211.426 74.2377 211.421 72.6503C211.416 71.4873 211.341 70.3257 211.198 69.1717C211.33 65.805 211.523 61.9195 211.788 57.4949C212.052 53.0704 212.235 49.307 212.388 46.0521L216.204 44.8621C216.091 42.1967 215.473 39.5769 214.382 37.142C214.209 36.7352 214.006 36.3588 213.812 35.9723C219.47 34.2443 225.357 33.3801 231.273 33.4091C235.638 33.2678 239.95 34.4063 243.676 36.6843C245.538 37.7965 247.07 39.3844 248.114 41.2847C249.158 43.185 249.678 45.3291 249.618 47.4965C249.618 54.2638 245.229 59.3224 236.452 62.6722L236.492 62.662ZM288.995 66.8018L288.894 66.5678C288.7 69.6192 288.527 72.4977 288.527 75.183V76.2001V79.9839L279.96 84.6017L275.585 76.8612C274.12 74.3008 272.789 71.6662 271.596 68.9683C271.464 68.9683 270.029 69.192 267.292 69.5277C265.108 69.7989 263.846 70.1583 263.507 70.6058C263.025 71.1212 262.547 73.1555 262.072 76.7087C261.557 80.7026 261.062 83.1438 260.587 84.0321L255.499 83.2082C252.736 82.844 250.052 82.0296 247.553 80.7976L250.717 58.746C252.608 56.2425 253.624 53.1867 253.607 50.0495C253.608 48.5959 253.367 47.1522 252.895 45.7775C253.697 41.7687 254.716 37.8062 255.947 33.9075L258.867 33.9584C259.654 33.9584 260.729 33.9414 262.093 33.9075L266.448 33.7549L273.987 33.3989C279.726 44.7977 284.729 55.854 288.995 66.5678V66.6695V66.8018ZM313.588 84.0931L311.909 81.1942C311.055 79.5872 309.396 76.512 306.934 71.9688C306.323 70.8692 305.643 69.8092 304.899 68.7953C304.865 70.3007 304.797 73.169 304.695 77.4003C304.563 82.0486 303.993 84.3169 303.006 84.4491C302.296 84.2013 301.55 84.0741 300.798 84.0727H299.781C299.333 84.0727 298.672 84.2253 297.746 84.2762C296.82 84.327 296.189 84.4186 295.711 84.4186C293.951 84.4186 290.42 83.4014 290.42 83.0963V66.7C290.471 65.8151 290.532 64.92 290.603 63.9944V63.7605C290.776 61.6143 290.979 59.3766 291.234 57.0474C292.292 47.7914 292.855 41.4208 292.923 37.9354C298.017 34.8975 304.203 33.3786 311.482 33.3786C315.273 33.2891 319.032 34.0977 322.451 35.7384C326.378 37.7184 328.342 40.6037 328.342 44.3942C328.342 49.3511 327.447 53.3145 325.656 56.2845C323.865 59.2546 320.782 61.967 316.407 64.4216L323.682 72.5588C327.073 76.3832 328.834 79.2346 328.963 81.1129L321.219 82.9539C318.7 83.5769 316.128 83.9651 313.537 84.1134L313.588 84.0931ZM329.736 85.4561L324.099 86.8292L329.736 85.4561Z" fill="#21375B"/>
<path d="M243.676 36.6842C239.95 34.4062 235.638 33.2677 231.273 33.409C225.355 33.3691 219.465 34.223 213.802 35.9417C213.996 36.3282 214.199 36.7045 214.372 37.1114C215.463 39.5463 216.081 42.166 216.194 44.8315L212.378 46.0215C212.235 49.2696 212.035 53.0839 211.778 57.4643C211.523 61.8889 211.33 65.7642 211.187 69.1411C211.331 70.2951 211.406 71.4567 211.411 72.6197C211.416 74.2071 211.266 75.7911 210.964 77.3494C210.964 77.7664 210.964 78.1936 210.964 78.5801C210.964 81.3467 211.323 83.3437 212.042 84.5711L220.915 82.8317L227.376 81.601C227.376 80.6449 227.172 78.1156 226.765 74.0132C226.494 71.3008 226.358 69.2157 226.358 67.7578C226.358 67.2424 226.375 66.7813 226.409 66.3745L236.452 62.6314C245.236 59.2816 249.628 54.2264 249.628 47.4659C249.681 45.3026 249.158 43.1642 248.112 41.2696C247.066 39.3751 245.535 37.7926 243.676 36.6842ZM231.141 52.7245C228.183 53.8501 226.487 54.4807 226.053 54.6163L225.748 50.619C225.67 49.3336 225.448 48.061 225.086 46.8251C227.167 46.5802 229.259 46.4444 231.354 46.4182C232.151 46.4878 232.895 46.8501 233.44 47.4353C233.76 47.6764 234.024 47.9822 234.217 48.3328C234.41 48.6834 234.527 49.0708 234.559 49.4696C234.573 50.7851 233.433 51.8701 231.141 52.7245Z" fill="#21375B"/>
<path d="M323.794 72.559L316.519 64.4219C320.894 61.9943 323.977 59.2819 325.768 56.2848C327.559 53.2876 328.454 49.3242 328.454 44.3944C328.454 40.6039 326.49 37.7186 322.563 35.7386C319.144 34.0979 315.385 33.2893 311.594 33.3788C304.343 33.3788 298.156 34.9113 293.035 37.9763C292.967 41.4617 292.404 47.8324 291.346 57.0883C291.092 59.4176 290.888 61.6553 290.715 63.8014V64.0354C290.644 64.9508 290.583 65.856 290.532 66.741V83.0864C290.532 83.3712 294.063 84.4086 295.823 84.4086C296.271 84.4086 296.932 84.3171 297.858 84.2662C298.784 84.2154 299.415 84.0628 299.893 84.0628H300.91C301.662 84.0642 302.409 84.1914 303.118 84.4391C304.136 84.3069 304.675 82.0387 304.807 77.3904C304.909 73.1523 304.977 70.284 305.011 68.7854C305.756 69.7993 306.435 70.8592 307.046 71.9589C309.508 76.5021 311.167 79.5772 312.022 81.1843L313.609 84.1035C316.238 83.9554 318.848 83.5603 321.403 82.9236L329.146 81.0826C328.997 79.2043 327.213 76.3631 323.794 72.559ZM311.391 53.9759C309.943 55.1313 308.155 55.7783 306.303 55.8169C306.676 50.521 306.968 47.0356 307.178 45.3607C307.766 45.0182 308.443 44.8589 309.122 44.903C310.413 44.864 311.674 45.294 312.673 46.1134C313.139 46.5278 313.506 47.0421 313.745 47.6181C313.985 48.194 314.091 48.8166 314.057 49.4394C314.018 50.3561 313.755 51.2494 313.29 52.0405C312.825 52.8316 312.173 53.4962 311.391 53.9759Z" fill="#21375B"/>
<path d="M125.494 38.4442C120.4 33.9688 113.549 31.7311 104.941 31.7311C104.635 31.7311 103.957 31.782 102.906 31.8837C102.232 31.9821 101.549 31.9992 100.871 31.9345C100.972 34.396 101.023 36.9931 101.023 39.7258C101.023 42.4212 100.952 46.0728 100.83 50.6295C101.976 54.626 102.525 58.7698 102.458 62.9267C102.492 66.6567 101.725 70.3506 100.209 73.7592C100.209 74.2576 100.209 74.7764 100.209 75.1832C100.209 76.1054 100.243 77.2141 100.311 78.5093C100.413 80.4215 100.464 81.5471 100.464 81.8862C103.24 82.4083 106.047 82.7481 108.868 82.9033C112.108 82.9351 115.319 82.3046 118.306 81.0505C121.293 79.7963 123.992 77.9451 126.237 75.6104C128.578 73.3635 130.434 70.6611 131.69 67.6697C132.947 64.6784 133.577 61.4615 133.542 58.2174C133.542 49.7141 130.86 43.1231 125.494 38.4442ZM119.226 62.8555C116.927 65.6527 114.922 66.8224 113.203 66.8224H110.445V57.7088C110.423 53.5934 110.715 49.4824 111.32 45.4116H113.06C115.35 45.4116 117.527 46.6729 119.593 49.0123C121.451 50.93 122.537 53.4646 122.645 56.1322C122.655 57.8512 121.526 60.0075 119.226 62.8047V62.8555Z" fill="#21375B"/>
<path d="M113.04 45.4216H111.3C110.702 49.4895 110.417 53.5972 110.445 57.7086V66.7713H113.233C114.953 66.7713 116.957 65.6016 119.257 62.8045C121.556 60.0074 122.655 57.851 122.655 56.1117C122.548 53.4441 121.461 50.9095 119.603 48.9918C117.507 46.6829 115.329 45.4216 113.04 45.4216ZM114.515 60.1498C114.515 60.0481 114.515 59.9565 114.515 59.8548C114.515 59.9565 114.515 60.0684 114.515 60.1701V60.1498ZM121.037 55.2675C121.095 55.5761 121.126 55.8893 121.129 56.2033C121.121 56.4717 121.08 56.7382 121.007 56.9966C120.31 58.8562 119.248 60.5576 117.883 62.001C116.922 63.238 115.787 64.3307 114.515 65.2456V60.2718C114.515 56.2033 114.729 52.979 114.973 50.4971C114.973 50.2123 115.034 49.48 115.065 49.48H115.624C116.692 49.5258 117.724 49.879 118.595 50.4971C119.8 51.8228 120.647 53.4328 121.058 55.176L121.037 55.2675Z" fill="#21375B"/>
<path d="M273.916 33.4095L266.377 33.7655L262.052 33.9079C260.696 33.9418 259.62 33.9587 258.827 33.9587L255.876 33.9079C254.645 37.8065 253.626 41.769 252.824 45.7778C253.296 47.1525 253.537 48.5962 253.536 50.0498C253.553 53.187 252.537 56.2428 250.646 58.7464L247.482 80.7979C249.981 82.03 252.666 82.8443 255.428 83.2085L260.516 84.0324C260.997 83.1441 261.493 80.703 262.001 76.709C262.483 73.1558 262.961 71.1215 263.436 70.6062C263.775 70.1654 265.037 69.806 267.221 69.528C269.958 69.1924 271.383 68.9991 271.525 68.9686C272.718 71.6666 274.049 74.3011 275.514 76.8616L279.889 84.602L288.507 79.9944V76.2106V75.1935C288.507 72.5082 288.68 69.6297 288.873 66.5783L288.975 66.8123V66.68V66.5783C284.675 55.8645 279.655 44.8082 273.916 33.4095ZM267.811 60.2619L263.558 60.211C263.704 58.2871 263.952 56.3722 264.301 54.4744C264.649 52.5765 264.897 50.6616 265.044 48.7377C267.981 53.9997 269.677 57.7733 270.131 60.0585C269.37 60.2001 268.596 60.2682 267.821 60.2619H267.811Z" fill="#21375B"/>
<path d="M264.311 54.4743C263.962 56.3721 263.714 58.287 263.568 60.2109L267.821 60.2618C268.613 60.2714 269.404 60.2033 270.182 60.0584C269.7 57.7732 268.004 53.9996 265.094 48.7376C264.934 50.6622 264.672 52.5771 264.311 54.4743Z" fill="#21375B"/>
<path d="M231.344 46.4285C229.249 46.4547 227.157 46.5905 225.076 46.8354C225.438 48.0713 225.66 49.3439 225.738 50.6293L226.043 54.6267C226.484 54.491 228.18 53.8604 231.131 52.7348C233.43 51.8804 234.58 50.7853 234.58 49.4494C234.547 49.0506 234.431 48.6632 234.238 48.3126C234.045 47.9621 233.78 47.6562 233.461 47.4152C232.903 46.8344 232.148 46.4826 231.344 46.4285ZM229.492 51.6973V52.0228V51.6973V51.5956V51.1989C229.492 51.1989 229.492 51.1989 229.492 51.1277C229.492 51.1277 229.492 51.0667 229.492 51.0362C229.492 51.0057 229.492 50.9446 229.492 50.9039C229.5 50.816 229.5 50.7275 229.492 50.6395C230.144 50.6395 231.1 50.5378 232.341 50.4462H232.524C231.551 50.9473 230.536 51.3658 229.492 51.6973Z" fill="#21375B"/>
<path d="M309.081 44.913C308.402 44.8689 307.725 45.0282 307.137 45.3707C306.934 47.0456 306.642 50.531 306.262 55.8269C308.114 55.7883 309.902 55.1413 311.35 53.9859C312.135 53.5043 312.789 52.8365 313.254 52.0416C313.719 51.2467 313.981 50.3493 314.016 49.4291C314.054 48.8112 313.953 48.1925 313.721 47.6186C313.489 47.0448 313.13 46.5304 312.673 46.1132C311.662 45.2881 310.385 44.8612 309.081 44.913ZM312.927 49.3172C312.927 50.4055 312.083 51.4532 310.892 52.45L310.658 52.6534C310.658 52.3279 310.719 51.9109 310.77 51.443C310.821 50.9751 310.973 49.4088 311.024 48.9104C311.669 48.7682 312.343 48.8582 312.927 49.1646V49.3172Z" fill="#21375B"/>
<path d="M41.4793 81.2452C44.9252 81.2452 48.7679 79.7331 53.0075 76.7088C50.6246 73.7595 49.0127 70.2642 48.3168 66.5374C45.5065 66.546 42.7177 66.0464 40.0853 65.0625C36.3273 63.4216 34.4484 60.2786 34.4484 55.6337C34.4427 53.8083 34.7881 51.9989 35.4658 50.3039C36.086 48.5793 37.2096 47.0805 38.6913 46.0014C40.4187 45.0118 42.2604 44.2364 44.1756 43.6925C46.0756 43.0167 48.0294 42.5029 50.016 42.1566C51.1289 40.0132 52.0713 37.7856 52.8345 35.4944L53.852 32.7277C53.1737 30.9511 50.6944 30.0628 46.4141 30.0628C39.2034 30.0628 33.1731 33.3584 28.323 39.9494C23.9211 45.7401 21.5438 52.8159 21.5567 60.0887C21.4562 65.567 23.4756 70.8724 27.1936 74.8983C28.9665 76.9351 31.1642 78.5589 33.6323 79.6554C36.1004 80.752 38.7788 81.2946 41.4793 81.2452Z" fill="#FF8654"/>
<path d="M100.423 81.896C103.199 82.4182 106.007 82.758 108.827 82.9132C112.074 82.9492 115.294 82.3198 118.289 81.0637C121.283 79.8077 123.988 77.9516 126.237 75.6101C128.578 73.3632 130.434 70.6607 131.69 67.6694C132.947 64.6781 133.577 61.4612 133.542 58.2171C133.542 49.707 130.86 43.1126 125.494 38.4337C120.4 33.9583 113.549 31.7206 104.941 31.7206C104.635 31.7206 103.957 31.7715 102.906 31.8732C102.232 31.9716 101.549 31.9887 100.871 31.9241C100.972 34.3855 101.023 36.9826 101.023 39.7153C101.023 42.4107 100.952 46.0623 100.83 50.619C101.976 54.6155 102.525 58.7594 102.458 62.9162C102.492 66.6463 101.725 70.3401 100.209 73.7488C100.209 74.2472 100.209 74.7659 100.209 75.1728C100.209 76.095 100.243 77.2036 100.311 78.4988C100.386 80.4178 100.423 81.5502 100.423 81.896ZM110.445 60.4751V57.7085C110.423 53.5931 110.715 49.4821 111.32 45.4113H113.06C115.35 45.4113 117.527 46.7336 119.593 49.073C121.454 50.9885 122.541 53.5244 122.645 56.193C122.645 57.9323 121.495 60.0072 119.196 62.8145C116.896 65.6218 114.892 66.8221 113.172 66.8221H110.445V60.4751Z" fill="#FF8654"/>
<path d="M161.32 83.7472V73.0672C161.32 72.4163 159.377 71.928 155.378 71.5822C151.654 71.2771 149.11 71.0533 147.075 70.9211V65.2556C147.703 64.9966 148.364 64.8255 149.039 64.747L151.786 64.1368C153.366 63.8393 154.923 63.4315 156.446 62.9162C157.284 60.1736 157.645 57.3079 157.515 54.4434L149.314 53.3246C149.415 50.1918 149.497 47.4557 149.568 46.4386H152.844C156.406 46.3793 159.956 46.0186 163.457 45.3604L164.179 34.1719C159.978 33.4965 155.726 33.18 151.471 33.2259H138.671C138.495 34.7846 138.237 36.3328 137.897 37.8641C137.073 42.1462 136.463 46.5504 136.025 50.8326C135.638 54.1891 135.404 58.6951 135.333 61.004L134.977 72.1111L134.57 83.7472C137.623 84.0523 139.261 84.2049 139.658 84.2049L161.32 83.7472ZM137.918 60.77C137.918 60.77 137.918 60.7192 137.918 60.6887C137.918 60.6581 137.918 60.6887 137.918 60.7497V60.77Z" fill="#FF8654"/>
<path d="M49.2631 60.2514C49.2051 61.7965 49.2664 63.3437 49.4462 64.8794C49.4462 65.1133 49.6701 66.283 49.7311 66.5475C50.6723 71.0713 53.0233 75.1806 56.4466 78.2853C56.8129 78.6209 57.2301 78.9159 57.6167 79.2109L57.7694 79.3228C62.2565 82.8115 68.0257 84.5813 75.0668 84.5813C78.1988 84.6313 81.3054 84.0131 84.1794 82.7677C87.0534 81.5224 89.6287 79.6787 91.7334 77.3597C93.923 75.1089 95.6462 72.4478 96.8039 69.5293C97.9616 66.6108 98.531 63.4923 98.4794 60.3531C98.4794 51.9855 96.6852 45.5436 93.0968 41.0275C89.0947 35.9418 83.027 33.399 74.8938 33.399C70.9256 33.399 66.9099 34.8331 62.8467 37.7015C59.1036 40.3156 55.9152 43.6446 53.4653 47.4965C50.8526 51.2487 49.3921 55.6815 49.2631 60.2514ZM67.8222 50.8225C70.1489 47.9881 72.7299 46.5709 75.5654 46.5709C76.7519 46.5126 77.9357 46.7324 79.0222 47.2127C80.1087 47.6931 81.0678 48.4207 81.823 49.3375C83.2848 51.2231 84.031 53.5655 83.9292 55.9489C83.9926 58.8882 83.092 61.7674 81.3651 64.147C80.5519 65.3502 79.4516 66.3318 78.1636 67.0031C76.8756 67.6744 75.4406 68.0142 73.9882 67.9918C71.507 68.1015 69.0746 67.2777 67.171 65.6829C66.2839 64.8671 65.5892 63.8644 65.137 62.7475C64.6848 61.6305 64.4863 60.4271 64.5561 59.2241C64.6268 56.1276 65.7828 53.1542 67.8222 50.8225Z" fill="#FF8654"/>
<path d="M69.2876 65.2455L69.1553 65.1641L69.2876 65.2455Z" fill="#FF8654"/>
<path d="M247.522 80.808C250.022 82.04 252.706 82.8544 255.469 83.2186L260.557 84.0425C261.038 83.1542 261.533 80.713 262.042 76.7191C262.524 73.1659 263.002 71.1316 263.477 70.6162C263.816 70.1755 265.081 69.8161 267.272 69.5381C269.985 69.199 271.42 69.0126 271.576 68.9787C272.772 71.6766 274.107 74.3111 275.575 76.8716L279.981 84.6121L288.589 79.9637L288.487 76.18V75.1629C288.487 72.4776 288.66 69.5991 288.853 66.5477C284.59 55.8271 279.624 44.7708 273.886 33.3788L266.366 33.7348L262.052 33.9077C260.689 33.9077 259.61 33.9586 258.827 33.9586L255.876 33.9077C254.645 37.8064 253.626 41.7689 252.824 45.7777C253.296 47.1524 253.537 48.5961 253.536 50.0497C253.553 53.1869 252.538 56.2427 250.646 58.7462L247.522 80.808ZM264.311 54.4641C264.659 52.5662 264.907 50.6513 265.054 48.7274C267.991 53.9894 269.687 57.763 270.141 60.0482C269.363 60.1931 268.572 60.2612 267.781 60.2516L263.528 60.2008C263.687 58.2761 263.949 56.3612 264.311 54.4641Z" fill="#FFCE00"/>
<path d="M344.856 87.3885C345.874 85.4661 345.609 81.5603 345.578 81.0823L345.222 76.0576C345.169 73.8906 345.357 71.7244 345.782 69.5988C348.041 74.8947 350.754 80.4957 353.922 86.4019C356.004 85.8526 358.518 85.3407 361.462 84.866L369.001 83.6353C368.866 82.0282 366.953 78.4072 363.263 72.7722C360.427 68.4325 357.948 64.7267 355.825 61.6549C357.941 55.8505 361.957 48.3677 367.872 39.2067L359.62 36.3892C357.639 36.3892 353.908 40.9324 348.427 50.0189C348.427 48.9271 348.41 48.0727 348.377 47.4557L347.98 43.8652C347.847 41.4749 347.583 39.4203 347.583 37.7624V36.2977C342.495 37.2233 337.408 37.7827 335.373 37.9861V43.1634C335.271 50.4448 334.765 57.715 333.857 64.9403L332.005 80.4109C332.673 81.7695 333.05 83.252 333.114 84.7643L331.283 85.1915L331.11 86.6765C333.344 87.1957 335.634 87.4349 337.927 87.3885C342.377 87.3546 344.686 87.3546 344.856 87.3885Z" fill="#FFCE00"/>
<path d="M220.915 82.8522L227.376 81.6215C227.376 80.6653 227.172 78.1361 226.765 74.0336C226.494 71.3212 226.358 69.2361 226.358 67.7782C226.358 67.2629 226.375 66.8018 226.409 66.3949L236.452 62.6518C245.236 59.3021 249.628 54.2469 249.628 47.4863C249.688 45.3189 249.169 43.1748 248.124 41.2745C247.08 39.3742 245.548 37.7863 243.686 36.6741C239.96 34.3961 235.649 33.2576 231.283 33.3989C225.361 33.3613 219.468 34.2186 213.802 35.9418C213.996 36.3283 214.199 36.7046 214.372 37.1115C215.463 39.5464 216.081 42.1661 216.194 44.8316L212.378 46.0216C212.235 49.2697 212.035 53.084 211.778 57.4644C211.523 61.889 211.33 65.7643 211.187 69.1412C211.331 70.2952 211.406 71.4568 211.411 72.6198C211.416 74.2071 211.266 75.7912 210.964 77.3495C210.964 77.7665 210.964 78.1937 210.964 78.5802C210.964 81.3468 211.323 83.3438 212.042 84.5711L220.915 82.8522ZM231.344 46.4183C232.141 46.4879 232.884 46.8502 233.43 47.4354C233.749 47.6765 234.014 47.9823 234.207 48.3329C234.4 48.6835 234.517 49.0709 234.549 49.4697C234.549 50.8259 233.413 51.9176 231.141 52.7449C228.183 53.8705 226.487 54.5012 226.053 54.6368L225.748 50.6394C225.67 49.3541 225.448 48.0815 225.086 46.8455C227.163 46.5942 229.252 46.4516 231.344 46.4183Z" fill="#FFCE00"/>
<path d="M290.471 70.3213C290.4 72.3556 290.471 74.3186 290.471 76.1597V83.0762C290.471 83.3406 290.98 83.5644 291.438 83.7577C292.85 84.1432 294.3 84.3784 295.762 84.4595C296.21 84.4595 296.871 84.3069 297.797 84.2561C298.723 84.2052 299.354 84.0526 299.832 84.0526H300.849C301.601 84.054 302.348 84.1812 303.057 84.429C304.075 84.2968 304.614 81.9675 304.746 77.309C304.848 73.0777 304.919 70.1891 304.95 68.7346C305.695 69.755 306.375 70.8218 306.985 71.9284C309.447 76.4716 311.106 79.5501 311.96 81.164L313.548 84.0933C316.177 83.9453 318.787 83.5502 321.342 82.9135L329.085 81.0724C328.983 79.1941 327.223 76.3427 323.804 72.5183L316.529 64.3812C320.904 61.9536 323.987 59.2413 325.778 56.2441C327.569 53.2469 328.464 49.2835 328.464 44.3538C328.464 40.5632 326.501 37.6779 322.573 35.6979C319.154 34.0573 315.396 33.2486 311.604 33.3382C304.346 33.3585 298.156 34.9045 293.035 37.9763C292.967 41.4617 292.404 47.8324 291.346 57.0883C291.092 59.4176 290.888 61.6553 290.715 63.8014V64.0354V64.1167C290.552 66.2426 290.481 68.2768 290.41 70.2196L290.471 70.3213ZM307.127 45.3607C307.715 45.0182 308.392 44.8589 309.071 44.903C310.379 44.8515 311.661 45.2822 312.673 46.1134C313.139 46.5278 313.506 47.0421 313.745 47.6181C313.985 48.194 314.091 48.8166 314.057 49.4394C314.022 50.3596 313.76 51.257 313.295 52.0519C312.83 52.8468 312.176 53.5147 311.391 53.9962C309.943 55.1517 308.155 55.7987 306.303 55.8372C306.649 50.5278 306.924 47.0356 307.127 45.3607Z" fill="#FFCE00"/>
<path d="M170.64 89.2196L170.193 88.772L170.508 89.0975L170.64 89.2196Z" fill="#FFCE00"/>
<path d="M165.156 75.0304C165.207 75.7627 165.359 76.4646 165.359 77.1359C166.377 81.4892 167.852 84.6017 171.007 86.4325C174.161 88.2634 179.014 89.1483 185.638 89.1483C191.648 89.1483 196.597 87.3344 200.483 83.7066C204.37 80.0788 206.314 75.2813 206.314 69.3141C206.314 63.2587 204.523 58.3731 200.941 54.6571C199.13 52.7992 195.793 50.5445 190.929 47.8932C187.348 45.9471 185.557 44.0925 185.557 42.3294C185.556 41.7404 185.691 41.1591 185.95 40.6301C186.209 40.1011 186.587 39.6386 187.052 39.278C187.958 38.4713 189.126 38.0228 190.339 38.0168C191.035 38.0137 191.715 38.2209 192.29 38.6112C192.866 39.0014 193.31 39.5565 193.564 40.2036L195.06 44.1806C210.251 40.8546 207.748 41.8412 210.496 40.7224V40.6206C210.521 40.6231 210.546 40.6306 210.569 40.6429C210.592 40.6551 210.612 40.6717 210.628 40.6918C210.647 38.3027 210.151 35.9374 209.173 33.7574C208.195 31.5773 206.758 29.6337 204.96 28.059C201.42 24.7316 196.725 22.9082 191.865 22.9733C184.926 22.9733 179.343 24.7533 175.117 28.3133C171.434 31.4189 169.005 35.7621 167.832 41.3428C167.751 41.7497 167.69 42.1769 167.618 42.5939C167.547 43.0109 167.456 43.4279 167.405 43.8653C167.7 48.239 170.223 52.5822 173.51 55.6438C175.01 56.9779 176.598 58.2113 178.261 59.336C179.896 60.4413 181.555 61.5466 183.237 62.6518C186.595 64.9099 188.324 66.7204 188.324 68.4699C188.324 71.5213 186.839 72.8334 183.878 72.8334H183.217C182.854 72.7913 182.505 72.666 182.199 72.4672C181.447 71.6126 180.894 70.6016 180.581 69.5074C180.449 69.07 180.245 67.768 179.981 66.7509H171.76C169.368 66.7509 167.333 66.5475 165.655 66.5068C165.129 68.8419 164.907 71.2349 164.993 73.6268C164.993 74.1048 165.064 74.5015 165.095 74.9592L165.156 75.0304Z" fill="#FFCE00"/>
<path d="M210.496 40.8141L210.628 40.6818L210.496 40.7327V40.8141Z" fill="#FFCE00"/>
<path d="M210.496 40.7326L210.628 40.6817C210.612 40.6617 210.592 40.645 210.569 40.6328C210.546 40.6206 210.521 40.613 210.496 40.6105V40.7326Z" fill="#FFCE00"/>
</g>
<defs>
<clipPath id="clip0">
<rect width="353" height="109.078" fill="white" transform="translate(20 21)"/>
</clipPath>
</defs>
</svg>
