<svg id="Layer_1" data-name="Layer 1" xmlns="http://www.w3.org/2000/svg" viewBox="0 0 346.93 107.24"><defs><style>.cls-1{fill:none;}.cls-2{fill:#666;}.cls-3{fill:#21375b;}.cls-4{fill:#ff8654;}.cls-5{fill:#ffce00;}</style></defs><title>ai_codesparkAcademy</title><path class="cls-1" d="M108.07,36.32h-.55s-.06.72-.09,1c-.24,2.44-.45,5.63-.45,9.61v4.89a16.1,16.1,0,0,0,3.34-3.17,14.65,14.65,0,0,0,3.07-4.92,3.21,3.21,0,0,0,.12-.78,5.27,5.27,0,0,0-.09-.92V42a10.38,10.38,0,0,0-2.42-4.6A5.45,5.45,0,0,0,108.07,36.32Z" transform="translate(-14.11 -8.31)"/><path class="cls-1" d="M74.31,38l-.12,0h0a7.44,7.44,0,0,0-2.95-.61q-3.58,0-6.52,3.7a11.87,11.87,0,0,0-2.95,7.38,7.64,7.64,0,0,0,.64,3.3h0l.13.07A8.94,8.94,0,0,0,67.15,53a7.2,7.2,0,0,0,6.2-3.33,11.82,11.82,0,0,0,2.07-7A10.05,10.05,0,0,0,74.78,39,7.83,7.83,0,0,0,74.31,38Z" transform="translate(-14.11 -8.31)"/><path class="cls-1" d="M162.22,75.48l0,0,.35.31.16.14C162.53,75.77,162.37,75.63,162.22,75.48Z" transform="translate(-14.11 -8.31)"/><polygon class="cls-1" points="50.07 97.39 58.55 97.39 54.29 86.43 50.07 97.39"/><polygon class="cls-1" points="128.72 97.39 137.21 97.39 132.95 86.43 128.72 97.39"/><path class="cls-1" d="M184.23,93.16H180.4v19.66h3.83q4.23,0,6.41-2.24t2.19-7.58q0-5.3-2.19-7.58T184.23,93.16Z" transform="translate(-14.11 -8.31)"/><path class="cls-1" d="M60.45,52.24a9.76,9.76,0,0,0,6.7,2.27,8.59,8.59,0,0,0,7.25-3.78,13.24,13.24,0,0,0,2.52-8.06,9.92,9.92,0,0,0-2.07-6.5,7.49,7.49,0,0,0-6.15-2.72q-4.18,0-7.61,4.18a13,13,0,0,0-3.22,8.26A8,8,0,0,0,60.45,52.24Zm2.09-.44-.13-.07h0Z" transform="translate(-14.11 -8.31)"/><path class="cls-1" d="M111.63,49.37c2.26-2.75,3.39-4.8,3.39-6.51a10.64,10.64,0,0,0-3-7c-2-2.3-4.17-3.6-6.42-3.6h-1.71A79.35,79.35,0,0,0,103,44.4v8.91h2.74C107.4,53.31,109.37,52.12,111.63,49.37Z" transform="translate(-14.11 -8.31)"/><path class="cls-1" d="M303.11,36.24A4.07,4.07,0,0,0,301.75,33a5.25,5.25,0,0,0-3.53-1.16,3.36,3.36,0,0,0-1.91.45q-.3,2.47-.86,10.28a8.29,8.29,0,0,0,5-1.81A5.5,5.5,0,0,0,303.11,36.24Z" transform="translate(-14.11 -8.31)"/><path class="cls-1" d="M260,46.7q-.71-3.37-5-11.13a54.2,54.2,0,0,1-.73,5.64,53.82,53.82,0,0,0-.73,5.64l4.18.05A11.88,11.88,0,0,0,260,46.7Z" transform="translate(-14.11 -8.31)"/><path class="cls-1" d="M216.61,41.36q.65-.2,5-1.86Q225,38.24,225,36.27a2.79,2.79,0,0,0-1.1-2,3.18,3.18,0,0,0-2.05-1,59,59,0,0,0-6.16.4,16.93,16.93,0,0,1,.65,3.73Z" transform="translate(-14.11 -8.31)"/><path class="cls-1" d="M130,47.41v0s0,0,0-.06S130,47.38,130,47.41Z" transform="translate(-14.11 -8.31)"/><path class="cls-2" d="M69.58,91.48a1.22,1.22,0,0,0-1.18-.82,1.19,1.19,0,0,0-1.15.82l-8.74,22.1a1.2,1.2,0,0,0-.11.54,1.22,1.22,0,0,0,1.22,1.22,1.18,1.18,0,0,0,1.18-.86l2.61-6.55h10L76,114.51a1.18,1.18,0,0,0,1.18.82,1.21,1.21,0,0,0,.89-.36,1.17,1.17,0,0,0,.36-.86,1.34,1.34,0,0,0-.11-.54ZM64.17,105.7l4.23-11,4.26,11Z" transform="translate(-14.11 -8.31)"/><path class="cls-2" d="M109.19,92.66a7.87,7.87,0,0,1,3.6.84,7.21,7.21,0,0,1,2.63,2.17A1.14,1.14,0,0,0,117.5,95a1.29,1.29,0,0,0-.25-.75,9,9,0,0,0-3.4-2.78,10.56,10.56,0,0,0-4.66-1q-5.34,0-8.26,3.17T98,103q0,12.54,11.17,12.54a11,11,0,0,0,4.69-1,8.24,8.24,0,0,0,3.4-2.76,1.21,1.21,0,0,0,.21-.68,1.13,1.13,0,0,0-.32-.81,1.09,1.09,0,0,0-.82-.34,1.06,1.06,0,0,0-.93.47,6.38,6.38,0,0,1-2.69,2.18,8.6,8.6,0,0,1-3.55.75q-4.3,0-6.48-2.45T100.53,103q0-5.19,2.24-7.77A8.05,8.05,0,0,1,109.19,92.66Z" transform="translate(-14.11 -8.31)"/><path class="cls-2" d="M148.24,91.48a1.22,1.22,0,0,0-1.18-.82,1.19,1.19,0,0,0-1.15.82l-8.74,22.1a1.2,1.2,0,0,0-.11.54,1.22,1.22,0,0,0,1.22,1.22,1.18,1.18,0,0,0,1.18-.86l2.61-6.55h10l2.58,6.59a1.18,1.18,0,0,0,1.18.82,1.21,1.21,0,0,0,.89-.36,1.17,1.17,0,0,0,.36-.86,1.34,1.34,0,0,0-.11-.54Zm-5.41,14.22,4.23-11,4.26,11Z" transform="translate(-14.11 -8.31)"/><path class="cls-2" d="M184.23,90.94h-5.05A1.22,1.22,0,0,0,178,92.16v21.67a1.22,1.22,0,0,0,1.22,1.22h5.05q5.37,0,8.22-2.83T195.3,103q0-6.37-2.85-9.22T184.23,90.94Zm6.41,19.65q-2.19,2.24-6.41,2.24H180.4V93.16h3.83q4.23,0,6.41,2.27t2.19,7.58Q192.83,108.35,190.64,110.59Z" transform="translate(-14.11 -8.31)"/><path class="cls-2" d="M229.9,112.83H219.23V104h7.88a1.11,1.11,0,1,0,0-2.22h-7.88V93.16h10.28a1.11,1.11,0,1,0,0-2.22H218a1.22,1.22,0,0,0-1.22,1.22v21.67A1.22,1.22,0,0,0,218,115H229.9a1.11,1.11,0,1,0,0-2.22Z" transform="translate(-14.11 -8.31)"/><path class="cls-2" d="M272.74,90.66a1.2,1.2,0,0,0-1.07.68L263,107.56l-8.67-16.23a1.11,1.11,0,0,0-1.07-.68,1.16,1.16,0,0,0-.82.34,1.12,1.12,0,0,0-.36.84v22.31a1.18,1.18,0,0,0,2.36,0V96.53l7.49,13.93a1.11,1.11,0,0,0,1.07.68,1.15,1.15,0,0,0,1.08-.68l7.52-13.93v17.62a1.16,1.16,0,0,0,.34.82,1.17,1.17,0,0,0,1.68,0,1.16,1.16,0,0,0,.34-.82V91.84a1.16,1.16,0,0,0-1.18-1.18Z" transform="translate(-14.11 -8.31)"/><path class="cls-2" d="M310.49,90.66a1.15,1.15,0,0,0-1,.57l-6.34,10.17-6.34-10.17a1.16,1.16,0,0,0-1-.57,1.22,1.22,0,0,0-1.22,1.22,1.19,1.19,0,0,0,.18.64l7.2,11.32v10.28a1.22,1.22,0,0,0,2.44,0V103.84l7.2-11.32a1.19,1.19,0,0,0,.18-.64,1.22,1.22,0,0,0-1.22-1.22Z" transform="translate(-14.11 -8.31)"/><path class="cls-3" d="M91.77,68.91l0,0C91.75,68.95,91.76,68.95,91.77,68.91Z" transform="translate(-14.11 -8.31)"/><polygon class="cls-3" points="77.86 61.09 77.86 61.09 77.79 61.01 77.86 61.09"/><path class="cls-3" d="M162.16,75.45c.12.11.25.22.37.32l-.35-.31Z" transform="translate(-14.11 -8.31)"/><path class="cls-1" d="M177.28,54.39c-.22-.17-3.59-2.43-4.17-2.87l0,0,3,2.9.26,1.69c.06.46.11.8.15,1l0,.26a2.37,2.37,0,0,0,1-2.22A2,2,0,0,0,177.28,54.39Z" transform="translate(-14.11 -8.31)"/><path class="cls-1" d="M145.22,36.32c-.05-.81-.07-.53-.07.11C145.16,35.81,145.17,35.56,145.22,36.32Z" transform="translate(-14.11 -8.31)"/><path class="cls-1" d="M164.11,44.23a22.59,22.59,0,0,1-2.56-2.64,39.25,39.25,0,0,1-3.31-5.49,70.87,70.87,0,0,1-11.08,1.22h-1.91s-.06,1.69-.06,1.69c0,.18,5.56,1.1,5.56,1.1l2.38,2.37c0,4.7-.43,8.23-1.34,10.58a13.17,13.17,0,0,1-2.27.71c-3.83.94-6.56,1.48-6.56,1.61v.91c1,.1,3.06.2,4.44.3,4.23.3,6.51,1.09,7,2.37l.25.25h0a25.86,25.86,0,0,1,.71-6.64l1.77-1.17.07-.08h0l15-.16c-3-2.86-7.46-6.34-7.46-6.34Z" transform="translate(-14.11 -8.31)"/><path class="cls-1" d="M155.28,59.59c0,.07,0,.15,0,.23h0c0-.08,0-.16,0-.24Z" transform="translate(-14.11 -8.31)"/><path class="cls-1" d="M14.8,46.44a32,32,0,0,1,4.49-16.8,32,32,0,0,0-4.49,16.8Z" transform="translate(-14.11 -8.31)"/><path class="cls-1" d="M162.89,76.08l.09.08.2.14Z" transform="translate(-14.11 -8.31)"/><path class="cls-1" d="M35.77,36.51A7.62,7.62,0,0,0,33,40.24a12.74,12.74,0,0,0-.86,4.64,9.82,9.82,0,0,0,1,4.69q3,1.77,8.54,2a32.72,32.72,0,0,1-.33-4.66,24.47,24.47,0,0,1,4.23-13.2c.14-.22.29-.44.44-.65a48.49,48.49,0,0,0-4.81,1.24A21.75,21.75,0,0,0,35.77,36.51Z" transform="translate(-14.11 -8.31)"/><path class="cls-1" d="M180,80.32h0q-1.5,0-2.88-.07Q178.46,80.32,180,80.32Z" transform="translate(-14.11 -8.31)"/><polygon class="cls-1" points="304.36 63.39 304.36 63.39 298.82 64.74 304.36 63.39"/><path class="cls-1" d="M193.32,40.07c1,1.13,3.23,3.41,3.23,3.41A20.38,20.38,0,0,1,201,50.28v0c0-1.93.1-4,.23-6.18.17-3.22.18-5.44.25-6.65l.17-4s-12.68,2.93-13,3A35.24,35.24,0,0,1,193.32,40.07Z" transform="translate(-14.11 -8.31)"/><path class="cls-1" d="M185.44,33.36s-.06,0,0,0L184.24,31l-.38-.74s-1.93,1-2,2.14h0c.3.22,4.78,2.63,6.26,3.59l-.67-.67Z" transform="translate(-14.11 -8.31)"/><path class="cls-1" d="M185.43,33.34l0,0S185.49,33.34,185.43,33.34Z" transform="translate(-14.11 -8.31)"/><path class="cls-3" d="M355.09,61q-3.17-4.79-7-10.33,3.12-8.16,12.44-22.67l-2.42-2.42L348,22.16c-1.93-.21-4.08,2.1-8.08,6.74V24.27l-2.17-2.76-5.33.81h0s-6.2,1-9.15,1.15l-1.58.12h0l.07.55c0,.28,0,.56,0,.82a22.08,22.08,0,0,1,.13,2.58v2.57a187.76,187.76,0,0,1-1.25,21.26l-1.46,13.11a34.06,34.06,0,0,0-3.05-3.89l-6-6.7a22.44,22.44,0,0,0,8.57-8.31q2.42-4.58,2.42-11.74a9.52,9.52,0,0,0-2.92-7.15L317,25.52a12,12,0,0,0-3.44-3.24c-.45-.29-.93-.57-1.44-.84s-1.09-.52-1.65-.75A26,26,0,0,0,300.69,19a37.47,37.47,0,0,0-19.75,5.14q-.1,5.89-1.66,19.5c-.15,1.27-.27,2.5-.39,3.72q-5.39-12.7-11.9-25.7l-2.17-2.17a1.72,1.72,0,0,1-.25-.5h-.11l-2.13.1-6.13.18c-2.79.13-4.92.08-6.4.08h-1l-4,.07c0,.11-.07.29-.1.4v.06c-.4,1.29-.79,2.63-1.16,4q-.85,3.13-1.61,6.53a24.26,24.26,0,0,0-2.11-3.21l-.78-1.3C235.63,21,229.74,19,221.75,19a61,61,0,0,0-17.92,2.68,17.35,17.35,0,0,0-3-3.78l-1-.91a21.42,21.42,0,0,0-5.42-5.38A19.87,19.87,0,0,0,183,8.31q-11.08,0-17.8,5.74a21.4,21.4,0,0,0-4.44,5.28,24.53,24.53,0,0,0-1.49,2.95l-2-1.91s-8.88-1-14.06-1H129.43c-.08,0-1,5.38-1,5.38-.43,2.72-.79,5.26-1.11,7.67-.11.81-.21,1.62-.31,2.4a22.9,22.9,0,0,0-4.62-6.68l-.81-.81q-.71-.81-2.82-2.92a23.24,23.24,0,0,0-2.13-1.73h0q-7.29-5.27-19.08-5.27-.71,0-2.17.15l-.69.07a1.48,1.48,0,0,1-.47-.09c-.13,0-.32-.17-.55-.17H92s0,1,0,2.18l.15,7.16c0,1.88,0,4.27-.1,7.07.25.53.25.56,0,0A21.2,21.2,0,0,0,88,27.82L87.11,27a19.39,19.39,0,0,0-4.63-4.24Q76.77,19,68.06,19a17.79,17.79,0,0,0-3.25.31,24.39,24.39,0,0,0-9.55,4.28,35.5,35.5,0,0,0-6.79,6.2c-.16.2,1.47-3.61,1.81-4.55l1.06-2.9a24.13,24.13,0,0,0-2.87-3.42q-2-3.22-8.41-3.22-11.34,0-19,10.33a34.11,34.11,0,0,0-7,20.71,22.12,22.12,0,0,0,3.77,12.6h0A24.62,24.62,0,0,0,20.1,62.2a20.34,20.34,0,0,0,2.72,2.57l.71.71A21.85,21.85,0,0,0,26.59,68a19.19,19.19,0,0,0,11.14,3.39q5.61,0,12.3-4.85l0,0,.61.61a24.64,24.64,0,0,0,4,3.23q6.64,4.33,16.13,4.33a23,23,0,0,0,17.38-7.51,47.12,47.12,0,0,0,3.42-4.5s.22,5.06.22,5.06a5.24,5.24,0,0,1,0,1.13c0,.06,2.57,3,2.57,3a75.76,75.76,0,0,0,9.61,1.21A24.66,24.66,0,0,0,122,65.52c.34-.34,2.73-3.11,3.46-4.2l-.32,9.63,2.66,2.83c3.86.4,6.05.6,6.49.6l22.66-.5v-4a12.56,12.56,0,0,0,3.6,3.94l1.17,1.19.43.51h0l0,0c.15.15.31.29.47.43l-.16-.14.3.26.15.12-.09-.08.29.22-.2-.14q5.08,4.2,17.17,4.19c6.3,0,11.16-1.62,15.37-5.57l.34-.44a19.17,19.17,0,0,0,4.6-6.37,11.29,11.29,0,0,0,1.43,4.48,4.69,4.69,0,0,0,1.1,1.33c.39.31,1.67,1.09,1.67,1.09s1.73-.32,5-1L221.8,71.6c0-1.88-.11-4.8-.51-8.77a58.62,58.62,0,0,1-.31-6v-.35c8.5-3,17.11-7.06,18-8.85L236.05,68a1.94,1.94,0,0,1,.36.15l.19.1,2.06,2.11.05.05a30.42,30.42,0,0,0,9.87,3.12l2,.3q1.06.15,3.17.5a28.58,28.58,0,0,0,2.07-8.51q.6-4.84,1.06-5.29a34.75,34.75,0,0,1,4.54-.78l.2,0h0q1.06,2,2.31,4.23l4.94,8.82,2.72,2.42L279.39,71h0l1.29,1.27c1.38,1.41,3.66,2,6.85,2,0,0,5.41.3,7.18.43,2.12-.34,3.25-3.14,3.25-8.41V64.8a.1.1,0,0,0,0,.06c1.41,2.75,2.65,5.11,3.79,7.05l2.6,2.37A47.74,47.74,0,0,0,313.09,73l5.37-1.27-.25,2.19,2.67,2.42a31.63,31.63,0,0,0,6.89,1c.44,0,.88,0,1.32,0h2.34a47.14,47.14,0,0,1,5.32.19,14.55,14.55,0,0,0,1.26-6c0-.81-.22-3.91-.22-3.91l0-.37,0,.06q.7,1.44,1.74,3.42l1.88,3.56,0,0s0,0,0,0l0,.07h0l2.59,2.33A84.8,84.8,0,0,1,352.37,75L361,73.59Q360.69,69.51,355.09,61ZM14.8,46.44h0a32,32,0,0,1,4.49-16.8A32,32,0,0,0,14.8,46.44ZM45.59,33.71a24.47,24.47,0,0,0-4.23,13.2,32.72,32.72,0,0,0,.33,4.66q-5.51-.26-8.54-2a9.82,9.82,0,0,1-1-4.69A12.74,12.74,0,0,1,33,40.24a7.62,7.62,0,0,1,2.72-3.73,21.75,21.75,0,0,1,5.44-2.22A48.49,48.49,0,0,1,46,33.06C45.88,33.27,45.73,33.49,45.59,33.71Zm27.76,16A7.2,7.2,0,0,1,67.15,53a8.94,8.94,0,0,1-4.61-1.19l-.13-.07h0a7.64,7.64,0,0,1-.64-3.3A11.87,11.87,0,0,1,64.71,41q2.95-3.7,6.52-3.7a7.44,7.44,0,0,1,2.95.61h0l.12,0a7.83,7.83,0,0,1,.47,1,10.05,10.05,0,0,1,.64,3.69A11.82,11.82,0,0,1,73.35,49.68ZM118.52,62a23.36,23.36,0,0,1-17.1,7.18,63.57,63.57,0,0,1-8.26-1q0-.5-.15-3.32-.1-1.92-.1-3.27c0-.44,0-.91,0-1.4a25.65,25.65,0,0,0,2.21-10.65,41.46,41.46,0,0,0-1.6-12.09c.13-4.48.19-8.07.19-10.72s-.05-5.24-.15-7.66a8.35,8.35,0,0,0,2-.05q1.56-.15,2-.15,12.7,0,20.2,6.6,7.91,6.9,7.91,19.45A23.36,23.36,0,0,1,118.52,62Zm26.7-25.7c0-.76-.06-.5-.07.11C145.15,35.78,145.17,35.5,145.22,36.32Zm10.06,23.5c0-.08,0-.16,0-.23h0c0,.08,0,.16,0,.24Zm2-8.5h0l-.07.08-1.77,1.17a25.86,25.86,0,0,0-.71,6.64h0l-.25-.25c-.5-1.28-2.78-2.07-7-2.37-1.38-.1-3.44-.2-4.44-.3v-.91c0-.13,2.73-.67,6.56-1.61a13.17,13.17,0,0,0,2.27-.71c.91-2.35,1.34-5.88,1.34-10.58l-2.38-2.37s-5.56-.92-5.56-1.1c0,0,0-1.69.06-1.69h1.91a70.87,70.87,0,0,0,11.08-1.22,39.25,39.25,0,0,0,3.31,5.49,22.59,22.59,0,0,0,2.56,2.64l.65.59s4.48,3.49,7.46,6.34Zm19.29,6.14,0-.26c0-.24-.09-.59-.15-1l-.26-1.69-3-2.9,0,0c.58.43,4,2.7,4.17,2.87a2,2,0,0,1,.26.85A2.37,2.37,0,0,1,176.56,57.46ZM180,80.32q-1.49,0-2.88-.07,1.39.07,2.88.07Zm1.89-47.89h0c.09-1.09,2-2.13,2-2.14l.38.74,1.19,2.33c.06,0,0,0,0,0l2,2,.67.67C186.62,35.06,182.15,32.65,181.84,32.43Zm19.6,5c-.07,1.21-.08,3.43-.25,6.65-.13,2.2-.23,4.25-.23,6.18v0a20.38,20.38,0,0,0-4.42-6.81s-2.24-2.28-3.23-3.41a35.24,35.24,0,0,0-4.69-3.66c.31,0,13-3,13-3Zm25.39,11.84L217,53q-.05.6-.05,1.36,0,2.12.4,6.15.6,6,.6,7.46l-6.35,1.21-8.72,1.71Q201.8,69,201.8,64.95c0-.38,0-.8,0-1.21a24,24,0,0,0,.44-4.65,28.67,28.67,0,0,0-.22-3.42c.13-3.31.32-7.13.58-11.48s.44-8.05.59-11.25l3.75-1.17a20.71,20.71,0,0,0-1.79-7.59c-.17-.4-.37-.77-.56-1.15a57.76,57.76,0,0,1,17.16-2.52,22,22,0,0,1,12.19,3.22,12,12,0,0,1,5.84,10.63Q239.78,44.34,226.84,49.28Zm51.6,4.07-.1-.23c-.19,3-.36,5.83-.36,8.47v1l0,3.72h0v0l-8.42,4.54-4.3-7.61a84.09,84.09,0,0,1-3.92-7.76c-.13,0-1.54.22-4.23.55q-3.22.4-3.72,1.06-.71.76-1.41,6-.76,5.89-1.46,7.2l-5-.81a25.07,25.07,0,0,1-7.81-2.37l3.11-21.68a14.06,14.06,0,0,0,2.84-8.55,12.89,12.89,0,0,0-.7-4.2,111.33,111.33,0,0,1,3-11.67l2.87.05q1.16,0,3.17-.05l4.28-.15,7.41-.35q8.46,16.81,14.75,32.61l0,.1Zm24.17,17L301,67.49q-1.26-2.37-4.89-9.07a29.35,29.35,0,0,0-2-3.12q-.05,2.22-.2,8.46c-.13,4.57-.69,6.8-1.66,6.93a6.62,6.62,0,0,0-2.17-.37h-1c-.44,0-1.09.15-2,.2s-1.53.14-2,.14c-1.73,0-5.2-1-5.2-1.3V53.24c.05-.87.11-1.75.18-2.66l0-.23c.17-2.11.37-4.31.62-6.6q1.56-13.65,1.66-18.79,7.51-4.48,18.24-4.48a23.62,23.62,0,0,1,10.78,2.32q5.79,2.92,5.79,8.51,0,7.31-2.64,11.69t-9.09,8l7.15,8q5,5.64,5.19,8.41l-7.61,1.81A41.27,41.27,0,0,1,302.6,70.36Zm15.87,1.34-5.54,1.35,5.54-1.35Z" transform="translate(-14.11 -8.31)"/><path class="cls-3" d="M233.94,23.73a22,22,0,0,0-12.19-3.22A57.76,57.76,0,0,0,204.58,23c.19.38.39.75.56,1.15a20.71,20.71,0,0,1,1.79,7.59l-3.75,1.17q-.21,4.79-.59,11.25c-.25,4.35-.44,8.16-.58,11.48a28.67,28.67,0,0,1,.22,3.42,24,24,0,0,1-.44,4.65c0,.41,0,.83,0,1.21q0,4.08,1.06,5.89l8.72-1.71,6.35-1.21q0-1.41-.6-7.46-.4-4-.4-6.15,0-.76.05-1.36l9.87-3.68q12.95-4.94,12.95-14.91A12,12,0,0,0,233.94,23.73ZM221.62,39.5q-4.36,1.66-5,1.86l-.3-3.93a16.93,16.93,0,0,0-.65-3.73,59,59,0,0,1,6.16-.4,3.18,3.18,0,0,1,2.05,1,2.79,2.79,0,0,1,1.1,2Q225,38.24,221.62,39.5Z" transform="translate(-14.11 -8.31)"/><path class="cls-3" d="M312.68,59l-7.15-8q6.45-3.58,9.09-8t2.64-11.69q0-5.59-5.79-8.51a23.62,23.62,0,0,0-10.78-2.32Q290,20.48,282.45,25q-.1,5.14-1.66,18.79c-.25,2.29-.45,4.49-.62,6.6l0,.23c-.07.9-.13,1.79-.18,2.66V69.35c0,.28,3.47,1.3,5.2,1.3.44,0,1.09-.09,2-.14s1.53-.2,2-.2h1a6.62,6.62,0,0,1,2.17.37c1-.13,1.53-2.36,1.66-6.93q.15-6.25.2-8.46a29.35,29.35,0,0,1,2,3.12q3.63,6.7,4.89,9.07l1.56,2.87a41.27,41.27,0,0,0,7.66-1.16l7.61-1.81Q317.72,64.61,312.68,59ZM300.49,40.73a8.29,8.29,0,0,1-5,1.81q.55-7.81.86-10.28a3.36,3.36,0,0,1,1.91-.45A5.25,5.25,0,0,1,301.75,33a4.07,4.07,0,0,1,1.36,3.27A5.5,5.5,0,0,1,300.49,40.73Z" transform="translate(-14.11 -8.31)"/><path class="cls-3" d="M107,46.8v0c0-.1,0-.21,0-.31C107,46.61,107,46.71,107,46.8Z" transform="translate(-14.11 -8.31)"/><path class="cls-3" d="M117.79,25.46q-7.51-6.6-20.2-6.6-.45,0-2,.15a8.35,8.35,0,0,1-2,.05q.15,3.63.15,7.66c0,2.65-.07,6.24-.19,10.72a41.46,41.46,0,0,1,1.6,12.09,25.65,25.65,0,0,1-2.21,10.65c0,.49,0,1,0,1.4q0,1.36.1,3.27.15,2.82.15,3.32a63.57,63.57,0,0,0,8.26,1A23.36,23.36,0,0,0,118.52,62a23.36,23.36,0,0,0,7.18-17.1Q125.7,32.36,117.79,25.46Zm-6.16,24c-2.26,2.75-4.23,3.9-5.92,3.9H103V44.4a79.35,79.35,0,0,1,.86-12.09h1.71c2.25,0,4.39,1.24,6.42,3.54a10.68,10.68,0,0,1,3,7C115,44.54,113.89,46.66,111.63,49.41Z" transform="translate(-14.11 -8.31)"/><path class="cls-3" d="M105.55,32.32h-1.71A79.35,79.35,0,0,0,103,44.4v8.91h2.74c1.69,0,3.66-1.15,5.92-3.9S115,44.54,115,42.83a10.68,10.68,0,0,0-3-7C109.94,33.56,107.8,32.32,105.55,32.32ZM107,46.8c0-.1,0-.19,0-.29,0,.1,0,.21,0,.31ZM113.41,42a5.27,5.27,0,0,1,.09.92,3.21,3.21,0,0,1-.12.78,14.65,14.65,0,0,1-3.07,4.92A16.1,16.1,0,0,1,107,51.81V46.92c0-4,.21-7.17.45-9.61,0-.28.06-1,.09-1h.55a5.45,5.45,0,0,1,2.92,1,10.38,10.38,0,0,1,2.42,4.6Z" transform="translate(-14.11 -8.31)"/><path class="cls-3" d="M263.66,20.51l-7.41.35L252,21q-2,.05-3.17.05L245.93,21a111.33,111.33,0,0,0-3,11.67,12.89,12.89,0,0,1,.7,4.2,14.06,14.06,0,0,1-2.84,8.55l-3.11,21.68a25.07,25.07,0,0,0,7.81,2.37l5,.81q.71-1.31,1.46-7.2.71-5.24,1.41-6,.5-.65,3.72-1.06c2.69-.33,4.09-.52,4.23-.55a84.09,84.09,0,0,0,3.92,7.76l4.3,7.61L278,66.31v0h0l0-3.72v-1c0-2.64.17-5.47.36-8.47l.1.23v-.13l0-.1Q272.12,37.32,263.66,20.51Zm-6,26.4-4.18-.05a53.82,53.82,0,0,1,.73-5.64,54.2,54.2,0,0,0,.73-5.64q4.33,7.76,5,11.13A11.88,11.88,0,0,1,257.67,46.91Z" transform="translate(-14.11 -8.31)"/><path class="cls-3" d="M254.22,41.22a53.82,53.82,0,0,0-.73,5.64l4.18.05a11.88,11.88,0,0,0,2.32-.2q-.71-3.37-5-11.13A54.2,54.2,0,0,1,254.22,41.22Z" transform="translate(-14.11 -8.31)"/><path class="cls-3" d="M221.82,33.31a59,59,0,0,0-6.16.4,16.93,16.93,0,0,1,.65,3.73l.3,3.93q.65-.2,5-1.86Q225,38.25,225,36.28a2.79,2.79,0,0,0-1.1-2A3.18,3.18,0,0,0,221.82,33.31ZM220,38.49v.32l0-.32h0v-.1s0,0,0,0V38s0,0,0-.07h0s0-.06,0-.09,0-.09,0-.13a1.5,1.5,0,0,0,0-.26c.64,0,1.58-.1,2.8-.19h.18A19.24,19.24,0,0,1,220,38.49Z" transform="translate(-14.11 -8.31)"/><path class="cls-3" d="M298.22,31.82a3.36,3.36,0,0,0-1.91.45q-.3,2.47-.86,10.28a8.29,8.29,0,0,0,5-1.81,5.5,5.5,0,0,0,2.62-4.48A4.07,4.07,0,0,0,301.75,33,5.25,5.25,0,0,0,298.22,31.82ZM302,36.15c0,1.07-.83,2.1-2,3.08l-.23.2c0-.32.06-.73.11-1.19s.2-2,.25-2.49A2.75,2.75,0,0,1,302,36Z" transform="translate(-14.11 -8.31)"/><path class="cls-3" d="M185.44,33.36l0,0S185.42,33.36,185.44,33.36Z" transform="translate(-14.11 -8.31)"/><path class="cls-4" d="M35.22,67.54q5.08,0,11.33-4.46a22.48,22.48,0,0,1-4.61-10,22.9,22.9,0,0,1-8.09-1.45q-5.54-2.42-5.54-9.27a14,14,0,0,1,1-5.24,9,9,0,0,1,3.17-4.23,24.07,24.07,0,0,1,5.39-2.27,35.11,35.11,0,0,1,5.74-1.51,45.25,45.25,0,0,0,2.77-6.55l1-2.72q-1-2.62-7.31-2.62-10.63,0-17.78,9.72a32.63,32.63,0,0,0-6.65,19.8,20.9,20.9,0,0,0,5.54,14.56A18.17,18.17,0,0,0,35.22,67.54Z" transform="translate(-14.11 -8.31)"/><path class="cls-4" d="M93.15,68.18a63.57,63.57,0,0,0,8.26,1A23.36,23.36,0,0,0,118.52,62a23.36,23.36,0,0,0,7.18-17.1q0-12.55-7.91-19.45-7.51-6.6-20.2-6.6-.45,0-2,.15a8.35,8.35,0,0,1-2,.05q.15,3.63.15,7.66c0,2.65-.07,6.24-.19,10.72a41.46,41.46,0,0,1,1.6,12.09,25.65,25.65,0,0,1-2.21,10.65c0,.49,0,1,0,1.4q0,1.36.1,3.27Q93.15,67.67,93.15,68.18ZM103,47.12V44.4a79.35,79.35,0,0,1,.86-12.09h1.71c2.25,0,4.39,1.3,6.42,3.6a10.64,10.64,0,0,1,3,7c0,1.71-1.13,3.75-3.39,6.51s-4.23,3.94-5.92,3.94H103Z" transform="translate(-14.11 -8.31)"/><path class="cls-4" d="M153,70V59.5c0-.64-1.91-1.12-5.84-1.46-3.66-.3-6.16-.52-8.16-.65V51.82a7.26,7.26,0,0,1,1.93-.5l2.7-.6a33.79,33.79,0,0,0,4.58-1.2,24.69,24.69,0,0,0,1.05-8.33l-8.06-1.1c.1-3.08.18-5.77.25-6.77h3.22a62,62,0,0,0,10.43-1.06l.71-11a73.66,73.66,0,0,0-12.49-.93H130.74a43.48,43.48,0,0,1-.76,4.56c-.81,4.21-1.41,8.54-1.84,12.75-.38,3.3-.61,7.73-.68,10l-.35,10.92L126.71,70c3,.3,4.61.45,5,.45ZM130,47.41s0-.05,0-.08,0,0,0,.06Z" transform="translate(-14.11 -8.31)"/><path class="cls-4" d="M42.87,46.9a29.59,29.59,0,0,0,.18,4.55c0,.23.22,1.38.28,1.64a21.49,21.49,0,0,0,6.6,11.54c.36.33.77.62,1.15.91l.15.11h0c4.41,3.43,10.08,5.17,17,5.17a21.65,21.65,0,0,0,16.38-7.1A23.43,23.43,0,0,0,91.24,47q0-12.34-5.29-19Q80.05,20.5,68.06,20.5q-5.85,0-11.84,4.23A34,34,0,0,0,47,34.36,23.09,23.09,0,0,0,42.87,46.9Zm18.24-9.27q3.43-4.18,7.61-4.18a7.49,7.49,0,0,1,6.15,2.72,9.92,9.92,0,0,1,2.07,6.5,13.24,13.24,0,0,1-2.52,8.06,8.59,8.59,0,0,1-7.25,3.78,9.76,9.76,0,0,1-6.7-2.27,8,8,0,0,1-2.57-6.35A13,13,0,0,1,61.11,37.63Z" transform="translate(-14.11 -8.31)"/><path class="cls-4" d="M62.55,51.81l-.13-.08h0Z" transform="translate(-14.11 -8.31)"/><path class="cls-5" d="M261.65,59.71h0l-.2,0Z" transform="translate(-14.11 -8.31)"/><path class="cls-5" d="M237.72,67.11a25.07,25.07,0,0,0,7.81,2.37l5,.81q.71-1.31,1.46-7.2.71-5.24,1.41-6,.5-.65,3.73-1.06,4-.5,4.23-.55a84.4,84.4,0,0,0,3.93,7.76l4.33,7.61,8.46-4.57-.1-3.72v-1c0-2.64.17-5.47.36-8.47-4.19-10.54-9.07-21.41-14.71-32.61l-7.39.35L252,21c-1.34,0-2.4.05-3.17.05L245.93,21a111.35,111.35,0,0,0-3,11.67,12.89,12.89,0,0,1,.7,4.2,14.06,14.06,0,0,1-2.84,8.55Zm16.5-25.9a54.2,54.2,0,0,0,.73-5.64q4.33,7.76,5,11.13a11.88,11.88,0,0,1-2.32.2l-4.18-.05A53.82,53.82,0,0,1,254.22,41.21Z" transform="translate(-14.11 -8.31)"/><path class="cls-5" d="M337.79,67.71v-.32l0-.06Z" transform="translate(-14.11 -8.31)"/><path class="cls-5" d="M333.38,73.58c1-1.89.74-5.73.71-6.2l-.35-4.94a28.81,28.81,0,0,1,.55-6.35q3.33,7.81,8,16.52,3.07-.81,7.41-1.51l7.41-1.21q-.2-2.37-5.64-10.68-4.18-6.4-7.31-10.93,3.12-8.56,11.84-22.07l-8.11-2.77q-2.92,0-11,13.4,0-1.61-.05-2.52l-.39-3.53c-.13-2.35-.39-4.37-.39-6V23.35c-5,.91-10,1.46-12,1.66V30.1a193.3,193.3,0,0,1-1.49,21.41l-1.82,15.21A10.73,10.73,0,0,1,321.84,71l-1.8.42-.17,1.46a27.16,27.16,0,0,0,6.7.7Q333.13,73.53,333.38,73.58Z" transform="translate(-14.11 -8.31)"/><path class="cls-5" d="M211.57,69.12l6.35-1.21q0-1.41-.6-7.46-.4-4-.4-6.15,0-.76.05-1.36l9.87-3.68q12.95-4.94,12.95-14.91a12,12,0,0,0-5.84-10.63,22,22,0,0,0-12.19-3.22A57.76,57.76,0,0,0,204.58,23c.19.38.39.75.56,1.15a20.71,20.71,0,0,1,1.79,7.59l-3.75,1.17q-.21,4.79-.59,11.25c-.25,4.35-.44,8.16-.58,11.48a28.67,28.67,0,0,1,.22,3.42,24,24,0,0,1-.44,4.65c0,.41,0,.83,0,1.21q0,4.08,1.06,5.89ZM221.82,33.3a3.18,3.18,0,0,1,2.05,1,2.79,2.79,0,0,1,1.1,2q0,2-3.35,3.22-4.36,1.66-5,1.86l-.3-3.93a16.93,16.93,0,0,0-.65-3.73A59,59,0,0,1,221.82,33.3Z" transform="translate(-14.11 -8.31)"/><path class="cls-5" d="M279.93,56.8c-.07,2,0,3.93,0,5.74v6.8c0,.26.5.48.95.67a20.44,20.44,0,0,0,4.25.69c.44,0,1.09-.15,2-.2s1.53-.2,2-.2h1a6.62,6.62,0,0,1,2.17.37c1-.13,1.53-2.42,1.66-7,.1-4.16.17-7,.2-8.43a29.35,29.35,0,0,1,2,3.14q3.63,6.7,4.89,9.08l1.56,2.88a41.26,41.26,0,0,0,7.66-1.16l7.61-1.81q-.15-2.77-5.19-8.41l-7.15-8q6.45-3.58,9.09-8t2.64-11.69q0-5.59-5.79-8.51a23.62,23.62,0,0,0-10.78-2.32Q290,20.47,282.45,25q-.1,5.14-1.66,18.79c-.25,2.29-.45,4.49-.62,6.6l0,.23,0,.08c-.16,2.09-.23,4.09-.3,6ZM296.3,32.26a3.36,3.36,0,0,1,1.91-.45A5.25,5.25,0,0,1,301.75,33a4.07,4.07,0,0,1,1.36,3.27,5.5,5.5,0,0,1-2.62,4.48,8.29,8.29,0,0,1-5,1.81Q296,34.73,296.3,32.26Z" transform="translate(-14.11 -8.31)"/><path class="cls-5" d="M162.16,75.38l-.44-.44.31.32Z" transform="translate(-14.11 -8.31)"/><path class="cls-5" d="M156.77,61.43c.05.72.2,1.41.2,2.07,1,4.28,2.45,7.34,5.55,9.14s7.87,2.67,14.38,2.67q8.86,0,14.59-5.35t5.73-14.15q0-8.93-5.28-14.41-2.67-2.74-9.84-6.65-5.28-2.87-5.28-5.47a3.79,3.79,0,0,1,1.47-3,4.89,4.89,0,0,1,3.23-1.24,3.39,3.39,0,0,1,3.17,2.15l1.47,3.91c14.93-3.27,12.47-2.3,15.17-3.4V27.6a.19.19,0,0,1,.13.07,16.34,16.34,0,0,0-5.57-12.42,18.43,18.43,0,0,0-12.87-5q-10.23,0-16.46,5.25-5.43,4.58-7.16,12.81c-.08.4-.14.82-.21,1.23s-.16.82-.21,1.25c.29,4.3,2.77,8.57,6,11.58A44.77,44.77,0,0,0,169.65,46q2.41,1.63,4.89,3.26c3.3,2.22,5,4,5,5.72,0,3-1.46,4.29-4.37,4.29h-.65a2.33,2.33,0,0,1-1-.36A7.55,7.55,0,0,1,171.93,56c-.13-.43-.33-1.71-.59-2.71h-8.08c-2.35,0-4.35-.2-6-.24a27.41,27.41,0,0,0-.65,7c0,.47.07.86.1,1.31Z" transform="translate(-14.11 -8.31)"/><path class="cls-5" d="M201.33,27.79l.13-.13-.13.05Z" transform="translate(-14.11 -8.31)"/><path class="cls-5" d="M201.33,27.71l.13-.05a.19.19,0,0,0-.13-.07Z" transform="translate(-14.11 -8.31)"/></svg>