<svg width="35" height="35" viewBox="0 0 35 35" fill="none" xmlns="http://www.w3.org/2000/svg">
<path fill-rule="evenodd" clip-rule="evenodd" d="M17.5 35C27.165 35 35 27.165 35 17.5C35 7.83502 27.165 0 17.5 0C7.83502 0 0 7.83502 0 17.5C0 27.165 7.83502 35 17.5 35ZM15.47 15.3329V13.3248C15.47 13.3174 15.47 13.3091 15.4699 13.3C15.4683 12.859 15.4597 10.5 18.566 10.5H20.8046V13.0565H19.1596C18.8329 13.0565 18.5033 13.3933 18.5033 13.6456V15.3227H20.8017C20.7098 16.6104 20.5187 17.7873 20.5187 17.7873H18.4917V25.0833H15.47V17.7873H14V15.3329H15.47Z" fill="white"/>
</svg>
