<?xml version="1.0" encoding="utf-8"?>
<!-- Generator: Adobe Illustrator 20.1.0, SVG Export Plug-In . SVG Version: 6.00 Build 0)  -->
<svg version="1.1" id="Layer_1" xmlns="http://www.w3.org/2000/svg" xmlns:xlink="http://www.w3.org/1999/xlink" x="0px" y="0px"
	 viewBox="0 0 473.7 249.8" style="enable-background:new 0 0 473.7 249.8;" xml:space="preserve">
<style type="text/css">
	.st0{opacity:0.2;}
	.st1{fill:none;stroke:#000000;stroke-width:6.25;stroke-linecap:round;stroke-linejoin:round;stroke-miterlimit:10;}
	.st2{fill:#46C8F5;}
	.st3{fill:#54A7DC;}
	.st4{fill:none;stroke:#000000;stroke-width:0.75;stroke-linecap:round;stroke-linejoin:round;stroke-miterlimit:10;}
	.st5{fill:#FFFFFF;}
	.st6{fill:#BFC1CA;}
	.st7{fill:#45C7F4;stroke:#000000;stroke-width:1.033;stroke-linecap:round;stroke-linejoin:round;stroke-miterlimit:10;}
	.st8{opacity:0.45;fill:#54A7DC;}
	.st9{fill:#FFFFFF;stroke:#000000;stroke-width:1.1225;stroke-miterlimit:10;}
	.st10{fill:#C7D8EA;}
	.st11{fill:#5A90C6;}
	.st12{fill:none;stroke:#000000;stroke-width:0.855;stroke-linecap:round;stroke-linejoin:round;stroke-miterlimit:10;}
	.st13{fill:none;stroke:#000000;stroke-width:0.8884;stroke-linecap:round;stroke-linejoin:round;stroke-miterlimit:10;}
	.st14{fill:#ED4087;}
	.st15{fill:#AA3378;}
	.st16{fill:none;stroke:#EB2227;stroke-width:0.25;stroke-linecap:round;stroke-linejoin:round;stroke-miterlimit:10;}
	.st17{fill:#F5EB0E;}
	.st18{fill:#F5AE1B;}
	.st19{fill:#FCEE21;}
	.st20{fill:none;stroke:#000000;stroke-width:6;stroke-linecap:round;stroke-linejoin:round;stroke-miterlimit:10;}
	.st21{fill:#545246;}
	.st22{opacity:0.5;fill:#FFFFFF;}
	.st23{fill:#302614;}
	.st24{fill:#8C8C8B;}
	.st25{fill:#050505;}
	.st26{fill:#F5AE1B;stroke:#302614;stroke-width:0.7299;stroke-miterlimit:10;}
	.st27{fill:#F5EB0E;stroke:#050505;stroke-width:0.7299;stroke-miterlimit:10;}
	.st28{fill:#F5AE1B;stroke:#302614;stroke-width:0.811;stroke-miterlimit:10;}
</style>
<path class="st0" d="M222.5,207.9c8.8-1.7,13.3-3.8,13.3-6.2c0-2.6-5.8-5-17.6-7c-0.9-0.1-1.7-0.2-2.6-0.3c-4-0.6-8.2-1.1-12.6-1.5
	c-4.7-0.3-9.5-0.7-14.6-0.8c-4.1-0.2-8.3-0.2-12.8-0.2c-4.3,0-8.4,0-12.3,0.2c-4.2,0.1-8.2,0.3-12,0.6c-6.7,0.4-12.8,1.2-18.3,2
	c-11.8,2-17.7,4.4-17.7,7c0,2.7,5.9,5,17.7,7c11.7,1.9,26,2.8,42.6,2.8c16.7,0,30.9-0.9,42.6-2.8
	C219.7,208.4,221.1,208.2,222.5,207.9z"/>
<path class="st0" d="M419,218.5c8.8-1.7,13.3-3.8,13.3-6.2c0-2.6-5.8-5-17.6-7c-0.9-0.1-1.7-0.2-2.6-0.3c-4-0.6-8.2-1.1-12.6-1.5
	c-4.7-0.3-9.5-0.7-14.6-0.8c-4.1-0.2-8.3-0.2-12.8-0.2c-4.3,0-8.4,0-12.3,0.2c-4.2,0.1-8.2,0.3-12,0.6c-6.7,0.4-12.8,1.2-18.3,2
	c-11.8,2-17.7,4.4-17.7,7c0,2.7,5.9,5,17.7,7c11.7,1.9,26,2.8,42.6,2.8c16.7,0,30.9-0.9,42.6-2.8C416.2,219,417.6,218.8,419,218.5z"
	/>
<g>
	<g>
		<path class="st1" d="M399.3,164.2v1.3c0,0.1,0,0.2,0,0.3C399.3,165.2,399.3,164.7,399.3,164.2z"/>
		<path class="st1" d="M399.3,164.2V159C399.1,161.2,399.2,162.6,399.3,164.2z"/>
		<path class="st1" d="M382.9,187.9L382.9,187.9l-0.4,0.1C382.6,188,382.7,187.9,382.9,187.9l-0.3,5.6l-1,14.3c-0.1,1,0.3,2,1.2,2.7
			c0.7,0.9,1.7,1.3,2.9,1.3c1.1,0,2.1-0.4,3-1.3c0.7-0.7,1.1-1.7,1.1-2.7l-1-16.4l-0.3-4.2l-4.2,0.5c0.8-0.1,1.7-0.3,2.5-0.4
			l-2.8,0.4L382.9,187.9z"/>
		<path class="st1" d="M388.8,187c-0.7,0.1-1.3,0.2-2,0.3L388.8,187z"/>
		<path class="st1" d="M462,129.6c0-0.3,0.1-0.5,0.1-0.8c0.2-1.2,0.4-2.1,0.4-2.1l0,0c0-0.2,0-0.4,0-0.7c0,0,0,0,0-0.1
			c0-0.5-0.1-0.9-0.3-1.4c0,0,0-0.1,0-0.1c-0.1-0.2-0.2-0.4-0.3-0.5c0,0-0.1-0.1-0.1-0.1c-0.3-0.4-0.6-0.8-1.1-1.3
			c-0.1-0.1-0.1-0.1-0.2-0.2c-0.2-0.2-0.4-0.3-0.6-0.5c-0.1-0.1-0.2-0.1-0.2-0.2c-0.3-0.2-0.6-0.4-0.9-0.6l0,0l0,0l0,0
			c-8.9-4.9-21.9-3-21.9-3l-2.7-1.4l-6-3.2c0.3-0.1,0.6-0.1,0.9-0.1c1.9,0,1.8,0.9,1.8,0.9s1-4.8-2.4-5.1c0,0-0.2,0-0.4,0
			c-0.2-0.8-0.6-1.7-1.5-2.1c0-3.7-0.3-7.8-0.8-12.3l4.7,3.1c-1.1-9.4-4-16.6-8.8-21.4c2.5-1.2,4.8-2.4,7-3.8
			c9.5-5.4,6-15.9-10.2-31.8c-0.3-0.3-0.7-0.6-1-1c-2.6-2.3-5.3-4.8-8.4-7.5l4.1,16.9L400.3,51c-4-2.6-9.1-5-15.4-7.4
			c0.6-1.5,2.2-2.6,4.5-3.4c-6.1-1.5-12.1-1.2-18.1,0.9l6.3-16.8l-19.9,17.8c-0.1,0-0.3,0.1-0.4,0.1c-9.7-3.7-18.7-4.3-26.7-1.3
			c6.3,1.6,10.7,3.2,13.4,5.2c-7,3-13.2,7.5-18.9,13.4l0-0.1l-25,2.8l-5.8,0.6l-1,0.1l0.2-17.4c-15,20.3-20.2,33.6-15.7,40
			c1.1,1.7,3,2.9,5.4,3.6c1.8,0.5,3.9,1.2,6.1,1.6c5.6,1.4,12.7,2.7,21.1,4c-0.2,0.3-0.3,0.6-0.4,1c-0.5,1.1-1,2.2-1.4,3.3
			c-1.5,3.9-2.3,8.6-2.4,12.2c0,0.5,0,1,0,1.5c0.1,3,0.6,6,1.7,8.8l0,0l0,0l7.6-5.8c0,0.7,0,1.4,0,2c0.1,2,0.2,4,0.4,5.9
			c1.3,10.7,4.8,18.6,10.5,25.7l0,0l0,0l7.3-6.7c3,2.1,6.1,3.9,9.3,5.4c1.3,0.6,2.7,1.2,4.1,1.7c-6.1,14.2-7.9,25.8-5.4,34.7
			c4.1,1,8.2,1.8,12.1,2.4l-0.7,17.3l-0.3,6c0,1.1,0.3,2,1.2,2.8c0.8,0.9,1.8,1.2,2.9,1.2c1.2,0,2.2-0.3,3.1-1.2
			c0.8-0.8,1.1-1.7,1.1-2.8l-0.3-9l-0.7-13.4l-1.5-0.2l1.1,0.1c1.3,0.2,2.7,0.3,4.1,0.4c0,0,0-0.1,0-0.1c6.6,0.5,12.8,0.4,18.6-0.3
			c2.1-0.3,4.3-0.7,6.3-1c0,0,0.1,0,0.1,0l0,0.2c4.1-0.9,8.1-2.1,11.8-3.7c0-0.3-0.1-0.6-0.1-0.9c0-3.7-0.6-9.4-1.2-16.6
			c0,0,0,0.1,0,0.1c0-0.1,0-0.2,0-0.3v-0.1c0-0.1,0-0.2,0-0.3c0-1-0.1-2.8-0.3-5c-0.1-1.5-0.2-3-0.3-4.5c0.9-0.2,8.4-7.2,15.2-18.9
			c0.2-0.4,0.4-0.7,0.6-0.9c0.1-0.2,0.2-0.4,0.4-0.7l0.5,3.8h0l0,0c0,0,0,0,0,0c0.9-2.3,1.6-4.6,2.3-6.9l1.3,0.9c0,0,0,0,0,0
			c0,0.2,0,0.3,0,0.5c0,0.1-0.1,0.3-0.2,0.4c0,0,0,0,0,0c0,0.1,0,0.1-0.1,0.2c0,0,0,0.1,0,0.1c0,0.1,0,0.1-0.1,0.2c0,0,0,0.1,0,0.1
			c0,0.1,0,0.1-0.1,0.2c0,0.1-0.1,0.2-0.1,0.4c0,0,0,0.1,0,0.1c0,0.1-0.1,0.2-0.1,0.3c0,0,0,0.1,0,0.1c0,0.1,0,0.2-0.1,0.3
			c0,0.1,0,0.1,0,0.2c0,0.1,0,0.2-0.1,0.3c0,0.1,0,0.1,0,0.2c0,0.1,0,0.2-0.1,0.3c0,0.1,0,0.1,0,0.2c0,0.1,0,0.3,0,0.4
			c0,0,0,0.1,0,0.1c0,0.1,0,0.3,0,0.5c0,0,0,0.1,0,0.1c0,0.4,0,0.8,0,1.2c0,0,0,0,0,0c0,0.2,0,0.4,0,0.6c0,0,0,0.1,0,0.1
			c0,0.2,0,0.3,0,0.5c0,0.1,0,0.1,0,0.2c0,0.1,0,0.3,0.1,0.4c0,0.1,0,0.1,0,0.2c0,0.1,0.1,0.3,0.1,0.4c0,0.1,0,0.1,0,0.2
			c0,0.1,0.1,0.3,0.1,0.4c0,0.1,0,0.1,0.1,0.2c0.1,0.2,0.1,0.3,0.2,0.5c0,0,0,0.1,0,0.1c0.2,0.4,0.4,0.8,0.6,1.1c0,0,0,0.1,0.1,0.1
			c0.1,0.1,0.2,0.3,0.3,0.4c0,0.1,0.1,0.1,0.1,0.2c0.1,0.1,0.2,0.2,0.3,0.4c0.1,0.1,0.1,0.1,0.2,0.2c0.1,0.1,0.2,0.2,0.3,0.3
			c0.1,0.1,0.1,0.1,0.2,0.2c0.1,0.1,0.2,0.2,0.3,0.3c0.1,0.1,0.1,0.1,0.2,0.2c0.1,0.1,0.3,0.2,0.4,0.3c0.1,0.1,0.2,0.1,0.2,0.2
			c0.2,0.1,0.3,0.2,0.5,0.3c0.1,0,0.1,0.1,0.2,0.1c0.2,0.1,0.5,0.3,0.8,0.4c12.2,5.5,21.7-0.2,21.7-0.2v0l0,0l0.6-3.8l0.5-2.8l0,0v0
			l-12-7.5l0,0l8.4-0.6l14.1,7.5c0,0,4.3-3.2,4.8-6.9c0.1-0.7,0.3-1.8,0.5-2.9C461.8,130.2,461.9,129.9,462,129.6z M327.9,84.8
			c-0.1-0.2-0.2-0.3-0.3-0.4C327.7,84.5,327.8,84.7,327.9,84.8z M327.5,84.3L327.5,84.3c-0.7,1.6-1.5,3.1-2.5,4.5
			C326.1,87.4,326.9,85.8,327.5,84.3z M322.7,91.5c-0.7,0.7-1.4,1.3-2.2,1.9C321.3,92.8,322.1,92.1,322.7,91.5z M318.8,94.7
			c-0.2,0.1-0.3,0.2-0.5,0.3c-0.2,0.1-0.3,0.2-0.5,0.4s-0.3,0.2-0.5,0.4l0,0c0.2-0.1,0.4-0.2,0.5-0.4s0.3-0.2,0.5-0.4
			C318.5,94.9,318.6,94.8,318.8,94.7z M315.4,95.5c-1.2-0.2-2.3-0.3-3.5-0.5C313.1,95.2,314.3,95.3,315.4,95.5z M397.8,146.6
			c0-0.6,0-1.2,0-1.6c0,0,0,0,0,0l0.7,10.7C398.3,152.4,398.1,149.3,397.8,146.6z"/>
	</g>
	<path class="st1" d="M402,159.5"/>
	<path class="st2" d="M374.3,149.2c-2.9,0-5.8-0.2-8.5-0.6c-0.4,2.3-0.8,5.2-1.2,8.5c-0.9,7.8-1.4,14.7-1.4,20.7
		c0,4.1,0.1,7.4,0.3,10c0.1,0.3,0.1,0.7,0.2,0.9c6.6,0.5,12.8,0.4,18.7-0.3c2.1-0.3,4.3-0.7,6.3-1c4.1-0.9,8.1-2.1,11.8-3.7
		c0.1-3.8-0.6-10-1.2-18c0.1-3-1.6-14.8-1.4-18.1c0-5.2,0.1-5,0-4.2 M399.3,159.5c-0.2,3.3,0.1,4.8,0,7.8"/>
	<path class="st3" d="M350,144.2c-8.4,17.1-11.2,30.8-8.3,41c4.2,1,8.4,1.9,12.4,2.5c1.9,0.2,3.7,0.5,5.6,0.7
		c1.3,0.2,2.7,0.3,4.1,0.4c-0.1-0.2-0.1-0.6-0.2-0.9c-0.2-2.6-0.3-5.9-0.3-10c0-6,0.3-10.7,1.2-18.5c18-0.8,25.3-5.1,30.2-12.2
		c-3.5-0.4-35.7,0.3-38.9-0.7c-0.3-0.1-0.7-0.3-1-0.4C353.2,145.5,351.6,144.9,350,144.2z"/>
	<g>
		<path class="st3" d="M360.1,188.5c-2.1-0.3-4.3-0.7-6.3-1l-0.7,17.4c0.5-0.2,1.2-0.5,1.9-0.7c2-0.8,3.9-1.5,5.8-2.3L360.1,188.5z"
			/>
		<path class="st3" d="M388.5,187.7c-1.9,0.2-3.7,0.5-5.6,0.7l-0.3,5.6c1.9-0.7,3.9-1.3,6.2-2.1L388.5,187.7z"/>
		<path class="st2" d="M388.7,211c0.7-0.7,1.1-1.7,1.1-2.7l-1-16.4c-2.3,0.8-4.3,1.4-6.2,2.1l-1,14.3c-0.1,1,0.3,2,1.2,2.7
			c0.7,0.9,1.7,1.3,2.9,1.3C386.8,212.3,387.8,211.9,388.7,211z"/>
		<path class="st2" d="M360.8,201.9c-1.9,0.8-3.8,1.5-5.8,2.3c-0.7,0.2-1.4,0.5-1.9,0.7l-0.3,6c0,1.1,0.3,2,1.2,2.8
			c0.8,0.9,1.8,1.2,2.9,1.2c1.2,0,2.2-0.3,3.1-1.2c0.8-0.8,1.1-1.7,1.1-2.8L360.8,201.9z"/>
		<path class="st4" d="M388.5,187.7l0.3,4.2l1,16.4c0,1-0.4,2-1.1,2.7c-0.9,0.9-1.9,1.3-3,1.3c-1.2,0-2.2-0.4-2.9-1.3
			c-0.9-0.7-1.3-1.7-1.2-2.7l1-14.3l0.3-5.6"/>
		<path class="st4" d="M360.1,188.5l0.7,13.4l0.3,9c0,1.1-0.3,2-1.1,2.8c-0.9,0.9-1.9,1.2-3.1,1.2c-1.1,0-2.1-0.3-2.9-1.2
			c-0.9-0.8-1.2-1.7-1.2-2.8l0.3-6l0.7-16.9"/>
	</g>
	<path class="st4" d="M400.1,167.3"/>
	<path class="st4" d="M402,159.5"/>
	<path class="st4" d="M403,150.6"/>
	<path class="st4" d="M397.5,144.2c1.4,12.2,2.5,34.8,3.1,39.6c-3.7,1.6-7.7,2.8-11.8,3.7"/>
	<path class="st4" d="M382.5,188.5c2.1-0.3,4.3-0.7,6.3-1"/>
	<path class="st4" d="M354.1,187.7c1.9,0.2,17.1,2.2,29.5,0.6"/>
	<path class="st4" d="M350,144.2c-8.4,17.1-11.2,30.8-8.3,41c4.2,1,8.4,1.9,12.4,2.5"/>
	<g>
		<path class="st3" d="M355.4,169.1c-0.1,3.8-0.2,6.1-0.5,7c-0.6,2-1.8,3.9-3.6,5.6c2,0.4,4.5,0,7.6-1V158h-1
			c-0.6,0.1-1.2,1.6-1.7,4.5C355.7,164.9,355.5,167.2,355.4,169.1z"/>
		<path class="st4" d="M353.2,149.5c-0.8,1.2-1,2.9-0.8,5.1v22.6l-5.6-4.1c-0.6,5.2,1,8.1,4.5,8.6c2,0.4,4.5,0,7.6-1V158"/>
	</g>
	<g>
		<g>
			<g>
				<g>
					<path class="st5" d="M294.2,65.2c0-0.7-0.1-1.4,0-1.9l-1,0.1l0.2-17.4c-15,20.3-20.2,33.6-15.7,40c0.4,0.1,0.8,0,1.1,0
						c4.9-0.5,8.9-4,12-10.5c1.5-3.1,2.5-6.2,3.2-9.4l0.2,0.1C294.2,65.8,294.2,65.4,294.2,65.2z"/>
					<path class="st6" d="M290.8,75.5c-3.1,6.5-7.1,10-12,10.5c-0.3,0-0.7,0.1-1.1,0c1.1,1.7,3,2.9,5.4,3.6c1.8,0.5,3.9,1.2,6.1,1.6
						c5.6,1.4,12.7,2.7,21.1,4c2.3,0.4,4.5,0.6,7,1c0.4-0.2,0.7-0.5,1-0.7c4.5-2.9,7.5-6.6,9.3-10.8c0-0.1,0.1-0.3,0.1-0.5
						c-2.3-4.3-7.1-9.1-14.6-14.1c-3.6-2.5-7.2-4.6-10.6-6.3c-1.1-0.5-1.9-0.9-2.7-1.2l-5.8,0.6c0,0.5,0,1.2,0,1.9
						c0,0.2,0.1,0.6,0,0.9l-0.2-0.1C293.3,69.3,292.3,72.4,290.8,75.5z"/>
					<path class="st2" d="M357.3,42.7c-9.7-3.7-18.7-4.3-26.7-1.3c6.3,1.6,10.7,3.2,13.4,5.2c-7,3-13.2,7.5-18.9,13.4
						c4.1,9.6,5,17.8,2.7,24.2c-0.1,0.2-0.2,0.4-0.1,0.5c0.1,0.3,0.6,0.7,1,1.4c0.5,0.9-5.9,33.3-4.9,34.5c0,0,38.2,27.4,64.2,23.4
						c6.7-1.1,29-24.2,32.8-25.9c0.1-0.9,0.2-1.8,0.2-2.5l3.6,6.7c1-2.5,1.6-5.3,2-8.7c0.5-5.1,0.4-11.2-0.5-18.3l4.7,3.1
						c-1.1-9.4-4-16.6-8.8-21.4l0-0.1c-4.3-10.8-11.5-19.2-21.4-25.6c-4-2.6-9.1-5-15.4-7.4c0.6-1.5,2.2-2.6,4.5-3.4
						c-6.1-1.5-12.1-1.2-18.1,0.9l6.3-16.8l-19.9,17.8l-0.1,0.1C357.4,42.7,357.3,42.7,357.3,42.7z"/>
					<path class="st5" d="M313.1,70.2c7.4,5,12.3,9.8,14.6,14.1c2.3-6.5,1.4-14.6-2.7-24.2l0-0.1l-25,2.8c0.7,0.3,1.6,0.7,2.7,1.2
						C306,65.5,309.5,67.7,313.1,70.2z"/>
					<path class="st3" d="M327.5,84.8c-1.7,4.2-4.8,7.9-9.3,10.8c-0.4,0.2-0.7,0.5-1,0.7c-2.5-0.4-4.7-0.7-7-1
						c-0.2,0.3-0.3,0.6-0.4,1c-4.2,9-5,18.3-2.2,25.9l7.6-5.8c0,2.7,0.2,5.4,0.5,7.9c1.3,10.7,4.8,18.6,10.5,25.7l7.3-6.7
						c4.8,3.4,9.8,6,15.1,7.8c1.7,0.5,3.3,0.9,5,1.4c0.3,0.1,0.7,0.2,1,0.3c3.3,0.6,6.8,1.1,10.3,1.1c2.7,0.1,5.6,0,8.5-0.3
						c10.3-1.2,19.3-4.5,27.2-10c0.1-0.1,0.3-0.2,0.3-0.2c4.2-3,7.8-6.6,11.3-10.6c0.6-0.8,1.2-1.5,1.7-2.4l1.1,9.2
						c2.7-7.1,4.6-15.6,5.5-22.7c-2.7,1.2-20.4,21.6-46.8,21.4c-1.4,0,2.6-7.8,1.3-7.3c-2.9,1-17.2,3.1-13.6,0.4
						c11.9-9-12.6,4-25.7-11.1c-8.7-10-6.8-33.2-7.3-34C328.1,85.5,327.7,85.1,327.5,84.8z"/>
					<path class="st5" d="M409.1,33.1l4.1,16.9l5.1-0.6l0.2,0.2c0.6-0.6,1.1-0.9,1.2-1.2c0.2-0.2,0.1-1.1-0.1-2.5
						c-0.1-1.1-0.6-2.5-1.4-4c-0.1-0.4-0.4-0.9-0.7-1.3C414.9,38.3,412.2,35.8,409.1,33.1z"/>
					<path class="st6" d="M419.6,45.9c0.2,1.4,0.3,2.3,0.1,2.5c-0.1,0.3-0.5,0.7-1.2,1.2l-0.2-0.2l-5.1,0.6l-12.9,1.4
						c9.9,6.3,17,14.8,21.4,25.6l0,0.1c2.5-1.2,4.8-2.4,7-3.8c9.5-5.4,6-15.9-10.2-31.8l-0.4,0.3C419,43.5,419.5,44.8,419.6,45.9z"
						/>
					<path class="st4" d="M325,60L325,60l-25.1,2.7l-5.8,0.6l-1,0.1l0.2-17.4c-15,20.3-20.2,33.6-15.7,40c1.1,1.7,3,2.9,5.4,3.6
						c1.8,0.5,3.9,1.2,6.1,1.6c5.6,1.4,12.7,2.7,21.1,4"/>
					<path class="st4" d="M357.3,42.7c0.1,0,0.3-0.1,0.4-0.1"/>
					<path class="st4" d="M357.6,42.6l-0.1,0.1c-0.2,0-0.3,0-0.3,0"/>
					<path class="st4" d="M310.3,95.2c2.3,0.4,4.5,0.6,7,1c0.4-0.2,0.7-0.5,1-0.7c4.5-2.9,7.5-6.6,9.3-10.8c0-0.1,0.1-0.3,0.1-0.5
						c2.3-6.5,1.4-14.6-2.7-24.2"/>
					<path class="st4" d="M310.3,95.2c-0.2,0.3-0.3,0.6-0.4,1c-4.2,9-5,18.3-2.2,25.9l7.6-5.8c0,2.7,0.2,5.4,0.5,7.9
						c1.3,10.7,4.8,18.6,10.5,25.7l7.3-6.7c4.8,3.4,9.8,6,15.1,7.8"/>
					<path class="st4" d="M357.3,42.7c-9.7-3.7-18.7-4.3-26.7-1.3c6.3,1.6,10.7,3.2,13.4,5.2c-7,3-13.2,7.5-18.9,13.4"/>
					<path class="st4" d="M421.7,77.2c2.5-1.2,4.8-2.4,7-3.8c9.5-5.4,6-15.9-10.2-31.8c-0.3-0.3-0.7-0.6-1-1
						c-2.6-2.3-5.3-4.8-8.4-7.5l4.1,16.9"/>
					<path class="st4" d="M400.3,51.5c-4-2.6-9.1-5-15.4-7.4c0.6-1.5,2.2-2.6,4.5-3.4c-6.1-1.5-12.1-1.2-18.1,0.9l6.3-16.8
						l-19.9,17.8"/>
					<line class="st4" x1="413.2" y1="50" x2="418.3" y2="49.5"/>
					<line class="st4" x1="400.3" y1="51.5" x2="413.2" y2="50"/>
					<path class="st4" d="M421.7,77.2L421.7,77.2c-4.3-10.9-11.5-19.3-21.4-25.7"/>
					<path class="st4" d="M401,143.3c4.2-3,7.8-6.6,11.3-10.6c0.6-0.8,1.2-1.5,1.7-2.4l1.1,9.2c2.7-7.1,4.5-14.2,5.4-21.3
						c0.1-0.9,0.2-1.8,0.2-2.5l3.6,6.7c1-2.5,1.6-5.3,2-8.7c0.5-5.1,0.4-11.2-0.5-18.3l4.7,3.1c-1.1-9.4-4-16.6-8.8-21.4"/>
					<path class="st4" d="M348.7,151.1c1.7,0.5,3.3,0.9,5,1.4c0.3,0.1,0.7,0.2,1,0.3c3.3,0.6,6.8,1.1,10.3,1.1
						c2.7,0.1,5.6,0,8.5-0.3c10.3-1.2,19.3-4.5,27.2-10c0.1-0.1,0.3-0.2,0.3-0.2"/>
				</g>
				<g>
					<g>
						<path d="M390.7,81.1c0,0,0.2,0,0.5,0.1C390.9,81.1,390.7,81.1,390.7,81.1z"/>
					</g>
				</g>
			</g>
		</g>
	</g>
	<path class="st7" d="M398.6,156.1c1-0.2,8.8-7.5,15.7-19.8c1.9-3.4,4.2-9.5,4.2-9.5l-6.5-3.1c0,0-2.6,5.8-7.2,12.5
		c-3,4.3-7.1,9-7.1,9L398.6,156.1z"/>
	<path class="st8" d="M409.8,129.5l1.9,3.6c0,0-3.3,7.5-6.5,10.7c-3.2,3.1-7.3,3-7.3,3l1.4,8.6c0,0,13.2-15.5,15-19.1
		s4.2-9.5,4.2-9.5l-6.5-3.1L409.8,129.5z"/>
	<g>
		<g>
			<path d="M348.5,101.4c0,0,3.1-1.8,4.5-1c1.4,0.8,3.3,1.9,3.3,1.9s-1.4-2.9-3.6-3.1C350.5,99.1,348.5,101.4,348.5,101.4z"/>
			<g>
				<g>
					<path d="M341.5,110c-11.2-5.1-13.7-10.5-11.6-9.2c3.6,2.2,9.7,4.6,17.6,5.7c1.3,0.2,3.8-1.3,5.2-1.2c1.4,0.1,4.6,1.3,6,1.7
						c11.4,3.3,23.5-0.6,32.7-5.6c13.2-7.1,16-2.6,19.7-3.7c3.2-0.9-2.7-3.6-4.5-4.3c2,0.5,9.1,2.5,8.3,4.4
						c-0.8,1.8-7.1,2.5-11.4,2.1c4.2,2.7,6.3,9.5,1.9,12.1c-4.9,2.9-15.5,0.1-26.2-0.2c-4.1-0.1-11.6,1-20-0.9
						c-2.5-0.6-5.1-1.7-6.7-1.7c-2-0.1-3.4,1-5.9,1.4C344.4,110.9,342.8,110.6,341.5,110z"/>
					<path class="st9" d="M345.9,106.9l-3.1,7l-7.5-9.6C335.4,104.3,340.4,106.7,345.9,106.9z"/>
					<path d="M326.5,104.4c0.3,0.4-2.4-5.9-0.2-6.6c2.2-0.7,5.9-0.6,5.9-0.6s-4.9-1.6-7.3,0.1C322.5,99,323.4,100.8,326.5,104.4z"/>
					<g>
						<path class="st10" d="M385.5,111.4l33.5,22.1c0,0-4.8,10.6,4.2,14.7c12.2,5.5,21.7-0.2,21.7-0.2l1.1-6.5l-13.7-7.5l10.2-0.7
							l14.1,7.5c0,0,4.3-3.2,4.8-6.9c0.3-1.9,1.2-6.7,1.2-6.7l-26.7-2l-39.3-19l-11.1,0.1L385.5,111.4z"/>
						<g>
							<path d="M399.7,98.9l37.1,19.9c0,0,2.6-0.4,6.2-0.4c4.6,0,10.8,0.6,15.7,3.4c3,1.7,3.8,3.6,3.6,5.5l0,0c0,0-0.9,4.8-1.2,6.7
								c-0.5,3.6-4.8,6.9-4.8,6.9l-14.1-7.5l-8.4,0.6l0,0l12,7.5l-1.1,6.5c0,0-4.3,2.6-10.9,2.6c-3.2,0-6.8-0.6-10.8-2.4
								c-7.9-3.6-5.1-12.4-4.3-14.3c0-0.2,0-0.3,0-0.5l-33.3-22l0-5l3.1-2.2L399.7,98.9 M399.7,97.9c-0.1,0-0.3,0-0.4,0.1l-11.3,5.4
								c-0.1,0-0.1,0.1-0.1,0.1l-3.1,2.2c-0.3,0.2-0.4,0.5-0.4,0.8l0,5c0,0.3,0.2,0.6,0.4,0.8l32.8,21.7c-0.9,2.5-3.4,11.4,5,15.2
								c3.7,1.7,7.4,2.5,11.2,2.5c6.8,0,11.2-2.7,11.4-2.8c0.2-0.2,0.4-0.4,0.5-0.7l1.1-6.5c0.1-0.4-0.1-0.8-0.5-1l-9.4-6l5.1-0.4
								l13.9,7.3c0.1,0.1,0.3,0.1,0.5,0.1c0.2,0,0.4-0.1,0.6-0.2c0.2-0.1,4.7-3.5,5.2-7.5c0.3-1.9,1.1-6.6,1.1-6.6
								c0-0.1,0-0.3,0-0.4c0.1-1.8-0.6-4.2-4.2-6.2c-5.2-2.9-11.7-3.5-16.2-3.5c-2.9,0-5.2,0.2-6,0.4L400.2,98
								C400.1,97.9,399.9,97.9,399.7,97.9L399.7,97.9z"/>
						</g>
						<path class="st11" d="M385.4,106.4l34.7,20.6c0,0-4.8,10.6,4.2,14.7c12.2,5.5,21.7-0.2,21.7-0.2l-12-7.5l-0.7-6.4l10.2-0.7
							l14.1,7.5c0,0,10.1-7.6,1.2-12.5c-8.9-4.9-21.9-3-21.9-3l-37.1-19.9l-11.3,5.4L385.4,106.4z"/>
					</g>
					<path class="st9" d="M387.2,104.8c0.4-0.2-9.8,21.6-10.1,21.5c-0.3-0.1-16.3-17.8-16.1-18C361.2,108.1,373.5,109.7,387.2,104.8
						z"/>
					<path class="st9" d="M401.5,98.4l4.6-9.3l7.3,8.8C413.3,97.9,407.3,100.1,401.5,98.4z"/>
					<path d="M416.4,101.2c0,0,3.3-1.2,2.4-3c-0.8-1.7-2.1-2.3-2.1-2.3S424.4,98.8,416.4,101.2z"/>
				</g>
				<path d="M414.8,97.9c0,0,1-0.9,0.3-2.7c-0.7-1.8,2.4-2.7,2.3-4.8s-4-5.9-4-5.9s2.6,4.3,2.3,5.4s-1.7,2.3-3.3,3.3
					c-0.8,0.6-0.8,2-0.8,2S413.6,97,414.8,97.9z"/>
			</g>
		</g>
		<path class="st7" d="M420.9,106.8c0,0-2.9,0.2-4.5,1.8c-1.6,1.6-2.4,5.5-2.4,5.5s6.8-3.8,8.7-3.8s1.9,0,1.9,0
			S424.2,107.1,420.9,106.8z"/>
		<path class="st7" d="M425.5,107.3c0,0-2.9-0.3-5.9,2.2c-1.8,1.5-3.4,7.7-3.4,7.7s8.3-5,10.2-5.1c1.9,0,1.9,0,1.9,0
			S428.8,107.6,425.5,107.3z"/>
		<path class="st7" d="M428.6,109.8c0,0-2.6-0.1-4.2,1.5c-1.6,1.6-2.4,5.1-2.4,5.1s5.2-2.4,7.1-2.4s1.8,0.9,1.8,0.9
			S431.9,110.1,428.6,109.8z"/>
	</g>
	<g>
		<path class="st5" d="M402.6,78.8c0.1-4.2-1.4-8.2-4.4-11.4c-3.1-3.1-6.7-4.8-11-4.9c-4.5-0.1-8.2,1.5-11.5,4.4
			c-3.2,3.1-4.7,6.9-4.8,11.2c-0.1,4.4,1.3,8.2,4.3,11.4c3.2,3.1,6.8,4.7,11.3,4.8c4.4,0.1,8.1-1.4,11.3-4.3
			C400.9,86.9,402.5,83.2,402.6,78.8z"/>
		<path class="st5" d="M355.1,69.1c-3.4-0.1-6.4,1-9,3.5c-2.5,2.4-3.8,5.4-3.9,8.8c-0.1,3.6,1,6.4,3.5,9c2.4,2.5,5.4,3.8,8.8,3.9
			c3.4,0.1,6.4-1,9-3.5c2.4-2.4,3.8-5.2,3.9-8.8c0.1-3.4-1.2-6.4-3.5-9C361.4,70.4,358.5,69.2,355.1,69.1z"/>
		<path class="st12" d="M398.4,67.2c-3.1-3.2-6.8-4.9-11.3-5.1c-4.6-0.1-8.4,1.5-11.7,4.5c-1.6,1.6-2.8,3.3-3.7,5.2
			c-0.8,1.9-1.2,4-1.3,6.2c-0.1,4.4,1.3,8.4,4.4,11.6c3.2,3.2,7,4.8,11.5,4.9c4.4,0.1,8.2-1.4,11.5-4.4c3.3-3.1,5-7,5.1-11.4
			C403.1,74.5,401.6,70.5,398.4,67.2"/>
		<path class="st13" d="M346.2,72.4c-2.5,2.4-3.8,5.4-3.9,8.8c-0.1,3.6,1,6.4,3.5,9c2.4,2.5,5.4,3.8,8.8,3.9c3.4,0.1,6.4-1,9-3.5
			c2.4-2.4,3.8-5.2,3.9-8.8c0.1-3.4-1.2-6.4-3.5-9c-2.4-2.5-5.4-3.8-8.8-3.9C351.7,68.8,348.7,69.9,346.2,72.4"/>
		<path d="M378.6,75.5c-1,0-1.9,0.3-2.5,0.9c-0.7,0.7-1.1,1.6-1.1,2.6s0.3,1.8,1,2.6c0.6,0.6,1.5,1,2.5,1c1.1,0,1.9-0.3,2.6-0.9
			c0.7-0.8,1.1-1.6,1.1-2.6s-0.3-1.9-1-2.6C380.5,75.9,379.7,75.5,378.6,75.5z"/>
		<path d="M370.7,67.5c0,0-2.2-4.5,1.7-7.7c3.9-3.2,7.9-2.3,7.9-2.3s-3.8,0.2-6.9,2.9C370.2,63.2,370.7,67.5,370.7,67.5z"/>
		<path d="M399,92.7c-0.4,0.2,5.1-3.7,6.5-7.8c1.4-4.1,0.3-9.9,0.3-9.9s2.8,5.9,0.9,10.2C404.7,89.5,402.9,90.2,399,92.7z"/>
		<path d="M339.2,74.2c0.2-0.3-2.4,4.1-2.3,7.5c0.1,3.4,2.2,7.4,2.2,7.4s-3.3-3.6-3.1-7.2C336.2,78.1,337.2,77.1,339.2,74.2z"/>
		<path d="M360,76.8c-0.4,0.4-0.6,0.8-0.6,1.3c0,0.6,0.2,1,0.6,1.4c0.4,0.4,0.8,0.6,1.3,0.6c0.6,0,1-0.1,1.4-0.6
			c0.4-0.4,0.6-0.8,0.6-1.4c0-0.5-0.2-1-0.6-1.3c-0.4-0.4-0.8-0.6-1.4-0.6C360.8,76.2,360.4,76.4,360,76.8z"/>
	</g>
</g>
<g>
	<path class="st1" d="M117.7,107.8c-0.6,6.5-0.6,11,0.1,13.7c0.2,0.5,0.3,1.1,0.6,1.6c0.2,0.4,0.3,0.7,0.5,1l0,0
		c0.4,0.8,1,1.6,1.6,2.3c-1.2,2.9-3.4,9.6-0.6,15.8c1.6,3.4,3.8,8.5,23.4,10.9c0.7,0.2,1.2,0.4,1.7,0.5c-0.4,2.8-0.6,5.6-0.3,9.2
		l0.2,1.3c0,0.2,0.2,1.2,0.2,1.5c0.1,1,0.2,2,0.4,3c0.3,2.4,0.8,4.5,1.2,6.5c0.1,0.9,0.3,1.7,0.6,2.5c0.1,0.7,0.3,1.5,0.5,2.2
		c0,0.1,0.1,0.2,0.1,0.3c1.7,6.8,3.9,11.6,6.5,14.4l-7,4.9c5.9,0.3,10.7,0.3,14.5-0.3c0.4-0.1,0.7-0.1,1.1-0.1
		c1.3-0.3,2.5-0.5,3.5-0.9c-0.7-5.1,0-9,2.1-11.9c2.2-2.9,6-4.5,11.4-4.8c4.9,0.3,8.3,1.9,10.1,4.8c2.1,3,2.5,7.3,1.5,12.8
		c1,0.2,2.1,0.3,3.3,0.5c4.3,0.3,9.6,0.4,15.8,0.2l-8.5-6c2.8-4.5,5-9,6.8-13.6c0.1-0.2,0.2-0.5,0.3-0.6c1.5-3.9,2.3-9.5,2.4-16.9
		c1,1.4,1.9,2.9,2.5,4.5c0.6,1.5,1.1,3,1.5,4.5c-1.4,2-0.6,2.7,2.5,2.5c2.6,5,4.5,4.4,5.8-1.9c1.1-0.1,2.5-0.6,4.1-1.5
		c1.3-0.6,1.9-1.9,1.9-3.7c-0.3-11.2-5.7-20-16.1-26.6c-1.2-0.7-2.5-1.5-3.8-2.2c0.1,0,0.2,0,0.2,0c0.2,0,0.3,0,0.4,0
		c0.2,0,0.4-0.1,0.5-0.1c17.6-3.6,27.4-9,29.4-16.5c0.8-2.8,0.8-7.8,0-15.1c0-0.1,0-0.1,0-0.2c-0.1-0.4-0.1-0.7-0.2-1
		c-0.1-0.6-0.2-1.3-0.4-2.2c0.2,0,1.8,0.4,3.3,0.4l0.2,0c0.3,0,0.5,0,0.8,0c0.5-0.1,0.9-0.2,1.2-0.4c0,0,0,0,0,0
		c0.8-0.5,1.3-1.3,1.6-2.5c0.3-1.3,0.5-2.6,0.7-3.9c0.5-2.7,1.1-6.3,1.4-11.2c0-0.3,0-0.5,0-0.8c0-0.2,0-0.3,0-0.5
		c0.1-1.2,0.1-2.4,0.1-3.5c0-0.2,0-0.5,0-0.7c0,0,0-0.1,0-0.1c0,0,0-0.1,0-0.1c0-1.6,0-3.3-0.1-4.9c-0.7-13.1-4.7-24.7-12.2-34.8
		c-0.2-0.3-0.4-0.6-0.6-0.8c-0.2-0.3-0.5-0.6-0.7-1c-0.2-0.3-0.4-0.5-0.6-0.8c-0.1-0.1-0.1-0.1-0.2-0.2c-3.1-3.8-6.8-7.5-11.1-10.7
		c-0.1-0.3-0.3-0.6-0.4-0.9c-0.8-1.6-1.8-3.1-3-4.4c-4.6-5.5-12.5-9.2-23.5-11.3c-0.6-0.1-1.1-0.1-1.6-0.2C180,6.9,168,10,159.2,19
		c-0.1,0.1-0.1,0.3-0.3,0.4c-3.7,1.6-7.3,3.7-10.8,6.2c-3.6,2.5-6.9,5.4-9.7,8.4c-8,8.5-13.1,18.8-15.4,30.9
		c-0.1,0.1-0.1,0.3-0.3,0.5c-0.8,1.3-1.6,2.4-2.9,3.3l-11.5,9l16.6,2.3l1.3,0.3l-3.8-0.3C120,88.7,118.3,99.2,117.7,107.8z
		 M203.2,113.2L203.2,113.2L203.2,113.2L203.2,113.2z M213.7,113.1l-0.1-0.2L213.7,113.1L213.7,113.1z M192.2,118.3
		c0,0.2,0,0.3,0,0.5C192.2,118.7,192.2,118.5,192.2,118.3l-0.1-1.3L192.2,118.3z M181.9,114.4c2.8,0,6.1-0.1,10.1-0.2l0,0.2
		L181.9,114.4L181.9,114.4z M206.1,98L206.1,98c-0.1-0.1-0.1-0.3-0.2-0.4C206,97.7,206,97.8,206.1,98z M206.3,98.5
		c0,0.1,0.1,0.2,0.1,0.2v0.1c0,0.1,0,0.3,0,0.4c0,0.2,0,0.4,0,0.5c0-0.1,0-0.3,0-0.5c0-0.1,0-0.3,0-0.4v-0.1
		C206.3,98.6,206.3,98.6,206.3,98.5L206.3,98.5z M206.3,101.6c0,0.1,0,0.2,0,0.2c0,0,0,0.1,0,0.1c0,0,0-0.1,0-0.1
		C206.2,101.7,206.3,101.7,206.3,101.6z M205.3,103.8c-0.1,0.2-0.3,0.4-0.5,0.6c-0.5,0.6-1.1,1.1-1.7,1.4c0.6-0.3,1.2-0.8,1.7-1.4
		C205,104.1,205.2,104,205.3,103.8z M201.7,106c-0.2,0-0.4,0-0.5,0c-0.3,0-0.6,0-0.8-0.1c0.3,0,0.5,0.1,0.8,0.1
		C201.3,106,201.5,106.1,201.7,106z M198.1,105c-0.3-0.2-0.6-0.5-0.8-0.8c-1-1.2-1.5-2.6-1.5-4.2c0-0.1,0-0.2,0-0.2
		c0-0.5,0-0.9,0.1-1.3c0,0.4-0.1,0.8-0.1,1.3c0,0,0,0.1,0,0.2c0,1.6,0.5,3,1.5,4.2C197.6,104.5,197.9,104.8,198.1,105z M196.6,96.8
		L196.6,96.8c-0.1,0.2-0.2,0.3-0.3,0.5c0,0.1-0.1,0.2-0.1,0.3c0-0.1,0.1-0.2,0.1-0.3C196.4,97.1,196.5,97,196.6,96.8z M210.3,117.9
		l-2.5,0.7c-0.8,0.2-1.4,0.2-1.9,0c0.5,0.2,1.1,0.2,1.9,0L210.3,117.9z M205.1,117.8c-0.1-0.2-0.3-0.4-0.4-0.7l-0.1-0.3l0.1,0.3
		C204.8,117.4,205,117.6,205.1,117.8z M205.3,118C205.3,118,205.3,118,205.3,118C205.3,118,205.3,118,205.3,118z M205.7,118.3
		C205.6,118.3,205.6,118.3,205.7,118.3C205.6,118.3,205.6,118.3,205.7,118.3z M184.2,120.6L184.2,120.6c0.2,0,0.4,0,0.6,0l5.1-0.1
		c1.1,0,1.8-0.4,2.1-1c-0.3,0.6-1,1-2.1,1l-5.1,0.1C184.6,120.6,184.4,120.6,184.2,120.6z M132.6,134.4c0.8,0.3,1.6,0.6,2.3,0.9
		l-2.1-0.7C132.7,134.6,132.6,134.5,132.6,134.4z"/>
	<path class="st14" d="M146.6,153.9c-0.7,0.2-23.6-6.2-26.9-14.8c-1.8-4.8,1.9-13,1.9-13s-3.6-9-2.6-15.6c1-6.6-1.1-6.9,1.5-6.9
		c2.1,0,3.9,1.4,3.9,1.4l-2.3,8.8l2.3,4.9c0,0,6.8,16.9,10.4,17.5c6,1,16-0.4,16-0.4L146.6,153.9z"/>
	<path class="st15" d="M214,140.3c-1.8-1.1-3.7-2.2-5.7-3.2c-0.1,0-0.2,0-0.4,0c-0.9,0.1-1.9,0.4-3,0.6c-8.7,1.5-18.2,2.2-28.5,2.2
		c-9.5,0-18.4-0.7-26.8-2c-0.3-0.2-0.7-0.2-1.1-0.2c-0.5-0.1-1.1-0.2-1.7-0.4c-0.2,0.4-0.3,0.7-0.4,1c-3.4-0.5-6.7-1.5-9-2.1
		c-0.1,0.1,0,2.2,4.7,4.7c14.9,8.5,34,9.6,51.3,5.8c4.4,12.1,3.7,24.3-2.4,36.5c-2.7-3.6-6.5-5.5-11.4-5.7c-5-0.1-9.2,1.6-12.6,5.2
		c-3.9,4.1-5.6,9.5-5,16.3c0.4-0.1,0.7-0.1,1.1-0.1c1.3-0.3,2.5-0.5,3.5-0.9c-0.7-5.1,0-9,2.1-11.9c2.2-2.9,6-4.5,11.4-4.8
		c4.9,0.3,8.3,1.9,10.1,4.8c2.1,3,2.5,7.3,1.5,12.8c1,0.2,2.1,0.3,3.3,0.5c4.3,0.3,9.6,0.4,15.8,0.2l-8.5-6c2.8-4.5,5-9,6.8-13.6
		c0.1-0.2,0.2-0.5,0.3-0.6c1.5-3.9,2.3-9.5,2.4-16.9c-1.6-2.5-3.8-4.9-6.5-7c2.7,2.1,4.9,4.5,6.5,7c1,1.4,1.9,2.9,2.5,4.5
		c0.6,1.5,1.1,3,1.5,4.5c-1.4,2-0.6,2.7,2.5,2.5c2.6,5,4.5,4.4,5.8-1.9c1.1-0.1,2.5-0.6,4.1-1.5c1.3-0.6,1.9-1.9,1.9-3.7
		C229.8,155.7,224.4,146.9,214,140.3z"/>
	<path class="st14" d="M145.6,168.5c0.3,2.4,0.8,4.5,1.2,6.5c0.1,0.9,0.3,1.7,0.6,2.5c0.1,0.7,0.3,1.5,0.5,2.2
		c0,0.1,0.1,0.2,0.1,0.3c1.7,6.8,3.9,11.6,6.5,14.4l-7,4.9c5.9,0.3,10.7,0.3,14.5-0.3c-0.6-6.8,1.1-12.2,5-16.3
		c3.4-3.6,7.6-5.3,12.6-5.2c4.9,0.2,8.7,2.1,11.4,5.7c6.1-12.2,6.8-24.4,2.4-36.5c-17.3,3.8-36.5,2.1-51.3-5.8
		c-1.7,3.5,3.1,11.3,4.5,5.7c-1.4,5.6-2.3,9.7-1.8,16.1l0.2,1.3c0,0.2,0.2,1.2,0.2,1.5C145.3,166.5,145.4,167.5,145.6,168.5z"/>
	<path class="st15" d="M145.1,153.3l0.8-3.9c0,0-15.1-1.1-20.9-6.1c-6.6-5.6-2-12.9-2-12.9s-0.4,0.1,3,1.6c2.5,1.1,7.7,2.3,7.7,2.3
		s-5.1-11.6-4.2-13c0.4-0.6-8.2,3.8-8.2,3.8s-4.9,9.2-1.2,17.2C121.6,145.7,123.9,150.9,145.1,153.3z"/>
	<g>
		<path class="st5" d="M221.1,89.5c0.1,0.1,0.1,0.2,0.1,0.2S221.2,89.6,221.1,89.5L221.1,89.5z"/>
		<path class="st15" d="M211.4,85.8l-89-5.9c-0.7,3.9-2.5,12.1-2.7,12.9c-0.2,0.9-0.3,1.7-0.4,2.5c3.6-0.5,6.9-0.9,10-1.2
			c0.1-0.2,0.1-0.4,0.1-0.5l0.3-1.2l-0.3,1.2c0,0.1,0,0.3-0.1,0.5c2.1-0.3,4-0.4,5.8-0.7l0.1,0.4c0.1-0.1,0.2-0.3,0.3-0.4
			c0.7-0.9,1.6-1.2,2.5-1.2c0.7,0,1.4,0.2,1.9,0.6c13.2-1.5,22.3-1.3,28.1-1.3c14.6,0,24.6,0.4,29.6,0.7c11.4,0.8,18.5,4.9,21.3,7.7
			c3.3,3.4,7.2,3.5,11,4c0.2,0.9,0.3,2,0.5,3.2c0.6,3.7,0.9,5.6,0.9,5.9c0,6.7-4.7,12.2-14.1,16.6c-11.7,5.3-29.6,8-53.7,8
			c-4.1,0-23.4-4-33.5-4.5c4.6,3.3,16.9,4.9,19.3,5.3c0.6,0.2,1.2,0.3,1.7,0.4c0.4,0,0.8,0,1.1,0.2c8.4,1.3,17.3,2,26.8,2
			c10.3,0,19.8-0.7,28.5-2.2c1.1-0.2,2.1-0.5,3-0.6c0.2,0,0.3,0,0.4,0c0.2,0,0.4-0.1,0.5-0.1c17.6-3.6,27.4-9,29.4-16.5
			c0.8-2.8,0.8-7.8,0-15.1c0-0.1,0-0.1,0-0.2c-0.2-1.2-1-5.5-2.5-13h-11c-2.4,0.3-4.4-0.8-6-3.5c0,0,0-0.1-0.1-0.2
			C219.5,86.8,216.3,85.6,211.4,85.8z"/>
		<path class="st14" d="M144.7,95l-13.4,2.2l-2.9,0.7c0,0,1.8-10.7,8.7-10.7c6.9,0.1,8.1,6.4,8.1,6.4"/>
		<path class="st14" d="M117.8,121.5c1.2,4.3,5.1,8.1,11.6,11.2c0.3,0.1,0.7,0.3,1,0.4c3.3,1.4,6.5,1.8,11,2.9
			c10.4,1.5,18,1.5,22.1,1.5c24.1,0,42-2.7,53.7-8c9.4-4.4,14.1-9.9,14.1-16.6c0-0.3-0.3-2.2-0.9-5.9c-0.2-1.2-0.3-2.3-0.5-3.2
			c-3.8-1.5-7.7-0.6-11-4c-2.8-2.8-8.8-6.8-20.2-7.6c-5-0.3-16.2-2.6-30.8-2.6c-6.7,0-16.4-0.7-29.6,0.8c0.4,0.3,2.4,3,2.7,3.5
			c0.2,0.3,0.5,0.8,0.5,1.3c0.1,0,0.1,0,0.1,0.1v0.1c0.1,0.2,0.1,0.3,0.2,0.5c0.2,0.7,0.3,1.5,0.3,2.3c0,1.7-0.4,3.1-1.1,4.2
			c-0.9,1.3-1.8,1.8-2.9,1.7c-1.1,0-2.1-0.6-2.8-1.9c-0.8-1.2-1.2-2.7-1.2-4.4c0-0.4,0-0.9,0.1-1.4c0-0.2,0-0.4,0.1-0.7
			c0-0.1,0.1-0.3,0.2-0.4c0.2-0.6,0.5-1.1,0.8-1.5l-0.1-0.4c-1.8,0.3-1.3-3.7-3.4-3.4c-3.1,0.3-8.1,2.2-12.4,5.3
			c-0.1,0.7-0.2,1.4-0.4,2.1c0,0.1,0,0.1,0,0.3c0,0.1,0,0.3,0,0.5C117.1,110,116.8,117.7,117.8,121.5z M128.7,96.9
			c0,0,0.1-0.1,0.1-0.2C128.8,96.8,128.8,96.9,128.7,96.9z M206.4,100.2c0,0.6-0.1,1.1-0.2,1.6c-0.3,0.9-0.7,1.8-1.4,2.5
			c-1,1.2-2.2,1.9-3.7,1.7c-1.5,0-2.8-0.6-3.8-1.8c-1-1.2-1.5-2.6-1.5-4.2c0-0.1,0-0.2,0-0.2c0-0.6,0-1.1,0.1-1.6
			c0.2-0.4,0.3-0.7,0.4-0.9c0.3-0.6,0.6-1.1,1-1.6c1-1.1,2.3-1.7,3.8-1.7c1.5,0,2.7,0.7,3.7,1.8c0.7,0.9,1.2,1.8,1.5,2.9v0.1
			c0,0.1,0,0.3,0,0.4c0,0.3,0,0.5,0.1,0.6c0,0,0,0,0,0.1V100.2z M203.2,113.2c3.5-0.4,6.5-1.5,9.2-3.1l1.9,4.3
			c0.5,1.4,0,2.3-1.6,2.8l-4.9,1.3c-1.5,0.4-2.5,0-3.1-1.4L203.2,113.2z M181.9,114.2c3.5,0,6.8,0,10.1-0.2l0.2,4.3
			c0.1,1.4-0.6,2.2-2.3,2.2l-5.1,0.1c-1.6,0.1-2.5-0.6-2.7-2L181.9,114.2z M156.9,118.5l0.3-5.1c3.4,0.3,6.8,0.5,10.1,0.6l-0.4,5.2
			c-0.1,1.3-1,2-2.7,2l-5.2-0.5C157.4,120.5,156.7,119.8,156.9,118.5z M140.4,115.2l1-3.7c1.5,0.4,3,0.7,4.7,0.9
			c1.8,0.2,3.5,0.3,5.3,0.5l-1.1,4.3c-0.4,1.3-1.4,1.8-2.9,1.5l-5-1C140.7,117.4,140.1,116.6,140.4,115.2z"/>
		<path d="M204.8,104.3c0.7-0.7,1.1-1.6,1.4-2.5c0.1-0.5,0.2-1,0.2-1.6c0-0.1,0-0.3,0-0.4c-0.1-0.1-0.1-0.3-0.1-0.6
			c0-0.1,0-0.3,0-0.4v-0.1c-0.3-1.1-0.8-2-1.5-2.9c-1-1.1-2.2-1.8-3.7-1.8s-2.8,0.6-3.8,1.7c-0.4,0.5-0.7,1-1,1.6
			c-0.1,0.2-0.2,0.5-0.4,0.9c-0.1,0.5-0.1,1-0.1,1.6c0,0,0,0.1,0,0.2c0,1.6,0.5,3,1.5,4.2c1,1.2,2.3,1.8,3.8,1.8
			C202.6,106.2,203.8,105.5,204.8,104.3z"/>
		<path class="st5" d="M206.4,99.8c0,0.1,0,0.3,0,0.4V99.8C206.4,99.8,206.4,99.8,206.4,99.8z"/>
		<path class="st5" d="M203.2,113.2l1.5,3.9c0.6,1.4,1.6,1.8,3.1,1.4l4.9-1.3c1.6-0.5,2.1-1.4,1.6-2.8l-1.9-4.3
			C209.7,111.7,206.7,112.8,203.2,113.2z"/>
		<path class="st5" d="M192.1,114.4c-3.3,0.2-6.6,0-10.1,0l0.2,4.2c0.2,1.4,1.1,2.1,2.7,2l5.1-0.1c1.7,0,2.4-0.8,2.3-2.2
			L192.1,114.4z"/>
		<path d="M138,92.2c-0.9,0-1.8,0.3-2.5,1.2c-0.1,0.1-0.2,0.3-0.3,0.4c-0.3,0.4-0.6,0.9-0.8,1.5c-0.1,0.1-0.2,0.3-0.2,0.4
			c-0.1,0.3-0.1,0.5-0.1,0.7c-0.1,0.5-0.1,1-0.1,1.4c0,1.7,0.4,3.2,1.2,4.4c0.7,1.3,1.7,1.9,2.8,1.9c1.1,0.1,2-0.4,2.9-1.7
			c0.7-1.1,1.1-2.5,1.1-4.2c0-0.8-0.1-1.6-0.3-2.3c-0.1-0.2-0.1-0.3-0.2-0.5v-0.1c0-0.1,0-0.1-0.1-0.1c0-0.5-0.3-1-0.5-1.3
			c-0.3-0.5-0.6-0.8-1-1.1C139.4,92.4,138.7,92.2,138,92.2z"/>
		<path class="st5" d="M142.4,117.7l5,1c1.5,0.3,2.5-0.2,2.9-1.5l1.1-4.3c-1.8-0.2-3.5-0.3-5.3-0.5c-1.7-0.2-3.2-0.5-4.7-0.9l-1,3.7
			C140.1,116.6,140.7,117.4,142.4,117.7z"/>
		<path class="st5" d="M157.2,113.4l-0.3,5.1c-0.2,1.3,0.5,2,2.1,2.2l5.2,0.5c1.7,0,2.6-0.7,2.7-2l0.4-5.2
			C164,113.9,160.6,113.7,157.2,113.4z"/>
		<path class="st16" d="M118.9,97.7"/>
		<path class="st4" d="M197.3,104.2c-1-1.2-1.5-2.6-1.5-4.2c0-0.1,0-0.2,0-0.2c0-0.6,0-1.1,0.1-1.6c0.2-0.4,0.3-0.7,0.4-0.9
			c0.3-0.6,0.6-1.1,1-1.6c1-1.1,2.3-1.7,3.8-1.7s2.7,0.7,3.7,1.8c0.7,0.9,1.2,1.8,1.5,2.9v0.1c0,0.1,0,0.3,0,0.4
			c0,0.3,0,0.5,0.1,0.6c0,0.1,0,0.3,0,0.4c0,0.6-0.1,1.1-0.2,1.6c-0.3,0.9-0.7,1.8-1.4,2.5c-1,1.2-2.2,1.9-3.7,1.7
			C199.6,106,198.3,105.4,197.3,104.2"/>
		<g>
			<g>
				<path class="st17" d="M158.9,19.3c-4.8,5.1-8.8,10.4-11.6,15.8c-2.3,4.4-4.1,8.8-5.2,13.3c-1.3,5.8-1.7,10-1.1,13
					c11.9,3.4,19.5,1,22.5-6.9c2.8-5.9,5.5-11.3,8.1-16.1c9.1-16.5,17-26.2,23.7-28.8C180,6.9,168,10,159.2,19
					C159.1,19.1,159,19.3,158.9,19.3z"/>
				<path class="st18" d="M171.7,38.4c-2.7,4.8-5.3,10.2-8.1,16.1c-3,8-10.6,10.4-22.5,6.9c0.5,2.4,1.6,3.8,3.4,4.4
					c4.2,1.4,7.9,2.1,11.1,2.2c3.3,0.1,6.2-1.5,8.4-4.9c1.2-1.6,2.7-4.4,4.7-7.9c1.9-3.3,4-7.3,6.6-12.3c0.6-1.2,1.2-2.5,1.9-3.7
					c7.7-13.9,15.9-21.7,24.2-23.3c4.5,1.1,8.7,2.7,12.6,4.5c3.4,1.7,6.7,3.6,9.8,6c-0.1-0.3-0.3-0.6-0.4-0.9
					c-0.8-1.6-1.8-3.1-3-4.4c-4.6-5.5-12.5-9.2-23.5-11.3c-0.6-0.1-1.1-0.1-1.6-0.2C188.6,12.3,180.8,21.9,171.7,38.4z"/>
				<path class="st18" d="M168.7,55.2c5.6-5.6,10.8-10.6,15.6-15c10.5-9.4,18.9-15.4,25.4-18.3c7.1,6.2,12.1,14.1,15,23.7
					c1.7,5.8,2.6,12.2,2.8,19.1c0.6,0.1,1.2,0.2,1.7,0.3c2.3,0.4,4.5,0.8,6.8,1.3c1.2,0.4,2,0.9,2.5,1.6c1,0.9,1.2,2.2,1,3.7
					l-0.9,10c0.3,2.4-0.9,3.5-3.5,3.4c-2.8-0.6-5.7-1.1-8.7-1.7c-0.6,4.4-1.4,9.1-2.5,13.8c0,0.1,0,0.2,0,0.2
					c1.2,2.9,3.1,4.2,5.5,4.3l10.9,1.5l3.5,0.5c1.9,0.1,3.1-1,3.5-3c1.7-8.5,2.4-16.3,2.3-23.5c-0.3-14.1-4.4-26.4-12.3-37.1
					c-0.7-0.9-1.3-1.7-2-2.6c-3.5-4.2-7.2-7.8-11.2-10.9c-3.1-2.3-6.4-4.3-9.8-6c-3.9-1.8-8.1-3.4-12.6-4.5
					c-8.4,1.6-16.5,9.4-24.2,23.3c-0.7,1.2-1.3,2.4-1.9,3.7C172.7,47.9,170.6,51.9,168.7,55.2z"/>
				<path class="st17" d="M144.4,65.8c-1.8-0.6-3-2-3.4-4.4c-0.6-3-0.2-7.2,1.1-13c1.1-4.5,2.9-8.9,5.2-13.3
					c2.8-5.4,6.8-10.7,11.6-15.8c-3.7,1.6-7.3,3.7-10.8,6.2c-3.6,2.5-6.9,5.4-9.7,8.4c-8,8.5-13.1,18.8-15.4,30.9
					c-0.1,0.1-0.1,0.3-0.3,0.5c-0.8,1.3-1.6,2.4-2.9,3.3l-11.5,9l16.6,2.3l89.6,12.1c4.9,0.5,7.9,2.1,9.1,5l0.1,0
					c1-4.7,1.9-9.4,2.5-13.8c-0.2-0.1-0.5-0.2-0.7-0.2c-0.7-0.1-1.3-0.2-1.9-0.4c-3.2-0.6-4.5-2.2-3.8-4.5l1.7-9.6
					c0.5-2.7,2-4.1,4.6-4.2c0.4,0.1,0.8,0.1,1.2,0.3c-0.2-7-1-13.4-2.8-19.1c-2.8-9.7-7.8-17.5-15-23.7c-6.4,2.9-14.9,8.9-25.4,18.3
					c-4.7,4.4-10,9.4-15.6,15c-2,3.6-3.5,6.3-4.7,7.9c-2.3,3.4-5.1,5.1-8.4,4.9C152.3,67.9,148.6,67.2,144.4,65.8z M193.3,58.3
					c2.3,0.3,4.5,0.6,6.7,0.9c1.3,0.2,2.6,0.3,3.9,0.5c3.9,0.1,5.2,2.7,3.7,7.8l-1.5,5.8c-1.1,3.9-3.9,5.5-8.6,5.2
					c-1.5-0.2-3.2-0.4-4.9-0.7l-0.5-0.1c-4.3-0.6-8.2-1.2-11.9-1.8c-3.8-0.7-5.1-2.2-3.8-4.6l5.3-10.9c1-2,3.3-2.9,7.1-2.8l0.1,0
					C190.4,57.9,191.8,58.1,193.3,58.3z"/>
				<path class="st19" d="M181.8,60.5l-5.3,10.9c-1.3,2.3,0,3.8,3.8,4.6c3.7,0.6,7.6,1.2,11.9,1.8l0.5,0.1
					c0.2-8.2,2.7-14.4,7.4-18.6c-2.3-0.3-4.5-0.6-6.7-0.9c-1.5-0.2-2.9-0.4-4.3-0.6l-0.1,0C185.1,57.6,182.8,58.5,181.8,60.5z"/>
				<path class="st18" d="M192.7,77.8c1.7,0.2,3.4,0.5,4.9,0.7c4.7,0.3,7.4-1.3,8.6-5.2l1.5-5.8c1.5-5,0.2-7.6-3.7-7.8
					c-1.3-0.2-2.6-0.3-3.9-0.5C195.3,63.4,192.9,69.6,192.7,77.8z"/>
				<path class="st18" d="M238.3,67.9c-0.5-0.7-1.4-1.2-2.5-1.6c-2.3-0.5-4.5-0.9-6.8-1.3c0.8,3.9,0,9.2-2.4,15.4
					c-0.3,0.9-0.7,1.7-1.1,2.6c0.2,0,0.5,0.1,0.7,0.2c2.9,0.6,5.8,1.1,8.7,1.7c2.6,0.2,3.8-1,3.5-3.4l0.9-10
					C239.5,70.1,239.3,68.9,238.3,67.9z"/>
				<path class="st19" d="M221.6,68.7l-1.7,9.6c-0.7,2.2,0.6,3.8,3.8,4.5c0.6,0.2,1.2,0.3,1.9,0.4c0.3-0.9,0.7-1.7,1.1-2.6
					c2.4-6.2,3.2-11.5,2.4-15.4c-0.5-0.2-1.1-0.2-1.7-0.3c-0.4-0.2-0.8-0.2-1.2-0.3C223.5,64.6,222,66,221.6,68.7z"/>
				<path class="st4" d="M158.9,19.3c0.1-0.1,0.1-0.3,0.3-0.4c8.8-9,20.8-12.1,36.2-9.3c0.5,0.1,1,0.1,1.6,0.2
					c11,2.1,18.9,5.8,23.5,11.3c1.2,1.4,2.2,2.8,3,4.4c0.1,0.2,0.3,0.5,0.4,0.9"/>
				<path class="st4" d="M223.9,26.4c-3.1-2.3-6.4-4.3-9.8-6c-3.9-1.8-8.1-3.4-12.6-4.5c-8.4,1.6-16.5,9.4-24.2,23.3
					c-0.7,1.2-1.3,2.4-1.9,3.7c-2.6,5-4.8,9-6.6,12.3c-2,3.6-3.5,6.3-4.7,7.9c-2.3,3.4-5.1,5.1-8.4,4.9c-3.2-0.1-7-0.8-11.1-2.2
					c-1.8-0.6-3-2-3.4-4.4c-0.6-3-0.2-7.2,1.1-13c1.1-4.5,2.9-8.9,5.2-13.3c2.8-5.4,6.8-10.7,11.6-15.8"/>
				<path class="st4" d="M189,57.7c1.4,0.2,2.8,0.4,4.3,0.6c2.3,0.3,4.5,0.6,6.7,0.9c1.3,0.2,2.6,0.3,3.9,0.5
					c3.9,0.1,5.2,2.7,3.7,7.8l-1.5,5.8c-1.1,3.9-3.9,5.5-8.6,5.2c-1.5-0.2-3.2-0.4-4.9-0.7l-0.5-0.1c-4.3-0.6-8.2-1.2-11.9-1.8
					c-3.8-0.7-5.1-2.2-3.8-4.6l5.3-10.9C182.8,58.5,185.1,57.6,189,57.7L189,57.7"/>
				<path class="st4" d="M125,79.9l-16.6-2.3l11.5-9c1.2-0.9,2.1-2,2.9-3.3c0.1-0.2,0.2-0.4,0.3-0.5c2.2-12.1,7.4-22.4,15.4-30.9
					c2.8-2.9,6.1-5.8,9.7-8.4c3.6-2.5,7.2-4.6,10.8-6.2"/>
				<path class="st4" d="M238.4,81.6c0.3,2.4-0.9,3.5-3.5,3.4c-2.8-0.6-5.7-1.1-8.7-1.7c-0.2-0.1-0.5-0.2-0.7-0.2
					c-0.7-0.1-1.3-0.2-1.9-0.4c-3.2-0.6-4.5-2.2-3.8-4.5l1.7-9.6c0.5-2.7,2-4.1,4.6-4.2c0.4,0.1,0.8,0.1,1.2,0.3
					c0.6,0.1,1.2,0.2,1.7,0.3c2.3,0.4,4.5,0.8,6.8,1.3c1.2,0.4,2,0.9,2.5,1.6c1,0.9,1.2,2.2,1,3.7L238.4,81.6"/>
			</g>
			<path class="st4" d="M125,79.9l89.6,12.1c4.9,0.5,7.9,2.1,9.1,5c0.1,0.1,0.1,0.2,0.1,0.2c1.2,2.9,3.1,4.2,5.5,4.3l10.9,1.5"/>
		</g>
		<path class="st4" d="M212.4,110.1l1.9,4.3c0.5,1.4,0,2.3-1.6,2.8l-4.9,1.3c-1.5,0.4-2.5,0-3.1-1.4l-1.5-3.9"/>
		<path class="st4" d="M192.1,114.4l0.2,3.9c0.1,1.4-0.6,2.2-2.3,2.2l-5.1,0.1c-1.6,0.1-2.5-0.6-2.7-2l-0.2-4.2"/>
		<path class="st4" d="M203.2,113.2c3.5-0.4,6.5-1.5,9.2-3.1"/>
		<path class="st4" d="M210.8,138.1c0.2,0,0.4-0.1,0.5-0.1c17.6-3.6,27.4-9,29.4-16.5c0.8-2.8,0.8-7.8,0-15.1c0-0.1,0-0.1,0-0.2
			c-0.2-1.2-0.3-1.7-0.6-3.2c0,0,4.4,1,5.4,0s3.4-6.7,3.9-23.1c0.4-16.4-6-38.7-25.5-53.5"/>
		<path class="st4" d="M122.4,79.9c-4.7,16.8-6.5,40.1-3.5,44.2c10.2,13.9,31.8,14.5,32.1,14.6c0.4,0,0,0,1.1,0.2
			c8.4,1.3,17.3,2,26.8,2c10.3,0,19.8-0.7,28.5-2.2c1.1-0.2,2.1-0.5,3-0.6c0.2,0,0.3,0,0.4,0"/>
		<path class="st4" d="M140.9,93.9c0.2,0.3,0.5,0.8,0.5,1.3c0.1,0,0.1,0,0.1,0.1v0.1c0.1,0.2,0.1,0.3,0.2,0.5
			c0.2,0.7,0.3,1.5,0.3,2.3c0,1.7-0.4,3.1-1.1,4.2c-0.9,1.3-1.8,1.8-2.9,1.7c-1.1,0-2.1-0.6-2.8-1.9c-0.8-1.2-1.2-2.7-1.2-4.4
			c0-0.4,0-0.9,0.1-1.4c0-0.2,0-0.4,0.1-0.7c0-0.1,0.1-0.3,0.2-0.4c0.2-0.6,0.5-1.1,0.8-1.5c0.1-0.1,0.2-0.3,0.3-0.4
			c0.7-0.9,1.6-1.2,2.5-1.2c0.7,0,1.4,0.2,1.9,0.6C140.3,93.1,140.6,93.4,140.9,93.9"/>
		<path class="st4" d="M151.4,112.9l-1.1,4.3c-0.4,1.3-1.4,1.8-2.9,1.5l-5-1c-1.7-0.3-2.3-1.1-2-2.5l1-3.7"/>
		<path class="st4" d="M167.3,114l-0.4,5.2c-0.1,1.3-1,2-2.7,2l-5.2-0.5c-1.6-0.2-2.3-0.9-2.1-2.2l0.3-5.1"/>
		<path class="st4" d="M141.4,111.5c1.5,0.4,3,0.7,4.7,0.9c1.8,0.2,3.5,0.3,5.3,0.5"/>
		<path class="st4" d="M157.2,113.4c3.4,0.3,6.8,0.5,10.1,0.6"/>
		<path class="st4" d="M192.1,114.4c-3.3,0.2-6.6,0-10.1,0"/>
		<path class="st4" d="M222.4,110.1c0,0-0.7-2.7-3.5-2.7c-2.8,0-9.8,6.1-22.4,6.6s-19.2,0.4-24.7,0.2c-5.5-0.2-14.5-0.6-18.5-1
			s-13.3-1.4-16.4-3.5c-4.3-2.9-5.2-4.1-7.3-3.2c-2.1,0.8-2.1,1.5-2.1,1.5"/>
		<g>
			<path class="st14" d="M207.6,93.4l2.1,3.6l-2.1-0.6c0,0-2.2,0.4-5.2,0.5c-2.9,0.1-5.8,0.5-6.6,0.5s0.2-1.7,0.2-1.7l4.7-3.1
				L207.6,93.4z"/>
			<path class="st4" d="M210.6,97.3c-0.3-0.2-3.3-0.6-8.2-0.4c-5.1,0.2-8.6,0.8-8.6,0.8"/>
		</g>
		<path class="st4" d="M143.9,90.8c0,0-1.6-3.1-5.9-3.5s-8.1,3.5-8.6,6.3"/>
	</g>
	<path class="st4" d="M139.1,136.7c-0.2-0.1-3.5,0.2-5-0.5c-1.5-0.7-1.8-1.7-1.8-1.7"/>
</g>
<path class="st0" d="M29.8,224.9c0,0,37.5-18.4,43.2-18.5s84,10.7,85.5,11.5c1.5,0.8-33.2,23.3-37.8,22.7
	C116.1,239.9,24.5,227.4,29.8,224.9z"/>
<path class="st20" d="M114.4,173.9c-4-15.5-10.2-37.5-10.7-39c0-0.1-0.1-0.1-0.2-0.2l-2.5-2.4l-78.9-3L8,147.7l9.1,23.2l31.3,10.4
	l2.7,0.4c-1.6-0.2-2.6-0.4-2.7-0.4c-1.3-0.6,3.7,38.3,4,40l67.8,11.3l3.3-0.7l27.3-14.2l2-40L114.4,173.9z"/>
<g>
	<polygon class="st21" points="118,192 152.9,177.7 71.3,169.6 48.4,181.3 	"/>
	<path class="st17" d="M52.4,221.3c-0.3-1.7-5.3-40.6-4-40c1.2,0.5,69.4,8,69.4,8h3.3l31.8-11.5l-5.5,41.4l-23.9,12.8l-3.3,0.7
		L52.4,221.3z"/>
	<polygon class="st18" points="123.6,231.9 121.1,189.2 152.9,177.7 150.9,217.7 	"/>
	<polygon class="st17" points="117.8,189.2 116.6,185.7 103.7,134.9 101,132.3 22.1,129.3 8,147.7 17.1,170.9 48.4,181.3 	"/>
	<path class="st18" d="M92.7,178.9l-5.9-25.1c0,0,16-21.4,16.9-19c0.8,2.4,15.6,55.4,14.1,54.4C116.2,188.1,92.7,178.9,92.7,178.9z"
		/>
	<polygon class="st0" points="17.1,170.9 92.7,178.9 117.8,189.2 48.4,181.3 	"/>
	<polygon class="st22" points="85.3,152.7 101,132.3 22.1,129.3 8,147.7 	"/>
	<path class="st22" d="M117.8,189.2c0,0,3-0.3,3.1,0.5c0.1,0.8,2.6,42.1,2.6,42.1l-3.3,0.7L117.8,189.2z"/>
	<g>
		<path class="st23" d="M146.9,188.1c0,0-0.5-0.4-0.5,0.4c0,1.5,1.1,3.6,1.4,3.4C148.2,191.8,147.5,188.6,146.9,188.1z"/>
		<g>
			<g>
				<path class="st24" d="M145.2,198.2c-0.1,0-0.1,0-0.1,0c-0.1,0-0.2-0.1-0.2-0.2l-0.3-1c-0.1-0.2,0-0.4,0.2-0.5
					c0.5-0.2,1-0.4,1.2-0.6c-0.3-1-1.5-5.4-0.8-5.9c0.5-0.4,1.8-0.8,2.1-0.8c0,0,0.1,0,0.1,0c0.1,0,0.2,0,0.2,0.1
					c0.1,0.1,0.1,0.2,0.1,0.3v1.1c0,0.2-0.1,0.4-0.8,0.6c0.3,1.7,0.9,4.8,0.8,5.3c-0.1,0.6-1.5,1.3-2.3,1.6
					C145.3,198.2,145.2,198.2,145.2,198.2z"/>
				<path class="st25" d="M147.3,189.6c0,0,0,0.9,0,1.1s-0.8,0.3-0.8,0.3s1,5,0.8,5.5c-0.1,0.5-2.1,1.4-2.1,1.4l-0.3-1
					c0,0,1.6-0.6,1.5-0.8s-1.4-5.4-1-5.8C145.8,189.9,147.3,189.6,147.3,189.6 M147.3,188.8c-0.1,0-0.1,0-0.2,0
					c-0.4,0.1-1.7,0.4-2.2,0.9c-0.8,0.7,0.2,4.6,0.6,6c-0.2,0.1-0.6,0.3-0.9,0.4c-0.4,0.1-0.5,0.5-0.4,0.9l0.3,1
					c0.1,0.2,0.2,0.4,0.4,0.4c0.1,0,0.2,0.1,0.3,0.1c0.1,0,0.2,0,0.3-0.1c2.3-1,2.5-1.7,2.5-1.9c0.1-0.4-0.1-2.1-0.7-5.2
					c0.4-0.1,0.7-0.4,0.7-0.9v-1.1c0-0.2-0.1-0.4-0.3-0.6C147.6,188.9,147.5,188.8,147.3,188.8L147.3,188.8z"/>
			</g>
			<path class="st26" d="M133.6,199.2l11.2-3.8c0,0,1.1,0.6,1,2c-0.1,1.4-1,2.1-1,2.1l-10.5,4.1c0,0-1.7-0.1-1.9-1.5
				C132.2,200.6,133.6,199.2,133.6,199.2z"/>
			<path class="st27" d="M133.7,199.4c0.1-0.1,1.1,0.2,1.3,1.5c0.1,1.2-0.6,2.4-0.6,2.4S130.8,202.6,133.7,199.4z"/>
			<g>
				<path class="st24" d="M130.7,203.2c-0.1,0-0.2,0-0.2,0c-0.3-0.1-1-0.2-1.1-5.7l-1.3,0.3c0,0-0.1,0-0.1,0c-0.1,0-0.2,0-0.2-0.1
					c-0.1-0.1-0.1-0.2-0.1-0.3v-1.5c0-0.1,0.1-0.3,0.2-0.3c0.1-0.1,1.4-0.7,2.2-0.7c0.2,0,0.4,0.1,0.6,0.2c0.4,0.3,0.8,2.3,1,5.8
					l2-0.5c0,0,0.1,0,0.1,0c0.1,0,0.1,0,0.2,0c0.1,0,0.4,0.2,0.4,0.9c0,0.7-0.4,0.9-0.4,1C133.5,202.4,131.6,203.2,130.7,203.2z"/>
				<path class="st25" d="M129.9,195.2c0.1,0,0.3,0,0.4,0.1c0.5,0.4,0.8,6,0.8,6l2.5-0.6c0,0,0.2,0.1,0.2,0.6c0,0.5-0.2,0.6-0.2,0.6
					s-2,0.8-2.9,0.8c-0.1,0-0.1,0-0.2,0c-0.7-0.1-0.8-5.8-0.8-5.8l-1.8,0.4v-1.5C127.9,195.9,129.2,195.2,129.9,195.2 M129.9,194.5
					c-0.9,0-2.1,0.6-2.4,0.7c-0.2,0.1-0.4,0.4-0.4,0.7v1.5c0,0.2,0.1,0.4,0.3,0.6c0.1,0.1,0.3,0.2,0.5,0.2c0.1,0,0.1,0,0.2,0
					l0.9-0.2c0.1,2.4,0.3,5.4,1.4,5.6c0.1,0,0.2,0,0.3,0c0.9,0,2.8-0.7,3.2-0.9c0,0,0,0,0.1,0c0.1-0.1,0.6-0.4,0.6-1.3
					c0-0.7-0.3-1.1-0.7-1.3c-0.1,0-0.2-0.1-0.3-0.1c-0.1,0-0.1,0-0.2,0l-1.6,0.4c-0.3-5.1-0.8-5.5-1.1-5.7
					C130.5,194.6,130.2,194.5,129.9,194.5L129.9,194.5z"/>
			</g>
		</g>
		<path class="st28" d="M123.8,195.1c0.3-0.7,1-1.1,2.2-1.2c1.3-0.2,1.7,0.1,1.7,0.1s0.9,1.2,0.8,3c0,1.4-0.8,2.1-0.8,2.1
			s-2.3,0.7-3.2,0.4C123.5,199.3,123,196.6,123.8,195.1z"/>
		<path class="st28" d="M146.9,188.2c0,0,0.2-1.3,2.8-1.3c0.7,0,2,1.2,1.9,2.7c-0.1,1.9-1,2.1-2,2.4c-1.1,0.3-1.6,0-1.6-0.3
			s0.2-1.1,0-1.9C147.7,188.8,146.9,188.2,146.9,188.2z"/>
	</g>
	<polygon class="st24" points="41.2,129.9 34,141.3 63.9,143.1 72.1,131.2 	"/>
</g>
</svg>
