<?xml version="1.0" encoding="utf-8"?>
<!-- Generator: Adobe Illustrator 20.1.0, SVG Export Plug-In . SVG Version: 6.00 Build 0)  -->
<svg version="1.1" id="Layer_1" xmlns="http://www.w3.org/2000/svg" xmlns:xlink="http://www.w3.org/1999/xlink" x="0px" y="0px"
	 viewBox="0 0 546.8 356.4" style="enable-background:new 0 0 546.8 356.4;" xml:space="preserve">
<style type="text/css">
	.st0{opacity:0.2;}
	.st1{fill:#020202;}
	.st2{fill:#231F20;}
	.st3{fill:#54A7DC;stroke:#000000;stroke-miterlimit:10;}
	.st4{fill:none;stroke:#000000;stroke-width:7.5312;stroke-linecap:round;stroke-linejoin:round;stroke-miterlimit:10;}
	.st5{fill:#F79CE4;}
	.st6{opacity:0.24;fill:#7E4984;}
	.st7{fill:#BC80B6;}
	.st8{fill:#D895D5;}
	.st9{fill:#E8C89A;}
	.st10{fill:#987874;}
	.st11{fill:none;stroke:#231F20;stroke-width:2.2726;stroke-miterlimit:10;}
	.st12{fill:#D895D5;stroke:#020202;stroke-width:1.1363;stroke-miterlimit:10;}
	.st13{fill:none;stroke:#231F20;stroke-width:1.5062;stroke-miterlimit:10;}
	.st14{fill:none;stroke:#231F20;stroke-width:1.1363;stroke-miterlimit:10;}
	.st15{fill:#937760;stroke:#231F20;stroke-width:0.7343;stroke-miterlimit:10;}
	.st16{fill:#E8DFAC;}
	.st17{fill:#B7915E;}
	.st18{fill:#EFBDE8;}
	.st19{fill:#E7DCE6;}
	.st20{fill:#F7D7B0;}
	.st21{fill:#F7EDE4;}
	.st22{fill:#D661F2;}
	.st23{fill:#46C8F5;stroke:#000000;stroke-miterlimit:10;}
	.st24{opacity:0.45;fill:#54A7DC;}
	.st25{fill:#FFFFFF;}
	.st26{fill:#BFC1CA;}
	.st27{fill:#45C7F4;}
	.st28{stroke:#000000;stroke-width:1.033;stroke-miterlimit:10;}
	.st29{fill:#FFFFFF;stroke:#000000;stroke-miterlimit:10;}
	.st30{fill:#54A7DC;}
	.st31{fill:none;stroke:#000000;stroke-width:6.25;stroke-linecap:round;stroke-linejoin:round;stroke-miterlimit:10;}
	.st32{fill:none;stroke:#000000;stroke-width:0.75;stroke-linecap:round;stroke-linejoin:round;stroke-miterlimit:10;}
	.st33{fill:#54A7DC;stroke:#0A0803;stroke-linecap:round;stroke-linejoin:round;stroke-miterlimit:10;}
	.st34{fill:#2C5328;}
	.st35{fill:none;stroke:#000000;stroke-width:0.7045;stroke-linecap:round;stroke-linejoin:round;stroke-miterlimit:10;}
	.st36{fill:#86C564;stroke:#020202;stroke-width:0.8864;stroke-miterlimit:10;}
	.st37{opacity:0.45;fill:#35D335;}
	.st38{fill:none;stroke:#020202;stroke-width:0.886;stroke-linecap:round;stroke-linejoin:round;stroke-miterlimit:10;}
	.st39{fill:#86C564;}
	.st40{fill:#86C564;stroke:#020202;stroke-miterlimit:10;}
	.st41{opacity:0.67;}
	.st42{opacity:0.67;fill:#494949;}
	.st43{fill:#57B847;}
	.st44{fill:#40873F;}
	.st45{fill:#30A449;}
	.st46{fill:#283D69;}
	.st47{fill:#1B2B4D;}
	.st48{fill:#2F2F2F;}
	.st49{fill:#FFD803;}
	.st50{fill:#F7AC0C;}
	.st51{opacity:0.5;fill:#3C3C3C;}
	.st52{fill:#5298CC;stroke:#111621;stroke-width:0.7281;stroke-miterlimit:10;}
	.st53{fill:#71B3DB;}
	.st54{fill:#86C564;stroke:#020202;stroke-width:0.886;stroke-linecap:round;stroke-linejoin:round;stroke-miterlimit:10;}
	.st55{fill:#1C1C1C;}
	.st56{fill:#4F514F;}
	.st57{fill:#999999;}
	.st58{fill:#EDB545;}
	.st59{fill:#B7915E;stroke:#000000;stroke-width:3;stroke-miterlimit:10;}
	.st60{fill:#9B5CAA;}
	.st61{fill:#594532;}
	.st62{fill:#594034;}
	.st63{fill:#996441;stroke:#231F20;stroke-width:2;stroke-miterlimit:10;}
	.st64{opacity:0.25;fill:#996441;}
	.st65{fill:#996441;}
</style>
<g>
	<path class="st0" d="M44.2,343.4c11.7,1.9,25.9,2.8,42.6,2.8c16.6,0,30.9-0.9,42.6-2.8c11.8-2,17.7-4.3,17.7-7c0-2.6-5.9-5-17.7-7
		c-5.5-0.8-11.6-1.6-18.3-2c-3.8-0.3-7.8-0.5-12-0.6c-3.9-0.2-8-0.2-12.3-0.2c-4.5,0-8.7,0-12.8,0.2c-5.1,0.1-9.9,0.5-14.6,0.8
		c-4.4,0.4-8.6,0.9-12.6,1.5c-0.9,0.1-1.7,0.2-2.6,0.3c-11.8,2-17.6,4.4-17.6,7c0,2.4,4.5,4.5,13.3,6.2
		C41.3,342.9,42.7,343.1,44.2,343.4z"/>
	<g>
		<g>
			<path class="st1" d="M365.9,319.6c-0.3,0-0.5,0-0.8-0.1c-0.1,0-0.2,0-0.3-0.1c-1.5-0.4-3.4-1.4-5.9-3.3c-0.2-0.2-0.4-0.3-0.7-0.5
				c-1.5-1.2-3.3-2.7-5.1-4.3c-0.6-0.6-0.9-0.8-1.1-1c-1.5-1.2-3.2-1.7-5.3-1.7l-0.6,0c-1.1,0-1.5-0.5-1.7-1
				c-0.2-0.5-0.1-1.2,0.3-1.6c0.1-0.2,0.3-0.5,0.6-0.9c2.4-3.8,4.9-7.6,7.7-7.6c0.5,0,1,0.1,1.4,0.4c2.9,1.6,7,5.9,10,9.1
				c0.1,0.1,0.2,0.2,0.3,0.3c0.5-1,1.2-2.4,1.9-3.7c-1.6-0.1-2.4-0.2-2.4-0.2c-0.5-0.1-1-0.4-1.2-0.9c-0.1-0.3-3.6-8-2.8-19.6
				c0.1-1.8,0.3-3.5,0.7-4.8c0.5-2.4,1.3-5.2,2.5-8.4l-8.6-1.6l-2.3,9.1c1,0.9,2.5,2.7,2.1,4.5c-0.3,1.2-1.2,2-2.3,2.1
				c-0.3,0.8-0.9,1.8-2.2,2.8c-1.1,0.8-2.4,1.3-3.7,1.3c-1.6,0-3.1-0.7-4.1-2c-1.1-1.4-1.4-3.2-0.9-5c0.6-2.3,2.5-3.5,3.4-4
				c0,0,0,0,0.1,0c0.5-2.2,2.4-9.8,3.7-13.9c-0.1,0-0.2,0.1-0.3,0.1c-0.1,0-0.2,0-0.3,0c-0.3,0-0.6-0.1-0.9-0.3
				c-0.2-0.1-3.7-2.9-9-9.9c-7.2-9.7-9.2-17.9-9.6-22.9l-4.1,5.9c-0.3,0.4-0.7,0.6-1.2,0.6c0,0,0,0,0,0c-0.5,0-1-0.3-1.2-0.7
				c-0.3-0.5-7.4-11.5-6.1-24.4c0.6-5.8,1.8-10.7,3.6-14.3c-1.1-0.4-2.1-0.9-3-1.4c-5-2.5-5.4-3.8-5.6-4.3
				c-5.2-16.1,14.1-41,14.9-42.1c0.3-0.4,0.7-0.6,1.2-0.6c0.1,0,0.3,0,0.4,0.1c0.6,0.2,1,0.7,1.1,1.3l1.2,15.1l6.5-1.3
				c6.1-6.4,13.9-11.8,23.4-16.1l-10.3-5.6c-0.5-0.3-0.8-0.9-0.8-1.4c0.1-0.6,0.4-1.1,1-1.3c0.1,0,2.5-0.8,7.1-0.8
				c1.4,0,2.9,0.1,4.3,0.2c4.8,0.5,13.3,1.9,16.5,3.4c0.1,0,0.2,0,0.4,0.1l20.5-16.6c0.3-0.2,0.6-0.3,0.9-0.3c0.3,0,0.7,0.1,0.9,0.3
				c0.6,0.4,0.7,1.2,0.4,1.8l-6.3,12.8c1.2-0.5,2.7-1,4.8-1.4c1-0.2,2.2-0.3,3.5-0.3c4,0,8,0.9,8.2,0.9c0.6,0.1,1.1,0.6,1.2,1.3
				c0.1,0.6-0.2,1.2-0.8,1.5c-2.6,1.3-5.5,3-7.4,4.2c5.4,1.8,10.2,4,14.6,6.5c0.6-0.2,1.1-0.4,1.4-0.5c0.3-2,1-7.6,1.4-11.2
				c0.1-0.4,0.3-0.8,0.6-1c0.1-0.1,0.3-0.3,0.5-0.4s0.4-0.1,0.6-0.1c0.6,0,1.1,0.3,1.4,0.9c0.1,0.2,2.5,5.6,4.4,11.1
				c0.8,2.4,1.8,7.3,2.5,11.4c4.3,4.5,7.6,9.6,10.1,15.6c0.4,1,0.1,2-1.1,2.9l0.5,1c0,0,0.1,0.2,0.3,0.6l6.1-10.3
				c0.2-0.4,0.6-0.6,1-0.7c0.1,0,0.2,0,0.3,0c0.3,0,0.6,0.1,0.9,0.3l7,5.2c0.6,0.4,0.8,1.3,0.4,1.9c-0.1,0.1-6,11-11.4,20
				c0.3,2.5,0.5,4.9,0.5,7.4c0.1,0.2,0.2,0.5,0.2,0.8c0,0.4,0,1,0.1,1.7c0.2,2.3,0.5,6.1-0.8,12.7c-2,12.1-6.9,18-7.1,18.2
				c-0.3,0.3-0.7,0.5-1.2,0.5c-0.2,0-0.3,0-0.5-0.1c-0.6-0.2-1-0.7-1-1.4l-0.1-1.5c-2.7,3.9-7.5,9.5-15.3,14.6c0,0.9,0,2-0.2,3.3
				c0.7,3.7,1.6,7,2.6,9.8c4.3,11.7,7.6,17.6,8.1,18.5c3.1-0.2,5.5-0.3,7.2-0.3c0.8,0,1.5,0,1.9,0.1c3.2,0.4,4.1,5.5,5.2,11.4
				c0.4,2.1,0.8,4.1,1.2,5.7c1,3.3,2.1,3.6,3.1,3.8c0.4,0.1,0.9,0.3,1.4,0.6c0.6,0.5,0.8,1.3,0.5,2.1c-0.9,2.4-9.4,5.2-11.3,5.2l0,0
				c-0.2,0-0.9,0-1.4-0.5c-0.7-0.6-1.6-2-2.5-7c-0.1-0.4-1.9-11.3-1.9-11.3l-1.4,0.1c-9.5,1.3-11.9,1.5-12.7,1.5
				c-7,4.4-15.1,6.9-24.2,7.5c-6.9,0.5-13.4,0.7-19.2,0.8c-3.3,6-7.3,13.1-8.6,14.7C367.9,319,367.2,319.6,365.9,319.6z
				 M351.1,259.9c2.2,0,10,1.1,15.4,2c0.2-0.4,0.3-0.7,0.5-1.1c-5.3-1.3-9.9-3.2-13.5-5.4c-0.2,0.3-0.4,0.6-0.7,1
				c-0.9,1.3-1.7,2.6-2.2,3.6C350.7,259.9,350.9,259.9,351.1,259.9z"/>
			<path class="st2" d="M399.1,126.9l-8.9,18.1c-0.1,0-0.1,0-0.1,0c0,0,0,0,0.1,0c0.1,0,0.1,0,0.1,0c0,0-0.1,0-0.1,0
				c2.4-2.2,3.4-3.5,9-4.6c1-0.2,2.1-0.3,3.2-0.3c3.9,0,7.9,0.9,7.9,0.9s-8.8,4.5-9.8,6.1c6.9,2.1,12.6,4.6,17.5,7.6
				c1.6-0.6,2.9-1.1,2.9-1.1c0.1,0,1.6-12.1,1.6-12.1s1.4,3.2,2.9,7.1c-1.2-3.8-2.7-7.4-2.7-7.4s2.4,5.4,4.4,11
				c0.9,2.5,1.9,8.1,2.6,11.6c4.6,4.8,7.8,10.1,10.2,15.5c0.2,0.5-0.5,1.1-1.6,1.7l1,2.2c0,0,0.6,1.2,1.3,3.4l7.6-13l7,5.2
				c0,0-6.2,11.2-11.7,20.4c0.4,2.9,0.6,6.1,0.5,9.4c0,0.1,0,0.3,0,0.4c0.1-0.4,0.1-0.9,0.2-1.3c-0.1,2,1,5.7-0.7,14.1
				c0,0,0,0.1,0,0.1c-2,11.7-6.7,17.4-6.7,17.4l-0.3-6.5c-1,2.1-6,11.2-18.1,18.9c0,0.9,0.2,2.3-0.2,4.1c0.6,3.5,1.5,7,2.7,10.3
				c4.8,13,8.3,18.8,8.3,18.8c0,0.1-0.2,0.4-0.4,0.7c3.2-0.2,6.6-0.5,8.8-0.5c0.7,0,1.3,0,1.8,0.1c3,0.4,3.7,10.7,5.2,16
				c1.6,5.3,4.2,4.5,4.9,5.2c1.4,1.1-7.7,4.6-9.8,4.6c-0.2,0-0.3,0-0.4-0.1c-0.8-0.7-1.5-3.2-2-6.2v0l0,0c-0.1-0.3-0.1-0.6-0.2-1
				l-1.9-11.6c-0.6,0-1.6,0.1-2.8,0.2c-4.2,0.6-11.8,1.5-12.8,1.5c-0.1,0-0.1,0-0.1,0c-5.5,3.5-13.3,6.8-23.8,7.5
				c-8.4,0.6-15,0.7-20,0.8c-2.5,4.7-7.5,13.5-8.8,15.2c-0.3,0.3-0.7,0.5-1.2,0.5c-0.2,0-0.4,0-0.6-0.1l0,0c0,0,0,0,0,0
				c-1.5-0.3-3.4-1.5-5.5-3c-0.2-0.2-0.4-0.3-0.6-0.5c-1.8-1.4-3.6-3-5-4.3c-0.7-0.6-1.1-1-1.1-1c-2.4-1.9-5-2.1-6.3-2.1
				c-0.3,0-0.5,0-0.6,0c-0.2,0-0.3,0-0.3-0.1c0.5-0.5,4.4-8,7.2-8c0.2,0,0.5,0.1,0.7,0.2c2.8,1.6,7.2,6.2,9.6,8.8l0,0c0,0,0,0,0,0
				c1.1,1.2,1.7,2,1.7,2s2.1-4.1,3.9-7.8c-3.1-0.1-4.6-0.3-4.6-0.3s-3.5-7.5-2.6-18.9c0.1-1.7,0.2-3.3,0.6-4.6c0,0,0,0,0,0
				c0.6-3,1.8-6.5,3.1-9.9l-11.7-2.1l-2.8,11.4c0,0,2.7,1.9,2.3,3.6c-0.2,0.8-0.7,1-1.2,1c-0.5,0-1-0.3-1-0.3s0.6,1.6-1.7,3.3
				c-0.9,0.7-1.9,1-2.8,1c-2.4,0-4.3-2.2-3.6-5.2c0.6-2.4,3.3-3.2,3.3-3.6c0.1-0.4,3.9-15.7,4.4-16.2c0,0,0.2-0.1,0.5-0.1
				c2.1,0,10.4,1.2,16.3,2.1c0.6-1.3,1.1-2.6,1.7-3.8c-6.3-1.4-11.9-3.7-16-6.4c-0.5,0.7-1.1,1.4-1.5,2.1c-2.1,3.1-3.5,5.9-3.5,5.9
				s0,0,0,0c-0.1,0.1-0.1,0.2-0.1,0.2s-3.5-2.7-8.7-9.6c-11.4-15.4-9.3-26.8-9.3-26.8L323,235c0,0-7.1-10.9-5.9-23.4
				c0.8-7.8,2.6-12.4,4.2-15.2c-1.6-0.6-3.1-1.3-4.4-1.9c-2.8-1.4-4.6-2.6-4.8-3.4c-5-15.6,14.7-40.7,14.7-40.7l1.3,16.8l8.7-1.7
				c6.2-6.7,14.8-12.7,26.1-17.4l-13-7c0,0,2.2-0.8,6.6-0.8c1.2,0,2.6,0.1,4.2,0.2c4.8,0.5,13.5,2,16.3,3.4c-0.2,0-0.4,0.1-0.3,0.1
				c0,0,0.1,0,0.4,0c0,0,0.1,0,0.1,0c0.4,0,0.4,0.6,0.2,0.9L399.1,126.9 M419.8,294.1C419.8,294.1,419.8,294.1,419.8,294.1
				c0.1-0.1,0.3-0.2,0.6-0.3c0,0-0.1,0-0.1,0C420.1,293.9,420,294,419.8,294.1L419.8,294.1L419.8,294.1
				C419.8,294.1,419.8,294.1,419.8,294.1 M399.1,123.9c-0.7,0-1.3,0.2-1.9,0.7l-19.9,16.1c-4-1.6-12.4-2.9-16.4-3.3
				c-1.5-0.2-3.1-0.2-4.5-0.2c-4.7,0-7.3,0.8-7.5,0.9c-1.1,0.4-1.9,1.4-2,2.6c-0.1,1.2,0.5,2.3,1.6,2.9l7.7,4.2
				c-8.3,4.1-15.3,9.1-20.9,14.8l-4.4,0.9l-1-13.4c-0.1-1.2-0.9-2.3-2.1-2.6c-0.3-0.1-0.6-0.1-0.9-0.1c-0.9,0-1.8,0.4-2.4,1.1
				c-0.8,1.1-20.6,26.6-15.2,43.5c0.4,1.2,1.4,2.7,6.3,5.1c0.5,0.3,1.1,0.5,1.6,0.8c-1.5,3.6-2.6,8.1-3.1,13.4
				c-1.3,13.4,6,24.9,6.3,25.3c0.5,0.8,1.5,1.3,2.5,1.4c0,0,0,0,0.1,0c1,0,1.9-0.5,2.5-1.3l2-2.8c1,5.1,3.6,12,9.4,19.9
				c5.4,7.2,9.1,10.1,9.3,10.2c0.1,0.1,0.3,0.2,0.5,0.3c-0.3,1.2-0.7,2.7-1.2,4.6c-0.6,2.3-1.4,5.3-1.8,7c-1.1,0.7-2.9,2.2-3.6,4.6
				c-0.6,2.3-0.2,4.6,1.2,6.3c1.3,1.7,3.2,2.6,5.3,2.6c1.6,0,3.2-0.6,4.6-1.6c1.1-0.9,1.9-1.8,2.4-2.7c1.3-0.4,2.3-1.5,2.7-3
				c0.6-2.2-0.7-4.1-1.9-5.4l1.7-6.9l5.4,1c-0.9,2.5-1.5,4.8-1.9,6.8c-0.4,1.5-0.6,3.2-0.7,5.2c-0.6,8.6,1.1,15.1,2.1,18.2
				c-2-1.9-4-3.6-5.7-4.6c-0.7-0.4-1.4-0.6-2.1-0.6c-3.5,0-6.3,4.1-8.9,8.3c-0.2,0.3-0.4,0.6-0.5,0.8c-0.7,0.9-0.9,2.1-0.5,3.1
				c0.2,0.6,1,1.9,3.1,1.9l0.3,0c0.1,0,0.2,0,0.4,0c1.1,0,2.7,0.1,4.3,1.4c0.2,0.2,0.5,0.5,1.1,1c1.9,1.7,3.6,3.2,5.2,4.4
				c0.2,0.2,0.5,0.4,0.7,0.5c2.7,2,4.8,3.1,6.5,3.5c0.1,0,0.1,0,0.2,0l0,0c0.4,0.1,0.8,0.1,1.2,0.1c1.4,0,2.6-0.6,3.5-1.6
				c1.1-1.3,3.9-6.1,8.3-14.2c5.6,0,11.8-0.3,18.4-0.7c9.2-0.6,17.4-3.2,24.5-7.5c1.2-0.1,4.1-0.4,12.3-1.5l1.5,8.9
				c0.1,0.3,0.1,0.7,0.2,1c0.9,5.2,1.8,7,2.9,7.9c0.6,0.6,1.4,0.8,2.4,0.8c2,0,5.5-1.4,6.6-1.8c4.7-1.9,5.7-3.2,6.1-4.4
				c0.5-1.3,0.1-2.8-1-3.7c-0.7-0.6-1.4-0.8-2-0.9c-0.7-0.2-1.3-0.4-2-2.8c-0.4-1.5-0.8-3.4-1.2-5.5c-1.2-6.5-2.3-12.1-6.5-12.6
				c-0.5-0.1-1.2-0.1-2.1-0.1c-1.5,0-3.6,0.1-6.3,0.3c-1.1-2.1-3.9-7.7-7.5-17.4c-1-2.7-1.8-5.8-2.5-9.3c0.1-0.9,0.2-1.8,0.2-2.5
				c6-4.1,10.2-8.4,13.1-12c0.3,0.4,0.8,0.7,1.3,0.8c0.3,0.1,0.6,0.2,1,0.2c0.9,0,1.7-0.4,2.3-1.1c0.2-0.3,5.3-6.4,7.4-18.8l0-0.1
				c1.4-6.8,1.1-10.8,0.9-13.1c-0.1-0.6-0.1-1.2-0.1-1.5c0-0.5-0.1-0.9-0.2-1.3c0-2.2-0.2-4.5-0.5-6.7c5.3-8.9,11.1-19.5,11.2-19.6
				c0.7-1.3,0.4-3-0.9-3.9l-7-5.2c-0.5-0.4-1.1-0.6-1.8-0.6c-0.2,0-0.4,0-0.6,0.1c-0.8,0.2-1.6,0.7-2,1.4l-3.3,5.5
				c-2.5-5.8-5.8-10.8-9.9-15.2c-0.8-4.3-1.7-8.8-2.5-11.2c-1.9-5.6-4.3-11-4.5-11.2c-0.5-1.1-1.6-1.8-2.7-1.8
				c-0.4,0-0.8,0.1-1.2,0.3c-0.3,0.2-0.6,0.4-0.9,0.6c-0.6,0.5-1,1.2-1.1,2c-0.5,3.8-1,8-1.3,10.2c-3.4-1.9-7.1-3.6-11.2-5.2
				c1.4-0.8,3.1-1.7,4.5-2.5c1.1-0.6,1.8-1.8,1.6-3c-0.2-1.3-1.1-2.3-2.3-2.5c-0.2,0-4.4-1-8.5-1c-1.4,0-2.7,0.1-3.8,0.3
				c-0.6,0.1-1.1,0.2-1.6,0.3l4.7-9.6c0.6-1.3,0.3-2.8-0.8-3.7C400.4,124.1,399.8,123.9,399.1,123.9L399.1,123.9z M399.1,129.9
				L399.1,129.9L399.1,129.9L399.1,129.9z M353.1,258.5c0.2-0.4,0.5-0.8,0.8-1.2c1,0.6,2.1,1.1,3.3,1.7
				C355.7,258.8,354.3,258.6,353.1,258.5L353.1,258.5z"/>
		</g>
		<path class="st3" d="M416,256.1c0,0,21.1-46.3,26.2-54.6c5.8-9.5,13.1-22.8,13.1-22.8l-7-5.2l-12,20.3l-26.4,49.5L416,256.1z"/>
		<g>
			<g>
				<path class="st4" d="M535.3,96.2L535.3,96.2L535.3,96.2l0.3-10.6l0.2-2.1l-0.1,0l0-0.2l0,0l0,0l0-0.2l-74.8-9.3L429,69.6l0,0.2
					l-0.5-0.1l0,0l-0.4-0.1l-0.9,11.2l-18.7,3.2c-4.3,0.7-7.7,1.2-7.7,1.2l0.4,0.1l-4.2,0.7l-0.6-0.1l1.7-0.8c0,0-11.6-6-14.6-6
					c-3.1,0-42,18-42,18s4.2,0.2,8.5,1c4.3,0.8,9,5.9,9,5.9l-2,1l2.1-1l2.1,0.4l-1.7,0.9l-1.3-0.2l0,0.9l-0.1,0.1l-10.4,57.2l0,0.7
					c1.3-0.2,48.2,7.1,78.7,12.2l43.6,7l0.1-0.1c1.2,0.2,1.9,0.3,1.9,0.3l29.5-23.5l-2.8-34.4l12.1-8.3c0,0-1.1-4.8-4-7.6
					c-2.9-2.9-5.6-4.2-5.6-4.2l0,0l0-0.1L535.3,96.2z"/>
				<polygon class="st5" points="357.5,107 347.1,164.2 469.4,184.1 500.9,160.5 500.5,106.2 535,97 535.3,84.1 427.7,70.5 
					426.8,81.6 393.1,87.5 				"/>
				<polygon class="st6" points="358,106.1 469.2,126.3 469.7,183.3 347.8,162.9 				"/>
				<polygon class="st7" points="358.6,104.8 469.2,126.3 499.4,106.1 396.1,86.7 				"/>
				<polygon class="st8" points="428.7,70.3 535.5,84.2 534.6,95.4 501.7,105.2 404,85.8 426.9,81.5 				"/>
				<path class="st9" d="M372.3,107.8c0,0-1-1.5-0.4-5.1c0.6-3.6,4.9-8.6,8.8-9.3s14,0.9,14,0.9s7.1,3.2,8.2,4.8
					c1.1,1.6,2.5,4.3,2.4,4.2c-0.1-0.1,9.5-11.9,18.8-9c9.4,3,14.5,5.9,15.8,8c1.3,2.1,3.2,8.1,2.9,10.5c-0.3,2.4-2.5,6.7-2.5,6.7
					L372.3,107.8z"/>
				<path class="st10" d="M375.7,99.2c0,0,4.6-5.5,8.3-6.1c3.7-0.5,9.9,0.3,13,2.7c3,2.4,7.3,4.5,6.6,6.5c-0.7,2,2.4,6.1,1.2,7.2
					c-1.2,1.2-1,2.8-2.4,3.2c-1.4,0.4-5.9-0.1-5.8-2.5c0-3.2-3.2-1.4-2.1-3.5c1.5-2.9,1.7-4.5,0.6-5.3c-1.1-0.8-2.3,0.9-5,0.9
					c-1.7,0-3.2-0.2-4.3-0.4c-1.3-0.3-2.5,0.8-2.5,2.2l-0.8,1c-0.6,0.7-0.5,1.8,0.2,2.4l2.4,2.1l-7.4-0.8c0,0-3.6,0.8-3.5-0.1
					C374.3,107.9,377.2,101.5,375.7,99.2z"/>
				<g>
					<path class="st11" d="M347.2,164.8c2.1-0.3,124.2,19.4,124.2,19.4l-2.1-58.9l-111.5-19.5L347.2,164.8z"/>
					<polygon class="st11" points="500.5,106.3 500.9,160.8 471.4,184.3 469.2,126.3 469.2,125.4 					"/>
					<path class="st11" d="M500.6,105.1"/>
					<path class="st12" d="M356.6,105.8l41.2-19.9c0,0-11.6-6-14.6-6c-3.1,0-42,18-42,18s4.2,0.2,8.5,1c4.3,0.8,9,5.9,9,5.9"/>
					<path class="st13" d="M465.3,98.1l36.4,7.2l29.9-8c0,0-103.6-16.3-104.7-15.7c-1.1,0.6-26.4,4.4-26.4,4.4l23.2,4.8"/>
					<polygon class="st13" points="428.2,70.4 535.4,83.8 535,96.9 426.9,81.5 					"/>
					<line class="st14" x1="357.7" y1="112.1" x2="468.8" y2="131.4"/>
					<line class="st14" x1="468.8" y1="131.4" x2="499.7" y2="112.8"/>
				</g>
				<path class="st15" d="M442.6,108.1l-2.2-5l-6.3-5.8c0,0,0.8-4.2,3-7.3c2.2-3.2,6.4-7.9,12.1-8.1c5.7-0.2,11,2.3,13,5.2
					c2,2.9,3.1,5.8,3,7.4c-0.1,1.6-0.6,5.3-0.6,5.3s3.3,1.7,5.1,3.1s4.7,5,5,7.9c0.3,2.9,0,6.8,0,8.2s-2.5,4.1-2.5,4.1l-3.4,2.2
					l-7.8-1.8c0,0,2.7-6.3,0.3-8.4c-2.4-2.1-5.7-1.5-5.7,0.9c-0.1,2.5,0,7.1,0,7.1l-14.6-4C440.9,119.1,443.6,112.9,442.6,108.1z"/>
				<path class="st16" d="M434.6,97.6c0.2-0.5,1.3-1.7,3.9-8.4c1.1-2.9,7.2-7.9,14.3-6.3c7.1,1.6,9.3,7.1,9.3,7.9
					c0,2.4,0.9,6.9,0.9,6.9l-10.3,1.6l-9.4,7.7L434.6,97.6z"/>
				<path class="st12" d="M483.7,136.3l26.4-18.1c0,0-1.1-4.8-4-7.6c-2.9-2.9-5.6-4.2-5.6-4.2l-31.3,20.1c0,0,7.2,2,9.6,3.6
					C482,131.9,483.7,136.3,483.7,136.3z"/>
				<path class="st17" d="M395.9,93.6c0,0,1.1-10.3,12.9-10.7c11.9-0.4,13.7,2.1,15,4.2c1.3,2.1,1.5,7.4,1.5,7.4s-5.6-1.2-10,0.5
					c-4.4,1.7-8.8,7.7-8.8,7.7S400.4,94.3,395.9,93.6z"/>
				<path class="st18" d="M445,107.5c0,0,5.5-6.6,9.8-7.2c4.4-0.6,10.7,0.8,14.3,3.6c3.6,2.8,4.5,4.3,4.8,6.9
					c0.3,2.6,0,9.7-0.4,10.4c-1,1.7-3.8,3-3.8,3c-1.6,0.5-3.4-0.7-6.6-1.2c-2.7-0.4,1.9-1,1.2-3.8s0.9-4.3-0.4-5.2
					c-1.3-0.9-1.2-3.1-3.3-2.4c-0.3,0.1-1.3,0.3-2.3,0.3c-1,0-1.9,0.7-2.2,1.6c-0.1,0.4-0.4,0.7-0.7,1l-0.7,0.6
					c-0.8,0.6-1.1,1.6-0.9,2.6l1,4.4l-7.6-2c0,0-3.9-0.2-3.8-1.3C443.4,117.8,446.8,110.2,445,107.5z"/>
				<path class="st19" d="M399.3,89.1c0,0,3.1-5,6.7-5.5c3.7-0.5,8.6-0.6,12.1,1c4.1,1.8,7.1,7.3,5.7,8.8c-1.2,1.3-8.5,2.4-9.7,2.8
					c-3.3,1.1,1.2-2.8,0.9-4.1c-0.5-2.2-2.5,0.1-3.5-1.6c-1.2-2-3.2,0.4-3.4,0.4c-1.5,0.1-3.4-0.8-3.6,1.7c-0.1,0.9,1.9,3.5,0.9,3.6
					l0,0c-0.7,0-1.2,0.7-1.1,1.3l0.8,4.9l-4.4-4.7c0,0-2.9-1.2-2.8-2.1C398.1,94.6,397.3,92.5,399.3,89.1z"/>
			</g>
			<g>
				<polygon class="st20" points="389,97 388.7,99.8 391,98.7 390.6,97.2 				"/>
				<path class="st20" d="M381.7,97.5c0,0,1.2,2,1.4,2.8l1.8-2.4l-1.4-0.8L381.7,97.5z"/>
				<polygon class="st20" points="397.8,103.4 399.7,104 400,101.6 398,101.4 				"/>
				<path class="st20" d="M423.1,108.5c0.1-0.1-1.4-1-1.4-1l-0.3,2.8l1.5,0.2C422.9,110.4,423,108.5,423.1,108.5z"/>
				<path class="st20" d="M400,108.3l2.1,1l0.1-1.1c0,0-1.3-0.9-1.6-1.3S400,108.3,400,108.3z"/>
				<polygon class="st20" points="378.9,106.1 378.4,102.7 380.1,102.7 380.1,104.5 				"/>
				<polygon class="st20" points="396.9,98.7 394.1,96.9 395.1,95.9 397.8,97.5 				"/>
			</g>
			<g>
				<polygon class="st21" points="445.5,86.7 445.5,88.8 447.1,87.8 446.7,86.7 				"/>
				<polygon class="st21" points="450.7,96.6 452.3,95.6 452.3,97.7 451,97.7 				"/>
				<polygon class="st21" points="456,95.8 457.7,94.9 457.6,96.9 456.3,96.6 				"/>
				<polygon class="st21" points="449.6,88.5 449.6,90.6 451.2,89.5 450.8,88.5 				"/>
				<polygon class="st21" points="440.4,92.4 440.4,94.5 442.1,93.4 441.7,92.4 				"/>
				<path class="st21" d="M454.9,88.8c0,0,1.1,1.5,1.3,2l1.2-2l-1.1-0.5L454.9,88.8z"/>
				<polygon class="st21" points="448.3,98.1 449.8,98.4 449.8,96.6 448.3,96.5 				"/>
				<path class="st21" d="M464.2,98.3c0.1-0.1-1.1-0.7-1.1-0.7l0,2.1l1.2,0C464.2,99.8,464.1,98.4,464.2,98.3z"/>
				<path class="st21" d="M442.1,97.7l1.7,0.6l0-0.8c0,0-1-0.6-1.3-0.8C442.1,96.4,442.1,97.7,442.1,97.7z"/>
			</g>
			<path class="st22" d="M459.4,103.6l-2.1-0.3c-0.6-0.1-1.1,0.3-1.1,0.9c-0.1,0.6,0.3,1.1,0.9,1.1l2.1,0.3c0.6,0.1,1.1-0.3,1.1-0.9
				C460.4,104.2,460,103.6,459.4,103.6z"/>
			<path class="st22" d="M452.5,103.4l-1.6,0.8c-0.4,0.2-0.6,0.7-0.4,1.1c0.2,0.4,0.7,0.6,1.1,0.4l1.6-0.8c0.4-0.2,0.6-0.7,0.4-1.1
				C453.4,103.4,452.9,103.2,452.5,103.4z"/>
			<path class="st22" d="M463.3,102.4l-1.6,0.8c-0.4,0.2-0.6,0.7-0.4,1.1c0.2,0.4,0.7,0.6,1.1,0.4l1.6-0.8c0.4-0.2,0.6-0.7,0.4-1.1
				C464.2,102.4,463.7,102.2,463.3,102.4z"/>
			<path class="st22" d="M470.8,110.1l-1.7-0.5c-0.4-0.1-0.9,0.1-1.1,0.6c-0.1,0.4,0.1,0.9,0.6,1.1l1.7,0.5c0.4,0.1,0.9-0.1,1.1-0.6
				C471.5,110.7,471.2,110.3,470.8,110.1z"/>
			<path class="st22" d="M467.5,108l-1.7-1.3c-0.4-0.3-1.1-0.3-1.4,0.2c-0.3,0.4-0.3,1.1,0.2,1.4l1.7,1.3c0.4,0.3,1.1,0.3,1.4-0.2
				C468,109,467.9,108.3,467.5,108z"/>
			<path class="st22" d="M452.8,109.9l-1.7-1.3c-0.4-0.3-1.1-0.3-1.4,0.2c-0.3,0.4-0.3,1.1,0.2,1.4l1.7,1.3c0.4,0.3,1.1,0.3,1.4-0.2
				C453.3,110.9,453.3,110.3,452.8,109.9z"/>
			<path class="st22" d="M456.2,106.5l-2.1,0.6c-0.5,0.2-0.8,0.7-0.7,1.3c0.2,0.5,0.7,0.8,1.3,0.7l2.1-0.6c0.5-0.2,0.8-0.7,0.7-1.3
				C457.3,106.7,456.8,106.3,456.2,106.5z"/>
			<path class="st22" d="M469.3,120.7l-1.6-1.4c-0.4-0.4-1.1-0.3-1.4,0.1c-0.4,0.4-0.3,1.1,0.1,1.4l1.6,1.4c0.4,0.4,1.1,0.3,1.4-0.1
				C469.8,121.7,469.7,121,469.3,120.7z"/>
			<path class="st22" d="M469.5,113.8l-2.1,0.6c-0.5,0.2-0.8,0.7-0.7,1.3c0.2,0.5,0.7,0.8,1.3,0.7l2.1-0.6c0.5-0.2,0.8-0.7,0.7-1.3
				C470.6,114,470,113.7,469.5,113.8z"/>
			<path class="st22" d="M449.9,113.9l-2.1,0.6c-0.5,0.2-0.8,0.7-0.7,1.3c0.2,0.5,0.7,0.8,1.3,0.7l2.1-0.6c0.5-0.2,0.8-0.7,0.7-1.3
				C451,114.1,450.4,113.8,449.9,113.9z"/>
		</g>
		<path class="st23" d="M371.6,296.2c0,0.5-6.6,13.5-6.6,13.5s-7.3-8.5-11.4-10.8c-2.7-1.5-7.3,7.3-7.8,7.8
			c-0.4,0.4,3.9-0.9,7.8,2.7c4,3.7,11.6,10.2,13.5,7.9c1.9-2.3,10.4-18.1,10.4-18.1L371.6,296.2z"/>
		<path class="st23" d="M419.8,293.8c-3.1-0.3,16.4-1.7,16.4-1.7s1.1,16.8,3.4,18.8c0.8,0.7,11.6-3.3,10.2-4.6
			c-0.8-0.7-3.4,0.1-4.9-5.2c-1.6-5.3-2.3-15.7-5.2-16c-3.4-0.4-18.5,1.1-18.5,1.1L419.8,293.8z"/>
		<path class="st0" d="M356.8,344.7c11.7,1.9,25.9,2.8,42.6,2.8c16.6,0,30.9-0.9,42.6-2.8c11.8-2,17.7-4.3,17.7-7
			c0-2.6-5.9-5-17.7-7c-5.5-0.8-11.6-1.6-18.3-2c-3.8-0.3-7.8-0.5-12-0.6c-3.9-0.2-8-0.2-12.3-0.2c-4.5,0-8.7,0-12.8,0.2
			c-5.1,0.1-9.9,0.5-14.6,0.8c-4.4,0.4-8.6,0.9-12.6,1.5c-0.9,0.1-1.7,0.2-2.6,0.3c-11.8,2-17.6,4.4-17.6,7c0,2.4,4.5,4.5,13.3,6.2
			C353.9,344.2,355.3,344.4,356.8,344.7z"/>
		<path class="st23" d="M416.8,235.5c0,0-0.5,17.4,4.4,30.4c4.8,13,8.3,18.8,8.3,18.8c-0.5,1.6-11,15.1-33.5,16.6
			c-21.7,1.5-31.6,0.3-31.6,0.3s-3.9-8.3-2.5-20.6c1.3-11.4,12.4-32.3,12.4-32.3L416.8,235.5z"/>
		<path class="st24" d="M418.7,250.8c-0.8,0.5,2.8,9.5-9.6,14.6c-11,4.5-20.7,3.5-20.7,3.5s-2,8.9-1.4,17.2
			c0.6,8.2,3.1,15.7,3.1,15.7s-10.2,0.5-17.2,0s-8.6,0-8.6,0s-4.2-15.8-2-23.4c2.2-7.6,9.3-24.3,9.3-24.3L418.7,250.8z"/>
		<g>
			<g>
				<path class="st25" d="M430.3,168.6l-3.5-0.7l-16.2-11.1l0.9-0.4c6.3-2.4,8.3-3.2,9-3.4c0.2-1.3,1-7.6,1.5-11.8l0.2-1.8l0.8,1.7
					c0,0.1,2.5,5.5,4.4,11c1.2,3.5,2.1,8.7,2.7,12.1c0.3,1.7,0.6,3.4,0.7,3.6l1.1,1.2L430.3,168.6z"/>
				<path d="M422.5,141.3c0,0,2.4,5.4,4.4,11c1.9,5.5,3.1,15.4,3.5,15.9l-3.4-0.7l-15.3-10.5c0,0,9.2-3.5,9.3-3.5
					C421.1,153.4,422.5,141.3,422.5,141.3 M422,137.4l-0.5,3.7c-0.5,3.8-1.2,9.7-1.5,11.5c-1,0.4-3.2,1.2-8.7,3.3l-1.8,0.7l1.6,1.1
					l15.3,10.5l0.2,0.1l0.2,0l3.4,0.7l3.1,0.6l-2-2.2c-0.1-0.5-0.4-2-0.7-3.4c-0.6-3.5-1.5-8.7-2.8-12.2c-1.9-5.5-4.4-11-4.4-11.1
					L422,137.4L422,137.4z"/>
			</g>
			<path class="st26" d="M426.7,156.2c0.8-4.5-3.9-15.2-3.9-15.2s2.4,5.4,4.4,11c1,2.9,2.2,9.6,2.8,12.9l-5.4-3.2
				C424.6,161.7,425.9,160.8,426.7,156.2z"/>
			<g>
				<path class="st27" d="M385.5,261.8c-12.4,0-24.7-3.1-32.3-8c-2.7,3.6-4.8,7.7-4.8,7.8c-0.1,0.1-0.2,0.2-0.3,0.3c0,0-0.1,0-0.1,0
					c-0.1,0-0.2,0-0.3-0.1c-0.1-0.1-3.6-2.8-8.8-9.7c-8.8-11.8-9.7-21.3-9.5-25.2l-5.8,8.3c-0.1,0.1-0.3,0.2-0.4,0.2c0,0,0,0,0,0
					c-0.2,0-0.3-0.1-0.4-0.2c-0.1-0.1-7.2-11.2-5.9-23.7c1.4-14.4,6.3-18.5,7.6-19.3c0.7-18,14.7-34.5,37.5-44.3l-12.1-6.5
					c-0.2-0.1-0.3-0.3-0.3-0.5c0-0.2,0.2-0.4,0.3-0.4c0.1,0,2.4-0.8,6.8-0.8c1.4,0,2.8,0.1,4.3,0.2c4.9,0.5,13.4,2,16.4,3.4
					c0.3,0,0.5,0.1,0.7,0.3l21.1-17.1c0.1-0.1,0.2-0.1,0.3-0.1c0.1,0,0.2,0,0.3,0.1c0.2,0.2,0.2,0.4,0.1,0.6l-7.7,15.7
					c1.5-1.2,3.3-2.2,7.3-3c0.9-0.2,2-0.3,3.3-0.3c3.9,0,7.8,0.9,8,0.9c0.2,0,0.4,0.2,0.4,0.4c0,0.2-0.1,0.4-0.3,0.5
					c-2.9,1.5-7.5,4-9.1,5.4c19.5,6.1,32.3,16.7,38.9,32.3c0.1,0.2,0.2,0.6-0.1,1.1c-1.4,2.1-10.8,4.4-13.6,4.7
					c0.8,0.6,2.1,1.5,3.4,2.2c0.1,0,0.1,0.1,0.2,0.1c0.2,0.3,4.9,6.6,7.6,13.7l-0.3-10.9c0-0.2,0.1-0.4,0.3-0.5c0.1,0,0.1,0,0.2,0
					c0.2,0,0.3,0.1,0.4,0.2c0.1,0.1,8.9,11.9,6.1,30.9c-1.8,12.7-6.9,18.8-7.1,19.1c-0.1,0.1-0.2,0.2-0.4,0.2c-0.1,0-0.1,0-0.2,0
					c-0.2-0.1-0.3-0.3-0.3-0.5l-0.2-5.7c-2.6,4.9-11.3,18.2-31.1,25.3C399.4,260.8,392.6,261.8,385.5,261.8z"/>
				<path d="M399.1,126.7L399.1,126.7 M399.1,126.7l-8.9,18.1c-0.1,0-0.1,0-0.1,0c0,0,0,0,0.1,0c0.1,0,0.1,0,0.1,0c0,0-0.1,0-0.1,0
					c2.4-2.2,3.4-3.5,9-4.6c1-0.2,2.1-0.3,3.2-0.3c3.9,0,7.9,0.9,7.9,0.9s-8.8,4.5-9.8,6.1c22.8,7,33.8,19.1,39.3,32.2
					c0.8,2-11.1,5-13.7,5c-0.1,0-0.2,0-0.2,0c-0.1,0-0.1,0-0.2,0c-1.5,0,3.9,3.2,3.9,3.2s6.5,8.8,8.6,17l-0.5-14.6
					c0,0,8.8,11.5,6,30.5c-1.8,12.7-7,18.8-7,18.8l-0.3-7.8c0,0-7.1,18.2-31.7,26.9c-6,2.1-12.7,3.1-19.4,3.1
					c-12.5,0-25.1-3.3-32.4-8.2c-2.9,3.7-5.2,8.2-5.2,8.2s-3.5-2.7-8.7-9.6c-11.4-15.4-9.3-26.8-9.3-26.8l-6.9,9.8
					c0,0-7.1-10.9-5.9-23.4c1.6-16.1,7.6-19,7.6-19c0.5-16.5,12.7-34,38.1-44.5l-13-7c0,0,2.2-0.8,6.6-0.8c1.2,0,2.6,0.1,4.2,0.2
					c4.8,0.5,13.5,2,16.3,3.4c-0.2,0-0.4,0.1-0.3,0.1c0,0,0.1,0,0.4,0c0,0,0.1,0,0.1,0c0.4,0,0.4,0.6,0.2,0.9l-0.1,0.1
					c0.1,0,0.1-0.1,0.1-0.1L399.1,126.7 M399.1,125.6C399.1,125.6,399.1,125.6,399.1,125.6C399.1,125.6,399.1,125.6,399.1,125.6
					C399.1,125.6,399.1,125.6,399.1,125.6c-0.3,0-0.5,0.1-0.7,0.2l-20.7,16.8c-0.2-0.1-0.4-0.2-0.6-0.2c-3-1.4-11.5-2.9-16.4-3.4
					c-1.5-0.1-2.9-0.2-4.3-0.2c-4.5,0-6.8,0.8-6.9,0.8c-0.4,0.1-0.7,0.5-0.7,0.9c0,0.4,0.2,0.8,0.5,1l11.1,6
					c-22.3,9.9-36,26.2-36.8,44.1c-1.6,1.2-6.2,5.7-7.6,19.5c-1.3,12.7,5.7,23.6,6,24.1c0.2,0.3,0.5,0.5,0.8,0.5c0,0,0,0,0,0
					c0.3,0,0.7-0.2,0.8-0.4l4.9-7c0.2,4.7,1.8,13.4,9.6,23.9c5.2,7,8.8,9.7,8.9,9.8c0.2,0.1,0.4,0.2,0.6,0.2c0.1,0,0.2,0,0.2,0
					c0.3-0.1,0.6-0.3,0.7-0.5c0,0,2-3.9,4.5-7.3c7.7,4.9,19.9,7.9,32.2,7.9c7.2,0,14-1.1,19.8-3.1c18.3-6.5,27.1-18,30.5-23.9
					l0.2,3.8c0,0.4,0.3,0.8,0.7,0.9c0.1,0,0.2,0.1,0.3,0.1c0.3,0,0.6-0.1,0.8-0.4c0.2-0.3,5.3-6.5,7.2-19.4
					c2.8-19.2-5.8-30.8-6.2-31.3c-0.2-0.3-0.5-0.4-0.8-0.4c-0.1,0-0.2,0-0.3,0.1c-0.4,0.1-0.7,0.6-0.7,1l0.2,8.1
					c-2.7-6-6.4-10.9-6.6-11.2c-0.1-0.1-0.2-0.2-0.3-0.3c-0.8-0.4-1.6-0.9-2.3-1.4c3.8-0.6,11.4-2.7,12.7-4.7
					c0.3-0.5,0.4-1.1,0.2-1.6c-6.6-15.5-19.1-26-38.3-32.2c1.8-1.2,5.2-3.2,8.2-4.7c0.4-0.2,0.6-0.6,0.6-1c-0.1-0.4-0.4-0.8-0.8-0.9
					c-0.2,0-4.2-0.9-8.1-0.9c-1.3,0-2.4,0.1-3.4,0.3c-2.8,0.6-4.6,1.2-5.9,1.9l6.9-13.9c0.1-0.2,0.1-0.3,0.1-0.5
					C400.1,126.1,399.7,125.6,399.1,125.6L399.1,125.6C399.1,125.6,399.1,125.6,399.1,125.6L399.1,125.6z M399.1,127.7L399.1,127.7
					L399.1,127.7L399.1,127.7z"/>
			</g>
			<g>
				<path class="st25" d="M341.6,200.9c-12.2,0-29-7.2-29.9-10c-2.1-6.6-0.3-15.5,5.5-26.6c4.3-8.2,9.2-14.5,9.3-14.6l0.8-1
					l1.4,17.5l19.3-3.9l0.1,0c0.1,0,14.2,2.1,12.8,20.2c-0.5,6.5-4.4,11.6-7.6,14.7C350.6,199.7,346.7,200.9,341.6,200.9z"/>
				<path d="M326.8,150.1l1.3,16.8l19.8-4c0,0,13.8,1.8,12.4,19.7c-0.5,6.2-4.2,11.2-7.5,14.3c-2.6,2.5-6.6,3.5-11.2,3.5
					c-12.4,0-28.7-7.2-29.5-9.6C307.1,175.2,326.8,150.1,326.8,150.1 M327.6,147.4l-1.6,2c0,0.1-5,6.4-9.3,14.7
					c-5.8,11.2-7.7,20.2-5.5,27c1.1,3.3,18.5,10.3,30.4,10.3c5.3,0,9.3-1.3,11.9-3.8c3.3-3.2,7.3-8.3,7.8-15
					c1.4-18.6-13.1-20.7-13.3-20.8l-0.2,0l-0.2,0l-18.7,3.7l-1.2-15.7L327.6,147.4L327.6,147.4z"/>
			</g>
			<path class="st28" d="M437.9,180c0.2-2.2-77.6,13.7-77.6,13.7s-1.7,6.6,6.7,23.3c7.3,14.6,17.6,22.2,33.9,24
				c13.3,1.5,28.5-2.6,28.5-2.6c7.8-3.1,13.2-15.7,14.4-24.7c2.1-16.6-4.5-30.8-4.5-30.8L437.9,180z"/>
			<path class="st29" d="M413.8,171.6c3.8,5.3,10,7.9,13.9,5.6c3.8-2.2,3.9-8.3,0.1-13.7c-3.8-5.3-10-7.9-13.9-5.6
				S410,166.3,413.8,171.6z"/>
			<path class="st25" d="M416.8,183.8c-2.8,4.8-12.3,19.9-12.3,19.9L385.7,189L416.8,183.8z"/>
			<g>
				<polygon class="st25" points="420,182.8 437.6,179.5 433.2,197.5 				"/>
				<path d="M436.9,180.2l-3.9,16.1l-11.8-13.2L436.9,180.2 M438.4,178.8l-1.7,0.3l-15.7,3l-2,0.4l1.3,1.5l11.8,13.2l1.4,1.6
					l0.5-2.1l3.9-16.1L438.4,178.8L438.4,178.8z"/>
			</g>
			<path class="st25" d="M432.5,230.1l-17.5-18.2l-23,26.1C392,237.9,416.5,245.7,432.5,230.1z"/>
			<path class="st25" d="M376.5,228.5c0,0,6.9-20.5,5.8-20.4s-18.6-2.6-18.6-2.6S368.3,220.2,376.5,228.5z"/>
			<path class="st25" d="M442.5,210.9l-6.6-2l1.4,15.5c0,0,2.5-3.3,4.3-8.7C443,211.1,442.5,210.9,442.5,210.9z"/>
			<ellipse transform="matrix(0.8482 -0.5297 0.5297 0.8482 -26.1585 247.5466)" cx="418.7" cy="169.4" rx="2.7" ry="3.6"/>
			<g>
				<path class="st26" d="M328.4,167l5.2-1c0,0,2.2,9.9,6.6,14.8c4.3,5,16.4,8.9,16.4,8.9s2,0.1,0.4,2.1c-1.2,1.9-3.9,4.5-5.3,5.8
					c-7.1,6.4-26.6,0.8-35.3-3.7C333.2,189.1,328.4,167,328.4,167z"/>
			</g>
			<path class="st30" d="M352.7,198.3c3.6-2.9,5.6-6.6,5.8-7l1.7,1.9c0,0,0,0,0,0s-1,7.8,6.9,23.7c7.3,14.6,17.6,21.9,33.9,24
				c23.5,3,41.2-13.3,43.4-33.4c-0.1,2,1,5.7-0.7,14.1c-2.6,12.6-6.6,17.4-6.6,17.4l-0.2-6.8c0,0-7.3,17.2-31.9,25.9
				c-17.1,6.1-40.5,2.5-51.8-5.2c-2.9,3.7-5.2,8.2-5.2,8.2s-3.5-2.7-8.7-9.6c-11.4-15.4-9.3-26.8-9.3-26.8l-6.9,9.8
				c0,0-7.1-10.9-5.9-23.4c0.8-8.1,2.9-10.8,4.5-13.8C331.4,201,346.1,203.7,352.7,198.3z"/>
			<path d="M410.8,173.7c0,0-2.3-3.4-7.2-5c-8.4-2.9-14.6,4.9-14.6,4.9S402.7,167.4,410.8,173.7z"/>
		</g>
		<path class="st31" d="M368.2,268.2"/>
		<path class="st32" d="M369.7,277.5"/>
		<path class="st32" d="M368.2,268.2"/>
		<path class="st32" d="M366.2,259.5"/>
		<path class="st24" d="M429,285.5c0,0-0.1,2.4-0.5,3.4s-0.6,1.8-0.6,1.8l10.1-1l-0.4,15l-2.1-12.8c0,0-16.8,2.3-15.7,1.8
			C420.9,293.4,426.9,288.6,429,285.5z"/>
		<path class="st24" d="M373.6,306.4c-0.6-0.5-6.1,10.1-6.1,10.1l-2.2,1.2c0,0-3.9-1.7-6.2-3.6c-2.3-1.9-6.6-5.6-6-5.2
			c0.5,0.5,4.6,3.7,8.1,2.2c1.5-0.6,1.8-3.7,2.1-3.5s1.8,2,1.8,2l4.7-8.8l6.4,0.8L373.6,306.4z"/>
		<path d="M385.4,160.6c0,0,10.1,7,17.7,4.4c4-1.4,1.9-6.4,1.9-6.4s0.9,3-2.4,5.4C399.8,166.2,385.4,160.6,385.4,160.6z"/>
		<path class="st27" d="M410.9,155.9l-1-1.3c0,0,0.3-2.7,3-3.4c2.7-0.6,4,0.8,5.3,2.4c1.7,2.1,1.5,2.8,0.8,2.3L410.9,155.9z"/>
		<path d="M419.3,155.3c0,0-2.9-4.6-6.4-4s-3.5,6.6-3.7,5.8c-0.2-0.7-0.8-6.9,3.5-7.4C417.5,149,419.3,155.3,419.3,155.3z"/>
		<path class="st33" d="M373.8,264.5c-0.7-0.4-22.6-3.8-23.2-3.3c-0.6,0.6-4.4,15.8-4.4,16.2c-0.1,0.4-2.7,1.2-3.3,3.6
			c-1.1,4,3,6.7,6.3,4.2c2.3-1.7,1.7-3.3,1.7-3.3s1.8,0.9,2.2-0.7c0.4-1.6-2.3-3.6-2.3-3.6l2.8-11.4l19.2,3.5"/>
	</g>
	<g>
		<g>
			<path class="st1" d="M114.5,316.8c-1.1,0-1.7-0.6-1.9-0.9c-0.9-1.4-8.4-10.8-13.9-10.8l-0.2,0c-1.3,0-2.3,0.1-3.2,0.1
				c-1.8,0-3,0.1-3.9,0.3c-0.9,0.4-1.7,0.8-2.5,1.3c-0.5,0.3-1.1,0.8-1.8,1.4c-3,2.4-7.6,6-12.6,6c-0.2,0-0.4,0-0.6,0
				c-0.4,0-0.8,0-1.3,0c-4.4,0-8.7-1.5-10.6-2.2c-0.9,0.7-2.4,1.7-4.3,2c-0.1,0-0.3,0-0.4,0c-0.8,0-1.5-0.4-2.1-1
				c-0.5-0.4-1-1-1.3-1.8c-1.9-4.5,1.3-10.7,1.7-11.4c1.4-2.9,3.1-4.4,5.2-4.4c1.1,0,2,0.4,2.6,0.7c0.1,0,0.1,0.1,0.2,0.1
				c3-0.5,5-1.6,5.9-9.7c-0.2-0.3-0.4-0.7-0.3-1.2l0.3-2c-1.6,0.4-3.3,0.6-4.8,0.6c-0.5,0-0.9,0-1.3-0.1c-0.9,0-1.5-0.1-2.1-0.3
				c-2.2-0.5-3.9-1.6-5-3c-2.6-3.3-0.4-8.7,0.9-11.5c-0.2-0.6-0.4-1.3-0.5-2c-6.9-0.1-13.8-0.9-20.3-2.3c-0.7-0.2-1.3-0.3-1.9-0.5
				c-0.6-0.2-1.2-0.3-1.8-0.5c0,0-0.1,0-0.1,0c-0.8-0.3-1.6-0.5-2.5-0.8c-0.7-0.2-1.3-0.4-2-0.6c-0.4-0.1-0.8-0.5-0.9-0.9
				c-0.2-0.6-0.4-1.2-0.5-1.8l0-0.2c-3.2-14.5-1.4-31.2,5.3-49.7c0,0,0-0.1,0-0.1c0.1-0.2,0.2-0.4,0.2-0.6c0-0.1-0.1-0.1-0.1-0.2
				l-4.4-18c-0.9-1.6-1.9-3.3-3-5.1c-2.3-3.9-5.3-8.7-8.6-15.2c-1.1-2.2-1.3-4.6-0.3-6.9c3.6-10,19.2-18.4,23.9-20.8
				c15.2-7.6,28.1-10.4,39.9-12.6c8.1-1.5,15.4-2.4,22.2-2.7c1.3-0.1,2.7-0.1,4-0.1c17.5,0,33.8,4.9,43.6,13.1
				c12.2,9.2,18,16.1,18.7,22.2c0.3,2.6-0.3,5.1-2,7.4c-1.1,1.7-2.7,3.1-4.2,4.5c-0.4,0.4-0.9,0.8-1.3,1.2c-2.1,2.1-4.7,4.9-7.7,8.5
				c0,0.3-0.1,0.5-0.3,0.7l-3.2,4.6l-1.1,2.3c3.5,2.9,8.4,7.8,8.1,12.6c-0.1,1.7-0.9,4.1-4,5.9c-0.6,0.3-1.3,0.5-1.9,0.6l-0.2,0
				c-0.5,0-0.9-0.1-1.3-0.2c-1,0.3-2.4,0.6-4.2,0.9c0.1,0.4,0.2,0.8,0.2,1.2c0.2,0.8,0.4,1.7,0.5,2.6c0.6,3.1,1.2,6.4,1.7,9.9
				c0.5,3.3,0.9,6.8,1.2,10.3c0.2-0.1,0.4-0.2,0.6-0.2c0.2-0.1,0.4-0.1,0.7-0.1c0.7,0,1.3,0.3,1.7,0.8c0.4,0.4,0.6,1,0.7,1.6
				c0.8-0.5,1.7-1.1,2.4-1.4c0.7-0.3,2.4-1,4.1-1c2,0,2.8,1,3.1,1.6c0.2,0.3,0.2,0.7,0.2,1c0,0.1,0,0.3-0.1,0.4
				c-0.2,0.8-0.9,2.1-3.9,4.3l0,0c0,0.1,0,0.1,0.1,0.2c0.5,1.9,1.1,5.6-1,8.5c-0.6,0.9-1.7,2.5-3.4,3.6c-0.9,0.6-1.9,1-2.8,1
				c-0.2,0-0.5,0-0.7-0.1c-0.6,0-1.1-0.2-1.6-0.4c-0.3-0.1-0.5-0.3-0.8-0.4l-2.4,1.1c0.1,0.1,0.1,0.2,0.2,0.3c1,1.9,2.2,3.2,4,4.2
				c0.5,0.3,0.8,0.8,0.8,1.4c0,0.6-0.4,1.1-0.9,1.3c-5.5,2.3-10.9,3.4-16,3.4c-3,0-6-0.4-8.9-1.2l-0.7,0.3l-5.1,2.3
				c0.1,0.4,0.1,0.9,0.2,1.4c0.9,8.7-0.1,13.5-0.7,15.5c1.7,1.5,5.5,5.4,6.7,10.8c0.6,2.6,0.2,5.3-0.2,7.1h0.6
				c1.7,0.1,2.5,0.8,2.9,1.4c0.9,0.5,1.1,1.2,1.2,1.5c0.2,1.2-0.2,2.7-5,6c-0.6,0.5-1.3,1-2.1,1.5c-2.3,1.6-4.3,2.5-5.9,2.8
				C115.6,316.7,115,316.8,114.5,316.8z"/>
			<path d="M106.2,129c17.1,0,33.2,4.8,42.7,12.7c11.7,8.9,17.5,15.6,18.2,21.2c0.3,2.3-0.3,4.3-1.8,6.4c-1.4,2.1-3.5,3.8-5.2,5.5
				c-2.7,2.6-5.8,6.2-8.3,9.2l0.2,0.2l-3.3,4.7l-1.7,3.5c2.6,2,8.8,7.3,8.5,12c-0.1,2-1.2,3.5-3.2,4.7c-0.4,0.2-0.8,0.4-1.3,0.4
				c0,0-0.1,0-0.1,0c-0.4,0-0.8-0.1-1.2-0.3c-1.4,0.4-3.4,0.9-6,1.2c0.1,0.4,0.2,0.9,0.3,1.3c0.2,1.4,0.6,2.6,0.7,4
				c0.7,3.2,1.2,6.5,1.7,9.9c0.6,4.5,1.1,9.1,1.5,13.8c0.7-1.2,1.4-2.3,2.2-2.5c0.1,0,0.2,0,0.3,0c1.5,0,0.8,3.9,0.8,3.9
				s2.8-2.2,4.6-3c1-0.5,2.4-0.9,3.4-0.9c0.8,0,1.4,0.2,1.7,0.8c0.1,0.1,0.1,0.2,0,0.4l0,0l0,0c-0.2,1-2.1,2.6-3.5,3.6l-0.8,0.8
				c0,0,0,0,0,0c0.1,0.3,0.2,0.6,0.3,0.9c0.5,1.6,1,4.8-0.8,7.3c-0.6,1-1.7,2.3-3,3.1c-0.7,0.5-1.4,0.8-2,0.8c-0.2,0-0.4,0-0.5-0.1
				c-0.4,0-0.8-0.1-1.3-0.3c-0.5-0.2-0.8-0.5-1.1-0.8c-0.8,0.4-2.5,1.1-4.7,2.1c0.3,0.6,0.6,1.1,0.9,1.7c1,2,2.5,3.7,4.5,4.8
				c-5.3,2.2-10.5,3.3-15.5,3.3c-3.1,0-6.1-0.4-9.1-1.3c-0.4,0.2-0.8,0.4-1.2,0.6l-6.1,2.8c0.1,0.8,0.2,1.6,0.3,2.4
				c1.2,11.7-1,15.9-1,15.9s5.6,4.2,7,10.6c0.8,4-0.8,8.3-0.8,8.3h2.6c1.1,0.1,1.7,0.4,1.8,1.1c2.1,0.5,0,2.7-3.6,5.1c0,0,0,0,0,0
				c-0.6,0.5-1.3,1-2,1.5c-2.4,1.6-4.2,2.4-5.4,2.5c-0.6,0.2-1.1,0.3-1.4,0.3c-0.3,0-0.5-0.1-0.6-0.3c-0.7-1-8.6-11.5-15.1-11.5
				c-0.1,0-0.2,0-0.2,0c-4.1,0.2-6,0-7.5,0.4c-1,0.4-1.9,0.9-2.9,1.5c-2.9,2-8.1,7.2-13.6,7.2c-0.2,0-0.4,0-0.6,0
				c-0.4,0-0.8,0-1.3,0c-5.4,0-10.9-2.5-10.9-2.5s-1.8,1.8-4.3,2.2c-0.1,0-0.1,0-0.2,0c-0.4,0-0.8-0.2-1.1-0.6
				c-0.4-0.3-0.7-0.7-1-1.3c-1.7-4,1.7-10.1,1.7-10.1c1.3-2.9,2.7-3.6,3.9-3.6c1.2,0,2.3,0.8,2.7,0.8c0,0,0,0,0,0
				c4.6-0.7,6.8-3,7.5-12.1c-0.1,0-0.1,0-0.2,0c-0.2,0-0.2,0-0.2,0l0.7-4.4c-2.2,0.9-4.5,1.3-6.7,1.3c-0.4,0-0.9,0-1.3-0.1
				c-0.7,0-1.3-0.1-1.7-0.3c0,0,0,0,0,0c-1.8-0.4-3.3-1.2-4.3-2.5c-2.3-3,0.4-8.5,1.4-10.4c0,0,0-0.1,0-0.1
				c-0.4-1.1-0.7-2.3-0.7-3.4c-0.1,0-0.1,0-0.2,0c-7.3,0-14.4-0.8-21.2-2.3c-1.2-0.3-2.4-0.6-3.6-1c-1.4-0.5-3-0.9-4.5-1.4
				c-0.2-0.6-0.3-1.2-0.5-1.8c-3.2-14.4-1.3-30.8,5.2-48.9c0.3-0.6,0.5-1.3,0.8-1.9l-0.5,0.1l-4.4-18.2c-0.9-1.6-1.9-3.3-3.1-5.3
				c-2.3-3.9-5.2-8.7-8.6-15.1c-1-1.9-1-3.8-0.3-5.6c2.7-7.3,12.9-14.9,23.2-20c15.1-7.5,27.6-10.2,39.6-12.5
				c8.1-1.5,15.3-2.4,22-2.7C103.5,129.1,104.8,129,106.2,129 M124.7,204.2c-0.7-0.5-1.2-1.1-1.7-1.6l0,0
				C123.4,203.1,124,203.6,124.7,204.2 M108.6,211.9c-3.1-0.9-6.3-1.9-9.4-3.3c-3.6-1.6-7.2-3.4-10.6-5.7c0,0,0,0,0,0
				c3.4,2.2,6.9,4,10.6,5.7C102.4,209.9,105.5,211,108.6,211.9 M80.2,209.5c1.6-1,3.1-2,4.5-3C83.3,207.6,81.8,208.6,80.2,209.5
				L80.2,209.5 M127.2,208.8L127.2,208.8c-0.5-0.2-1-0.4-1.4-0.8C126.2,208.4,126.7,208.7,127.2,208.8 M118.4,213.4L118.4,213.4
				c-0.3-0.2-0.6-0.4-0.9-0.6C117.8,213.1,118.1,213.3,118.4,213.4 M83.3,225.1c0.1,0,0.2,0,0.2,0c1.6-0.1,3-0.8,3.9-2.2
				c0.1-0.2,0.3-0.3,0.4-0.5c-0.1,0.2-0.2,0.4-0.4,0.5c-1,1.5-2.4,2.2-3.9,2.2C83.5,225.1,83.4,225.1,83.3,225.1
				c-1.5,0-2.7-0.6-3.8-1.9c-1.3-1.3-1.9-2.8-2-4.8c-0.1-1.4,0.2-2.6,0.8-3.8l0,0c-0.6,1.2-0.8,2.4-0.8,3.8c0.1,2,0.7,3.5,2,4.8
				C80.5,224.5,81.8,225.1,83.3,225.1 M135.8,217.9c-0.2-0.4-0.4-0.8-0.6-1.1c0,0,0,0,0,0C135.4,217.1,135.6,217.5,135.8,217.9
				 M127,222.8C127,222.8,127,222.8,127,222.8C127,222.8,127,222.8,127,222.8c-0.1-0.3-0.2-0.6-0.3-1c0,0,0,0,0,0c0,0,0,0,0,0
				C126.8,222.1,126.9,222.5,127,222.8 M135.2,232.6c0-0.1,0-0.1,0-0.2c0.1-0.3,0.3-0.5,0.6-0.5c0.2-0.1,0.4-0.2,0.6-0.2
				c0.2,0,0.3,0,0.6,0.1c0.4,0.1,0.8,0.2,1.1,0.5c0.2,0.1,0.3,0.3,0.3,0.5c0-0.2-0.1-0.4-0.3-0.5c-0.3-0.3-0.7-0.4-1.1-0.5
				c-0.2-0.1-0.4-0.1-0.6-0.1c-0.2,0-0.4,0.1-0.6,0.2c-0.4,0-0.6,0.2-0.6,0.5C135.2,232.5,135.2,232.6,135.2,232.6 M83.9,234.1
				c0.2,0,0.4,0,0.5-0.1c0.4-0.1,0.6-0.3,0.6-0.6c0,0,0-0.1,0-0.2c0,0.1,0,0.1,0,0.2c-0.1,0.3-0.3,0.5-0.6,0.6
				C84.3,234,84.1,234.1,83.9,234.1c-0.2,0-0.4,0-0.6-0.1c-0.5-0.1-0.9-0.2-1.1-0.5c-0.4-0.2-0.4-0.5-0.4-0.7c0,0.3,0,0.6,0.4,0.7
				c0.2,0.4,0.6,0.4,1.1,0.5C83.5,234,83.7,234.1,83.9,234.1 M74.6,234.6c0.2,0,0.4,0,0.5-0.1c0.3-0.2,0.5-0.4,0.6-0.6c0,0,0,0,0,0
				c0,0,0,0,0-0.1c0,0,0,0,0,0.1c0,0,0,0,0,0c-0.1,0.2-0.4,0.4-0.6,0.6C75,234.5,74.8,234.6,74.6,234.6c-0.2,0-0.5,0-0.7-0.1
				c-0.4-0.1-0.8-0.2-1-0.5c-0.3-0.1-0.4-0.3-0.4-0.5c0,0.2,0.1,0.4,0.4,0.5c0.2,0.3,0.6,0.4,1,0.5
				C74.1,234.5,74.4,234.6,74.6,234.6 M131.3,239c0.1-0.3,0.3-0.4,0.5-0.5c0.2-0.1,0.4-0.2,0.7-0.2c0.2,0,0.4,0,0.6,0.1
				c0.4,0.2,0.8,0.2,1.1,0.5c0.3,0.2,0.4,0.5,0.3,0.7c0,0,0,0,0,0v0c0,0,0,0,0,0c0.1-0.2-0.1-0.5-0.3-0.7c-0.3-0.3-0.7-0.3-1.1-0.5
				c-0.2-0.1-0.4-0.1-0.6-0.1c-0.2,0-0.5,0.1-0.7,0.2C131.6,238.6,131.4,238.7,131.3,239C131.3,239,131.3,239,131.3,239
				 M138.7,239.7c0-0.2,0.3-0.4,0.6-0.5c0.2-0.1,0.4-0.1,0.6-0.1c0.2,0,0.3,0,0.5,0c0.4,0.2,0.9,0.3,1.1,0.6
				c0.3,0.2,0.4,0.4,0.3,0.6c0,0,0,0,0,0c0,0,0,0,0,0c0,0,0,0,0,0c0,0.1,0,0.1,0,0.2c0-0.1,0-0.1,0-0.2c0,0,0,0,0,0
				c0.1-0.2,0-0.5-0.3-0.6c-0.2-0.3-0.7-0.4-1.1-0.6c-0.2,0-0.4,0-0.5,0c-0.2,0-0.4,0-0.6,0.1C139,239.3,138.7,239.4,138.7,239.7
				 M80,242.2c-0.2,0-0.4,0-0.7-0.1c-0.5-0.1-0.8-0.2-1.1-0.5c-0.1-0.1-0.2-0.2-0.3-0.3c0.1,0.1,0.2,0.2,0.3,0.3
				c0.3,0.3,0.6,0.4,1.1,0.5C79.6,242.2,79.9,242.2,80,242.2c0.2,0,0.3,0,0.5-0.1c0.4-0.1,0.6-0.2,0.7-0.5c0-0.1,0-0.2-0.1-0.4
				c0.1,0.1,0.1,0.3,0.1,0.4c-0.1,0.3-0.4,0.4-0.7,0.5C80.4,242.2,80.2,242.2,80,242.2 M106.2,126c-1.4,0-2.7,0-4.1,0.1
				c-6.9,0.3-14.2,1.2-22.4,2.7c-12,2.2-24.9,5.1-40.3,12.7c-4.8,2.4-20.8,11-24.7,21.6c-1.1,2.7-0.9,5.5,0.4,8.1
				c3.4,6.5,6.3,11.4,8.7,15.3c1,1.7,2,3.4,2.9,4.8l4.3,17.5c0,0,0,0,0,0.1c0,0.1-0.1,0.1-0.1,0.2c-6.8,18.8-8.6,35.8-5.3,50.6
				l0,0.2c0.1,0.6,0.3,1.3,0.5,2c0.3,0.8,1,1.5,1.9,1.8c0.7,0.2,1.3,0.4,2,0.6c0.8,0.3,1.7,0.5,2.4,0.8c0.1,0,0.2,0.1,0.2,0.1
				c0.6,0.2,1.2,0.3,1.8,0.5c0.6,0.2,1.2,0.3,1.8,0.5c0,0,0.1,0,0.1,0c6.3,1.4,12.8,2.2,19.4,2.4c0,0.1,0.1,0.2,0.1,0.3
				c-1.7,3.5-3.3,8.8-0.5,12.5c1.3,1.7,3.3,2.9,5.7,3.6c0.7,0.2,1.5,0.4,2.5,0.4c0.5,0,0.9,0.1,1.4,0.1c1,0,2-0.1,3-0.2
				c-0.1,0.5,0,1.1,0.2,1.6c-0.8,6.5-2.2,7.5-4.1,7.8c-0.7-0.3-1.7-0.7-3-0.7c-2.7,0-4.9,1.8-6.6,5.3c-0.6,1.1-3.9,7.6-1.8,12.6
				c0.4,0.9,0.9,1.7,1.6,2.3c0.9,0.9,2,1.4,3.2,1.4c0.2,0,0.4,0,0.6-0.1c1.8-0.3,3.3-1.1,4.3-1.8c2.2,0.8,6.3,2,10.3,2
				c0.4,0,0.9,0,1.3,0c0.2,0,0.4,0,0.6,0c5.5,0,10.3-3.8,13.5-6.4c0.7-0.5,1.3-1,1.7-1.3c0.7-0.4,1.4-0.8,2.1-1.1
				c0.7-0.2,1.8-0.2,3.4-0.2c0.9,0,2,0,3.2-0.1l0.1,0c4.4,0,11.2,8.1,12.6,10.2c0.7,1,1.8,1.6,3.2,1.6c0.6,0,1.3-0.1,2.1-0.4
				c1.9-0.3,4-1.3,6.4-3c0.7-0.5,1.5-1,2.1-1.6c3.7-2.6,6.1-4.8,5.6-7.5c-0.2-1-0.8-1.8-1.6-2.4c-0.6-0.7-1.5-1.4-2.7-1.6
				c0.3-1.7,0.4-3.9-0.1-6c-1.1-5.2-4.4-9-6.5-11c0.7-2.6,1.3-7.4,0.5-15.2c0-0.1,0-0.2,0-0.3l4.1-1.9l0.2-0.1
				c2.9,0.7,5.8,1.1,8.8,1.1c5.4,0,11-1.2,16.6-3.5c1.1-0.4,1.8-1.4,1.9-2.6c0.1-1.1-0.5-2.2-1.5-2.8c-1.1-0.6-2-1.4-2.7-2.5
				l0.2-0.1c0.1,0,0.2,0.1,0.3,0.1c0.6,0.3,1.3,0.4,2,0.5c0.3,0.1,0.6,0.1,0.9,0.1c1.2,0,2.5-0.4,3.7-1.3c1.9-1.2,3.2-3,3.8-4
				c2.2-3.1,1.9-6.7,1.4-9c2.9-2.3,3.6-3.7,3.8-4.8c0-0.1,0-0.3,0.1-0.4c0.1-0.7,0-1.3-0.3-1.9c-0.4-0.8-1.5-2.5-4.4-2.5
				c-1.9,0-3.7,0.7-4.7,1.2c-0.3,0.2-0.7,0.3-1.1,0.5c-0.1-0.1-0.2-0.3-0.3-0.4c-0.7-0.8-1.7-1.3-2.8-1.3c-0.3-3-0.6-5.9-1.1-8.7
				c-0.5-3.5-1.1-6.8-1.7-9.9c-0.1-0.8-0.2-1.6-0.4-2.3c0.9-0.2,1.7-0.4,2.4-0.6c0.4,0.1,0.8,0.1,1.2,0.1c0.1,0,0.2,0,0.2,0
				c0.9,0,1.8-0.3,2.6-0.8c3.7-2.1,4.7-5,4.8-7.1c0.3-5-4.2-9.9-7.8-13l0.6-1.2l3.2-4.5c0.2-0.3,0.4-0.6,0.4-0.9
				c2.8-3.4,5.3-6.1,7.3-8.1c0.4-0.4,0.8-0.8,1.2-1.2c1.5-1.4,3.1-2.9,4.4-4.8c1.9-2.7,2.6-5.4,2.3-8.4c-0.8-6.5-6.7-13.6-19.3-23.2
				C140.6,131,123.9,126,106.2,126L106.2,126z"/>
		</g>
		<path class="st34" d="M118.4,262.6c9.2,4.5,19.4,4.5,30.1,0.1c-2-1.1-3.5-2.8-4.5-4.8c-1.1-2-1.9-3.8-2.5-5.1c0,0-0.1,0-0.2,0
			c-7.3,2.9-15,5.2-23,6.7c-1.3,0.2-2.5,0.5-3.8,0.6C115.8,261.1,117,261.9,118.4,262.6z"/>
		<path class="st35" d="M141.4,252.9c0.5,1.3,1.4,3,2.5,5.1c1,2,2.5,3.7,4.5,4.8c-10.7,4.4-20.9,4.4-30.1-0.1
			c-1.3-0.7-2.6-1.5-4-2.4"/>
		<path class="st36" d="M114.1,269.2c0.4-0.4,34.2-15.4,34.2-15.4s2.3,2.4,5.1-0.3c2.8-2.6,2.7-3.9,2.9-6.1c0.3-2.2-0.8-4.3-0.8-4.3
			s5.5-3.6,4.8-4.9s-3.3-0.8-5.2,0.1c-1.8,0.8-4.6,3-4.6,3s0.7-4.4-1.1-3.9s-3.9,6.4-3.9,6.4l-32.4,8L114.1,269.2z"/>
		<g>
			<path class="st36" d="M155.2,241.8c-1.2-0.9-5.7-0.2-7,1.5c-1.4,1.8-0.5,3-0.5,3s0,0-1,1.4c-0.7,1-0.9,5.9,2.2,7.2
				s5.6-1.7,6.8-3.5C157,249.2,157.3,243.4,155.2,241.8z"/>
			<path class="st37" d="M114.1,262.2c0.7,0.1,32.6-12.6,32.6-12.6s3.4,1.7,6.1-0.4c2.6-2.1,2.3-4.7,1.6-5.9
				c-0.7-1.2-1.8-1.5-1.8-1.5l7.7-3.2l-4.3,4.4c0,0,2,4.9-0.5,8.3c-2.4,3.3-4.3,4.3-5.8,3.8c-0.9-0.3-2.3-1.3-2.3-1.3l-33.4,15.4
				L114.1,262.2z"/>
			<path class="st38" d="M147.4,246.8c0.2-0.1,0.2-1,2.1-1.8c1.6-0.7,3.6,0.2,3.6,0.2"/>
			<path class="st38" d="M146.4,250.8c0.1-0.2,1.3-1.7,3-2s2.7,0.3,2.7,0.3"/>
		</g>
		<g>
			<path class="st39" d="M114.8,316c-1.5,0-2.2-0.8-2.5-1.3c-3.9-7-9.7-11-15.9-11c-2.9,0-5.8,0.9-8.5,2.6c-1.2,0.7-2.2,1.5-3.2,2.3
				c-2.7,2-5.3,4-9.8,4.8c-0.9,0.2-1.8,0.2-2.7,0.2c-4.8,0-9.6-1.9-10.8-2.4c-0.6,0.5-2.2,1.8-4.3,2.2c-0.1,0-0.2,0-0.3,0
				c0,0,0,0,0,0c-0.4,0-1-0.2-1.6-1c-1.3-2-1.3-6.9,0.8-11.6c1.2-2.6,2.6-3.9,4.3-3.9c0.9,0,1.6,0.3,2.2,0.6
				c0.2,0.1,0.5,0.2,0.5,0.2c4.6-0.6,6.7-2.9,7.3-14.5c0.2-4.6,2.6-9.7,4.7-14.2c2.4-5.2,4.5-9.7,2-10.9l-1.6-0.8l38-1.2l0.1,0.2
				c0.1,0.2,2.8,5.4,3.7,14.1c1,10-0.4,14.6-0.9,15.8c1.2,1,5.7,4.9,6.9,10.7c0.7,3.2-0.2,6.6-0.6,7.9h2c1.6,0.1,2.1,0.9,2.2,1.3
				c0.5,1.7-1.7,4.4-5.8,7.2C118.5,315.1,116.4,316,114.8,316z"/>
			<path class="st1" d="M113.3,256.5c0,0,2.7,5.3,3.6,14c1.2,11.7-1,15.9-1,15.9s5.6,4.2,7,10.6c0.8,4-0.8,8.3-0.8,8.3h2.6
				c3.3,0.2,2.4,3.4-3.8,7.7c-2.9,2-4.8,2.6-6.1,2.6c-1.2,0-1.8-0.5-2.1-1.1c-4.2-7.5-10.2-11.2-16.3-11.2c-3,0-5.9,0.9-8.8,2.7
				c-4.3,2.7-6.8,5.9-12.8,7c-0.9,0.2-1.8,0.2-2.7,0.2c-5.4,0-10.9-2.5-10.9-2.5s-1.8,1.8-4.3,2.2c-0.1,0-0.1,0-0.2,0
				c-2.2,0-3-6.1-0.3-12c1.3-2.9,2.7-3.6,3.9-3.6c1.2,0,2.3,0.8,2.7,0.8c0,0,0,0,0,0c5.1-0.7,7.1-3.5,7.7-14.9
				c0.5-10.2,11.8-23,6.5-25.6L113.3,256.5 M113.8,255.6l-0.6,0l-35.9,1.1l-3.6,0.1l3.2,1.6c2.1,1,0.1,5.4-2.2,10.3
				c-2.1,4.5-4.5,9.7-4.8,14.4c-0.6,11.3-2.5,13.4-6.9,14.1c-0.1,0-0.3-0.1-0.4-0.2c-0.5-0.3-1.4-0.6-2.4-0.6
				c-1.9,0-3.4,1.4-4.7,4.1c-2.2,4.9-2.2,10-0.8,12.1c0.5,0.8,1.2,1.2,1.9,1.2c0.1,0,0.2,0,0.3,0c2-0.3,3.6-1.4,4.3-2.1
				c1.5,0.6,6.1,2.3,10.7,2.3c1,0,1.9-0.1,2.8-0.2c4.6-0.9,7.2-2.8,10-4.9c1-0.7,2-1.5,3.2-2.2c2.7-1.7,5.4-2.5,8.3-2.5
				c6,0,11.6,3.9,15.5,10.8c0.5,1,1.6,1.5,2.9,1.5c1.7,0,3.9-0.9,6.6-2.8c4.3-3,6.5-5.8,6-7.7c-0.2-0.6-0.7-1.6-2.6-1.6l-1.4,0
				c0.4-1.6,1-4.6,0.4-7.6c-1.2-5.6-5.3-9.5-6.8-10.7c0.6-1.6,1.8-6.3,0.8-15.7c-0.9-8.8-3.6-14.1-3.7-14.3L113.8,255.6L113.8,255.6
				z"/>
		</g>
		<path class="st40" d="M137.8,250.1c0,0-1-2.4,1.2-3.2c2.2-0.8,4.4-0.5,4.5,0.8C143.5,249.5,139.8,251.9,137.8,250.1z"/>
		<path class="st37" d="M116,263.2c0,0-4.4,4.9-19.9,4.8c-1.8,0-5.6-0.5-5.6-0.5c-7.8,19.5-20.3,18.6-20.3,18.6l3.9-23.4l8.3-3.9
			l31.5-1L116,263.2z"/>
		<g>
			<g>
				<path class="st41" d="M150.4,210c0.4,0,0.8-0.1,1.3-0.4c2-1.2,3.1-2.7,3.2-4.7c0.3-4.7-5.9-10-8.5-12l2.9-6.2
					c2.8-3.5,6.8-8.3,10.3-11.7c0.4-0.4,0.9-0.9,1.4-1.3c1.1-1,2.3-2.1,3.2-3.3c1.9-2.3,2.6-4.6,2.3-7.1
					c-0.7-5.5-6.4-12.3-18.2-21.2c-10.2-8.5-28-13.4-46.6-12.6c-6.8,0.3-13.9,1.2-22,2.7c-11.9,2.2-24.5,5-39.6,12.5
					c-10.3,5.1-20.5,12.7-23.2,20c-0.8,1.9-0.7,3.8,0.3,5.6c3.3,6.5,6.2,11.3,8.6,15.1c1.2,2,2.2,3.7,3.1,5.3l4.4,18.2l0.9-0.2
					c0.3,0.2,0.6,0.2,0.9,0.2c0.2,0,0.4-0.1,0.5-0.1c0.5-0.1,7.5-2,17.2-4.3c9.6-1.9,23.2-4.3,33.6-4.8c2.8-0.1,5.3-0.1,7.3,0.1
					c40.7,3.4,50.9,8,54.3,9.5C149,209.8,149.6,210.1,150.4,210z"/>
				<path class="st42" d="M17.6,165c4.5-12.4,39.7-27.8,62.2-32c22.8-4.3,51.3-4.1,68,9.8c20.2,15.3,19.8,22.2,15.7,27.2
					c-1.3,1.6-3,3-4.5,4.5c-3.5,3.4-7.6,8.4-10.4,11.8l-3.2,6.8c1.9,1.4,8.9,7.1,8.7,11.8c-0.1,1.7-1,3-2.9,4.1
					c-0.3,0.2-0.6,0.3-0.9,0.3c-0.6,0-1.1-0.2-2.1-0.6c-3.4-1.5-13.8-6.1-54.6-9.5c-2.1-0.2-4.6-0.2-7.4-0.1
					c-10.1,0.4-23.2,2.7-33.7,4.8c-10.2,2.4-17.3,4.3-17.3,4.3s-0.5,0.2-0.9-0.2l-0.5,0.1l-4.1-16.9l0.2-0.1c-2.7-5-6.9-11-12-21.1
					C17,168.3,17,166.7,17.6,165z"/>
				<path d="M151.1,209c0,0-7.4,3.7-18.7,1.3c-11.3-2.4-11.2-17.5-11.2-17.5L151.1,209z"/>
				<g>
					<path class="st43" d="M83.1,199.8c-0.4,0.3-0.5,0.7-0.9,1.1c-5.3,6.9-14.8,11.9-28.1,14.9c0,0.6,0,1.1,0,1.8
						c0.3,11.2,1.1,20.5,2.1,27.8c0.9,6.4,2.2,11.4,3.8,14.8c2.2,0.4,4.3,0.6,6.4,0.8c-1.6-3.4-3.1-7.8-4.2-13.4
						c-1.9-8.2-2.9-15.2-3.2-21.3c0-0.6-0.1-1.9,0-4.1c0-1.6,0.1-3,0-4.2c4.5-0.8,9.6-2.5,15.1-5.1c6.4-3,11-6.2,14-9.5
						c3.4,2.2,6.9,4,10.6,5.7c5.8,2.6,11.7,4.2,17.5,5c0.5,0.1,0.9,0.1,1.5,0.2l0.1-0.3c-0.6-0.4-1.2-0.7-1.7-1.2
						c-0.6-0.5-1.2-1.2-1.7-1.9c-0.5-0.8-1.2-1.8-2-3.2c0,0,0,0,0-0.1l0.2,0c1.3,0.4,2.5,0.6,3.3,1c1.2,0.3,1.9,0.6,2.2,0.7
						c2.7,0.6,4.6,0.9,5.8,0.9c0.3,0,0.7,0,1.3-0.2c0.6-0.1,1-0.2,1.4-0.2l0-0.3c-1.3-0.4-2.4-1.6-3.3-3.5c-0.9-1.9-1.6-3.3-1.9-3.8
						c1.7,2.2,5.2,4.8,10.4,7.6c5.4,3,9.5,5.1,12.2,6.6c-0.2-1.4-0.5-2.6-0.7-4c-7.7-2.2-14.6-6.1-20.5-11.8
						c-1.1-1.2-2.2-2.4-3.3-3.5c-1.3-0.2-2.6-0.3-4.1-0.3c0.1,1.1,0.4,2.3,0.8,3.4c0.8,2.1,2.1,4,4,5.9c-1.5,0-2.9-0.2-4.4-0.5
						c-3.8-0.7-7.7-2.3-12-4.8c1,3,3,6,5.9,8.9c-6.5-1.8-12.8-4.9-18.9-9.3c-1.5-1-3-2-4.5-3.3c-0.6,0.1-1.1,0.1-1.8,0.2
						C84.2,198.1,83.6,198.9,83.1,199.8z"/>
					<path class="st34" d="M84.7,197.1c-1.3,0.2-2.7,0.2-4.1,0.5c-15.4,1.7-30.9,4.9-46.3,9.9c-0.2,0.3-0.2,0.6-0.3,0.9
						c-0.2,0.8-0.6,1.6-0.9,2.4c0.4-0.1,0.7-0.2,1-0.2c6.4-2,11.7-3.4,15.6-4.4c9.6-2.5,20.4-4.2,32.6-5.2c0.4-0.4,0.5-0.8,0.9-1.1
						C83.6,198.9,84.2,198.1,84.7,197.1z"/>
					<path class="st34" d="M115.7,200c0.3,0,0.4,0,0.7,0.1c-0.4-1.1-0.7-2.3-0.8-3.4l0,0c-9.7-0.5-19.4-0.4-29,0.3
						c1.5,1.3,2.9,2.3,4.5,3.3c0.8,0,1.6-0.1,2.4-0.1C101.4,199.8,108.9,199.7,115.7,200z"/>
					<path class="st44" d="M109.9,209.6c-2.9-2.9-5-5.9-5.9-8.9c4.2,2.5,8.2,4.2,12,4.8c1.5,0.3,2.9,0.4,4.4,0.5
						c-1.9-1.9-3.3-3.8-4-5.9c-0.3-0.1-0.4-0.1-0.7-0.1c-6.8-0.3-14.2-0.2-22.3,0.1c-0.8,0-1.7,0.1-2.4,0.1
						C97.1,204.7,103.4,207.8,109.9,209.6z"/>
					<path class="st39" d="M59.1,218c0.1,1.2,0,2.6,0,4.2c-0.1,2.3,0,3.6,0,4.1c0.3,6.1,1.3,13.1,3.2,21.3c1.2,5.6,2.7,9.9,4.2,13.4
						c2.5,0.3,5.2,0.5,7.7,0.7c2.2,0.2,4.4,0.3,6.6,0.4c3.5,0.2,6.9,0.3,10.2,0.2c5.6-0.2,11.2-0.4,16.4-1.1
						c1.6-0.2,3.3-0.4,4.8-0.6c0.8-0.1,1.5-0.3,2.2-0.4c1.3-0.2,2.5-0.4,3.8-0.6c8-1.6,15.7-3.8,23-6.7c0.1,0,0.2,0,0.2,0
						c1.2-0.5,2.2-1,3.3-1.5c2.1-1,3.1-2.7,2.9-5.1c-0.5-10.6-1.7-20.7-3.6-30c-2.7-1.5-6.8-3.7-12.2-6.6c-5.2-2.9-8.7-5.5-10.4-7.6
						c0.3,0.5,0.9,1.8,1.9,3.8c0.9,1.9,2,3.1,3.3,3.5l0,0.3c-0.4,0-0.8,0.1-1.4,0.2c-0.7,0.1-1,0.1-1.3,0.2
						c-1.2,0.1-3.1-0.2-5.8-0.9c-0.3-0.1-1-0.3-2.2-0.7c-0.9-0.3-2-0.6-3.3-1l-0.2,0.1c0.8,1.4,1.5,2.4,2,3.2
						c0.5,0.7,1.1,1.4,1.7,1.9c0.5,0.5,1.1,0.9,1.7,1.2l-0.1,0.3c-0.6-0.1-1-0.1-1.5-0.2c-5.9-0.8-11.8-2.4-17.5-5
						c-3.6-1.6-7.2-3.4-10.6-5.7c-3,3.3-7.6,6.5-14,9.5C68.7,215.5,63.6,217.2,59.1,218z M88.5,218.4c0.1,2-0.5,3.6-1.6,5
						c-1,1.5-2.4,2.2-3.9,2.2s-2.9-0.5-4-1.9c-1.3-1.3-1.9-2.8-2-4.8c-0.1-1.9,0.4-3.6,1.6-5.1c1-1.5,2.3-2.1,3.9-2.1s3,0.4,4.1,1.8
						C87.7,214.9,88.4,216.5,88.5,218.4z M135.7,220.7c0.1,1.6-0.3,3-1.2,4.2c-0.9,1.2-2,1.8-3.3,1.8c-1.3,0.1-2.6-0.5-3.5-1.5
						c-1-1.1-1.5-2.5-1.6-4.1c-0.1-1.7,0.3-3.1,1.2-4.3c0.9-1.2,2.1-1.8,3.4-1.8c1.3-0.1,2.5,0.5,3.5,1.5
						C135.1,217.6,135.7,219,135.7,220.7z M136.4,232.4c0.4,0.1,0.8,0.2,1.1,0.5c0.3,0.2,0.4,0.5,0.3,0.6c0,0.3-0.2,0.5-0.5,0.7
						c-0.4,0-0.8,0-1.2,0c-0.5-0.1-0.8-0.2-1.1-0.5c-0.2-0.3-0.4-0.5-0.3-0.7c0.1-0.3,0.3-0.5,0.6-0.5
						C135.7,232.2,135.9,232.2,136.4,232.4z M133.6,239.5c0.3,0.2,0.4,0.5,0.3,0.7c-0.1,0.3-0.3,0.4-0.6,0.5c-0.3,0.1-0.7,0.1-1.1,0
						c-0.4-0.1-0.8-0.2-1.1-0.5c-0.3-0.2-0.4-0.5-0.3-0.7c0.1-0.3,0.3-0.4,0.5-0.5c0.4-0.2,0.8-0.2,1.2-0.1
						C133,239.1,133.3,239.2,133.6,239.5z M139.5,241.5c-0.5-0.1-0.8-0.2-1.1-0.5c-0.3-0.2-0.4-0.5-0.3-0.7c0-0.3,0.3-0.4,0.6-0.6
						c0.3-0.1,0.7-0.1,1.1,0c0.4,0.2,0.9,0.3,1.1,0.6c0.3,0.2,0.4,0.5,0.3,0.6c0,0.3-0.3,0.5-0.5,0.6
						C140.4,241.6,139.9,241.6,139.5,241.5z M74.6,235c-0.3,0.1-0.7,0.1-1.2,0c-0.4-0.1-0.8-0.2-1-0.5c-0.4-0.2-0.5-0.4-0.4-0.6
						c0.1-0.3,0.4-0.5,0.6-0.6c0.3-0.1,0.7-0.1,1.1,0c0.5,0.1,0.9,0.2,1.1,0.5c0.4,0.3,0.4,0.5,0.4,0.7
						C75.1,234.6,74.9,234.8,74.6,235z M81.3,233.2c0.1-0.2,0.4-0.3,0.6-0.5c0.4-0.1,0.7-0.1,1.2-0.1c0.4,0.2,0.8,0.2,1,0.6
						c0.4,0.2,0.5,0.4,0.4,0.6c-0.1,0.3-0.3,0.5-0.6,0.6c-0.3,0.1-0.7,0.1-1.1,0c-0.5-0.1-0.9-0.2-1.1-0.5
						C81.3,233.7,81.3,233.5,81.3,233.2z M78.9,242.6c-0.5-0.1-0.8-0.2-1.1-0.5c-0.3-0.2-0.4-0.5-0.3-0.7c0-0.3,0.3-0.4,0.5-0.5
						c0.4-0.2,0.7-0.2,1.2-0.1c0.5,0.2,0.9,0.2,1.1,0.5c0.3,0.2,0.4,0.5,0.4,0.7c-0.1,0.3-0.4,0.4-0.7,0.5
						C79.7,242.7,79.3,242.7,78.9,242.6z"/>
					<path d="M78.6,213.8c-1.2,1.5-1.6,3.2-1.6,5.1c0.1,2,0.7,3.5,2,4.8c1.1,1.4,2.4,2,4,1.9c1.6-0.1,3-0.8,3.9-2.2
						c1.1-1.4,1.7-3,1.6-5c-0.1-1.9-0.8-3.5-2-4.9c-1.1-1.4-2.5-1.9-4.1-1.8C80.8,211.8,79.5,212.4,78.6,213.8z"/>
					<path d="M127.3,216.8c-0.9,1.2-1.3,2.6-1.2,4.3c0.1,1.6,0.6,3,1.6,4.1c1,1.1,2.2,1.6,3.5,1.5c1.3-0.1,2.4-0.7,3.3-1.8
						c0.9-1.2,1.3-2.6,1.2-4.2c-0.1-1.7-0.6-3.1-1.6-4.2c-1-1.1-2.1-1.6-3.5-1.5C129.4,215,128.2,215.6,127.3,216.8z"/>
					<path class="st45" d="M135,233.7c0.3,0.3,0.6,0.4,1.1,0.5c0.4,0.1,0.8,0.1,1.2,0c0.4-0.2,0.5-0.4,0.5-0.7
						c0.1-0.2,0-0.5-0.3-0.6c-0.3-0.3-0.7-0.4-1.1-0.5c-0.5-0.2-0.8-0.2-1.1,0c-0.4,0-0.6,0.2-0.6,0.5
						C134.6,233.1,134.8,233.4,135,233.7z"/>
					<path class="st45" d="M130.8,239.5c-0.1,0.3,0,0.6,0.3,0.7c0.3,0.3,0.7,0.4,1.1,0.5c0.4,0.1,0.8,0.1,1.1,0
						c0.4-0.1,0.6-0.2,0.6-0.5c0.1-0.2,0-0.6-0.3-0.7c-0.3-0.3-0.7-0.3-1.1-0.5c-0.4-0.2-0.9-0.2-1.2,0.1
						C131.1,239.1,130.9,239.2,130.8,239.5z"/>
					<path class="st45" d="M141,240.2c-0.2-0.3-0.7-0.4-1.1-0.6c-0.5-0.1-0.8-0.1-1.1,0c-0.4,0.2-0.6,0.3-0.6,0.6
						c-0.1,0.2,0,0.6,0.3,0.7c0.3,0.3,0.6,0.4,1.1,0.5c0.4,0.2,0.9,0.2,1.2-0.1c0.3-0.1,0.6-0.3,0.5-0.6
						C141.4,240.6,141.3,240.4,141,240.2z"/>
					<path class="st45" d="M73.7,233.1c-0.4-0.1-0.8-0.1-1.1,0c-0.3,0.1-0.6,0.3-0.6,0.6c-0.1,0.2,0,0.5,0.4,0.6
						c0.2,0.3,0.6,0.4,1,0.5c0.5,0.2,0.9,0.1,1.2,0c0.3-0.2,0.5-0.4,0.6-0.6c0-0.3,0-0.5-0.4-0.7C74.6,233.4,74.2,233.2,73.7,233.1z
						"/>
					<path class="st45" d="M83.9,234.5c0.4-0.1,0.6-0.3,0.6-0.6c0.1-0.2,0-0.5-0.4-0.6c-0.2-0.4-0.6-0.4-1-0.6
						c-0.5-0.1-0.8-0.1-1.2,0.1c-0.3,0.2-0.6,0.3-0.6,0.5c0,0.3,0,0.6,0.4,0.7c0.2,0.4,0.6,0.4,1.1,0.5
						C83.1,234.6,83.6,234.6,83.9,234.5z"/>
					<path class="st45" d="M80.3,241.3c-0.2-0.3-0.6-0.4-1.1-0.5s-0.9-0.2-1.2,0.1c-0.3,0.1-0.6,0.2-0.5,0.5c-0.1,0.3,0,0.6,0.3,0.7
						c0.3,0.3,0.6,0.4,1.1,0.5c0.5,0.1,0.9,0.2,1.1,0c0.4-0.1,0.6-0.2,0.7-0.5C80.7,241.9,80.6,241.5,80.3,241.3z"/>
					<path class="st44" d="M27.8,259.7c3,0.6,5.9,1,8.4,1c0.7,0,1.4-0.1,2.1-0.1c3.7-0.2,6.4-0.7,8.1-1.8c1.6-1,2.8-2.7,3.4-4.8
						c0.3-1.8,0.5-4.5,0.3-8.3c-0.1-7.5-0.3-11.5-0.2-12c-0.1-4,0.6-7.6,1.8-10.8c1-2.3,1.9-4.1,2.5-5.4c0.1-0.7,0-1.2,0-1.8
						c13.3-2.9,22.8-7.9,28.1-14.9c-12.2,1-23,2.7-32.6,5.2c-3.9,1-9.2,2.5-15.6,4.4c-0.3,0-0.7,0.1-1,0.2
						C26.5,228.9,24.6,245.2,27.8,259.7z"/>
					<path class="st44" d="M122.8,200.4c6,5.7,12.8,9.6,20.5,11.8c-0.7-3.2-1.6-6.3-2.4-9.4C135.8,201.8,129.7,200.9,122.8,200.4z"
						/>
					<path class="st34" d="M119.6,196.9c1.1,1.2,2.2,2.4,3.3,3.5c6.9,0.5,12.9,1.3,18.2,2.4c0-0.4-0.2-0.7-0.3-1.2
						c-0.2-0.8-0.4-1.6-0.7-2.3C133.1,198.1,126.3,197.3,119.6,196.9z"/>
					<path class="st25" d="M129.4,173.8L129.4,173.8L129.4,173.8L129.4,173.8z"/>
					<path class="st25" d="M112.7,207.5l-0.2,0c0,0.1,0,0.1,0,0.1L112.7,207.5z"/>
					<path class="st25" d="M133,279.5L133,279.5L133,279.5L133,279.5z"/>
					<path class="st34" d="M49.8,233.7c-0.1,0.6,0.1,4.5,0.2,12c0.2,3.8,0,6.5-0.3,8.3c-0.6,2.2-1.7,3.8-3.4,4.8
						c-1.7,1-4.4,1.6-8.1,1.8c-0.7,0-1.4,0.1-2.1,0.1c-2.5-0.1-5.4-0.4-8.4-1c0.1,0.6,0.2,1.2,0.5,1.8c1.5,0.5,3,0.9,4.5,1.4
						c1.2,0.3,2.4,0.6,3.6,1c9.1,2,18.6,2.8,28.8,2c-1.9-0.8-3.6-2.7-5-5.7c-1.7-3.4-2.9-8.3-3.8-14.8c-1.1-7.3-1.8-16.7-2.1-27.8
						c-0.6,1.2-1.5,3.1-2.5,5.4C50.4,226.1,49.7,229.7,49.8,233.7z"/>
					<path class="st35" d="M84.7,197.1c0.7,0,1.2-0.1,1.8-0.2"/>
					<path class="st35" d="M60.1,260.1c-1.7-3.4-2.9-8.3-3.8-14.8c-1.1-7.3-1.8-16.7-2.1-27.8c0.1-0.7,0-1.2,0-1.8
						c13.3-2.9,22.8-7.9,28.1-14.9c0.4-0.4,0.5-0.8,0.9-1.1c0.5-0.9,1.1-1.7,1.6-2.7"/>
					<path class="st35" d="M86.5,213.5c1.2,1.4,1.9,3,2,4.9c0.1,2-0.5,3.6-1.6,5c-1,1.5-2.4,2.2-3.9,2.2c-1.6,0.1-2.9-0.5-4-1.9
						c-1.3-1.3-1.9-2.8-2-4.8c-0.1-1.9,0.4-3.6,1.6-5.1c1-1.5,2.3-2.1,3.9-2.1C84,211.6,85.4,212.1,86.5,213.5"/>
					<path class="st35" d="M86.5,196.9c1.5,1.3,2.9,2.3,4.5,3.3c6.1,4.4,12.5,7.5,18.9,9.3c-2.9-2.9-5-5.9-5.9-8.9
						c4.2,2.5,8.2,4.2,12,4.8c1.5,0.3,2.9,0.4,4.4,0.5c-1.9-1.9-3.3-3.8-4-5.9c-0.4-1.1-0.7-2.3-0.8-3.4"/>
					<path class="st35" d="M34.3,207.5c15.4-5,30.9-8.2,46.3-9.9c1.4-0.2,2.8-0.3,4.1-0.5"/>
					<path class="st35" d="M60.1,260.1c1.4,3,3.1,4.9,5,5.7c-10.1,0.7-19.6,0-28.8-2c-1.2-0.3-2.4-0.6-3.6-1c-1.4-0.5-3-0.9-4.5-1.4
						c-0.2-0.6-0.3-1.2-0.5-1.8c-3.2-14.4-1.3-30.8,5.2-48.9c0.3-0.8,0.7-1.6,0.9-2.4c0.2-0.3,0.2-0.6,0.3-0.9"/>
					<path class="st35" d="M34.3,207.5c0.3-0.7,0.5-1.3,0.8-2.1"/>
					<path class="st35" d="M140.6,201.7c0.1,0.5,0.3,0.8,0.3,1.2c0.8,3.1,1.7,6.2,2.4,9.4"/>
					<path class="st35" d="M140,199.3c0.2,0.7,0.4,1.5,0.7,2.3"/>
					<path class="st35" d="M143.4,212.3c-7.7-2.2-14.6-6.1-20.5-11.8c-1.1-1.2-2.2-2.4-3.3-3.5"/>
					<path class="st35" d="M86.5,196.9c9.7-0.7,19.3-0.8,29-0.3l0,0"/>
					<path class="st35" d="M115.5,196.6c1.4,0,2.7,0.1,4.1,0.3"/>
					<path class="st35" d="M119.6,196.9c6.7,0.4,13.5,1.2,20.4,2.4"/>
					<path class="st35" d="M134.1,216.5c1,1.1,1.5,2.5,1.6,4.2c0.1,1.6-0.3,3-1.2,4.2c-0.9,1.2-2,1.8-3.3,1.8
						c-1.3,0.1-2.6-0.5-3.5-1.5c-1-1.1-1.5-2.5-1.6-4.1c-0.1-1.7,0.3-3.1,1.2-4.3c0.9-1.2,2.1-1.8,3.4-1.8
						C132,214.9,133.2,215.4,134.1,216.5"/>
					<path class="st35" d="M114.4,260.2c1.3-0.2,2.5-0.4,3.8-0.6c8-1.6,15.7-3.8,23-6.7c0.1,0,0.2,0,0.2,0"/>
					<path class="st35" d="M143.4,212.3c0.2,1.4,0.6,2.6,0.7,4c1.9,9.3,3.1,19.4,3.6,30c0.2,2.4-0.8,4.1-2.9,5.1
						c-1.1,0.4-2.1,0.9-3.3,1.5"/>
					<path class="st35" d="M80.8,262.1c3.5,0.2,6.9,0.3,10.2,0.2c5.6-0.2,11.2-0.4,16.4-1.1c1.6-0.2,3.3-0.4,4.8-0.6"/>
					<path class="st35" d="M114.4,260.2c-0.7,0.1-1.4,0.2-2.2,0.4"/>
					<path class="st35" d="M80.8,262.1c-2.2-0.1-4.4-0.2-6.6-0.4c-2.5-0.2-5.2-0.4-7.7-0.7c-2.2-0.3-4.3-0.5-6.4-0.8"/>
				</g>
				<g id="hat_7_">
					<path class="st46" d="M145.5,190.3c0,0,7.5-10,13.5-15.8c6-5.8,14.7-10.1-11.2-31.7c-16.7-13.9-45.2-14.1-68-9.8
						c-25.6,4.8-68.7,23.8-61.9,37c10,19.5,16.1,23.6,15.9,35.4c0,3.3,1.4,1.1,1.4,1.1s37.8-8.5,64-11.9s36.1,8.6,36.1,8.6
						L145.5,190.3z"/>
					<path class="st47" d="M39.6,146.8c-3.2,39.3,14.2,46.4,40.8,45.2c25.8-1.1,63.9-23.7,65.4-50.2c0.8,0.6,1.6,1.2,2.4,1.8
						c26.9,20.4,17.2,25.9,11.2,31.7c-6,5.8-13.5,15.8-13.5,15.8l-9.5,12.9c0,0-10.6-12-36.8-8.6c-26.2,3.4-64,11.5-64,11.5
						s-2.3,1.8-2.2-1.5c0.2-11.8-5.1-15.2-15.1-34.7C14.5,163.4,22.9,155.7,39.6,146.8z"/>
					<path d="M150.4,209.3c0.3,0,0.6-0.1,0.9-0.3c1.8-1,2.8-2.4,2.9-4.1c0.2-4.7-6.8-10.3-8.7-11.8l5.9-8.5l-0.3-0.3
						c-0.2-0.3-7.3-8.8-40.7-12.6c-3.6-0.4-7.5-0.5-11.7-0.3c-31.4,1.4-68.2,19.3-68.5,19.5l-0.5,0.2l4.1,16.9l0.7-0.2
						c0.3-0.1,31.9-8,51.8-8.8c2.8-0.1,5.3-0.1,7.4,0.1c40.8,3.4,51.2,8,54.6,9.5C149.2,209,149.8,209.3,150.4,209.3z"/>
					<path class="st48" d="M30.5,191.5l3.8,15.6c0,0,41-10.3,59.5-8.8c55.4,4.6,54.6,11.4,57.1,10c8.2-4.6-6.4-15-6.4-15l4.8-10.1
						c0,0-5.5-7-39-10.8C76.9,168.7,30.5,191.5,30.5,191.5z"/>
					<path class="st48" d="M30.5,191.5l3.8,15.6c0,0,41-10.3,59.5-8.8c55.4,4.6,54.6,11.4,57.1,10c8.2-4.6-6.4-15-6.4-15l6-9
						c0,0-6.7-8.2-40.2-11.9C76.9,168.7,30.5,191.5,30.5,191.5z"/>
					<g>
						<polygon points="125.5,189.1 125.5,189.1 125.6,189.1 126.4,188.9 126.3,188.5 136.5,180.2 137.7,159.7 111.8,156.9 
							111.3,157 107.6,158.5 108,182.4 122,190.1 						"/>
						<polygon class="st49" points="109.2,160.1 112.2,159.6 112.2,159.6 137,160.4 135.8,179.9 125.5,188.4 125.4,188.3 
							125.5,188.5 122.1,189.4 108.7,182.1 						"/>
						<polygon class="st50" points="108.7,182.1 108.3,159 111.7,158 125.5,188.5 122.1,189.4 						"/>
						<polygon class="st49" points="137,160.4 135.8,179.9 125.5,188.4 124.1,187.5 112.4,180.6 111.7,158.1 						"/>
					</g>
					<path class="st51" d="M91.2,178.1l0.2,13.7c0,0-10.6,0-22.2,2.4s-24.1,5.2-24.1,5.2s8.3-3,12.2-7.1
						C62.6,186.8,60.8,179.4,91.2,178.1z"/>
					<path class="st42" d="M86.6,195.7c0,0,23.4-0.3,41.4,3.4c19.3,4,20.3,8.1,21.9,5.6c1.6-2.5,1.6-10-19.8-11.6
						C106.7,191.3,86.6,195.7,86.6,195.7z"/>
				</g>
			</g>
			<g>
				<path class="st39" d="M79.6,211.5l-2.9,2.5c0,0,4.8,3.2,8.8,3.7s6.1,0.6,6.1,0.6l-5.6-9C84.9,208.2,80.9,210.4,79.6,211.5z"/>
				<path d="M75.1,213.8c0,0,13,6.5,14.6,5.9c1.6-0.6,3.1-4.4,3.1-4.4s-1.9,2.9-4.2,2.3C85.6,217,75.1,213.8,75.1,213.8z"/>
			</g>
			<g>
				<path class="st39" d="M123,221.5c0,0,4.7-0.3,7.9-1.9c3.2-1.6,6.2-4.9,6.2-4.9l-9.5-3.4L123,221.5z"/>
				<path d="M124.2,219.4c-0.1-0.1,0,1.7,1.5,2.8c0.8,0.6,4.9-1,7-2.9c2-1.9,3.7-3.8,3.7-3.8s-3.5,2.7-6.2,4.1
					C126.4,221.5,125.3,221.1,124.2,219.4z"/>
			</g>
			<g>
				<g>
					<g>
						<path class="st52" d="M110.5,238.6l4.7-1.3c0,0,3.6,0.5,6,0.8c4.8,0.4,7.8,3,8.4,4.8c1.3,3.9-1.1,6.4-3.3,7.2
							c-1.7,0.6-5.7,1.7-6.9,1.5c-1.9-0.4-3.2-1.1-4-1.6c-1.3-0.9-1.8-2.1-1.8-3.6c0.1-1.5,0.1-1.5,0.1-1.5l-3.8-1.6L110.5,238.6z"
							/>
						<path class="st0" d="M111.3,239.6c0,0,7.3,1.2,8.4,1.5c1.4,0.4,3.4,2.3,3.4,5.1c0,3.2-1.5,4.9-3.3,4.9c-1.3,0-5.3-1.2-5.6-2.7
							s0-3.6,0-3.6l-4.1-1.7L111.3,239.6z"/>
						<path d="M115.2,240c0,0,3.5-1.5,4-1.4c0.5,0.1,2.1,0.1,2.1,0.1l-3.7,1.5L115.2,240z"/>
					</g>
					<path class="st53" d="M122.7,243.3l5.1-1.8c0,0-0.8-0.7-1.5-1.1c-0.7-0.4-1.3-0.5-1.3-0.5l-3.7,1.7
						C121.3,241.5,122.4,242.3,122.7,243.3z"/>
				</g>
				<path class="st34" d="M106.1,233.9c0,0,3.7,1.2,3.6,5.5s-4.3,8.5-4.3,8.5s5.5-3.7,5.8-7.3C111.6,235.7,110,235.3,106.1,233.9z"
					/>
			</g>
		</g>
		<path class="st54" d="M58.8,269c0,0-4.5,7.5-1.8,11.1s9.7,3.5,14.9,1.1c6.8-3.1,12.1-10.5,12.6-11.4"/>
		<path class="st37" d="M56.5,300.9c-0.5,1.2-1.6,7.6,0,8.4s4.9-2.9,4.9-2.9s10.8,6.1,16,1.6c9.2-8.2,24.2-14.1,29.5-10
			c5.3,4.1,8.6,13.5,8.6,13.5s6.3-5.3,10-5.3s1.5,2.5-2.6,5.2c-4,2.8-8.8,5.2-9.5,4.1c-0.7-1.1-8.7-11.8-15.4-11.5
			c-6.6,0.3-7.3-0.2-10.4,1.9c-3,2.1-8.5,7.6-14.2,7.2s-12.1-2.4-12.1-2.4s-4.8,4.4-6.4,0.4S56.5,300.9,56.5,300.9z"/>
		<g>
			<g>
				<g>
					<g>
						<polygon class="st1" points="55.3,249.2 39.5,226.9 38,227.9 54.2,250.1 						"/>
						
							<ellipse transform="matrix(0.1405 -0.9901 0.9901 0.1405 -191.7431 232.4866)" class="st1" cx="38" cy="226.7" rx="2.1" ry="2.1"/>
						<path class="st55" d="M85.9,271.9c-0.2-0.4-20.5-30-20.5-30l-3.7-0.3l-11.5,11.2l21.5,25.5l4.1,1.8L85.9,271.9z"/>
						<polygon class="st56" points="80.7,270.3 61.8,243 51.5,252.8 71.9,277.2 						"/>
					</g>
					<polygon class="st57" points="65.7,251.7 63,247.8 54.9,254.9 58,258.1 					"/>
				</g>
				<path class="st36" d="M64.1,259.3c-2.2-0.1-5.3,2.4-6,4.6c-1.5,5,2.4,12.3,10.8,10.7c0.8-0.2-0.3-2.1-0.3-2.1s1.8-2.6,2.5-4.5
					c0.7-1.9-1.1-2.4-1.1-2.4s0.8-1-0.1-2.8c-0.6-1.3-3.1-1.3-3.1-1.3S66.7,259.5,64.1,259.3z"/>
			</g>
			<path class="st38" d="M70.5,265.8c-0.2-0.1-2.1-0.5-3.6,0.3c-1.5,0.9-2,1.9-2,1.9"/>
			<path class="st38" d="M67.1,261.6c-0.5-0.1-1.7,0.1-3.3,0.8c-1.6,0.7-2.1,1.7-2.1,1.7"/>
		</g>
		<path class="st37" d="M58.1,267.1c0.1-0.4,1.9,2.8,4.6,3.3c2.7,0.4,7.6-1.6,7.6-1.6l-2.3,3.5l0.8,2.4l2.9,3.6l2.9,1.3l-3.4,2
			c0,0-7.3,2.1-9.9,1.1c-2.5-1-3.7-3-3.2-5.4c0.5-2.3,2.6-4,2.6-4S57.6,269.9,58.1,267.1z"/>
	</g>
	<polygon class="st58" points="172.6,194 212.4,130.6 209.3,139.6 225.8,121 210.5,143.3 215.3,141 	"/>
	<polygon class="st58" points="179.6,207.3 241.6,148.1 230.3,163.3 240.2,158.1 230.7,167 236,166.1 	"/>
	<polygon class="st58" points="183.4,219.2 241.6,200.4 239.1,202.7 253.1,200 239,205.6 255.6,204.3 	"/>
	<g>
		<path class="st59" d="M381.3,16.7c-12.1-10.5-28.4-11.5-36.4-2.3s-4.6,25.2,7.6,35.7c12.1,10.5,28.4,11.5,36.4,2.3
			C396.8,43.2,393.5,27.2,381.3,16.7z M362,39.1c-5-4.3-7-10.2-4.4-13.2c2.6-3,8.7-1.9,13.7,2.4s7,10.2,4.4,13.2
			C373.1,44.5,367,43.4,362,39.1z"/>
		<path class="st5" d="M345.6,17.1c0,0-1.2,5,0,4c1.2-1,5-6.2,5.5-6.6s-0.6,2.4,3.6,1s6.6-2.2,6.6-2.2s0.3,1.9,4,2.7
			c3.7,0.8,7,1.2,7,1.2s1.4,3.4,4.4,5.1c3,1.7,5.9,1.7,5.9,1.7s-1.5,5.7,0,6.3c1.5,0.6,3.2,0,3.2,0s-1.9,5.5,0,8
			c1.9,2.4,2.7,3.2,2.7,3.2s-3.5,2.3-2.8,4s1.5,1.9,1.5,1.9s-4,3-3.1,3.6s4.5-1.5,5.7-4.5c1.2-3,2.7-11.3-2.4-19.6
			S372,11.8,363.6,10.7C355.3,9.5,348.4,12.7,345.6,17.1z"/>
	</g>
	<g>
		<g>
			<g>
				<path class="st2" d="M372.6,107.7c-2.2-21.8,39.4-16.6,32,5.3c-0.4,1.2,1.5,1.7,1.9,0.5c8.4-24.7-38.3-30.4-35.8-5.8
					C370.7,109,372.7,109,372.6,107.7L372.6,107.7z"/>
			</g>
		</g>
		<g>
			<path class="st60" d="M384.9,109.5c-0.9-2.8,2.2-6,5.1-5.2c2.9,0.8,4.8,4.7,2.6,6.7"/>
			<g>
				<path class="st2" d="M385.6,109.3c-0.6-2.6,2.2-5.3,4.7-4.1c1.9,0.8,3.5,3.6,1.7,5.2c-0.7,0.7,0.4,1.7,1,1
					c2.6-2.5,0.5-6.7-2.5-7.8c-3.6-1.3-7.2,2.4-6.4,6C384.4,110.6,385.8,110.2,385.6,109.3L385.6,109.3z"/>
			</g>
		</g>
		<g>
			<g>
				<path class="st2" d="M407.3,103.2c9.4-17.9,46.1-1.7,31.9,16.5c-0.8,1,0.6,2.4,1.4,1.4c6.7-8.6,2.6-20.3-6.7-24.9
					c-8.8-4.3-23.3-3.5-28.3,6.1C405.1,103.3,406.8,104.3,407.3,103.2L407.3,103.2z"/>
			</g>
		</g>
		<g>
			<path class="st61" d="M419.4,115.6c-1.3-2.6-0.4-5.8,1.6-7c1.9-1.2,4.7-0.3,6,1.5c1.3,1.8,1.7,5.3,0.9,7.4"/>
			<g>
				<path class="st2" d="M420,115.2c-1.4-3,0.5-7.6,4.4-6.1c3.1,1.2,3.6,5.4,2.7,8.2c-0.3,0.9,1.1,1.3,1.4,0.4
					c1.3-4-0.1-9.6-4.8-10.3c-4.8-0.7-6.6,4.9-5,8.6C419.1,116.8,420.4,116.1,420,115.2L420,115.2z"/>
			</g>
		</g>
		<g>
			<g>
				<path class="st2" d="M396,94.4c1.3-6.4,5.3-9.8,11.7-10.9c6.9-1.1,19.8,1,17.1,11.2c-0.3,1.2,1.6,1.7,1.9,0.5
					c2.3-8.6-6.6-14.2-14.2-14.2c-9,0.1-16.5,3.5-18.4,12.8C393.9,95.1,395.8,95.6,396,94.4L396,94.4z"/>
			</g>
		</g>
		<g>
			<g>
				<path class="st2" d="M475.2,122c1.6-5.1,2.1-9.6-0.5-14.4c-2.4-4.5-6.3-8-11.1-9.5c-9-2.9-19.9,2.7-21.2,12.4
					c-0.2,1.2,1.8,1.2,1.9,0c1.3-9.7,13.2-13.6,21.2-9.5c8.1,4.2,10.4,12.3,7.8,20.5C472.9,122.6,474.8,123.2,475.2,122L475.2,122z"
					/>
			</g>
		</g>
		<g>
			<path class="st62" d="M460.9,123.1c0.7-1.8,1.5-3.7,1.2-5.7c-0.3-1.9-2-3.8-3.9-3.4c-2.8,0.5-3,5.7-2.6,8.5"/>
			<g>
				<path class="st2" d="M461.6,123.3c0.9-2.4,2-5.2,0.6-7.6c-0.9-1.6-2.7-2.9-4.6-2.3c-3.4,1.1-3.2,6.6-2.8,9.3
					c0.1,0.9,1.5,0.5,1.4-0.4c-0.3-2-0.5-5.3,1-6.9c1.5-1.6,3.6,0.2,4,1.9c0.5,1.9-0.4,4-1.1,5.7
					C459.8,123.8,461.3,124.2,461.6,123.3L461.6,123.3z"/>
			</g>
		</g>
		<g>
			<g>
				<path class="st2" d="M434.3,97.2c1.6-7.9,7.6-14.8,16.2-15c9.3-0.2,17,8,14,17.3c-0.4,1.2,1.5,1.7,1.9,0.5
					c3.1-9.5-3.9-18.6-13.6-19.6c-10.3-1.1-18.4,6.7-20.3,16.3C432.2,97.9,434.1,98.4,434.3,97.2L434.3,97.2z"/>
			</g>
		</g>
		<g>
			<g>
				<path class="st2" d="M446.9,94.7c1.3,1.9,2.2,4,1.5,6.3c-0.2,0.9,1.2,1.3,1.4,0.4c0.7-2.7-0.1-5.2-1.7-7.4
					C447.6,93.2,446.4,93.9,446.9,94.7L446.9,94.7z"/>
			</g>
		</g>
	</g>
	<path class="st63" d="M474,108.2c0,0,3.8-1.9,7.6-2.4c7.7-1,11.8,3.8,11.8,3.8L474.8,122C474.8,122,477,112.5,474,108.2z"/>
	<path class="st64" d="M407.6,108.3c0,0,0.1-3.5,1.1-3.5c1,0,3-0.9,2.9-1.9c-0.1-1,3-3.3,4.3-2.8s4.1,1,5.1,0.1
		c0.9-0.9,5.1-2.3,5.8-0.9s2.2,3.1,3.6,2.6s4.2,0.1,4.2,1.6c0,1.5,1,4,2.1,3.9s2.7,1.5,2.2,2.5c-0.5,1-1.6,2.5-1.1,3.4
		c0.5,0.8,0.8,2.8,0.1,3.1c-0.8,0.4-0.8,2.1-0.8,2.1l2.4,0.5c0,0,3-2.6,2.8-8.1c-0.1-4.4-2.8-9.7-8.3-12.5
		c-5.6-2.8-11.2-4.4-17.2-2.5c-5.9,1.9-7.5,4.2-8.5,5.5c-1,1.3-1.6,2.6-1.6,2.6S407.1,105,407.6,108.3z"/>
	<path class="st65" d="M401.1,93.4c-0.1-0.2,0-2.8,0-2.8l0.8-0.1v2.8L401.1,93.4z"/>
	<polygon class="st65" points="404.2,88.8 406.8,86.4 407.3,87 405.1,89.3 	"/>
	<polygon class="st65" points="413,88.7 410.6,87.8 411.1,87.2 413.3,87.9 	"/>
	<polygon class="st65" points="416.8,87.9 415.7,86.4 416.8,86.1 417.6,87.8 	"/>
	<polygon class="st65" points="417.2,92.5 416.1,90.6 417,90.6 418,92.4 	"/>
	<polygon class="st65" points="420.4,92.4 421.4,90.3 422.3,90.5 421.1,92.5 	"/>
</g>
</svg>
