<?xml version="1.0" encoding="utf-8"?>
<!-- Generator: Adobe Illustrator 20.1.0, SVG Export Plug-In . SVG Version: 6.00 Build 0)  -->
<svg version="1.1" id="Layer_1" xmlns="http://www.w3.org/2000/svg" xmlns:xlink="http://www.w3.org/1999/xlink" x="0px" y="0px"
	 viewBox="0 0 222 238" style="enable-background:new 0 0 222 238;" xml:space="preserve">
<style type="text/css">
	.st0{opacity:0.2;enable-background:new    ;}
	.st1{fill:#0268CE;}
	.st2{fill:#0081E0;}
	.st3{fill:#FF0000;stroke:#050505;stroke-width:0.9736;stroke-miterlimit:10;}
	.st4{fill:none;stroke:#000000;stroke-width:0.75;stroke-linecap:round;stroke-linejoin:round;stroke-miterlimit:10;}
	.st5{opacity:0.35;fill:#0C4291;enable-background:new    ;}
	.st6{fill:#9C6BFE;}
	.st7{fill:#0081E0;stroke:#000000;stroke-miterlimit:10;}
	.st8{fill:none;stroke:#000000;stroke-width:0.6976;stroke-linecap:round;stroke-linejoin:round;stroke-miterlimit:10;}
	.st9{fill:#5D6473;}
	.st10{fill:#FFFFFF;}
	.st11{fill:none;stroke:#000000;stroke-width:0.7232;stroke-linecap:round;stroke-linejoin:round;stroke-miterlimit:10;}
	.st12{fill:#9AA8C4;}
	.st13{fill:#014A77;}
	.st14{fill:#FF0000;stroke:#050505;stroke-width:0.9444;stroke-miterlimit:10;}
	.st15{fill:#DD9C3E;stroke:#222426;stroke-miterlimit:10;}
	.st16{fill:#FF0000;stroke:#050505;stroke-width:0.974;stroke-linecap:round;stroke-miterlimit:10;}
	.st17{fill:#FCE227;stroke:#000000;stroke-miterlimit:10;}
	.st18{fill:#222426;}
	.st19{fill:#010101;}
	.st20{fill:none;stroke:#000000;stroke-width:0.7944;stroke-linecap:round;stroke-linejoin:round;stroke-miterlimit:10;}
	.st21{fill:#DD9C3E;stroke:#222426;stroke-linejoin:round;stroke-miterlimit:10;}
	.st22{opacity:0.2;}
	.st23{fill:none;stroke:#000000;stroke-width:6.25;stroke-linecap:round;stroke-linejoin:round;stroke-miterlimit:10;}
	.st24{fill:#46C8F5;}
	.st25{fill:#54A7DC;}
	.st26{fill:#BFC1CA;}
	.st27{fill:#45C7F4;stroke:#000000;stroke-width:1.033;stroke-linecap:round;stroke-linejoin:round;stroke-miterlimit:10;}
	.st28{opacity:0.45;fill:#54A7DC;}
	.st29{fill:#FFFFFF;stroke:#000000;stroke-width:1.1225;stroke-miterlimit:10;}
	.st30{fill:#C7D8EA;}
	.st31{fill:#5A90C6;}
	.st32{fill:none;stroke:#000000;stroke-width:0.855;stroke-linecap:round;stroke-linejoin:round;stroke-miterlimit:10;}
	.st33{fill:none;stroke:#000000;stroke-width:0.8884;stroke-linecap:round;stroke-linejoin:round;stroke-miterlimit:10;}
</style>
<g>
	<g>
		<path d="M886.6,6466.5c-0.3,0-0.5-0.1-0.8-0.2c-4.2-2.5-7.6-6.2-10.3-11c-1.5-2.7-2.7-4.4-3.9-5.4c-0.6-0.5-1.2-0.8-1.8-0.9
			c-0.2,0-0.3,0.1-0.5,0.1h-0.1c-1.3,0.4-2.5,2.1-3.5,5.1c-0.7,2-1.8,4.7-3.1,8.1l-0.6,1.5c-0.2,0.6-0.8,0.9-1.4,0.9h-15.3
			c-0.7,0-1.3-0.4-1.4-1.1c-0.2-0.6,0.1-1.3,0.6-1.7l3.6-2.3c-3.7-5.7-9-15.5-10.2-24.7c-3.3-1.8-6.4-4.1-9.4-6.8
			c-11.6-10.7-14.5-28.5-15.2-38.9c-1.1-0.4-2.1-0.9-2.8-1.4c-1.1,0.2-2.2,0.4-3.4,0.6c-0.4,0.1-0.9,0.1-1.3,0.1c-0.5,0-1,0-1.6-0.1
			c-1.1-0.1-2.1-0.3-3.1-0.7c-0.4-0.1-0.7-0.3-1.1-0.6c-2.1-1-3.4-2.1-3.5-2.2c-0.3-0.3-0.5-0.6-0.5-1v-0.2c-1.8,0-4.2-0.3-6-1.5
			c-2.1-1.4-2.7-3.9-3-5.5c-0.1,0-0.2,0-0.3,0c-0.3,0.1-0.7,0.1-1,0.1c-0.9,0-1.8-0.2-2.5-0.7c-1.1-0.6-2.1-1.4-2.9-2.3
			c-3.5-3.2-3.2-7.2-3.2-7.4c0-0.2,0.1-0.3,0.1-0.5l0.5-1.3c0.1-0.3,0.2-0.6,0.3-0.9c-1.8-0.8-4.4-2.7-5.1-7.1
			c-0.8-5.4,2.9-8.7,5.2-9.8c0.6-0.5,1.2-0.8,1.7-1c-0.4-1-0.6-2.5-0.2-4.4c0.9-4.6,5.4-6.5,9.3-6.7c0-0.1,0-0.3,0-0.4
			c-0.1-2.3-0.2-5.1,3.7-7.8c2.7-1.9,5.3-2.8,7.8-2.8c0.7,0,1.4,0.1,2.1,0.3c0.4-0.3,0.8-0.6,1.2-0.9c-2.8-1-5.4-1.4-7.9-1.4
			c-2.1,0-3.9,0.3-5.5,0.6c-21,4.3-35,6.3-44.1,6.3c-6.9,0-11-1.1-13-3.6c-1.2-1.5-1.5-3.3-1.1-5.5c1.6-7.7,24.2-23.7,46.1-35.8
			c-0.7-1.6-1.3-3.2-1.8-4.7c-3.9-9.1-4.8-15.4-2.6-18.8c0.8-1.2,2.3-2.6,5.3-2.6c1.5,0,3.1,0.3,5,1c2.5,0.9,5.1,2.7,8.3,5
			c3.1,2.1,6.8,4.8,11.7,7.4c9.5-3.8,21-7.6,32.4-10.6c1.8-4.1,3.4-8,4.8-11.5c4.6-11.2,7.3-17.9,11.4-17.9c0.1,0,0.1,0,0.2,0
			c2.1,0.1,4.7,0.5,7.6,1c3.9,0,7.2,1.3,8.9,2.1c3.8-3.9,13.6-13.6,17.8-13.6c0.5,0,0.9,0.1,1.3,0.3c20.2,10.8,30.1,18.3,35.3,26.6
			c0.8,1,1.3,2,1.6,2.9c0.9,1.7,1.6,3.6,2.2,5.6c1.5,4.9,3,9.6,4.4,14.1c2.1-1,4.1-1.9,6.1-2.9c12.6-6,23.4-11.1,34.5-11.1
			c4.2,0,8.2,0.7,12.2,2.2c11.6,4.3,19.5,11.8,23.6,22c5.1,12.8,3.5,29.7-4.1,45.1c-1,2-2.1,4-3.2,6c-1.5,3-3.3,5.6-5.3,7.8
			c-4.2,5.3-9,9.8-14.3,13.4c0,0-0.4,0.2-0.5,0.3c0.6,1.3,0.8,2.8,0.6,4.5c0.8,0.2,1.6,0.5,2.4,0.9c0.1-0.1,0.2-0.2,0.3-0.2
			c0.2-0.1,0.5-0.2,0.8-0.2c0.4,0,0.7,0.1,1,0.4c0.2,0.2,5.6,5,5.7,12.9c0,0.2,0,0.3,0,0.5v0.2c0.1,2.1-0.3,4.1-1.1,5.8
			c-1,2.4-2.5,3.5-3,3.8c-0.7,0.5-1.4,0.9-2.1,1.2c1,2.1,2,5.9-0.1,11.3c-2.4,7.7-6.9,9.3-8,9.6c-0.9,0.4-1.9,0.7-2.8,0.8
			c0,0.2,0,0.5-0.1,0.8c-0.3,1.8-1.6,3.4-3.8,4.9c-2,1.6-4.5,2.4-6.9,2.4c-0.8,0-1.7-0.1-2.5-0.3c-0.5,1.3-1.8,3.1-4.4,4.2
			c-0.9,0.4-1.8,0.5-2.7,0.5c-0.3,0-0.7,0-1-0.1c-0.1,0-0.2,0-0.3,0c0,0-0.3-0.1-0.4-0.1c-1.3-0.2-2.5-0.8-3.6-1.5
			c-1.1,0.8-2.3,1.4-3.7,1.8c-1.1,0.4-2.2,0.6-3.2,0.6c-0.8,0-1.5-0.1-2.2-0.4c-0.7-0.1-1.3-0.3-1.8-0.5c-2.3-0.9-4.2-2.6-5.4-4.8
			c-0.3,0-0.7-0.1-1.1-0.1c-1.1-0.1-2.4-0.4-3.7-0.8c-0.6-0.2-1.2-0.4-1.8-0.7c-4.7-1.6-6.4-4.8-6.9-6.5c-0.5-0.1-1-0.2-1.6-0.5
			c-0.2-0.1-0.3-0.1-0.5-0.2c-1.8-0.7-3.3-1.9-4.5-3.5c-0.2-0.2-0.4-0.4-0.5-0.7c-3-0.2-6.6-0.4-10.2-0.6c-1,0-1.9,0-2.9-0.1
			c3.5,3,6.1,5.6,7.9,8.1c0.7,0.9,1.2,1.9,1.3,3.2c0.2,1.1,0.1,2.3-0.5,3.5c0,0.1-0.1,0.1-0.1,0.2c-0.2,0.4-0.5,0.8-0.9,1.2
			c-0.1,0.1-0.1,0.2-0.2,0.2l-0.1,0.1c-0.1,0.1-0.2,0.2-0.2,0.3l0,0c1.3,2.5,2,4.8,2.1,5c0.1,0.4,0.1,0.9-0.2,1.2
			c-0.2,0.4-0.6,0.6-1.1,0.7c-2.8,0.4-9.7,1.5-12.5,2.1c0,0.3,0.1,0.5,0.1,0.8c0.2,0.1,0.5,0.3,0.7,0.5c0.5,0.2,1,0.5,1.3,1
			c2.3,1.7,5.3,4.1,7.3,6.3c3.3,3.6,6.8,7.8,7.1,12c0.3,3.4-1.5,8.9-6.6,10.5c-0.5,0.1-0.9,0.3-1.4,0.4c-0.5,0.8-1.2,1.4-1.9,1.8
			l0.2,0.7l0.2,0.2c0.2,0.2,0.3,0.4,0.4,0.6l0.9,2.8l3.5,2.2c0.6,0.4,0.8,1,0.6,1.7c-0.2,0.6-0.8,1.1-1.4,1.1H886.6z M899.4,6450
			c0.2,0,0.4,0,0.5,0c0-0.2,0.1-0.4,0.1-0.6c0.4-4.4-3.4-12.1-5.7-16.5c-0.1,0.1-0.2,0.2-0.4,0.2L899.4,6450z M903.1,6439.3
			c1.3,3.3,2.2,5.9,2.5,8.2c0.3-0.7,0.5-1.5,0.3-2.5C905.7,6443.5,904.8,6441.5,903.1,6439.3z M819.1,6393.3
			c0.2,1.5,0.4,2.9,0.7,4.2c0.3,1.3,0.5,2.6,0.7,3.8c1,6.2,1.9,11.6,10,21.5c2,2.5,4.5,4.6,7.3,6.3c0.1-1.5,0.2-3.1,0.5-4.8
			c-1.1,0.1-2,0.1-2.5,0.1c-0.4,0-0.6,0-0.6,0c-0.5,0-0.9-0.3-1.2-0.7c-0.3-0.4-0.3-0.9-0.2-1.4l6.7-18.2c-1.3-0.6-2.9-1.5-4.7-2.5
			c0,0-0.1,0-0.1-0.1c-1.1-0.7-2.2-1.4-3.3-2.1c-2.9,2.6-5.7,4-5.8,4c-0.2,0.1-0.4,0.1-0.6,0.1c-0.5,0-1-0.3-1.3-0.7L819.1,6393.3z
			 M781.4,6288.9c-25.5,14.4-42.2,28.6-42,31.8c0,0,0.6,1.3,7.3,1.3c11.2,0,30.2-3.4,40.4-5.3l1.9-0.3c2.5-0.4,4.7-0.7,6.8-0.7
			c5,0,8.3,1.3,11.1,2.7c0.5-1.1,1.1-2,1.8-3c-4.8-3.3-14.8-10.2-22.7-20.4C784.2,6293,782.7,6290.9,781.4,6288.9z M811.8,6321.1
			c0-0.1,0-0.2,0-0.2C811.8,6321,811.8,6321,811.8,6321.1C811.7,6321,811.7,6321,811.8,6321.1z M811.9,6274.6
			c4.6,2,9.5,3.7,14.9,5.1c2.3-3.7,4.5-7.7,6.8-12.1C826,6269.8,818.5,6272.2,811.9,6274.6z"/>
		<path d="M887.7,6222c0.2,0,0.4,0,0.6,0.1c20.4,10.9,29.9,18.2,34.8,26.1c0.7,0.9,1.2,1.8,1.5,2.6l0,0c0.9,1.8,1.6,3.6,2.2,5.5
			c1.8,5.9,3.4,11.1,4.9,15.7c15.8-7.3,28.6-14.6,41.5-14.6c3.9,0,7.7,0.6,11.7,2.1c31.1,11.6,29.1,43.9,18.7,65.1
			c-1,2.1-2.1,4-3.2,5.9c-1.4,2.7-3.1,5.3-5.2,7.6l0,0c-4.4,5.7-9.2,9.9-14,13.1l0,0l0,0c-0.5,0.4-1.1,0.7-1.7,1.1
			c1.1,1.4,1.6,3.3,0.9,6.3c1.8,0.1,3.9,0.9,5.6,2.4c-0.2-1-0.4-1.7-0.4-1.7s5.1,4.4,5.2,11.8c0,0.2,0,0.4,0,0.6
			c0.1,2.2-0.3,3.9-0.9,5.2c-1,2.5-2.5,3.1-2.5,3.1l0,0c-1.8,1.4-3.5,1.7-3.5,1.7s3.7,4.1,0.8,11.6l0,0c-2.5,7.9-7.1,8.7-7.1,8.7
			c-1,0.5-2,0.7-3,0.7c-0.4,0-0.7,0-1.1-0.1c0,0,1.9,2.8-2.9,6.1l0,0c-1.7,1.4-3.9,2.1-6.1,2.1c-1.1,0-2.3-0.2-3.4-0.6
			c-0.1,0-0.1,0-0.1,0s-0.1,3.1-3.9,4.7c-0.7,0.3-1.4,0.4-2.1,0.4c-0.3,0-0.5,0-0.8-0.1c-0.1,0-0.2,0-0.3-0.1c-0.1,0-0.1,0-0.2,0
			c-1.5-0.3-2.9-1-3.8-2.1c-1.2,1.1-2.6,1.9-4.2,2.4c-0.9,0.3-1.8,0.5-2.7,0.5c-0.6,0-1.1-0.1-1.7-0.3c0,0,0,0-0.1,0
			c-0.6-0.1-1.2-0.3-1.7-0.5c-2.3-1-4.1-2.8-5-4.9c0,0-0.1,0-0.5,0c-0.3,0-0.7,0-1.3-0.1c-1-0.1-2.2-0.4-3.5-0.8
			c-0.6-0.2-1.2-0.4-1.7-0.7l0,0c-5.8-2-6.3-6.5-6.3-6.5l0,0c-0.2,0-1,0-2.2-0.5c-0.1-0.1-0.3-0.1-0.4-0.2c-1.6-0.7-2.9-1.7-3.9-3
			l0,0c-0.3-0.4-0.6-0.8-0.8-1.2c-3.2-0.2-7-0.4-11-0.7c-2.5,0-5-0.1-7.5-0.2c5,3.9,8.8,7.4,11.2,10.7c0.6,0.7,0.9,1.5,1,2.5
			c0.2,0.9,0,1.8-0.4,2.7c-0.2,0.4-0.5,0.7-0.9,1.1l0,0l-0.1,0.1c-0.1,0.1-0.1,0.2-0.2,0.3c-0.1,0.1-0.3,0.3-0.5,0.5l-0.4,0.2
			c1.6,2.8,2.6,5.8,2.6,5.8s-11.4,1.7-13.7,2.5c-0.1,0.3-0.2,0.6-0.2,1c0.2,0.7,0.2,1.3,0.2,1.8l0,0c0,0,0.6,0.4,1.6,1.1h0.1
			c0.3,0.1,0.5,0.2,0.7,0.6c2.2,1.6,5.3,4.1,7.4,6.3c3.4,3.6,6.4,7.5,6.8,11.1c0.2,2.7-1.2,7.6-5.6,8.9c-0.6,0.2-1.3,0.3-1.9,0.5
			c-0.6,1-1.5,1.9-2.8,2.4l0.7,2.2v0.1c0.1,0.1,0.3,0.3,0.4,0.4l1.1,3.3l4,2.5h-0.3h-19h-0.3c-3.9-2.3-7.2-5.8-9.7-10.4
			c-1.5-2.7-2.8-4.6-4.2-5.8c-0.9-0.8-2-1.2-2.9-1.3c-0.2,0-0.3,0.1-0.4,0.1h-0.1c-0.1,0-0.1,0-0.2,0c-1.9,0.5-3.4,2.4-4.7,6.1
			c-0.8,2.3-2.1,5.5-3.7,9.5h-4.3h-0.3H846h-0.3l4.9-3.1c-4.8-7.3-10-17.4-10.9-26.1c-3.2-1.7-6.5-3.9-9.8-7
			c-11.5-10.6-14.2-28.6-14.8-38.9c-1.4-0.4-2.9-1-3.9-1.9c-1.1,0.3-2.4,0.5-4,0.7c-0.4,0-0.8,0.1-1.1,0.1c-0.5,0-1,0-1.4-0.1
			c-0.9-0.1-1.8-0.2-2.7-0.6c-0.3-0.1-0.7-0.3-1-0.5c-1.9-0.9-3.2-2-3.2-2l-0.1-1.7c0,0-0.4,0-1.1,0c-1.4,0-3.8-0.2-5.5-1.3
			c-2.5-1.6-2.4-5.7-2.4-5.7s-0.1,0-0.3,0c-0.3,0-0.8,0-1.5-0.1c-0.3,0.1-0.6,0.1-1,0.1c-0.6,0-1.2-0.1-1.8-0.5
			c-1-0.6-1.9-1.2-2.6-2l0,0c-3-2.7-2.8-6.2-2.8-6.2l0.6-1.4c0.1-0.4,0.2-0.8,0.4-1.2c0.2-0.4,0.4-0.8,0.6-1.1c0,0,0,0-0.1,0
			c-0.2,0-0.4-0.1-0.6-0.1c-1.4-0.4-4.3-1.8-5-6.2c-0.9-5.9,4.5-8.3,4.5-8.3c1.4-1.2,2.7-1.2,3.1-1.5c0,0-1.7-1.5-1-4.9
			c0.9-4.4,5.6-5.6,8.8-5.6c0.2,0,0.3,0,0.5,0c0.3-2.9-1.1-5.6,3.1-8.5c2.7-1.9,5-2.6,6.9-2.6c1,0,1.8,0.2,2.6,0.5
			c0.9-1.1,2.1-1.7,3.5-1.9c0.1-0.6,0.3-1,0.3-1l2,1c0.2,0,0.4,0.1,0.6,0.1c-0.2-0.1-0.5-0.3-0.7-0.4c-5.3-2.6-9.3-3.4-12.8-3.4
			c-2.1,0-4,0.3-5.8,0.7c-20.3,4.1-34.6,6.2-43.8,6.2c-9.7,0-13.6-2.4-12.6-7.3c1.4-6.7,23-22.5,46.6-35.4c-1-1.9-1.8-3.8-2.3-5.8
			l0,0c-5.7-13.2-4.4-19.4,1.3-19.4c1.3,0,2.8,0.3,4.5,0.9c4.7,1.7,10.1,7.2,20.4,12.7c9.7-3.9,21.7-7.9,33.6-11
			c7.1-15.8,10.9-29.1,15.2-29.1h0.1c2.4,0.1,5,0.5,7.6,1h0.1c3.9,0,7.1,1.4,8.5,2c0.6,0.2,0.9,0.3,0.9,0.3S883.5,6222,887.7,6222
			 M827.4,6281.4c3.4-5.3,6.4-10.9,8.9-16.2c-10.1,2.9-20.2,6.1-28.4,9.3C813.2,6277,819.5,6279.4,827.4,6281.4 M746.6,6323.5
			c12.1,0,33.3-4,42.6-5.6c2.5-0.4,4.6-0.6,6.5-0.6c6.6,0,10.1,2.3,13.6,4.2c1.5,0.8,3,1.7,4.4,2.6c0.1-0.1,0.3-0.2,0.4-0.3
			c-0.3-0.7-0.7-1.8-1-3.4l0,0l-0.7-3.4c-1.9,2.3-2.5,4.5-2.5,4.5l-2.4-1.1c1-2.2,1.8-3.6,3.3-5.1c-3.6-2.6-15.1-9.9-23.8-21
			c-1.9-2.3-3.7-4.7-5.2-7.2c-22.9,12.8-44.3,28.9-44,33.9C737.9,6322.7,741.4,6323.5,746.6,6323.5 M852.7,6391
			c-5-1.2-9.6-2.4-13.8-3.8c0,0,0,0,0,0.1c6.6,2.8,12.6,3.3,12.5,3.5c0,0,0,0,0,0.1C851.8,6390.9,852.3,6391,852.7,6391
			 M839.3,6431.6c-0.1-2.8,0.2-5.9,0.8-9.1c-1.8,0.4-3.5,0.4-4.4,0.4c-0.3,0-0.5,0-0.5,0l6.9-18.5c0,0,0.4-0.3,0.9-0.7
			c-1.2-0.5-3.6-1.6-6.4-3.3c0,0,0,0-0.1,0l0,0c-1.3-0.8-2.8-1.7-4.2-2.8c-3.1,3.1-6.3,4.6-6.3,4.6l-7.7-13.2c0,0-0.4-0.1-1.1-0.2
			c0.2,2.6,0.5,5.8,1.1,9.1c1.6,7.8,1.1,13.7,10.9,25.9C832.1,6427.2,835.6,6429.8,839.3,6431.6 M891.7,6407.9l0.1-0.5
			c-1.2-0.5-2.5-0.9-4.2-1.9C889.2,6406.6,890.5,6407.3,891.7,6407.9 M904,6450.7c2.4-1,3.9-3.1,3.4-6c-0.9-5-7.7-11.9-11.6-15.4
			l0,0c1.5,2.1,3.7,5.3,4.8,8.1C903.2,6443.3,904.9,6447.5,904,6450.7 M900.2,6451.5c0.3,0,0.6,0,0.9,0c0.2-0.6,0.4-1.2,0.5-1.9
			c0.5-5.3-4.4-14.6-6.8-18.9c-0.7,0.7-1.6,1.3-2.7,1.7l6.2,18.9C898.9,6451.5,899.5,6451.5,900.2,6451.5 M887.7,6219v3V6219
			c-1.9,0-4.8,0.9-12.3,7.7c-2.4,2.2-4.5,4.3-5.9,5.6c-2-0.8-5-1.8-8.4-1.8c-2.9-0.6-5.5-0.9-7.7-1c-0.1,0-0.2,0-0.3,0
			c-5.1,0-7.9,6.7-12.8,18.8c-1.3,3.3-2.9,7-4.5,10.8c-11,3-22,6.6-31.3,10.3c-4.5-2.5-8-5-10.9-7c-3.3-2.3-6-4.2-8.7-5.2
			c-2-0.7-3.9-1.1-5.5-1.1c-2.8,0-5.2,1.2-6.6,3.3c-2.5,3.9-1.8,10.5,2.4,20.1c0.3,1.2,0.8,2.3,1.3,3.5
			c-16.2,9.1-43.6,26.6-45.6,36.1c-0.7,3.3,0.4,5.5,1.4,6.7c2.3,2.8,6.8,4.1,14.1,4.1c9.1,0,23.2-2,44.4-6.3c1.4-0.3,3.1-0.6,5-0.6
			c-1.3,0.5-2.6,1.2-4,2.2c-4,2.8-4.4,5.9-4.3,8.2c-4.1,0.6-8.3,2.9-9.3,7.8c-0.3,1.5-0.3,2.8-0.1,3.9c-0.2,0.2-0.5,0.3-0.7,0.5
			c-2.6,1.3-6.8,5.1-5.9,11.3c0.6,4.2,2.8,6.4,4.7,7.6l-0.3,0.8c-0.1,0.3-0.2,0.6-0.2,0.9c0,0.5-0.2,4.9,3.6,8.5
			c0.9,1,2,1.8,3.2,2.5c1,0.6,2.1,0.9,3.3,0.9h0.1c0.4,1.8,1.3,3.9,3.4,5.2c1.7,1.1,3.8,1.6,5.6,1.7c0.2,0.4,0.4,0.7,0.7,1
			c0.2,0.1,1.6,1.3,3.8,2.4c0.4,0.2,0.8,0.4,1.2,0.6c1.1,0.5,2.3,0.7,3.5,0.8c0.6,0.1,1.2,0.1,1.7,0.1s1,0,1.5-0.1
			c1-0.1,2-0.3,2.9-0.5c0.5,0.3,1.1,0.6,1.7,0.9c0.8,10.7,4,28.2,15.6,38.9c2.9,2.6,5.9,4.9,9,6.6c1.3,8.6,5.9,17.5,9.5,23.3
			l-2.4,1.5c-1.1,0.7-1.6,2.1-1.3,3.4s1.5,2.2,2.9,2.2h0.3h10.4h0.3h4.3c1.2,0,2.3-0.7,2.8-1.9l0.6-1.5c1.4-3.4,2.4-6,3.1-8.1
			c1-2.9,1.9-3.8,2.4-4.1c0.1,0,0.2,0,0.3,0c0.2,0.1,0.5,0.2,0.8,0.5c0,0,0,0,0.1,0c1,0.9,2.1,2.4,3.5,5c2.7,5,6.4,8.9,10.8,11.5
			c0.5,0.3,1,0.4,1.5,0.4h0.3h19h0.3c1.3,0,2.5-0.9,2.9-2.2c0.4-1.3-0.2-2.7-1.3-3.4l-3.1-1.9l-0.8-2.3c-0.1-0.2-0.2-0.4-0.3-0.6
			c0.3-0.3,0.6-0.6,0.9-0.9c0.3-0.1,0.7-0.2,1-0.3c5.9-1.8,8-8.2,7.7-12.1c-0.4-4.7-3.9-9-7.5-12.9c-2-2.2-5-4.6-7.3-6.3
			c-0.1-0.1-0.2-0.2-0.3-0.3c2.9-0.5,6.8-1.2,9.8-1.6c0.9-0.1,1.6-0.6,2.1-1.4c0.5-0.7,0.6-1.7,0.3-2.5c0-0.1-0.6-2-1.7-4.3
			c0.4-0.5,0.7-0.9,0.9-1.3c0.1-0.1,0.1-0.2,0.2-0.3c0.7-1.5,0.9-3,0.6-4.4c-0.2-1.5-0.7-2.8-1.6-3.9c-1.3-1.8-2.9-3.6-5-5.6
			c2.9,0.2,5.8,0.4,8.3,0.5c0,0.1,0.1,0.1,0.1,0.2c1.3,1.7,3.1,3.1,5.1,3.9c0.2,0.1,0.3,0.1,0.5,0.2l0,0c0.3,0.1,0.7,0.2,1,0.3
			c1,2.3,3.2,5.1,7.5,6.6c0.6,0.3,1.2,0.5,1.9,0.7c1.4,0.4,2.7,0.7,4,0.9c0.1,0,0.2,0,0.3,0.1c1.4,2.2,3.4,3.8,5.7,4.8
			c0.6,0.2,1.2,0.4,2,0.6c0.8,0.3,1.7,0.5,2.6,0.5c1.1,0,2.4-0.2,3.6-0.7c1.1-0.3,2.2-0.8,3.2-1.4c1,0.6,2.1,1,3.3,1.2
			c0.1,0,0.1,0,0.2,0h0.1c0.2,0,0.3,0,0.4,0.1c0.4,0.1,0.8,0.1,1.2,0.1c1.1,0,2.2-0.2,3.3-0.7c2.3-1,3.8-2.4,4.7-3.9
			c0.5,0.1,1.1,0.1,1.6,0.1c2.8,0,5.6-1,7.8-2.7c2.4-1.7,3.9-3.5,4.4-5.6c0.6-0.1,1.3-0.4,1.9-0.6c1.6-0.4,6.3-2.4,8.9-10.5
			c1.8-4.6,1.5-8.4,0.6-11.1c0.3-0.2,0.6-0.4,1-0.6c0.8-0.5,2.5-1.7,3.6-4.5c0.9-1.9,1.3-4,1.2-6.4v-0.1c0-0.2,0-0.4,0-0.5
			c-0.1-8.6-5.9-13.8-6.2-14c-0.6-0.5-1.3-0.7-2-0.7c-0.4,0-0.8,0.1-1.2,0.2c-0.2-0.1-0.5-0.2-0.7-0.3c0-1-0.1-1.9-0.4-2.8
			c5.3-3.6,10-8,14.2-13.3c2-2.3,3.9-5,5.5-8.1c1.1-1.9,2.2-3.9,3.2-6c7.8-15.8,9.4-33.1,4.1-46.4c-4.2-10.7-12.4-18.3-24.5-22.9
			c-4.2-1.6-8.4-2.3-12.8-2.3c-11.5,0-22.5,5.2-35.2,11.3c-1.5,0.7-3,1.4-4.5,2.2c-1.3-3.9-2.6-8.1-3.9-12.4c-0.6-2.1-1.4-4-2.3-5.7
			c-0.4-1-0.9-2-1.7-3.1c-5.4-8.5-15.5-16.1-35.9-27C889.1,6219.2,888.4,6219,887.7,6219L887.7,6219z M816.1,6274.7
			c4.6-1.6,9.5-3.2,14.5-4.7c-1.5,2.9-3,5.5-4.5,8C822.6,6277,819.2,6275.9,816.1,6274.7L816.1,6274.7z M741.2,6320
			c2.4-3.7,15.2-15.2,39.7-29.1c1.2,1.7,2.5,3.4,3.9,5.1c7.4,9.5,16.6,16.2,21.8,19.8c-0.1,0.2-0.3,0.4-0.4,0.6
			c-2.7-1.2-5.9-2.2-10.5-2.2c-2.2,0-4.5,0.2-7.1,0.7l-1.9,0.3c-9.4,1.7-29.1,5.2-40.1,5.2C743.7,6320.5,742.1,6320.2,741.2,6320
			L741.2,6320z M832.3,6422.6c-0.2-0.2-0.4-0.5-0.6-0.7c-7.7-9.5-8.6-14.7-9.6-20.6l1.4,2.4c0.6,0.9,1.6,1.5,2.6,1.5
			c0.4,0,0.9-0.1,1.3-0.3c0.1-0.1,2.5-1.2,5.3-3.5c0.8,0.5,1.6,1,2.4,1.5l0.1,0.1c1.4,0.8,2.6,1.5,3.6,2l-6.3,16.9
			C832.3,6422.1,832.3,6422.3,832.3,6422.6L832.3,6422.6z M835.8,6425.9c0.2,0,0.5,0,0.8,0c0,0.2,0,0.4-0.1,0.6
			C836.3,6426.3,836,6426.1,835.8,6425.9L835.8,6425.9z"/>
	</g>
	<path class="st0" d="M867.6,6475c16.6,0,30.9-0.9,42.6-2.8c11.8-2,17.7-4.3,17.7-7c0-2.6-5.9-5-17.7-7c-11.7-1.8-26-2.8-42.6-2.8
		c-16.7,0-30.9,1-42.6,2.8c-11.8,2-17.6,4.4-17.6,7c0,2.7,5.8,5,17.6,7C836.7,6474.1,850.9,6475,867.6,6475z"/>
	<g>
		<g>
			<g>
				<g>
					<path class="st1" d="M887.1,6394.5c-12.7,1.3-24.3-2.7-36.8-3.9c-1,2.2-3,6.9-3.9,8.3c0.9-0.2,1.7-0.2,2.5-0.3
						c0.4-0.1,2.3-0.1,5.9-0.1c8,0,13.9,1.3,17.8,4c4.5,2.9,6.7,8,6.8,15c0,7.4,2.8,15.6,8,24.7c3.5,6.3,7.9,11.7,12.9,16.4
						l-11-33.7c-1-0.5-2.1-1-3.2-1.7c-1.4-0.7-2.3-1.6-2.6-2.6c-0.3-1.1-0.3-2.1,0-3.2s0.9-1.9,1.9-2.6l0.5-0.3
						c-1.5-5.5-1.1-6.8-0.7-9.6c0-0.4,0-0.7,0.1-1.1c0.2,0.1,0.3,0.2,0.4,0.3c0.6-0.7,0-4.3,0.4-4.6c0.6-0.9,1.5-1.3,2.6-1.3
						c1.5,0,3.4,0.8,6,2.6c0.2,0.2,0.5,0.4,0.7,0.5v0.4c2.9,2.9,6.3,6.8,9.9,11.5c0.5-0.5,0.9-1,1.2-1.5c0.4-0.9,0.6-1.8,0.4-2.7
						c-0.1-1-0.4-1.8-1-2.5c-2.7-3.8-7.2-7.8-13.3-12.3v-0.5C890.7,6394,888.8,6394.2,887.1,6394.5z"/>
					<path class="st2" d="M894.6,6400.5c-2.6-1.8-4.2-2.6-5.8-2.6c-1.1,0-2.3,0.7-2.9,1.6c-0.4,0.3,0.2,3.9-0.4,4.6
						c4,2.6,6.1,2.2,8.5,4.6l-8.3,5.8l-0.5,0.3c-1,0.7-1.6,1.5-1.9,2.6s-0.3,2.1,0,3.2c0.3,1,1.2,1.9,2.6,2.6
						c1.1,0.7,2.2,1.2,3.2,1.7c2,0.1,3.7-1.4,3.7-4.5l11.8-6.7c0.2-0.2,0.8-0.8,0.9-0.9c-3.6-4.7-6-7.7-8.9-10.6l-1.2-1
						C895.4,6401.1,894.8,6400.7,894.6,6400.5z"/>
					<path class="st2" d="M843.9,6405.1c-4.3,12.5-4.6,20.3-4.7,22.7c0,0,0,0.1-0.1,0.2c0,0.4,0,0.6,0,1c0.1,0.4,0.1,0.9,0,1.4
						c0,0.4,0,0.7,0,1c0.2,9.2,5.8,20.2,11,28.1l-4.9,3.1h10.7v-0.2c0.8-1.3,1.6-3.5,2.4-6.7s1.6-5.5,2.2-6.6c1.1-2,2.8-3,5-3
						c0.5,0,1.6,0.3,3.4,0.9c0.1,0,0.3-0.1,0.5-0.1c1,0,2.1,0.4,3.1,1.3c1.4,1.2,2.7,3.1,4.2,5.8c2.5,4.6,5.8,8.1,9.7,10.4h19.3
						l-4-2.5l-1.1-3.3c-5-4.7-9.4-10.1-12.9-16.4c-5.2-9.1-8-17.3-8-24.7c-0.1-7-2.3-12.1-6.8-15c-3.9-2.7-9.8-4-17.8-4
						c-3.6,0-5.5,0-5.9,0.1c-0.8,0.1-1.6,0.1-2.5,0.3 M838.8,6428l0.4-0.2"/>
					<path class="st3" d="M884,6395.1c0,0-2.2,0.9-1.2,4.9c0.6,2.6,2.5,3.7,2.5,3.7s2.4,12,2.5,13.7c0.2,1.8,1.8,8.5,1.8,8.5
						l-8.6-3.6c-4.9-1.7-7.5-8.3-7.6-13.5c0-0.4,0-0.8,0-1.2c0.2-8,3.6-13.1,3.6-13.1L884,6395.1z"/>
					<path class="st1" d="M855.6,6462.4v0.2h4.6c1.6-4,2.9-7.2,3.7-9.5c1.3-3.7,2.9-7,5.5-6.2c-1.8-0.6-3.7-0.8-4.2-0.8
						c-2.2,0-3.9,1-5,3c-0.6,1.1-1.4,3.4-2.2,6.6C857.2,6458.9,856.4,6461.1,855.6,6462.4z"/>
					<path class="st4" d="M892.6,6394.2c6.1,4.5,10.6,8.5,13.3,12.3c0.6,0.7,0.9,1.5,1,2.5c0.2,0.9,0,1.8-0.4,2.7
						c-0.3,0.5-0.7,1-1.2,1.5c-0.1,0.1-0.3,0.3-0.5,0.5l-11.9,6.7c-1,3.2,0,5.2-3.6,4.5"/>
					<path class="st4" d="M885.3,6403.8c0.2,0.1,0.3,0.2,0.4,0.3c4,2.6,5.6,3.2,8.5,4.6l-8.3,5.8"/>
					<path class="st4" d="M889.3,6424.9c-1-0.5-2.1-1-3.2-1.7c-1.4-0.7-2.3-1.6-2.6-2.6c-0.3-1.1-0.3-2.1,0-3.2s0.9-1.9,1.9-2.6
						l0.5-0.3"/>
					<path class="st4" d="M846.4,6398.9c1-2.4,1-2.8,2-4.7"/>
					<path class="st4" d="M889.3,6424.9l11,33.7l1.1,3.3l4,2.5h-19.3c-3.9-2.3-7.2-5.8-9.7-10.4c-1.5-2.7-2.8-4.6-4.2-5.8
						c-1-0.9-2.1-1.3-3.1-1.3c-0.2,0-0.4,0.1-0.5,0.1c-1.9,0.5-3.4,2.4-4.7,6.1c-0.8,2.3-2.1,5.5-3.7,9.5h-4.6h-10.7l4.9-3.1
						c-5.2-7.9-10.8-18.9-11-28.1c-0.7-15.6,11.5-40.4,11.5-40.8"/>
				</g>
				<polygon class="st5" points="889.7,6451.5 893.9,6461 899.3,6464.4 905.7,6464.4 901.5,6461.8 899.1,6455.3 				"/>
				<g>
					<path class="st6" d="M804.5,6386.8c-1.2,0-2.3-0.2-3.4-0.7c-1.9-0.8-3.5-2.3-4.4-4.1c-1.3,0-2.7-0.3-4.3-0.8
						c-3.2-1.1-4.5-5-4.9-6.6c-0.5,0.2-1.3,0.5-2.2,0.5c-0.7,0-1.4-0.2-2.1-0.5c-4.5-2.6-6.3-7.2-4.6-11.4c0.1-0.2,0.2-0.4,0.3-0.6
						c-1-0.3-1.9-1.1-3.1-2.6c-1.7-2.3-3.2-5.6,1.2-11.5c1.4-1.9,2.9-2.3,3.7-2.6l0,0c-0.5-0.8-1.1-2.3-0.7-4.8c0.9-4.4,5.4-6,9.3-6
						l0,0c0-0.5,0-1,0-1.4c-0.1-2.3-0.2-4.6,3.3-7c2.5-1.8,4.9-2.7,7.2-2.7c0.8,0,1.7,0.1,2.4,0.4c1.1-1.2,2.7-1.9,4.6-1.9
						c1.5,0,3.2,0.4,5.1,1.1c1.7-1.6,3.2-2.3,4.9-2.3c1.1,0,2.3,0.3,4,0.9c4.5,1.6,7.3,4.9,8,9.5c0.8,0.1,1.7,0.3,2.4,0.6
						c2.8,1.2,5.7,2.8,4.9,7.6c3.1,0.5,7,3.4,8.1,7.6c1,3.8,0.8,6.9-0.7,9.2c-1.3,1.9-3.1,2.7-4.2,3c1.1,1.6,3,6.2-1.8,13.2
						c-1.3,1.9-4,3.9-6.7,3.9l0,0c-0.1,0-0.3,0-0.4,0c0.1,0.3,0.2,0.7,0.1,1.1c-1.4,3.2-4.5,5.3-8,5.3c-1.2,0-2.3-0.2-3.4-0.7
						c-0.3,1.8-1.5,3.2-3,3.7c-0.6,0.2-1.2,0.3-1.9,0.3c-1.6,0-3.3-0.7-4.5-1.7C808.4,6386.2,806.5,6386.8,804.5,6386.8z"/>
					<g>
						<path d="M817,6321.8c1.1,0,2.4,0.3,3.9,0.9c5.4,2,7.3,6,7.7,9.5c0.9,0.1,1.8,0.3,2.7,0.6c2.7,1.1,5.6,2.7,4.5,7.5
							c3.2,0.2,7.1,3.2,8.2,7.3c2.8,10.6-5.3,11.7-5.3,11.7s4.5,4.8-1.4,13.3c-1.4,2-3.9,3.7-6.3,3.7c-0.4,0-0.7,0-1.1-0.1
							c-0.1,0.4,0.4,1.1,0.2,1.5c-1.3,3.1-4.4,5-7.6,5c-1.1,0-2.2-0.2-3.2-0.6c-0.2-0.1-0.4-0.2-0.6-0.3c-0.1,2-1.3,3.5-2.8,4
							c-0.6,0.2-1.1,0.3-1.7,0.3c-1.7,0-3.4-0.7-4.4-1.9c-1.5,1.4-3.5,2.1-5.5,2.1c-1.1,0-2.1-0.2-3.2-0.6c-2-0.8-3.4-2.4-4.3-4.2
							c0,0,0,0-0.1,0c-1.2,0-2.6-0.2-4.4-0.8c-3.8-1.3-4.7-6.9-4.7-6.9s-1.1,0.8-2.6,0.8c-0.6,0-1.2-0.1-1.8-0.5
							c-3.9-2.3-6.1-6.6-4.4-10.8c0.2-0.4,0.4-0.7,0.6-1.1c-0.9-0.1-1.9-0.6-3.4-2.6c-1.9-2.5-2.7-5.6,1.2-10.9
							c1.7-2.4,3.6-2.2,4.2-2.6c0,0-1.7-1.5-1-4.9c0.9-4.4,5.6-5.6,8.8-5.6c0.2,0,0.3,0,0.5,0c0.3-2.9-1.1-5.6,3.1-8.5
							c2.7-1.9,5-2.6,6.9-2.6c1,0,1.8,0.2,2.6,0.5c1.1-1.4,2.7-1.9,4.5-1.9c1.7,0,3.5,0.5,5.2,1.2
							C814,6322.5,815.4,6321.8,817,6321.8 M812.2,6324.2L812.2,6324.2L812.2,6324.2 M812.2,6324.2L812.2,6324.2L812.2,6324.2
							 M812.2,6324.2L812.2,6324.2L812.2,6324.2 M812.2,6324.2L812.2,6324.2L812.2,6324.2 M812.2,6324.2L812.2,6324.2L812.2,6324.2
							 M812.2,6324.2L812.2,6324.2L812.2,6324.2 M812.2,6324.2L812.2,6324.2L812.2,6324.2 M812.2,6324.2L812.2,6324.2L812.2,6324.2
							 M812.2,6324.2L812.2,6324.2L812.2,6324.2 M812.2,6324.2C812.2,6324.2,812.2,6324.3,812.2,6324.2
							C812.2,6324.3,812.2,6324.2,812.2,6324.2 M812.2,6324.3L812.2,6324.3L812.2,6324.3 M812.2,6324.3L812.2,6324.3L812.2,6324.3
							 M817,6320.8c-1.8,0-3.3,0.7-5,2.3c-1.8-0.7-3.5-1.1-5-1.1c-2,0-3.6,0.6-4.8,1.8c-0.7-0.2-1.5-0.3-2.3-0.3
							c-2.3,0-4.9,0.9-7.5,2.8c-3.6,2.5-3.5,5.1-3.5,7.4c0,0.3,0,0.6,0,0.9c-6,0.2-8.7,3.4-9.3,6.4c-0.4,2.1,0,3.6,0.4,4.6
							c-0.9,0.3-2.2,0.9-3.4,2.6c-3.6,4.8-3.9,8.6-1.2,12.1c1,1.3,1.9,2.1,2.8,2.6v0.1c-1.9,4.4,0.1,9.3,4.8,12
							c0.7,0.4,1.5,0.6,2.3,0.6c0.7,0,1.4-0.2,1.9-0.3c0.5,1.9,1.9,5.4,5,6.4c1.5,0.5,2.9,0.8,4.1,0.9c1,1.8,2.6,3.3,4.5,4.1
							c1.1,0.5,2.3,0.7,3.6,0.7c2,0,3.9-0.6,5.5-1.8c1.2,1,2.9,1.6,4.5,1.6c0.7,0,1.4-0.1,2.1-0.3c1.5-0.5,2.7-1.9,3.2-3.6
							c1,0.3,2,0.5,3,0.5c3.7,0,7-2.2,8.5-5.6c0.1-0.3,0.1-0.5,0.1-0.7c2.9-0.1,5.6-2.2,7-4.2c4.5-6.6,3.2-11.2,2.1-13.3
							c1.1-0.4,2.7-1.3,3.8-3c1.6-2.4,1.8-5.6,0.8-9.6c-1.1-4.2-4.8-7.1-8-7.9c0.6-5.1-3.2-6.7-5.3-7.6c-0.7-0.3-1.4-0.5-2.2-0.6
							c-0.8-4.6-3.7-7.9-8.3-9.6C819.5,6321.1,818.2,6320.8,817,6320.8L817,6320.8z"/>
					</g>
				</g>
				<path class="st5" d="M778.6,6347.6c0,0-1.4,5.6,1.6,8.3s7.8,2.8,7.8,2.8s-0.3,6.6,4.3,8.3c4.7,1.7,8-3,8-3s2.3,2.9,5,2.7
					c2.7-0.2,4.5-3.1,4.5-3.1l8,6.5l3,7.8l-6.8,6.7c0,0-2.4,1.2-7.5,1.9c-5,0.6-9.4-3.1-9.4-3.1l-0.1-1.7c0,0-4.1,0.4-6.6-1.2
					s-2.4-5.7-2.4-5.7s-4.1,0.2-7.1-2.5s-2.8-6.2-2.8-6.2l1.5-3.6c0,0-4.8-0.5-5.7-6.4S778.6,6347.6,778.6,6347.6z"/>
				<path class="st7" d="M824.4,6303.3c-4.6,16.6-12.1,46-14.6,60.2c-2.6,14.4,39.6,36.7,120.2,31.9c7.1-0.4,7.3-28.2,8.6-63.2
					C940,6297.1,847.4,6219.2,824.4,6303.3z"/>
				<g>
					<line class="st8" x1="823.9" y1="6335.2" x2="829.7" y2="6339.1"/>
					<polyline class="st8" points="822,6340.7 827.7,6343.7 828,6343.9 					"/>
					<ellipse transform="matrix(0.1718 -0.9851 0.9851 0.1718 -5559.0635 6076.5938)" cx="834.5" cy="6344.5" rx="8.3" ry="6.6"/>
				</g>
				<g>
					<path class="st9" d="M843.6,6359.9c0.2,3.1,1.7,6,4.4,8.7c3.5,3.4,8,5.3,13.5,5.9c1.1,0,2.3,0.1,3.4,0.1v-0.3
						c0.7,0.1,1.4,0.1,2.2,0.2c0.3-0.1,0.6-0.1,0.9-0.2c3-0.5,5.7-1.6,8.2-3.2c3.1-1.8,5.2-4.1,6.4-6.8l-23.8,1.3l-3.5-6.3
						L843.6,6359.9z"/>
					<path class="st10" d="M882.4,6364.3c0.6-1.2,1-2.5,1.2-3.8c0.1-0.8,0.2-1.7,0.1-2.5l-34.2,1.6c0,0,2,5.6,3.5,6.5
						C859.6,6369.9,882.4,6364.3,882.4,6364.3z"/>
					<path class="st11" d="M882.4,6364.3c0,0-22.9,5.6-29.4,1.8c-1.5-0.9-3.5-6.5-3.5-6.5"/>
					<path class="st11" d="M882.4,6364.3c0.6-1.2,1-2.5,1.2-3.8c0.1-0.8,0.2-1.7,0.1-2.5l-28.5,1.3"/>
					<path class="st11" d="M855.2,6359.3l-11.6,0.6c0.2,3.1,1.7,6,4.4,8.7c3.5,3.4,8,5.3,13.5,5.9c1.1,0,2.3,0.1,3.4,0.1
						c0.6,0,1.4-0.1,2.1-0.1c0.3-0.1,0.6-0.1,0.9-0.2c3-0.5,5.7-1.6,8.2-3.2c3.1-1.8,5.2-4.1,6.4-6.8"/>
				</g>
				<g>
					<g>
						<path class="st12" d="M825.9,6339.6l-0.3,0.6l0.4,0.2C825.9,6340.1,825.9,6339.8,825.9,6339.6z"/>
						<path class="st13" d="M898,6365.9c0-0.4-0.2-0.8-0.4-1.1c-0.3-0.3-0.8-0.5-1.3-0.5s-0.9,0-1.3,0.3s-0.6,0.6-0.7,1
							c0,0.4,0.1,0.8,0.4,1.1c0.3,0.3,0.8,0.5,1.3,0.5s0.9,0,1.3-0.3C897.6,6366.7,897.9,6366.3,898,6365.9z"/>
						<path class="st13" d="M890.2,6372.6c-0.4,0.3-0.5,0.7-0.6,1c0,0.4,0,0.7,0.4,1c0.3,0.4,0.7,0.6,1.2,0.6s0.8,0,1.3-0.4
							c0.4-0.3,0.6-0.5,0.7-0.9s-0.1-0.8-0.4-1.1c-0.3-0.3-0.7-0.6-1.2-0.6C891,6372.2,890.6,6372.4,890.2,6372.6z"/>
						<path class="st13" d="M898.9,6374.2c0.2,0.3,0.6,0.6,1.2,0.6c0.5,0,0.9-0.1,1.3-0.4c0.5-0.3,0.6-0.6,0.7-1c0-0.4,0-0.7-0.5-1
							c-0.2-0.4-0.7-0.6-1.2-0.6c-0.6-0.1-0.9,0-1.3,0.4c-0.4,0.3-0.7,0.5-0.7,0.9C898.4,6373.4,898.6,6373.8,898.9,6374.2z"/>
						<path class="st13" d="M818.2,6357.8c0,0.4,0.1,0.7,0.5,1c0.3,0.4,0.8,0.6,1.2,0.6c0.5,0,0.9,0,1.3-0.4c0.3-0.3,0.5-0.6,0.6-1
							c0-0.5-0.1-0.8-0.4-1.1c-0.3-0.3-0.8-0.6-1.2-0.6c-0.5,0-0.9,0.1-1.3,0.4C818.4,6357,818.2,6357.3,818.2,6357.8z"/>
						<path class="st13" d="M830.5,6356.7c-0.3-0.3-0.7-0.6-1.2-0.6s-0.9,0.1-1.3,0.4s-0.6,0.6-0.7,0.9c0,0.4,0.1,0.8,0.4,1.2
							c0.3,0.2,0.7,0.5,1.2,0.5c0.6,0.1,0.9-0.1,1.3-0.3c0.4-0.4,0.6-0.7,0.7-1.1C831,6357.5,830.8,6357,830.5,6356.7z"/>
						<path class="st13" d="M830.8,6366.6c-0.5,0-0.9,0.1-1.3,0.4s-0.6,0.5-0.7,1c0,0.4,0.1,0.8,0.5,1c0.3,0.3,0.8,0.6,1.2,0.6
							s0.9-0.1,1.3-0.4c0.4-0.2,0.6-0.5,0.7-0.9c0-0.5-0.1-0.8-0.4-1.1C831.7,6366.9,831.2,6366.6,830.8,6366.6z"/>
						<path class="st12" d="M824.8,6332.7h-0.3c-0.1,0.1-0.1,0.2-0.1,0.3L824.8,6332.7z"/>
					</g>
				</g>
				<g>
					<path class="st6" d="M946.5,6360.5c-1.2,0-1.5-0.8-1.9-1.6c-0.6-1.3-1.5-3-6.3-3.3c-9.8-0.6-15.7-3.4-17.6-8.4
						c-1.6-4.2,0.3-8.7,2-11.2c-0.5,0.1-1,0.2-1.5,0.2c-1.7,0-3.5-0.6-5.2-1.9c-2.3-1.6-3.6-3.6-4-5.9c-0.3-2.1,0.3-4,0.9-5.4
						c-1.8,1.2-4.6,2.6-7.6,2.6c-1,0-2-0.2-3-0.5c-3.3-1.2-4.6-3.6-5-5.1c-0.8,1.1-2.5,2.5-5.7,2.5c-0.9,0-1.9-0.1-3-0.4
						c-2.9-0.7-4.3-2.9-4.9-4.4c-0.7,1.7-2.2,4.1-5.9,4.1c-0.5,0-1.1-0.1-1.7-0.2c-4.4-0.8-6-3.5-6.6-5.6c-0.7,2-2.4,4.5-5.7,4.5
						c-0.4,0-0.9,0-1.3-0.1c-4.5-0.8-6-5-6.4-7.5c-1.3,2.9-4.4,8.3-9,8.3c-1.5,0-3-0.6-4.5-1.6c-2.1-1.5-2.5-4.9-2.3-7.5
						c-1.7,3.5-5.2,8.5-10.5,8.7c-0.1,0-0.3,0-0.4,0c-3.6,0-5.9-1.5-7.4-3c0.8,3.5,0.9,8.3-3.4,11.4c-1.3,0.9-4.4,13.3-6,20.8
						l-0.5,2.2l-0.5-2.2c0-0.1-2.1-10-0.1-19.3c0.8-3.8,1.9-6.2,2.3-7c-0.7-1.1-3.1-5.9-0.2-16.3c1.6-5.7,9.5-6.9,10.5-7.1
						c0.4-0.2,1.8-0.8,4.5-0.8c1.3,0,2.6,0.1,4.1,0.4c0.5,0.1,0.9,0.1,1.4,0.1c8.4,0,16.9-12.3,17-12.4l1.8-2.6l-0.9,3
						c-1,3.1-3,11.7-1.2,14.2c0.3,0.4,0.8,0.7,1.4,0.7c0.5,0,1-0.1,1.6-0.4c5.3-2.3,15.2-2.7,22.5-2.7c3.3,0,5.7,0.1,5.7,0.1h0.5
						l-0.1,0.5c0,0-0.5,4.2,1.5,6.6c1,1.1,2.5,1.7,4.3,1.7c0.6,0,1.2-0.1,1.9-0.2c1.1-0.2,2.4-0.3,3.8-0.3c8,0,17.7,3.3,20.5,4.3
						c-0.1-1,0-2.8,1.1-4.5c1.2-1.8,3.3-2.8,6.3-3.2c0.2,0,0.5,0,0.8,0c4.3,0,17.7,2.8,23.6,7.5c4.9,3.9,1.9,11.6-0.1,15.3
						c0.4-0.2,0.9-0.3,1.4-0.3c1.6,0,3.3,1,4.9,3c5.5,6.7,1.2,14.9,0.5,16.2c0.3,1.2,1.5,6.9-0.9,10.6c-1.1,1.7-2.7,2.7-4.9,3
						C946.8,6360.5,946.6,6360.5,946.5,6360.5z"/>
					<path d="M851.3,6288.1c0,0-4.8,15.5,0.6,15.5c0.5,0,1.1-0.1,1.8-0.4c5.4-2.3,15.8-2.7,22.3-2.7c3.4,0,5.7,0.1,5.7,0.1
						s-1.2,8.8,6.4,8.8c0.6,0,1.2-0.1,2-0.2c1.2-0.2,2.4-0.3,3.7-0.3c9.4,0,21.1,4.6,21.1,4.6s-1.8-6.9,6.8-7.9c0.2,0,0.4,0,0.7,0
						c4.3,0,17.5,2.8,23.3,7.4c6.2,4.9-1.3,16.7-1.3,16.7s1.1-1.6,3-1.6c1.2,0,2.7,0.7,4.5,2.8c5.8,7.1,0.3,15.8,0.3,15.8
						s3.2,11.9-5.4,13.2c-0.1,0-0.3,0-0.4,0c-2.4,0-0.3-4.4-8.2-4.9c-24.5-1.5-17.6-16.7-14.1-20.2c0.6-0.3,0.9-0.7,0.9-0.7
						c-0.3,0.1-0.6,0.3-0.9,0.7c-0.7,0.4-1.7,0.8-3,0.8c-1.4,0-3-0.4-4.9-1.8c-7.6-5.4-1.7-12.9-1.7-12.9s-4.4,4.1-9.3,4.1
						c-0.9,0-1.9-0.1-2.8-0.5c-4.7-1.7-5-6-5-6s-1.1,3.4-5.9,3.4c-0.8,0-1.8-0.1-2.9-0.4c-4.3-1-5.1-5.7-5.1-5.7s-0.5,5.4-5.9,5.4
						c-0.5,0-1,0-1.6-0.1c-6.9-1.2-6.6-7.5-6.6-7.5s-0.7,6.5-5.9,6.5c-0.4,0-0.8,0-1.2-0.1c-6.2-1.1-6.3-8.9-6.3-8.9
						s-3.4,9.7-9.3,9.7c-1.3,0-2.7-0.5-4.2-1.5c-3.4-2.5-1.7-10.5-1.7-10.5s-3.7,11.3-11.4,11.6c-0.1,0-0.3,0-0.4,0
						c-5.2,0-7.7-3.3-8.8-5.2c-0.3-0.8-0.6-1.3-0.6-1.3s0.2,0.5,0.6,1.3c1.1,2.9,3.1,9.8-2.4,13.7c-1.9,1.4-6.2,21.1-6.2,21.1
						s-2.1-9.8-0.1-19.1c1-4.6,2.4-7.1,2.4-7.1s-3.6-4.3-0.3-16.2c1.6-5.7,10.2-6.7,10.2-6.7s1.3-0.8,4.4-0.8c1.1,0,2.4,0.1,4,0.4
						c0.5,0.1,1,0.1,1.5,0.1C842.7,6300.7,851.3,6288.1,851.3,6288.1 M854.1,6282.3l-3.6,5.2c-0.1,0.1-8.5,12.2-16.6,12.2
						c-0.4,0-0.9,0-1.3-0.1c-1.5-0.3-2.9-0.4-4.2-0.4c-2.7,0-4.2,0.6-4.7,0.8c-1.3,0.2-9.2,1.6-10.9,7.4c-2.8,10-0.8,14.9,0.1,16.5
						c-0.5,1-1.5,3.3-2.2,6.9c-1.9,9.3,0,19.1,0.1,19.5l0.9,4.4l1-4.4c2-9.3,4.8-19.5,5.8-20.6c4-2.8,4.4-7.1,3.9-10.5
						c1.6,1.2,3.7,2.2,6.7,2.2c0.1,0,0.3,0,0.4,0c4.7-0.1,8-4,10-7.3c0.1,2.3,0.7,4.7,2.5,6c1.6,1.1,3.2,1.7,4.8,1.7
						c4.3,0,7.3-4.3,8.9-7.3c0.1,0.3,0.2,0.7,0.3,1c1.2,3.1,3.3,5,6.2,5.5c0.5,0.1,0.9,0.1,1.4,0.1c2.9,0,4.7-1.8,5.7-3.7
						c0.8,1.8,2.6,4,6.6,4.7c0.6,0.1,1.2,0.2,1.8,0.2c3.2,0,5-1.7,6-3.5c0.8,1.5,2.3,3.2,4.8,3.7c1.1,0.3,2.2,0.4,3.1,0.4
						c2.8,0,4.5-1,5.5-2.1c0.7,1.6,2.1,3.5,5,4.6c1,0.4,2,0.5,3.1,0.5c2.5,0,4.9-1,6.7-2c-0.4,1.3-0.7,2.8-0.4,4.3
						c0.4,2.4,1.8,4.5,4.2,6.2c1.8,1.3,3.7,1.9,5.5,1.9c0.2,0,0.4,0,0.6,0c-1.6,2.7-2.9,6.8-1.5,10.7c1.9,5.2,8,8.1,18,8.7
						c4.5,0.3,5.3,1.8,5.9,3.1c0.4,0.8,0.9,1.9,2.4,1.9c0.2,0,0.3,0,0.5,0c2.3-0.4,4.1-1.5,5.3-3.3c2.4-3.7,1.4-9.3,1-10.8
						c1-1.8,4.9-9.8-0.6-16.6c-1.7-2.1-3.5-3.2-5.2-3.2c-0.2,0-0.4,0-0.5,0c1.9-4.1,4.3-11.2-0.5-15c-6-4.7-19.6-7.6-23.9-7.6
						c-0.3,0-0.6,0-0.8,0c-3.1,0.4-5.3,1.5-6.6,3.4c-1,1.4-1.2,2.9-1.2,4c-3.5-1.2-12.3-4.1-20-4.1c-1.4,0-2.7,0.1-3.9,0.3
						c-0.6,0.1-1.2,0.2-1.8,0.2c-1.8,0-3.1-0.5-4-1.6c-1.9-2.2-1.4-6.1-1.4-6.2l0.1-1.1H882c0,0-2.4-0.1-5.7-0.1
						c-7.4,0-17.4,0.5-22.7,2.8c-0.6,0.2-1,0.4-1.4,0.4s-0.7-0.1-1-0.5c-1.5-2.1-0.1-9.6,1.2-13.8L854.1,6282.3L854.1,6282.3z"/>
				</g>
				<path class="st5" d="M875.5,6394.5c0,0,17.1,0.2,28.7-3.5c4-1.3,5.4-3.5,5.4-3.5s-5.8-4.4-4-12.9s6.8-8.7,6.8-8.7s-1-9,1.2-12.9
					c3.8-6.5,13.3-7.7,13.3-7.7l11.6,0.3l-8.2,48.2l-9,3.5C921.4,6397.2,882.4,6394.7,875.5,6394.5z"/>
				<path class="st14" d="M818,6292.5c21.7-23.8,27.6-61,34.8-60.6c7.2,0.4,17.1,3.3,17.1,3.3s14.7-15.4,18-13.7
					c27.1,14.5,34.9,22.6,38.4,34.1c10.5,34.6,15.8,45.4,15.8,45.4L818,6292.5z"/>
				<path class="st5" d="M875.5,6289c0,0,20.5-3.8,18.7-14.1c-4.6-26.6-5.6-48.3-1.1-47.2c5.8,1.4,28.6,15,31,22.4
					c2.2,6.6,9.2,27.6,9.2,27.6s-25.5,10.1-25.7,10.3s-71.9,2-71.9,2l-10.5-3L875.5,6289z"/>
				<path class="st3" d="M984.4,6258.9c-31-11.6-55.8,27.9-115.2,27c-61.8-1-75.3-22.7-85.8-26.5c-10.4-3.8-13.7,3.8-2.5,25.3
					c9.4,18,29,29,30.6,30.6c0,0,0-7.5,2.8-10c2.5-2.2,6.3-0.4,6.3-0.4s23.2,10.4,38.4,10.8c25.2,0.6,71.3,0.3,79.2,2.6
					c13.2,3.9,7.3,13.8,7.3,13.8s-0.2,6.6-5.7,20.4c-1.1,2.8,16.7,8.2,25.8,5.3c13.1-4.2,27.2-12.7,37.6-33.8
					C1013.5,6302.9,1015.4,6270.5,984.4,6258.9z"/>
				<g>
					<path class="st6" d="M942.4,6415.7c-1.3,0-2.5-0.2-3.7-0.7c-2.3-0.9-4.1-2.6-5.2-4.9c0,0,0,0-0.1,0c-1.5,0-3.2-0.3-5-0.9
						c-3.9-1.3-6.6-3.7-8.2-7.1c-0.9-0.1-1.7-0.3-2.5-0.7c-2.5-1-4.5-3-5.5-5.6s-1-5.4,0.1-8.1c0.1-0.3,0.2-0.5,0.4-0.8
						c-1.2-0.3-2.3-1.3-3.7-3.1c-2-2.7-3.7-6.7,1.4-14c1.6-2.3,3.3-2.9,4.4-3.2c0.1,0,0.1,0,0.2-0.1c-0.6-0.9-1.4-2.7-0.8-5.8
						c1.1-5.5,3.8-6.7,7.8-6.7c0.6-4.4,2.9-8.2,7.1-11.3c3.1-2.3,6-3.5,8.7-3.5c0.9,0,1.8,0.1,2.6,0.4c1.4-1.6,3.3-2.5,5.8-2.5
						c1.7,0,3.7,0.4,5.8,1.2c2.1-2.1,3.9-3.1,6-3.1c1.2,0,2.6,0.3,4.5,1c5.3,1.8,8.6,5.8,9.4,11.4c1,0.1,2,0.3,2.9,0.7
						c3.3,1.3,6.7,3.3,5.7,9.1c3.7,0.5,8.3,4,9.6,9c1.2,4.7,0.9,8.4-0.9,11.2c-1.6,2.4-3.8,3.4-5,3.7c1.2,1.8,3.8,7.4-2.1,16.3
						c-1.6,2.4-4.8,5-8.1,5l0,0c-0.2,0-0.3,0-0.5,0v0.1c0.1,0.4,0.3,0.9,0.1,1.3c-1.7,4.1-5.5,6.7-9.7,6.7c-1.3,0-2.5-0.2-3.7-0.7
						c0,0,0,0-0.1,0c-0.4,2.2-1.7,4-3.5,4.7c-0.8,0.3-1.6,0.4-2.4,0.4c-1.9,0-3.8-0.7-5.1-2C947.3,6414.8,944.9,6415.7,942.4,6415.7
						z"/>
					<g>
						<path d="M958,6335.9c1.3,0,2.7,0.3,4.4,0.9c6.4,2.2,8.6,7,9.1,11.4c1.1,0,2.1,0.2,3.2,0.7c3.1,1.3,6.6,3.1,5.3,9.1
							c3.8,0.1,8.4,3.7,9.7,8.6c3.3,12.9-6.3,14.5-6.3,14.5s5.3,5.7-1.7,16.3c-1.7,2.5-4.8,4.8-7.7,4.8c-0.4,0-0.7,0-1.1-0.1
							c-0.1,0.5,0.5,1.3,0.3,1.8c-1.6,4-5.4,6.4-9.3,6.4c-1.2,0-2.4-0.2-3.5-0.7c-0.2-0.1-0.5-0.2-0.7-0.3c-0.2,2.5-1.6,4.4-3.3,5
							c-0.7,0.3-1.5,0.4-2.2,0.4c-1.9,0-3.8-0.8-5-2.2c-1.9,1.8-4.3,2.8-6.8,2.8c-1.2,0-2.4-0.2-3.5-0.7c-2.3-1-4.1-2.8-5-4.9
							c-0.1,0-0.3,0-0.4,0c-1.4,0-2.9-0.3-4.8-0.9c-4.5-1.4-6.8-4.2-8-7.1c-0.9-0.1-1.8-0.3-2.7-0.6c-4.9-2-7.3-7.8-5.1-13
							c0.2-0.5,0.4-0.9,0.7-1.4c-1-0.1-2.2-0.6-4.1-3c-2.3-3-3.2-6.8,1.5-13.4c2.1-2.9,4.3-2.9,4.9-3.4c0,0-2-1.8-1.1-5.9
							c1.1-5.5,3.8-6.3,7.4-6.3c0.1,0,0.2,0,0.3,0c0.3-3.6,2-7.7,7-11.4c3.3-2.5,6.1-3.4,8.4-3.4c1,0,2,0.2,2.8,0.5
							c1.4-1.8,3.4-2.5,5.6-2.5c1.9,0,4,0.5,5.9,1.3C954.2,6336.8,955.9,6335.9,958,6335.9 M952.1,6339L952.1,6339L952.1,6339
							 M952.1,6339L952.1,6339L952.1,6339 M952.1,6339L952.1,6339L952.1,6339 M952.1,6339L952.1,6339L952.1,6339 M952.1,6339
							L952.1,6339L952.1,6339 M952.1,6339L952.1,6339L952.1,6339 M952.1,6339L952.1,6339L952.1,6339 M952.1,6339L952.1,6339
							L952.1,6339 M952.1,6339L952.1,6339L952.1,6339 M952.1,6339L952.1,6339L952.1,6339 M952.1,6339L952.1,6339L952.1,6339
							 M952.1,6339L952.1,6339L952.1,6339 M952.1,6339L952.1,6339L952.1,6339 M952.1,6339L952.1,6339L952.1,6339 M958,6334.9
							c-2.2,0-4.1,0.9-6.1,3c-2-0.8-3.9-1.1-5.6-1.1c-2.5,0-4.5,0.8-5.9,2.4c-0.8-0.2-1.6-0.3-2.5-0.3c-2.8,0-5.9,1.2-9,3.6
							c-4.1,3.1-6.6,6.9-7.2,11.2c-3.9,0.1-6.7,1.5-7.8,7.1c-0.5,2.7,0,4.6,0.6,5.7c-1.1,0.4-2.7,1.1-4.2,3.3
							c-4.2,5.9-4.6,10.4-1.4,14.6c1.2,1.6,2.3,2.6,3.4,3.1c0,0.1-0.1,0.2-0.1,0.3c-1.1,2.7-1.1,5.7-0.1,8.4
							c1.1,2.7,3.1,4.8,5.8,5.9c0.8,0.3,1.6,0.5,2.4,0.6c1.6,3.5,4.4,5.9,8.4,7.2c1.8,0.6,3.4,0.9,4.9,0.9c1.2,2.2,3,3.9,5.3,4.9
							c1.2,0.5,2.5,0.8,3.9,0.8c2.5,0,4.8-0.9,6.8-2.4c1.4,1.2,3.2,1.8,5.1,1.8c0.9,0,1.8-0.2,2.6-0.5c1.8-0.7,3.2-2.4,3.7-4.5
							c1.1,0.4,2.2,0.6,3.4,0.6c4.4,0,8.4-2.8,10.2-7c0.1-0.4,0.1-0.7,0.1-1.1c3.4-0.1,6.7-2.7,8.3-5.2c5.5-8.4,3.7-13.9,2.4-16.3
							c1.3-0.5,3.3-1.6,4.7-3.7c1.9-2.9,2.2-6.8,1-11.6c-1.3-5.1-5.7-8.5-9.5-9.2c0.9-6.3-3.6-8.1-6.1-9.1c-0.8-0.3-1.7-0.6-2.7-0.7
							c-0.9-5.6-4.3-9.5-9.7-11.4C960.7,6335.2,959.3,6334.9,958,6334.9L958,6334.9z"/>
					</g>
				</g>
				<path class="st15" d="M882.5,6428.8c0,0-1.6,4.5-1.8,8.4c-0.4,10.3,2.4,19.1,2.4,19.1l3.1,0.5c0,0-3.7-11-3.1-19
					c0.2-3,0.4-7.4,0.4-7.4L882.5,6428.8z"/>
				<path class="st15" d="M892.8,6427.8c0,0,8.7,14.1,8.1,21.2s-9.1,5.4-13-1.2s-3.7-16.1-3.7-16.1l-1.9-1.9c0,0-0.9,12.9,3.5,19.9
					c3.5,5.5,6.7,6.9,11.2,6.7s5.6-3.4,6.4-6c0.9-3.2-0.8-7.5-3.3-13.5c-1.9-4.6-6.6-10.4-6.6-10.4L892.8,6427.8z"/>
				<path class="st3" d="M879.3,6422.7c0.3-1.7,1.2-3,3.2-5.1c2.8-2.8,10.3-9.6,10.3-9.6s6-0.2,9.1,2.7c3.1,2.8,5,9,5,9
					s-14.3,2.1-14.1,2.7c0.9,2.3,0,4.1,0,4.1s2.8-1.3,2.9,0.7s-2.7,4.7-5.8,5.1C884.6,6432.9,878.3,6428.7,879.3,6422.7z"/>
				<g>
					<path class="st7" d="M843.3,6403.3c1,0.7-8.8-3.1-16.8-10.7c-6.5-6.1-9.6-9.5-9.6-9.5l2.9-8.2c0,0,3.5,1.3,11,7.3
						c8.6,6.8,20.3,7.7,20.1,7.9c-0.2,0.3-0.3,4.3-2.1,7.3C846.9,6400.8,843.3,6403.3,843.3,6403.3z"/>
					<g>
						<path class="st3" d="M819.9,6373.3c0,0-1.8-5.2-0.1-5.7c1.6-0.5,4,1,5.3,3.9c1.6,3.4,1.1,4.2,1.3,6.6l12.6,5.1
							c0,0,0.4,3.9-5.1,11.3c-3.6,4.8-8.5,7.1-8.5,7.1l-7.7-13.2c0,0-6-0.8-9.2-4.4c-1.8-2-1-5.4-1-5.4s-0.1-1.8,1.4-3.9
							c1.8-2.4,2.8-1.1,2.8-1.1s-0.8-1.9,0.7-3.5C815.2,6367.4,819.9,6373.3,819.9,6373.3z"/>
						<path class="st3" d="M811.9,6369.8c-0.3,1.1,0.1,2.4,1.3,3.9c1.1,1.4,3.4,2.1,4.3,1.7c1.5-0.7,1.8-1.4,1.5-3.5
							S813.3,6365.5,811.9,6369.8z"/>
						<path class="st3" d="M808.2,6373.3c-0.3,1.1,0.1,2.4,1.3,3.9c1.1,1.4,3.4,2.1,4.3,1.7c1.5-0.7,1.8-1.4,1.5-3.5
							S809.6,6369,808.2,6373.3z"/>
						<path class="st16" d="M807.7,6378.5c0,0,0.4-1.6,1.5-1.9s2.1,0.4,2.8,1.1c1.7,1.8,0.5,3.1,0.5,3.1"/>
						<path class="st16" d="M819.5,6371.8l1.1,3.4c0,0-2.9,1.1-2.7,3.6s2.8,3.1,2.8,3.1"/>
					</g>
				</g>
				<path class="st5" d="M811.7,6371.7c0,0-2.1,1.2-2,2.6c0.1,1,1.4,2.8,1.4,2.8s-2.4,2.1-0.7,4.7c0.9,1.3,3.8,2.6,6.4,2.4
					c3.1-0.2,2.1-1,2.1-1s-2.1-1.9-2.3-2.9c-0.6-2.4,3.2-5.4,3.2-5.4s0.2,7.5,3.3,6.9c1.8-0.3,10.1,11.9,10.1,11.9l2.8-1.2
					c0,0,2.9,2.5,4.9,2.5s5.9-5.5,5.9-5.5l3.3,1l-2.2,6.2l-4.7,6.5c0,0-5.4-2.4-7.3-3.5s-3.9-3.2-3.9-3.2l-6.7,5l-7.3-13.3
					c0,0-5.7-0.4-7.9-2.7c0,0-2.9-2.7-3-4.7l0.9-4.5c0,0-1.4-3.4,0.6-4.7L811.7,6371.7z"/>
				<path class="st5" d="M903.8,6413l-13.6,7.4c0,0,2,5.6-1,7.6s-8.8-0.1-8.8-0.1s4.7,5.5,10.8,3.6c6-1.9,4.7-5,3.9-5.4
					c-0.8-0.3-2.1,0.4-2.1,0.4s0.5-1.2,0.3-2.7c-0.3-1.4,0.5-2.4,0.5-2.4l13.3-1.7L903.8,6413z"/>
				<path class="st5" d="M777.6,6277.8c0,0-0.9-10.5,3.6-8s26.5,21.8,60.3,28.3s74.2-2.2,94.2-10s46.5-10.8,57.5-3.6
					c9.9,6.5,15.2,15.3,12.2,29.2c-1.4,6.4-4.2,16.6-10.7,23.8c-3.1,3.4-14.1,13.1-14.1,13.1l-2.1,1.3c0,0-1.9-1.9-5.8-2.1
					c-4.4-0.2-7.4,0.8-7.4,0.8s-1.2-10.3-7.2-11.2s-8.2,5.1-8.2,5.1s-3.5-3.9-7.9-3.9s-10.2,4.4-11.6,1.8c-3-5.3,2.8-11.2,1.7-11.2
					c-4,0-17.7,1.8-26.8,1.9c-9.1,0.1-22.7,1.4-62.6-3.9c-10.6-1.4-30.2-9.6-30.2-9.6l-1.2-5.4
					C811.5,6314.3,783.3,6297.6,777.6,6277.8z"/>
				<path class="st5" d="M867,6244.3c-2.3-2.5-5.7-5.2-9.2-7.8c-2.4-1.8-2.6-3.5,2.5-3.5s9.3,2.4,9.3,2.4S873.1,6250.9,867,6244.3z"
					/>
				<path class="st5" d="M912.4,6368.4c0,0-1.1,12.8,4.9,14.8c6,1.9,7,0,7,0s0.9,9.1,9.8,9.7s13.5-6.6,13.5-6.6s10.6,8.5,16.3,4
					s7-12.5,7-12.5s8.1,2.2,11.3-0.1s4.4-4.6,4.7-7.8c0.2-3.2-1.8-11.3-1.8-11.3s5.1,4.4,5.2,11.8s-3.4,9-3.4,9l-3.5,1.7
					c0,0,3.3,3.7,0.8,11.6s-7.1,8.7-7.1,8.7l-4.1,0.6c0,0,1.9,2.8-2.9,6.1c-4.8,3.3-9.6,1.5-9.6,1.5s-0.1,3.1-3.9,4.7
					s-7.3-1.8-7.3-1.8s-5,4.1-8.5,2.6s-6.8-5.5-6.8-5.5s-1.2,0.5-6.9-1.5s-6.3-6.5-6.3-6.5s-3.3,0.2-6.6-3.7c-3.4-3.8-1.2-10-1.2-10
					s-3.9-3.2-5.2-9.3S912.4,6368.4,912.4,6368.4z"/>
				<path class="st3" d="M854.7,6391c0,0,4,13-4.2,23c-2.3,2.7-5.6,6.3-9.1,7.5c-2.9,1-6.6,0.9-6.6,0.9l6.8-18.5
					c0,0,3.7-2.7,5.8-5.9c2.4-3.7,2.9-7.3,2.9-7.3L854.7,6391z"/>
				<path class="st17" d="M849.2,6390c0,0-0.8,4.8,3.9,6.5c3.8,1.3,9.9,0.7,9.9,0.7s8.8,3.6,13.7,3.4c7-0.3,8.1-5.4,8.1-5.4
					S857.1,6391,849.2,6390z"/>
				<path class="st17" d="M865.2,6397.2c0,0.1-0.1,3.4,0.4,8.8c0.6,6.2,5.8,13.6,5.8,13.6s3.6-10.5,1.8-16.7
					c-1.9-6.2-5.4-8.5-6.3-8.8s-2.4,0.8-2.4,0.8L865.2,6397.2z"/>
				<path class="st17" d="M860,6393.2c0,0-5.3,0.3-8,4c-4.5,5.9-5.9,15.1-5.9,15.1s9.2-3.9,11.4-9.5c1.6-4.1,2.9-6,2.9-6l0.8-4.6"/>
				<path class="st17" d="M862.1,6398.5c0,0-2.1,0.8-2.4-1.3c-0.3-2.1,0.5-5,1.4-5c0.8-0.1,2.5,0.2,2.5,0.2s2.4,0.2,3.4,0.4
					s0.9,1.3,0.9,1.3s-2,0.8-2.2,2.3c-0.2,1.6-0.8,2.2-0.8,2.2S863.8,6400.2,862.1,6398.5z"/>
				<path class="st5" d="M849.2,6390c0,0,0.8,1,1.8,2.1c1.8,2,6.7,1.5,6.7,1.5s-1.1,6.4-3,9.2s-6.3,7.6-6.3,7.6l4.9-0.9
					c0,0-3.7,5.9-6.1,7.9s-7.4,4.3-7.4,4.3l-0.3,3.2c0,0,9.7-5.2,13.2-10.5s4.5-6.5,4.5-6.5s1.9-0.6,3.3-2.9s2.2-2.9,2.2-2.9
					s0.4,5.9,1.3,8.9c2.1,6.9,7.1,11.3,7.1,11.3l-0.5-4.3l1.3,0.8l0.8-2.9c0,0,0.3,2.5,1.6,4.2c2,2.7,5.1,3.1,5.1,3.1l1.5-3.6
					c0,0-2.8-2.5-4.1-8.3c-0.6-2.8-0.5-9.3-0.5-9.3s5.5-0.3,6.6-2c1.1-1.8,2-4.8,2-4.8l-16.8-2l0.8,2.1c0,0,12.9,0.4,8,2.5
					c-2.4,1-6.3-0.7-6.3-0.7s1.4,7.3,0.9,9.7s-1,5.4-1,5.4s-2-3.9-2.7-7.2c-0.9-4.4-0.9-10.1-0.9-10.1s-2.5,3-4.6,2.3
					c-2.9-0.9-2.6-3.5-0.6-3.7c1.8-0.1,5.4,1,5.4,1l1-1.8L849.2,6390z"/>
				<path class="st15" d="M892.9,6426.5c0,0,12.9,10.7,14.1,17.7s-9.5,9.2-14.9,3.8c-5.4-5.4-6.5-15.6-6.5-15.6l-2.3-1.3
					c0,0,0.5,13.2,6.5,18.8c4.8,4.5,10.1,4.5,14.4,3.2s5.8-6.2,5.6-8.9c-0.3-3.7-3.4-7.5-6.8-11.1s-9.7-8-9.7-8L892.9,6426.5z"/>
				<g>
					<g>
						<path class="st18" d="M898.8,6432.2c0.9,0,1.8,0,2.6,0c0.6,0,0.6-1,0-1c-0.9,0-1.8,0-2.6,0
							C898.2,6431.2,898.2,6432.2,898.8,6432.2L898.8,6432.2z"/>
					</g>
				</g>
				<g>
					<g>
						<g>
							<path class="st18" d="M896.5,6429.3c0.7-0.1,1.4-0.2,2.1-0.2c0.3,0,0.3-0.5,0-0.5c-0.7,0-1.5,0.1-2.2,0.2
								C896,6428.9,896.2,6429.4,896.5,6429.3L896.5,6429.3z"/>
						</g>
					</g>
					<g>
						<g>
							<path class="st18" d="M902,6435.1c0.8-0.1,1.5-0.2,2.3-0.1c0.3,0,0.3-0.5,0-0.5c-0.8,0-1.6,0-2.4,0.1
								C901.5,6434.6,901.6,6435.1,902,6435.1L902,6435.1z"/>
						</g>
					</g>
					<g>
						<g>
							<path class="st18" d="M904.1,6438c0.8,0,1.6,0,2.4,0.3c0.3,0.1,0.4-0.4,0.1-0.5c-0.8-0.2-1.7-0.3-2.6-0.3
								C903.8,6437.5,903.8,6438,904.1,6438L904.1,6438z"/>
						</g>
					</g>
					<g>
						<g>
							<path class="st18" d="M906.6,6442.4c0.8,0.3,2.3,0.8,2.7,1.6c0.1,0.3,0.6,0,0.4-0.3c-0.2-0.5-0.7-0.8-1.1-1
								c-0.6-0.3-1.3-0.6-1.9-0.9C906.4,6441.8,906.3,6442.3,906.6,6442.4L906.6,6442.4z"/>
						</g>
					</g>
					<g>
						<g>
							<path class="st18" d="M906.8,6447.1c0.6,0.6,1.1,1.4,1.4,2.2c0.1,0.3,0.6,0.2,0.5-0.1c-0.3-0.9-0.8-1.7-1.5-2.4
								C906.9,6446.5,906.5,6446.9,906.8,6447.1L906.8,6447.1z"/>
						</g>
					</g>
					<g>
						<g>
							<path class="st18" d="M904.6,6449.7c0.2,1,0,2-0.6,2.9c-0.2,0.3,0.2,0.5,0.4,0.3c0.7-1,0.9-2.1,0.7-3.3
								C905,6449.2,904.5,6449.4,904.6,6449.7L904.6,6449.7z"/>
						</g>
					</g>
					<g>
						<g>
							<path class="st18" d="M899.6,6453.8c1-0.6,1.5-1.6,1.5-2.8c0-0.3-0.5-0.3-0.5,0c0,1-0.4,1.8-1.3,2.4
								C899.1,6453.6,899.4,6454,899.6,6453.8L899.6,6453.8z"/>
						</g>
					</g>
					<g>
						<g>
							<path class="st18" d="M895.1,6453.1c1.1-0.2,1.9-1.2,2-2.3c0-0.3-0.5-0.3-0.5,0c-0.1,0.9-0.8,1.6-1.6,1.8
								C894.6,6452.6,894.8,6453.1,895.1,6453.1L895.1,6453.1z"/>
						</g>
					</g>
					<g>
						<g>
							<path class="st18" d="M890.8,6450.9c1.2,0.2,2.4-0.3,3.1-1.3c0.2-0.3-0.2-0.5-0.4-0.3c-0.6,0.8-1.5,1.2-2.5,1
								C890.6,6450.4,890.5,6450.8,890.8,6450.9L890.8,6450.9z"/>
						</g>
					</g>
					<g>
						<g>
							<path class="st18" d="M887.9,6447.5c1.1,0.4,2.3,0.3,3.3-0.3c0.3-0.2,0-0.6-0.3-0.4c-0.9,0.6-1.9,0.7-2.9,0.3
								C887.7,6446.9,887.6,6447.4,887.9,6447.5L887.9,6447.5z"/>
						</g>
					</g>
					<g>
						<g>
							<path class="st18" d="M885.8,6444c1,0.3,2.2,0.6,3.1-0.2c0.2-0.2-0.1-0.6-0.4-0.4c-0.7,0.6-1.8,0.3-2.6,0.1
								C885.6,6443.4,885.5,6443.9,885.8,6444L885.8,6444z"/>
						</g>
					</g>
					<g>
						<g>
							<path class="st18" d="M884.9,6440.3c0.7,0.5,1.6,0.8,2.5,0.7c0.3,0,0.3-0.5,0-0.5c-0.8,0-1.6-0.2-2.3-0.7
								C884.9,6439.7,884.7,6440.1,884.9,6440.3L884.9,6440.3z"/>
						</g>
					</g>
					<g>
						<g>
							<path class="st18" d="M883.8,6436.5c0.7,0.6,1.4,1,2.3,1.1c0.3,0.1,0.5-0.4,0.1-0.5c-0.8-0.1-1.5-0.5-2.1-1
								C883.9,6435.9,883.6,6436.3,883.8,6436.5L883.8,6436.5z"/>
						</g>
					</g>
					<g>
						<g>
							<path class="st18" d="M883.7,6432.8c0.5,0.6,1,1,1.7,1.4c0.3,0.2,0.5-0.3,0.3-0.4c-0.6-0.3-1.1-0.8-1.6-1.3
								C883.8,6432.2,883.4,6432.6,883.7,6432.8L883.7,6432.8z"/>
						</g>
					</g>
					<g>
						<g>
							<path class="st18" d="M895.6,6432c0.6,0.3,1.3,0.4,2,0.5c0.3,0,0.3-0.5,0-0.5c-0.7-0.1-1.3-0.2-1.9-0.5
								C895.4,6431.4,895.3,6431.9,895.6,6432L895.6,6432z"/>
						</g>
					</g>
					<g>
						<g>
							<path class="st18" d="M897.1,6435.2c0.8,0.2,1.6,0.5,2.4,0.7c0.3,0.1,0.4-0.4,0.1-0.5c-0.8-0.2-1.6-0.5-2.4-0.7
								C897,6434.6,896.8,6435.1,897.1,6435.2L897.1,6435.2z"/>
						</g>
					</g>
					<g>
						<g>
							<path class="st18" d="M898.8,6438.9c0.8,0.1,1.6,0.4,2.3,0.9c0.3,0.2,0.5-0.2,0.3-0.4c-0.7-0.5-1.5-0.9-2.4-1
								C898.6,6438.4,898.5,6438.9,898.8,6438.9L898.8,6438.9z"/>
						</g>
					</g>
					<g>
						<g>
							<path class="st18" d="M900.3,6443c1,0.1,1.8,0.6,2.5,1.3c0.2,0.2,0.6-0.1,0.4-0.4c-0.7-0.8-1.6-1.3-2.7-1.5
								C900.1,6442.5,900,6442.9,900.3,6443L900.3,6443z"/>
						</g>
					</g>
					<g>
						<g>
							<path class="st18" d="M901.1,6446.5c0.9,0.5,1.6,1.1,2.2,1.9c0.2,0.3,0.6,0,0.4-0.3c-0.7-0.8-1.4-1.5-2.4-2
								C901.1,6445.9,900.8,6446.3,901.1,6446.5L901.1,6446.5z"/>
						</g>
					</g>
					<g>
						<g>
							<path class="st18" d="M901.2,6449.5c0.3,0.2,0.6,0.5,0.9,0.7c0.2,0.2,0.6-0.1,0.4-0.4c-0.3-0.2-0.6-0.5-0.9-0.7
								C901.3,6448.9,901,6449.2,901.2,6449.5L901.2,6449.5z"/>
						</g>
					</g>
					<g>
						<g>
							<path class="st18" d="M897.4,6454.2c-0.2,0.7-0.7,1.3-1.4,1.7c-0.3,0.2,0,0.6,0.3,0.4c0.8-0.5,1.3-1.2,1.6-2
								C898,6454,897.5,6453.9,897.4,6454.2L897.4,6454.2z"/>
						</g>
					</g>
					<g>
						<g>
							<path class="st18" d="M891.2,6455.1c1.2,0.2,2.3-0.5,2.5-1.8c0.1-0.3-0.4-0.5-0.5-0.1c-0.2,0.9-0.9,1.6-1.9,1.4
								C891,6454.5,890.9,6455,891.2,6455.1L891.2,6455.1z"/>
						</g>
					</g>
					<g>
						<g>
							<path class="st18" d="M888.1,6452.3c1,0.1,1.9-0.2,2.4-1c0.2-0.3-0.2-0.5-0.4-0.3c-0.4,0.6-1.2,0.9-1.9,0.8
								C887.9,6451.7,887.8,6452.2,888.1,6452.3L888.1,6452.3z"/>
						</g>
					</g>
					<g>
						<g>
							<path class="st18" d="M885.8,6449.2c0.9,0.3,1.8,0.1,2.4-0.5c0.2-0.2-0.1-0.6-0.4-0.4c-0.6,0.5-1.3,0.6-2,0.4
								C885.6,6448.6,885.5,6449.1,885.8,6449.2L885.8,6449.2z"/>
						</g>
					</g>
					<g>
						<g>
							<path class="st18" d="M884.1,6445.1c0.6,0.4,1.3,0.4,1.9,0c0.3-0.2,0-0.6-0.3-0.4c-0.4,0.3-0.9,0.3-1.4,0
								C884.1,6444.4,883.8,6444.9,884.1,6445.1L884.1,6445.1z"/>
						</g>
					</g>
					<g>
						<g>
							<path class="st18" d="M883.1,6440.4c0.4,0.3,0.8,0.4,1.3,0.3c0.3-0.1,0.2-0.6-0.1-0.5c-0.3,0.1-0.6,0-0.8-0.2
								C883.3,6439.8,882.9,6440.2,883.1,6440.4L883.1,6440.4z"/>
						</g>
					</g>
					<g>
						<g>
							<path class="st18" d="M881.3,6439.6c0.4-0.4,0.9-0.7,1.3-1c0.3-0.2,0-0.6-0.3-0.4c-0.5,0.3-1,0.7-1.4,1.1
								C880.7,6439.4,881.1,6439.8,881.3,6439.6L881.3,6439.6z"/>
						</g>
					</g>
					<g>
						<g>
							<path class="st18" d="M881.1,6443.7c0.8-0.3,1.4-0.7,2-1.4c0.2-0.2-0.1-0.6-0.4-0.4c-0.5,0.6-1.1,1-1.8,1.2
								C880.7,6443.3,880.8,6443.8,881.1,6443.7L881.1,6443.7z"/>
						</g>
					</g>
					<g>
						<g>
							<path class="st18" d="M881.8,6447.7c0.8-0.5,1.4-1.1,1.9-1.8c0.2-0.3-0.3-0.5-0.4-0.3c-0.4,0.7-1,1.2-1.7,1.7
								C881.3,6447.5,881.5,6447.9,881.8,6447.7L881.8,6447.7z"/>
						</g>
					</g>
					<g>
						<g>
							<path class="st18" d="M882.5,6451.9c0.4-0.1,0.7-0.5,0.9-0.8c0.4-0.4,0.7-0.8,1.1-1.2c0.2-0.2-0.1-0.6-0.4-0.4
								c-0.3,0.3-0.5,0.6-0.8,1c-0.2,0.3-0.6,0.8-1,0.9C882.1,6451.4,882.2,6451.9,882.5,6451.9L882.5,6451.9z"/>
						</g>
					</g>
					<g>
						<g>
							<path class="st18" d="M883.3,6455.6c1-0.4,1.7-1.1,2-2.1c0.1-0.3-0.4-0.4-0.5-0.1c-0.3,0.8-0.8,1.4-1.6,1.7
								C882.9,6455.3,883,6455.7,883.3,6455.6L883.3,6455.6z"/>
						</g>
					</g>
				</g>
				<g>
					<g transform="matrix( 1, 0, 0, 1, 180.1,-70.1) ">
						<g>
							<g id="Layer0_1_MEMBER_2_MEMBER_0_MEMBER_3_MEMBER_0_FILL_11_">
								<path class="st19" d="M706.1,6416c1.6-0.7,3.4-0.8,5.2-0.5c1.9,0.3,3.5,0.9,4.8,2.1c1.6,1.2,2.1,2.4,2.5,4.1
									c0.3,1.3,0.5,1.6,0.4,2.2c0.2-1.2,0.5-1.6,0.6-2.5l0.2-1.3c0.1-0.5-0.1-1.7-0.2-2v-0.1v-0.1l-0.5-1.3v-0.1
									c-0.5-1-1.3-1.9-2.3-2.7c-1.4-1.1-3-1.8-4.8-2.1c-1.8-0.3-3.5-0.1-5.2,0.5c-2,0.8-3.4,2.1-4.2,3.8c-0.2,0.3-0.9,2-0.9,4.3
									c0.1-0.2,0.1-0.4,0.2-0.5C702.7,6418.1,704.1,6416.8,706.1,6416z"/>
							</g>
						</g>
					</g>
					<polyline class="st20" points="905.9,6342.6 903.7,6343.5 898.2,6345.6 898.2,6345.6 897.9,6345.7 					"/>
					<line class="st8" x1="900" y1="6349.2" x2="906.6" y2="6348.2"/>
				</g>
			</g>
		</g>
		<path class="st15" d="M814.3,6379.6c0,0-1.9,31.2,14.9,46.8c16.9,15.6,34.6,11.3,42,7.6c5.5-2.8,8.4-5,9.9-5.1l0,0l-1.2-2
			c0,0-0.9,0.5-3.8,2s-4.9,3.2-8.7,4.4c-9.3,3-28.1,2.6-38.5-10.2c-9.9-12.2-9.3-18.1-10.9-25.9c-1.6-7.8-1.2-15.1-1.3-15.3
			c-0.1-0.2-0.1-3.5,0.4-5.1s0.3-0.9,0.3-0.9l-1.2,0.1C816,6376,816,6377.5,814.3,6379.6z"/>
		<g>
			<path class="st21" d="M816,6368.1c0,0,8-15.6,7.2-27.5c-0.5-6.1-6.4-13.6-14.9-17.8s-13.7-3.7-18.6-2.7
				c-41.7,8.5-58.4,8.5-56.4-1c1.8-8.3,34.9-31,64.2-44.3c33.5-15.3,110.5-33.4,89.6-6.8c-7.1,9-57.1,35.5-72.6,46
				c-4,2.7-5.1,6.8-5.1,6.8l-2.4-1.1c1.8-3.8,2.8-5.4,8.2-8.7c17.1-10.4,61.2-36.7,67.9-44.2c20.1-22.5-58.2-1.4-85.6,11.2
				c-27.9,12.9-60.5,36-60.2,42.2c0.3,6.6,38.1-0.6,51.3-2.9c11.2-2,15.6,1.1,20.1,3.6c8.6,4.6,16.3,10.7,17.1,19.2
				c0.9,9.4-5.6,24.9-6.3,26.4s-1.4,3.6-1.4,3.6L816,6368.1z"/>
			<path class="st15" d="M806.3,6322.1c0,0-1.5,4,0.7,4.9s7-1.5,8.4-1.6c1.4,0,3.4,1.6,3.4,1.6s0.7-0.6,0.6-2
				c-0.1-1.5-1.4-2.6-3.7-2.1s-5,2.4-6.1,2.2c-1.1-0.2-1.4-0.5-1.3-1c0.1-0.5,0.3-0.8,0.3-0.8L806.3,6322.1z"/>
		</g>
		<g>
			<g>
				<path class="st18" d="M876.5,6431.1c0.5-0.7,0.7-1.4,0.8-2.3c0-0.3-0.5-0.3-0.5,0c-0.1,0.7-0.4,1.4-0.8,2
					C875.9,6431.1,876.3,6431.4,876.5,6431.1L876.5,6431.1z"/>
			</g>
		</g>
		<g>
			<g>
				<path class="st18" d="M872.2,6433.4c0.5-0.7,0.7-1.4,0.8-2.3c0-0.3-0.5-0.3-0.5,0c-0.1,0.7-0.4,1.4-0.8,2
					C871.6,6433.4,872,6433.7,872.2,6433.4L872.2,6433.4z"/>
			</g>
		</g>
		<g>
			<g>
				<path class="st18" d="M867.4,6435.6c0.5-0.7,0.7-1.4,0.8-2.3c0-0.3-0.5-0.3-0.5,0c-0.1,0.7-0.4,1.4-0.8,2
					C866.8,6435.6,867.3,6435.9,867.4,6435.6L867.4,6435.6z"/>
			</g>
		</g>
		<g>
			<g>
				<path class="st18" d="M860.9,6437.1c0.5-0.7,0.7-1.4,0.8-2.3c0-0.3-0.5-0.3-0.5,0c-0.1,0.7-0.4,1.4-0.8,2
					C860.3,6437.1,860.7,6437.4,860.9,6437.1L860.9,6437.1z"/>
			</g>
		</g>
		<g>
			<g>
				<path class="st18" d="M852.7,6437.4c0.6-0.6,1.1-1.2,1.4-2c0.1-0.3-0.4-0.4-0.5-0.1c-0.3,0.7-0.7,1.3-1.2,1.8
					C852.1,6437.3,852.4,6437.7,852.7,6437.4L852.7,6437.4z"/>
			</g>
		</g>
		<g>
			<g>
				<path class="st18" d="M845.9,6435.9c0.6-0.6,1.1-1.2,1.4-2c0.1-0.3-0.4-0.4-0.5-0.1c-0.3,0.7-0.7,1.3-1.2,1.8
					C845.3,6435.8,845.7,6436.2,845.9,6435.9L845.9,6435.9z"/>
			</g>
		</g>
		<g>
			<g>
				<path class="st18" d="M838.3,6433c0.8-0.2,1.5-0.6,2.1-1.2c0.2-0.2-0.1-0.6-0.4-0.4c-0.6,0.5-1.2,0.8-1.9,1
					C837.8,6432.6,837.9,6433.1,838.3,6433L838.3,6433z"/>
			</g>
		</g>
		<g>
			<g>
				<path class="st18" d="M831.3,6428.3c0.8,0.2,1.6,0.1,2.4-0.1c0.3-0.1,0.2-0.6-0.1-0.5c-0.7,0.2-1.4,0.2-2.2,0.1
					C831.1,6427.8,830.9,6428.3,831.3,6428.3L831.3,6428.3z"/>
			</g>
		</g>
		<g>
			<g>
				<path class="st18" d="M826.1,6423.5c0.8,0.2,1.6,0.1,2.4-0.1c0.3-0.1,0.2-0.6-0.1-0.5c-0.7,0.2-1.4,0.2-2.2,0.1
					C826,6422.9,825.8,6423.4,826.1,6423.5L826.1,6423.5z"/>
			</g>
		</g>
		<g>
			<g>
				<path class="st18" d="M820.6,6414.7c0.8,0.2,1.6,0.1,2.4-0.1c0.3-0.1,0.2-0.6-0.1-0.5c-0.7,0.2-1.4,0.2-2.2,0.1
					C820.4,6414.2,820.3,6414.6,820.6,6414.7L820.6,6414.7z"/>
			</g>
		</g>
		<g>
			<g>
				<path class="st18" d="M817.2,6405c0.6,0.5,1.3,0.9,2.1,1.1c0.3,0.1,0.4-0.4,0.1-0.5c-0.7-0.2-1.4-0.5-1.9-1
					C817.3,6404.5,816.9,6404.8,817.2,6405L817.2,6405z"/>
			</g>
		</g>
		<g>
			<g>
				<path class="st18" d="M815.2,6395.8c0.6,0.5,1.3,0.9,2.1,1.1c0.3,0.1,0.4-0.4,0.1-0.5c-0.7-0.2-1.4-0.5-1.9-1
					C815.3,6395.2,815,6395.6,815.2,6395.8L815.2,6395.8z"/>
			</g>
		</g>
		<g>
			<g>
				<path class="st18" d="M814.7,6388.8c0.6,0.5,1.3,0.9,2.1,1.1c0.3,0.1,0.4-0.4,0.1-0.5c-0.7-0.2-1.4-0.5-1.9-1
					C814.9,6388.2,814.5,6388.6,814.7,6388.8L814.7,6388.8z"/>
			</g>
		</g>
		<g>
			<g>
				<path class="st18" d="M814.2,6381.6c0.6,0.5,1.3,0.9,2.1,1.1c0.3,0.1,0.4-0.4,0.1-0.5c-0.7-0.2-1.4-0.5-1.9-1
					C814.3,6381,814,6381.3,814.2,6381.6L814.2,6381.6z"/>
			</g>
		</g>
		<g>
			<g>
				<path class="st18" d="M817.4,6365c0.4,0.7,0.9,1.4,1.5,1.9c0.3,0.2,0.5-0.2,0.3-0.4c-0.6-0.4-1-1-1.4-1.7
					C817.7,6364.5,817.3,6364.7,817.4,6365L817.4,6365z"/>
			</g>
		</g>
		<g>
			<g>
				<path class="st18" d="M819.7,6360.1c0.4,0.7,0.9,1.4,1.5,1.9c0.3,0.2,0.5-0.2,0.3-0.4c-0.6-0.4-1-1-1.4-1.7
					C820,6359.6,819.6,6359.9,819.7,6360.1L819.7,6360.1z"/>
			</g>
		</g>
		<g>
			<g>
				<path class="st18" d="M821.8,6352c0.4,0.7,0.9,1.4,1.5,1.9c0.3,0.2,0.5-0.2,0.3-0.4c-0.6-0.4-1-1-1.4-1.7
					C822.1,6351.4,821.6,6351.7,821.8,6352L821.8,6352z"/>
			</g>
		</g>
		<g>
			<g>
				<path class="st18" d="M823.5,6344c0.4,0.7,0.9,1.4,1.5,1.9c0.3,0.2,0.5-0.2,0.3-0.4c-0.6-0.4-1-1-1.4-1.7
					C823.8,6343.5,823.3,6343.7,823.5,6344L823.5,6344z"/>
			</g>
		</g>
		<g>
			<g>
				<path class="st18" d="M821.6,6335.1c1,0.3,2,0.4,3,0.2c0.4-0.1,0.2-0.7-0.2-0.6c-0.9,0.2-1.8,0.1-2.7-0.2
					C821.4,6334.3,821.2,6335,821.6,6335.1L821.6,6335.1z"/>
			</g>
		</g>
		<g>
			<g>
				<path class="st18" d="M816.1,6328.3c1,0.3,2,0.4,3,0.2c0.4-0.1,0.2-0.7-0.2-0.6c-0.9,0.2-1.8,0.1-2.7-0.2
					C815.9,6327.6,815.8,6328.2,816.1,6328.3L816.1,6328.3z"/>
			</g>
		</g>
		<g>
			<g>
				<path class="st18" d="M809,6323.2c1,0.2,2,0.1,3-0.3c0.4-0.1,0.2-0.7-0.2-0.6c-0.9,0.3-1.7,0.4-2.6,0.3
					C808.8,6322.6,808.6,6323.2,809,6323.2L809,6323.2z"/>
			</g>
		</g>
		<g>
			<g>
				<path class="st18" d="M801.6,6320.3c1-0.2,1.9-0.6,2.7-1.3c0.3-0.3-0.1-0.7-0.4-0.4c-0.7,0.6-1.5,1-2.4,1.1
					C801,6319.8,801.2,6320.4,801.6,6320.3L801.6,6320.3z"/>
			</g>
		</g>
		<g>
			<g>
				<path class="st18" d="M793.2,6319.4c0.8-0.6,1.4-1.5,1.8-2.4c0.2-0.4-0.5-0.5-0.6-0.2c-0.4,0.8-0.9,1.6-1.6,2.1
					C792.4,6319.2,792.9,6319.7,793.2,6319.4L793.2,6319.4z"/>
			</g>
		</g>
		<g>
			<g>
				<path class="st18" d="M784.1,6321c0.8-0.6,1.4-1.5,1.8-2.4c0.2-0.4-0.5-0.5-0.6-0.2c-0.4,0.8-0.9,1.6-1.6,2.1
					C783.3,6320.8,783.8,6321.2,784.1,6321L784.1,6321z"/>
			</g>
		</g>
		<g>
			<g>
				<path class="st18" d="M774.1,6322.8c0.7-0.8,1.2-1.6,1.4-2.6c0.1-0.4-0.5-0.6-0.6-0.2c-0.2,0.9-0.6,1.7-1.2,2.4
					C773.4,6322.7,773.9,6323.1,774.1,6322.8L774.1,6322.8z"/>
			</g>
		</g>
		<g>
			<g>
				<path class="st18" d="M763.2,6324.7c0.7-0.8,1.1-1.7,1.3-2.7c0.1-0.4-0.5-0.6-0.6-0.2c-0.2,0.9-0.5,1.7-1.1,2.4
					C762.5,6324.6,762.9,6325,763.2,6324.7L763.2,6324.7z"/>
			</g>
		</g>
		<g>
			<g>
				<path class="st18" d="M754.2,6325.6c0.7-0.8,1.1-1.7,1.3-2.7c0.1-0.4-0.5-0.6-0.6-0.2c-0.2,0.9-0.5,1.7-1.1,2.4
					C753.5,6325.4,754,6325.9,754.2,6325.6L754.2,6325.6z"/>
			</g>
		</g>
		<g>
			<g>
				<path class="st18" d="M745.6,6326c0.7-0.8,1.1-1.7,1.3-2.7c0.1-0.4-0.5-0.6-0.6-0.2c-0.2,0.9-0.5,1.7-1.1,2.4
					C744.9,6325.9,745.3,6326.3,745.6,6326L745.6,6326z"/>
			</g>
		</g>
		<g>
			<g>
				<path class="st18" d="M737,6324.9c0.9-0.5,1.6-1.3,2.1-2.2c0.2-0.4-0.3-0.7-0.5-0.3c-0.5,0.8-1.1,1.5-1.8,1.9
					C736.4,6324.6,736.7,6325.1,737,6324.9L737,6324.9z"/>
			</g>
		</g>
		<g>
			<g>
				<path class="st18" d="M734.6,6317.2c0.5,0.9,1.3,1.6,2.1,2.1c0.3,0.2,0.7-0.3,0.3-0.5c-0.8-0.5-1.4-1.1-1.9-1.9
					C735,6316.6,734.4,6316.9,734.6,6317.2L734.6,6317.2z"/>
			</g>
		</g>
		<g>
			<g>
				<path class="st18" d="M742.4,6308.8c0.1,1,0.5,2,1.1,2.8c0.2,0.3,0.8,0,0.5-0.3c-0.5-0.7-0.9-1.6-1-2.5
					C743,6308.4,742.4,6308.4,742.4,6308.8L742.4,6308.8z"/>
			</g>
		</g>
		<g>
			<g>
				<path class="st18" d="M760.7,6295.2c0.1,1,0.5,2,1.1,2.8c0.2,0.3,0.8,0,0.5-0.3c-0.5-0.7-0.9-1.6-1-2.5
					C761.3,6294.8,760.7,6294.8,760.7,6295.2L760.7,6295.2z"/>
			</g>
		</g>
		<g>
			<g>
				<path class="st18" d="M770.4,6289.1c0.1,1,0.5,2,1.1,2.8c0.2,0.3,0.8,0,0.5-0.3c-0.5-0.7-0.9-1.6-1-2.5
					C770.9,6288.7,770.3,6288.7,770.4,6289.1L770.4,6289.1z"/>
			</g>
		</g>
		<g>
			<g>
				<path class="st18" d="M791.9,6277.4c-0.4,0.9-0.6,1.9-0.6,2.9c0,0.4,0.6,0.4,0.6,0c0-0.9,0.1-1.8,0.5-2.6
					C792.6,6277.4,792.1,6277,791.9,6277.4L791.9,6277.4z"/>
			</g>
		</g>
		<g>
			<g>
				<path class="st18" d="M802.3,6272.8c-0.4,0.9-0.6,1.9-0.6,2.9c0,0.4,0.6,0.4,0.6,0c0-0.9,0.1-1.8,0.5-2.6
					C803,6272.8,802.5,6272.5,802.3,6272.8L802.3,6272.8z"/>
			</g>
		</g>
		<g>
			<g>
				<path class="st18" d="M811.6,6269c-0.4,0.9-0.6,1.9-0.6,2.9c0,0.4,0.6,0.4,0.6,0c0-0.9,0.1-1.8,0.5-2.6
					C812.3,6269,811.8,6268.7,811.6,6269L811.6,6269z"/>
			</g>
		</g>
		<g>
			<g>
				<path class="st18" d="M820.9,6265.9c-0.4,0.9-0.6,1.9-0.6,2.9c0,0.4,0.6,0.4,0.6,0c0-0.9,0.1-1.8,0.5-2.6
					C821.6,6265.9,821.1,6265.6,820.9,6265.9L820.9,6265.9z"/>
			</g>
		</g>
		<g>
			<g>
				<path class="st18" d="M832.9,6262.3c-0.4,0.9-0.6,1.9-0.6,2.9c0,0.4,0.6,0.4,0.6,0c0-0.9,0.1-1.8,0.5-2.6
					C833.7,6262.2,833.1,6261.9,832.9,6262.3L832.9,6262.3z"/>
			</g>
		</g>
		<g>
			<g>
				<path class="st18" d="M844.7,6259.2c-0.4,0.9-0.6,1.9-0.6,2.9c0,0.4,0.6,0.4,0.6,0c0-0.9,0.1-1.8,0.5-2.6
					C845.4,6259.1,844.9,6258.8,844.7,6259.2L844.7,6259.2z"/>
			</g>
		</g>
		<g>
			<g>
				<path class="st18" d="M858.5,6256.2c-0.4,0.9-0.6,1.9-0.6,2.9c0,0.4,0.6,0.4,0.6,0c0-0.9,0.1-1.8,0.5-2.6
					C859.2,6256.2,858.6,6255.8,858.5,6256.2L858.5,6256.2z"/>
			</g>
		</g>
		<g>
			<g>
				<path class="st18" d="M874.9,6254c-0.4,0.9-0.6,1.9-0.6,2.9c0,0.4,0.6,0.4,0.6,0c0-0.9,0.1-1.8,0.5-2.6
					C875.6,6254,875.1,6253.6,874.9,6254L874.9,6254z"/>
			</g>
		</g>
		<g>
			<g>
				<path class="st18" d="M888.2,6256.9c-1,0.2-1.9,0.6-2.7,1.3c-0.3,0.3,0.1,0.7,0.4,0.4c0.7-0.6,1.5-0.9,2.4-1.1
					C888.8,6257.4,888.6,6256.8,888.2,6256.9L888.2,6256.9z"/>
			</g>
		</g>
		<g>
			<g>
				<path class="st18" d="M886.3,6268.5c-0.2-1.1-0.6-2.1-1.3-3c-0.3-0.4-0.9,0-0.6,0.4c0.6,0.8,1,1.8,1.2,2.8
					C885.6,6269.2,886.3,6269,886.3,6268.5L886.3,6268.5z"/>
			</g>
		</g>
		<g>
			<g>
				<path class="st18" d="M873.8,6278c0.4-1.1,0.4-2.2,0.2-3.3c-0.1-0.4-0.7-0.3-0.7,0.2c0.2,1,0.1,2-0.2,3
					C873,6278.3,873.6,6278.4,873.8,6278L873.8,6278z"/>
			</g>
		</g>
		<g>
			<g>
				<path class="st18" d="M860.8,6286.3c0.4-1.1,0.4-2.2,0.2-3.3c-0.1-0.4-0.7-0.3-0.7,0.2c0.2,1,0.1,2-0.2,3
					C860,6286.5,860.7,6286.7,860.8,6286.3L860.8,6286.3z"/>
			</g>
		</g>
		<g>
			<g>
				<path class="st18" d="M848,6294.2c0.4-1.1,0.4-2.2,0.2-3.3c-0.1-0.4-0.7-0.3-0.7,0.2c0.2,1,0.1,2-0.2,3
					C847.2,6294.4,847.9,6294.6,848,6294.2L848,6294.2z"/>
			</g>
		</g>
		<g>
			<g>
				<path class="st18" d="M833.6,6302.7c0.4-1.1,0.4-2.2,0.2-3.3c-0.1-0.4-0.7-0.3-0.7,0.2c0.2,1,0.1,2-0.2,3
					C832.8,6303,833.5,6303.2,833.6,6302.7L833.6,6302.7z"/>
			</g>
		</g>
		<g>
			<g>
				<path class="st18" d="M820.3,6310.9c0.5-1.1,0.8-2.3,0.7-3.6c0-0.5-0.7-0.5-0.7,0c0,1.1-0.2,2.2-0.6,3.2
					C819.5,6310.9,820.1,6311.3,820.3,6310.9L820.3,6310.9z"/>
			</g>
		</g>
		<g>
			<g>
				<path class="st18" d="M812.2,6316c0.5-1.1,0.8-2.3,0.7-3.6c0-0.5-0.7-0.5-0.7,0c0,1.1-0.2,2.2-0.6,3.2
					C811.4,6316.1,812,6316.5,812.2,6316L812.2,6316z"/>
			</g>
		</g>
		<g>
			<g>
				<path class="st18" d="M809.9,6324.8c-1.2,0.1-2.4,0.5-3.5,1.1c-0.4,0.2,0,0.9,0.4,0.6c1-0.6,2-0.9,3.1-1
					C810.4,6325.4,810.4,6324.7,809.9,6324.8L809.9,6324.8z"/>
			</g>
		</g>
		<g>
			<g>
				<path class="st18" d="M815.4,6322.9c-1,0.7-1.9,1.6-2.5,2.7c-0.2,0.4,0.4,0.8,0.6,0.4c0.5-1,1.3-1.8,2.2-2.4
					C816.1,6323.3,815.8,6322.6,815.4,6322.9L815.4,6322.9z"/>
			</g>
		</g>
		<g>
			<g>
				<path class="st18" d="M781,6283c0.1,1,0.5,2,1.1,2.8c0.2,0.3,0.8,0,0.5-0.3c-0.5-0.7-0.9-1.6-1-2.5
					C781.6,6282.6,781,6282.6,781,6283L781,6283z"/>
			</g>
		</g>
		<g>
			<g>
				<path class="st18" d="M752.1,6300.8c0.1,1,0.5,2,1.1,2.8c0.2,0.3,0.8,0,0.5-0.3c-0.5-0.7-0.9-1.6-1-2.5
					C752.7,6300.4,752.1,6300.4,752.1,6300.8L752.1,6300.8z"/>
			</g>
		</g>
	</g>
</g>
<path class="st22" d="M166,215.7c8.8-1.7,13.3-3.8,13.3-6.2c0-2.6-5.8-5-17.6-7c-0.9-0.1-1.7-0.2-2.6-0.3c-4-0.6-8.2-1.1-12.6-1.5
	c-4.7-0.3-9.5-0.7-14.6-0.8c-4.1-0.2-8.3-0.2-12.8-0.2c-4.3,0-8.4,0-12.3,0.2c-4.2,0.1-8.2,0.3-12,0.6c-6.7,0.4-12.8,1.2-18.3,2
	c-11.8,2-17.7,4.4-17.7,7c0,2.7,5.9,5,17.7,7c11.7,1.9,26,2.8,42.6,2.8c16.7,0,30.9-0.9,42.6-2.8C163.2,216.2,164.6,216,166,215.7z"
	/>
<g>
	<g>
		<path class="st23" d="M146.3,161.4v1.3c0,0.1,0,0.2,0,0.3C146.3,162.4,146.3,161.9,146.3,161.4z"/>
		<path class="st23" d="M146.3,161.4v-5.2C146.2,158.4,146.3,159.8,146.3,161.4z"/>
		<path class="st23" d="M129.9,185.1L129.9,185.1l-0.4,0.1C129.6,185.2,129.8,185.1,129.9,185.1l-0.3,5.6l-1,14.3
			c-0.1,1,0.3,2,1.2,2.7c0.7,0.9,1.7,1.3,2.9,1.3c1.1,0,2.1-0.4,3-1.3c0.7-0.7,1.1-1.7,1.1-2.7l-1-16.4l-0.3-4.2l-4.2,0.5
			c0.8-0.1,1.7-0.3,2.5-0.4L131,185L129.9,185.1z"/>
		<path class="st23" d="M135.8,184.2c-0.7,0.1-1.3,0.2-2,0.3L135.8,184.2z"/>
		<path class="st23" d="M209,126.8c0-0.3,0.1-0.5,0.1-0.8c0.2-1.2,0.4-2.1,0.4-2.1l0,0c0-0.2,0-0.4,0-0.7c0,0,0,0,0-0.1
			c0-0.5-0.1-0.9-0.3-1.4c0,0,0-0.1,0-0.1c-0.1-0.2-0.2-0.4-0.3-0.5c0,0-0.1-0.1-0.1-0.1c-0.3-0.4-0.6-0.8-1.1-1.3
			c-0.1-0.1-0.1-0.1-0.2-0.2c-0.2-0.2-0.4-0.3-0.6-0.5c-0.1-0.1-0.2-0.1-0.2-0.2c-0.3-0.2-0.6-0.4-0.9-0.6l0,0l0,0l0,0
			c-8.9-4.9-21.9-3-21.9-3l-2.7-1.4l-6-3.2c0.3-0.1,0.6-0.1,0.9-0.1c1.9,0,1.8,0.9,1.8,0.9s1-4.8-2.4-5.1c0,0-0.2,0-0.4,0
			c-0.2-0.8-0.6-1.7-1.5-2.1c0-3.7-0.3-7.8-0.8-12.3l4.7,3.1c-1.1-9.4-4-16.6-8.8-21.4c2.5-1.2,4.8-2.4,7-3.8
			c9.5-5.4,6-15.9-10.2-31.8c-0.3-0.3-0.7-0.6-1-1c-2.6-2.3-5.3-4.8-8.4-7.5l4.1,16.9l-12.9,1.4c-4-2.6-9.1-5-15.4-7.4
			c0.6-1.5,2.2-2.6,4.5-3.4c-6.1-1.5-12.1-1.2-18.1,0.9l6.3-16.8l-19.9,17.8c-0.1,0-0.3,0.1-0.4,0.1c-9.7-3.7-18.7-4.3-26.7-1.3
			c6.3,1.6,10.7,3.2,13.4,5.2c-7,3-13.2,7.5-18.9,13.4l0-0.1l-25,2.8L41.2,60l-1,0.1l0.2-17.4c-15,20.3-20.2,33.6-15.7,40
			c1.1,1.7,3,2.9,5.4,3.6c1.8,0.5,3.9,1.2,6.1,1.6c5.6,1.4,12.7,2.7,21.1,4c-0.2,0.3-0.3,0.6-0.4,1c-0.5,1.1-1,2.2-1.4,3.3
			c-1.5,3.9-2.3,8.6-2.4,12.2c0,0.5,0,1,0,1.5c0.1,3,0.6,6,1.7,8.8l0,0l0,0l7.6-5.8c0,0.7,0,1.4,0,2c0.1,2,0.2,4,0.4,5.9
			c1.3,10.7,4.8,18.6,10.5,25.7l0,0l0,0l7.3-6.7c3,2.1,6.1,3.9,9.3,5.4c1.3,0.6,2.7,1.2,4.1,1.7c-6.1,14.2-7.9,25.8-5.4,34.7
			c4.1,1,8.2,1.8,12.1,2.4l-0.7,17.3l-0.3,6c0,1.1,0.3,2,1.2,2.8c0.8,0.9,1.8,1.2,2.9,1.2c1.2,0,2.2-0.3,3.1-1.2
			c0.8-0.8,1.1-1.7,1.1-2.8l-0.3-9l-0.7-13.4l-1.5-0.2l1.1,0.1c1.3,0.2,2.7,0.3,4.1,0.4c0,0,0-0.1,0-0.1c6.6,0.5,12.8,0.4,18.6-0.3
			c2.1-0.3,4.3-0.7,6.3-1c0,0,0.1,0,0.1,0l0,0.2c4.1-0.9,8.1-2.1,11.8-3.7c0-0.3-0.1-0.6-0.1-0.9c0-3.7-0.6-9.4-1.2-16.6
			c0,0,0,0.1,0,0.1c0-0.1,0-0.2,0-0.3v-0.1c0-0.1,0-0.2,0-0.3c0-1-0.1-2.8-0.3-5c-0.1-1.5-0.2-3-0.3-4.5c0.9-0.2,8.4-7.2,15.2-18.9
			c0.2-0.4,0.4-0.7,0.6-0.9c0.1-0.2,0.2-0.4,0.4-0.7l0.5,3.8h0l0,0c0,0,0,0,0,0c0.9-2.3,1.6-4.6,2.3-6.9l1.3,0.9c0,0,0,0,0,0
			c0,0.2,0,0.3,0,0.5c0,0.1-0.1,0.3-0.2,0.4c0,0,0,0,0,0c0,0.1,0,0.1-0.1,0.2c0,0,0,0.1,0,0.1c0,0.1,0,0.1-0.1,0.2c0,0,0,0.1,0,0.1
			c0,0.1,0,0.1-0.1,0.2c0,0.1-0.1,0.2-0.1,0.4c0,0,0,0.1,0,0.1c0,0.1-0.1,0.2-0.1,0.3c0,0,0,0.1,0,0.1c0,0.1,0,0.2-0.1,0.3
			c0,0.1,0,0.1,0,0.2c0,0.1,0,0.2-0.1,0.3c0,0.1,0,0.1,0,0.2c0,0.1,0,0.2-0.1,0.3c0,0.1,0,0.1,0,0.2c0,0.1,0,0.3,0,0.4
			c0,0,0,0.1,0,0.1c0,0.1,0,0.3,0,0.5c0,0,0,0.1,0,0.1c0,0.4,0,0.8,0,1.2c0,0,0,0,0,0c0,0.2,0,0.4,0,0.6c0,0,0,0.1,0,0.1
			c0,0.2,0,0.3,0,0.5c0,0.1,0,0.1,0,0.2c0,0.1,0,0.3,0.1,0.4c0,0.1,0,0.1,0,0.2c0,0.1,0.1,0.3,0.1,0.4c0,0.1,0,0.1,0,0.2
			c0,0.1,0.1,0.3,0.1,0.4c0,0.1,0,0.1,0.1,0.2c0.1,0.2,0.1,0.3,0.2,0.5c0,0,0,0.1,0,0.1c0.2,0.4,0.4,0.8,0.6,1.1c0,0,0,0.1,0.1,0.1
			c0.1,0.1,0.2,0.3,0.3,0.4c0,0.1,0.1,0.1,0.1,0.2c0.1,0.1,0.2,0.2,0.3,0.4c0.1,0.1,0.1,0.1,0.2,0.2c0.1,0.1,0.2,0.2,0.3,0.3
			c0.1,0.1,0.1,0.1,0.2,0.2c0.1,0.1,0.2,0.2,0.3,0.3c0.1,0.1,0.1,0.1,0.2,0.2c0.1,0.1,0.3,0.2,0.4,0.3c0.1,0.1,0.2,0.1,0.2,0.2
			c0.2,0.1,0.3,0.2,0.5,0.3c0.1,0,0.1,0.1,0.2,0.1c0.2,0.1,0.5,0.3,0.8,0.4c12.2,5.5,21.7-0.2,21.7-0.2v0l0,0l0.6-3.8l0.5-2.8l0,0v0
			l-12-7.5l0,0l8.4-0.6l14.1,7.5c0,0,4.3-3.2,4.8-6.9c0.1-0.7,0.3-1.8,0.5-2.9C208.9,127.4,208.9,127.1,209,126.8z M75,82
			c-0.1-0.2-0.2-0.3-0.3-0.4C74.8,81.7,74.9,81.9,75,82z M74.6,81.5L74.6,81.5c-0.7,1.6-1.5,3.1-2.5,4.5
			C73.1,84.6,73.9,83.1,74.6,81.5z M69.8,88.7c-0.7,0.7-1.4,1.3-2.2,1.9C68.4,90,69.1,89.4,69.8,88.7z M65.8,91.9
			c-0.2,0.1-0.3,0.2-0.5,0.3c-0.2,0.1-0.3,0.2-0.5,0.4s-0.3,0.2-0.5,0.4l0,0c0.2-0.1,0.4-0.2,0.5-0.4s0.3-0.2,0.5-0.4
			C65.5,92.2,65.7,92,65.8,91.9z M62.5,92.7c-1.2-0.2-2.3-0.3-3.5-0.5C60.2,92.4,61.3,92.5,62.5,92.7z M144.9,143.8
			c0-0.6,0-1.2,0-1.6c0,0,0,0,0,0l0.7,10.7C145.4,149.6,145.1,146.5,144.9,143.8z"/>
	</g>
	<path class="st23" d="M149.1,156.7"/>
	<path class="st24" d="M121.3,146.4c-2.9,0-5.8-0.2-8.5-0.6c-0.4,2.3-0.8,5.2-1.2,8.5c-0.9,7.8-1.4,14.7-1.4,20.7
		c0,4.1,0.1,7.4,0.3,10c0.1,0.3,0.1,0.7,0.2,0.9c6.6,0.5,12.8,0.4,18.7-0.3c2.1-0.3,4.3-0.7,6.3-1c4.1-0.9,8.1-2.1,11.8-3.7
		c0.1-3.8-0.6-10-1.2-18c0.1-3-1.6-14.8-1.4-18.1c0-5.2,0.1-5,0-4.2 M146.3,156.7c-0.2,3.3,0.1,4.8,0,7.8"/>
	<path class="st25" d="M97,141.4c-8.4,17.1-11.2,30.8-8.3,41c4.2,1,8.4,1.9,12.4,2.5c1.9,0.2,3.7,0.5,5.6,0.7
		c1.3,0.2,2.7,0.3,4.1,0.4c-0.1-0.2-0.1-0.6-0.2-0.9c-0.2-2.6-0.3-5.9-0.3-10c0-6,0.3-10.7,1.2-18.5c18-0.8,25.3-5.1,30.2-12.2
		c-3.5-0.4-35.7,0.3-38.9-0.7c-0.3-0.1-0.7-0.3-1-0.4C100.2,142.7,98.6,142.1,97,141.4z"/>
	<g>
		<path class="st25" d="M107.1,185.7c-2.1-0.3-4.3-0.7-6.3-1l-0.7,17.4c0.5-0.2,1.2-0.5,1.9-0.7c2-0.8,3.9-1.5,5.8-2.3L107.1,185.7z
			"/>
		<path class="st25" d="M135.5,184.9c-1.9,0.2-3.7,0.5-5.6,0.7l-0.3,5.6c1.9-0.7,3.9-1.3,6.2-2.1L135.5,184.9z"/>
		<path class="st24" d="M135.7,208.2c0.7-0.7,1.1-1.7,1.1-2.7l-1-16.4c-2.3,0.8-4.3,1.4-6.2,2.1l-1,14.3c-0.1,1,0.3,2,1.2,2.7
			c0.7,0.9,1.7,1.3,2.9,1.3C133.8,209.5,134.8,209.1,135.7,208.2z"/>
		<path class="st24" d="M107.8,199.1c-1.9,0.8-3.8,1.5-5.8,2.3c-0.7,0.2-1.4,0.5-1.9,0.7l-0.3,6c0,1.1,0.3,2,1.2,2.8
			c0.8,0.9,1.8,1.2,2.9,1.2c1.2,0,2.2-0.3,3.1-1.2c0.8-0.8,1.1-1.7,1.1-2.8L107.8,199.1z"/>
		<path class="st4" d="M135.5,184.9l0.3,4.2l1,16.4c0,1-0.4,2-1.1,2.7c-0.9,0.9-1.9,1.3-3,1.3c-1.2,0-2.2-0.4-2.9-1.3
			c-0.9-0.7-1.3-1.7-1.2-2.7l1-14.3l0.3-5.6"/>
		<path class="st4" d="M107.1,185.7l0.7,13.4l0.3,9c0,1.1-0.3,2-1.1,2.8c-0.9,0.9-1.9,1.2-3.1,1.2c-1.1,0-2.1-0.3-2.9-1.2
			c-0.9-0.8-1.2-1.7-1.2-2.8l0.3-6l0.7-16.9"/>
	</g>
	<path class="st4" d="M147.1,164.5"/>
	<path class="st4" d="M149.1,156.7"/>
	<path class="st4" d="M150.1,147.8"/>
	<path class="st4" d="M144.6,141.4c1.4,12.2,2.5,34.8,3.1,39.6c-3.7,1.6-7.7,2.8-11.8,3.7"/>
	<path class="st4" d="M129.5,185.7c2.1-0.3,4.3-0.7,6.3-1"/>
	<path class="st4" d="M101.1,184.9c1.9,0.2,17.1,2.2,29.5,0.6"/>
	<path class="st4" d="M97,141.4c-8.4,17.1-11.2,30.8-8.3,41c4.2,1,8.4,1.9,12.4,2.5"/>
	<g>
		<path class="st25" d="M102.4,166.3c-0.1,3.8-0.2,6.1-0.5,7c-0.6,2-1.8,3.9-3.6,5.6c2,0.4,4.5,0,7.6-1v-22.7h-1
			c-0.6,0.1-1.2,1.6-1.7,4.5C102.7,162.1,102.5,164.4,102.4,166.3z"/>
		<path class="st4" d="M100.2,146.7c-0.8,1.2-1,2.9-0.8,5.1v22.6l-5.6-4.1c-0.6,5.2,1,8.1,4.5,8.6c2,0.4,4.5,0,7.6-1v-22.7"/>
	</g>
	<g>
		<g>
			<g>
				<g>
					<path class="st10" d="M41.2,62.5c0-0.7-0.1-1.4,0-1.9l-1,0.1l0.2-17.4c-15,20.3-20.2,33.6-15.7,40c0.4,0.1,0.8,0,1.1,0
						c4.9-0.5,8.9-4,12-10.5c1.5-3.1,2.5-6.2,3.2-9.4l0.2,0.1C41.3,63,41.2,62.7,41.2,62.5z"/>
					<path class="st26" d="M37.8,72.7c-3.1,6.5-7.1,10-12,10.5c-0.3,0-0.7,0.1-1.1,0c1.1,1.7,3,2.9,5.4,3.6c1.8,0.5,3.9,1.2,6.1,1.6
						c5.6,1.4,12.7,2.7,21.1,4c2.3,0.4,4.5,0.6,7,1c0.4-0.2,0.7-0.5,1-0.7c4.5-2.9,7.5-6.6,9.3-10.8c0-0.1,0.1-0.3,0.1-0.5
						c-2.3-4.3-7.1-9.1-14.6-14.1c-3.6-2.5-7.2-4.6-10.6-6.3c-1.1-0.5-1.9-0.9-2.7-1.2l-5.8,0.6c0,0.5,0,1.2,0,1.9
						c0,0.2,0.1,0.6,0,0.9L41,63.3C40.4,66.5,39.3,69.6,37.8,72.7z"/>
					<path class="st24" d="M104.3,39.9c-9.7-3.7-18.7-4.3-26.7-1.3c6.3,1.6,10.7,3.2,13.4,5.2c-7,3-13.2,7.5-18.9,13.4
						c4.1,9.6,5,17.8,2.7,24.2c-0.1,0.2-0.2,0.4-0.1,0.5c0.1,0.3,0.6,0.7,1,1.4c0.5,0.9-5.9,33.3-4.9,34.5c0,0,38.2,27.4,64.2,23.4
						c6.7-1.1,29-24.2,32.8-25.9c0.1-0.9,0.2-1.8,0.2-2.5l3.6,6.7c1-2.5,1.6-5.3,2-8.7c0.5-5.1,0.4-11.2-0.5-18.3l4.7,3.1
						c-1.1-9.4-4-16.6-8.8-21.4l0-0.1c-4.3-10.8-11.5-19.2-21.4-25.6c-4-2.6-9.1-5-15.4-7.4c0.6-1.5,2.2-2.6,4.5-3.4
						c-6.1-1.5-12.1-1.2-18.1,0.9l6.3-16.8l-19.9,17.8l-0.1,0.1C104.4,39.9,104.3,39.9,104.3,39.9z"/>
					<path class="st10" d="M60.2,67.4c7.4,5,12.3,9.8,14.6,14.1C77,75,76.1,66.8,72,57.2l0-0.1l-25,2.8c0.7,0.3,1.6,0.7,2.7,1.2
						C53,62.7,56.6,64.9,60.2,67.4z"/>
					<path class="st25" d="M74.6,82c-1.7,4.2-4.8,7.9-9.3,10.8c-0.4,0.2-0.7,0.5-1,0.7c-2.5-0.4-4.7-0.7-7-1c-0.2,0.3-0.3,0.6-0.4,1
						c-4.2,9-5,18.3-2.2,25.9l7.6-5.8c0,2.7,0.2,5.4,0.5,7.9c1.3,10.7,4.8,18.6,10.5,25.7l7.3-6.7c4.8,3.4,9.8,6,15.1,7.8
						c1.7,0.5,3.3,0.9,5,1.4c0.3,0.1,0.7,0.2,1,0.3c3.3,0.6,6.8,1.1,10.3,1.1c2.7,0.1,5.6,0,8.5-0.3c10.3-1.2,19.3-4.5,27.2-10
						c0.1-0.1,0.3-0.2,0.3-0.2c4.2-3,7.8-6.6,11.3-10.6c0.6-0.8,1.2-1.5,1.7-2.4l1.1,9.2c2.7-7.1,4.6-15.6,5.5-22.7
						c-2.7,1.2-20.4,21.6-46.8,21.4c-1.4,0,2.6-7.8,1.3-7.3c-2.9,1-17.2,3.1-13.6,0.4c11.9-9-12.6,4-25.7-11.1
						c-8.7-10-6.8-33.2-7.3-34C75.2,82.7,74.7,82.3,74.6,82z"/>
					<path class="st10" d="M156.2,30.3l4.1,16.9l5.1-0.6l0.2,0.2c0.6-0.6,1.1-0.9,1.2-1.2c0.2-0.2,0.1-1.1-0.1-2.5
						c-0.1-1.1-0.6-2.5-1.4-4c-0.1-0.4-0.4-0.9-0.7-1.3C162,35.5,159.3,33,156.2,30.3z"/>
					<path class="st26" d="M166.7,43.1c0.2,1.4,0.3,2.3,0.1,2.5c-0.1,0.3-0.5,0.7-1.2,1.2l-0.2-0.2l-5.1,0.6l-12.9,1.4
						c9.9,6.3,17,14.8,21.4,25.6l0,0.1c2.5-1.2,4.8-2.4,7-3.8c9.5-5.4,6-15.9-10.2-31.8l-0.4,0.3C166.1,40.7,166.5,42,166.7,43.1z"
						/>
					<path class="st4" d="M72,57.2L72,57.2L47,59.9l-5.8,0.6l-1,0.1l0.2-17.4c-15,20.3-20.2,33.6-15.7,40c1.1,1.7,3,2.9,5.4,3.6
						c1.8,0.5,3.9,1.2,6.1,1.6c5.6,1.4,12.7,2.7,21.1,4"/>
					<path class="st4" d="M104.3,39.9c0.1,0,0.3-0.1,0.4-0.1"/>
					<path class="st4" d="M104.7,39.8l-0.1,0.1c-0.2,0-0.3,0-0.3,0"/>
					<path class="st4" d="M57.4,92.4c2.3,0.4,4.5,0.6,7,1c0.4-0.2,0.7-0.5,1-0.7c4.5-2.9,7.5-6.6,9.3-10.8c0-0.1,0.1-0.3,0.1-0.5
						C77,75,76.1,66.8,72,57.2"/>
					<path class="st4" d="M57.4,92.4c-0.2,0.3-0.3,0.6-0.4,1c-4.2,9-5,18.3-2.2,25.9l7.6-5.8c0,2.7,0.2,5.4,0.5,7.9
						c1.3,10.7,4.8,18.6,10.5,25.7l7.3-6.7c4.8,3.4,9.8,6,15.1,7.8"/>
					<path class="st4" d="M104.3,39.9c-9.7-3.7-18.7-4.3-26.7-1.3c6.3,1.6,10.7,3.2,13.4,5.2c-7,3-13.2,7.5-18.9,13.4"/>
					<path class="st4" d="M168.7,74.4c2.5-1.2,4.8-2.4,7-3.8c9.5-5.4,6-15.9-10.2-31.8c-0.3-0.3-0.7-0.6-1-1
						c-2.6-2.3-5.3-4.8-8.4-7.5l4.1,16.9"/>
					<path class="st4" d="M147.4,48.7c-4-2.6-9.1-5-15.4-7.4c0.6-1.5,2.2-2.6,4.5-3.4c-6.1-1.5-12.1-1.2-18.1,0.9l6.3-16.8
						l-19.9,17.8"/>
					<line class="st4" x1="160.3" y1="47.3" x2="165.3" y2="46.7"/>
					<line class="st4" x1="147.4" y1="48.7" x2="160.3" y2="47.3"/>
					<path class="st4" d="M168.7,74.4L168.7,74.4c-4.3-10.9-11.5-19.3-21.4-25.7"/>
					<path class="st4" d="M148,140.5c4.2-3,7.8-6.6,11.3-10.6c0.6-0.8,1.2-1.5,1.7-2.4l1.1,9.2c2.7-7.1,4.5-14.2,5.4-21.3
						c0.1-0.9,0.2-1.8,0.2-2.5l3.6,6.7c1-2.5,1.6-5.3,2-8.7c0.5-5.1,0.4-11.2-0.5-18.3l4.7,3.1c-1.1-9.4-4-16.6-8.8-21.4"/>
					<path class="st4" d="M95.8,148.3c1.7,0.5,3.3,0.9,5,1.4c0.3,0.1,0.7,0.2,1,0.3c3.3,0.6,6.8,1.1,10.3,1.1c2.7,0.1,5.6,0,8.5-0.3
						c10.3-1.2,19.3-4.5,27.2-10c0.1-0.1,0.3-0.2,0.3-0.2"/>
				</g>
				<g>
					<g>
						<path d="M137.8,78.3c0,0,0.2,0,0.5,0.1C137.9,78.3,137.7,78.3,137.8,78.3z"/>
					</g>
				</g>
			</g>
		</g>
	</g>
	<path class="st27" d="M145.6,153.3c1-0.2,8.8-7.5,15.7-19.8c1.9-3.4,4.2-9.5,4.2-9.5l-6.5-3.1c0,0-2.6,5.8-7.2,12.5
		c-3,4.3-7.1,9-7.1,9L145.6,153.3z"/>
	<path class="st28" d="M156.8,126.7l1.9,3.6c0,0-3.3,7.5-6.5,10.7c-3.2,3.1-7.3,3-7.3,3l1.4,8.6c0,0,13.2-15.5,15-19.1
		c1.8-3.6,4.2-9.5,4.2-9.5l-6.5-3.1L156.8,126.7z"/>
	<g>
		<g>
			<path d="M95.5,98.6c0,0,3.1-1.8,4.5-1c1.4,0.8,3.3,1.9,3.3,1.9s-1.4-2.9-3.6-3.1C97.6,96.3,95.5,98.6,95.5,98.6z"/>
			<g>
				<g>
					<path d="M88.5,107.2c-11.2-5.1-13.7-10.5-11.6-9.2c3.6,2.2,9.7,4.6,17.6,5.7c1.3,0.2,3.8-1.3,5.2-1.2c1.4,0.1,4.6,1.3,6,1.7
						c11.4,3.3,23.5-0.6,32.7-5.6c13.2-7.1,16-2.6,19.7-3.7c3.2-0.9-2.7-3.6-4.5-4.3c2,0.5,9.1,2.5,8.3,4.4
						c-0.8,1.8-7.1,2.5-11.4,2.1c4.2,2.7,6.3,9.5,1.9,12.1c-4.9,2.9-15.5,0.1-26.2-0.2c-4.1-0.1-11.6,1-20-0.9
						c-2.5-0.6-5.1-1.7-6.7-1.7c-2-0.1-3.4,1-5.9,1.4C91.4,108.1,89.9,107.8,88.5,107.2z"/>
					<path class="st29" d="M93,104.1l-3.1,7l-7.5-9.6C82.4,101.5,87.5,103.9,93,104.1z"/>
					<path d="M73.5,101.6c0.3,0.4-2.4-5.9-0.2-6.6c2.2-0.7,5.9-0.6,5.9-0.6s-4.9-1.6-7.3,0.1C69.6,96.2,70.4,98.1,73.5,101.6z"/>
					<g>
						<path class="st30" d="M132.5,108.6l33.5,22.1c0,0-4.8,10.6,4.2,14.7c12.2,5.5,21.7-0.2,21.7-0.2l1.1-6.5l-13.7-7.5l10.2-0.7
							l14.1,7.5c0,0,4.3-3.2,4.8-6.9c0.3-1.9,1.2-6.7,1.2-6.7l-26.7-2l-39.3-19l-11.1,0.1L132.5,108.6z"/>
						<g>
							<path d="M146.8,96.1l37.1,19.9c0,0,2.6-0.4,6.2-0.4c4.6,0,10.8,0.6,15.7,3.4c3,1.7,3.8,3.6,3.6,5.5l0,0c0,0-0.9,4.8-1.2,6.7
								c-0.5,3.6-4.8,6.9-4.8,6.9l-14.1-7.5l-8.4,0.6l0,0l12,7.5l-1.1,6.5c0,0-4.3,2.6-10.9,2.6c-3.2,0-6.8-0.6-10.8-2.4
								c-7.9-3.6-5.1-12.4-4.3-14.3c0-0.2,0-0.3,0-0.5l-33.3-22l0-5l3.1-2.2L146.8,96.1 M146.8,95.1c-0.1,0-0.3,0-0.4,0.1l-11.3,5.4
								c-0.1,0-0.1,0.1-0.1,0.1l-3.1,2.2c-0.3,0.2-0.4,0.5-0.4,0.8l0,5c0,0.3,0.2,0.6,0.4,0.8l32.8,21.7c-0.9,2.5-3.4,11.4,5,15.2
								c3.7,1.7,7.4,2.5,11.2,2.5c6.8,0,11.2-2.7,11.4-2.8c0.2-0.2,0.4-0.4,0.5-0.7l1.1-6.5c0.1-0.4-0.1-0.8-0.5-1l-9.4-6l5.1-0.4
								l13.9,7.3c0.1,0.1,0.3,0.1,0.5,0.1c0.2,0,0.4-0.1,0.6-0.2c0.2-0.1,4.7-3.5,5.2-7.5c0.3-1.9,1.1-6.6,1.1-6.6
								c0-0.1,0-0.3,0-0.4c0.1-1.8-0.6-4.2-4.2-6.2c-5.2-2.9-11.7-3.5-16.2-3.5c-2.9,0-5.2,0.2-6,0.4l-36.8-19.8
								C147.1,95.1,147,95.1,146.8,95.1L146.8,95.1z"/>
						</g>
						<path class="st31" d="M132.5,103.6l34.7,20.6c0,0-4.8,10.6,4.2,14.7c12.2,5.5,21.7-0.2,21.7-0.2l-12-7.5l-0.7-6.4l10.2-0.7
							l14.1,7.5c0,0,10.1-7.6,1.2-12.5c-8.9-4.9-21.9-3-21.9-3l-37.1-19.9l-11.3,5.4L132.5,103.6z"/>
					</g>
					<path class="st29" d="M134.2,102c0.4-0.2-9.8,21.6-10.1,21.5c-0.3-0.1-16.3-17.8-16.1-18S120.5,106.9,134.2,102z"/>
					<path class="st29" d="M148.5,95.6l4.6-9.3l7.3,8.8C160.3,95.1,154.4,97.3,148.5,95.6z"/>
					<path d="M163.5,98.4c0,0,3.3-1.2,2.4-3c-0.8-1.7-2.1-2.3-2.1-2.3S171.4,96,163.5,98.4z"/>
				</g>
				<path d="M161.8,95.1c0,0,1-0.9,0.3-2.7c-0.7-1.8,2.4-2.7,2.3-4.8s-4-5.9-4-5.9s2.6,4.3,2.3,5.4s-1.7,2.3-3.3,3.3
					c-0.8,0.6-0.8,2-0.8,2S160.6,94.2,161.8,95.1z"/>
			</g>
		</g>
		<path class="st27" d="M167.9,104c0,0-2.9,0.2-4.5,1.8c-1.6,1.6-2.4,5.5-2.4,5.5s6.8-3.8,8.7-3.8s1.9,0,1.9,0
			S171.3,104.3,167.9,104z"/>
		<path class="st27" d="M172.5,104.5c0,0-2.9-0.3-5.9,2.2c-1.8,1.5-3.4,7.7-3.4,7.7s8.3-5,10.2-5.1c1.9,0,1.9,0,1.9,0
			S175.9,104.8,172.5,104.5z"/>
		<path class="st27" d="M175.6,107c0,0-2.6-0.1-4.2,1.5c-1.6,1.6-2.4,5.1-2.4,5.1s5.2-2.4,7.1-2.4s1.8,0.9,1.8,0.9
			S179,107.3,175.6,107z"/>
	</g>
	<g>
		<path class="st10" d="M149.7,76c0.1-4.2-1.4-8.2-4.4-11.4c-3.1-3.1-6.7-4.8-11-4.9c-4.5-0.1-8.2,1.5-11.5,4.4
			c-3.2,3.1-4.7,6.9-4.8,11.2c-0.1,4.4,1.3,8.2,4.3,11.4c3.2,3.1,6.8,4.7,11.3,4.8c4.4,0.1,8.1-1.4,11.3-4.3
			C147.9,84.1,149.6,80.4,149.7,76z"/>
		<path class="st10" d="M102.1,66.3c-3.4-0.1-6.4,1-9,3.5c-2.5,2.4-3.8,5.4-3.9,8.8c-0.1,3.6,1,6.4,3.5,9c2.4,2.5,5.4,3.8,8.8,3.9
			c3.4,0.1,6.4-1,9-3.5c2.4-2.4,3.8-5.2,3.9-8.8c0.1-3.4-1.2-6.4-3.5-9C108.5,67.6,105.6,66.4,102.1,66.3z"/>
		<path class="st32" d="M145.5,64.4c-3.1-3.2-6.8-4.9-11.3-5.1c-4.6-0.1-8.4,1.5-11.7,4.5c-1.6,1.6-2.8,3.3-3.7,5.2s-1.2,4-1.3,6.2
			c-0.1,4.4,1.3,8.4,4.4,11.6c3.2,3.2,7,4.8,11.5,4.9c4.4,0.1,8.2-1.4,11.5-4.4c3.3-3.1,5-7,5.1-11.4
			C150.1,71.7,148.6,67.7,145.5,64.4"/>
		<path class="st33" d="M93.2,69.6c-2.5,2.4-3.8,5.4-3.9,8.8c-0.1,3.6,1,6.4,3.5,9c2.4,2.5,5.4,3.8,8.8,3.9c3.4,0.1,6.4-1,9-3.5
			c2.4-2.4,3.8-5.2,3.9-8.8c0.1-3.4-1.2-6.4-3.5-9c-2.4-2.5-5.4-3.8-8.8-3.9C98.7,66,95.8,67.1,93.2,69.6"/>
		<path d="M125.6,72.7c-1,0-1.9,0.3-2.5,0.9c-0.7,0.7-1.1,1.6-1.1,2.6c0,1,0.3,1.8,1,2.6c0.6,0.6,1.5,1,2.5,1c1.1,0,1.9-0.3,2.6-0.9
			c0.7-0.8,1.1-1.6,1.1-2.6c0-1-0.3-1.9-1-2.6C127.5,73.1,126.7,72.7,125.6,72.7z"/>
		<path d="M117.7,64.8c0,0-2.2-4.5,1.7-7.7c3.9-3.2,7.9-2.3,7.9-2.3s-3.8,0.2-6.9,2.9C117.3,60.4,117.7,64.8,117.7,64.8z"/>
		<path d="M146,89.9c-0.4,0.2,5.1-3.7,6.5-7.8c1.4-4.1,0.3-9.9,0.3-9.9s2.8,5.9,0.9,10.2S149.9,87.4,146,89.9z"/>
		<path d="M86.2,71.4c0.2-0.3-2.4,4.1-2.3,7.5c0.1,3.4,2.2,7.4,2.2,7.4s-3.3-3.6-3.1-7.2S84.3,74.3,86.2,71.4z"/>
		<path d="M107,74c-0.4,0.4-0.6,0.8-0.6,1.3c0,0.6,0.2,1,0.6,1.4c0.4,0.4,0.8,0.6,1.3,0.6c0.6,0,1-0.1,1.4-0.6
			c0.4-0.4,0.6-0.8,0.6-1.4c0-0.5-0.2-1-0.6-1.3c-0.4-0.4-0.8-0.6-1.4-0.6C107.9,73.4,107.4,73.6,107,74z"/>
	</g>
</g>
</svg>
