<svg width="170" height="60" viewBox="0 0 170 60" fill="none" xmlns="http://www.w3.org/2000/svg">
<g opacity="0.85" filter="url(#filter0_d)">
<rect x="5.5" y="3.5" width="159" height="49" rx="6.5" fill="black" stroke="#A9AAA9"/>
<path d="M60.6668 15.6933C60.6668 16.6889 60.418 17.56 59.7958 18.1822C59.0492 18.9289 58.178 19.3022 57.058 19.3022C55.938 19.3022 55.0668 18.9289 54.3202 18.1822C53.5736 17.4356 53.2002 16.5644 53.2002 15.4444C53.2002 14.3244 53.5736 13.4533 54.3202 12.7067C55.0668 11.96 55.938 11.5867 57.058 11.5867C57.5558 11.5867 58.0536 11.7111 58.5514 11.96C59.0492 12.2089 59.4224 12.4578 59.6714 12.8311L59.0492 13.4533C58.5514 12.8311 57.9292 12.5822 57.058 12.5822C56.3114 12.5822 55.5646 12.8311 55.0668 13.4533C54.4446 13.9511 54.1958 14.6978 54.1958 15.5689C54.1958 16.44 54.4446 17.1867 55.0668 17.6844C55.6892 18.1822 56.3114 18.5556 57.058 18.5556C57.9292 18.5556 58.5514 18.3067 59.1736 17.6844C59.5468 17.3111 59.7958 16.8133 59.7958 16.1911H57.058V15.32H60.6668C60.6668 15.32 60.6668 15.5689 60.6668 15.6933Z" fill="white" stroke="white" stroke-width="0.365268" stroke-miterlimit="10"/>
<path d="M66.3912 12.5822H63.0312V14.9467H66.1424V15.8178H63.0312V18.1822H66.3912V19.1778H62.0356V11.7111H66.3912V12.5822Z" fill="white" stroke="white" stroke-width="0.365268" stroke-miterlimit="10"/>
<path d="M70.4977 19.1778H69.5021V12.5822H67.3867V11.7111H72.6133V12.5822H70.4977V19.1778Z" fill="white" stroke="white" stroke-width="0.365268" stroke-miterlimit="10"/>
<path d="M76.2227 19.1778V11.7111H77.2183V19.1778H76.2227Z" fill="white" stroke="white" stroke-width="0.365268" stroke-miterlimit="10"/>
<path d="M81.449 19.1778H80.4534V12.5822H78.338V11.7111H83.4402V12.5822H81.3246V19.1778H81.449Z" fill="white" stroke="white" stroke-width="0.365268" stroke-miterlimit="10"/>
<path d="M93.2714 18.1822C92.5246 18.9289 91.6536 19.3022 90.5336 19.3022C89.4136 19.3022 88.5424 18.9289 87.7958 18.1822C87.0492 17.4356 86.6758 16.5644 86.6758 15.4444C86.6758 14.3244 87.0492 13.4533 87.7958 12.7067C88.5424 11.96 89.4136 11.5867 90.5336 11.5867C91.6536 11.5867 92.5246 11.96 93.2714 12.7067C94.018 13.4533 94.3914 14.3244 94.3914 15.4444C94.3914 16.5644 94.018 17.4356 93.2714 18.1822ZM88.5424 17.56C89.0402 18.0578 89.787 18.4311 90.5336 18.4311C91.2802 18.4311 92.027 18.1822 92.5246 17.56C93.0224 17.0622 93.3958 16.3156 93.3958 15.4444C93.3958 14.5733 93.147 13.8267 92.5246 13.3289C92.027 12.8311 91.2802 12.4578 90.5336 12.4578C89.787 12.4578 89.0402 12.7067 88.5424 13.3289C88.0446 13.8267 87.6714 14.5733 87.6714 15.4444C87.6714 16.3156 87.9202 17.0622 88.5424 17.56Z" fill="white" stroke="white" stroke-width="0.365268" stroke-miterlimit="10"/>
<path d="M95.7603 19.1778V11.7111H96.8802L100.489 17.56V16.0667V11.7111H101.485V19.1778H100.489L96.6315 13.08V14.5733V19.1778H95.7603Z" fill="white" stroke="white" stroke-width="0.365268" stroke-miterlimit="10"/>
<path d="M86.4265 30.1288C83.4399 30.1288 81.0755 32.3688 81.0755 35.48C81.0755 38.4666 83.4399 40.8312 86.4265 40.8312C89.4133 40.8312 91.7777 38.5912 91.7777 35.48C91.7777 32.2444 89.4133 30.1288 86.4265 30.1288ZM86.4265 38.5912C84.8089 38.5912 83.4399 37.2222 83.4399 35.3556C83.4399 33.4888 84.8089 32.12 86.4265 32.12C88.0443 32.12 89.4133 33.3644 89.4133 35.3556C89.4133 37.2222 88.0443 38.5912 86.4265 38.5912ZM74.8533 30.1288C71.8665 30.1288 69.5021 32.3688 69.5021 35.48C69.5021 38.4666 71.8665 40.8312 74.8533 40.8312C77.8399 40.8312 80.2043 38.5912 80.2043 35.48C80.2043 32.2444 77.8399 30.1288 74.8533 30.1288ZM74.8533 38.5912C73.2355 38.5912 71.8665 37.2222 71.8665 35.3556C71.8665 33.4888 73.2355 32.12 74.8533 32.12C76.4711 32.12 77.8399 33.3644 77.8399 35.3556C77.8399 37.2222 76.4711 38.5912 74.8533 38.5912ZM61.0399 31.7466V33.9866H66.3911C66.2665 35.2312 65.7689 36.2266 65.1465 36.8488C64.3999 37.5956 63.1555 38.4666 61.0399 38.4666C57.6799 38.4666 55.1911 35.8534 55.1911 32.4934C55.1911 29.1334 57.8043 26.52 61.0399 26.52C62.7821 26.52 64.1511 27.2666 65.1465 28.1378L66.7643 26.52C65.3955 25.2756 63.6533 24.28 61.1643 24.28C56.6843 24.28 52.8265 28.0134 52.8265 32.4934C52.8265 36.9734 56.6843 40.7066 61.1643 40.7066C63.6533 40.7066 65.3955 39.96 66.8889 38.3422C68.3821 36.8488 68.8799 34.7334 68.8799 33.1156C68.8799 32.6178 68.8799 32.12 68.7555 31.7466H61.0399ZM117.538 33.4888C117.04 32.2444 115.796 30.1288 113.058 30.1288C110.32 30.1288 108.08 32.2444 108.08 35.48C108.08 38.4666 110.32 40.8312 113.307 40.8312C115.671 40.8312 117.164 39.3378 117.662 38.4666L115.92 37.2222C115.298 38.0934 114.551 38.7156 113.307 38.7156C112.062 38.7156 111.316 38.2178 110.693 37.0978L117.787 34.1112L117.538 33.4888ZM110.32 35.2312C110.32 33.24 111.938 32.12 113.058 32.12C113.929 32.12 114.8 32.6178 115.049 33.24L110.32 35.2312ZM104.471 40.3334H106.836V24.7778H104.471V40.3334ZM100.738 31.2488C100.116 30.6266 99.1199 30.0044 97.8755 30.0044C95.2621 30.0044 92.7733 32.3688 92.7733 35.3556C92.7733 38.3422 95.1377 40.5822 97.8755 40.5822C99.1199 40.5822 100.116 39.96 100.613 39.3378H100.738V40.0844C100.738 42.0756 99.6177 43.1956 97.8755 43.1956C96.5065 43.1956 95.5111 42.2 95.2621 41.3288L93.2711 42.2C93.8933 43.5688 95.3865 45.3112 97.9999 45.3112C100.738 45.3112 102.978 43.6934 102.978 39.8356V30.3778H100.738V31.2488ZM97.9999 38.5912C96.3821 38.5912 95.0133 37.2222 95.0133 35.3556C95.0133 33.4888 96.3821 32.12 97.9999 32.12C99.6177 32.12 100.862 33.4888 100.862 35.3556C100.862 37.2222 99.6177 38.5912 97.9999 38.5912ZM128.364 24.7778H122.764V40.3334H125.129V34.4844H128.364C130.978 34.4844 133.467 32.6178 133.467 29.6312C133.467 26.6444 130.978 24.7778 128.364 24.7778ZM128.489 32.2444H125.129V26.8934H128.489C130.231 26.8934 131.227 28.3866 131.227 29.5066C131.102 30.8756 130.107 32.2444 128.489 32.2444ZM142.8 30.0044C141.058 30.0044 139.316 30.7512 138.693 32.3688L140.809 33.24C141.307 32.3688 142.053 32.12 142.924 32.12C144.169 32.12 145.289 32.8666 145.413 34.1112V34.2356C145.04 33.9866 144.044 33.6134 143.049 33.6134C140.809 33.6134 138.569 34.8578 138.569 37.0978C138.569 39.2134 140.436 40.5822 142.427 40.5822C144.044 40.5822 144.791 39.8356 145.413 39.0888H145.538V40.3334H147.778V34.36C147.529 31.6222 145.413 30.0044 142.8 30.0044ZM142.551 38.5912C141.804 38.5912 140.684 38.2178 140.684 37.2222C140.684 35.9778 142.053 35.6044 143.173 35.6044C144.169 35.6044 144.667 35.8534 145.289 36.1022C145.04 37.5956 143.796 38.5912 142.551 38.5912ZM155.618 30.3778L153.004 37.0978H152.88L150.142 30.3778H147.653L151.76 39.8356L149.396 45.0622H151.76L158.107 30.3778H155.618ZM134.711 40.3334H137.076V24.7778H134.711V40.3334Z" fill="white"/>
<path d="M14.6222 12.3333C14.2489 12.7067 14 13.3289 14 14.0755V41.5778C14 42.3244 14.2489 42.9466 14.6222 43.32L14.7467 43.4444L30.1778 28.0134V27.8888V27.7644L14.6222 12.3333Z" fill="url(#paint0_linear)"/>
<path d="M35.2801 33.24L30.1779 28.1378V27.8888V27.7644L35.2801 22.6622L35.4045 22.7867L41.5023 26.2712C43.2445 27.2666 43.2445 28.8844 41.5023 29.88L35.2801 33.24Z" fill="url(#paint1_linear)"/>
<path d="M35.4044 33.1156L30.1776 27.8888L14.6221 43.4444C15.2443 44.0666 16.1154 44.0666 17.2354 43.5688L35.4044 33.1156Z" fill="url(#paint2_linear)"/>
<path d="M35.4044 22.6622L17.2354 12.3333C16.1154 11.7111 15.2443 11.8356 14.6221 12.4578L30.1776 27.8888L35.4044 22.6622Z" fill="url(#paint3_linear)"/>
<path opacity="0.2" d="M35.2804 32.9912L17.2359 43.1956C16.2403 43.8178 15.3692 43.6934 14.747 43.1956L14.6226 43.32L14.747 43.4444C15.3692 43.9422 16.2403 44.0666 17.2359 43.4444L35.2804 32.9912Z" fill="black"/>
<path opacity="0.12" d="M14.6223 43.1956C14.249 42.8222 14.1245 42.2 14.1245 41.4534V41.5778C14.1245 42.3244 14.3734 42.9466 14.7467 43.32V43.1956H14.6223Z" fill="black"/>
<path opacity="0.12" d="M41.502 29.5066L35.2798 32.9912L35.4042 33.1156L41.502 29.6312C42.3732 29.1334 42.7464 28.5112 42.7464 27.8888C42.7464 28.5112 42.2486 29.0088 41.502 29.5066Z" fill="black"/>
<path opacity="0.25" d="M17.2371 12.4578L41.5038 26.2712C42.2504 26.7688 42.7482 27.2666 42.7482 27.8888C42.7482 27.2666 42.3748 26.6444 41.5038 26.1466L17.2371 12.3333C15.4949 11.3378 14.126 12.2089 14.126 14.2V14.3244C14.126 12.3333 15.4949 11.4622 17.2371 12.4578Z" fill="white"/>
</g>
<defs>
<filter id="filter0_d" x="0" y="0" width="170" height="60" filterUnits="userSpaceOnUse" color-interpolation-filters="sRGB">
<feFlood flood-opacity="0" result="BackgroundImageFix"/>
<feColorMatrix in="SourceAlpha" type="matrix" values="0 0 0 0 0 0 0 0 0 0 0 0 0 0 0 0 0 0 127 0"/>
<feOffset dy="2"/>
<feGaussianBlur stdDeviation="2.5"/>
<feColorMatrix type="matrix" values="0 0 0 0 0.145098 0 0 0 0 0.215686 0 0 0 0 0.345098 0 0 0 0.2 0"/>
<feBlend mode="normal" in2="BackgroundImageFix" result="effect1_dropShadow"/>
<feBlend mode="normal" in="SourceGraphic" in2="effect1_dropShadow" result="shape"/>
</filter>
<linearGradient id="paint0_linear" x1="28.8086" y1="13.8387" x2="7.92376" y2="34.7236" gradientUnits="userSpaceOnUse">
<stop stop-color="#00A0FF"/>
<stop offset="0.00657445" stop-color="#00A1FF"/>
<stop offset="0.2601" stop-color="#00BEFF"/>
<stop offset="0.5122" stop-color="#00D2FF"/>
<stop offset="0.7604" stop-color="#00DFFF"/>
<stop offset="1" stop-color="#00E3FF"/>
</linearGradient>
<linearGradient id="paint1_linear" x1="43.7851" y1="27.8906" x2="13.6734" y2="27.8906" gradientUnits="userSpaceOnUse">
<stop stop-color="#FFE000"/>
<stop offset="0.4087" stop-color="#FFBD00"/>
<stop offset="0.7754" stop-color="#FFA500"/>
<stop offset="1" stop-color="#FF9C00"/>
</linearGradient>
<linearGradient id="paint2_linear" x1="32.5756" y1="30.7462" x2="4.25422" y2="59.0676" gradientUnits="userSpaceOnUse">
<stop stop-color="#FF3A44"/>
<stop offset="1" stop-color="#C31162"/>
</linearGradient>
<linearGradient id="paint3_linear" x1="10.7609" y1="3.21927" x2="23.4078" y2="15.8659" gradientUnits="userSpaceOnUse">
<stop stop-color="#32A071"/>
<stop offset="0.0685" stop-color="#2DA771"/>
<stop offset="0.4762" stop-color="#15CF74"/>
<stop offset="0.8009" stop-color="#06E775"/>
<stop offset="1" stop-color="#00F076"/>
</linearGradient>
</defs>
</svg>
