<?xml version="1.0" encoding="utf-8"?>
<!-- Generator: Adobe Illustrator 20.1.0, SVG Export Plug-In . SVG Version: 6.00 Build 0)  -->
<svg version="1.1" id="Layer_1" xmlns="http://www.w3.org/2000/svg" xmlns:xlink="http://www.w3.org/1999/xlink" x="0px" y="0px"
	 viewBox="0 0 230 280" style="enable-background:new 0 0 230 280;" xml:space="preserve">
<style type="text/css">
	.st0{opacity:0.2;}
	.st1{fill:#2F2F2F;stroke:#000000;stroke-width:4.6374;stroke-linejoin:round;stroke-miterlimit:10;}
	.st2{fill:#57B847;stroke:#000000;stroke-width:4.6374;stroke-linejoin:round;stroke-miterlimit:10;}
	.st3{opacity:0.67;fill:#494949;stroke:#000000;stroke-width:4.6374;stroke-linejoin:round;stroke-miterlimit:10;}
	.st4{stroke:#000000;stroke-width:4.6374;stroke-linejoin:round;stroke-miterlimit:10;}
	.st5{fill:#2C5328;stroke:#000000;stroke-width:4.6374;stroke-linejoin:round;stroke-miterlimit:10;}
	.st6{fill:#40873F;stroke:#000000;stroke-width:4.6374;stroke-linejoin:round;stroke-miterlimit:10;}
	.st7{fill:#86C564;stroke:#000000;stroke-width:4.6374;stroke-linejoin:round;stroke-miterlimit:10;}
	.st8{stroke:#000000;stroke-width:4.6374;stroke-linecap:round;stroke-linejoin:round;stroke-miterlimit:10;}
	.st9{fill:#FFFFFF;stroke:#000000;stroke-width:4.6374;stroke-linecap:round;stroke-linejoin:round;stroke-miterlimit:10;}
	.st10{fill:#30A449;stroke:#000000;stroke-width:4.6374;stroke-linejoin:round;stroke-miterlimit:10;}
	.st11{fill:#E6E6E6;stroke:#000000;stroke-width:4.6374;stroke-linecap:round;stroke-linejoin:round;stroke-miterlimit:10;}
	.st12{fill:none;stroke:#000000;stroke-width:4.6374;stroke-linecap:round;stroke-linejoin:round;stroke-miterlimit:10;}
	.st13{fill:#8CC63F;stroke:#000000;stroke-width:4.6374;stroke-linecap:round;stroke-linejoin:round;stroke-miterlimit:10;}
	.st14{fill:#86C564;stroke:#000000;stroke-width:4.6374;stroke-linecap:round;stroke-linejoin:round;stroke-miterlimit:10;}
	.st15{fill:#283D69;stroke:#000000;stroke-width:4.6374;stroke-linejoin:round;stroke-miterlimit:10;}
	.st16{fill:#1B2B4D;stroke:#000000;stroke-width:4.6374;stroke-linejoin:round;stroke-miterlimit:10;}
	.st17{stroke:#000000;stroke-width:5;stroke-linejoin:round;stroke-miterlimit:10;}
	.st18{fill:#FFD803;stroke:#000000;stroke-width:4.6374;stroke-linejoin:round;stroke-miterlimit:10;}
	.st19{fill:#F7AC0C;stroke:#000000;stroke-width:4.6374;stroke-linejoin:round;stroke-miterlimit:10;}
	.st20{opacity:0.5;fill:#3C3C3C;stroke:#000000;stroke-width:4.6374;stroke-linejoin:round;stroke-miterlimit:10;}
	.st21{fill:#2F2F2F;stroke:#000000;stroke-width:5;stroke-linejoin:round;stroke-miterlimit:10;}
	.st22{fill:#B38D5E;stroke:#000000;stroke-width:4.6374;stroke-linejoin:round;stroke-miterlimit:10;}
	.st23{fill:#F17BEB;stroke:#000000;stroke-width:4.6374;stroke-linejoin:round;stroke-miterlimit:10;}
	.st24{fill:#F8BEE9;stroke:#000000;stroke-width:4.6374;stroke-linejoin:round;stroke-miterlimit:10;}
	.st25{opacity:0.19;fill:#5E3935;stroke:#000000;stroke-width:4.6374;stroke-linejoin:round;stroke-miterlimit:10;}
	.st26{opacity:0.48;fill:#5E3935;stroke:#000000;stroke-width:4.6374;stroke-linejoin:round;stroke-miterlimit:10;}
	.st27{opacity:0.26;fill:#5E3935;stroke:#000000;stroke-width:4.6374;stroke-linejoin:round;stroke-miterlimit:10;}
	.st28{fill:#2F2F2F;}
	.st29{fill:#57B847;}
	.st30{opacity:0.67;}
	.st31{opacity:0.67;fill:#494949;}
	.st32{fill:#2C5328;}
	.st33{fill:#40873F;}
	.st34{fill:#86C564;}
	.st35{fill:#FFFFFF;}
	.st36{fill:#30A449;}
	.st37{fill:#E6E6E6;}
	.st38{fill:none;stroke:#000000;stroke-width:0.7045;stroke-linecap:round;stroke-linejoin:round;stroke-miterlimit:10;}
	.st39{fill:#8CC63F;stroke:#000000;stroke-width:0.7045;stroke-linecap:round;stroke-linejoin:round;stroke-miterlimit:10;}
	.st40{fill:#86C564;stroke:#000000;stroke-width:0.7045;stroke-linecap:round;stroke-linejoin:round;stroke-miterlimit:10;}
	.st41{fill:#283D69;}
	.st42{fill:#1B2B4D;}
	.st43{fill:#FFD803;}
	.st44{fill:#F7AC0C;}
	.st45{opacity:0.5;fill:#3C3C3C;}
	.st46{fill:#B38D5E;}
	.st47{fill:#F17BEB;}
	.st48{fill:#F8BEE9;}
	.st49{opacity:0.19;fill:#5E3935;}
	.st50{opacity:0.48;fill:#5E3935;}
	.st51{opacity:0.26;fill:#5E3935;}
</style>
<path class="st0" d="M173.3,240.1c8.8-1.7,13.3-3.8,13.3-6.2c0-2.6-5.8-5-17.6-7c-0.9-0.1-1.7-0.2-2.6-0.3c-4-0.6-8.2-1.1-12.6-1.5
	c-4.7-0.3-9.5-0.7-14.6-0.8c-4.1-0.2-8.3-0.2-12.8-0.2c-4.3,0-8.4,0-12.3,0.2c-4.2,0.1-8.2,0.3-12,0.6c-6.7,0.4-12.8,1.2-18.3,2
	c-11.8,2-17.7,4.4-17.7,7c0,2.7,5.9,5,17.7,7c11.7,1.9,26,2.8,42.6,2.8c16.7,0,30.9-0.9,42.6-2.8
	C170.5,240.6,171.9,240.4,173.3,240.1z"/>
<g>
	<g>
		<path class="st1" d="M74.2,188.8l-8.9,4.3l-0.1,0.3c-0.1,0.2-1.7,4.1,1.6,8.2c3.2,4,7.2,4.7,7.3,4.8l1,0.2L74.2,188.8z
			 M68.1,200.7c-2.3-2.9-1.7-5.6-1.5-6.4l6.2-3l0.7,13.4C72.2,204.1,70,203.1,68.1,200.7z"/>
		<path class="st2" d="M65.9,193.7c0,0-1.6,3.6,1.5,7.5c3.1,3.8,6.9,4.5,6.9,4.5L73.5,190L65.9,193.7"/>
		<path class="st3" d="M191.3,70.7c-5-12.2-40.9-26-63.5-29.3c-23-3.3-51.4-1.9-67.5,12.7C40.7,70.4,41.5,77.3,45.7,82
			c1.3,1.6,3.1,2.9,4.7,4.3c3.7,3.3,8,8,10.9,11.3l3.5,6.7c-1.9,1.5-8.6,7.5-8.2,12.1c0.2,1.7,1.2,3,3,3.9c0.3,0.2,0.6,0.2,0.9,0.2
			c0.6,0,1.1-0.3,2-0.7c3.3-1.7,13.5-6.7,54.1-11.9c2.1-0.3,4.6-0.4,7.4-0.4c10.1,0,23.3,1.7,33.9,3.3c10.3,2,17.5,3.6,17.5,3.6
			s0.5,0.2,0.9-0.3l0.5,0.1l3.4-17l-0.2-0.1c2.5-5.1,6.4-11.3,11.1-21.6C192.1,74,192,72.3,191.3,70.7z"/>
		<path class="st4" d="M59.9,120.5c0,0,7.6,3.3,18.7,0.5s10.4-18,10.4-18L59.9,120.5z"/>
		<g>
			<path class="st2" d="M125.7,105.7c-0.7,0-1.2,0-1.8-0.1c-1.4,1.3-2.8,2.4-4.3,3.5c-5.9,4.7-12.1,8.1-18.5,10.1
				c2.8-3,4.7-6.1,5.5-9.1c-4.1,2.7-8,4.5-11.7,5.4c-1.5,0.4-2.9,0.6-4.4,0.7c1.8-2,3.1-3.9,3.8-6.1c0.4-1.1,0.6-2.3,0.7-3.5
				c-1.4,0.1-2.7,0.2-4,0.5c-1,1.2-2.1,2.4-3.1,3.7c-5.7,5.9-12.4,10.1-20,12.7c-0.2,1.4-0.5,2.6-0.6,4c2.6-1.6,6.7-3.9,11.9-7.1
				c5.1-3.1,8.5-5.8,10.1-8.1c-0.3,0.5-0.8,1.9-1.7,3.9c-0.8,2-1.9,3.2-3.2,3.7v0.3c0.4,0,0.8,0.1,1.4,0.2c0.7,0.1,1,0.1,1.3,0.1
				c1.2,0,3.1-0.4,5.7-1.1c0.3-0.1,0.9-0.4,2.2-0.8c0.8-0.4,2-0.7,3.3-1.1h0.2c0,0.1,0,0.1,0,0.1c-0.8,1.4-1.4,2.4-1.9,3.3
				c-0.5,0.8-1,1.4-1.6,2c-0.5,0.6-1,0.9-1.6,1.3l0.1,0.3c0.6-0.1,1-0.2,1.5-0.3c5.8-1,11.6-2.9,17.3-5.7c3.6-1.8,7-3.8,10.3-6.1
				c3.1,3.2,7.9,6.2,14.4,8.9c5.6,2.3,10.8,3.9,15.3,4.4c0,1.2,0.1,2.6,0.2,4.2c0.2,2.3,0.2,3.6,0.2,4.1c0,6.1-0.8,13.2-2.3,21.4
				c-0.9,5.6-2.3,10.1-3.7,13.5c2.2-0.4,4.2-0.7,6.4-1.1c1.5-3.5,2.5-8.5,3.2-14.9c0.8-7.3,1.1-16.7,0.9-27.9
				c-0.1-0.7-0.1-1.2-0.1-1.8c-13.4-2.3-23.1-7-28.7-13.6c-0.4-0.4-0.6-0.8-0.9-1C126.8,107.5,126.3,106.6,125.7,105.7z"/>
			<path class="st5" d="M127.4,108.3c0.4,0.3,0.6,0.7,0.9,1c12.2,0.5,23.1,1.7,32.8,3.8c3.9,0.8,9.3,2.1,15.8,3.8
				c0.3,0,0.7,0.1,1,0.2c-0.4-0.8-0.8-1.6-1-2.3c-0.2-0.3-0.2-0.6-0.4-0.8c-15.6-4.3-31.2-6.9-46.7-7.9c-1.4-0.2-2.8-0.2-4.1-0.3
				C126.3,106.6,126.8,107.5,127.4,108.3z"/>
			<path class="st5" d="M117.1,109.1c0.8,0,1.7,0,2.4,0c1.5-1,2.9-2.2,4.3-3.5c-9.7-0.3-19.3,0-29,0.9l0,0c-0.1,1.1-0.3,2.3-0.7,3.5
				c0.3-0.1,0.4-0.1,0.7-0.1C101.6,109.4,109.1,109.1,117.1,109.1z"/>
			<path class="st6" d="M119.6,109.1c-0.8,0-1.6,0-2.4,0c-8.1,0-15.5,0.3-22.3,0.8c-0.3,0-0.4,0-0.7,0.1c-0.7,2.2-2,4.1-3.8,6.1
				c1.5-0.1,2.9-0.3,4.4-0.7c3.8-0.8,7.6-2.6,11.7-5.4c-0.8,3-2.7,6.1-5.5,9.1C107.5,117.2,113.7,113.8,119.6,109.1z"/>
			<path class="st7" d="M136.9,121c-6.5-2.7-11.3-5.7-14.4-8.9c-3.3,2.3-6.8,4.3-10.3,6.1c-5.6,2.8-11.5,4.7-17.3,5.7
				c-0.5,0.1-0.9,0.2-1.5,0.3l-0.1-0.3c0.6-0.4,1.1-0.8,1.6-1.3c0.6-0.6,1.1-1.2,1.6-2c0.5-0.8,1.1-1.9,1.9-3.3l-0.2-0.1
				c-1.3,0.5-2.4,0.8-3.3,1.1c-1.2,0.4-1.9,0.7-2.2,0.8c-2.6,0.8-4.5,1.1-5.7,1.1c-0.3,0-0.7,0-1.3-0.1c-0.6-0.1-1-0.2-1.4-0.2v-0.3
				c1.3-0.5,2.3-1.7,3.2-3.7c0.8-2,1.4-3.4,1.7-3.9c-1.6,2.3-5,5-10.1,8.1c-5.3,3.2-9.3,5.5-11.9,7.1c-1.5,9.4-2.3,19.5-2.3,30.2
				c-0.1,2.4,0.9,4,3.1,5c1.1,0.4,2.2,0.8,3.4,1.3c0,0,0.1,0,0.2,0c7.4,2.6,15.2,4.5,23.3,5.7c1.3,0.2,2.5,0.4,3.9,0.5
				c0.8,0.1,1.4,0.2,2.3,0.3c1.5,0.1,3.2,0.3,4.8,0.4c5.3,0.5,10.8,0.5,16.4,0.4c3.3-0.1,6.7-0.3,10.1-0.7c2.2-0.2,4.4-0.4,6.6-0.7
				c2.5-0.3,5.2-0.7,7.7-1c1.4-3.5,2.7-7.9,3.7-13.5c1.5-8.3,2.3-15.3,2.3-21.4c0-0.6,0-1.9-0.2-4.1c-0.1-1.6-0.2-3-0.2-4.2
				C147.7,124.9,142.5,123.4,136.9,121z M124.6,122.1c1-1.4,2.4-2,4-2c1.6,0,2.9,0.6,3.9,2c1.2,1.4,1.8,3.1,1.8,5
				c0,2-0.6,3.6-1.8,4.9c-1,1.4-2.3,2.1-3.9,2.1c-1.6,0-3-0.7-4-2.1c-1.1-1.3-1.8-2.9-1.8-4.9C122.8,125.2,123.4,123.6,124.6,122.1z
				 M77.1,127.2c0.9-1.1,2.1-1.7,3.4-1.7s2.5,0.6,3.5,1.7c0.9,1.1,1.4,2.5,1.4,4.2c0,1.6-0.5,3-1.4,4.1c-0.9,1.1-2.2,1.7-3.5,1.7
				c-1.3,0-2.4-0.6-3.4-1.7c-0.9-1.1-1.4-2.5-1.4-4.1C75.7,129.7,76.2,128.3,77.1,127.2z M102.4,156.6c-2.7,0-5.3-0.7-7.5-1.9
				c-0.9-0.6-1.9-1.2-2.7-2.1c-2.3-2-3.7-4.3-4.1-7l28.6-4.6c0.2,0.8,0.3,1.4,0.3,2.2c0,3.3-1.2,6.2-3.7,8.7
				c-0.2,0.2-0.5,0.4-0.7,0.7c-2.3,2.1-4.9,3.4-7.8,3.8C104,156.5,103.2,156.6,102.4,156.6z M76.7,143.2c0.4,0,0.6,0.2,0.7,0.5
				c0.1,0.2-0.1,0.5-0.3,0.8c-0.3,0.3-0.6,0.5-1,0.6c-0.4,0.1-0.8,0.1-1.2,0.1c-0.4-0.2-0.6-0.4-0.6-0.7c-0.1-0.2,0-0.5,0.3-0.7
				c0.3-0.3,0.7-0.5,1-0.6C76,143,76.3,143,76.7,143.2z M79.7,149.6c0.4-0.2,0.8-0.2,1.2,0c0.3,0.1,0.5,0.2,0.6,0.5
				c0.1,0.3,0,0.6-0.3,0.8c-0.3,0.3-0.7,0.5-1,0.6c-0.4,0.1-0.8,0.1-1.1,0c-0.4-0.1-0.6-0.2-0.7-0.5c-0.1-0.2,0-0.6,0.3-0.8
				C78.9,149.8,79.3,149.8,79.7,149.6z M71.6,152.4c-0.3-0.1-0.6-0.3-0.6-0.6c-0.1-0.2,0-0.5,0.3-0.7c0.2-0.3,0.7-0.5,1-0.7
				c0.5-0.1,0.8-0.1,1.1,0c0.4,0.2,0.7,0.3,0.7,0.6c0.1,0.2,0,0.6-0.3,0.8c-0.3,0.3-0.6,0.5-1,0.6C72.4,152.6,72,152.6,71.6,152.4z
				 M136.8,142.5c0-0.3,0-0.5,0.4-0.8c0.2-0.3,0.6-0.5,1-0.6c0.4-0.1,0.8-0.1,1.1,0c0.3,0.1,0.6,0.3,0.7,0.6c0.1,0.2,0,0.5-0.4,0.7
				c-0.2,0.3-0.6,0.5-0.9,0.6c-0.5,0.2-0.9,0.2-1.2,0.1C137.2,142.9,136.9,142.7,136.8,142.5z M130.3,142.3c-0.2,0.4-0.6,0.5-1,0.6
				c-0.4,0.2-0.8,0.2-1.1,0.1c-0.4-0.1-0.6-0.3-0.7-0.6c-0.1-0.2,0-0.5,0.4-0.7c0.2-0.4,0.6-0.5,0.9-0.7c0.5-0.1,0.8-0.1,1.2,0
				c0.3,0.2,0.6,0.3,0.7,0.5C130.7,141.9,130.7,142.2,130.3,142.3z M132.4,150.9c-0.4-0.1-0.7-0.2-0.8-0.5c0-0.2,0.1-0.6,0.4-0.8
				c0.2-0.3,0.6-0.4,1-0.6c0.5-0.2,0.8-0.2,1.2,0c0.3,0.1,0.6,0.2,0.6,0.5c0.1,0.3,0,0.6-0.3,0.8c-0.3,0.3-0.6,0.5-1,0.6
				S132.6,151.1,132.4,150.9z"/>
			<path class="st8" d="M128.6,120.2c-1.6,0-3,0.6-4,2c-1.1,1.4-1.8,3.1-1.8,5c0,2,0.7,3.6,1.8,4.9c1,1.4,2.4,2.1,4,2.1
				s2.9-0.7,3.9-2.1c1.2-1.3,1.8-2.9,1.8-4.9c0-1.9-0.6-3.6-1.8-5C131.5,120.7,130.2,120.2,128.6,120.2z"/>
			<path class="st8" d="M80.5,125.5c-1.3,0-2.4,0.6-3.4,1.7c-0.9,1.1-1.4,2.5-1.4,4.2c0,1.6,0.5,3,1.4,4.1c0.9,1.1,2.1,1.7,3.4,1.7
				c1.3,0,2.5-0.6,3.5-1.7c0.9-1.1,1.4-2.5,1.4-4.1c0-1.7-0.5-3.1-1.4-4.2C83,126.1,81.8,125.5,80.5,125.5z"/>
			<path class="st9" d="M94.9,154.7c2.3,1.2,4.8,1.9,7.5,1.9c0.8,0,1.6-0.1,2.4-0.2c2.9-0.4,5.5-1.7,7.8-3.8
				c0.2-0.3,0.5-0.5,0.7-0.7c2.4-2.5,3.7-5.4,3.7-8.7c0-0.8-0.1-1.4-0.3-2.2L88,145.7c0.5,2.6,1.9,5,4.1,7
				C93,153.5,93.9,154.2,94.9,154.7z"/>
			<path class="st10" d="M77.3,143.7c-0.1-0.3-0.3-0.5-0.7-0.5c-0.4-0.2-0.7-0.2-1.1,0c-0.4,0.1-0.8,0.3-1,0.6
				c-0.3,0.2-0.4,0.5-0.3,0.7c0,0.3,0.2,0.5,0.6,0.7c0.4,0,0.8,0,1.2-0.1c0.5-0.1,0.8-0.3,1-0.6C77.2,144.1,77.4,143.8,77.3,143.7z"
				/>
			<path class="st10" d="M80.9,149.6c-0.4-0.2-0.8-0.2-1.2,0c-0.4,0.2-0.8,0.3-1,0.6c-0.3,0.2-0.4,0.6-0.3,0.8
				c0.1,0.3,0.3,0.4,0.7,0.5c0.3,0.1,0.8,0.1,1.1,0c0.4-0.1,0.8-0.3,1-0.6c0.3-0.2,0.4-0.5,0.3-0.8
				C81.4,149.8,81.2,149.7,80.9,149.6z"/>
			<path class="st10" d="M71,151.8c0,0.3,0.3,0.5,0.6,0.6c0.4,0.2,0.8,0.2,1.2,0c0.5-0.1,0.8-0.3,1-0.6c0.3-0.2,0.4-0.6,0.3-0.8
				c0-0.3-0.3-0.4-0.7-0.6c-0.3-0.1-0.7-0.1-1.1,0c-0.4,0.2-0.8,0.4-1,0.7C71,151.4,70.9,151.6,71,151.8z"/>
			<path class="st10" d="M137.2,141.8c-0.4,0.3-0.4,0.5-0.4,0.8c0.1,0.2,0.4,0.4,0.7,0.6c0.3,0.1,0.8,0.1,1.2-0.1
				c0.4-0.1,0.8-0.3,0.9-0.6c0.4-0.2,0.5-0.5,0.4-0.7c-0.1-0.3-0.4-0.5-0.7-0.6c-0.3-0.1-0.8-0.1-1.1,0
				C137.7,141.3,137.3,141.5,137.2,141.8z"/>
			<path class="st10" d="M129.3,142.9c0.5-0.1,0.8-0.2,1-0.6c0.4-0.2,0.4-0.5,0.4-0.8c-0.1-0.2-0.4-0.3-0.7-0.5
				c-0.4-0.1-0.8-0.1-1.2,0c-0.4,0.2-0.8,0.3-0.9,0.7c-0.4,0.2-0.5,0.5-0.4,0.7c0.1,0.3,0.3,0.5,0.7,0.6
				C128.4,143.1,128.9,143.1,129.3,142.9z"/>
			<path class="st10" d="M131.6,150.4c0.1,0.3,0.4,0.4,0.8,0.5c0.3,0.2,0.7,0.1,1.1,0c0.5-0.1,0.8-0.3,1-0.6
				c0.3-0.2,0.4-0.5,0.3-0.8c0-0.3-0.3-0.4-0.6-0.5c-0.4-0.2-0.8-0.2-1.2,0c-0.5,0.2-0.8,0.3-1,0.6
				C131.7,149.9,131.6,150.2,131.6,150.4z"/>
			<path class="st6" d="M177.9,117.1c-0.4-0.1-0.8-0.2-1-0.2c-6.5-1.7-11.8-2.9-15.8-3.8c-9.7-2.1-20.6-3.3-32.8-3.8
				c5.6,6.7,15.3,11.3,28.7,13.6c0,0.6,0,1.1,0.1,1.8c0.7,1.2,1.6,3,2.7,5.3c1.3,3.1,2.2,6.7,2.3,10.7c0.1,0.6,0.1,4.5,0.3,12
				c0,3.8,0.3,6.5,0.7,8.3c0.7,2.2,1.9,3.8,3.6,4.7c1.8,0.9,4.5,1.4,8.2,1.4c0.7,0,1.4,0,2.1,0c2.5-0.2,5.4-0.7,8.4-1.4
				C187.8,151.2,185.2,134.9,177.9,117.1z"/>
			<path class="st6" d="M69.7,113.9c-0.7,3.1-1.4,6.3-2,9.5c7.6-2.5,14.3-6.8,20-12.7C80.9,111.4,74.9,112.6,69.7,113.9z"/>
			<path class="st5" d="M70.6,110.3c-0.2,0.8-0.4,1.5-0.6,2.3c-0.1,0.5-0.3,0.8-0.3,1.2c5.2-1.3,11.2-2.4,18-3.2
				c1-1.2,2.1-2.4,3.1-3.7C84.2,107.7,77.4,108.8,70.6,110.3z"/>
			<path class="st9" d="M80,84.5L80,84.5L80,84.5L80,84.5z"/>
			<path class="st9" d="M98.4,117.4C98.4,117.4,98.4,117.4,98.4,117.4l-0.2-0.1L98.4,117.4z"/>
			<path class="st5" d="M98.7,170c-1.3-0.1-2.5-0.3-3.9-0.5c-8.1-1.2-15.9-3.1-23.3-5.7c-0.1,0-0.2,0-0.2,0
				c-0.5,1.3-1.2,3.1-2.3,5.2c-0.9,2.1-2.3,3.8-4.3,5c10.9,3.9,21,3.5,30.1-1.4C96.2,171.8,97.4,171,98.7,170z"/>
			<path class="st9" d="M68.2,211.1L68.2,211.1l0.1-0.4L68.2,211.1z"/>
			<path class="st2" d="M101,170.3c-1.8,2.8-3.8,5.4-6.1,7.9c-0.7,0.7-1.3,1.4-2.1,2.1c0.7-0.4,1.3-0.7,2.1-0.9
				c3.3-1.3,7.1-2.3,11.6-3.3c7.3-1.4,14.8-2.2,22.5-2.2c3.9,0,6.2,0,7.1,0.1c0.6,0,1,0,1.5,0.1c-1.8-1.3-3.5-2.4-5.4-3.7
				c-3.5,0.4-6.9,0.6-10.1,0.7c-5.6,0.1-11.2,0.1-16.4-0.4C104.2,170.6,102.5,170.4,101,170.3z"/>
			<path class="st7" d="M94.9,185.9c0,0.2-0.1,0.5-0.3,0.7c0,0.3-0.1,0.5-0.2,0.8c-0.1,1.2-0.4,4-0.8,8.2c-0.4,3.6-0.6,6.7-0.6,9.4
				c0,1.5,0.4,3.9,1.1,7.1c0.3,0.9,0.5,1.9,0.8,2.6c0.5,1.5,0.8,2.5,1,3.1c1.4,2.7,2.3,4.9,3.2,6.4c1.8,3.9,2.6,6.1,2.6,6.6
				s-0.3,1.3-1,2.5h5.6c1.3-5.2,2.5-8.9,3.7-11.3c2.1-4.6,5.5-7,10.3-7c3.1,0,5.6,1.2,7.5,3.5c0.9,1,2.3,3.6,4.2,7.6
				c1.7,3.6,3.4,6.2,5.2,7.7c0.5,0.5,0.9,0.8,1.4,1.2h12.2l-3.8-2.4l-15.6-47.7l0.4,0.4c2.8,0,5.2,0.7,7.1,2
				c1.4,0.8,2.9,2.4,4.8,4.6c2.2,2.4,3.7,4.1,4.7,4.9c0.9,0.8,2,1.5,3.1,2.1c3.8-0.4,6.7-0.8,8.6-1.4l-7.5-1.6l7.5,1.6
				c1.4-0.5,2.4-1.1,2.8-1.7l-7.6-2.9l7.6,2.9c0.4-0.6,0.4-1.1,0-1.8c-0.5-0.9-1.9-1.9-3.9-2.7c-2.2-0.8-4.4-1.4-6.9-1.6
				c-2.8-4.8-6.8-9.3-11.7-13.2c-0.9-0.8-1.9-1.6-2.8-2.3c-0.5-0.1-0.9-0.1-1.5-0.1c-0.9-0.1-3.3-0.1-7.1-0.1
				c-7.7,0-15.2,0.8-22.5,2.2c-4.5,0.9-8.4,2-11.6,3.3c-0.8,0.3-1.4,0.6-2.1,0.9c-3.5,3.3-7.7,6.2-12.4,8.7l0,0
				c0.2,0.3,0.5,0.7,0.6,1.1l0.1-0.1c0.8,1.1,1.8,2.3,3.1,3.2c2.3,2.2,4.8,3.2,7.3,3.2c0.1,0,0.3,0,0.6,0l0,0c0.6-3,1.3-6,2.3-9.1
				c0.1-0.3,0.2-0.5,0.2-0.8C94.8,186.4,94.9,186.1,94.9,185.9z"/>
			<path class="st9" d="M81,190.1L81,190.1L81,190.1L81,190.1z"/>
			<path class="st2" d="M81.1,190.1L81.1,190.1c1,2.4,1.2,5.4,0.4,8.8c-0.1,0.9-0.4,1.7-0.7,2.4c3.9-0.4,7.5-2,10.9-4.6l-0.2-0.3
				c-2.5,0-5-1-7.3-3.2C82.9,192.3,81.8,191.2,81.1,190.1z"/>
			<path class="st9" d="M92.1,196.5C92.1,196.4,92.1,196.4,92.1,196.5L92.1,196.5L92.1,196.5z"/>
			<path class="st2" d="M92.1,196.4C92.1,196.4,92.1,196.4,92.1,196.4c-1.8,9.8-0.8,18.8,2.8,27.1c1,2.3,2.3,4.7,3.8,7l-4.6,2.8h6.7
				c0.8-1.2,1-2.1,1-2.5s-0.8-2.6-2.6-6.6c-0.8-1.5-1.8-3.7-3.2-6.4c-0.3-0.6-0.6-1.6-1-3.1c-0.3-0.8-0.5-1.7-0.8-2.6
				c-0.8-3.3-1.1-5.6-1.1-7.1c0-2.7,0.2-5.8,0.6-9.4c0.5-4.1,0.8-7,0.8-8.2C93.4,190.4,92.6,193.4,92.1,196.4z"/>
			<path class="st11" d="M92.1,196.5L92.1,196.5c-0.3-0.1-0.5-0.1-0.6-0.1l0.2,0.3C91.8,196.6,91.9,196.5,92.1,196.5z"/>
			<path class="st5" d="M159.9,130c-1.1-2.3-2.1-4-2.7-5.3c0.2,11.2-0.2,20.6-0.9,27.9c-0.7,6.5-1.7,11.5-3.2,14.9
				c-1.3,3.1-2.9,5.1-4.8,5.9c10.1,0.3,19.6-0.8,28.6-3.3c1.2-0.4,2.3-0.8,3.6-1.1c1.4-0.6,2.9-1,4.4-1.6c0.2-0.6,0.3-1.2,0.4-1.8
				c-3,0.8-5.8,1.2-8.4,1.4c-0.7,0-1.4,0-2.1,0c-3.7,0-6.4-0.5-8.2-1.4c-1.7-0.9-2.9-2.5-3.6-4.7c-0.4-1.8-0.7-4.5-0.7-8.3
				c-0.2-7.5-0.2-11.5-0.3-12C162,136.7,161.2,133.1,159.9,130z"/>
			<path class="st2" d="M143.8,191.8c-1.9-2.2-3.4-3.8-4.8-4.6c-2-1.3-4.3-2-7.1-2l12.9,11.5c-0.8,7.2,1,7.9,5.6,2.2
				c0.5-0.1,0.8-0.1,1.2-0.1c-1.1-0.6-2.2-1.2-3.1-2.1C147.5,196,146,194.3,143.8,191.8z"/>
			<path class="st2" d="M125.6,225.4c2.8,4.6,5.2,7.8,7,9.7h6c-0.5-0.4-0.9-0.8-1.4-1.2c-1.8-1.5-3.5-4.1-5.2-7.7
				c-2-4-3.3-6.6-4.2-7.6c-1.9-2.3-4.4-3.5-7.5-3.5c-4.8,0-8.3,2.3-10.3,7c-1.1,2.3-2.3,6.1-3.7,11.3h2l3.5-9.1
				c1.3-3.6,3.3-5.4,5.8-5.5S122.8,220.8,125.6,225.4z"/>
			<path class="st12" d="M125.7,105.7c-0.7,0-1.2,0-1.8-0.1"/>
			<path class="st12" d="M153,167.6c1.5-3.5,2.5-8.5,3.2-14.9c0.8-7.3,1.1-16.7,0.9-27.9c-0.1-0.7-0.1-1.2-0.1-1.8
				c-13.4-2.3-23.1-7-28.7-13.6c-0.4-0.4-0.6-0.8-0.9-1c-0.6-0.8-1.1-1.7-1.7-2.6"/>
			<path class="st12" d="M124.6,122.1c-1.1,1.4-1.8,3.1-1.8,5c0,2,0.7,3.6,1.8,4.9c1,1.4,2.4,2.1,4,2.1s2.9-0.7,3.9-2.1
				c1.2-1.3,1.8-2.9,1.8-4.9c0-1.9-0.6-3.6-1.8-5c-1-1.4-2.3-2-3.9-2S125.6,120.7,124.6,122.1"/>
			<path class="st12" d="M123.9,105.6c-1.4,1.3-2.8,2.4-4.3,3.5c-5.9,4.7-12.1,8.1-18.5,10.1c2.8-3,4.7-6.1,5.5-9.1
				c-4.1,2.7-8,4.5-11.7,5.4c-1.5,0.4-2.9,0.6-4.4,0.7c1.8-2,3.1-3.9,3.8-6.1c0.4-1.1,0.6-2.3,0.7-3.5"/>
			<path class="st12" d="M176.5,113.9c-15.6-4.3-31.2-6.9-46.7-7.9c-1.4-0.2-2.8-0.2-4.1-0.3"/>
			<path class="st12" d="M153,167.6c-1.3,3.1-2.9,5.1-4.8,5.9c10.1,0.3,19.6-0.8,28.6-3.3c1.2-0.4,2.3-0.8,3.6-1.1
				c1.4-0.6,2.9-1,4.4-1.6c0.2-0.6,0.3-1.2,0.4-1.8c2.5-14.6,0-30.8-7.3-48.7c-0.4-0.8-0.8-1.6-1-2.3c-0.2-0.3-0.2-0.6-0.4-0.8"/>
			<path class="st12" d="M176.5,113.9c-0.3-0.7-0.6-1.3-0.8-2.1"/>
			<path class="st12" d="M70,112.7c-0.1,0.5-0.3,0.8-0.3,1.2c-0.7,3.1-1.4,6.3-2,9.5"/>
			<path class="st12" d="M70.6,110.3c-0.2,0.8-0.4,1.5-0.6,2.3"/>
			<path class="st12" d="M67.7,123.4c7.6-2.5,14.3-6.8,20-12.7c1-1.2,2.1-2.4,3.1-3.7"/>
			<path class="st12" d="M123.9,105.6c-9.7-0.3-19.3,0-29,0.9l0,0"/>
			<path class="st12" d="M94.9,106.6c-1.4,0.1-2.7,0.2-4,0.5"/>
			<path class="st12" d="M90.8,107c-6.7,0.7-13.4,1.8-20.3,3.3"/>
			<path class="st12" d="M77.1,127.2c-0.9,1.1-1.4,2.5-1.4,4.2c0,1.6,0.5,3,1.4,4.1c0.9,1.1,2.1,1.7,3.4,1.7c1.3,0,2.5-0.6,3.5-1.7
				c0.9-1.1,1.4-2.5,1.4-4.1c0-1.7-0.5-3.1-1.4-4.2c-0.9-1.1-2.2-1.7-3.5-1.7C79.2,125.5,78.1,126.1,77.1,127.2"/>
			<path class="st12" d="M102.4,156.6c0.8,0,1.6-0.1,2.4-0.2c2.9-0.4,5.5-1.7,7.8-3.8c0.2-0.3,0.5-0.5,0.7-0.7
				c2.4-2.5,3.7-5.4,3.7-8.7c0-0.8-0.1-1.4-0.3-2.2L88,145.7c0.5,2.6,1.9,5,4.1,7c0.8,0.8,1.8,1.5,2.7,2.1
				C97.1,156,99.7,156.6,102.4,156.6"/>
			<path class="st12" d="M98.7,170c-1.3-0.1-2.5-0.3-3.9-0.5c-8.1-1.2-15.9-3.1-23.3-5.7c-0.1,0-0.2,0-0.2,0"/>
			<path class="st12" d="M67.7,123.4c-0.2,1.4-0.5,2.6-0.6,4c-1.5,9.4-2.3,19.5-2.3,30.2c-0.1,2.4,0.9,4,3.1,5
				c1.1,0.4,2.2,0.8,3.4,1.3"/>
			<path class="st12" d="M71.4,163.8c-0.5,1.3-1.2,3.1-2.3,5.2c-0.9,2.1-2.3,3.8-4.3,5c10.9,3.9,21,3.5,30.1-1.4
				c1.3-0.8,2.5-1.6,3.9-2.5"/>
			<path class="st12" d="M101,170.3c-1.8,2.8-3.8,5.4-6.1,7.9c-0.7,0.7-1.3,1.4-2.1,2.1c-3.5,3.3-7.7,6.2-12.4,8.7l0,0"/>
			<path class="st12" d="M92.1,196.5C92.1,196.4,92.1,196.4,92.1,196.5c0.6-3.1,1.3-6.1,2.3-9.2c0.1-0.3,0.2-0.5,0.2-0.8
				c0.2-0.2,0.3-0.5,0.3-0.7"/>
			<path class="st12" d="M132.4,170.4c-3.5,0.4-6.9,0.6-10.1,0.7c-5.6,0.1-11.2,0.1-16.4-0.4c-1.6-0.1-3.3-0.3-4.8-0.4"/>
			<path class="st13" d="M80.8,201.3c0.3-0.8,0.6-1.5,0.7-2.4c0.8-3.4,0.7-6.4-0.5-8.7l0,0c-0.1-0.5-0.4-0.8-0.6-1.1"/>
			<path class="st14" d="M92.1,196.5c-0.2,0-0.3,0.1-0.4,0.2c-3.4,2.6-7,4.2-10.9,4.6l-13.3-11.8c6.5-5.3,11.8-2.2,13-0.5"/>
			<path class="st12" d="M98.7,170c0.8,0.1,1.4,0.2,2.3,0.3"/>
			<path class="st12" d="M132.4,170.4c2.2-0.2,4.4-0.4,6.6-0.7c2.5-0.3,5.2-0.7,7.7-1c2.2-0.4,4.2-0.7,6.4-1.1"/>
			<path class="st12" d="M163.1,195.7c0.4-0.6,0.4-1.1,0-1.8c-0.5-0.9-1.9-1.9-3.9-2.7c-2.2-0.8-4.4-1.4-6.9-1.6
				c-2.8-4.8-6.8-9.3-11.7-13.2c-0.9-0.8-1.9-1.6-2.8-2.3c-1.8-1.3-3.5-2.4-5.4-3.7"/>
			<path class="st12" d="M92.1,196.5c-1.8,9.7-0.8,18.7,2.8,27c1,2.3,2.3,4.7,3.8,7l-4.6,2.8h6.7h5.6h2l3.5-9.1
				c1.3-3.6,3.3-5.4,5.8-5.5s5.2,2.2,8,6.8s5.2,7.8,7,9.7h6h12.2l-3.8-2.4l-15.6-47.7l0.4,0.4l12.9,11.5c-0.8,7.2,1,7.9,5.6,2.2
				c0.5-0.1,0.8-0.1,1.2-0.1c3.8-0.4,6.7-0.8,8.6-1.4"/>
			<path class="st12" d="M160.3,197.4c1.4-0.5,2.4-1.1,2.8-1.7"/>
			<line class="st12" x1="163.1" y1="195.7" x2="155.5" y2="192.8"/>
			<line class="st12" x1="152.7" y1="195.8" x2="160.3" y2="197.4"/>
		</g>
		<g id="hat_10_">
			<path class="st15" d="M64.6,101.6c0,0-8-9.7-14.2-15.2s-15.1-9.5,9.9-32.1c16.1-14.6,44.5-16,67.5-12.7
				c25.7,3.7,69.7,20.8,63.5,34.3c-9.2,20-15,24.3-14.4,36.1c0.2,3.3-1.4,2.7-1.4,2.7s-38.1-8.4-64.5-10.7S75.4,114,75.4,114
				L64.6,101.6z"/>
			<path class="st16" d="M168.5,53.9c4.9,39.2-11.8,45.8-38.4,45.8c-25.8,0-64.9-20.9-67.5-47.4c-0.8,0.6-1.6,1.3-2.4,1.9
				c-26,21.5-16.1,26.6-9.9,32.1s14.2,15.2,14.2,15.2l10,12.5c0,0,10-12.5,36.4-10.2s64.5,10.7,64.5,10.7s1.6,0.6,1.4-2.7
				c-0.7-11.8,5.2-16.1,14.4-36.1C194.7,68.2,185.7,62,168.5,53.9z"/>
			<path class="st4" d="M60.6,120.7c-0.3,0-0.6-0.1-0.9-0.2c-1.8-0.9-2.9-2.3-3-3.9c-0.5-4.7,6.3-10.6,8.2-12.1l-5.1-9.8l0.2-0.3
				c0.2-0.3,5.7-7.6,38.9-12.8c3.6-0.6,7.5-0.8,11.6-0.8c31.5,0,68.9,16.3,69.3,16.5l0.5,0.2l-3.4,17l-0.7-0.1
				c-0.3-0.1-32.2-6.6-52.1-6.6c-2.8,0-5.3,0.1-7.4,0.4c-40.6,5.2-50.8,10.2-54.1,11.9C61.7,120.4,61.2,120.7,60.6,120.7z"/>
			<path class="st1" d="M179.5,97.8l-3.1,15.8c0,0-41.4-8.5-59.8-6.2c-55.1,7-54.1,13.7-56.7,12.4c-8.4-4.3,5.7-15.3,5.7-15.3
				l-5.2-9.9c0,0,5.2-7.3,38.5-12.5S179.5,97.8,179.5,97.8z"/>
			<path class="st1" d="M179.5,97.8l-3.1,15.8c0,0-41.4-8.5-59.8-6.2c-55.1,7-54.1,13.7-56.7,12.4c-8.4-4.3,5.7-15.3,5.7-15.3
				l-5.2-9.9c0,0,5.2-7.3,38.5-12.5S179.5,97.8,179.5,97.8z"/>
			<g>
				<polygon class="st17" points="84.6,99.5 84.6,99.5 84.5,99.5 83.6,99.3 83.8,98.9 73.2,91 71.1,71.5 96.8,68.5 97.4,68.5 
					101.1,69 101.8,92.5 88.1,100.5 				"/>
				<polygon class="st18" points="99.7,69.8 96.6,69.4 96.6,69.4 71.9,71.3 73.9,90.7 84.6,98.7 84.6,98.7 84.6,98.9 88,99.7 
					101.1,91.8 				"/>
				<polygon class="st19" points="101.1,91.8 100.4,68.7 97,67.8 84.6,98.9 88,99.7 				"/>
				<polygon class="st18" points="71.9,71.3 73.9,90.7 84.6,98.7 85.9,97.8 97.3,90.4 97,67.9 				"/>
			</g>
			<path class="st20" d="M118.3,87l0.3,13.7c0,0,10.6-0.4,22.3,1.4s24.3,4.2,24.3,4.2s-8.4-2.7-12.5-6.6
				C147.3,94.5,148.8,87,118.3,87z"/>
			<path class="st3" d="M123.7,104.3c0,0-23.4,0.7-41.2,5.2c-19.1,4.8-19.9,9-21.7,6.6s-2-10,19.2-12.5
				C103.5,100.9,123.7,104.3,123.7,104.3z"/>
		</g>
		<g>
			<path class="st21" d="M68.6,220.5c-5.5,0-11.2-2.6-16-6.4c-10-7.7-13.3-20.5-7.5-28.1c2.8-3.7,7.4-5.9,12.8-5.9
				c5.5,0,11.2,2,16,5.8c4.8,3.7,8.3,8.6,9.7,13.8c1.4,5.3,0.7,10.8-2.2,14.5C78.6,217.9,74,220.5,68.6,220.5
				C68.6,220.5,68.6,220.5,68.6,220.5z M61.4,192.2c-0.8,0-2,0.2-2.7,1.1c-1.4,1.8,0,5.3,3.1,7.6c1.8,1.4,3.8,2.1,5.5,2.1
				c0.8,0,2-0.2,2.7-1.1c1.4-1.8,0-5.3-3.1-7.6C65.1,193,63.1,192.2,61.4,192.2z"/>
			<path class="st22" d="M73.5,186.4c-9.7-7.5-22.1-7.6-27.7-0.3c-5.6,7.3-2.4,19.3,7.3,26.8c9.7,7.5,22.1,7.6,27.7,0.3
				C86.5,205.9,83.2,193.9,73.5,186.4z M61.4,201.5c-3.4-2.6-4.9-6.5-3.2-8.7c1.7-2.1,5.8-1.7,9.2,0.9s4.9,6.5,3.2,8.7
				C68.9,204.6,64.8,204.2,61.4,201.5z"/>
			<g>
				<path class="st23" d="M76.8,194.3c0,0-0.8-4.4-4.8-7.2c-3.9-2.8-6.7-2.8-6.7-2.8s-1.6-2.6-5.9-2.5c-2,0-5.7-0.3-6.6,0.9
					C52,184,52,184,52,184s-1.3-0.1-1.9,1.8c-0.5,1.9-0.3,3.2-0.3,3.2s-5.5-0.2-4.1,7.6c1.3,7.8,4.8,7,4.8,7s1.6,3.8,4.6,6.5
					c3,2.7,5.4,0,5.4,0s-0.4,1.3,1.3,2.3c1.8,0.9,1.5,0,1.5,0s1.3,2.7,3.6,3.2c2.3,0.5,4.4-2,4.4-2s2.4,2.1,3.6,1.3
					c1.2-0.8,1.2-2.7,1.2-2.7s1.5,1.9,2.8-0.9c1.3-2.8,1.2-5,1.2-5s0.9,0.1,1.1-2.2C81.5,201.7,80.3,196.4,76.8,194.3z M73,200.8
					c0,0-0.5-0.9-1.3,1.5c-0.8,2.4-1.1,2.7-1.1,2.7s0,0-1.5-0.3c-1.5-0.3-3.5,0.9-3.5,0.9s-0.5-1.6-1.8-2.8s-2.4-0.7-2.4-0.7
					s-1.3-1.8-2.3-2.7c-0.9-0.9-2.3-1.1-2.3-1.1s0.1-2.4,0-3.9c-0.1-1.5-2-1.2-2-1.2c1.6-0.8,3.8-4.4,3.8-4.4s1.5,0.3,3.2,0.9
					c1.8,0.5,3.5-0.4,3.5-0.4s1.4,2.1,3.1,3.1c1.6,0.9,4,1.2,4,1.2s0,0.3,0.6,2.3C73.5,198,73,200.8,73,200.8z"/>
				<ellipse class="st24" cx="65.4" cy="185.3" rx="0.5" ry="1.7"/>
				
					<ellipse transform="matrix(0.7469 -0.6649 0.6649 0.7469 -108.3568 88.7022)" class="st24" cx="62.3" cy="186.7" rx="0.5" ry="2.3"/>
				
					<ellipse transform="matrix(0.9186 -0.3952 0.3952 0.9186 -67.7115 37.722)" class="st24" cx="57.7" cy="183.2" rx="2.3" ry="0.5"/>
				<ellipse class="st24" cx="79.3" cy="209.9" rx="0.5" ry="2.3"/>
				<ellipse class="st24" cx="64.3" cy="207.6" rx="0.5" ry="2.3"/>
				<path class="st24" d="M71.4,213c0,1.3-1.8,1.2-2.1,1.2c-0.3,0,1,0.1,1-1.2s0.2-2.3,0.5-2.3C71.1,210.6,71.4,211.7,71.4,213z"/>
				
					<ellipse transform="matrix(0.5151 -0.8571 0.8571 0.5151 -145.1859 146.1146)" class="st24" cx="56.5" cy="201.4" rx="2.3" ry="0.5"/>
				
					<ellipse transform="matrix(0.7524 -0.6587 0.6587 0.7524 -123.7046 92.2056)" class="st24" cx="60.8" cy="210.6" rx="2.3" ry="0.5"/>
				
					<ellipse transform="matrix(0.6877 -0.726 0.726 0.6877 -131.0875 115.0081)" class="st25" cx="68.1" cy="209.9" rx="2.3" ry="0.5"/>
				<ellipse class="st24" cx="74.3" cy="210.6" rx="0.5" ry="2.3"/>
				<ellipse class="st25" cx="75.9" cy="206.4" rx="0.5" ry="2.3"/>
				
					<ellipse transform="matrix(0.9002 -0.4354 0.4354 0.9002 -75.7715 49.4026)" class="st25" cx="69.9" cy="190" rx="1.7" ry="0.5"/>
				
					<ellipse transform="matrix(0.4527 -0.8917 0.8917 0.4527 -132.2405 174.729)" class="st26" cx="76.2" cy="195.1" rx="0.4" ry="1.8"/>
				
					<ellipse transform="matrix(0.989 -0.1479 0.1479 0.989 -28.6478 13.4661)" class="st26" cx="76.2" cy="199.3" rx="0.4" ry="1.8"/>
				
					<ellipse transform="matrix(0.8148 -0.5797 0.5797 0.8148 -96.9625 78.8466)" class="st24" cx="74.9" cy="191.2" rx="1.7" ry="0.5"/>
				
					<ellipse transform="matrix(0.8253 -0.5647 0.5647 0.8253 -100.6766 80.138)" class="st24" cx="79.2" cy="202.8" rx="0.5" ry="1.7"/>
				
					<ellipse transform="matrix(0.5823 -0.813 0.813 0.5823 -129.7265 121.4293)" class="st24" cx="53.3" cy="186.9" rx="0.5" ry="1.7"/>
				
					<ellipse transform="matrix(0.3373 -0.9414 0.9414 0.3373 -147.7339 177.9474)" class="st26" cx="52.5" cy="193.9" rx="0.5" ry="1.7"/>
				
					<ellipse transform="matrix(0.5823 -0.813 0.813 0.5823 -135.2812 119.1207)" class="st24" cx="48.3" cy="191.2" rx="0.5" ry="1.7"/>
				
					<ellipse transform="matrix(0.5823 -0.813 0.813 0.5823 -132.5629 122.0924)" class="st27" cx="52.5" cy="190" rx="0.5" ry="1.7"/>
				
					<ellipse transform="matrix(0.5823 -0.813 0.813 0.5823 -127.1783 123.297)" class="st26" cx="56.4" cy="185.4" rx="0.5" ry="1.7"/>
				
					<ellipse transform="matrix(0.5823 -0.813 0.813 0.5823 -122.4879 133.1982)" class="st26" cx="68.4" cy="185.8" rx="0.5" ry="1.7"/>
				
					<ellipse transform="matrix(0.9355 -0.3532 0.3532 0.9355 -61.7158 33.3952)" class="st25" cx="60.6" cy="185.8" rx="1.7" ry="0.5"/>
				
					<ellipse transform="matrix(0.5823 -0.813 0.813 0.5823 -139.0428 121.8478)" class="st25" cx="49" cy="196.2" rx="0.5" ry="1.7"/>
				
					<ellipse transform="matrix(0.5823 -0.813 0.813 0.5823 -145.0869 132.499)" class="st26" cx="56.4" cy="207.4" rx="0.5" ry="1.7"/>
				
					<ellipse transform="matrix(0.2047 -0.9788 0.9788 0.2047 -154.3855 220.2211)" class="st26" cx="58.3" cy="205.1" rx="1.7" ry="0.5"/>
				
					<ellipse transform="matrix(0.9393 -0.3432 0.3432 0.9393 -65.3032 30.423)" class="st26" cx="53.3" cy="199.7" rx="0.5" ry="1.7"/>
				
					<ellipse transform="matrix(0.2047 -0.9788 0.9788 0.2047 -141.2638 234.0515)" class="st26" cx="73.4" cy="204" rx="1.7" ry="0.5"/>
				
					<ellipse transform="matrix(0.5016 -0.8651 0.8651 0.5016 -149.2696 143.4014)" class="st26" cx="49.8" cy="201.2" rx="1.7" ry="0.5"/>
			</g>
		</g>
	</g>
	<path class="st28" d="M74.2,188.8l-8.9,4.3l-0.1,0.3c-0.1,0.2-1.7,4.1,1.6,8.2c3.2,4,7.2,4.7,7.3,4.8l1,0.2L74.2,188.8z
		 M68.1,200.7c-2.3-2.9-1.7-5.6-1.5-6.4l6.2-3l0.7,13.4C72.2,204.1,70,203.1,68.1,200.7z"/>
	<path class="st29" d="M65.9,193.7c0,0-1.6,3.6,1.5,7.5c3.1,3.8,6.9,4.5,6.9,4.5L73.5,190L65.9,193.7"/>
	<path class="st30" d="M60.6,121.4c-0.4,0-0.8-0.1-1.3-0.3c-2.1-1.1-3.3-2.6-3.4-4.5c-0.5-4.7,5.5-10.3,8-12.4l-3.2-6.1
		c-2.9-3.3-7.1-8-10.8-11.2c-0.5-0.4-0.9-0.8-1.4-1.2c-1.2-1-2.4-2-3.4-3.1c-2-2.2-2.8-4.4-2.6-7C43,70,48.4,63,59.8,53.6
		c9.8-8.9,27.4-14.6,46-14.6c6.8,0,14,0.6,22.1,1.7c12,1.7,24.7,3.9,40.1,10.7c10.5,4.7,21.1,11.8,24,19c0.9,1.8,0.8,3.7,0,5.6
		c-3,6.6-5.7,11.5-7.9,15.5c-1.1,2-2.1,3.8-2.9,5.4l-3.6,18.3l-0.9-0.2c-0.3,0.2-0.6,0.3-0.9,0.3c-0.2,0-0.4,0-0.5-0.1
		c-0.5-0.1-7.6-1.7-17.4-3.5c-9.7-1.5-23.4-3.3-33.8-3.3c-2.8,0-5.3,0.1-7.3,0.4C76.4,114,66.3,119,63,120.6
		C62,121.1,61.4,121.4,60.6,121.4z"/>
	<path class="st31" d="M191.3,70.7c-5-12.2-40.9-26-63.5-29.3c-23-3.3-51.4-1.9-67.5,12.7C40.7,70.4,41.5,77.3,45.7,82
		c1.3,1.6,3.1,2.9,4.7,4.3c3.7,3.3,8,8,10.9,11.3l3.5,6.7c-1.9,1.5-8.6,7.5-8.2,12.1c0.2,1.7,1.2,3,3,3.9c0.3,0.2,0.6,0.2,0.9,0.2
		c0.6,0,1.1-0.3,2-0.7c3.3-1.7,13.5-6.7,54.1-11.9c2.1-0.3,4.6-0.4,7.4-0.4c10.1,0,23.3,1.7,33.9,3.3c10.3,2,17.5,3.6,17.5,3.6
		s0.5,0.2,0.9-0.3l0.5,0.1l3.4-17l-0.2-0.1c2.5-5.1,6.4-11.3,11.1-21.6C192.1,74,192,72.3,191.3,70.7z"/>
	<path d="M59.9,120.5c0,0,7.6,3.3,18.7,0.5s10.4-18,10.4-18L59.9,120.5z"/>
	<g>
		<path class="st29" d="M125.7,105.7c-0.7,0-1.2,0-1.8-0.1c-1.4,1.3-2.8,2.4-4.3,3.5c-5.9,4.7-12.1,8.1-18.5,10.1
			c2.8-3,4.7-6.1,5.5-9.1c-4.1,2.7-8,4.5-11.7,5.4c-1.5,0.4-2.9,0.6-4.4,0.7c1.8-2,3.1-3.9,3.8-6.1c0.4-1.1,0.6-2.3,0.7-3.5
			c-1.4,0.1-2.7,0.2-4,0.5c-1,1.2-2.1,2.4-3.1,3.7c-5.7,5.9-12.4,10.1-20,12.7c-0.2,1.4-0.5,2.6-0.6,4c2.6-1.6,6.7-3.9,11.9-7.1
			c5.1-3.1,8.5-5.8,10.1-8.1c-0.3,0.5-0.8,1.9-1.7,3.9c-0.8,2-1.9,3.2-3.2,3.7v0.3c0.4,0,0.8,0.1,1.4,0.2c0.7,0.1,1,0.1,1.3,0.1
			c1.2,0,3.1-0.4,5.7-1.1c0.3-0.1,0.9-0.4,2.2-0.8c0.8-0.4,2-0.7,3.3-1.1h0.2c0,0.1,0,0.1,0,0.1c-0.8,1.4-1.4,2.4-1.9,3.3
			c-0.5,0.8-1,1.4-1.6,2c-0.5,0.6-1,0.9-1.6,1.3l0.1,0.3c0.6-0.1,1-0.2,1.5-0.3c5.8-1,11.6-2.9,17.3-5.7c3.6-1.8,7-3.8,10.3-6.1
			c3.1,3.2,7.9,6.2,14.4,8.9c5.6,2.3,10.8,3.9,15.3,4.4c0,1.2,0.1,2.6,0.2,4.2c0.2,2.3,0.2,3.6,0.2,4.1c0,6.1-0.8,13.2-2.3,21.4
			c-0.9,5.6-2.3,10.1-3.7,13.5c2.2-0.4,4.2-0.7,6.4-1.1c1.5-3.5,2.5-8.5,3.2-14.9c0.8-7.3,1.1-16.7,0.9-27.9
			c-0.1-0.7-0.1-1.2-0.1-1.8c-13.4-2.3-23.1-7-28.7-13.6c-0.4-0.4-0.6-0.8-0.9-1C126.8,107.5,126.3,106.6,125.7,105.7z"/>
		<path class="st32" d="M127.4,108.3c0.4,0.3,0.6,0.7,0.9,1c12.2,0.5,23.1,1.7,32.8,3.8c3.9,0.8,9.3,2.1,15.8,3.8
			c0.3,0,0.7,0.1,1,0.2c-0.4-0.8-0.8-1.6-1-2.3c-0.2-0.3-0.2-0.6-0.4-0.8c-15.6-4.3-31.2-6.9-46.7-7.9c-1.4-0.2-2.8-0.2-4.1-0.3
			C126.3,106.6,126.8,107.5,127.4,108.3z"/>
		<path class="st32" d="M117.1,109.1c0.8,0,1.7,0,2.4,0c1.5-1,2.9-2.2,4.3-3.5c-9.7-0.3-19.3,0-29,0.9l0,0c-0.1,1.1-0.3,2.3-0.7,3.5
			c0.3-0.1,0.4-0.1,0.7-0.1C101.6,109.4,109.1,109.1,117.1,109.1z"/>
		<path class="st33" d="M119.6,109.1c-0.8,0-1.6,0-2.4,0c-8.1,0-15.5,0.3-22.3,0.8c-0.3,0-0.4,0-0.7,0.1c-0.7,2.2-2,4.1-3.8,6.1
			c1.5-0.1,2.9-0.3,4.4-0.7c3.8-0.8,7.6-2.6,11.7-5.4c-0.8,3-2.7,6.1-5.5,9.1C107.5,117.2,113.7,113.8,119.6,109.1z"/>
		<path class="st34" d="M136.9,121c-6.5-2.7-11.3-5.7-14.4-8.9c-3.3,2.3-6.8,4.3-10.3,6.1c-5.6,2.8-11.5,4.7-17.3,5.7
			c-0.5,0.1-0.9,0.2-1.5,0.3l-0.1-0.3c0.6-0.4,1.1-0.8,1.6-1.3c0.6-0.6,1.1-1.2,1.6-2c0.5-0.8,1.1-1.9,1.9-3.3l-0.2-0.1
			c-1.3,0.5-2.4,0.8-3.3,1.1c-1.2,0.4-1.9,0.7-2.2,0.8c-2.6,0.8-4.5,1.1-5.7,1.1c-0.3,0-0.7,0-1.3-0.1c-0.6-0.1-1-0.2-1.4-0.2v-0.3
			c1.3-0.5,2.3-1.7,3.2-3.7c0.8-2,1.4-3.4,1.7-3.9c-1.6,2.3-5,5-10.1,8.1c-5.3,3.2-9.3,5.5-11.9,7.1c-1.5,9.4-2.3,19.5-2.3,30.2
			c-0.1,2.4,0.9,4,3.1,5c1.1,0.4,2.2,0.8,3.4,1.3c0,0,0.1,0,0.2,0c7.4,2.6,15.2,4.5,23.3,5.7c1.3,0.2,2.5,0.4,3.9,0.5
			c0.8,0.1,1.4,0.2,2.3,0.3c1.5,0.1,3.2,0.3,4.8,0.4c5.3,0.5,10.8,0.5,16.4,0.4c3.3-0.1,6.7-0.3,10.1-0.7c2.2-0.2,4.4-0.4,6.6-0.7
			c2.5-0.3,5.2-0.7,7.7-1c1.4-3.5,2.7-7.9,3.7-13.5c1.5-8.3,2.3-15.3,2.3-21.4c0-0.6,0-1.9-0.2-4.1c-0.1-1.6-0.2-3-0.2-4.2
			C147.7,124.9,142.5,123.4,136.9,121z M124.6,122.1c1-1.4,2.4-2,4-2c1.6,0,2.9,0.6,3.9,2c1.2,1.4,1.8,3.1,1.8,5
			c0,2-0.6,3.6-1.8,4.9c-1,1.4-2.3,2.1-3.9,2.1c-1.6,0-3-0.7-4-2.1c-1.1-1.3-1.8-2.9-1.8-4.9C122.8,125.2,123.4,123.6,124.6,122.1z
			 M77.1,127.2c0.9-1.1,2.1-1.7,3.4-1.7s2.5,0.6,3.5,1.7c0.9,1.1,1.4,2.5,1.4,4.2c0,1.6-0.5,3-1.4,4.1c-0.9,1.1-2.2,1.7-3.5,1.7
			c-1.3,0-2.4-0.6-3.4-1.7c-0.9-1.1-1.4-2.5-1.4-4.1C75.7,129.7,76.2,128.3,77.1,127.2z M102.4,156.6c-2.7,0-5.3-0.7-7.5-1.9
			c-0.9-0.6-1.9-1.2-2.7-2.1c-2.3-2-3.7-4.3-4.1-7l28.6-4.6c0.2,0.8,0.3,1.4,0.3,2.2c0,3.3-1.2,6.2-3.7,8.7
			c-0.2,0.2-0.5,0.4-0.7,0.7c-2.3,2.1-4.9,3.4-7.8,3.8C104,156.5,103.2,156.6,102.4,156.6z M76.7,143.2c0.4,0,0.6,0.2,0.7,0.5
			c0.1,0.2-0.1,0.5-0.3,0.8c-0.3,0.3-0.6,0.5-1,0.6c-0.4,0.1-0.8,0.1-1.2,0.1c-0.4-0.2-0.6-0.4-0.6-0.7c-0.1-0.2,0-0.5,0.3-0.7
			c0.3-0.3,0.7-0.5,1-0.6C76,143,76.3,143,76.7,143.2z M79.7,149.6c0.4-0.2,0.8-0.2,1.2,0c0.3,0.1,0.5,0.2,0.6,0.5
			c0.1,0.3,0,0.6-0.3,0.8c-0.3,0.3-0.7,0.5-1,0.6c-0.4,0.1-0.8,0.1-1.1,0c-0.4-0.1-0.6-0.2-0.7-0.5c-0.1-0.2,0-0.6,0.3-0.8
			C78.9,149.8,79.3,149.8,79.7,149.6z M71.6,152.4c-0.3-0.1-0.6-0.3-0.6-0.6c-0.1-0.2,0-0.5,0.3-0.7c0.2-0.3,0.7-0.5,1-0.7
			c0.5-0.1,0.8-0.1,1.1,0c0.4,0.2,0.7,0.3,0.7,0.6c0.1,0.2,0,0.6-0.3,0.8c-0.3,0.3-0.6,0.5-1,0.6C72.4,152.6,72,152.6,71.6,152.4z
			 M136.8,142.5c0-0.3,0-0.5,0.4-0.8c0.2-0.3,0.6-0.5,1-0.6c0.4-0.1,0.8-0.1,1.1,0c0.3,0.1,0.6,0.3,0.7,0.6c0.1,0.2,0,0.5-0.4,0.7
			c-0.2,0.3-0.6,0.5-0.9,0.6c-0.5,0.2-0.9,0.2-1.2,0.1C137.2,142.9,136.9,142.7,136.8,142.5z M130.3,142.3c-0.2,0.4-0.6,0.5-1,0.6
			c-0.4,0.2-0.8,0.2-1.1,0.1c-0.4-0.1-0.6-0.3-0.7-0.6c-0.1-0.2,0-0.5,0.4-0.7c0.2-0.4,0.6-0.5,0.9-0.7c0.5-0.1,0.8-0.1,1.2,0
			c0.3,0.2,0.6,0.3,0.7,0.5C130.7,141.9,130.7,142.2,130.3,142.3z M132.4,150.9c-0.4-0.1-0.7-0.2-0.8-0.5c0-0.2,0.1-0.6,0.4-0.8
			c0.2-0.3,0.6-0.4,1-0.6c0.5-0.2,0.8-0.2,1.2,0c0.3,0.1,0.6,0.2,0.6,0.5c0.1,0.3,0,0.6-0.3,0.8c-0.3,0.3-0.6,0.5-1,0.6
			S132.6,151.1,132.4,150.9z"/>
		<path d="M128.6,120.2c-1.6,0-3,0.6-4,2c-1.1,1.4-1.8,3.1-1.8,5c0,2,0.7,3.6,1.8,4.9c1,1.4,2.4,2.1,4,2.1s2.9-0.7,3.9-2.1
			c1.2-1.3,1.8-2.9,1.8-4.9c0-1.9-0.6-3.6-1.8-5C131.5,120.7,130.2,120.2,128.6,120.2z"/>
		<path d="M80.5,125.5c-1.3,0-2.4,0.6-3.4,1.7c-0.9,1.1-1.4,2.5-1.4,4.2c0,1.6,0.5,3,1.4,4.1c0.9,1.1,2.1,1.7,3.4,1.7
			c1.3,0,2.5-0.6,3.5-1.7c0.9-1.1,1.4-2.5,1.4-4.1c0-1.7-0.5-3.1-1.4-4.2C83,126.1,81.8,125.5,80.5,125.5z"/>
		<path class="st35" d="M94.9,154.7c2.3,1.2,4.8,1.9,7.5,1.9c0.8,0,1.6-0.1,2.4-0.2c2.9-0.4,5.5-1.7,7.8-3.8
			c0.2-0.3,0.5-0.5,0.7-0.7c2.4-2.5,3.7-5.4,3.7-8.7c0-0.8-0.1-1.4-0.3-2.2L88,145.7c0.5,2.6,1.9,5,4.1,7
			C93,153.5,93.9,154.2,94.9,154.7z"/>
		<path class="st36" d="M77.3,143.7c-0.1-0.3-0.3-0.5-0.7-0.5c-0.4-0.2-0.7-0.2-1.1,0c-0.4,0.1-0.8,0.3-1,0.6
			c-0.3,0.2-0.4,0.5-0.3,0.7c0,0.3,0.2,0.5,0.6,0.7c0.4,0,0.8,0,1.2-0.1c0.5-0.1,0.8-0.3,1-0.6C77.2,144.1,77.4,143.8,77.3,143.7z"
			/>
		<path class="st36" d="M80.9,149.6c-0.4-0.2-0.8-0.2-1.2,0c-0.4,0.2-0.8,0.3-1,0.6c-0.3,0.2-0.4,0.6-0.3,0.8
			c0.1,0.3,0.3,0.4,0.7,0.5c0.3,0.1,0.8,0.1,1.1,0c0.4-0.1,0.8-0.3,1-0.6c0.3-0.2,0.4-0.5,0.3-0.8C81.4,149.8,81.2,149.7,80.9,149.6
			z"/>
		<path class="st36" d="M71,151.8c0,0.3,0.3,0.5,0.6,0.6c0.4,0.2,0.8,0.2,1.2,0c0.5-0.1,0.8-0.3,1-0.6c0.3-0.2,0.4-0.6,0.3-0.8
			c0-0.3-0.3-0.4-0.7-0.6c-0.3-0.1-0.7-0.1-1.1,0c-0.4,0.2-0.8,0.4-1,0.7C71,151.4,70.9,151.6,71,151.8z"/>
		<path class="st36" d="M137.2,141.8c-0.4,0.3-0.4,0.5-0.4,0.8c0.1,0.2,0.4,0.4,0.7,0.6c0.3,0.1,0.8,0.1,1.2-0.1
			c0.4-0.1,0.8-0.3,0.9-0.6c0.4-0.2,0.5-0.5,0.4-0.7c-0.1-0.3-0.4-0.5-0.7-0.6c-0.3-0.1-0.8-0.1-1.1,0
			C137.7,141.3,137.3,141.5,137.2,141.8z"/>
		<path class="st36" d="M129.3,142.9c0.5-0.1,0.8-0.2,1-0.6c0.4-0.2,0.4-0.5,0.4-0.8c-0.1-0.2-0.4-0.3-0.7-0.5
			c-0.4-0.1-0.8-0.1-1.2,0c-0.4,0.2-0.8,0.3-0.9,0.7c-0.4,0.2-0.5,0.5-0.4,0.7c0.1,0.3,0.3,0.5,0.7,0.6
			C128.4,143.1,128.9,143.1,129.3,142.9z"/>
		<path class="st36" d="M131.6,150.4c0.1,0.3,0.4,0.4,0.8,0.5c0.3,0.2,0.7,0.1,1.1,0c0.5-0.1,0.8-0.3,1-0.6c0.3-0.2,0.4-0.5,0.3-0.8
			c0-0.3-0.3-0.4-0.6-0.5c-0.4-0.2-0.8-0.2-1.2,0c-0.5,0.2-0.8,0.3-1,0.6C131.7,149.9,131.6,150.2,131.6,150.4z"/>
		<path class="st33" d="M177.9,117.1c-0.4-0.1-0.8-0.2-1-0.2c-6.5-1.7-11.8-2.9-15.8-3.8c-9.7-2.1-20.6-3.3-32.8-3.8
			c5.6,6.7,15.3,11.3,28.7,13.6c0,0.6,0,1.1,0.1,1.8c0.7,1.2,1.6,3,2.7,5.3c1.3,3.1,2.2,6.7,2.3,10.7c0.1,0.6,0.1,4.5,0.3,12
			c0,3.8,0.3,6.5,0.7,8.3c0.7,2.2,1.9,3.8,3.6,4.7c1.8,0.9,4.5,1.4,8.2,1.4c0.7,0,1.4,0,2.1,0c2.5-0.2,5.4-0.7,8.4-1.4
			C187.8,151.2,185.2,134.9,177.9,117.1z"/>
		<path class="st33" d="M69.7,113.9c-0.7,3.1-1.4,6.3-2,9.5c7.6-2.5,14.3-6.8,20-12.7C80.9,111.4,74.9,112.6,69.7,113.9z"/>
		<path class="st32" d="M70.6,110.3c-0.2,0.8-0.4,1.5-0.6,2.3c-0.1,0.5-0.3,0.8-0.3,1.2c5.2-1.3,11.2-2.4,18-3.2
			c1-1.2,2.1-2.4,3.1-3.7C84.2,107.7,77.4,108.8,70.6,110.3z"/>
		<path class="st35" d="M80,84.5L80,84.5L80,84.5L80,84.5z"/>
		<path class="st35" d="M98.4,117.4C98.4,117.4,98.4,117.4,98.4,117.4l-0.2-0.1L98.4,117.4z"/>
		<path class="st32" d="M98.7,170c-1.3-0.1-2.5-0.3-3.9-0.5c-8.1-1.2-15.9-3.1-23.3-5.7c-0.1,0-0.2,0-0.2,0
			c-0.5,1.3-1.2,3.1-2.3,5.2c-0.9,2.1-2.3,3.8-4.3,5c10.9,3.9,21,3.5,30.1-1.4C96.2,171.8,97.4,171,98.7,170z"/>
		<path class="st35" d="M68.2,211.1L68.2,211.1l0.1-0.4L68.2,211.1z"/>
		<path class="st29" d="M101,170.3c-1.8,2.8-3.8,5.4-6.1,7.9c-0.7,0.7-1.3,1.4-2.1,2.1c0.7-0.4,1.3-0.7,2.1-0.9
			c3.3-1.3,7.1-2.3,11.6-3.3c7.3-1.4,14.8-2.2,22.5-2.2c3.9,0,6.2,0,7.1,0.1c0.6,0,1,0,1.5,0.1c-1.8-1.3-3.5-2.4-5.4-3.7
			c-3.5,0.4-6.9,0.6-10.1,0.7c-5.6,0.1-11.2,0.1-16.4-0.4C104.2,170.6,102.5,170.4,101,170.3z"/>
		<path class="st34" d="M94.9,185.9c0,0.2-0.1,0.5-0.3,0.7c0,0.3-0.1,0.5-0.2,0.8c-0.1,1.2-0.4,4-0.8,8.2c-0.4,3.6-0.6,6.7-0.6,9.4
			c0,1.5,0.4,3.9,1.1,7.1c0.3,0.9,0.5,1.9,0.8,2.6c0.5,1.5,0.8,2.5,1,3.1c1.4,2.7,2.3,4.9,3.2,6.4c1.8,3.9,2.6,6.1,2.6,6.6
			s-0.3,1.3-1,2.5h5.6c1.3-5.2,2.5-8.9,3.7-11.3c2.1-4.6,5.5-7,10.3-7c3.1,0,5.6,1.2,7.5,3.5c0.9,1,2.3,3.6,4.2,7.6
			c1.7,3.6,3.4,6.2,5.2,7.7c0.5,0.5,0.9,0.8,1.4,1.2h12.2l-3.8-2.4l-15.6-47.7l0.4,0.4c2.8,0,5.2,0.7,7.1,2c1.4,0.8,2.9,2.4,4.8,4.6
			c2.2,2.4,3.7,4.1,4.7,4.9c0.9,0.8,2,1.5,3.1,2.1c3.8-0.4,6.7-0.8,8.6-1.4l-7.5-1.6l7.5,1.6c1.4-0.5,2.4-1.1,2.8-1.7l-7.6-2.9
			l7.6,2.9c0.4-0.6,0.4-1.1,0-1.8c-0.5-0.9-1.9-1.9-3.9-2.7c-2.2-0.8-4.4-1.4-6.9-1.6c-2.8-4.8-6.8-9.3-11.7-13.2
			c-0.9-0.8-1.9-1.6-2.8-2.3c-0.5-0.1-0.9-0.1-1.5-0.1c-0.9-0.1-3.3-0.1-7.1-0.1c-7.7,0-15.2,0.8-22.5,2.2c-4.5,0.9-8.4,2-11.6,3.3
			c-0.8,0.3-1.4,0.6-2.1,0.9c-3.5,3.3-7.7,6.2-12.4,8.7l0,0c0.2,0.3,0.5,0.7,0.6,1.1l0.1-0.1c0.8,1.1,1.8,2.3,3.1,3.2
			c2.3,2.2,4.8,3.2,7.3,3.2c0.1,0,0.3,0,0.6,0l0,0c0.6-3,1.3-6,2.3-9.1c0.1-0.3,0.2-0.5,0.2-0.8C94.8,186.4,94.9,186.1,94.9,185.9z"
			/>
		<path class="st35" d="M81,190.1L81,190.1L81,190.1L81,190.1z"/>
		<path class="st29" d="M81.1,190.1L81.1,190.1c1,2.4,1.2,5.4,0.4,8.8c-0.1,0.9-0.4,1.7-0.7,2.4c3.9-0.4,7.5-2,10.9-4.6l-0.2-0.3
			c-2.5,0-5-1-7.3-3.2C82.9,192.3,81.8,191.2,81.1,190.1z"/>
		<path class="st35" d="M92.1,196.5C92.1,196.4,92.1,196.4,92.1,196.5L92.1,196.5L92.1,196.5z"/>
		<path class="st29" d="M92.1,196.4C92.1,196.4,92.1,196.4,92.1,196.4c-1.8,9.8-0.8,18.8,2.8,27.1c1,2.3,2.3,4.7,3.8,7l-4.6,2.8h6.7
			c0.8-1.2,1-2.1,1-2.5s-0.8-2.6-2.6-6.6c-0.8-1.5-1.8-3.7-3.2-6.4c-0.3-0.6-0.6-1.6-1-3.1c-0.3-0.8-0.5-1.7-0.8-2.6
			c-0.8-3.3-1.1-5.6-1.1-7.1c0-2.7,0.2-5.8,0.6-9.4c0.5-4.1,0.8-7,0.8-8.2C93.4,190.4,92.6,193.4,92.1,196.4z"/>
		<path class="st37" d="M92.1,196.5L92.1,196.5c-0.3-0.1-0.5-0.1-0.6-0.1l0.2,0.3C91.8,196.6,91.9,196.5,92.1,196.5z"/>
		<path class="st32" d="M159.9,130c-1.1-2.3-2.1-4-2.7-5.3c0.2,11.2-0.2,20.6-0.9,27.9c-0.7,6.5-1.7,11.5-3.2,14.9
			c-1.3,3.1-2.9,5.1-4.8,5.9c10.1,0.3,19.6-0.8,28.6-3.3c1.2-0.4,2.3-0.8,3.6-1.1c1.4-0.6,2.9-1,4.4-1.6c0.2-0.6,0.3-1.2,0.4-1.8
			c-3,0.8-5.8,1.2-8.4,1.4c-0.7,0-1.4,0-2.1,0c-3.7,0-6.4-0.5-8.2-1.4c-1.7-0.9-2.9-2.5-3.6-4.7c-0.4-1.8-0.7-4.5-0.7-8.3
			c-0.2-7.5-0.2-11.5-0.3-12C162,136.7,161.2,133.1,159.9,130z"/>
		<path class="st29" d="M143.8,191.8c-1.9-2.2-3.4-3.8-4.8-4.6c-2-1.3-4.3-2-7.1-2l12.9,11.5c-0.8,7.2,1,7.9,5.6,2.2
			c0.5-0.1,0.8-0.1,1.2-0.1c-1.1-0.6-2.2-1.2-3.1-2.1C147.5,196,146,194.3,143.8,191.8z"/>
		<path class="st29" d="M125.6,225.4c2.8,4.6,5.2,7.8,7,9.7h6c-0.5-0.4-0.9-0.8-1.4-1.2c-1.8-1.5-3.5-4.1-5.2-7.7
			c-2-4-3.3-6.6-4.2-7.6c-1.9-2.3-4.4-3.5-7.5-3.5c-4.8,0-8.3,2.3-10.3,7c-1.1,2.3-2.3,6.1-3.7,11.3h2l3.5-9.1
			c1.3-3.6,3.3-5.4,5.8-5.5S122.8,220.8,125.6,225.4z"/>
		<path class="st38" d="M125.7,105.7c-0.7,0-1.2,0-1.8-0.1"/>
		<path class="st38" d="M153,167.6c1.5-3.5,2.5-8.5,3.2-14.9c0.8-7.3,1.1-16.7,0.9-27.9c-0.1-0.7-0.1-1.2-0.1-1.8
			c-13.4-2.3-23.1-7-28.7-13.6c-0.4-0.4-0.6-0.8-0.9-1c-0.6-0.8-1.1-1.7-1.7-2.6"/>
		<path class="st38" d="M124.6,122.1c-1.1,1.4-1.8,3.1-1.8,5c0,2,0.7,3.6,1.8,4.9c1,1.4,2.4,2.1,4,2.1s2.9-0.7,3.9-2.1
			c1.2-1.3,1.8-2.9,1.8-4.9c0-1.9-0.6-3.6-1.8-5c-1-1.4-2.3-2-3.9-2S125.6,120.7,124.6,122.1"/>
		<path class="st38" d="M123.9,105.6c-1.4,1.3-2.8,2.4-4.3,3.5c-5.9,4.7-12.1,8.1-18.5,10.1c2.8-3,4.7-6.1,5.5-9.1
			c-4.1,2.7-8,4.5-11.7,5.4c-1.5,0.4-2.9,0.6-4.4,0.7c1.8-2,3.1-3.9,3.8-6.1c0.4-1.1,0.6-2.3,0.7-3.5"/>
		<path class="st38" d="M176.5,113.9c-15.6-4.3-31.2-6.9-46.7-7.9c-1.4-0.2-2.8-0.2-4.1-0.3"/>
		<path class="st38" d="M153,167.6c-1.3,3.1-2.9,5.1-4.8,5.9c10.1,0.3,19.6-0.8,28.6-3.3c1.2-0.4,2.3-0.8,3.6-1.1
			c1.4-0.6,2.9-1,4.4-1.6c0.2-0.6,0.3-1.2,0.4-1.8c2.5-14.6,0-30.8-7.3-48.7c-0.4-0.8-0.8-1.6-1-2.3c-0.2-0.3-0.2-0.6-0.4-0.8"/>
		<path class="st38" d="M176.5,113.9c-0.3-0.7-0.6-1.3-0.8-2.1"/>
		<path class="st38" d="M70,112.7c-0.1,0.5-0.3,0.8-0.3,1.2c-0.7,3.1-1.4,6.3-2,9.5"/>
		<path class="st38" d="M70.6,110.3c-0.2,0.8-0.4,1.5-0.6,2.3"/>
		<path class="st38" d="M67.7,123.4c7.6-2.5,14.3-6.8,20-12.7c1-1.2,2.1-2.4,3.1-3.7"/>
		<path class="st38" d="M123.9,105.6c-9.7-0.3-19.3,0-29,0.9l0,0"/>
		<path class="st38" d="M94.9,106.6c-1.4,0.1-2.7,0.2-4,0.5"/>
		<path class="st38" d="M90.8,107c-6.7,0.7-13.4,1.8-20.3,3.3"/>
		<path class="st38" d="M77.1,127.2c-0.9,1.1-1.4,2.5-1.4,4.2c0,1.6,0.5,3,1.4,4.1c0.9,1.1,2.1,1.7,3.4,1.7c1.3,0,2.5-0.6,3.5-1.7
			c0.9-1.1,1.4-2.5,1.4-4.1c0-1.7-0.5-3.1-1.4-4.2c-0.9-1.1-2.2-1.7-3.5-1.7C79.2,125.5,78.1,126.1,77.1,127.2"/>
		<path class="st38" d="M102.4,156.6c0.8,0,1.6-0.1,2.4-0.2c2.9-0.4,5.5-1.7,7.8-3.8c0.2-0.3,0.5-0.5,0.7-0.7
			c2.4-2.5,3.7-5.4,3.7-8.7c0-0.8-0.1-1.4-0.3-2.2L88,145.7c0.5,2.6,1.9,5,4.1,7c0.8,0.8,1.8,1.5,2.7,2.1
			C97.1,156,99.7,156.6,102.4,156.6"/>
		<path class="st38" d="M98.7,170c-1.3-0.1-2.5-0.3-3.9-0.5c-8.1-1.2-15.9-3.1-23.3-5.7c-0.1,0-0.2,0-0.2,0"/>
		<path class="st38" d="M67.7,123.4c-0.2,1.4-0.5,2.6-0.6,4c-1.5,9.4-2.3,19.5-2.3,30.2c-0.1,2.4,0.9,4,3.1,5
			c1.1,0.4,2.2,0.8,3.4,1.3"/>
		<path class="st38" d="M71.4,163.8c-0.5,1.3-1.2,3.1-2.3,5.2c-0.9,2.1-2.3,3.8-4.3,5c10.9,3.9,21,3.5,30.1-1.4
			c1.3-0.8,2.5-1.6,3.9-2.5"/>
		<path class="st38" d="M101,170.3c-1.8,2.8-3.8,5.4-6.1,7.9c-0.7,0.7-1.3,1.4-2.1,2.1c-3.5,3.3-7.7,6.2-12.4,8.7l0,0"/>
		<path class="st38" d="M92.1,196.5C92.1,196.4,92.1,196.4,92.1,196.5c0.6-3.1,1.3-6.1,2.3-9.2c0.1-0.3,0.2-0.5,0.2-0.8
			c0.2-0.2,0.3-0.5,0.3-0.7"/>
		<path class="st38" d="M132.4,170.4c-3.5,0.4-6.9,0.6-10.1,0.7c-5.6,0.1-11.2,0.1-16.4-0.4c-1.6-0.1-3.3-0.3-4.8-0.4"/>
		<path class="st39" d="M80.8,201.3c0.3-0.8,0.6-1.5,0.7-2.4c0.8-3.4,0.7-6.4-0.5-8.7l0,0c-0.1-0.5-0.4-0.8-0.6-1.1"/>
		<path class="st40" d="M92.1,196.5c-0.2,0-0.3,0.1-0.4,0.2c-3.4,2.6-7,4.2-10.9,4.6l-13.3-11.8c6.5-5.3,11.8-2.2,13-0.5"/>
		<path class="st38" d="M98.7,170c0.8,0.1,1.4,0.2,2.3,0.3"/>
		<path class="st38" d="M132.4,170.4c2.2-0.2,4.4-0.4,6.6-0.7c2.5-0.3,5.2-0.7,7.7-1c2.2-0.4,4.2-0.7,6.4-1.1"/>
		<path class="st38" d="M163.1,195.7c0.4-0.6,0.4-1.1,0-1.8c-0.5-0.9-1.9-1.9-3.9-2.7c-2.2-0.8-4.4-1.4-6.9-1.6
			c-2.8-4.8-6.8-9.3-11.7-13.2c-0.9-0.8-1.9-1.6-2.8-2.3c-1.8-1.3-3.5-2.4-5.4-3.7"/>
		<path class="st38" d="M92.1,196.5c-1.8,9.7-0.8,18.7,2.8,27c1,2.3,2.3,4.7,3.8,7l-4.6,2.8h6.7h5.6h2l3.5-9.1
			c1.3-3.6,3.3-5.4,5.8-5.5s5.2,2.2,8,6.8s5.2,7.8,7,9.7h6h12.2l-3.8-2.4l-15.6-47.7l0.4,0.4l12.9,11.5c-0.8,7.2,1,7.9,5.6,2.2
			c0.5-0.1,0.8-0.1,1.2-0.1c3.8-0.4,6.7-0.8,8.6-1.4"/>
		<path class="st38" d="M160.3,197.4c1.4-0.5,2.4-1.1,2.8-1.7"/>
		<line class="st38" x1="163.1" y1="195.7" x2="155.5" y2="192.8"/>
		<line class="st38" x1="152.7" y1="195.8" x2="160.3" y2="197.4"/>
	</g>
	<g id="hat_9_">
		<path class="st41" d="M64.6,101.6c0,0-8-9.7-14.2-15.2s-15.1-9.5,9.9-32.1c16.1-14.6,44.5-16,67.5-12.7
			c25.7,3.7,69.7,20.8,63.5,34.3c-9.2,20-15,24.3-14.4,36.1c0.2,3.3-1.4,1.2-1.4,1.2s-38.1-6.8-64.5-9.2S75.4,114,75.4,114
			L64.6,101.6z"/>
		<path class="st42" d="M168.5,53.5c4.9,39.2-12.2,46.9-38.8,46.9c-25.8,0-64.9-20.9-67.5-47.4c-0.8,0.6-1.6,1.3-2.4,1.9
			c-26,21.5-16.1,26.6-9.9,32.1s14.2,15.2,14.2,15.2l10,12.5c0,0,10-12.5,36.4-10.2s64.5,8.8,64.5,8.8s2.3,1.7,2.2-1.6
			c-0.7-11.8,4.4-15.4,13.6-35.3C194.3,69,185.7,61.6,168.5,53.5z"/>
		<path d="M60.6,120.7c-0.3,0-0.6-0.1-0.9-0.2c-1.8-0.9-2.9-2.3-3-3.9c-0.5-4.7,6.3-10.6,8.2-12.1l-6.3-8.2l0.2-0.3
			c0.2-0.3,6.9-9.1,40.1-14.3c3.6-0.6,7.5-0.8,11.6-0.8c31.5,0,68.9,16.3,69.3,16.5l0.5,0.2l-3.4,17l-0.7-0.1
			c-0.3-0.1-32.2-6.6-52.1-6.6c-2.8,0-5.3,0.1-7.4,0.4c-40.6,5.2-50.8,10.2-54.1,11.9C61.7,120.4,61.2,120.7,60.6,120.7z"/>
		<path class="st28" d="M179.5,97.8l-3.1,15.8c0,0-41.4-8.5-59.8-6.2c-55.1,7-54.1,13.7-56.7,12.4c-8.4-4.3,5.7-15.3,5.7-15.3
			l-5.2-9.9c0,0,5.2-7.3,38.5-12.5S179.5,97.8,179.5,97.8z"/>
		<path class="st28" d="M179.5,97.8l-3.1,15.8c0,0-41.4-8.5-59.8-6.2c-55.1,7-54.1,13.7-56.7,12.4c-8.4-4.3,5.7-15.3,5.7-15.3
			l-6.4-8.7c0,0,6.4-8.4,39.6-13.6S179.5,97.8,179.5,97.8z"/>
		<g>
			<polygon points="84.6,99.5 84.6,99.5 84.5,99.5 83.6,99.3 83.8,98.9 73.2,91 71.1,70.8 96.8,67 97.4,67 101.1,68.2 101.8,92.1 
				88.1,100.3 			"/>
			<polygon class="st43" points="99.7,69.8 96.6,69.4 96.6,69.4 71.9,71.3 73.9,90.7 84.6,98.7 84.6,98.7 84.6,98.9 88,99.7 
				101.1,91.8 			"/>
			<polygon class="st44" points="101.1,91.8 100.4,68.7 97,67.8 84.6,98.9 88,99.7 			"/>
			<polygon class="st43" points="71.9,71.3 73.9,90.7 84.6,98.7 85.9,97.8 97.3,90.4 97,67.9 			"/>
		</g>
		<path class="st45" d="M118.3,87l0.3,13.7c0,0,10.6-0.4,22.3,1.4s24.3,4.2,24.3,4.2s-8.4-2.7-12.5-6.6
			C147.3,94.5,148.8,87,118.3,87z"/>
		<path class="st31" d="M123.7,104.3c0,0-23.4,0.7-41.2,5.2c-19.1,4.8-19.9,9-21.7,6.6s-2-10,19.2-12.5
			C103.5,100.9,123.7,104.3,123.7,104.3z"/>
	</g>
	<g>
		<path class="st28" d="M68.6,220c-5.5,0-11.2-2.4-16-6.1c-10-7.7-13.3-20.4-7.5-28c2.8-3.7,7.4-5.8,12.8-5.8c5.5,0,11.2,2,16,5.8
			c4.8,3.7,8.3,8.6,9.7,13.8c1.4,5.3,0.7,10.6-2.2,14.3C78.6,217.7,74,220,68.6,220C68.6,220,68.6,220,68.6,220z M61.4,192.2
			c-0.8,0-2,0.2-2.7,1.1c-1.4,1.8,0,5.3,3.1,7.6c1.8,1.4,3.8,2.1,5.5,2.1c0.8,0,2-0.2,2.7-1.1c1.4-1.8,0-5.3-3.1-7.6
			C65.1,193,63.1,192.2,61.4,192.2z"/>
		<path class="st46" d="M73.5,186.4c-9.7-7.5-22.1-7.6-27.7-0.3c-5.6,7.3-2.4,19.3,7.3,26.8c9.7,7.5,22.1,7.6,27.7,0.3
			C86.5,205.9,83.2,193.9,73.5,186.4z M61.4,201.5c-3.4-2.6-4.9-6.5-3.2-8.7c1.7-2.1,5.8-1.7,9.2,0.9s4.9,6.5,3.2,8.7
			C68.9,204.6,64.8,204.2,61.4,201.5z"/>
		<g>
			<path class="st47" d="M76.8,194.3c0,0-0.8-4.4-4.8-7.2c-3.9-2.8-6.7-2.8-6.7-2.8s-1.6-2.6-5.9-2.5c-2,0-5.7-0.3-6.6,0.9
				C52,184,52,184,52,184s-1.3-0.1-1.9,1.8c-0.5,1.9-0.3,3.2-0.3,3.2s-5.5-0.2-4.1,7.6c1.3,7.8,4.8,7,4.8,7s1.6,3.8,4.6,6.5
				c3,2.7,5.4,0,5.4,0s-0.4,1.3,1.3,2.3c1.8,0.9,1.5,0,1.5,0s1.3,2.7,3.6,3.2c2.3,0.5,4.4-2,4.4-2s2.4,2.1,3.6,1.3
				c1.2-0.8,1.2-2.7,1.2-2.7s1.5,1.9,2.8-0.9c1.3-2.8,1.2-5,1.2-5s0.9,0.1,1.1-2.2C81.5,201.7,80.3,196.4,76.8,194.3z M73,200.8
				c0,0-0.5-0.9-1.3,1.5c-0.8,2.4-1.1,2.7-1.1,2.7s0,0-1.5-0.3c-1.5-0.3-3.5,0.9-3.5,0.9s-0.5-1.6-1.8-2.8s-2.4-0.7-2.4-0.7
				s-1.3-1.8-2.3-2.7c-0.9-0.9-2.3-1.1-2.3-1.1s0.1-2.4,0-3.9c-0.1-1.5-2-1.2-2-1.2c1.6-0.8,3.8-4.4,3.8-4.4s1.5,0.3,3.2,0.9
				c1.8,0.5,3.5-0.4,3.5-0.4s1.4,2.1,3.1,3.1c1.6,0.9,4,1.2,4,1.2s0,0.3,0.6,2.3C73.5,198,73,200.8,73,200.8z"/>
			<ellipse class="st48" cx="65.4" cy="185.3" rx="0.5" ry="1.7"/>
			
				<ellipse transform="matrix(0.7469 -0.6649 0.6649 0.7469 -108.3568 88.7022)" class="st48" cx="62.3" cy="186.7" rx="0.5" ry="2.3"/>
			
				<ellipse transform="matrix(0.9186 -0.3952 0.3952 0.9186 -67.7115 37.722)" class="st48" cx="57.7" cy="183.2" rx="2.3" ry="0.5"/>
			<ellipse class="st48" cx="79.3" cy="209.9" rx="0.5" ry="2.3"/>
			<ellipse class="st48" cx="64.3" cy="207.6" rx="0.5" ry="2.3"/>
			<path class="st48" d="M71.4,213c0,1.3-1.8,1.2-2.1,1.2c-0.3,0,1,0.1,1-1.2s0.2-2.3,0.5-2.3C71.1,210.6,71.4,211.7,71.4,213z"/>
			
				<ellipse transform="matrix(0.5151 -0.8571 0.8571 0.5151 -145.1859 146.1146)" class="st48" cx="56.5" cy="201.4" rx="2.3" ry="0.5"/>
			
				<ellipse transform="matrix(0.7524 -0.6587 0.6587 0.7524 -123.7046 92.2056)" class="st48" cx="60.8" cy="210.6" rx="2.3" ry="0.5"/>
			
				<ellipse transform="matrix(0.6877 -0.726 0.726 0.6877 -131.0875 115.0081)" class="st49" cx="68.1" cy="209.9" rx="2.3" ry="0.5"/>
			<ellipse class="st48" cx="74.3" cy="210.6" rx="0.5" ry="2.3"/>
			<ellipse class="st49" cx="75.9" cy="206.4" rx="0.5" ry="2.3"/>
			
				<ellipse transform="matrix(0.9002 -0.4354 0.4354 0.9002 -75.7715 49.4026)" class="st49" cx="69.9" cy="190" rx="1.7" ry="0.5"/>
			
				<ellipse transform="matrix(0.4527 -0.8917 0.8917 0.4527 -132.2405 174.729)" class="st50" cx="76.2" cy="195.1" rx="0.4" ry="1.8"/>
			
				<ellipse transform="matrix(0.989 -0.1479 0.1479 0.989 -28.6478 13.4661)" class="st50" cx="76.2" cy="199.3" rx="0.4" ry="1.8"/>
			
				<ellipse transform="matrix(0.8148 -0.5797 0.5797 0.8148 -96.9625 78.8466)" class="st48" cx="74.9" cy="191.2" rx="1.7" ry="0.5"/>
			
				<ellipse transform="matrix(0.8253 -0.5647 0.5647 0.8253 -100.6766 80.138)" class="st48" cx="79.2" cy="202.8" rx="0.5" ry="1.7"/>
			
				<ellipse transform="matrix(0.5823 -0.813 0.813 0.5823 -129.7265 121.4293)" class="st48" cx="53.3" cy="186.9" rx="0.5" ry="1.7"/>
			
				<ellipse transform="matrix(0.3373 -0.9414 0.9414 0.3373 -147.7339 177.9474)" class="st50" cx="52.5" cy="193.9" rx="0.5" ry="1.7"/>
			
				<ellipse transform="matrix(0.5823 -0.813 0.813 0.5823 -135.2812 119.1207)" class="st48" cx="48.3" cy="191.2" rx="0.5" ry="1.7"/>
			
				<ellipse transform="matrix(0.5823 -0.813 0.813 0.5823 -132.5629 122.0924)" class="st51" cx="52.5" cy="190" rx="0.5" ry="1.7"/>
			
				<ellipse transform="matrix(0.5823 -0.813 0.813 0.5823 -127.1783 123.297)" class="st50" cx="56.4" cy="185.4" rx="0.5" ry="1.7"/>
			
				<ellipse transform="matrix(0.5823 -0.813 0.813 0.5823 -122.4879 133.1982)" class="st50" cx="68.4" cy="185.8" rx="0.5" ry="1.7"/>
			
				<ellipse transform="matrix(0.9355 -0.3532 0.3532 0.9355 -61.7158 33.3952)" class="st49" cx="60.6" cy="185.8" rx="1.7" ry="0.5"/>
			
				<ellipse transform="matrix(0.5823 -0.813 0.813 0.5823 -139.0428 121.8478)" class="st49" cx="49" cy="196.2" rx="0.5" ry="1.7"/>
			
				<ellipse transform="matrix(0.5823 -0.813 0.813 0.5823 -145.0869 132.499)" class="st50" cx="56.4" cy="207.4" rx="0.5" ry="1.7"/>
			
				<ellipse transform="matrix(0.2047 -0.9788 0.9788 0.2047 -154.3855 220.2211)" class="st50" cx="58.3" cy="205.1" rx="1.7" ry="0.5"/>
			
				<ellipse transform="matrix(0.9393 -0.3432 0.3432 0.9393 -65.3032 30.423)" class="st50" cx="53.3" cy="199.7" rx="0.5" ry="1.7"/>
			
				<ellipse transform="matrix(0.2047 -0.9788 0.9788 0.2047 -141.2638 234.0515)" class="st50" cx="73.4" cy="204" rx="1.7" ry="0.5"/>
			
				<ellipse transform="matrix(0.5016 -0.8651 0.8651 0.5016 -149.2696 143.4014)" class="st50" cx="49.8" cy="201.2" rx="1.7" ry="0.5"/>
		</g>
	</g>
</g>
</svg>
