<svg width="35" height="35" viewBox="0 0 35 35" fill="none" xmlns="http://www.w3.org/2000/svg">
<path fill-rule="evenodd" clip-rule="evenodd" d="M17.5 35C27.165 35 35 27.165 35 17.5C35 7.83502 27.165 0 17.5 0C7.83502 0 0 7.83502 0 17.5C0 27.165 7.83502 35 17.5 35ZM26.1365 11.4203C26.3961 12.1091 26.5338 12.8378 26.5436 13.5738C26.5978 14.4996 26.5981 14.8023 26.6 17.1457L26.6 17.1782C26.6 19.5523 26.5874 19.8487 26.5456 20.7835C26.531 21.5114 26.394 22.2286 26.1384 22.9088C25.913 23.4897 25.5691 24.0172 25.1286 24.4577C24.688 24.8983 24.1605 25.2422 23.5797 25.4676C22.8998 25.7227 22.1814 25.8604 21.4553 25.8747C20.5273 25.9291 20.2231 25.9291 17.85 25.9291C15.4769 25.9291 15.1805 25.9165 14.2447 25.8747C13.5171 25.8508 12.7991 25.7029 12.1213 25.4374C11.5402 25.2125 11.0125 24.8689 10.5717 24.4285C10.131 23.9881 9.78694 23.4606 9.5616 22.8797C9.30602 22.1984 9.169 21.4813 9.15442 20.7544C9.1 19.8253 9.1 19.5221 9.1 17.149C9.1 14.7759 9.11263 14.4795 9.15442 13.5437C9.16815 12.8179 9.30586 12.0997 9.5616 11.4203C9.78656 10.8392 10.1303 10.3115 10.5709 9.87093C11.0115 9.43034 11.5393 9.08656 12.1203 8.8616C12.7999 8.60647 13.5179 8.46847 14.2437 8.45345C15.1717 8.4 15.4759 8.4 17.849 8.4C20.2221 8.4 20.5185 8.41166 21.4534 8.45345C22.1795 8.46836 22.8978 8.60637 23.5777 8.8616C24.1587 9.08672 24.6864 9.43055 25.1269 9.87113C25.5675 10.3117 25.9113 10.8393 26.1365 11.4203ZM13.3506 17.1442C13.3506 19.6261 15.3612 21.6368 17.8432 21.6368C19.0347 21.6368 20.1774 21.1634 21.0199 20.3209C21.8625 19.4784 22.3358 18.3357 22.3358 17.1442C22.3358 15.9527 21.8625 14.81 21.0199 13.9674C20.1774 13.1249 19.0347 12.6516 17.8432 12.6516C15.3612 12.6516 13.3506 14.6622 13.3506 17.1442ZM21.467 12.4854C21.467 13.0646 21.9344 13.533 22.5146 13.533C23.0928 13.533 23.5612 13.0646 23.5612 12.4854C23.5612 12.3479 23.5341 12.2117 23.4815 12.0847C23.4289 11.9577 23.3518 11.8422 23.2545 11.745C23.1573 11.6478 23.0419 11.5706 22.9148 11.518C22.7878 11.4654 22.6516 11.4383 22.5141 11.4383C22.3766 11.4383 22.2404 11.4654 22.1134 11.518C21.9864 11.5706 21.8709 11.6478 21.7737 11.745C21.6765 11.8422 21.5993 11.9577 21.5467 12.0847C21.4941 12.2117 21.467 12.3479 21.467 12.4854ZM20.7616 17.1442C20.7616 18.7559 19.455 20.0625 17.8433 20.0625C16.2316 20.0625 14.925 18.7559 14.925 17.1442C14.925 15.5325 16.2316 14.2259 17.8433 14.2259C19.455 14.2259 20.7616 15.5325 20.7616 17.1442Z" fill="white"/>
</svg>
