<?xml version="1.0" encoding="utf-8"?>
<!-- Generator: Adobe Illustrator 20.1.0, SVG Export Plug-In . SVG Version: 6.00 Build 0)  -->
<svg version="1.1" id="Layer_1" xmlns="http://www.w3.org/2000/svg" xmlns:xlink="http://www.w3.org/1999/xlink" x="0px" y="0px"
	 viewBox="0 0 230 280" style="enable-background:new 0 0 230 280;" xml:space="preserve">
<style type="text/css">
	.st0{fill:#010101;fill-opacity:0.1216;}
	.st1{fill:#414141;}
	.st2{fill:none;stroke:#010101;stroke-width:5.7309;stroke-linecap:round;stroke-linejoin:round;}
	.st3{fill:#2B2C2B;}
	.st4{fill:#4E4E4E;}
	.st5{fill:#989898;}
	.st6{fill:#7D6849;}
	.st7{fill:#787878;}
	.st8{fill:#AFAFAF;}
	.st9{fill:#818180;}
	.st10{fill:none;stroke:#010101;stroke-width:0.9169;stroke-linecap:round;stroke-linejoin:round;}
	.st11{fill:#272626;}
	.st12{fill:#1A1A1A;}
	.st13{fill:#F47B5D;}
	.st14{fill:#FFD169;}
	.st15{fill:#010101;}
</style>
<g>
	<g transform="matrix( 1, 0, 0, 1, -21.25,31) ">
		<g>
			<g id="Layer0_1_MEMBER_0_FILL_7_">
				<path class="st0" d="M103.7,190.4c13.2,2,29.1,3,47.6,3c18.6,0,34.5-1,47.6-3c13.1-1.9,19.7-4.2,19.7-7c0-2.7-6.6-5-19.7-7
					c-13.1-1.9-29-2.9-47.6-2.9c-18.6,0-34.5,1-47.6,2.9c-13.1,2-19.7,4.3-19.7,7C84,186.2,90.6,188.5,103.7,190.4z"/>
			</g>
		</g>
	</g>
	<g transform="matrix( 1, 0, 0, 1, 67.1,8.75) ">
		<g>
			<g id="Layer0_1_MEMBER_1_FILL_9_">
				<path class="st1" d="M-47.2,56.8l-7,8.8l29.7,64.3l-4.1,2.4l5.3,3.7l2-1.2l0,0.1c-1.1,0.4-1.5,1.2-1.2,2.4
					c0.3,1.4,1.5,3.3,3.7,5.8c0.7,0.9,1.5,0.9,2.2,0.1c0.1-0.1,0.2-0.2,0.2-0.2l2.2,3.7l6.4-3.8c11.2,5.4,21.2,8.5,29.9,9.4
					c5,3.5,10.6,6,16.6,7.7l6.6,15.3c-9.4,4.1-13.1,12.1-11,24.2c0.3,1.7-0.9,3.3-3.6,4.7h19.7c4.4-11.4,10.6-16.3,18.7-14.9
					c2.1,0.4,4.4,1.3,6.9,2.6l16.8,9.1h24.8c-3.8-1.6-6.9-3.3-9.4-5.4l-26.9-21.3c10.1-1.3,18-1.2,23.7,0.2c4.5,1.7,7.1,2.2,7.8,1.5
					c0.5-0.4,0.5-0.9,0.1-1.7c-0.5-0.9-1.4-2.1-2.9-3.6c2.3-1.4,5-2.7,8-3.9c1.4-1.1,1-2-1.3-2.7c-4.6-0.8-9,0.1-13,2.7
					c-4.6-3.1-10.6-5.6-18-7.6c6.8-2.2,13-5.8,18.6-10.6c4-3.5,7.2-7.2,9.7-11.1c3.4-4.1,5.8-8.6,7.3-13.3c0,0,0-0.1,0-0.1
					c0.2-0.9,0.4-1.8,0.6-2.7c0.9,0.3,1.7,0.6,2.7,0.7c2.7,0.5,5.4,0.4,8.3-0.4l3.1-0.8c5-1.4,8.9-4.3,11.5-8.8
					c2.6-4.5,3.3-9.3,1.9-14.3l0,0c-1.3-5-4.3-8.9-8.8-11.5c-4.5-2.6-9.3-3.2-14.3-1.8l-3.1,0.8c-1,0.3-1.9,0.6-2.8,1
					c-0.6,0.2-1.1,0.5-1.7,0.8c-3-7-7.4-13.4-13.4-19.1c-11.9-11.4-26.2-17.1-43-17.1c-16.8,0-31.2,5.7-43.1,17.1
					c-2.1,2-4,4.2-5.8,6.4c-0.6-0.2-1.1-0.4-1.7-0.6l-3.1-0.8c-3.1-0.8-6.2-0.8-9.2,0c-1.8,0.5-3.6,1.3-5.3,2.4
					c-4.6,3-7.7,7.2-9.2,12.8v0c-1.5,5.6-1,10.8,1.5,15.7c2.2,4.4,5.4,7.3,9.7,8.8c0.5,0.2,1.1,0.4,1.6,0.5l3.1,0.8
					c0.2,0.1,0.5,0.1,0.7,0.2c0,0.3,0.1,0.7,0.1,1.1c0,0.2,0,0.5,0,0.8c0,2.9,0.3,5.7,0.8,8.4c0.6,2.9,1.5,5.7,2.7,8.4l-10.7-0.9
					c-2.2-2.6-4.5-3.5-6.8-2.7l0.2-0.1l-1.6-5.7l-2.8,1.7L-47.2,56.8z"/>
			</g>
		</g>
		<g>
			<path id="Layer0_1_MEMBER_1_1_STROKES_9_" class="st2" d="M-54.2,65.6l29.7,64.3l-4.1,2.4l5.3,3.7l2-1.2l0,0.1
				c-1.1,0.4-1.5,1.2-1.2,2.4c0.3,1.4,1.5,3.3,3.7,5.8c0.7,0.9,1.5,0.9,2.2,0.1c0.1-0.1,0.2-0.2,0.2-0.2l2.2,3.7l6.4-3.8
				c11.2,5.4,21.2,8.5,29.9,9.4c5,3.5,10.6,6,16.6,7.7l6.6,15.3c-9.4,4.1-13.1,12.1-11,24.2c0.3,1.7-0.9,3.3-3.6,4.7h19.7
				c4.4-11.4,10.6-16.3,18.7-14.9c2.1,0.4,4.4,1.3,6.9,2.6l16.8,9.1h24.8c-3.8-1.6-6.9-3.3-9.4-5.4l-26.9-21.3
				c10.1-1.3,18-1.2,23.7,0.2c4.5,1.7,7.1,2.2,7.8,1.5c0.5-0.4,0.5-0.9,0.1-1.7c-0.5-0.9-1.4-2.1-2.9-3.6c2.3-1.4,5-2.7,8-3.9
				c1.4-1.1,1-2-1.3-2.7c-4.6-0.8-9,0.1-13,2.7c-4.6-3.1-10.6-5.6-18-7.6c6.8-2.2,13-5.8,18.6-10.6c4-3.5,7.2-7.2,9.7-11.1
				c3.4-4.1,5.8-8.6,7.3-13.3c0,0,0-0.1,0-0.1c0.2-0.9,0.4-1.8,0.6-2.7c0.9,0.3,1.7,0.6,2.7,0.7c2.7,0.5,5.4,0.4,8.3-0.4l3.1-0.8
				c5-1.4,8.9-4.3,11.5-8.8c2.6-4.5,3.3-9.3,1.9-14.3l0,0c-1.3-5-4.3-8.9-8.8-11.5c-4.5-2.6-9.3-3.2-14.3-1.8l-3.1,0.8
				c-1,0.3-1.9,0.6-2.8,1c-0.6,0.2-1.1,0.5-1.7,0.8c-3-7-7.4-13.4-13.4-19.1c-11.9-11.4-26.2-17.1-43-17.1
				c-16.8,0-31.2,5.7-43.1,17.1c-2.1,2-4,4.2-5.8,6.4c-0.6-0.2-1.1-0.4-1.7-0.6l-3.1-0.8c-3.1-0.8-6.2-0.8-9.2,0
				c-1.8,0.5-3.6,1.3-5.3,2.4c-4.6,3-7.7,7.2-9.2,12.8v0c-1.5,5.6-1,10.8,1.5,15.7c2.2,4.4,5.4,7.3,9.7,8.8c0.5,0.2,1.1,0.4,1.6,0.5
				l3.1,0.8c0.2,0.1,0.5,0.1,0.7,0.2c0,0.3,0.1,0.7,0.1,1.1c0,0.2,0,0.5,0,0.8c0,2.9,0.3,5.7,0.8,8.4c0.6,2.9,1.5,5.7,2.7,8.4
				l-10.7-0.9c-2.2-2.6-4.5-3.5-6.8-2.7l0.2-0.1l-1.6-5.7l-2.8,1.7l-30.9-68.4L-54.2,65.6z"/>
		</g>
	</g>
	<g transform="matrix( 1, 0, 0, 1, -21.25,31) ">
		<g>
			<g id="Layer0_1_MEMBER_2_MEMBER_0_MEMBER_0_FILL_8_">
				<path class="st3" d="M73.1,118.8c-2.3,0.6-4.8-0.6-7.3-3.5c0.3,1.4,1.5,3.3,3.7,5.8c0.7,0.9,1.5,0.9,2.2,0.1
					c0.1-0.1,0.2-0.2,0.2-0.2C72.4,120.4,72.8,119.7,73.1,118.8 M67.9,112.5C67.9,112.5,67.9,112.5,67.9,112.5
					c1,2.8,2.9,4.3,5.7,4.5c0.2-1,0.2-1.8,0.2-2.6c-0.2,0-0.3,0.1-0.4,0.1c-2.5,0.6-3.3-0.2-2.6-2.3v-0.1
					C70,112.2,69,112.3,67.9,112.5 M73.7,108.6l-0.9,0.6c-0.9,0.9-1.6,1.9-2,3c0,0,0,0.1,0,0.1c-0.7,2.2,0.1,2.9,2.6,2.3
					c0.1-0.1,0.3-0.1,0.4-0.1c2.2-0.5,3.6-0.8,4.1-0.7l4,6.3l-1.3,0.8c12,5.7,22.5,8.9,31.6,9.6l-2.1-2.4
					c-8.1-1.2-16.9-4.6-26.5-10.4l0.3,0.5l-4-6.3c-0.5,0-1.9,0.2-4.1,0.7c-0.2,0-0.3,0.1-0.4,0.1c-2.5,0.6-3.3-0.2-2.6-2.4
					C73.1,109.6,73.4,109.1,73.7,108.6z"/>
				<path class="st1" d="M70.8,112.1L70.8,112.1C70.8,112.2,70.8,112.2,70.8,112.1L70.8,112.1 M67.1,112.8c-1.1,0.4-1.5,1.2-1.2,2.4
					c2.5,2.9,5,4.1,7.3,3.5c0.2-0.4,0.3-0.8,0.4-1.3c0-0.1,0.1-0.2,0.1-0.4c-2.8-0.2-4.7-1.7-5.8-4.5
					C67.5,112.6,67.3,112.7,67.1,112.8 M76.1,107.1l-2.4,1.5c-0.3,0.5-0.6,1-0.8,1.7c-0.8,2.2,0.1,3,2.6,2.4
					c0.1-0.1,0.3-0.1,0.4-0.1c2.2-0.5,3.6-0.8,4.1-0.7l4,6.3l-0.3-0.5c9.5,5.7,18.3,9.2,26.5,10.4l-15.4-17.2l-11.9-1
					C80.7,107.2,78.4,106.3,76.1,107.1 M74.7,107.7c-0.2,0.1-0.5,0.3-0.7,0.4c-0.5,0.3-0.9,0.6-1.2,1l0.9-0.6l2.4-1.5
					c-0.2,0-0.3,0.1-0.5,0.2C75.3,107.4,75,107.6,74.7,107.7z"/>
				<path class="st4" d="M77.9,113.7c-0.5,0-1.9,0.2-4.1,0.7c0.1,0.8,0,1.6-0.2,2.6c0,0.1-0.1,0.2-0.1,0.4c-0.1,0.5-0.3,0.9-0.4,1.3
					c-0.3,0.9-0.7,1.6-1.1,2.2l2.2,3.7l6.4-3.8l1.3-0.8L77.9,113.7 M75.1,118l3.3-0.3l-1.2,2.8l-3.3,0.2L75.1,118 M67.8,112.6
					C67.9,112.5,67.9,112.5,67.8,112.6c1.2-0.3,2.2-0.4,3-0.4h0c0.4-1.2,1.1-2.2,2-3l-5.8,3.5l0,0.1
					C67.3,112.7,67.5,112.6,67.8,112.6z"/>
				<path class="st5" d="M78.4,117.7l-3.3,0.3l-1.3,2.8l3.3-0.2L78.4,117.7z"/>
				<path class="st6" d="M61.1,101.8l2.8,5.9l8.1-4.8l-2.6-5.8l-4.1,2.3L61.1,101.8z"/>
				<path class="st7" d="M74,108.2c0.2-0.2,0.4-0.3,0.7-0.4c0.3-0.2,0.6-0.3,1-0.5c0.2-0.1,0.3-0.2,0.5-0.2l0.2-0.1l-1.6-5.7
					l-2.8,1.7l-8.1,4.8l-4.1,2.4l5.3,3.7l2-1.2l5.8-3.5C73.2,108.8,73.6,108.4,74,108.2z"/>
				<path class="st8" d="M41.1,34.6L37.7,39l27.6,60.5l4.1-2.3L41.1,34.6z"/>
				<path class="st9" d="M37.7,39l-3.5,4.4l27,58.4l4.1-2.3L37.7,39z"/>
			</g>
		</g>
		<g>
			<path id="Layer0_1_MEMBER_2_MEMBER_0_MEMBER_0_1_STROKES_8_" class="st10" d="M37.7,39l-3.5,4.4l27,58.4 M37.7,39l3.5-4.4
				l28.2,62.6l2.6,5.8l2.8-1.7l1.6,5.7l-0.2,0.1c2.3-0.8,4.6,0.1,6.8,2.7l11.9,1 M112.3,130.4c-9.1-0.6-19.7-3.8-31.6-9.6l-6.4,3.8
				l-2.2-3.7c-0.1,0.1-0.1,0.1-0.2,0.2c-0.8,0.8-1.5,0.7-2.2-0.1c-2.1-2.4-3.4-4.4-3.7-5.8c-0.2-1.2,0.2-2,1.2-2.4l0-0.1l-2,1.2
				l-5.3-3.7l4.1-2.4l-2.8-5.9 M76.1,107.1c-0.2,0-0.3,0.1-0.5,0.2c-0.3,0.1-0.7,0.3-1,0.5c-0.2,0.1-0.5,0.3-0.7,0.4
				c-0.5,0.3-0.9,0.6-1.2,1l0.9-0.6L76.1,107.1z M70.8,112.1c-0.8,0-1.8,0.2-2.9,0.4c0,0-0.1,0-0.1,0 M73.6,117.1
				c0.2-1,0.2-1.8,0.2-2.6c-0.2,0-0.3,0.1-0.4,0.1c-2.5,0.6-3.3-0.2-2.6-2.3 M70.8,112.1L70.8,112.1c0.4-1.2,1.1-2.2,2-3l-5.8,3.5
				 M67.8,112.6c-0.3,0-0.5,0.1-0.7,0.2 M73.8,114.4c2.2-0.5,3.6-0.8,4.1-0.7l4,6.3l-1.3,0.8 M70.9,112.1
				C70.8,112.2,70.8,112.2,70.9,112.1 M73.1,118.8c0.2-0.4,0.3-0.8,0.4-1.3c0-0.1,0.1-0.2,0.1-0.4 M63.9,107.7l8.1-4.8 M73.1,118.8
				c-0.3,0.9-0.7,1.6-1.1,2.2"/>
		</g>
		<g>
			<path id="Layer0_1_MEMBER_2_MEMBER_0_MEMBER_0_2_STROKES_8_" class="st10" d="M94.8,110.8l15.4,17.2l2.1,2.4"/>
		</g>
	</g>
	<g transform="matrix( 1, 0, 0, 1, -21.25,31) ">
		<g>
			<g id="Layer0_1_MEMBER_2_MEMBER_0_MEMBER_1_FILL_9_">
				<path class="st1" d="M87.9,50.7c-1.8,0.5-3.6,1.3-5.3,2.4c-4.6,3-7.7,7.2-9.2,12.8v0c-1.5,5.6-1,10.8,1.5,15.7
					c2.2,4.4,5.4,7.3,9.7,8.8c0.5,0.2,1.1,0.4,1.6,0.5c-1.6-14.9,2-28.3,10.8-40.3C93.9,49.8,90.8,49.8,87.9,50.7z"/>
				<path class="st3" d="M111.5,60.9c-2.5-4.9-6.3-8-11.3-9.4L97,50.7c-8.8,12-12.4,25.5-10.8,40.3l3.1,0.8c5,1.4,9.9,0.6,14.5-2.4
					c4.6-3,7.7-7.3,9.2-12.8v0C114.5,71,114,65.8,111.5,60.9z"/>
			</g>
		</g>
		<g>
			<path id="Layer0_1_MEMBER_2_MEMBER_0_MEMBER_1_1_STROKES_9_" class="st10" d="M97,50.7l3.1,0.8c5,1.4,8.8,4.5,11.3,9.4
				c2.5,4.9,3,10.1,1.5,15.7v0c-1.5,5.6-4.6,9.8-9.2,12.8c-4.6,3-9.4,3.8-14.5,2.4L86.2,91c-0.6-0.2-1.1-0.3-1.6-0.5
				c-4.3-1.5-7.5-4.5-9.7-8.8c-2.5-4.9-3-10.1-1.5-15.7v0c1.5-5.6,4.6-9.9,9.2-12.8c1.7-1.1,3.5-1.9,5.3-2.4
				C90.8,49.8,93.9,49.8,97,50.7z"/>
		</g>
	</g>
	<g transform="matrix( 1, 0, 0, 1, -21.25,31) ">
		<g>
			<g id="Layer0_1_MEMBER_2_MEMBER_0_MEMBER_2_FILL_9_">
				<path class="st3" d="M169.7,169.7c-4.5-2.4-8.5-3.3-12.1-2.6c2.1,0.4,4.4,1.3,6.9,2.6l16.8,9.1h5.2L169.7,169.7 M131.2,133.9
					H131l-5.8-0.3l8.5,19.6c-9.4,4.1-13.1,12.1-11,24.2c0.3,1.7-0.9,3.3-3.6,4.7h5.8c2.7-1.5,3.9-3,3.6-4.7c-2-12,1.6-20.1,11-24.2
					L131.2,133.9z"/>
				<path class="st1" d="M193.5,152.4c4.5,1.7,7.1,2.2,7.8,1.5c0.5-0.4,0.5-0.9,0.1-1.7c-0.5-0.9-1.4-2.1-2.9-3.6
					c2.3-1.4,5-2.7,8-3.9c1.4-1.1,1-2-1.3-2.7c-4.6-0.8-9,0.1-13,2.7c-5.4-3.7-12.9-6.6-22.5-8.7l-38.5-2l8.3,19.3
					c-9.4,4.1-13.1,12.1-11,24.2c0.3,1.7-0.9,3.3-3.6,4.7h13.9c4.4-11.4,10.6-16.3,18.7-14.9c3.6-0.7,7.6,0.1,12.1,2.6l16.8,9.1
					h19.7c-3.8-1.6-6.9-3.3-9.4-5.4l-26.9-21.3l-1.8-1.5l1.8,1.5C179.9,150.9,187.8,151,193.5,152.4z"/>
			</g>
		</g>
		<g>
			<path id="Layer0_1_MEMBER_2_MEMBER_0_MEMBER_2_1_STROKES_9_" class="st10" d="M169.7,135.9c9.5,2.1,17,5,22.5,8.7
				c4-2.6,8.4-3.5,13-2.7c2.3,0.7,2.7,1.6,1.3,2.7c-3,1.2-5.7,2.5-8,3.9c1.5,1.5,2.5,2.7,2.9,3.6c0.4,0.8,0.4,1.4-0.1,1.7
				c-0.8,0.6-3.4,0.1-7.8-1.5c-5.7-1.4-13.6-1.5-23.7-0.2l26.9,21.3c2.5,2,5.7,3.8,9.4,5.4h-19.7h-5.2l-16.8-9.1
				c-2.4-1.3-4.7-2.2-6.9-2.6c-8.1-1.4-14.3,3.5-18.7,14.9H125h-5.8c2.7-1.5,3.9-3,3.6-4.7c-2-12,1.6-20.1,11-24.2l-8.5-19.6
				 M131,133.9h0.1 M169.7,152.2l-1.8-1.5"/>
		</g>
		<g>
			<path id="Layer0_1_MEMBER_2_MEMBER_0_MEMBER_2_2_STROKES_9_" class="st10" d="M125.3,133.6l5.8,0.3 M131.2,133.9l38.5,2"/>
		</g>
	</g>
	<g transform="matrix( 1, 0, 0, 1, 67.1,8.75) ">
		<g>
			<g id="Layer0_1_MEMBER_2_MEMBER_0_MEMBER_3_FILL_9_">
				<path class="st3" d="M116.8,123.4c1.3,0.6,2.7,1.1,4.3,1.5c0.1-0.2,0.2-0.5,0.2-0.7c0,0,0-0.1,0-0.1c0.2-1,0.5-2,0.7-2.9
					C120.4,122,118.6,122.7,116.8,123.4 M117.2,83.7c-3.8,1.9-6.8,4.7-9,8.4c-2,3.4-3.1,7-3.3,10.9c2.6,0.5,5.2,1.1,7.7,1.7
					c3.7,0.9,7.3,1.9,10.6,3.1c0-0.7-0.1-1.3-0.1-2C122.6,97.8,120.6,90.4,117.2,83.7 M55,162.1l0-0.3c-12-1.2-22.4-5.6-31.3-13.2
					c-7.2-6.2-12-13.4-14.1-21.4c-2.6-0.9-5-1.8-7.1-2.8c1.8,9.2,6.7,17.2,14.8,24.2C27.7,157.6,40.3,162.1,55,162.1 M65.5,50.9
					c-1.1-0.1-2.1-0.1-3.2-0.1c-16.8,0-31.2,5.7-43.1,17.1C8.5,78.3,2.6,90.8,1.6,105.2c2-0.7,4.2-1.3,6.6-1.8
					c1.3-13.7,7.1-25.5,17.5-35.4C36.8,57.2,50.1,51.5,65.5,50.9z"/>
				<path class="st11" d="M104.9,104.9c0-0.6,0-1.3,0-1.9c-0.9-0.2-1.7-0.3-2.6-0.5c-0.4-0.1-0.8-0.2-1.2-0.2
					c-0.7-0.1-1.4-0.2-2.2-0.3c-2.2-0.4-4.5-0.7-6.8-1c0.7,1.7,1.3,3.4,1.8,5.1c1.9,6.4,2.3,12.5,1.4,18.4c-0.3,1.7-0.7,3.5-1.2,5.2
					c2.4-0.4,4.6-0.9,6.8-1.4c0.4-0.1,0.7-0.2,1.1-0.3c0.1,0,0.2,0,0.3,0c3.6-0.9,7-1.9,10.3-3c1.4-0.5,2.8-1,4.2-1.6
					c-3.1-1.4-5.6-3.4-7.6-6.1C106.5,113.7,105.1,109.6,104.9,104.9z"/>
				<path class="st12" d="M104.9,103c0,0.6,0,1.3,0,1.9c0.2,4.7,1.6,8.8,4.3,12.3c2,2.7,4.6,4.8,7.6,6.1c1.8-0.7,3.6-1.4,5.3-2.2
					c0.7-3.8,1.1-7.7,1.1-11.8c0-0.6,0-1.1,0-1.7c-3.3-1.1-6.9-2.2-10.6-3.1C110.1,104,107.6,103.5,104.9,103z"/>
				<path class="st1" d="M55,161.9l0,0.3h13.3c14-0.3,26-4.8,36-13.5c4-3.5,7.2-7.2,9.7-11.1c3.2-3.9,5.6-8.1,7.1-12.6
					c-1.6-0.4-3-0.9-4.3-1.5c-1.4,0.6-2.8,1.1-4.2,1.6c-3.3,1.1-6.7,2.1-10.3,3c-0.1,0-0.2,0-0.3,0c-0.4,0.1-0.8,0.2-1.1,0.3
					c-2.2,0.5-4.5,1-6.8,1.4c-0.5,0.1-1,0.2-1.5,0.3c-9.9,1.7-20.9,2.7-33,2.9h-0.5c-11.6,0.2-22.4-0.5-32.5-2
					c-6.5-0.9-12.2-2.2-17-3.7c2.2,8,6.9,15.2,14.1,21.4C32.6,156.3,43,160.7,55,161.9 M65.5,50.9c-15.4,0.7-28.7,6.4-39.8,17.1
					c-10.4,10-16.2,21.8-17.5,35.4c5.2-1.2,11.3-2.2,18.4-2.9c10.1-1.1,21-1.5,32.6-1.4c0.1,0,0.2,0,0.4,0c11.9,0.2,22.7,0.8,32.6,2
					c2.3,0.3,4.6,0.6,6.8,1c0.7,0.1,1.5,0.2,2.2,0.3c0.4,0.1,0.8,0.1,1.2,0.2c0.9,0.2,1.8,0.3,2.6,0.5c0.2-3.9,1.3-7.5,3.3-10.9
					c2.2-3.7,5.2-6.5,9-8.4c-2.9-5.7-6.8-10.9-11.9-15.8C94.2,57.2,81,51.5,65.5,50.9z"/>
				<path class="st13" d="M59.6,99c-0.1,0-0.2,0-0.4,0c-11.6-0.1-22.5,0.4-32.6,1.4c-7.1,0.7-13.2,1.7-18.4,2.9
					c-2.4,0.6-4.6,1.2-6.6,1.8c-0.1,0.7-0.1,1.4-0.1,2.2c0,0.7,0,1.3,0,2c0,2,0.1,4,0.3,6c0,0.2,0,0.5,0,0.8c0,2.9,0.3,5.7,0.8,8.4
					c2.1,1,4.5,1.9,7.1,2.8c4.8,1.5,10.5,2.7,17,3.7c10.1,1.5,20.9,2.2,32.5,2h0.5c12.1-0.2,23.1-1.2,33-2.9c0.5-0.1,1-0.2,1.5-0.3
					c0.5-1.7,0.9-3.4,1.2-5.2c0.9-5.9,0.5-12.1-1.4-18.4c-0.5-1.7-1.1-3.4-1.8-5.1C82.3,99.8,71.5,99.2,59.6,99 M8.5,121.8
					c-2.4-2.4-3.6-7.4-3.5-14.9c1-0.1,2-0.2,2.9-0.4c31.2-4.2,58.6-4.5,82.2-1c1.9,12.3,1,19-2.7,20c-24.8,2.8-49.7,2.1-74.6-2
					C11.2,123.5,9.7,123,8.5,121.8z"/>
				<path class="st14" d="M5.1,106.8c-0.1,7.5,1.1,12.5,3.5,14.9c1.2,1.2,2.6,1.7,4.4,1.7c24.9,4.1,49.7,4.8,74.6,2
					c3.7-1,4.6-7.7,2.7-20c-23.5-3.5-50.9-3.2-82.2,1C7,106.6,6,106.7,5.1,106.8z"/>
			</g>
		</g>
		<g>
			<path id="Layer0_1_MEMBER_2_MEMBER_0_MEMBER_3_1_STROKES_9_" class="st10" d="M1.6,105.2c0.9-14.4,6.8-26.9,17.7-37.3
				c11.9-11.4,26.2-17.1,43.1-17.1c1.1,0,2.1,0,3.2,0.1c15.4,0.7,28.7,6.4,39.8,17.1c5,4.8,9,10.1,11.9,15.8
				c3.4,6.7,5.4,14.1,5.8,22c0,0.6,0.1,1.3,0.1,2c0,0.6,0,1.1,0,1.7c0,4.1-0.4,8-1.1,11.8c-0.2,1-0.4,2-0.7,2.9c0,0,0,0.1,0,0.1
				c-0.1,0.2-0.2,0.5-0.2,0.7c-1.5,4.5-3.9,8.7-7.1,12.6c-2.5,4-5.7,7.7-9.7,11.1c-10,8.6-22,13.1-36,13.5H55
				c-14.7,0-27.2-4.5-37.6-13.5c-8-6.9-13-15-14.8-24.2c-0.6-2.7-0.8-5.5-0.8-8.4c0-0.3,0-0.5,0-0.8c-0.2-1.9-0.3-3.9-0.3-6
				c0-0.7,0-1.3,0-2C1.5,106.6,1.6,105.9,1.6,105.2c2-0.7,4.2-1.3,6.6-1.8 M59.6,99c11.9,0.2,22.7,0.8,32.6,2c2.3,0.3,4.6,0.6,6.8,1
				c0.7,0.1,1.5,0.2,2.2,0.3c0.4,0.1,0.8,0.1,1.2,0.2c0.9,0.2,1.8,0.3,2.6,0.5 M59.6,132.9c12.1-0.2,23.1-1.2,33-2.9
				c0.5-0.1,1-0.2,1.5-0.3c0.5-1.7,0.9-3.4,1.2-5.2c0.9-5.9,0.5-12.1-1.4-18.4c-0.5-1.7-1.1-3.4-1.8-5.1 M8.2,103.4
				c5.2-1.2,11.3-2.2,18.4-2.9c10.1-1.1,21-1.5,32.6-1.4 M9.6,127.2c4.8,1.5,10.5,2.7,17,3.7c10.1,1.5,20.9,2.2,32.5,2 M2.6,124.5
				c2.1,1,4.5,1.9,7.1,2.8 M116.8,123.4c1.8-0.7,3.6-1.4,5.3-2.2 M123.2,107.7c-3.3-1.1-6.9-2.2-10.6-3.1c-2.5-0.6-5-1.1-7.7-1.7
				 M94,129.7c2.4-0.4,4.6-0.9,6.8-1.4c0.4-0.1,0.7-0.2,1.1-0.3c0.1,0,0.2,0,0.3,0c3.6-0.9,7-1.9,10.3-3c1.4-0.5,2.8-1,4.2-1.5"/>
		</g>
	</g>
	<g transform="matrix( 1, 0, 0, 1, 180.1,-70.1) ">
		<g>
			<g id="Layer0_1_MEMBER_2_MEMBER_0_MEMBER_3_MEMBER_0_FILL_8_">
				<path class="st15" d="M-49.6,195.7c1.4-0.9,3-1.3,4.8-1.3c1.8-0.1,3.4,0.3,4.9,1.1c1.7,0.9,2.8,2.1,3.4,3.7
					c0.2,0.6,0.3,1.3,0.3,1.9c0-1.2,0-2.2,0-3l7.2-3.2l-7.2,1.8c0-0.5-0.1-0.9-0.2-1.2c0,0,0-0.1,0-0.1c0,0,0,0,0-0.1l6.8-3.9
					l-7.5,2.8c0,0,0-0.1,0-0.1c-0.6-0.9-1.5-1.6-2.6-2.2c-1.5-0.8-3.1-1.2-4.9-1.1c-1.8,0-3.4,0.4-4.8,1.3c-1.8,1.1-2.9,2.6-3.3,4.3
					c-0.2,0.3-0.2,1.8-0.1,4.3c0-0.2,0.1-0.4,0.1-0.6C-52.5,198.3-51.4,196.9-49.6,195.7z"/>
			</g>
		</g>
	</g>
	<g transform="matrix( 0.7908782958984375, 0, 0, 1, 197.65,-72.6) ">
		<g>
			<g id="Layer0_1_MEMBER_2_MEMBER_0_MEMBER_3_MEMBER_0_MEMBER_0_FILL_8_">
				<path class="st15" d="M-127.6,200.8c0.1-2.5,0-3.9-0.1-4.3c-0.4-1.7-1.5-3.2-3.3-4.3c-1.4-0.9-3-1.3-4.8-1.3
					c-1.8-0.1-3.4,0.3-4.9,1.1c-1.1,0.6-2,1.3-2.6,2.2c0,0-0.1,0.1-0.1,0.1l-7.4-2.8l6.7,4v0.1c0,0,0,0.1,0,0.1
					c-0.1,0.3-0.2,0.7-0.2,1.2l-7.2-1.8l7.1,3.2c0,0.8,0,1.8,0,2.9c0-0.6,0.1-1.2,0.3-1.8c0.6-1.6,1.8-2.8,3.4-3.7
					c1.5-0.8,3.1-1.2,4.9-1.1c1.8,0,3.4,0.4,4.8,1.3c1.8,1.1,2.9,2.6,3.3,4.3C-127.7,200.4-127.6,200.6-127.6,200.8z"/>
			</g>
		</g>
	</g>
	<g transform="matrix( 1, 0, 0, 1, -21.25,31) ">
		<g>
			<g id="Layer0_1_MEMBER_2_MEMBER_0_MEMBER_4_FILL_9_">
				<path class="st3" d="M208.8,64c-3.7,1.6-6.6,4.2-8.7,7.8c-2.6,4.5-3.2,9.3-1.9,14.4l0,0c1.3,5,4.3,8.9,8.8,11.5
					c2,1.1,4,1.9,6.1,2.3C201.6,91.2,200.2,79.2,208.8,64z"/>
				<path class="st1" d="M211.6,63c-1,0.3-1.9,0.6-2.8,1c-8.6,15.2-7.2,27.2,4.3,36c2.7,0.5,5.4,0.4,8.3-0.4l3.1-0.8
					c5-1.4,8.9-4.3,11.5-8.8c2.6-4.5,3.3-9.3,1.9-14.3l0,0c-1.3-5-4.3-8.9-8.8-11.5c-4.5-2.6-9.3-3.2-14.3-1.8L211.6,63z"/>
			</g>
		</g>
		<g>
			<path id="Layer0_1_MEMBER_2_MEMBER_0_MEMBER_4_1_STROKES_9_" class="st10" d="M213,100c2.7,0.5,5.4,0.4,8.3-0.4l3.1-0.8
				c5-1.4,8.9-4.3,11.5-8.8c2.6-4.5,3.3-9.3,1.9-14.3l0,0c-1.3-5-4.3-8.9-8.8-11.5c-4.5-2.6-9.3-3.2-14.3-1.8l-3.1,0.8
				c-1,0.3-1.9,0.6-2.8,1 M213,100c-2.1-0.4-4.1-1.2-6.1-2.3c-4.5-2.6-7.4-6.4-8.8-11.5l0,0c-1.3-5-0.7-9.8,1.9-14.4
				c2.1-3.6,5-6.3,8.7-7.8"/>
		</g>
	</g>
</g>
</svg>
