<?xml version="1.0" encoding="utf-8"?>
<!-- Generator: Adobe Illustrator 20.1.0, SVG Export Plug-In . SVG Version: 6.00 Build 0)  -->
<svg version="1.1" id="Layer_1" xmlns="http://www.w3.org/2000/svg" xmlns:xlink="http://www.w3.org/1999/xlink" x="0px" y="0px"
	 viewBox="0 0 149.4 94.2" style="enable-background:new 0 0 149.4 94.2;" xml:space="preserve">
<style type="text/css">
	.st0{opacity:0.4;}
	.st1{opacity:0.73;fill:#A49280;}
	.st2{fill:#3F4040;}
	.st3{fill:#E4ADCF;}
	.st4{fill:#543B59;}
	.st5{fill:#CC8DBE;}
	.st6{fill:#E4ADCF;stroke:#543B59;stroke-width:2;stroke-linecap:round;stroke-linejoin:round;stroke-miterlimit:10;}
	.st7{fill:#E4ADCF;stroke:#543B59;stroke-linecap:round;stroke-linejoin:round;stroke-miterlimit:10;}
	.st8{opacity:0.35;}
	.st9{fill:#C3996B;}
	.st10{opacity:0.3;}
	.st11{fill:#F7FBFF;}
	.st12{fill:#FFFFFF;stroke:#231F20;stroke-width:2;stroke-miterlimit:10;}
	.st13{fill:#167EAB;}
	.st14{fill:#D52027;}
</style>
<g>
	<g class="st0">
		
			<ellipse transform="matrix(0.9998 -1.812414e-02 1.812414e-02 0.9998 -1.4284 1.8959)" class="st1" cx="103.9" cy="79.8" rx="39.5" ry="8.2"/>
	</g>
	<g>
		<g>
			<g>
				<g>
					<path class="st2" d="M138,33.6c0.2,2.6-1.4,7.8-5.1,6.1c-1.4-0.6-1.1-2.2,0.4-2c0.7,0.5,1.2,1.2,1.5,2c0.3,1,0.1,1.9-0.6,2.7
						c-1.4,1.5-3.8,1.4-5.7,1.4c-1.3,0-1.3,2,0,2c3.5,0,8.8-1,8.4-5.7c-0.3-2.6-4.6-7.1-6.6-3.3c-1.7,3.4,2.1,5.5,5,4.9
						c3.7-0.8,5-4.7,4.7-8.1C139.9,32.3,137.9,32.3,138,33.6L138,33.6z"/>
				</g>
			</g>
			<g>
				<path class="st3" d="M71.8,42.7c-0.9-4.3-1.1-9.3-0.4-14.5c0.1-1,0.8-2.4,1.6-2.5c0.4-0.1,0.7,0.2,1,0.4
					c4.6,3.3,8.2,5.8,11,10.6"/>
				<g>
					<path class="st4" d="M72.8,42.4c-0.5-2.7-0.7-5.3-0.8-8.1c0-1.3,0-2.5,0.1-3.8c0-0.7,0-1.5,0.2-2.1c-0.1-0.5,0.1-0.9,0.6-1.1
						c0.4-0.6,0.8-0.6,1.2,0c1.9,0.8,3.8,2.7,5.3,4.1c1.8,1.7,3.4,3.6,4.7,5.7c0.7,1.1,2.4,0.1,1.7-1c-1.8-2.9-4-5.4-6.7-7.5
						c-1.1-0.9-2.2-1.7-3.3-2.5c-0.9-0.6-2-1.8-3.2-1.5c-2.5,0.5-2.5,4.5-2.6,6.4c-0.2,4,0,8,0.7,11.9C71.1,44.2,73,43.7,72.8,42.4
						L72.8,42.4z"/>
				</g>
			</g>
			<g>
				<path class="st5" d="M72.7,38.5c-0.1-2.8-0.2-5.5-0.3-8.3c0-0.3,0-0.7,0.3-0.8c0.2-0.1,0.5,0,0.8,0.2c2.6,1.7,4.8,4,6.5,6.6
					c0.1,0.1,0.2,0.3,0.1,0.5c-0.1,0.1-0.2,0.2-0.3,0.3c-2.3,1-4.7,1.5-7.2,1.6"/>
			</g>
			<path class="st6" d="M119.3,33.6c16.1,10.2,18.4,28.5,16.5,34.2c-2.5,7.6-10.9,14.3-29.9,15.2c-26.8,1.1-32.7-4.1-36.5-9
				c-8.3-11-5.7-29.1,6.4-38.6C87.6,26.1,108.1,26.5,119.3,33.6z"/>
			<g>
				<path class="st3" d="M112.4,40c-0.1-4.5-1.2-9.5-3.3-14.3c-0.4-0.9-1.6-2-2.6-1.8c-0.5,0.1-2.3,1-2.6,1.4c-3,3.7-3.9,6-5.5,9.5"
					/>
				<g>
					<path class="st4" d="M113.4,40c-0.1-3.8-0.8-7.5-2-11.1c-0.7-2.1-1.6-5.5-4.3-5.9c-1.8-0.3-3.7,1.3-4.7,2.6
						c-2.1,2.7-3.5,5.7-5,8.7c-0.6,1.2,1.2,2.2,1.7,1c0.8-1.8,1.6-3.5,2.6-5.2c1-1.7,2.3-4.5,4.4-5c3.8-0.9,5.1,12.4,5.2,14.9
						C111.4,41.3,113.4,41.3,113.4,40L113.4,40z"/>
				</g>
			</g>
			<ellipse class="st6" cx="77.6" cy="58.5" rx="10.5" ry="7.4"/>
			<path class="st6" d="M93.3,49c0,0-0.5-2.6-4.1-2.7c-3.5-0.2-3.6,3-3.6,3"/>
			<path class="st6" d="M74.6,48.2c0,0-0.7-2.3-3.3-1.8c-2,0.4-2.3,2.9-2.3,2.9"/>
			<path class="st7" d="M82.2,58.4c0,0-0.1-1.1-1.5-1.3c-1.4-0.2-1.5,1.1-1.5,1.1"/>
			<path class="st7" d="M73.9,58.1c0,0-0.3-1.1-1.7-1c-1.4,0-1.3,1.4-1.3,1.4"/>
			<g>
				<path class="st5" d="M99.1,36.7c1.6-2.9,3.3-5.7,5-8.6c0.2-0.3,0.5-0.7,0.8-0.6c0.3,0,0.5,0.4,0.7,0.6c1.5,3.4,2.3,7.1,2.3,10.9
					c0,0.2,0,0.4-0.2,0.5c-0.1,0.1-0.3,0.1-0.5,0.1c-3-0.5-5.8-1.5-8.3-2.9"/>
			</g>
		</g>
	</g>
	<g class="st8">
		<path class="st9" d="M124.5,77.8c5.1-2.3,10.1-4.6,11.2-10c1.2-5.5,0.5-15.4-3.2-19.5c0.3,9.5-1.8,20.7-14.8,23.9
			c-15.4,3.7-24.4,2.4-29.6-3.1c-2.6-2.8-0.2-9.2-0.2-9.2s-12.8,8.5-20.8-1.3C66,62.1,67,70.3,69.6,73.1c2.6,2.7,4.9,6,8.5,7.3
			c11.4,4.2,25.1,3.7,37.1,1.6c6.1-1.1,14.5-3.9,16.4-9.8"/>
	</g>
	<g class="st10">
		<path class="st11" d="M130.5,46.8c-6.1-9.9-12.2-12.8-18.1-15.4c-0.2,1.1,0.8,4.9,0.8,4.9s4.4,0.9,6.9,2.5
			C124.2,41.5,126.9,43.4,130.5,46.8"/>
	</g>
	<g class="st10">
		<path class="st11" d="M82.2,33.7c1.6-0.6,4.6-1.1,5.9-1.2c3.7-0.4,7.7-0.5,10.3-0.1c0.3-0.4,1.8-3,1.5-3
			c-4.9-1.1-12.6,0.5-17.6,3.4c-0.7,0.4-4.6,2.5-4.6,2.5S80.8,34,82.2,33.7"/>
	</g>
	<g>
		<ellipse class="st12" cx="31.3" cy="27.3" rx="23.2" ry="20.7"/>
		<ellipse class="st12" cx="46.4" cy="44.8" rx="3.4" ry="3.1"/>
		<ellipse class="st12" cx="54.7" cy="47.7" rx="2.5" ry="2.2"/>
		<path class="st13" d="M15.8,38.6c0,0,0.5,0.1,1.7-0.8c1.3-1,1.8-2.8,1.8-2.8s2.5,2.9,8.4,4.1c8,1.5,13.8-3.5,13.8-3.5l-3-1
			l2.9-3.9c0,0-2.8-1.5-4.4-1.9c-1.6-0.4-2-0.5-2-0.5s-3.7-0.4-6.1,0c-5.8,1-9.5,4.7-9.5,4.7s-0.7-2-1.9-3.2
			c-1.2-1.2-2.1-1.2-2.1-1.2s1,3.5,0.9,5.7C16.5,36.4,15.8,38.6,15.8,38.6z M35.3,30.7c0,0-1.1,1.4-1.2,2.9c-0.1,1,0.4,1.9,0.8,2.4
			c0.3,0.3,0.4,0.5,0.4,0.5c-0.1-0.1-1.4-0.8-1.7-2.1C33.1,32,35.3,30.7,35.3,30.7z"/>
		<path class="st14" d="M30.3,25.1c0.3-0.6,11.2-6.3,8.3-10.4c-1.8-2.5-5,1-5,1s-1-6.3-4.7-3.7C25.7,14.3,30.3,25.1,30.3,25.1z"/>
		<path class="st14" d="M25,25.8c-0.2-0.4-5.2-5.9-4.1-7.4c0.8-1.2,2.5,1.2,2.5,1.2s-0.2-3.7,1.9-1.9S25,25.8,25,25.8z"/>
	</g>
</g>
</svg>
