<svg id="_3" data-name="3" xmlns="http://www.w3.org/2000/svg" width="100" height="100" viewBox="0 0 100 100">
  <defs>
    <style>
      .cls-1 {
        fill: #ffcd00;
        fill-opacity: 0;
        stroke: #ffcd00;
        stroke-linejoin: round;
        stroke-width: 8px;
      }

      .cls-2 {
        fill: #0180df;
        fill-rule: evenodd;
      }
    </style>
  </defs>
  <circle id="Ellipse_3_copy_5" data-name="Ellipse 3 copy 5" class="cls-1" cx="50" cy="50" r="45"/>
  <path id="_3_copy" data-name="3 copy" class="cls-2" d="M64.129,74.715c-4.766,1.68-9.672,3.221-14.437,4.9-2.523,0-5.607-1.26-9.532-3.781-4.065-2.66-6.167-5.181-6.167-7.281q0-1.47,7.569-7.141c3.224,1.12,6.588,2.24,9.812,3.5a34.634,34.634,0,0,1,4.065-1.4c1.542-1.12,2.383-2.24,2.383-3.5q0-5.881-7.99-6.3l-5.887-.14-0.42-1.4c0-.28.14-2.66,0.28-7.141,3.084-3.5,5.607-6.721,7.85-9.382-8.27.42-12.9,0.84-14.017,1.26a13.78,13.78,0,0,1-.28-2.38v-1.96a27.43,27.43,0,0,1,.841-7.7c3.644-.28,7.429-0.7,11.213-1.12H56.42c2.243,0,4.485,0,6.728-.14,0.841,0.7,1.822,3.5,2.944,8.121-2.523,4.2-4.906,8.4-7.429,12.6q6.308,3.361,8.831,6.721a15.873,15.873,0,0,1,3.364,10.362C70.857,66.874,68.614,71.215,64.129,74.715Z"/>
</svg>
