<svg id="_4" data-name="4" xmlns="http://www.w3.org/2000/svg" width="100" height="100" viewBox="0 0 100 100">
  <defs>
    <style>
      .cls-1 {
        fill: #ffcd00;
        fill-opacity: 0;
        stroke: #ffcd00;
        stroke-linejoin: round;
        stroke-width: 8px;
      }

      .cls-2 {
        fill: #0180df;
        fill-rule: evenodd;
      }
    </style>
  </defs>
  <circle id="Ellipse_3_copy_4" data-name="Ellipse 3 copy 4" class="cls-1" cx="50" cy="50" r="45"/>
  <path id="_4_copy" data-name="4 copy" class="cls-2" d="M58.635,77.152a24.8,24.8,0,0,1-7.709,1.68c-0.981,0-1.682-1.82-1.962-5.321-0.14-1.4-.42-4.9-0.7-10.362l-0.14-2.24c-0.14-2.66-.42-4.621-0.981-5.181h-8.27c-1.962-.14-3.785-0.28-5.747-0.42a22.82,22.82,0,0,1-5.326-1.12l2.383-13.582c1.121-7,2.243-10.922,3.364-11.622,1.121-.84,4.485-1.54,9.812-1.82L41.535,42.426c1.121,0.28,2.523.56,4.2,0.98l3.224,0.7a27.457,27.457,0,0,0,.7-4.2c0-1.96-.14-4.9-0.561-8.961-0.28-3.781-.42-5.6-0.42-5.6,1.261-.28,2.383-0.56,3.5-0.84,1.261-.28,2.383-0.42,3.5-0.7,4.065-.7,6.308-0.98,6.588-0.98a15.471,15.471,0,0,1,1.4,7.281v2.661a16.436,16.436,0,0,0,0,2.66v1.4c0,2.52.14,4.9,0.28,7.281a15.253,15.253,0,0,0,2.523.14c0.421,0,2.383.28,5.887,0.7a44.884,44.884,0,0,1,1.542,9.1c0,0.84-1.261,1.4-3.644,1.96-1.682.14-3.364,0.28-4.906,0.56l-0.421,1.82,1.682,14.982-0.28,1.82A40.709,40.709,0,0,0,58.635,77.152Z"/>
</svg>
