<svg id="_2" data-name="2" xmlns="http://www.w3.org/2000/svg" width="100" height="100" viewBox="0 0 100 100">
  <defs>
    <style>
      .cls-1 {
        fill: #ffcd00;
        fill-opacity: 0;
        stroke: #ffcd00;
        stroke-linejoin: round;
        stroke-width: 8px;
      }

      .cls-2 {
        fill: #0180df;
        fill-rule: evenodd;
      }
    </style>
  </defs>
  <circle id="Ellipse_3_copy_6" data-name="Ellipse 3 copy 6" class="cls-1" cx="50" cy="50" r="45"/>
  <path id="_2_copy" data-name="2 copy" class="cls-2" d="M57.57,74.688c-10.232,2.1-17.942,3.081-22.988,3.081l-1.4-3.641c0-9.241,1.962-15.823,5.747-20.023,1.542-1.82,5.186-3.921,10.653-6.581,3.784-1.68,5.747-4.2,5.747-7.561a26.43,26.43,0,0,1-1.542-3.5c-1.262-.42-2.523-0.98-3.785-1.4-1.542.84-3.224,1.68-4.906,2.52a20.8,20.8,0,0,0-1.682,5.6c-1.962.28-3.785,0.42-5.747,0.56a32.038,32.038,0,0,1-4.485-.28L32.34,40.8c1.682-4.341,3.224-8.542,4.906-12.882,3.364-4.061,7.429-6.161,12.054-6.161,6.728,0,11.774,1.26,15.138,3.641,3.925,2.8,5.747,7.421,5.747,13.862-1.121,2.8-2.243,5.741-3.364,8.541-2.523,2.24-5.046,4.341-7.569,6.581a94.492,94.492,0,0,0-7.429,6.021c1.962,0,4.065-.14,6.448-0.28l6.588-.56a24.871,24.871,0,0,1,3.364-.14c0.14,0,.7,1.68,1.822,4.9a31.932,31.932,0,0,1,1.542,7.281C71.587,71.887,66.962,72.867,57.57,74.688Z"/>
</svg>
