<svg id="_5" data-name="5" xmlns="http://www.w3.org/2000/svg" width="100" height="100" viewBox="0 0 100 100">
  <defs>
    <style>
      .cls-1 {
        fill: #ffcd00;
        fill-opacity: 0;
        stroke: #ffcd00;
        stroke-linejoin: round;
        stroke-width: 8px;
      }

      .cls-2 {
        fill: #0180df;
        fill-rule: evenodd;
      }
    </style>
  </defs>
  <circle id="Ellipse_3_copy_3" data-name="Ellipse 3 copy 3" class="cls-1" cx="50" cy="50" r="45"/>
  <path id="_5_copy" data-name="5 copy" class="cls-2" d="M51.925,79.671c-4.626,0-8.13-1.555-10.513-4.522-2.1-2.685-3.224-6.5-3.224-11.164l0.421-2.968a15.989,15.989,0,0,1,2.663-.989l1.262-.283c1.261-.283,2.663-0.565,3.925-0.848,1.542,2.826,3.364,4.1,5.747,4.1a4.437,4.437,0,0,0,4.205-2.826c0.42-1.837.841-3.533,1.121-5.37-0.28-1.555-.7-3.109-1.121-4.664-1.4-.848-2.663-1.554-3.925-2.261-1.682,0-2.8.565-3.224,1.979l-1.4,3.957c-0.14-.141-3.364-0.707-9.251-1.7l-0.421-2.968v-23.6c0.7-.565,5.186-1.131,12.755-1.7,5.887-.424,10.513-0.707,13.877-0.707V33.459a30.142,30.142,0,0,1-7.429,1.272C54.869,35.3,52.486,36,50.1,36.568l0.14,4.1a28.5,28.5,0,0,1,3.364-.707c1.261-.283,2.523-0.565,3.644-0.848,4.2,0,7.569,1.979,9.952,6.077,0.981,3.957,1.962,7.914,2.944,12.012-1.682,4.946-3.364,9.893-5.046,14.98C61.457,77.127,56.971,79.671,51.925,79.671Z"/>
</svg>
