<svg height="100" viewBox="0 0 100 100" width="100" xmlns="http://www.w3.org/2000/svg"><circle cx="50" cy="50" fill="none" r="45" stroke="#ffcd00" stroke-linejoin="round" stroke-width="8"/><path d="m62.918 42.846c.421 6.441.7 11.342.7 14.563v22.263c-.561.28-2.1.42-4.766.42 1.121 0 1.262-.28.421-.28h-5.466c-3.364-.14-6.588-.42-9.952-.56l1.4-29.825c-2.243.28-5.186.56-8.971.84l-1.822-1.4c0-.56.14-1.68.28-3.361.14-.84.14-2.52.28-5.181l.14-1.68c.561-1.12 1.4-2.52 2.523-4.341.28-.56 1.261-2.38 2.8-5.321 1.542-2.8 2.523-4.341 2.944-4.481q-1.051 0 12.195-.42h3.084q3.364 0 3.364 4.2c.005 3.218.286 8.118.846 14.564z" fill="#0180df" fill-rule="evenodd"/></svg>