<?xml version="1.0" encoding="utf-8"?>
<!-- Generator: Adobe Illustrator 20.1.0, SVG Export Plug-In . SVG Version: 6.00 Build 0)  -->
<svg version="1.1" id="Layer_1" xmlns="http://www.w3.org/2000/svg" xmlns:xlink="http://www.w3.org/1999/xlink" x="0px" y="0px"
	 viewBox="0 0 254 284" style="enable-background:new 0 0 254 284;" xml:space="preserve">
<style type="text/css">
	.st0{opacity:0.2;enable-background:new    ;}
	.st1{fill:none;stroke:#000000;stroke-width:6.25;stroke-linecap:round;stroke-linejoin:round;stroke-miterlimit:10;}
	.st2{fill:#ABA35A;}
	.st3{fill:#FF7DFF;stroke:#541C68;stroke-width:0.75;stroke-miterlimit:10;}
	.st4{fill:#FFC5FF;stroke:#262626;stroke-width:0.9308;stroke-miterlimit:10;}
	.st5{fill:#FF7DFF;}
	.st6{fill:#FFFFFF;stroke:#000000;stroke-width:0.75;stroke-linecap:round;stroke-linejoin:round;stroke-miterlimit:10;}
	.st7{fill:none;stroke:#000000;stroke-width:0.811;stroke-linecap:round;stroke-linejoin:round;stroke-miterlimit:10;}
	.st8{fill:#B077FF;stroke:#352C22;stroke-width:0.75;stroke-miterlimit:10;}
	.st9{fill:#7344D6;stroke:#352C22;stroke-width:0.75;stroke-miterlimit:10;}
	.st10{fill:#FFC5FF;}
	.st11{fill:#FFD526;stroke:#967D17;stroke-width:0.75;stroke-miterlimit:10;}
	.st12{fill:#FFC5FF;stroke:#262626;stroke-miterlimit:10;}
	.st13{fill:#FFD526;}
	.st14{fill:#967D17;}
	.st15{fill:#C5991C;}
	.st16{fill:#FFFFFF;stroke:#898989;stroke-width:0.6748;stroke-linecap:round;stroke-linejoin:round;stroke-miterlimit:10;}
	.st17{opacity:0.27;fill:#B17CD6;enable-background:new    ;}
	.st18{fill:#DDB40A;stroke:#513B14;stroke-width:0.9797;stroke-miterlimit:10;}
	.st19{fill:#513B14;}
	.st20{fill:#E898EA;}
	.st21{fill:#E989EF;}
	.st22{fill:#FFFFFF;stroke:#898989;stroke-width:0.7218;stroke-linecap:round;stroke-linejoin:round;stroke-miterlimit:10;}
	.st23{fill:#FFFFFF;stroke:#898989;stroke-width:0.75;stroke-linecap:round;stroke-linejoin:round;stroke-miterlimit:10;}
	.st24{fill:#FFFF15;}
	.st25{fill:#FFC5FF;stroke:#262626;stroke-width:0.9346;stroke-miterlimit:10;}
	.st26{fill:#FF7DFF;stroke:#832DB5;stroke-width:0.9118;stroke-linecap:square;stroke-linejoin:bevel;stroke-miterlimit:10;}
	.st27{fill:#EF00DF;}
	.st28{fill:#FF7DFF;stroke:#832DB5;stroke-width:0.8686;stroke-linecap:square;stroke-linejoin:bevel;stroke-miterlimit:10;}
	.st29{fill:#FCE68B;}
	.st30{fill:#FFFFFF;stroke:#000000;stroke-width:0.5;stroke-linecap:round;stroke-linejoin:round;stroke-miterlimit:10;}
	.st31{opacity:0.27;fill:#53677F;enable-background:new    ;}
</style>
<g>
	<ellipse class="st0" cx="115.5" cy="263.6" rx="60.6" ry="10.8"/>
	<path class="st1" d="M183.3,143.3c-1.1-0.5-2.5-0.9-4.5-0.8c-0.6-0.1-1.3-0.2-1.9-0.3c-0.5-2.7-1.2-5.6-2-8.4
		c3-2.4,5.9-6.7,7.4-14.1c0.6-2.6,1-5.4,1.1-8.5c0.1-1.2,0-2.4-0.1-3.6l0,0c0-5.2-1.9-9.7-4.4-13.4c-3.4-5.6-8.6-10.5-15.5-13.2
		h-0.1l0,0c-4.2-1.7-8.9-2.6-14.2-2.5c0.1-0.2,0.1-0.3,0.2-0.5l0,0v-0.1c0.1-0.4,0.2-0.9,0.1-1.3c0-0.1,0-0.2,0-0.3
		c0-0.1,0-0.2-0.1-0.3c0-0.1-0.1-0.2-0.1-0.3c0-0.1-0.1-0.2-0.1-0.2c-0.1-0.1-0.1-0.2-0.2-0.3c0-0.1-0.1-0.1-0.1-0.2
		c-0.1-0.1-0.2-0.2-0.3-0.4l-0.1-0.1c-0.2-0.2-0.4-0.3-0.6-0.5c-0.5-0.3-1.3-0.6-2.3-1c-0.1-0.7-0.1-1.6-0.1-2.6
		c0.6-2.8,1.8-8.5,3.4-14.2c2.7-9.6,6.6-22.9,8.3-28.8l0.9-3c0,0-9.1,9-16.2,16.1l1.8-17l-13.3,14.8l-0.1-0.2c-1-2.8-2-5.8-3.1-8.7
		l-0.6-1.6c-1.2-3.5-2.4-6.8-3.3-9.3l-0.2-0.6c-0.3-0.9-0.6-1.6-0.8-2.3l-0.5-1.4c-0.1-0.2-0.1-0.3-0.2-0.5l-0.1-0.3l0,0L109,40.8
		L96.4,23.4c0,0,1,8.1,1.9,16.5L81,24.3c0,0,4.1,10.7,7.8,20.9c2.4,6.7,4.7,13.6,5.9,18.1c0.4,3.2-0.7,7.8-0.7,7.8h0.2
		c-0.1,0.3-0.1,0.7-0.2,1c-0.6,0.1-1.1,0.3-1.6,0.4c-0.3,0.1-0.5,0.2-0.7,0.3c0,0-0.1,0-0.1,0.1c-0.2,0.1-0.4,0.2-0.6,0.4l0,0
		c-0.2,0.1-0.3,0.3-0.4,0.4l0,0c-0.1,0.2-0.2,0.3-0.3,0.5l0,0c-0.7,1.5,0.2,3.7,1.1,5.3c-3.8-0.1-7.6,0.4-11.3,1.4
		c-18.7,5-22.9,26.3-17.9,40c0.9,2.5,2.2,4.6,3.8,6.5c-0.4,2.1-0.9,5.1-1.5,9.5c-0.2,1.1-0.3,5-0.3,6.1c-0.9-0.3-1.7-0.6-2.4-0.7
		l0,0l0,0c-5.8-1.2-9.3,2.1-11.1,4.8c-14.8,4.9-20.8,10.4-22.3,12c-0.3,0.3-0.4,0.4-0.4,0.4l0,0l0,0l0.5,1.2c0,0,4.4,1.1,13.9,5.2
		v0.1c-2.3,5-2.8,12.7,7.6,18.8c0.9,0.5,1.1,2.7,4.1,3.9c3.2,1.3,4.7,0.9,5.3,0.7c2.4-0.6,0,0,3.4,0.5c1.7,0.3,0.9-0.2,2.5-0.2
		c0.3,0,0.5,0,0.7,0c0.7,0.1,2.7-0.2,3.1-0.1c4.3,3.5,20.2,9,37.7,9.6c0.5,0,1,0.1,1.5,0.1c0.6,0.1,1.1,0.1,1.7,0.1
		c0.1,0.1,0.2,0.2,0.3,0.3l-9.2-0.6l0,0L99,199l5.1,2.3c0,0.1,0,0.1-0.1,0.2l-3-1.3c0,0-8.4-1.6-12.1,5c-0.4,0.8-0.6,1.7-0.7,2.8
		l-3.3,1.6c0.1-1.3,0.4-2,0.4-2l-6,3.9c0,0,0.3-1-5.8-2c-5.4-0.9-8.4-0.5-9.6,0.7h-0.1h0.1c-1.1,1.2-0.6,3,1.1,5.2
		c0.9,1.1,4.6,2.9,7.1,4.1c1.4,0.7,2.4,1.1,2.4,1.1s-2.6,5.2-0.6,6.5c0.3,0.2,0.5,0.3,0.8,0.3c0.3,0.1,0.6,0.1,0.9-0.1
		c2.5-0.8,4.5-6.1,4.5-6.1l9.1-1l-0.8-0.7l1.1-0.3l2.9-0.6c0.8,0.8,1.6,1.3,2.4,1.7c-6.3,2.5-14.1,8-17.1,20.4l0,0
		c-0.1,0.4-0.2,0.7-0.2,1.1c-0.3,1.4-0.5,2.9-0.7,4.5l0,0c-0.1,0.2-0.2,0.5-0.4,0.7l0,0l0,0c-0.8,1.7-1.6,3.6-2,4.8
		c-0.8,2.7-0.9,4.5-0.9,4.5s0.1,1.3,2.9,2c2.4,0.6,4,0.2,4.5,0c0.1,0,0.1,0,0.1,0s1.6,1.6,5.8,2.4c4.8,1,7.4-0.1,7.4-0.1l0,0
		c6.7,2.7,19.3,1.5,19.5,1.5l0,0c0,0,3.9,1.9,11.5,1.6c5.6-0.2,10.1-2,10.1-2s1.3,1.2,7.6,0.7c6.3-0.5,7.7-1.9,7.7-1.9l0,0
		c1.7,0.6,4.3,1.1,5.8,0.9c0.7-0.1,1.3-0.2,1.8-0.4l0,0l0,0c1-0.3,1.4-0.7,1.7-1l0,0l0,0c0.3-0.4,0.2-0.7,0.2-0.7s2.8,0.7,3.5,0
		c0.2-0.2-0.1-2.2-1-5l0,0c-0.1-0.2-0.2-0.5-0.3-0.9c-0.1-0.7-1.3-7.5-4.9-14.7l0,0l0,0c-0.3-0.7-0.7-1.4-1.1-2.1
		c1.2-1.9,2.9-4.7,4.8-7.7c0.1,0,0.3,0,0.5,0c0.1,0,0.1,0,0.2,0c0.8,0.1,1.6-0.1,2.4-0.6l0,0c0.7-0.2,1.2-0.7,1.6-1.4
		c1.8-2.2,2.7-5.5,1.1-7.2c3.5-5.7,6.4-10.4,6.4-10.4l0.1-2.5c0,0,2.7-0.7,5.8-1.6c1.9-0.4,3.9-1,5.8-1.7l0,0
		c1.2-0.4,2.2-0.9,3.1-1.6c1.7-1.1,3-2.6,3.5-4.3c0-0.2,0.1-0.4,0.1-0.5c1.2-0.6,2.7-1.6,4.3-3.3c0.2-0.2,0.3-0.4,0.5-0.5l0,0l0,0
		c0.2-0.2,0.3-0.4,0.5-0.6c2.3-2.8,2.5-5.4,2.2-7.6c-0.1-1.7-0.4-2.9-0.4-2.9s2.1-4.2,2.3-6.3c0.1-0.8,0.1-1.5,0.2-2.2l0,0
		c0.5-2.3,0.2-4.5-0.4-6.4c-0.1-0.6-0.3-1.1-0.4-1.6c16.5-5.9,25.2-6.5,25.2-6.5v-0.1v-1V157C225.3,156.6,211.9,148.9,183.3,143.3z
		 M144.6,224L144.6,224c0,0,1.8-0.1,2.5-0.6c0.9-0.3,1.7-0.8,2.4-1.5l0.7,0.4c0.1,1,0.3,1.5,0.4,1.7v0.1l5.3,1.1l0,0
		c0.2,0.4,0.6,1,1.1,1.6l-2.9,6.7c-0.6-0.8-1.2-1.6-1.8-2.4C149.8,228.1,147.2,225.7,144.6,224z M169.4,204.9l-0.8-0.9l-2.4,1.8
		l-3.9,9.2c-0.6,0-1,0.1-1.2,0.2l-3.9-3.9c0,0-0.7,0.2-1.7,0.7l-0.9-0.6c0.2-2.7-0.3-5-1.5-6.3c-5.6-5.8-17.3-4.6-17.3-4.6
		s-0.6,0-1.5,0.5c-0.1-0.1-0.1-0.2-0.2-0.2l0,0l0,0c-0.3-0.5-0.7-0.8-0.9-1l1.9-0.6c0.5,0,0.9-0.1,1.4-0.1c2.3-0.2,4.7-0.4,7-0.7
		c2.4-0.3,10.6-0.5,15.6-2.8c0.5,0.7,1.3,1.4,2.5,2.1c3.3,2.4,5.5,1,5.5,1l0,0c1,2.8,2.2,5.2,2.8,6.5L169.4,204.9z M117.2,217.9
		c0.1,0.1,0.1,0.2,0.1,0.2h-0.1V217.9z M105.3,215.1V215c0.1,0.1,0.1,0.1,0.2,0.2C105.4,215.1,105.4,215.1,105.3,215.1z"/>
	<g>
		<g>
			<path class="st2" d="M182.2,178.5l0.3,0.1L182.2,178.5L182.2,178.5z"/>
		</g>
		<g>
			<path class="st3" d="M86.3,219.4c0,0-1.3,0.7-3.2-2.8c-2.1-3.6,0.3-6.7,0.3-6.7l6-2.8l4.4,10.9L86.3,219.4z"/>
			<path class="st4" d="M100.6,200.1c0,0-8.4-1.6-12.1,5c-1.7,3.1-0.1,9.8,3.2,12.9c3.3,3.2,6.2,3.4,8.7,2c6.8-3.9,9-16.3,9-16.3
				L100.6,200.1z"/>
			<path class="st5" d="M88.3,210.8c0,0,1.1-4.5,4.9-6.1s10.1-0.6,10.1-0.6V202c0,0-2.3-2.2-6.8-1.4s-7,2.6-8,5.4
				C87.7,208.7,88.3,210.8,88.3,210.8z"/>
			<path class="st5" d="M90.4,216c0,0,2.8,0.7,5.9-1.1c4.8-2.7,7.2-6.9,7.2-6.9l2,2.2c0,0-0.3,2.9-2.3,5.4c-1.9,2.5-6.3,4.6-8.2,4.1
				C93,219.2,90.4,216,90.4,216z"/>
			<g>
				<path class="st6" d="M79.6,221c0,0-3.1,8-6.2,5.9c-2-1.3,0.6-6.5,0.6-6.5s-8.1-3.5-9.4-5.2c-3.6-4.5-1.8-7.7,8.5-5.9
					c6.1,1,5.8,2,5.8,2l6-3.9c0,0-1.3,3.1,0.4,7.7c1,2.9,3.5,4.8,3.5,4.8L79.6,221z"/>
				<path class="st7" d="M63.5,213.1c0.3,0.1,2.2,0,4.7,0.7c2.6,0.7,2.6,0.7,2.6,0.7"/>
				<path class="st7" d="M63.4,210c0.5,0.1,2.2-0.2,4.9,0.7c1.1,0.3,3.4,1.2,3.4,1.2"/>
			</g>
		</g>
		<path class="st8" d="M104.2,213.6c0,0-1.6-3.7-1.5-7.3c0.2-3.7,1.3-6,1.3-6l13.2,2.7v15.7c0,0-4.2,0.7-8.6-0.8
			C107.2,217.4,104.2,213.6,104.2,213.6z"/>
		<path class="st9" d="M117.2,203c0,0-1.7,3.7-1.7,6.5c0,5,1.8,8.6,1.8,8.6s4.3,0.8,8.7-0.2c1.6-0.4,5.8-1.7,5.8-1.7
			s3.1-6.5,3.3-9.2c0.5-6.7-2.9-7.7-2.9-7.7L117.2,203z"/>
		<g>
			<path class="st10" d="M75.9,257c-0.6-0.2-0.1-3.6,1.3-8.1c2.2-7.3,6.6-17.6,12.3-22.7c9.4-8.2,14.5-6.8,14.5-8.1
				s8.2,2.9,16.1,2.6c7.9-0.2,12-2.1,12-2.1s17.5,7.1,24.4,21.1s3.2,19.4,3.2,19.4s0.3,1.6-3.7,2.1c-1.5,0.2-4.2-0.3-5.8-0.9
				c-13-4.7-15.3,1.3-15.3,1.3s-4.5,1.7-10.1,2c-7.6,0.3-11.5-1.6-11.5-1.6l-19.5-1.5c0,0-2.6,1-7.4,0.1c-4.2-0.8-5.8-2.4-5.8-2.4
				S77.4,257.4,75.9,257z"/>
			<path class="st5" d="M93.8,260.5c0,0,2.3-11.9,5.3-20.6c2.9-8.6,12.3-20.4,12.3-20.4l5.9,1.1c0,0-1.7,13.3-2.5,21
				s-1.4,20.2-1.4,20.2S100.6,263.3,93.8,260.5z"/>
			<path class="st5" d="M123.3,220.7c0.2-0.2,5.9,12.9,7.5,20.2c1.4,6.3,3.4,17.1,4,19.9c0.1,0.5,0.1,0.7,0.1,0.7s1.3,1.2,7.6,0.7
				s7.7-1.9,7.7-1.9s-0.9-14.2-6.8-23.8c-5.9-9.6-12.9-17.9-12.9-17.9L123.3,220.7z"/>
			<path class="st5" d="M78.2,242.9c-0.5,0-3.5,6-4.3,8.7s-0.9,4.5-0.9,4.5s0.1,1.3,2.9,2c2.8,0.7,4.6,0,4.6,0s1.5-10.9,4.8-16.1
				c3.2-5.2,8.5-12.4,8.5-12.4L78.2,242.9z"/>
			<path class="st5" d="M150.7,236.4c-0.5-0.4,6.2,10,7.4,13.8s1.7,8.8,1.7,8.8s2.8,0.7,3.5,0C163.9,258.4,160.5,244.6,150.7,236.4z
				"/>
			<path class="st9" d="M76.3,246.1c0,0,8.8-3.2,19.8-9.7s18-16.2,17.2-16.4c-0.7-0.2-10.2-2-10.2-2S79.2,218.6,76.3,246.1z"/>
			<path class="st8" d="M124.8,220.4c-0.4,0,1.4,9.7,10.9,19.2s26.3,13.7,26.3,13.7s-1.9-12.7-9.6-22.1c-9-10.8-19.7-12.8-20.2-11.7
				C131.9,220,124.8,220.4,124.8,220.4z"/>
			<path class="st11" d="M103.1,218.1l0.7-3.8c0,0,6.7,3.9,13.5,3.8c7.8-0.1,15.8-2.9,15.8-2.9l0.3,4.2c0,0-7.2,3.9-16.1,3.6
				C105.4,222.4,103.1,218.1,103.1,218.1z"/>
		</g>
		<path class="st12" d="M106.3,195.5c-0.1,1,9.2,9.4,9.2,9.4l14.2-8.2L106.3,195.5z"/>
		<g>
			<polygon class="st13" points="96.5,198.4 111.1,199.3 114.7,203.2 120.5,199.3 137.9,198.4 114.4,206.4 			"/>
			<path class="st14" d="M135.2,198.9l-20.8,7.1l-15.9-7.1l12.4,0.8l3.8,4l6-4L135.2,198.9 M140.5,197.9l-5.4,0.3l-14.6,0.8h-0.2
				l-0.2,0.1l-5.5,3.6l-3.3-3.5l-0.2-0.2h-0.3l-12.4-0.8l-4.1-0.3l3.8,1.7l15.9,7.1l0.3,0.1l0.3-0.1l20.8-7.1L140.5,197.9
				L140.5,197.9z"/>
		</g>
		<g>
			<path class="st13" d="M127.4,197.9l-27.7-1.3h-0.2c0,0-4.4-2.3-32.2-17.6c-26.9-14.9-39.2-18-39.3-18l-0.3-0.2l-0.5-1.2l0.1-0.4
				c0.2-0.2,4.4-5.4,17.7-10.7c12.2-4.9,34.8-10.7,73-11c1.1,0,2.1,0,3.2,0c70.8,0,104,18.5,104.3,18.7l0.2,0.3v2.2l-0.3,0.4
				c-0.1,0-12.2,1-34.2,10c-22.1,9-53.9,28.5-54.2,28.7l-0.2,0.1H127.4z"/>
			<path class="st14" d="M121.2,137.9c71.6,0,104.1,18.7,104.1,18.7v2.2c0,0-12,0.9-34.3,10s-54.2,28.8-54.2,28.8h-9.4l-27.7-1.3
				c0,0-4.1-2.1-32.2-17.6c-27.3-15-39.5-17.9-39.5-17.9l-0.5-1.2c0,0,16.6-20.9,90.4-21.5C119.1,137.9,120.1,137.9,121.2,137.9
				 M121.2,137.1c-1.1,0-2.1,0-3.2,0c-38.2,0.3-60.9,6.2-73.2,11c-13.4,5.3-17.7,10.5-17.9,10.8l-0.1,0.7l0.5,1.2l0.5,0.5
				c0.1,0,12.4,3.1,39.3,17.9c27.8,15.3,32.2,17.6,32.2,17.6l0.3,0.1l27.7,1.3h9.4l0.4-0.1c0.3-0.2,32.1-19.7,54.1-28.7
				c21.9-9,34-10,34.1-10l0.7-0.7v-2.2l-0.4-0.7c-0.3-0.2-8.4-4.8-25.4-9.4C184.7,142.2,158.2,137.1,121.2,137.1L121.2,137.1z"/>
		</g>
		<path class="st15" d="M136.7,193.5h-9.4l-27.7-1.3c0,0-4.1-2.1-32.2-17.6c-27.3-15-39.5-14.9-39.5-14.9l-0.1-0.6
			c-0.3,0.3-0.4,0.4-0.4,0.4l0.5,1.2c0,0,12.2,2.9,39.5,17.9c28.1,15.5,32.2,17.6,32.2,17.6l27.7,1.3h9.4c0,0,31.9-19.6,54.2-28.8
			c22.3-9.1,34.3-10,34.3-10v-1c0,0-12-2.1-34.3,7C168.6,173.8,136.7,193.5,136.7,193.5z"/>
		<g>
			<path class="st16" d="M179.1,160c0,0-0.8-26.7-11.5-42.7c-3.9-5.9-20.2-33.6-29.4-37.1c-9.2-3.5-30.1-5.2-40.6-1.8
				c-10.6,3.4-24.7,40.7-29.1,43.8c-1,0.7-2-1.6-4.2,14.7c-0.2,1.1-0.3,5-0.3,6.1c-11.2-4.4-15.1,7-15.1,7s-4.7,0-5.3,6.7
				c-0.3,2.6,0.1,6,0.1,6.5c-0.1,0.6-0.7,1-1.6,2.8c-2.3,5-2.8,12.7,7.6,18.8c0.9,0.5,1.1,2.7,4.1,3.9c3.2,1.3,4.7,0.9,5.3,0.7
				c2.4-0.6,0,0,3.4,0.5c1.7,0.3,0.9-0.2,2.5-0.2c11.2,0,19.4-7,19.9-20.3c0.5-14-4.1-24.2-11.6-27.8l3.9-4.7c0,0,16-15.5,17.3-16.2
				s27.7-4.5,28.8-4.9c1.1-0.4,30.9,16.2,30.9,16.2l-0.3,31.3L179.1,160z"/>
			<path class="st17" d="M108,86.1c1.3-0.2,7.7,0.2,11.7,0s3.9-0.2,3.9-0.2l-2.8,7.2l16.7-5.9l0.8-7l-34.8-1.4L108,86.1z"/>
			<path class="st18" d="M100.2,58.5c0.3-1-3.7-35-3.7-35l20.9,29l26.2-29l-4.1,38.6L100.2,58.5z"/>
			<g>
				<path class="st13" d="M111,79.3c-9.4,0-15-1.1-17-3.3c-0.7-0.7-1-1.5-0.9-2.4c0-0.2,1.7-7.7,1.1-10.1c-3-11.4-13.5-38.7-13.6-39
					c-0.1-0.2,0-0.5,0.2-0.6c0.1-0.1,0.2-0.1,0.3-0.1s0.2,0,0.3,0.1l24.9,22.3l14.9-33c0.1-0.2,0.3-0.3,0.4-0.3l0,0
					c0.2,0,0.4,0.1,0.4,0.3l12.4,35.1l23.2-24.4c0.1-0.1,0.2-0.2,0.4-0.2c0.1,0,0.2,0,0.2,0.1c0.2,0.1,0.3,0.3,0.2,0.6
					c-0.1,0.3-8.8,30.2-11.4,39.7c-2.5,9-0.1,11.1,0,11.2c0.2,0.1,0.2,0.3,0.2,0.5c-0.1,0.2-0.2,0.3-0.4,0.4
					C146.6,76.3,126.4,79.3,111,79.3z"/>
				<path class="st19" d="M121.6,13.5l12.6,35.8l23.8-25c0,0-8.8,30.1-11.4,39.7c-2.7,9.6,0.1,11.7,0.1,11.7s-20.2,3-35.7,3
					c-9.8,0-17.7-1.2-17.4-5.2c0,0,1.7-7.7,1.1-10.2C91.7,51.7,81,24.2,81,24.2l25.4,22.7L121.6,13.5 M121.6,12.5
					c-0.4,0-0.7,0.2-0.9,0.6L106,45.4L81.6,23.6c-0.2-0.2-0.4-0.2-0.7-0.2c-0.2,0-0.4,0.1-0.6,0.2c-0.4,0.3-0.5,0.7-0.4,1.2
					c0.1,0.3,10.7,27.5,13.6,38.9c0.4,1.6-0.4,6.9-1.1,9.8v0.1c-0.1,1,0.3,2,1,2.8c2.2,2.3,7.9,3.4,17.4,3.4c15.4,0,35.6-3,35.8-3
					c0.4-0.1,0.7-0.3,0.8-0.7c0.1-0.4,0-0.8-0.4-1l0,0c0,0-2.2-2.1,0.2-10.6c2.6-9.5,11.4-39.4,11.4-39.7c0.1-0.4-0.1-0.9-0.5-1.1
					c-0.2-0.1-0.3-0.1-0.5-0.1c-0.3,0-0.5,0.1-0.7,0.3l-22.7,23.8l-12.1-34.3C122.4,12.8,122,12.5,121.6,12.5L121.6,12.5L121.6,12.5
					z"/>
			</g>
			<g>
				<path class="st13" d="M142.4,83.5c-2.1,0-5-0.3-8.5-0.7c-4.6-0.5-10.3-1.1-16.4-1.2c-0.6,0-1.1,0-1.7,0c-5.4,0-9.4,0.6-12.7,1.1
					c-2.3,0.3-4.2,0.6-6.1,0.6c-1.5,0-2.9-0.2-4.2-0.6c-0.1,0-0.2-0.1-0.2-0.1c-0.2-0.2-4.2-5-3.2-8.2c0.3-1.1,1.2-1.9,2.7-2.4
					c5.6-1.7,17-3.4,26.5-3.4h0.9c11.3,0.1,25.1,2.8,28.5,4.8c1.4,0.8,2,2.1,1.9,3.6c-0.2,2.6-2.7,5.3-4.8,6.1
					C144.5,83.4,143.6,83.5,142.4,83.5z"/>
				<path class="st19" d="M118.6,69.1c0.3,0,0.6,0,0.9,0c11.1,0.1,25,2.7,28.3,4.8c3.9,2.4,0.2,7.7-2.9,8.8
					c-0.6,0.2-1.4,0.3-2.6,0.3c-4.8,0-14.1-1.6-24.9-1.8c-0.6,0-1.1,0-1.7,0c-9.2,0-14.3,1.7-18.7,1.7c-1.4,0-2.7-0.2-4-0.6
					c0,0-6.8-8-0.8-9.8C97.8,70.9,109.1,69.1,118.6,69.1 M118.6,68.2c-9.5,0-21,1.7-26.6,3.4c-2,0.6-2.7,1.8-3,2.7
					c-1,3.4,2.9,8.1,3.3,8.6c0.1,0.1,0.3,0.2,0.4,0.3c1.4,0.4,2.7,0.7,4.3,0.7c1.9,0,3.8-0.3,6.1-0.6c3.2-0.5,7.2-1.1,12.6-1.1
					c0.5,0,1.1,0,1.7,0c6.1,0.1,11.8,0.7,16.4,1.2c3.5,0.4,6.4,0.7,8.5,0.7c1.3,0,2.2-0.1,2.9-0.4c2.3-0.9,4.9-3.7,5.1-6.5
					c0.2-1.7-0.6-3.1-2.1-4c-3.5-2.1-17.4-4.8-28.8-4.9C119.2,68.2,118.9,68.2,118.6,68.2L118.6,68.2z"/>
			</g>
			<path class="st17" d="M93.1,78.3c0.7-0.1,11.3-3.2,26.4-2.3c15.1,0.9,27.9,2.7,27.9,2.7l-5.1,5.7c0,0-6.3-2.9-20.5-3.1
				c-16-0.2-27,1.5-27,1.5S88.6,79.3,93.1,78.3z"/>
			<path class="st12" d="M162.6,125.4c-6.9-2.9-27.3,1.3-30.6-2.1c-1.8,1.3-11.2-30.2-20.4-30.2c-17.2,0-25,31.2-24.9,30.9
				c-1.7,2.4-4.6,0.8-10,4.1c-5.6,3.4-7,14.2-9.2,21.9c-1.6,10-2.6,23.1-1.1,33.2c0.7,4.1,3.1,5.9,8.2,8.3c0,0,13.1,5.1,21.7,6.4
				c1.4,0.2,2.7,0.4,4.1,0.5c0.8,0.1,1.5,0.2,2.4,0.3c1.6,0.1,3.4,0.3,5.1,0.4c5.6,0.5,11.5,0.5,17.5,0.4c3.5-0.1,7.1-0.3,10.8-0.7
				c2.3-0.2,4.7-0.4,7-0.7c2.7-0.3,12.6-0.5,17.1-3.7c1.5-3.7,0-6.5,1-12.5c1.6-8.8,0.5-15.3,0.5-21.8c0-0.6,0.8-3,0.6-5.4
				c-0.1-1.7-3.2,8.2,0.8-5.6C160.7,145.5,168.6,127.9,162.6,125.4z"/>
			<path d="M130.5,150.4c-1.7,0-3.2,0.6-4.3,2.1c-1.2,1.5-1.9,3.3-1.9,5.3c0,2.1,0.7,3.8,1.9,5.2c1.1,1.5,2.6,2.2,4.3,2.2
				c1.7,0,3.1-0.7,4.2-2.2c1.3-1.4,1.9-3.1,1.9-5.2c0-2-0.6-3.8-1.9-5.3C133.6,151,132.2,150.4,130.5,150.4z"/>
			<path d="M83.8,151.5c-1.4,0-2.6,0.6-3.6,1.8s-1.5,2.7-1.5,4.5c0,1.7,0.5,3.2,1.5,4.4s2.2,1.8,3.6,1.8s2.7-0.6,3.7-1.8
				s1.5-2.7,1.5-4.4c0-1.8-0.5-3.3-1.5-4.5S85.2,151.5,83.8,151.5z"/>
			<path class="st6" d="M90.8,175.5c2.1,7.1,7.7,12.9,15.8,14.2c7.2,1.2,13.7-2.1,14.7-7.1c1-4.9,0.4-7.5,0.4-7.5s-6.8,1-16.1,1.2
				C97.4,176.5,90.8,175.5,90.8,175.5"/>
			<path class="st20" d="M66.6,180.5c-0.5,0.3,1.6,4.4,3.8,6c3.9,3,20.1,10.8,42.4,10s39.1-6.9,39.1-6.9s-2.5-9-1.9-17.4
				c1.1-13.6,7.6-26.8,7.6-26.8s-20.2-0.5-31.6-10.5c-7.8-6.9-8.8-15.5-8.8-15.5s-2.6,8.4-9.1,13c-17.9,12.7-30.8,6.5-30.8,6.5
				s-6-2.6-5.1-3.6c0.9-1,15.2-36.8,15.7-37.1c0.5-0.3,29.3,6.3,29.3,6.3s32.2-6.1,33.2-5.8c1,0.3,16.9,26.6,14.6,34.6
				c-11.1,36.8,22,54.7,22,54.7l-26.3,1.6c0,0,1.9,3.1-1.8,5.2c-5.1,2.9-17.8,3.9-47.6,4.4c-21,0.3-40.5-8.7-42.6-11.6
				C66.6,184.3,66.6,180.5,66.6,180.5z"/>
			<g>
				<path d="M140.3,148.5c-0.5-0.3-0.7,0.5-1.9,1.6c-1.5,1.4-4.1,2.1-4.1,2.1l0.3,1.9c0,0,3.4-2,4.3-2.9
					C140.3,149.8,140.9,148.9,140.3,148.5z"/>
				<path d="M141.1,151.6c-0.5-0.3-0.6,0.5-1.9,1.6c-1.5,1.2-4.1,2.1-4.1,2.1l0.3,1.9c0,0,3.4-2,4.3-2.9
					C141.1,152.9,141.7,152,141.1,151.6z"/>
			</g>
			<g>
				<path d="M77,148.5c0.5-0.3,0.7,0.5,1.9,1.6c1.5,1.4,4.1,2.1,4.1,2.1l-0.3,1.9c0,0-3.4-2-4.3-2.9C77,149.8,76.3,148.9,77,148.5z"
					/>
				<path d="M76.2,151.6c0.5-0.3,0.6,0.5,1.9,1.6c1.5,1.2,4.1,2.1,4.1,2.1l-0.3,1.9c0,0-3.4-2-4.3-2.9
					C76.2,152.9,75.5,152,76.2,151.6z"/>
			</g>
			<ellipse class="st21" cx="75.9" cy="166.6" rx="0.9" ry="1.2"/>
			
				<ellipse transform="matrix(0.3857 -0.9226 0.9226 0.3857 -109.5833 179.8213)" class="st21" cx="80.2" cy="172.2" rx="1.2" ry="0.9"/>
			
				<ellipse transform="matrix(0.3857 -0.9226 0.9226 0.3857 -116.1523 171.9463)" class="st21" cx="71" cy="173.2" rx="1.2" ry="0.9"/>
			<path class="st22" d="M200.7,175.4c-0.2,2.1-2.3,6.3-2.3,6.3c0.5,3.2,1.5,6.7-2.3,11.1c-5.3,6-9.1,4.6-9.1,4.6
				c-4.6,2.6-10.4,3.5-17,2.1c-1.2-0.3-2.2-0.6-3.3-1c0,0-2.3,1.4-5.7-1.2c-4.8-3.7-2.5-5.4-4.3-8.3c-2.6-4.1-4.7-14.1-2-20.1
				c0,0,0.6-10.3,4.4-15.4c4.6-6.3,6.8-6.9,11.2-7.7c0,0,2.4-3.1,8-3.3c5.2-0.3,6.6,2.1,7.8,3.6c0,0,5.6,1,7.8,3.5
				c2.5,2.8,3.1,4.1,4.1,12.4C198.1,162,201.9,164.4,200.7,175.4z"/>
			<ellipse class="st21" cx="142.3" cy="171.4" rx="0.9" ry="1.2"/>
			
				<ellipse transform="matrix(0.3857 -0.9226 0.9226 0.3857 -82.6057 236.3362)" class="st21" cx="136.2" cy="180.2" rx="1.2" ry="0.9"/>
			
				<ellipse transform="matrix(0.3857 -0.9226 0.9226 0.3857 -76.9468 227.1949)" class="st21" cx="132.1" cy="171.4" rx="1.2" ry="0.9"/>
			<path class="st23" d="M148.8,78.4c-14.9,0.5-26.5,7.9-30.2,19.8c-0.2-0.8-0.4-1.7-0.7-2.5c-4.7-13.8-22.6-18.8-38-14.7
				C61.2,86,57,107.3,62,121s21.2,17.3,36.3,12.1c9.5-3.2,16.6-11.7,19.5-21c3,14.8,18.4,28,34.8,28.4c20.2,0.5,29.8-10.1,30.8-29.3
				C184.1,95.5,171.1,77.6,148.8,78.4z"/>
			<path class="st17" d="M135.2,69.8c0.3-0.7,1.7-10.3,5.2-18.3s9.1-13.6,9.1-13.6l7.6-10.5c0,0-6.1,20.8-8.3,28.8
				c-2.3,8-3.7,16.1-3.7,16.1L135.2,69.8z"/>
			<path class="st17" d="M133.1,52.3c0-0.7-11.7-39.5-11.5-38.9s13,36.8,12.6,35.8C133.9,48.3,133.1,54,133.1,52.3z"/>
			<path class="st17" d="M81,24.3c0,0,25.2,28.3,25.3,27s3.6-12.2,3.6-12.2l-3.6,8L81,24.3z"/>
		</g>
		<path class="st10" d="M61.4,142.2c0,0,0,8.5,0.9,13.2s2.8,7.6,2.8,7.6l0.8-6.1c0,0-1.6-6.3-1.8-9.5c-0.2-3.1-0.3-4.1-0.3-4.1
			L61.4,142.2z"/>
		<path class="st10" d="M59.9,188.9c0,0-5.2-2.4-8.2-10.2c-4.3-11.1-3.8-20.8-3.6-24.5c0.1-2.4,0.9-4.1,0.9-4.1s1.4-2.7,2.2-3.8
			c1.7-2.3,3.7-3.5,3.7-3.5s-2.2,15.8,2.6,31.7c2.3,7.7,8.3,9.4,8.3,9.4s0.1,0.9,1.3,3c0.6,1.2,1.9,2,1.9,2l-5.3,0.6
			C63.8,189.5,63.1,190.3,59.9,188.9z"/>
		<path class="st10" d="M43.6,163.6c0.2-0.4-0.6,4.1,2.4,12.9c1.9,5.7,4.2,8.2,4.2,8.2s-6.1-2.9-7.5-9.1
			C41.7,171.3,40.8,167.9,43.6,163.6z"/>
		<path class="st10" d="M107.9,95.3c-2.2-6.9-10.7-15.1-19-15.1c-7.6,0-11.9,2.4-14.4,3.6c-1.7,0.8-3.7,2.3-5.2,3.6
			c-2.4,2.1-5,4.4-5.9,10.7c-0.7,4.8-1.1,10.3,1.5,16.5c2.6,6.2,7.2,9.4,15,9.4c9,0,12.4-10.1,11.9-16.1s-3.9-9.2-8.8-8.2
			s-5.8,7.2-5.8,7.2c3.6-3.6,9.8,0,8.8,4s-6.2,5.5-10.1,4.8s-6.4-4.2-6-12.5c0.2-5,1.7-8.4,3.1-11.2c4.2-4.4,6.3-5.7,12-6.7
			c5.8-1,9.8,1.3,13.7,6.6s5.5,14,3.4,22.7s-8.1,14.9-17.1,17s-18.5-3.3-17.8-2.8c12.7,8.6,20.8,6.3,27.4,3.4s11.2-9,13.4-14.9
			S110.2,102.1,107.9,95.3z"/>
		<path class="st10" d="M114.1,118.6c0,0,2.4-8.6,2.1-14.3c-0.7-13.1-8.2-19.8-8.2-19.8s10.8,6.1,10.5,16.9
			C118.2,113.8,114.1,118.6,114.1,118.6z"/>
		<path class="st10" d="M129,98.3c2.2-6.9,10.7-15.1,19-15.1c7.6,0,11.9,2.4,14.4,3.6c1.7,0.8,3.7,2.3,5.2,3.6
			c2.4,2.1,5,4.4,5.9,10.7c0.7,4.8,1.1,10.3-1.5,16.5s-7.2,9.4-15,9.4c-9,0-12.4-10.1-11.9-16.1s3.9-9.2,8.8-8.2s5.8,7.2,5.8,7.2
			c-3.6-3.6-9.8,0-8.8,4s6.2,5.5,10.1,4.8s7.4-3.1,7-11.3c-0.2-5-1.5-8.6-4.1-12.4c-4.2-4.4-6.3-5.7-12-6.7c-5.8-1-9.8,1.3-13.7,6.6
			s-5.5,14-3.4,22.7c2.1,8.7,8,15.5,17.1,17c6,1,14.5,1.4,19.1-2.4c5.8-4.9,6.8-7.7,8.1-12.2c3.3-11.4-0.3-24.2-0.3-24.2
			s8.7,13-0.7,32.5c-6.3,13.1-26.2,12.1-34,8.6c-6.6-3-13-10.6-15.2-16.4S126.8,105.1,129,98.3z"/>
		<path class="st10" d="M121,119.8c0,0-1.3-5.3-1.1-15.2c0.4-13.1,10.6-20.9,10.6-20.9s-8.8,4.2-12.5,18
			C115.2,112.2,121,119.8,121,119.8z"/>
		<path class="st10" d="M188.9,197.1c-2.9,0.9-6.5-1.5-7.1-5.4c-0.9-5.1,0.1-14.8,3.5-19.8c5.1-7.4,12-3.6,12,0.4s-2.6,9.3-2.6,9.3
			s0.6-10.6-3.6-7c-1.7,1.4-3.4,8.1-1.7,11.2c3.1,5.4,9-4.1,9-4.1S202,193.2,188.9,197.1z"/>
		<path class="st10" d="M166.4,198.3c2.3-0.6,4.6-3.1,5.6-5.3c2.9-6.5,1.1-6.3,3.8-17.4c2.7-11.1,5.6-16.7,10.6-19.1
			c6.6-3.2,11.5,4.7,11.5,4.7s0.4-10.2-6.2-13.4c-5.3-2.6-11.2-2.3-17.9,4.2s-8.4,13.9-11.5,29.6c-1.7,8.9-4.3,8.2-4.3,8.2
			s-1.7,4.3,4,7.9C163.5,198.9,165.1,198.7,166.4,198.3z"/>
		<path class="st17" d="M186.6,183.8c0.3-1.2,1-10.9,3.6-11.3s4.1,0,4.1,0s1.2-3.7,0-7.3c-1.2-3.7-2.7-5-2.7-5s2.4-1.2,1.7-4.8
			c-0.7-3.7-4.3-8.5-4.3-8.5s5.9,0.8,7.3,5.7s2,9.4,2,9.4s4.1,5.4,2.7,11.3c-1.3,5.9-3.7,9.3-3.7,9.3s2,3-0.3,7.4s-5.7,6-11.7,7.6
			C179.2,199.1,184.4,193.9,186.6,183.8z"/>
		<path class="st10" d="M155.3,168.6c0,0,1.5-6.5,6.1-13.5c4.7-7,9-9.3,9-9.3s-7.4,2-10.7,7.3C154.4,161.8,155.3,168.6,155.3,168.6z
			"/>
		<g>
			<path class="st24" d="M92.3,74.8c5.6-1.7,17.4-3.5,27.2-3.4c11.1,0.1,25,2.7,28.3,4.8c0.8,0.5,1.3,1.1,1.5,1.7
				c0.4-1.5,0.1-3-1.5-4c-3.4-2-17.2-4.6-28.3-4.8c-9.7-0.1-21.5,1.7-27.2,3.4c-2.4,0.7-2.8,2.4-2.3,4.2
				C90.3,75.9,91,75.2,92.3,74.8z"/>
		</g>
		<polygon class="st15" points="100.6,199 104.9,199.5 114.4,206 98.5,198.9 		"/>
		<polygon class="st15" points="114.4,206 126.8,200 132.7,199.8 		"/>
		<g>
			<g>
				<path class="st25" d="M129.2,209c0-1.7,0.6-4.2,2.6-6.4c2.1-2.2,3.8-2.2,3.8-2.2s11.7-1.2,17.3,4.6c3.4,3.5,1.1,15.7-5.7,18.4
					C140.3,226.1,129.2,219.3,129.2,209z"/>
				<path class="st5" d="M132,203.3c0,0,4-1.1,10.6,1.7c6.6,2.8,7.5,8.6,7.5,8.6l3.4-0.7c0,0,1.7-5.4-2.2-8.8
					c-2.3-2-10.7-3.5-14.9-3.5C133.6,200.7,132,203.3,132,203.3z"/>
				<path class="st5" d="M130.1,206.5c0,0,6.9,6,10.5,8.2c4.3,2.6,10.7,4.7,10.7,4.7s-0.4,1.6-2.5,2.6c-2,1-3,1.5-3,1.5
					s-6.9-0.3-11.5-6.7c-2.1-2.9-3.4-5.1-4.1-6.3c-0.4-0.6-0.5-1.4-0.4-2.1L130.1,206.5z"/>
				<path class="st3" d="M147.1,220.6c0,0-1.2-2.4,0.1-5.8c1.4-3.3,5.1-4.8,5.1-4.8l4.8,3c0,0-4,0.7-4.9,4.6s0.3,6,0.3,6
					L147.1,220.6z"/>
				<path class="st6" d="M150.6,224.1c0.1-0.3-1.2-2.1,0.4-6.8c1.7-5.2,6.1-6.1,6.1-6.1l4.8,5l4,4.6c0,0,1.1,6.8-4.6,7.9
					c-3.4,0.7-5.6-3.8-5.6-3.8L150.6,224.1z"/>
				<g>
					<path class="st26" d="M191.2,197.3c-2.1,8-21.1,8.9-21.1,8.9s-8.7-15.6-3.7-22.2c6.4-8.4,13.6,5.1,13.6,5.1
						S193.8,187.7,191.2,197.3z"/>
					<path class="st27" d="M186.4,197.1c-1.5,5.5-14.5,6.1-14.5,6.1s-6-10.7-2.6-15.3c4.4-5.8,9.4,3.5,9.4,3.5
						S188.1,190.5,186.4,197.1z"/>
					<path class="st28" d="M168.5,204l-2.4,1.8L152.3,238c0,0,2,1.4,2.2,0.9S173,209,173,209v-2.7l-2.9-0.1L168.5,204z"/>
					<polygon class="st10" points="169.3,204.9 167.5,206.5 153,238.1 154,238.7 171.3,208.6 171.7,206.4 					"/>
					<g>
						<polygon class="st13" points="170.8,209.5 167,207.5 166.9,207.4 165.7,206.1 165.8,205.4 168.3,203.6 168.8,203.7 
							169.8,204.7 171.8,205.8 173.2,206.2 173.5,206.6 173.5,209.1 173.1,209.5 171,209.6 						"/>
						<path class="st14" d="M168.5,204l1,1l2.1,1.2l1.5,0.4L173,209l-2,0.1l-3.7-2l-1.2-1.3L168.5,204 M168,203.3l-2.4,1.8l-0.1,1.3
							l1.2,1.3l0.2,0.2l3.7,2l0.4,0.1l2-0.1l0.8-0.8l0.1-2.5l-0.6-0.9l-1.4-0.4l-1.9-1l-0.9-0.9L168,203.3L168,203.3z"/>
					</g>
					<path class="st29" d="M167.4,207l1.8-1.9l2.2,1.2l-0.5,2.6L167.4,207z"/>
				</g>
			</g>
		</g>
		<path class="st17" d="M163.3,219.6c1.1-0.5,6.3-10.2,6.3-10.8s0.5-2.6,0.5-2.6l-0.5-2.3c0-0.8-3.2-6.7-3.2-6.7s2.7,6.8,10.9,4.2
			c8.2-2.7,11.8-6.8,10.8-8.8s-3.2-2.9-3.2-2.9s5.7,0.4,6.6,3.9c0.8,3.5-2.1,8.1-6.7,9.5c-4.7,1.5-11.6,3.4-11.6,3.4L173,209
			l-7.7,11.6"/>
		<path class="st30" d="M160.8,215.9c0,0,3.7,0.1,4.6,0.9s0.5,1.7-0.9,2.4c-0.7,0.4-3.1,0.3-3.1,0.3s-0.2,1.5-2.1,2.4
			c-0.9,0.5-3,0.1-3,0.1"/>
		<path class="st6" d="M160.2,228.2c-2.2-1.3-3.3-4.3-1-6.4c2.1-1.8,2.7-2.8,5.3-1.1c1.9,1.3,2.4-1.1,2.6-0.7
			C169.5,223.4,164.1,230.5,160.2,228.2z"/>
		<path class="st31" d="M150.6,224.1l-0.3-4.2l6,2.7l2.1-0.7c0,0,1.1,3.9,3.6,4c3.9,0.1,5.4-4.1,5.4-4.1s-1.1,5.6-3.6,6.3
			c-2.5,0.6-3.1,0.4-3.1,0.4l-6.3,9.7l4.7-10.8c0,0-1.2,0.4-1.6,0s-1.6-2-1.6-2L150.6,224.1z"/>
		<path class="st17" d="M103.4,202c0,0,1.6,2.9,4.9,4.5c4.2,2,7.2,3.5,7.2,3.5l12.6-5.1c0,0-1.4,4.1-0.7,7.3
			c0.7,3.1,1.8,5.7,1.8,5.7l2,2.5c0,0,4.2,4.1,9.2,6.3s9.7,2.4,9.7,2.4l-5.5-5.1c0,0,1.8-0.1,2.5-0.6c1.9-1.3,2.7-2.1,2.7-2.1
			l0.4-2.5l-3.6-1.5c0,0-1.8,4-6,2.3s-6.2-3.7-8.5-6.6s-1.4-5.5-0.8-6.9c2.1-4.8,8.6-5.6,8.3-5.7c-2-1-7.5,0-7.5,0l-17.6,6.6
			L103.4,202z"/>
		<path class="st17" d="M77.2,240.5c0,0,12.5-3,20.7-8.4c8.1-5.4,12-10.2,12-10.2s3.4,1.1,7.3,1s9.5-1.1,9.5-1.1s4.1,10.9,10.4,15.5
			s21.4,11.8,21.4,11.8l-1.5-10.5c0,0,4.4,12.9,5.1,15.5c0.8,2.7,1,5,1,5h-3.5l-0.2,0.7l-1.7,1l-1.9-6.5c0,0-7.4-0.6-15.5-6.5
			s-22.2-21.5-22.2-21.5h-3.8c0,0-11.5,10.2-21.2,14.9s-17.3,5.5-17.3,5.5l0.8-1.6C76.7,245.2,76.6,242.7,77.2,240.5z"/>
		<path class="st17" d="M64.4,214.3c0,0,4.7,2,7.6,3.1s4.3,1.9,4.3,1.9s-1.8,2.6-2.2,3.7s-0.3,3.2,0.9,2.7s3.7-6.1,3.7-6.1l7-2.2
			l0.1-1l3.7-1.3l-1.3-1.9c0,0,6.3,2,9.8-0.4c1.2-0.8,2.7-1.9,2.9-3.5c0.8-5.2-1.7-9.2-1.7-9.2l4.3,2c0,0-0.7,5.4-0.6,6.9
			c0.1,1.2,1.4,4.7,1.4,4.7l-0.7,5l-8.6,1.1l-3.2-1.6l-3.7,1.2l0.8,0.7l-9.1,1c0,0-3.5,7.2-5.5,6.2s-0.2-6.8-0.2-6.8
			S67,217.7,64.4,214.3z"/>
		<polygon class="st24" points="106.8,46.1 121.7,14.2 106.3,51.3 		"/>
		<path class="st24" d="M133.6,49c0.1-0.6,24.4-24.7,24.4-24.7l-0.9,3l-24,25C133.1,52.3,133.1,51,133.6,49z"/>
		<path class="st24" d="M81,24.3c0.6,1.6,16.2,24.1,19.3,35.5c1.3,4.8,0,10.1,0,10.1l-6.4,1.2c0,0,1.1-4.5,0.7-7.8
			C94,58.5,81,24.3,81,24.3z"/>
		<path class="st17" d="M133.4,133.2c-0.5-0.4,24.9,4.1,33.5-13.4s-3.6-39-3.6-39s19.9,9.6,19.9,26.7c0.1,17.1-5.1,24.5-10.1,27.4
			C168.1,137.8,148.9,146.4,133.4,133.2z"/>
		<path class="st17" d="M69.4,189.5c-7,1-9.8-2.9-10.7-8.2c-2.2-12.7,3.1-15,4.1-20.7c1.5-9.3,1-16.7,1-16.7l2.1,4.7
			c0,0,1.1-10.3,2.9-13.8s2.3-3.1,2.3-3.1l2,1c0,0-4.9,17.5-6.4,31.3C64.4,183.2,69.4,189.5,69.4,189.5z"/>
		<path class="st17" d="M75.4,133.2c-0.7-0.2,18.3,0.6,24.9-9.6s9.1-17,9-24.7S104.1,82,104.1,82s14.3,7.6,14.4,16.1
			s-0.3,13.8-3.1,18.9S100.7,140.5,75.4,133.2z"/>
	</g>
</g>
</svg>
