<?xml version="1.0" encoding="utf-8"?>
<!-- Generator: Adobe Illustrator 20.1.0, SVG Export Plug-In . SVG Version: 6.00 Build 0)  -->
<svg version="1.1" id="Layer_1" xmlns="http://www.w3.org/2000/svg" xmlns:xlink="http://www.w3.org/1999/xlink" x="0px" y="0px"
	 viewBox="0 0 214 261" style="enable-background:new 0 0 214 261;" xml:space="preserve">
<style type="text/css">
	.st0{fill:none;stroke:#000000;stroke-width:6.25;stroke-linecap:round;stroke-linejoin:round;stroke-miterlimit:10;}
	.st1{fill:#54483E;stroke:#000000;stroke-width:0.75;stroke-linecap:round;stroke-linejoin:round;stroke-miterlimit:10;}
	.st2{opacity:0.2;enable-background:new    ;}
	.st3{fill:#F8D654;}
	.st4{fill:#F5A42B;}
	.st5{fill:#5A98D1;}
	.st6{fill:#69C0E2;}
	.st7{fill:#9AA8C4;}
	.st8{fill:#5D6473;}
	.st9{fill:#FFFFFF;}
	.st10{fill:#466EAA;}
	.st11{fill:#E6E6E6;}
	.st12{fill:none;stroke:#000000;stroke-width:0.75;stroke-linecap:round;stroke-linejoin:round;stroke-miterlimit:10;}
	.st13{fill:#8E5B39;stroke:#000000;stroke-width:0.8197;stroke-linecap:round;stroke-linejoin:round;stroke-miterlimit:10;}
	.st14{fill:#C9A081;stroke:#000000;stroke-width:0.8197;stroke-linecap:round;stroke-linejoin:round;stroke-miterlimit:10;}
	.st15{fill:#C9A081;stroke:#000000;stroke-width:0.7829;stroke-linecap:round;stroke-linejoin:round;stroke-miterlimit:10;}
	.st16{fill:#7F5D46;stroke:#000000;stroke-width:0.7829;stroke-linecap:round;stroke-linejoin:round;stroke-miterlimit:10;}
	.st17{fill:#63432E;}
	.st18{fill:#54483E;stroke:#000000;stroke-width:0.7717;stroke-linecap:round;stroke-linejoin:round;stroke-miterlimit:10;}
	.st19{opacity:0.2;fill:#202C3F;enable-background:new    ;}
	.st20{fill:#65C62C;stroke:#000000;stroke-width:0.7829;stroke-linecap:round;stroke-linejoin:round;stroke-miterlimit:10;}
	.st21{fill:#65C62C;stroke:#000000;stroke-width:0.75;stroke-linecap:round;stroke-linejoin:round;stroke-miterlimit:10;}
	.st22{fill:#7DD841;stroke:#000000;stroke-width:0.7829;stroke-linecap:round;stroke-linejoin:round;stroke-miterlimit:10;}
	.st23{fill:#56A324;stroke:#000000;stroke-width:0.7829;stroke-linecap:round;stroke-linejoin:round;stroke-miterlimit:10;}
	.st24{fill:#65C62C;stroke:#000000;stroke-width:0.5;stroke-linecap:round;stroke-linejoin:round;stroke-miterlimit:10;}
	.st25{fill:#528431;stroke:#000000;stroke-width:0.7829;stroke-linecap:round;stroke-linejoin:round;stroke-miterlimit:10;}
	.st26{fill:#664D3C;stroke:#000000;stroke-width:0.75;stroke-linecap:round;stroke-linejoin:round;stroke-miterlimit:10;}
</style>
<path class="st0" d="M191.7,108.3l0.2-0.5c0,0,0-0.2-0.1-0.5c0.3-2.3-0.2-5.6-2.8-9.6c-1.9-2.9-8.8-9.5-24.5-14.1l-2-5.9
	c0,0-0.1,0-0.3-0.1c-4.2-10.6-11.6-26.4-20.1-34c-6.5-5.8-16.3-10.4-27.6-11.6l0,0c0,0-2.3-3.7-7.8-3.6C99.5,28.4,98,33,98,33
	s0,0,0.1,0c-6.3,1.4-12.8,4-19.2,8.2l0,0c-0.1,0.1-0.2,0.1-0.2,0.2c-1.1,0.7-2.2,1.5-3.3,2.3c-7.2,5.4-13.1,15.1-17.7,24.4
	c-3.7,7.2-6.5,14.2-8.2,19.1c-0.1,0.1-0.2,0.1-0.2,0.1s-0.9,3-1.7,5.7c-0.2,0.7-0.3,1.2-0.3,1.2s-4.9,2.7-10.8,7
	c-6.8,4.7-11.9,9.6-14.8,14.1c-1.7,2.2-2.5,4.2-2.8,6c-0.7,2.9-0.2,5.4,1.5,7.3c2,5.1,15.5,4.9,20.8,4.7c-0.8,10.7,0.9,20.1,5.2,28
	c0.7,1.3,1.4,2.5,2.2,3.6c-5,7.8-4.5,13.4,1.3,16.9c-0.8,0.2-1.4,0.5-1.9,1.1c-1.1,0.9-1.7,2.2-1.7,3.5v1.6c0,1.3,0.5,2.5,1.6,3.5
	h-0.1c-1.7,4.2-1.3,8.1,1.1,11.7c1.2,1.8,1.4,3.4,0.6,4.7c0.7-0.3,1.5-0.8,2.2-1.3c3.5-2.8,5.2-7.5,4.9-14.4v-0.1
	c0.2-0.1,0.5-0.4,0.7-0.5c1.1-1,1.6-2.2,1.6-3.6v-1.6c0-1-0.3-1.9-0.9-2.7c2.4-2.1,3.5-4.8,3.2-8.1c0,0,0,0,0-0.1
	c-0.1-1.2-0.3-2.4-0.7-3.7c1.2-1.4,2.3-3,3.1-5c0.8-1.6,1.3-3.4,1.8-5.5c0.1-0.6,0.2-1.4,0.4-2.3c8.1,2.1,16,3.8,23.9,4.8v0.5
	c-6.1,4.5-10.6,8.5-13.3,12.3c-0.6,0.7-0.9,1.5-1,2.5c-0.2,0.9,0,1.8,0.4,2.7c0.3,0.5,0.7,1,1.2,1.5c0.1,0.1,0.3,0.3,0.5,0.5
	l9.1,6.4c-5.1,7.8-3,9.4,6.4,4.8l-11,33.7l-1.1,3.3l-4,2.5h19.3c3.9-2.3,7.2-5.8,9.7-10.4c1.5-2.7,2.8-4.6,4.2-5.8
	c1-0.9,2.1-1.3,3.1-1.3c0.2,0,0.4,0.1,0.5,0.1c1.9,0.5,3.4,2.4,4.7,6.1c0.8,2.3,2.1,5.5,3.7,9.5h4.6h10.7l-4.9-3.1
	c3.7-5.6,6.1-11.5,7.3-17.8L153,222c0,0,2.4-0.2,9.2-2.9c6.7-2.7,17.9-8,17.9-8.8c0.9,0.3-1.1-1.5-4.1-3.3c-3-1.7-13.6-7.1-13.6-7.1
	c-0.6-0.2-5.4,0.8-10.6,2c-0.2-0.2-0.4-0.3-0.6-0.5c0.9-4.8,0.1-7.5-1.8-8.8c-0.9-0.7-4.5-0.8-5.8-0.8l-1.2-7.1
	c-1.4-5.6-3.7-10.7-6.7-15.8c-0.9-1.4-1.9-2.9-2.9-4.2c6.9-0.7,13.6-1.7,20.5-3.2c0.7,0.8,1.6,1.5,2.5,2c-0.4,5.3,1.4,9,5.3,10.9
	c-0.3,0.9-0.4,1.8-0.2,2.8l0.5,1.6c0.3,1.4,1,2.4,2.3,3c0.3,0.2,0.7,0.3,1,0.4c1.7,8,5.2,12.5,10.7,13.4c-0.9-0.8-1.2-2-0.9-3.5
	c0-0.4,0.2-0.7,0.3-1.1c1.4-4,0.8-7.8-1.8-11.3c0-0.1-0.1-0.2-0.1-0.3c0.7-1.2,1-2.4,0.6-3.7l-0.4-1.6c-0.3-1.3-1.2-2.3-2.4-3
	c-0.2-0.1-0.3-0.1-0.4-0.2c-0.6-0.2-1.2-0.4-1.8-0.4c1.4-1.4,2.3-2.8,2.7-4.3c0.2-0.8,0.2-1.5,0.2-2.3c0-1.4-0.5-2.9-1.3-4.3
	c-0.3-0.6-0.8-1.4-1.3-2.1c0.8-0.2,1.6-0.5,2.5-0.7c2.9-1.2,4.6-3,5.1-5.3c0.1-0.6,0.1-1.1,0.1-1.7c-0.2-10.4-1.2-20.1-3-29.2
	c4.7-1.2,15.3-4.5,17.3-10.4c0-0.1,0-0.1,0-0.2C191.3,109.6,191.5,109,191.7,108.3z M150.9,201c-1-0.8-2.1-1.6-3.2-2.2
	C148.8,199.2,150.2,200.1,150.9,201z M142.4,204.1c-0.7,0.2-1.3,0.3-1.8,0.5c0-0.2,0-0.4,0-0.6c0-0.3,0-0.6,0-1v-1.1
	c0.1,0.6,0.3,1.1,0.5,1.5C141.3,203.5,141.7,203.8,142.4,204.1z"/>
<path class="st1" d="M171.2,121.3c0,0,16.9-3.3,19.6-10.9C195,98.1,108.7,79.5,59.1,94c-1.4,0.4-39.3,19.3-39.2,33.3
	c0,8.1,23.3,5.9,23.3,5.9l2.2-8.4c0,0,36.5-14.4,77.3-16.3s44-0.1,44-0.1c0,0.3,0.1,0.5,0.2,0.8c0,0,0,0,0,0.1"/>
<g>
	<g>
		<path class="st2" d="M157,242.3c11.8-2,17.6-4.3,17.6-7c0-2.6-5.8-5-17.6-7c-11.7-1.8-25.9-2.8-42.6-2.8c-16.6,0-30.9,1-42.6,2.8
			c-11.8,2-17.7,4.4-17.7,7c0,2.7,5.9,5,17.7,7c11.7,1.9,26,2.8,42.6,2.8C131.1,245.1,145.3,244.2,157,242.3z"/>
		<path class="st0" d="M97.7,170.9c-4.1,2.8-7.4,5.4-9.9,7.9l8.3,5.8C97.8,178.3,98.3,173.8,97.7,170.9"/>
		<path class="st0" d="M140.3,201.7c0-0.4,0.1-0.6,0.3-1l-0.4-0.2c0,0,0,0.1,0.1,0.2C140.3,201.1,140.3,201.3,140.3,201.7"/>
		<path class="st3" d="M140.6,108.8c3.5-4.2,7.2-7.3,11.3-9c3.9,1.4,6.8,4.2,8.7,8.4c1.2-4.5,3.2-7.9,5.8-10.4c0-0.1,0-0.1,0-0.1
			c-0.1-0.3-0.2-0.5-0.2-0.8c-8.8-0.6-17.5-0.9-26.3-0.7c-17.2,0.2-34.4,1.3-51.9,4.8c-10.7,2-21.6,3.6-32.2,6.9l-0.7,0.8
			c-2,1.8-3.3,6.1-5.3,10.3c-2,4.3-3,7.6-3,9.8c0,0.5,0.1,1.2,0.3,2.4c0.1,0.7,0.2,1.4,0.3,2.1c0.1,0.2,0.2,0.4,0.3,0.6
			c1.6-1.3,3.3-2.8,5-4.4c3.6-3.5,7-7.6,10.1-12.2c1.6-2.5,3.3-5.3,4.9-8.2c2.8,1.9,4.7,3.6,5.9,5.2c4.7-4.6,9.1-8.1,13.2-10.7
			c4.9,0.5,8.5,3.4,10.8,8.7c4.9-5.3,10-9.1,15.2-11.5c3.9,2.5,6.4,5.9,7.2,10c3.8-4.9,8.6-8.5,14.2-11
			C137.3,101.7,139.4,104.7,140.6,108.8z"/>
		<path class="st4" d="M49.4,117.2c0.4-1,16.1-6.1,16.1-6.1l1.9-3.1l1.6,1.1c0,0,9.1-2.4,11.4-3.1c2.2-0.6,4.2-0.8,4.2-0.8l2.3-1.5
			l5.5,1.9c0,0,8.1-2.2,10.6-2.6s7.3-0.7,7.3-0.7l2.7-1.4l2.7,2.1c0,0,7.5-1.8,10.9-2.1c3.3-0.3,5.8,0,5.8,0l2-1l2.4,1.9
			c0,0,3-1.7,7.1-1.7c4.2,0,6.7,0.5,6.7,0.5l1.5-0.7l3,1l7.7,0.9l3.1-3.2c0,0-16.1-4.5-52.5-1s-62.9,12-62.9,12L49.4,117.2z"/>
		<path class="st5" d="M151.9,99.8c-4.1,1.7-7.8,4.8-11.3,9c-1.2-4.1-3.3-7.1-6.4-9c-5.6,2.5-10.4,6.1-14.2,11
			c-0.8-4.1-3.3-7.5-7.2-10c-5.2,2.4-10.3,6.2-15.2,11.5c-2.3-5.3-5.9-8.2-10.8-8.7c-4.1,2.6-8.5,6.1-13.2,10.7
			c-1.2-1.6-3.1-3.3-5.9-5.2c-1.6,2.9-3.3,5.7-4.9,8.2c-3.1,4.6-6.5,8.7-10.1,12.2c0,1,0,2,0,3c-0.3,9.5-2.4,16.2-6.3,19.9
			c0.8,0.6,1.8,1.2,2.9,1.6c5.4,1.9,10.8,3.6,16.2,5c8.1,2.1,16,3.8,23.9,4.8c1.9,0.3,3.8,0.5,5.5,0.8c12.7,1.3,25.3,1.4,37.8,0.2
			c6.9-0.7,13.6-1.7,20.5-3.2c5.1-1,10.4-2.4,15.5-4c0.8-0.2,1.6-0.5,2.5-0.7c2.9-1.2,4.6-3,5.1-5.3c-5.9,2.3-11.4,3.9-16.5,4.7
			c-13.7,2-27.1,3-40,3c-17,0-30.9-1.9-42-5.8c-12.3-4.4-18.5-10.5-18.5-18.4c0-2.2,0.5-5.8,1.6-10.7c0.1-0.1,0.2-0.1,0.3-0.2
			c1.3-1.4,2.6-2.8,3.6-4.1c1.4-1.8,2.5-3.3,3.4-4.8l-1.9-0.8l1.9,0.8c0.2-0.5,0.5-1,0.7-1.5c0.3,0,0.4-0.2,0.4-0.5
			c0.3,0.7,0.8,1.4,1.5,2c1.1,1,1.8,1.6,2,1.9l0,0h0.1c3.9-3.4,6.9-5.8,8.8-7.3c3.5-2.6,5.7-3.9,7-3.9c1.5,0,3.1,1.8,4.8,5.2
			c1.3,2.6,2,4.5,2.2,5.6c2.2-2,4.5-4,6.9-6c4.7-4,7.5-6,8.3-6c1,0,2.4,1.3,4.4,3.9c1.8,2.6,2.8,4.6,2.8,5.8h0.2
			c0.1,0.1,0.1,0.2,0.1,0.3c1.2-0.6,3.8-2.5,7.8-5.4c3.5-2.5,5.7-4,7-4.6c1.1,1.4,2.5,4.5,4.2,9.3c6-3.8,10.8-6.8,14.4-8.9
			c2.6,1.5,4.1,4.1,4.5,7.8h0.3c0.1,0.1,0.1,0.2,0.1,0.3c2.2-0.8,4.7-2.5,7.6-5.1c1.6-1.5,3.1-3.2,4.4-4.9c-0.4-1-0.9-2.1-1.3-3.3
			c-0.3-0.7-0.6-1.5-1-2.2c-2.6,2.5-4.6,5.9-5.8,10.4C158.7,104,155.8,101.2,151.9,99.8z"/>
		<path class="st6" d="M151.8,105.2c-3.6,2.1-8.4,5.1-14.4,8.9c-1.7-4.8-3.1-7.9-4.2-9.3c-1.3,0.6-3.5,2.1-7,4.6
			c-4,2.9-6.6,4.8-7.8,5.4l-0.3-0.3c0-1.2-1-3.2-2.8-5.8c-2-2.6-3.4-3.9-4.4-3.9c-0.8,0-3.6,2-8.3,6c-2.4,2-4.7,4-6.9,6
			c-0.2-1.1-0.9-3-2.2-5.6c-1.7-3.4-3.3-5.2-4.8-5.2c-1.3,0-3.5,1.3-7,3.9c-1.9,1.5-4.9,3.9-8.8,7.3l0.2,0.2l12,5
			c-0.1,2-0.8,3.7-1.9,5.2c-1.3,1.7-2.8,2.4-4.6,2.4s-3.3-0.7-4.6-2.4c-1.1-1.3-1.7-3-1.9-4.8l-6.8-2.2l-0.5-0.5
			c-1,1.3-2.3,2.7-3.6,4.1c-0.1,0.1-0.2,0.1-0.3,0.2c-1.1,4.9-1.6,8.5-1.6,10.7c0,7.9,6.2,14,18.5,18.4c11.1,3.9,25,5.8,42,5.8
			c12.9,0,26.3-1,40-3c5.1-0.8,10.6-2.4,16.5-4.7c0.1-0.6,0.1-1.1,0.1-1.7c-0.3-17.3-2.9-32.8-7.7-46.6c-1.3,1.7-2.8,3.4-4.4,4.9
			c-2.9,2.6-5.4,4.3-7.6,5.1l-0.4-0.3C155.9,109.3,154.4,106.7,151.8,105.2z M153.4,115.8l6.9-3L153.4,115.8c0.7,1.2,1,2.7,1,4.5
			l0.3,0.7l6.6-2.1l-6.6,2.1l-0.4,0.2c-0.1,1.8-0.7,3.4-1.8,4.7c-1.2,1.7-2.8,2.5-4.6,2.5c-1.8,0-3.3-0.8-4.6-2.5
			c-1.2-1.4-1.9-3.1-1.9-5.1L153.4,115.8z M94.2,136.8c-0.2-0.8-0.3-1.7-0.3-2.5l30.7-0.5l12.5-0.1c0,3.1-1.4,6.1-4.1,9
			c-3.5,3.6-8.2,5.8-14.1,6.7c-1.2,0.1-2.5,0.2-3.6,0.3c-0.7,0-1.5,0-2.3,0c-0.3-0.1-0.7-0.1-1-0.1c-3.2-0.3-6.2-1.2-9-2.7
			c-3.4-1.6-5.9-3.8-7.3-6.4C95,139.3,94.5,138.1,94.2,136.8z M80.3,137.4c-0.5,0-1-0.1-1.4-0.4c-0.3-0.3-0.6-0.7-0.6-1.1
			s0.3-0.8,0.6-1.1c0.4-0.3,0.9-0.4,1.4-0.4s1,0.1,1.4,0.4s0.6,0.7,0.6,1.1s-0.2,0.8-0.6,1.1C81.3,137.3,80.8,137.4,80.3,137.4z
			 M83.2,143.3c0.4-0.3,0.8-0.5,1.3-0.5c0.6,0,1,0.2,1.4,0.5s0.5,0.7,0.5,1.1s-0.1,0.7-0.5,1c-0.4,0.4-0.8,0.5-1.4,0.5
			c-0.5,0-0.9-0.1-1.3-0.5c-0.4-0.3-0.6-0.6-0.6-1S82.8,143.6,83.2,143.3z M76.4,141.9c0.4,0.3,0.7,0.6,0.7,1s-0.3,0.8-0.7,1.1
			c-0.3,0.3-0.7,0.5-1.3,0.5c-0.5,0-1-0.2-1.3-0.5c-0.5-0.3-0.6-0.7-0.6-1.1s0.1-0.7,0.6-1c0.3-0.4,0.8-0.5,1.3-0.5
			C75.7,141.4,76.1,141.5,76.4,141.9z M158.8,138.3c0.5,0,1,0.2,1.4,0.5s0.6,0.6,0.6,1.1c0,0.4-0.2,0.7-0.6,1
			c-0.4,0.4-0.9,0.5-1.4,0.5s-1-0.1-1.4-0.5c-0.3-0.3-0.5-0.6-0.5-1c0-0.5,0.2-0.8,0.5-1.1C157.8,138.5,158.3,138.3,158.8,138.3z
			 M147.7,139.8c-0.4-0.4-0.6-0.8-0.6-1.2c0-0.3,0.2-0.7,0.6-1s0.8-0.5,1.4-0.5c0.5,0,1,0.2,1.3,0.5c0.4,0.3,0.6,0.7,0.6,1
			c0,0.4-0.2,0.8-0.6,1.2c-0.3,0.2-0.8,0.4-1.3,0.4C148.5,140.2,148.1,140,147.7,139.8z M144.5,149c0-0.5,0.2-0.8,0.6-1.1
			c0.3-0.3,0.8-0.5,1.3-0.5s1,0.2,1.4,0.5s0.6,0.6,0.6,1.1c0,0.4-0.2,0.8-0.6,1c-0.4,0.3-0.9,0.5-1.4,0.5s-1-0.2-1.3-0.5
			C144.7,149.8,144.5,149.4,144.5,149z"/>
		<path class="st7" d="M154.3,121.2l0.4-0.2l-0.3-0.7C154.4,120.5,154.4,120.8,154.3,121.2z"/>
		<path d="M154.3,121.2c0.1-0.4,0.1-0.7,0.1-0.9c0-1.8-0.3-3.3-1-4.5l-12,5c0,2,0.7,3.7,1.9,5.1c1.3,1.7,2.8,2.5,4.6,2.5
			c1.8,0,3.4-0.8,4.6-2.5C153.6,124.6,154.2,123,154.3,121.2z"/>
		<path class="st8" d="M124.6,133.8l-3.3,6.5l-25.6,0.2c1.4,2.6,3.9,4.8,7.3,6.4c2.8,1.5,5.8,2.4,9,2.7c0.3,0,0.7,0,1,0.1
			c0.8-0.1,1.6-0.2,2.3-0.3v0.3c1.1-0.1,2.4-0.2,3.6-0.3c5.9-0.9,10.6-3.1,14.1-6.7c2.7-2.9,4.1-5.9,4.1-9L124.6,133.8z"/>
		<path class="st9" d="M121.3,140.3l3.3-6.5l-30.7,0.5c0,0.8,0.1,1.7,0.3,2.5c0.3,1.3,0.8,2.5,1.5,3.7L121.3,140.3z"/>
		<path class="st10" d="M78.9,137c0.4,0.3,0.9,0.4,1.4,0.4s1-0.1,1.4-0.4s0.6-0.7,0.6-1.1s-0.2-0.8-0.6-1.1
			c-0.4-0.3-0.9-0.4-1.4-0.4s-1,0.1-1.4,0.4c-0.3,0.3-0.6,0.7-0.6,1.1S78.6,136.7,78.9,137z"/>
		<path class="st10" d="M84.5,142.8c-0.5,0-0.9,0.2-1.3,0.5s-0.6,0.7-0.6,1.1s0.2,0.7,0.6,1c0.4,0.4,0.8,0.5,1.3,0.5
			c0.6,0,1-0.1,1.4-0.5c0.4-0.3,0.5-0.6,0.5-1s-0.1-0.8-0.5-1.1C85.5,143,85.1,142.8,84.5,142.8z"/>
		<path class="st10" d="M77.1,142.9c0-0.4-0.3-0.7-0.7-1c-0.3-0.4-0.7-0.5-1.3-0.5c-0.5,0-1,0.1-1.3,0.5c-0.5,0.3-0.6,0.6-0.6,1
			s0.1,0.8,0.6,1.1c0.3,0.3,0.8,0.5,1.3,0.5c0.6,0,1-0.2,1.3-0.5C76.8,143.7,77.1,143.3,77.1,142.9z"/>
		<path class="st10" d="M160.2,138.8c-0.4-0.3-0.9-0.5-1.4-0.5s-1,0.2-1.4,0.5c-0.3,0.3-0.5,0.6-0.5,1.1c0,0.4,0.2,0.7,0.5,1
			c0.4,0.4,0.9,0.5,1.4,0.5s1-0.1,1.4-0.5c0.4-0.3,0.6-0.6,0.6-1C160.8,139.4,160.6,139.1,160.2,138.8z"/>
		<path class="st10" d="M147.1,138.6c0,0.4,0.2,0.8,0.6,1.2c0.4,0.2,0.8,0.4,1.4,0.4c0.5,0,1-0.2,1.3-0.4c0.4-0.4,0.6-0.8,0.6-1.2
			c0-0.3-0.2-0.7-0.6-1c-0.3-0.3-0.8-0.5-1.3-0.5c-0.6,0-1,0.2-1.4,0.5C147.3,137.9,147.1,138.3,147.1,138.6z"/>
		<path class="st10" d="M145.1,147.9c-0.4,0.3-0.6,0.6-0.6,1.1c0,0.4,0.2,0.8,0.6,1c0.3,0.3,0.8,0.5,1.3,0.5s1-0.2,1.4-0.5
			c0.4-0.2,0.6-0.6,0.6-1c0-0.5-0.2-0.8-0.6-1.1c-0.4-0.3-0.9-0.5-1.4-0.5S145.4,147.6,145.1,147.9z"/>
		<path class="st7" d="M156.7,113.3c0-0.1,0-0.2-0.1-0.3h-0.3L156.7,113.3z"/>
		<path class="st4" d="M57.4,108h-1.6c-2.4,0.7-4.4,1.2-6.7,1.9l-3.6,1.4c-0.1,0.6-0.9,3.3-1.1,3.8c-0.9,3-1.6,5.9-2.2,8.8
			c-3,14.8-1.7,27.3,3.9,37.5c0.7,1.3,1.4,2.5,2.2,3.6c0.6,1,1.4,1.9,2.1,2.9c-0.7-1-1.5-1.9-2.1-2.9c-5,7.8-4.5,13.4,1.3,16.9
			c0.6-0.2,1.2-0.4,1.8-0.4h1.5v-0.1c-0.5-0.2-1.2-0.8-2.1-1.5c1.6,0.3,3.5,0,5.6-1.3c2-1.4,3.5-2.3,4.5-2.9c0,0,0,0,0-0.1
			c-0.1-1.2-0.3-2.4-0.7-3.7c-1.7,1.6-3.7,2.8-6,3.3c-0.7,0.2-1.4,0.2-2,0.3c0.6-0.1,1.3-0.1,2-0.3c-1.3-0.1-2.1-0.2-2.6-0.3
			c-1.1-0.3-2-0.9-2.8-1.7c3-0.6,5.9-1.7,8.5-3.1c2.8-1.6,4.8-2.7,6-3.2c0.8-1.6,1.3-3.4,1.8-5.5c0.1-0.6,0.2-1.4,0.4-2.3
			c-5.4-1.4-10.8-3.1-16.2-5c-1.1-0.4-2.1-1-2.9-1.6c3.9-3.7,6-10.4,6.3-19.9c0-1,0-2,0-3c-1.7,1.6-3.4,3.1-5,4.4
			c-0.3,0.2-0.5,0.4-0.8,0.5c0.3-0.1,0.5-0.3,0.8-0.5c-0.1-0.2-0.2-0.4-0.3-0.6c-0.1-0.7-0.2-1.4-0.3-2.1c-0.2-1.2-0.3-1.9-0.3-2.4
			c0-2.2,1-5.5,3-9.8C51.8,114.8,55.4,109.8,57.4,108z"/>
		<path class="st11" d="M55.7,109.8l0.1,0.1v-0.1H55.7z"/>
		<path class="st6" d="M68.9,113.8c-0.2,0.5-0.5,1-0.7,1.5l4.6,2v-0.1c-0.2-0.3-0.9-0.9-2-1.9c-0.7-0.6-1.2-1.3-1.5-2
			C69.3,113.6,69.2,113.8,68.9,113.8z"/>
		<path class="st7" d="M118.3,114.5h-0.2l0.3,0.3C118.4,114.7,118.4,114.6,118.3,114.5z"/>
		<path d="M83.2,127.6c1.1-1.5,1.8-3.2,1.9-5.2l-12-5c-0.7,1.3-1,2.8-1,4.5c0,0.3,0,0.6,0,0.9c0.2,1.8,0.8,3.5,1.9,4.8
			c1.3,1.7,2.8,2.4,4.6,2.4S81.9,129.3,83.2,127.6z"/>
		<path class="st6" d="M72.8,117.3L72.8,117.3l-4.6-2c-0.9,1.5-2,3-3.4,4.8l0.5,0.5l6.8,2.2c0-0.3,0-0.6,0-0.9c0-1.7,0.3-3.2,1-4.5
			L72.8,117.3z"/>
		<path class="st9" d="M72.8,117.3L72.8,117.3l0.3,0.1l-0.2-0.2h-0.1l0,0L72.8,117.3L72.8,117.3z"/>
		<path class="st5" d="M89.4,163.8v0.5c-6.1,4.5-10.6,8.5-13.3,12.3c-0.6,0.7-0.9,1.5-1,2.5c-0.2,0.9,0,1.8,0.4,2.7
			c0.3,0.5,0.7,1,1.2,1.5c3.6-4.7,7-8.6,9.9-11.5v-0.4c0.2-0.1,0.5-0.3,0.7-0.5c2.6-1.8,4.5-2.6,6-2.6c1.1,0,2,0.4,2.6,1.3
			c0.4,0.3,0.8,0.9,1.4,1.6c0.1-0.1,0.2-0.2,0.4-0.3c0.1,0.4,0.1,0.7,0.1,1.1c0.4,2.8-0.2,7.1-1.7,12.6l0.5,0.3
			c1,0.7,1.6,1.5,1.9,2.6s0.3,2.1,0,3.2c-0.3,1-1.2,1.9-2.6,2.6c-1.1,0.7-2.2,1.2-3.2,1.7l-11,33.7c5-4.7,9.4-10.1,12.9-16.4
			c5.2-9.1,8-17.3,8-24.7c0.1-7,2.3-12.1,6.8-15c3.9-2.7,9.8-4,17.8-4c3.6,0,5.5,0,5.9,0.1c0.8,0.1,1.6,0.1,2.5,0.3
			c-0.9-1.4-1.9-2.9-2.9-4.2c-12.5,1.2-25.1,1.1-37.8-0.2C93.2,164.3,91.3,164.1,89.4,163.8z"/>
		<path class="st6" d="M86.6,171.4v0.4c-2.9,2.9-6.3,6.8-9.9,11.5c0.1,0.1,0.3,0.3,0.5,0.5l9.1,6.4c-5.1,7.8-3,9.4,6.4,4.8
			c1-0.5,2.1-1,3.2-1.7c1.4-0.7,2.3-1.6,2.6-2.6c0.3-1.1,0.3-2.1,0-3.2s-0.9-1.9-1.9-2.6l-0.5-0.3l-8.3-5.8c2.4-2.4,5.5-5,9.5-7.6
			c-0.6-0.7-1-1.3-1.4-1.6c-0.6-0.9-1.5-1.3-2.6-1.3c-1.5,0-3.4,0.8-6,2.6C87.1,171.1,86.8,171.3,86.6,171.4z"/>
		<path class="st3" d="M54.2,175.1c2.3-0.5,4.3-1.7,6-3.3c1.2-1.4,2.3-3,3.1-5c-1.2,0.5-3.2,1.6-6,3.2c-2.6,1.4-5.5,2.5-8.5,3.1
			c0.8,0.8,1.7,1.4,2.8,1.7C52.1,174.9,52.9,175,54.2,175.1z"/>
		<path class="st3" d="M57,182.9c0.3,0.2,0.5,0.5,0.7,0.8c2.4-2.1,3.5-4.8,3.2-8.1c-1,0.6-2.5,1.5-4.5,2.9c-2.1,1.3-4,1.6-5.6,1.3
			c0.9,0.7,1.6,1.3,2.1,1.5l0.3,0.1C54.7,181.4,55.9,181.9,57,182.9z"/>
		<path class="st4" d="M57.7,183.7c-0.2-0.3-0.4-0.6-0.7-0.8c-1.1-1-2.3-1.5-3.8-1.5v0.2c-0.1-0.1-0.1-0.1-0.1-0.2h-0.2h-1.5
			c-0.6,0-1.2,0.2-1.8,0.4c-0.8,0.2-1.4,0.5-1.9,1.1c-1.1,0.9-1.7,2.2-1.7,3.5v1.6c0,1.3,0.5,2.5,1.6,3.5c0,0,0,0,0.1,0.1
			c1,0.9,2.2,1.4,3.7,1.4h0.5c0-0.4,0-0.6,0-0.8c-0.7,0-1.2-0.1-1.6-0.3c-1-0.5-1.5-1.6-1.5-3.2c0-1.2,0.5-2.3,1.5-3.1
			c1.1-0.8,2.4-1.2,4-1.2c0.9,0,1.7,0.3,2.5,0.9c0.5,0.3,1.1,0.6,1.8,1.1C58.6,185.4,58.3,184.5,57.7,183.7z"/>
		<path class="st9" d="M53.2,181.6v-0.2h-0.1C53.1,181.5,53.1,181.5,53.2,181.6z"/>
		<path class="st9" d="M53.2,181.4l-0.3-0.1C52.9,181.4,53,181.4,53.2,181.4L53.2,181.4z"/>
		<path class="st11" d="M52.9,181.3v0.1h0.2C53,181.4,52.9,181.4,52.9,181.3z"/>
		<path class="st3" d="M58.6,186.4c-0.7-0.5-1.3-0.8-1.8-1.1c-0.8-0.6-1.6-0.9-2.5-0.9c-1.6,0-2.9,0.4-4,1.2c-1,0.8-1.5,1.9-1.5,3.1
			c0,1.6,0.5,2.7,1.5,3.2c0.4,0.2,0.9,0.3,1.6,0.3c0,0.2,0,0.4,0,0.8h1.3c1.1,0,2.1-0.3,2.9-0.8c0.1,0,0.1,0,0.2,0v-0.1
			c0.2-0.1,0.5-0.4,0.7-0.5c1.1-1,1.6-2.2,1.6-3.6L58.6,186.4L58.6,186.4z"/>
		<path class="st9" d="M56.3,192.2L56.3,192.2c-0.1,0-0.1,0-0.2,0H56.3z"/>
		<path class="st3" d="M56.3,192.2h-0.2c-0.8,0.5-1.8,0.8-2.9,0.8h-1.3c0.1,1,0.2,2.7,0.4,5.3c0,3.2-0.3,5.9-0.9,8.3
			C54.9,203.8,56.6,199.1,56.3,192.2z"/>
		<path class="st4" d="M51.9,193h-0.5c-1.5,0-2.7-0.5-3.7-1.4l-0.2-0.1c-1.7,4.2-1.3,8.1,1.1,11.7c1.2,1.8,1.4,3.4,0.6,4.7
			c0.7-0.3,1.5-0.8,2.2-1.3c0.6-2.4,0.9-5.1,0.9-8.3C52.1,195.7,52,194,51.9,193z"/>
		<path class="st6" d="M109.4,172.6c-4.5,2.9-6.7,8-6.8,15c0,7.4-2.8,15.6-8,24.7c-3.5,6.3-7.9,11.7-12.9,16.4l-1.1,3.3l-4,2.5h19.3
			c3.9-2.3,7.2-5.8,9.7-10.4c1.5-2.7,2.8-4.6,4.2-5.8c1-0.9,2.1-1.3,3.1-1.3c0.2,0,0.4,0.1,0.5,0.1c1.8-0.6,2.9-0.9,3.4-0.9
			c2.2,0,3.9,1,5,3c0.6,1.1,1.4,3.4,2.2,6.6c0.8,3.2,1.6,5.4,2.4,6.7v0.2h10.7l-4.9-3.1c5.2-7.9,7.9-16.3,8.1-25.5c0-0.3,0-0.6,0-1
			c-0.1-0.5-0.1-1,0-1.4c0-0.4,0-0.6,0-1c-0.1-0.1-0.1-0.2-0.1-0.2c-0.1-2.4-0.4-4.7-0.8-7c-0.6-3.7-2.3-9.4-5.1-17.2
			c2.8,7.8,4.5,13.5,5.1,17.2c0.4,2.3,0.7,4.6,0.8,7l0.4,0.2c0.3-0.7,0.8-1.3,1.5-1.7c0.3-0.3,0.7-0.4,1-0.5h0.1
			c1.1-0.5,2.3-0.5,3.4,0c1.1,0.4,3.8,1.8,4.4,3.2c1.5-9.1-2.6-10.7-7.2-10c-0.5-8.1-4-15.6-8.2-22.7c-0.9-0.2-1.7-0.2-2.5-0.3
			c-0.4-0.1-2.3-0.1-5.9-0.1C119.2,168.6,113.3,169.9,109.4,172.6z"/>
		<path class="st4" d="M153.2,161.6c0.7,0.8,1.6,1.5,2.5,2c2.5,1.5,5.4,2,8.5,1.5c-3.1,0.5-6,0-8.5-1.5c-0.4,5.3,1.4,9,5.3,10.9
			c0.2-0.4,0.3-0.7,0.5-0.9c0.8-1.2,1.8-2,3.3-2.4V171c-0.2,0-0.4,0-0.5,0c-0.8,0.1-1.4,0.1-1.7,0c-0.8-0.1-1.2-0.5-1.2-1.2
			c0-1.3,1.2-2.6,3.4-3.9c0.5-0.3,1.1-0.6,1.7-0.9c-3.9-1.3-5.9-2.4-5.9-3.5c0-1.4,2.3-2.2,7-2.2c0.5,0,1.3,0.1,2.4,0.4
			c-0.3-0.6-0.8-1.4-1.3-2.1C163.6,159.2,158.3,160.6,153.2,161.6z"/>
		<path class="st3" d="M171.3,164c0-1.4-0.5-2.9-1.3-4.3c-1.1-0.3-1.9-0.4-2.4-0.4c-4.7,0-7,0.8-7,2.2c0,1.1,2,2.2,5.9,3.5
			c-0.6,0.3-1.2,0.6-1.7,0.9c-2.2,1.3-3.4,2.6-3.4,3.9c0,0.7,0.4,1.1,1.2,1.2c0.3,0.1,0.9,0.1,1.7,0c0.1,0,0.3,0,0.5,0v0.2l1.3-0.3
			l0.4-0.1c0.3-0.1,0.7-0.2,1.1-0.2c0.2,0,0.4,0,0.7,0h0.1c1.4-1.4,2.3-2.8,2.7-4.3C171.3,165.5,171.3,164.8,171.3,164z"/>
		<path class="st3" d="M168.4,170.6L168.4,170.6c-0.4,0-0.6,0-0.8,0v0.1v0.3c-1.3,1.2-2.3,2.1-2.8,2.8c-0.7,0.9-1.1,1.6-1.1,2.3
			c0,1.7,0.7,3,2.3,3.8c1.1,0.5,2.3,0.7,3.7,0.7c0.9,0,1.7-0.2,2.7-0.6c0.1-0.2,0.2-0.2,0.3-0.4l0,0c0-0.1,0-0.1,0.1-0.1
			c0.7-1.2,1-2.4,0.6-3.7l-0.4-1.6c-0.3-1.3-1.2-2.3-2.4-3c-0.2-0.1-0.3-0.1-0.4-0.2C169.6,170.8,169,170.6,168.4,170.6z"/>
		<path class="st9" d="M167.6,170.7L167.6,170.7c-0.4-0.1-0.8,0-1.1,0.1l-0.4,0.1C166.6,170.8,167,170.8,167.6,170.7z"/>
		<path class="st4" d="M167.6,171v-0.3c-0.6,0.1-1,0.1-1.5,0.2l-1.3,0.3c-1.5,0.4-2.5,1.2-3.3,2.4c-0.2,0.2-0.3,0.5-0.5,0.9
			c-0.3,0.9-0.4,1.8-0.2,2.8l0.5,1.6c0.3,1.4,1,2.4,2.3,3c0.3,0.2,0.7,0.3,1,0.4c0.8,0.3,1.7,0.3,2.7,0.2c0.1-0.1,0.2-0.1,0.4-0.2
			l1.7-0.4c1.3-0.3,2.3-1,3-1.9c-1,0.4-1.8,0.6-2.7,0.6c-1.4,0-2.6-0.2-3.7-0.7c-1.6-0.8-2.3-2.1-2.3-3.8c0-0.7,0.4-1.4,1.1-2.3
			C165.3,173.1,166.3,172.2,167.6,171z"/>
		<path class="st3" d="M167.3,182.5c0.3,0.6,0.6,1.3,1.1,2.4c0.8,1.9,1.4,3.2,1.9,3.8c1.1,1.8,2.5,2.9,4.1,3.5
			c0-0.4,0.2-0.7,0.3-1.1c1.4-4,0.8-7.8-1.8-11.3l-0.2-0.2c-0.1,0.2-0.2,0.2-0.3,0.4c-0.7,0.9-1.7,1.6-3,1.9l-1.7,0.4
			C167.5,182.4,167.4,182.4,167.3,182.5z"/>
		<path class="st4" d="M168.4,184.9c-0.5-1.1-0.8-1.8-1.1-2.4c-1,0.1-1.9,0.1-2.7-0.2c1.7,8,5.2,12.5,10.7,13.4
			c-0.9-0.8-1.2-2-0.9-3.5c-1.6-0.6-3-1.7-4.1-3.5C169.8,188.1,169.2,186.8,168.4,184.9z"/>
		<path class="st9" d="M172.7,179.6l0.2,0.2c0-0.1-0.1-0.2-0.1-0.3L172.7,179.6L172.7,179.6z"/>
		<path class="st5" d="M124,225.8c-0.8-3.2-1.6-5.5-2.2-6.6c-1.1-2-2.8-3-5-3c-0.5,0-1.6,0.3-3.4,0.9c1.9,0.5,3.4,2.4,4.7,6.1
			c0.8,2.3,2.1,5.5,3.7,9.5h4.6v-0.2C125.6,231.2,124.8,229,124,225.8z"/>
		<path class="st12" d="M166.4,97.8c-2.6,2.5-4.6,5.9-5.8,10.4c-1.9-4.2-4.8-7-8.7-8.4c-4.1,1.7-7.8,4.8-11.3,9
			c-1.2-4.1-3.3-7.1-6.4-9c-5.6,2.5-10.4,6.1-14.2,11c-0.8-4.1-3.3-7.5-7.2-10c-5.2,2.4-10.3,6.2-15.2,11.5
			c-2.3-5.3-5.9-8.2-10.8-8.7c-4.1,2.6-8.5,6.1-13.2,10.7c-1.2-1.6-3.1-3.3-5.9-5.2c-1.6,2.9-3.3,5.7-4.9,8.2
			c-3.1,4.6-6.5,8.7-10.1,12.2"/>
		<path class="st12" d="M167.9,97.1c-0.6-0.1-1.2-0.1-1.7-0.2"/>
		<path class="st12" d="M166.4,97.8c0.4,0.7,0.7,1.5,1,2.2"/>
		<path class="st12" d="M167.4,100c0.4,1.2,0.9,2.3,1.3,3.3c4.8,13.8,7.4,29.3,7.7,46.6c0,0.6,0,1.1-0.1,1.7
			c-0.5,2.3-2.2,4.1-5.1,5.3c-0.9,0.2-1.7,0.5-2.5,0.7"/>
		<line class="st12" x1="160.3" y1="112.8" x2="153.4" y2="115.8"/>
		<path class="st12" d="M123.5,96.9c-27.8,0.9-56.4,7.5-67,10.8l-1.8,0.5c-2.4,0.7-3.2,0.8-5.5,1.5l-3.6,1.4
			c-0.1,0.6-0.9,3.3-1.1,3.8"/>
		<polyline class="st12" points="66.3,114.5 68.2,115.3 72.8,117.3 72.8,117.3 73.1,117.4 		"/>
		<polyline class="st12" points="95.7,140.5 121.3,140.3 124.6,133.8 		"/>
		<path class="st12" d="M95.7,140.5c-0.7-1.2-1.2-2.4-1.5-3.7c-0.2-0.8-0.3-1.7-0.3-2.5l30.7-0.5"/>
		<path class="st12" d="M124.6,133.8l12.5-0.1c0,3.1-1.4,6.1-4.1,9c-3.5,3.6-8.2,5.8-14.1,6.7c-1.2,0.1-2.5,0.2-3.6,0.3
			c-0.7,0-1.5,0-2.3,0c-0.3-0.1-0.7-0.1-1-0.1c-3.2-0.3-6.2-1.2-9-2.7c-3.4-1.6-5.9-3.8-7.3-6.4"/>
		<path class="st12" d="M73.1,117.4l12,5c-0.1,2-0.8,3.7-1.9,5.2c-1.3,1.7-2.8,2.4-4.6,2.4s-3.3-0.7-4.6-2.4c-1.1-1.3-1.7-3-1.9-4.8
			"/>
		<path class="st12" d="M73.1,117.4c-0.7,1.3-1,2.8-1,4.5c0,0.3,0,0.6,0,0.9"/>
		<path class="st12" d="M65.5,159c-5.4-1.4-10.8-3.1-16.2-5c-1.1-0.4-2.1-1-2.9-1.6c3.9-3.7,6-10.4,6.3-19.9c0-1,0-2,0-3"/>
		<path class="st12" d="M60.2,171.8c1.2-1.4,2.3-3,3.1-5c0.8-1.6,1.3-3.4,1.8-5.5c0.1-0.6,0.2-1.4,0.4-2.3"/>
		<path class="st12" d="M65.5,159c8.1,2.1,16,3.8,23.9,4.8c1.9,0.3,3.8,0.5,5.5,0.8c12.7,1.3,25.3,1.4,37.8,0.2"/>
		<line class="st12" x1="72.1" y1="122.8" x2="65.3" y2="120.6"/>
		<path class="st12" d="M89.4,164.3c-6.1,4.5-10.6,8.5-13.3,12.3c-0.6,0.7-0.9,1.5-1,2.5c-0.2,0.9,0,1.8,0.4,2.7
			c0.3,0.5,0.7,1,1.2,1.5c0.1,0.1,0.3,0.3,0.5,0.5l9.1,6.4c-5.1,7.8-3,9.4,6.4,4.8"/>
		<path class="st12" d="M60.9,175.5c-0.1-1.2-0.3-2.4-0.7-3.7"/>
		<path class="st12" d="M60.2,171.8c-1.7,1.6-3.7,2.8-6,3.3c-0.7,0.2-1.4,0.2-2,0.3"/>
		<path class="st12" d="M57.7,183.7c-0.2-0.3-0.4-0.6-0.7-0.8c-1.1-1-2.3-1.5-3.8-1.5h-0.1h-0.2h-1.5c-0.6,0-1.2,0.2-1.8,0.4"/>
		<path class="st12" d="M56.3,192.2L56.3,192.2c0.2-0.2,0.5-0.5,0.7-0.6c1.1-1,1.6-2.2,1.6-3.6v-1.6c0-1-0.3-1.9-0.9-2.7"/>
		<path class="st12" d="M57.7,183.7c2.4-2.1,3.5-4.8,3.2-8.1"/>
		<path class="st12" d="M47.6,191.5L47.6,191.5c-1.8,4.2-1.4,8.1,1,11.7c1.2,1.8,1.4,3.4,0.6,4.7c0.7-0.3,1.5-0.8,2.2-1.3
			c3.5-2.8,5.2-7.5,4.9-14.4l0,0"/>
		<path class="st12" d="M56.3,192.2c-0.1,0-0.1,0-0.2,0c-0.8,0.5-1.8,0.8-2.9,0.8h-1.3h-0.5c-1.5,0-2.7-0.5-3.7-1.4
			c-0.1-0.1-0.1-0.1-0.1-0.1"/>
		<path class="st12" d="M96.1,184.6c1.5-5.5,2.1-9.8,1.7-12.6c0-0.4,0-0.7-0.1-1.1c-0.2,0.1-0.3,0.2-0.4,0.3c-4,2.6-7.1,5.2-9.5,7.6
			L96.1,184.6"/>
		<path class="st12" d="M92.7,195c1-0.5,2.1-1,3.2-1.7c1.4-0.7,2.3-1.6,2.6-2.6c0.3-1.1,0.3-2.1,0-3.2s-0.9-1.9-1.9-2.6l-0.5-0.3"/>
		<path class="st12" d="M154.3,121.2c-0.1,1.8-0.7,3.4-1.8,4.7c-1.2,1.7-2.8,2.5-4.6,2.5c-1.8,0-3.3-0.8-4.6-2.5
			c-1.2-1.4-1.9-3.1-1.9-5.1l12-5"/>
		<polyline class="st12" points="161.3,118.9 154.7,121 154.3,121.2 		"/>
		<path class="st12" d="M154.3,121.2c0.1-0.4,0.1-0.7,0.1-0.9c0-1.8-0.3-3.3-1-4.5"/>
		<path class="st12" d="M153.2,161.6c0.7,0.8,1.6,1.5,2.5,2"/>
		<path class="st12" d="M168.4,170.6c1.4-1.4,2.3-2.8,2.7-4.3c0.2-0.8,0.2-1.5,0.2-2.3c0-1.4-0.5-2.9-1.3-4.3
			c-0.3-0.6-0.8-1.4-1.3-2.1"/>
		<path class="st12" d="M164.2,165.1c-3.1,0.5-6,0-8.5-1.5"/>
		<path class="st12" d="M168.7,157.6c-5.1,1.6-10.4,3-15.5,4"/>
		<path class="st12" d="M132.7,164.8c6.9-0.7,13.6-1.7,20.5-3.2"/>
		<path class="st12" d="M168.4,170.6L168.4,170.6c-0.4,0-0.6,0-0.8,0c-0.4,0-0.8,0.1-1.1,0.2l-0.4,0.1l-1.3,0.3
			c-1.5,0.4-2.5,1.2-3.3,2.4c-0.2,0.2-0.3,0.5-0.5,0.9"/>
		<path class="st12" d="M172.8,179.5c0.7-1.2,1-2.4,0.6-3.7l-0.4-1.6c-0.3-1.3-1.2-2.3-2.4-3c-0.2-0.1-0.3-0.1-0.4-0.2
			c-0.6-0.2-1.2-0.4-1.8-0.4"/>
		<path class="st12" d="M161,174.5c-0.3,0.9-0.4,1.8-0.2,2.8l0.5,1.6c0.3,1.4,1,2.4,2.3,3c0.3,0.2,0.7,0.3,1,0.4"/>
		<path class="st12" d="M151,201.7c1.7-8.5-2-10.5-7.2-10c-0.5-8.1-4-15.6-8.2-22.7c-0.9-1.4-1.9-2.9-2.9-4.2"/>
		<path class="st12" d="M164.6,182.3c0.8,0.3,1.7,0.3,2.7,0.2c0.1-0.1,0.2-0.1,0.4-0.2l1.7-0.4c1.3-0.3,2.3-1,3-1.9
			c0.1-0.2,0.2-0.2,0.3-0.4l0,0c0-0.1,0-0.1,0.1-0.1"/>
		<path class="st12" d="M140.3,201.7c0-0.4,0.1-0.6,0.3-1c0.3-0.7,0.8-1.3,1.5-1.7c0.3-0.3,0.7-0.4,1-0.5h0.1c1.1-0.5,2.3-0.5,3.4,0
			c1.1,0.4,1.8,1.3,2.4,2.7"/>
		<path class="st12" d="M134.3,176.3c2.8,7.8,4.5,13.5,5.1,17.2c0.4,2.3,0.7,4.6,0.8,7c0,0,0,0.5,0.1,0.6c0,0.4,0,0.2,0,0.6"/>
		<path class="st12" d="M92.7,195l-11,33.7l-1.1,3.3l-4,2.5h19.3c3.9-2.3,7.2-5.8,9.7-10.4c1.5-2.7,2.8-4.6,4.2-5.8
			c1-0.9,2.1-1.3,3.1-1.3c0.2,0,0.4,0.1,0.5,0.1c1.9,0.5,3.4,2.4,4.7,6.1c0.8,2.3,2.1,5.5,3.7,9.5h4.6h10.7l-4.9-3.1
			c5.2-7.9,7.9-16.3,8.1-25.5c0-0.3,0-0.6,0-1"/>
		<path class="st12" d="M140.3,203.1c-0.1-0.5-0.1-1,0-1.4"/>
		<path class="st12" d="M164.6,182.3c1.7,8,5.2,12.5,10.7,13.4c-0.9-0.8-1.2-2-0.9-3.5c0-0.4,0.2-0.7,0.3-1.1
			c1.4-4,0.8-7.8-1.8-11.3c0-0.1-0.1-0.2-0.1-0.3l0,0"/>
		<path class="st12" d="M155.7,163.6c-0.4,5.3,1.4,9,5.3,10.9"/>
		<path class="st12" d="M52.7,129.5c-1.7,1.6-3.4,3.1-5,4.4c-0.3,0.2-0.5,0.4-0.8,0.5"/>
		<path class="st12" d="M48.3,164.9c-0.8-1.1-1.5-2.3-2.2-3.6c-5.6-10.2-6.9-22.7-3.9-37.5"/>
		<path class="st12" d="M49.6,181.8c-0.8,0.2-1.4,0.5-1.9,1.1c-1.1,0.9-1.7,2.2-1.7,3.5v1.6c0,1.3,0.5,2.5,1.6,3.5"/>
		<path class="st12" d="M48.3,164.9c-5,7.8-4.5,13.4,1.3,16.9"/>
		<path class="st12" d="M50.4,167.8c-0.7-1-1.5-1.9-2.1-2.9"/>
		<path class="st12" d="M42.2,123.8c0.6-2.9,1.3-5.8,2.2-8.8"/>
		<ellipse cx="78.6" cy="121.7" rx="7.1" ry="8.9"/>
		<ellipse cx="147.9" cy="120.1" rx="7.1" ry="8.9"/>
	</g>
</g>
<g>
	<path class="st13" d="M97.7,33c0,0,1.5-4.5,8.7-4.6c5.5,0,7.8,3.6,7.8,3.6S108.7,32.6,97.7,33z"/>
	<path class="st14" d="M46.9,94.2c0.8-0.8,11-37.5,28.2-50.5c25.2-19.2,53.2-12,66.7,0c13.5,12,24,44.5,24,44.5L46.9,94.2z"/>
	<path class="st13" d="M49,87.3c0,0,23-14.4,59.7-15.7c36.8-1.3,53.5,6.2,53.5,6.2l2.3,6.7c0,0-118.5,13.6-118.4,13.1
		S49,87.3,49,87.3z"/>
	<path class="st15" d="M21.5,130c1.2,0.8-7.8-18.5,69.7-29.4c27.9-3.9,60-7.8,86.2,0.9c12.5,4.2,12.4,10.3,12.4,10.3s4.8-5-1.1-13.9
		c-3.5-5.4-23.3-22.8-83.5-18.5C43.2,83.7,6.7,119.5,21.5,130z"/>
	<path class="st16" d="M44.3,111.1c0,0-2.5-6.9-1.1-9.6c3.5-6.5,22.6-15.8,43.2-19.8c22.6-4.4,45.2-3.4,59.4-1.7
		c14.3,1.7,32.9,10.6,36.7,15.2c1.6,2,0,8.4,0,8.4l-5.1-2.1c0,0,1.5-3.7-1.2-6.3c-2.7-2.6-17.2-10.1-29.8-12.5
		c-14.3-2.7-33.2-3.6-58.7,1.1c-16.9,3.1-34.5,11.7-37.1,16c-2.4,4,1.1,8.8,1.1,8.8L44.3,111.1z"/>
	<g>
		<path class="st17" d="M126.6,53.2c1.7,0.6,3.3,0.3,4.1-1.4c0.8-1.8,0.4-4.4-1.3-5c-1.7-0.6-3.6,0.3-4.4,2.1
			C124.2,50.6,124.9,52.5,126.6,53.2z"/>
		<path class="st17" d="M119.6,51c2,0,4.1-0.9,4-2.9c0-2-2-4-4.1-4c-2,0-4.2,1.9-4.2,4C115.3,50.1,117.5,51,119.6,51z"/>
		<path class="st17" d="M113,53.3c1-0.8,1.8-3,0.4-4.6s-4.4-1.9-5.4-1.1s-1.4,2.8-0.4,4.6C108.5,54,112.1,54.1,113,53.3z"/>
		<path class="st17" d="M120.1,52.2c-5.5,0-12.8,4.4-12.9,10.7c0,5.4,9.1,4.9,12.6,5c2.9,0,12.2-0.6,12.3-5.4
			C132.2,56.6,125.2,52.4,120.1,52.2z"/>
	</g>
</g>
<ellipse transform="matrix(0.5064 -0.8623 0.8623 0.5064 -19.4972 86.1792)" class="st18" cx="65.5" cy="60.1" rx="2" ry="1.2"/>
<ellipse transform="matrix(0.4552 -0.8904 0.8904 0.4552 -35.3946 92.3412)" class="st18" cx="57.8" cy="75.1" rx="2" ry="1.2"/>
<ellipse transform="matrix(0.4235 -0.9059 0.9059 0.4235 -24.0884 104.0056)" class="st18" cx="69.7" cy="70.9" rx="2" ry="1.2"/>
<path class="st19" d="M78.6,41.2c0,0-7.2,10-9.9,17.1c-2.7,7.1-8.5,29.4-8.5,29.4s-14.9,11.1-13.8,13.2s1,1.8,12.9-1.9
	c11.9-3.7,42.6-11.6,69.3-11.4c30.3,0.2,48.4,6.1,53.9,8.6c8.4,3.9,9.1,11.8,9.1,11.8l-1.8,3.9c0,0-0.8-11.8-29.8-14.3
	c-30.4-2.7-71.1,2.5-88.4,5.8c-16.1,3.1-28.8,7.8-38,12.5c-6.8,3.5-9.7,6.8-10.7,9.3c-1,2.4-1.4,4.9-1.4,4.9s-6.8-5.9-0.2-14.7
	c9-12,25.6-21.1,25.6-21.1S57.8,55.7,78.6,41.2z"/>
<path class="st20" d="M159.2,221.4"/>
<g>
	<path class="st21" d="M151.6,207.7c0,0-10-3-10.8-4.2c-1-1.5-1.5-6.4,3.2-5.9s10.8,7.6,10.8,7.6L151.6,207.7z"/>
	<path class="st19" d="M143.3,197.9c0,0-1.8,1.9,0.1,3.5s5.6,2.8,5.6,2.8l-3.7,1.3l-4.4-2.1C140.8,203.5,138.9,197.8,143.3,197.9z"
		/>
</g>
<g>
	<path class="st22" d="M138.6,211.1l-0.2-5.1c0,0,23.9-5.6,24.6-5.1s16.9,8.7,16.8,9.4s-11.2,6.1-17.9,8.8c-6.7,2.7-9.2,2.9-9.2,2.9
		L138.6,211.1z"/>
	<path class="st23" d="M162,204l-20.3,5.4l-3.4-4.2c0,0,22.7-5.8,23.9-5.3C163.4,200.5,162,204,162,204z"/>
	<path class="st20" d="M138.2,205.7c0,0,6.1,6.2,8.1,8.1c4.9,4.5,6.8,8.2,6.8,8.2l-0.5,0.1l-14.1-10.9L138.2,205.7z"/>
	<path class="st24" d="M152.1,219.3c0,0,7.8-2.6,13.5-4.9c5.6-2.3,11-5,11-5"/>
	<path class="st25" d="M179.8,210.3l-18.1-6.3c0,0,0.2-0.7,0.3-1.9s0.2-2.2,0.2-2.2s10.6,5.4,13.6,7.1S180.7,210.7,179.8,210.3z"/>
</g>
<path class="st26" d="M82.9,225.9"/>
</svg>
