<?xml version="1.0" encoding="utf-8"?>
<!-- Generator: Adobe Illustrator 20.1.0, SVG Export Plug-In . SVG Version: 6.00 Build 0)  -->
<svg version="1.1" id="Layer_1" xmlns="http://www.w3.org/2000/svg" xmlns:xlink="http://www.w3.org/1999/xlink" x="0px" y="0px"
	 viewBox="0 0 254 284" style="enable-background:new 0 0 254 284;" xml:space="preserve">
<style type="text/css">
	.st0{opacity:0.2;enable-background:new    ;}
	.st1{fill:none;stroke:#000000;stroke-width:6.25;stroke-linecap:round;stroke-linejoin:round;stroke-miterlimit:10;}
	.st2{fill:#EFEEEE;}
	.st3{fill:#AFAFAF;}
	.st4{fill:#D5D5D5;}
	.st5{fill:#D9D9D8;}
	.st6{fill:#363636;}
	.st7{fill:#AEAEAE;}
	.st8{fill:#7B88C3;}
	.st9{fill:#9DB0FF;}
	.st10{fill:#FFFFFF;}
	.st11{fill:#D9D9D9;}
	.st12{fill:#FFD270;}
	.st13{fill:#FDB172;}
	.st14{fill:none;stroke:#000000;stroke-width:0.75;stroke-linecap:round;stroke-linejoin:round;stroke-miterlimit:10;}
</style>
<g>
	<path class="st0" d="M74,258.9c11.5,2.1,25.3,3.1,41.6,3.1c16.2,0,30.2-1,41.6-3.1s17.2-4.7,17.2-7.6c0-3-5.8-5.6-17.2-7.7
		s-25.4-3.2-41.6-3.2c-16.3,0-30.1,1.1-41.6,3.2s-17.2,4.7-17.2,7.7C56.8,254.2,62.5,256.8,74,258.9z"/>
	<path class="st1" d="M81.4,30.8c-11,0.6-17.6,6.3-19.6,16.9l-16,83.1c0.1,1.6,1.6,2.6,4.7,3.1c-0.6,3-1,5.8-1.4,8.4
		c-0.3,1.5-0.6,3.1-0.8,4.5c-1.8,12.3-2.1,20.3-1.1,24.1c1.1,4.3,5,8.1,11.5,11.1c5.1,2.3,11.6,4.2,19.9,5.7c-0.2,0.3-0.3,0.6-0.5,1
		c-0.9,1.6-1.8,3.3-2.6,4.8c-1.8,3.8-3.3,7.3-4.5,10.6c-1,3.3-1.7,6.3-2,9.2l-4.8-1.4c0-0.2-0.1-0.3-0.2-0.4
		c-0.5-2.2-1.9-4.3-4.1-6.4c-0.2-0.2-0.5-0.4-0.7-0.6c-1.7-1.5-3.7-2.7-5.9-3.7c-1.2-0.6-2.5-1.1-4-1.6c-0.2,0-0.5,0-0.7-0.1h-0.2
		c-0.1-0.1-0.1-0.1-0.3-0.1c-0.3-0.1-0.7-0.2-1.1-0.3c-0.6,0-1.1-0.1-1.6-0.1v-0.3c-5.6-1-10.4-0.5-14.2,1.4
		c-3.9,1.8-6.2,4.6-6.7,8.3c-0.5,3.7,0.6,7,3.3,10.1c2.6,3.1,6.6,5.3,12,6.4c0.4,0,0.7,0.1,1,0.2c0.5,0.1,1,0.2,1.5,0.3
		c0.8,0.1,1.5,0.1,2.2,0.2c4.3,0.3,8.3-0.1,11.8-1.4c1-0.4,1.9-0.9,2.7-1.3c0.1-0.1,0.1-0.1,0.2-0.1c0.2-0.2,0.5-0.3,0.6-0.4
		l9.5,1.6c1.8,2.3,5,3,9.4,2.3l0,0c-0.4,1.1-0.2,1.6,0.4,1.8c0.5,2.1,1,3.9,1.5,5.7c1.6,5.2,3.5,8.9,5.7,11.2l-7,5
		c6.5,0.3,11.6,0.1,15.6-0.5c1.4-0.2,2.5-0.5,3.5-0.8c-0.7-5.1-0.1-9,2.1-11.9c2.3-2.9,6-4.5,11.4-4.9c4.9,0.4,8.2,2,10,4.9
		c2,3,2.5,7.3,1.4,12.7c1.1,0.2,2.2,0.4,3.5,0.5c4.3,0.4,9.5,0.5,15.8,0.3l-8.5-6c2.7-4.5,4.9-9,6.7-13.5c0.1-0.3,0.2-0.5,0.3-0.8
		c1.5-3.9,2.3-9.5,2.4-16.7c0.9,1.4,1.8,2.9,2.4,4.5c0.6,1.4,1.1,2.9,1.5,4.5c-1.3,1.8-0.5,2.6,2.7,2.4c2.5,5,4.3,4.4,5.6-1.8
		c1.1-0.1,2.6-0.6,4.2-1.5c1.2-0.6,1.9-1.9,1.8-3.9c-0.3-11-5.6-19.8-16-26.4c-1.8-1.2-3.6-2.2-5.8-3.2c0.2,0,0.4-0.1,0.6-0.2
		c17.6-3.5,27.3-9,29.3-16.4c0.8-2.8,0.8-7.9-0.1-15.1c-0.1-1.2-0.2-2.5-0.4-3.8c0.7-0.2,1.4-0.3,2.3-0.6l0.2-1.5l10.8,3.4
		c2.7,1.1,4.5,2,5.5,2.6c1,1.8,3.5,2.7,7.6,2.6c4.3-0.2,8.8,1,13.8,3.7c4.9,2.6,8.4,2.9,10.6,0.8c2-2.5,3.1-4.8,3.4-6.8
		c0.1-1.6-0.2-3-1.1-4.4c-2.2-3.6-5.6-6.5-10.2-8.6c-5.4-2.5-12.9-4.5-22.4-5.8c-0.7-0.1-1.3,0-1.8,0.5c-0.4,0.4-0.7,0.9-0.7,1.4
		l-13.7-1.9l9.1-66.1c2.4-10,0.9-16.5-4.6-19.4c-2.6-1.3-5.3-2.6-8-3.8c-23.9-11.5-49.3-17.3-76-17.5C89.9,30.5,85.7,30.6,81.4,30.8
		"/>
	<path class="st2" d="M61.8,47.7l-15.5,80.2c3.7-1,6.2-1.7,7.6-1.8c1.4-0.2,5.6-0.3,13-0.3c16.9,0,36.7,2.5,59.8,7.6
		c1.4,0.4,2.9,0.7,4.2,1c3.5-17.3,6.2-36.2,8.2-56.5c1.7-22.6,2.5-34,2.5-34.2c0-2.9-0.3-5.1-1.1-6.7c-15-4.2-30.5-6.3-46.4-6.4
		c-4.2-0.1-8.4,0-12.7,0.2C70.4,31.4,63.8,37.1,61.8,47.7z"/>
	<path class="st3" d="M130.9,134.4c-1.3-0.3-2.8-0.6-4.2-1c-23.1-5.1-42.9-7.6-59.8-7.6c-7.4,0-11.6,0.1-13,0.3
		c-1.4,0.1-3.9,0.8-7.6,1.8l-0.5,2.9c0.1,1.6,1.6,2.6,4.7,3.1c0.3-1.2,0.5-2.3,0.7-3.5c-0.5,0-1.2,0-1.8,0c0.6,0,1.3,0,1.8,0
		c21.3,0,43.4,2,66.2,6.2c4.2,0.7,8.4,1.6,12.6,2.5c3.6,0.7,7.3,1.6,10.9,2.4c1.9,0.4,3.9,0.9,5.8,1.3c1.2,0.4,2.4,0.7,3.6,1
		c2.6,0.7,5.1,1.4,7.7,2.2c1.4,0.3,2.9,0.7,4.4,1.2c2.2,0.6,4.4,1.2,6.6,1.9c0.3,0.1,0.6,0.2,1,0.3c-0.4-0.1-0.7-0.2-1-0.3
		c0.1,0.9,0.2,1.9,0.3,2.9c0.7-0.2,1.4-0.3,2.3-0.6l0.2-1.5l0.3-1.7c-6.2-3.7-16.3-7.5-30.3-11.1c3.3-16.9,5.9-35.2,7.9-54.9
		c1.6-22.6,2.5-34,2.5-34.3c0-3.7-0.6-6.2-1.8-7.8c-0.1,0-0.1,0-0.1-0.1c-3.2-1.1-6.5-2.1-9.8-3c0.8,1.6,1.1,3.8,1.1,6.7
		c0,0.2-0.8,11.6-2.5,34.2C137.1,98.2,134.4,117.1,130.9,134.4z"/>
	<path class="st4" d="M150.4,40.1L150.4,40.1c-0.1-0.1-0.1-0.1-0.1-0.1C150.3,40.1,150.3,40.1,150.4,40.1z"/>
	<path class="st5" d="M152.2,47.9c0,0.3-0.9,11.7-2.5,34.3c-2,19.7-4.6,38-7.9,54.9c14,3.6,24.1,7.4,30.3,11.1l0.6-4.8l0.9-6
		l9.1-66.1c2.4-10,0.9-16.5-4.6-19.4c-2.6-1.3-5.3-2.6-8-3.8c-2.5-1.3-5.1-2.4-7.7-3.5c-3.9-1.7-8-3.2-12-4.5l0,0
		C151.6,41.7,152.2,44.2,152.2,47.9z"/>
	<path class="st6" d="M189.8,137.4c-0.7-0.1-1.3,0-1.8,0.5c-0.4,0.4-0.7,0.9-0.7,1.4l5,5.9l0.8,0.8l-0.1,0.2
		c13.4,2.7,23.6,6,30.5,10c0.1-1.6-0.2-3-1.1-4.4c-2.2-3.6-5.6-6.5-10.2-8.6C206.8,140.7,199.3,138.7,189.8,137.4z"/>
	<path d="M188.1,155.9c1,1.8,3.5,2.7,7.6,2.6c4.3-0.2,8.8,1,13.8,3.7c4.9,2.6,8.4,2.9,10.6,0.8c2-2.5,3.1-4.8,3.4-6.8
		c-6.9-4-17.1-7.3-30.5-10L188.1,155.9z"/>
	<path class="st7" d="M192.3,145.2l-5.9,0.1c-4.4-0.4-8.9-1-13.7-1.9l-0.6,4.8l-0.3,1.7l10.8,3.4c2.7,1.1,4.5,2,5.5,2.6l4.9-9.7
		l0.1-0.2L192.3,145.2z"/>
	<path class="st8" d="M130.3,143.5c1.5,0,2.7,0.6,3.8,1.8c0.6,0.8,1.1,1.7,1.3,2.9l0,0c0.7,0,1.4,0.2,2,0.3l5.6,1.2
		c1.6,0.3,3.3,0.6,4.9,1l0,0c0.2-1.1,0.2-2.2-0.1-3.4c0.3,1.2,0.3,2.3,0.1,3.4c1.3,0.2,2.5,0.5,3.7,0.7c1.3,12.5-1.7,20.1-9.1,22.6
		c-25.2,8.5-53.1,11.2-83.8,8c5.1,2.3,11.6,4.2,19.9,5.7c0.6,0.1,1.2,0.3,1.7,0.3c0.4,0.1,0.8,0.2,1.1,0.2c8.4,1.4,17.3,2,26.8,2
		c10.3,0,19.8-0.7,28.5-2.2c1-0.2,2-0.3,2.9-0.5c0.2,0,0.2,0,0.3,0c0.2,0,0.4-0.1,0.6-0.2c9.6-1.9,17-4.5,21.9-7.6
		c4.1-2.5,6.6-5.5,7.4-8.8c0.8-2.8,0.8-7.9-0.1-15.1c-0.1-1.2-0.2-2.5-0.4-3.8c-0.1-1-0.2-2-0.3-2.9c-2.2-0.7-4.4-1.3-6.6-1.9
		c-1.5-0.5-3-0.9-4.4-1.2c-2.6-0.8-5.1-1.5-7.7-2.2c-1.2-0.3-2.4-0.6-3.6-1c-1.9-0.4-3.9-0.9-5.8-1.3c-3.6-0.8-7.3-1.7-10.9-2.4
		c-4.2-0.9-8.4-1.8-12.6-2.5c-22.8-4.2-44.9-6.2-66.2-6.2c-0.2,1.2-0.4,2.3-0.7,3.5c-0.6,3-1,5.8-1.4,8.4c-0.3,1.5-0.6,3.1-0.8,4.5
		c3.3-0.4,6.6-0.8,9.9-1.1c0.1-0.9,0.3-1.8,0.6-2.7l0.3-1.2l-0.3,1.2c-0.3,0.9-0.5,1.8-0.6,2.7c1.7-0.3,3.6-0.4,5.3-0.5
		c0.1-0.2,0.2-0.3,0.2-0.5c0.2-0.5,0.5-1,0.8-1.5c0.8-1,1.7-1.6,2.8-1.6s2.1,0.6,2.9,1.7c0.2,0.4,0.4,0.8,0.6,1.4
		c18.3-1.2,36.5-0.5,54.7,2c0.3-0.5,0.6-1.1,1-1.5c0.8-0.8,1.6-1.3,2.6-1.5C129.4,143.5,129.8,143.5,130.3,143.5z"/>
	<path d="M125.5,146.7c-0.4,0.8-0.6,1.6-0.6,2.6v0.2c0.1,1.5,0.6,2.9,1.6,4.1c1.1,1.2,2.3,1.8,3.8,1.8c1.5,0.1,2.7-0.4,3.8-1.6
		c0.6-0.8,1-1.6,1.2-2.6c0.2-0.5,0.3-1,0.3-1.5c0-0.6,0-1-0.2-1.4v-0.1l0,0c-0.2-1.2-0.7-2.1-1.3-2.9c-1.1-1.2-2.3-1.8-3.8-1.8
		c-0.5,0-0.9,0-1.2,0.2c-1,0.2-1.8,0.7-2.6,1.5C126.1,145.6,125.8,146.2,125.5,146.7z"/>
	<path class="st9" d="M124.9,149.5v-0.2c0-1,0.2-1.8,0.6-2.6c-18.2-2.5-36.4-3.2-54.7-2l0,0c0.4,0.9,0.5,1.9,0.5,3
		c0,1.7-0.4,3.1-1.1,4.1c-0.8,1.2-1.8,1.9-2.9,1.7c-1.1,0-2-0.6-2.8-1.8c-0.8-1.3-1.2-2.7-1.2-4.4c0-0.7,0.1-1.5,0.2-2.1
		c-1.7,0.1-3.6,0.2-5.3,0.5c-0.7,4.4,0.6,7.9,3.7,10.5c2.6,2.1,5.5,3.7,8.9,4.7c1.4,0.4,3,0.7,4.6,0.8c1.8,0.3,3.5,0.5,5.3,0.6
		c1.9,0.2,3.8,0.4,5.8,0.6c3.4,0.3,6.8,0.4,10.1,0.6c1.9,0,4,0,6.1,0c2.8,0.2,5.6,0.2,8.5,0.2c3.4,0,6.7-0.1,10-0.2
		c3.2-0.2,6.4-0.4,9.6-0.8c0.5,0,1.1,0,1.6,0c3.4-0.5,6.5-1.5,9.2-3.2c1-0.5,1.8-1.1,2.5-1.8c2.4-1.7,3.7-4,3.8-7
		c-1.6-0.4-3.3-0.7-4.9-1l-5.6-1.2c-0.6-0.1-1.3-0.3-2-0.3v0.1c0.2,0.4,0.2,0.8,0.2,1.4c0,0.5-0.1,1-0.3,1.5c-0.2,1-0.6,1.8-1.2,2.6
		c-1.1,1.2-2.3,1.7-3.8,1.6c-1.5,0-2.7-0.6-3.8-1.8C125.5,152.4,125,151,124.9,149.5z"/>
	<path class="st9" d="M144.1,157.7c-0.7,0.7-1.5,1.3-2.5,1.8l1.9,4.3c0.6,1.4,0,2.4-1.6,2.7l-4.8,1.3c-1.6,0.5-2.7,0-3.2-1.4
		l-1.5-3.7c-0.5,0-1.1,0-1.6,0c-3.2,0.4-6.4,0.6-9.6,0.8l0.2,4.2c0.1,1.5-0.6,2.1-2.3,2.2L114,170c-1.6,0-2.5-0.6-2.6-2l-0.2-4.3
		c-2.9,0-5.7,0-8.5-0.2c-2.1,0-4.2,0-6.1,0l-0.4,5.1c-0.2,1.4-1,2.1-2.7,1.9l-5.2-0.4c-1.6-0.1-2.4-0.9-2.2-2.3l0.4-4.9
		c-2-0.2-3.9-0.4-5.8-0.6l-1.1,4.3c-0.3,1.4-1.3,1.9-2.9,1.6l-5-1c-1.7-0.4-2.3-1.2-1.9-2.5l1-3.8c-3.4-1-6.3-2.6-8.9-4.7
		c-3.1-2.6-4.4-6.1-3.7-10.5c-3.3,0.3-6.6,0.7-9.9,1.1c-1.8,12.3-2.1,20.3-1.1,24.1c1.1,4.3,5,8.1,11.5,11.1
		c30.7,3.2,58.6,0.5,83.8-8c7.4-2.5,10.4-10.1,9.1-22.6c-1.2-0.2-2.4-0.5-3.7-0.7C147.8,153.7,146.5,156,144.1,157.7z"/>
	<path class="st10" d="M143.5,163.8l-1.9-4.3c-2.7,1.7-5.8,2.7-9.2,3.2l1.5,3.7c0.5,1.4,1.6,1.9,3.2,1.4l4.8-1.3
		C143.5,166.2,144.1,165.2,143.5,163.8z"/>
	<path class="st10" d="M121.4,167.7l-0.2-4.2c-3.3,0.1-6.6,0.2-10,0.2l0.2,4.3c0.1,1.4,1,2,2.6,2l5.1-0.1
		C120.8,169.8,121.5,169.2,121.4,167.7z"/>
	<path class="st11" d="M192.3,145.2l-5-5.9l-13.7-1.9l-0.9,6c4.8,0.9,9.3,1.5,13.7,1.9L192.3,145.2z"/>
	<path class="st8" d="M145.7,190.7c-1.8-1.2-3.6-2.2-5.8-3.2c-0.1,0-0.1,0-0.3,0c-0.9,0.2-1.9,0.3-2.9,0.5
		c-8.7,1.5-18.2,2.2-28.5,2.2c-9.5,0-18.4-0.6-26.8-2c-0.3,0-0.7-0.1-1.1-0.2c-0.5,0-1.1-0.2-1.7-0.3c-0.2,0.3-0.3,0.6-0.5,1
		c-0.9,1.6-1.8,3.3-2.6,4.8c16.3,6.1,33.2,7.2,50.8,3.3c4.4,12.2,3.6,24.3-2.5,36.6c-2.6-3.7-6.4-5.6-11.3-5.8
		c-5.1-0.1-9.2,1.6-12.6,5.3c-3.9,4-5.6,9.5-5,16.2c1.4-0.2,2.5-0.5,3.5-0.8c-0.7-5.1-0.1-9,2.1-11.9c2.3-2.9,6-4.5,11.4-4.9
		c4.9,0.4,8.2,2,10,4.9c2,3,2.5,7.3,1.4,12.7c1.1,0.2,2.2,0.4,3.5,0.5c4.3,0.4,9.5,0.5,15.8,0.3l-8.5-6c2.7-4.5,4.9-9,6.7-13.5
		c0.1-0.3,0.2-0.5,0.3-0.8c1.5-3.9,2.3-9.5,2.4-16.7c-1.7-2.6-3.8-4.9-6.4-7.1c2.6,2.2,4.7,4.5,6.4,7.1c0.9,1.4,1.8,2.9,2.4,4.5
		c0.6,1.4,1.1,2.9,1.5,4.5c-1.3,1.8-0.5,2.6,2.7,2.4c2.5,5,4.3,4.4,5.6-1.8c1.1-0.1,2.6-0.6,4.2-1.5c1.2-0.6,1.9-1.9,1.8-3.9
		C161.4,206.1,156.1,197.3,145.7,190.7z"/>
	<path d="M63.3,147.3c0,1.7,0.4,3.1,1.2,4.4c0.8,1.2,1.7,1.8,2.8,1.8c1.1,0.2,2.1-0.5,2.9-1.7c0.7-1,1.1-2.4,1.1-4.1
		c0-1.1-0.1-2.1-0.5-3l0,0c-0.2-0.6-0.4-1-0.6-1.4c-0.8-1.1-1.8-1.7-2.9-1.7s-2,0.6-2.8,1.6c-0.3,0.5-0.6,1-0.8,1.5
		c0,0.2-0.1,0.3-0.2,0.5C63.4,145.8,63.3,146.6,63.3,147.3z"/>
	<path class="st10" d="M71.7,167.2l5,1c1.6,0.3,2.6-0.2,2.9-1.6l1.1-4.3c-1.8-0.1-3.5-0.3-5.3-0.6c-1.6-0.1-3.2-0.4-4.6-0.8l-1,3.8
		C69.4,166,70,166.8,71.7,167.2z"/>
	<path class="st10" d="M86.5,162.9l-0.4,4.9c-0.2,1.4,0.6,2.2,2.2,2.3l5.2,0.4c1.7,0.2,2.5-0.5,2.7-1.9l0.4-5.1
		C93.3,163.3,89.9,163.2,86.5,162.9z"/>
	<path class="st9" d="M77,215c0,0.3,0,0.5,0,0.8c0.1,0.9,0.2,1.9,0.3,3c0.5,2.5,0.9,4.8,1.4,7.1l0,0c0.1,0.6,0.2,1.2,0.4,1.8
		c0.5,2.1,1,3.9,1.5,5.7c1.6,5.2,3.5,8.9,5.7,11.2l-7,5c6.5,0.3,11.6,0.1,15.6-0.5c-0.6-6.7,1.1-12.2,5-16.2
		c3.4-3.7,7.5-5.4,12.6-5.3c4.9,0.2,8.7,2.1,11.3,5.8c6.1-12.3,6.9-24.4,2.5-36.6c-17.6,3.9-34.5,2.8-50.8-3.3
		c-1.8,3.8-3.3,7.3-4.5,10.6c-1,3.3-1.7,6.3-2,9.2l-0.2,0.9c-0.2,2.5,0.2,3.8,1.2,3.8c1,0.1,1.8-1.1,2.3-3.6c0.1-0.5,0.3-1,0.4-1.7
		c-0.1,0.7-0.3,1.2-0.4,1.7l4.7,1.4C77,215.5,77,215.3,77,215c-0.2-3.7-0.2-7.3,0.2-10.9c0.2-2.4,0.6-4.8,1.2-7.1
		c-0.6,2.3-1,4.7-1.2,7.1C76.8,207.7,76.8,211.3,77,215z"/>
	<path class="st12" d="M72.3,214.4c-0.5,2.5-1.3,3.7-2.3,3.6c-1,0-1.4-1.3-1.2-3.8l0.2-0.9l-4.8-1.4c0-0.2-0.1-0.3-0.2-0.4
		c-1.6-1.4-3.2-2.5-4.8-3.4c-5.8-3.1-11.1-3-15.9,0.4c-5.3,3.6-5.6,9.1-1,16.5c0.8,0.1,1.5,0.1,2.2,0.2c4.3,0.3,8.3-0.1,11.8-1.4
		c1-0.4,1.9-0.9,2.7-1.3c0.1-0.1,0.1-0.1,0.2-0.1c0.2-0.2,0.5-0.3,0.6-0.4l9.5,1.6c1.7-0.4,2.6-1.5,2.6-3.3
		c-0.1-1.8,1.8-2.3,5.4-1.5c-0.1-1.1-0.2-2.1-0.3-3L72.3,214.4z"/>
	<path class="st10" d="M78.7,225.9c-0.4,1.1-0.2,1.6,0.4,1.8C78.9,227.1,78.8,226.5,78.7,225.9z"/>
	<path class="st9" d="M69.3,223.6c1.8,2.3,5,3,9.4,2.3c-0.5-2.3-0.9-4.6-1.4-7.1c-3.6-0.8-5.5-0.3-5.4,1.5
		C71.9,222.1,71,223.2,69.3,223.6z"/>
	<path class="st10" d="M45.4,198.6v-0.3l0,0V198.6z"/>
	<path class="st12" d="M31.2,199.7c-3.9,1.8-6.2,4.6-6.7,8.3c-0.5,3.7,0.6,7,3.3,10.1c2.6,3.1,6.6,5.3,12,6.4c-2.4-1.2-4.4-2.9-6-5
		c-2.7-3.3-3.7-6.9-3.1-10.6c0.6-3.8,2.6-6.6,6.1-8.4c2.7-1.5,5.5-2.1,8.6-1.9v-0.3C39.8,197.3,35,197.8,31.2,199.7z"/>
	<path class="st13" d="M45.4,198.6c-3.1-0.2-5.9,0.4-8.6,1.9c-3.5,1.8-5.5,4.6-6.1,8.4c-0.6,3.7,0.4,7.3,3.1,10.6
		c1.6,2.1,3.6,3.8,6,5c0.4,0,0.7,0.1,1,0.2c0.5,0.1,1,0.2,1.5,0.3c-4.6-7.4-4.3-12.9,1-16.5c4.8-3.4,10.1-3.5,15.9-0.4
		c1.6,0.9,3.2,2,4.8,3.4c-0.5-2.2-1.9-4.3-4.1-6.4c-0.2-0.2-0.5-0.4-0.7-0.6c-1.7-1.5-3.7-2.7-5.9-3.7c-1.2-0.6-2.5-1.1-4-1.6
		c-0.2,0-0.5,0-0.7-0.1h-0.2c-0.1-0.1-0.1-0.1-0.3-0.1c-0.3-0.1-0.7-0.2-1.1-0.3C46.4,198.7,45.9,198.6,45.4,198.6z"/>
	<path class="st14" d="M173.6,137.4l9.1-66.1c2.4-10,0.9-16.5-4.6-19.4c-2.6-1.3-5.3-2.6-8-3.8c-2.5-1.3-5.1-2.4-7.7-3.5
		c-3.9-1.7-8-3.2-12-4.5c-0.1-0.1-0.1-0.1-0.1-0.1c-3.2-1.1-6.5-2.1-9.8-3c-15-4.2-30.5-6.3-46.4-6.4c-4.2-0.1-8.4,0-12.7,0.2
		c-11,0.6-17.6,6.3-19.6,16.9l-15.5,80.2l-0.5,2.9c0.1,1.6,1.6,2.6,4.7,3.1"/>
	<path class="st14" d="M188.1,155.9c1,1.8,3.5,2.7,7.6,2.6c4.3-0.2,8.8,1,13.8,3.7c4.9,2.6,8.4,2.9,10.6,0.8c2-2.5,3.1-4.8,3.4-6.8
		c0.1-1.6-0.2-3-1.1-4.4c-2.2-3.6-5.6-6.5-10.2-8.6c-5.4-2.5-12.9-4.5-22.4-5.8c-0.7-0.1-1.3,0-1.8,0.5c-0.4,0.4-0.7,0.9-0.7,1.4"/>
	<polyline class="st14" points="187.3,139.3 192.3,145.2 193.1,146 193,146.2 188.1,155.9 	"/>
	<path class="st14" d="M129.1,143.7c0.3-0.2,0.7-0.2,1.2-0.2c1.5,0,2.7,0.6,3.8,1.8c0.6,0.8,1.1,1.7,1.3,2.9l0,0v0.1
		c0.2,0.4,0.2,0.8,0.2,1.4c0,0.5-0.1,1-0.3,1.5c-0.2,1-0.6,1.8-1.2,2.6c-1.1,1.2-2.3,1.7-3.8,1.6c-1.5,0-2.7-0.6-3.8-1.8
		c-1-1.2-1.5-2.6-1.6-4.1v-0.2c0-1,0.2-1.8,0.6-2.6c0.3-0.5,0.6-1.1,1-1.5C127.3,144.4,128.1,143.9,129.1,143.7"/>
	<path class="st14" d="M169,149.1c-2.2-0.7-4.4-1.3-6.6-1.9c-1.5-0.5-3-0.9-4.4-1.2c-2.6-0.8-5.1-1.5-7.7-2.2
		c-1.2-0.3-2.4-0.6-3.6-1c-1.9-0.4-3.9-0.9-5.8-1.3c-3.6-0.8-7.3-1.7-10.9-2.4c-4.2-0.9-8.4-1.8-12.6-2.5
		c-22.8-4.2-44.9-6.2-66.2-6.2"/>
	<path class="st14" d="M141.6,159.5c1-0.5,1.8-1.1,2.5-1.8c2.4-1.7,3.7-4,3.8-7l0,0c0.2-1.1,0.2-2.2-0.1-3.4"/>
	<path class="st14" d="M141.6,159.5l1.9,4.3c0.6,1.4,0,2.4-1.6,2.7l-4.8,1.3c-1.6,0.5-2.7,0-3.2-1.4l-1.5-3.7"/>
	<path class="st14" d="M132.4,162.7c3.4-0.5,6.5-1.5,9.2-3.2"/>
	<path class="st14" d="M121.2,163.5l0.2,4.2c0.1,1.5-0.6,2.1-2.3,2.2L114,170c-1.6,0-2.5-0.6-2.6-2l-0.2-4.3"/>
	<path class="st14" d="M121.2,163.5c3.2-0.2,6.4-0.4,9.6-0.8c0.5,0,1.1,0,1.6,0"/>
	<path class="st14" d="M170,149.4c-0.4-0.1-0.7-0.2-1-0.3"/>
	<path class="st14" d="M169.3,152c-0.1-1-0.2-2-0.3-2.9"/>
	<path class="st14" d="M139.9,187.5c0.2,0,0.4-0.1,0.6-0.2c9.6-1.9,17-4.5,21.9-7.6c4.1-2.5,6.6-5.5,7.4-8.8
		c0.8-2.8,0.8-7.9-0.1-15.1c-0.1-1.2-0.2-2.5-0.4-3.8"/>
	<polyline class="st14" points="171.8,149.9 172.1,148.2 172.7,143.4 173.6,137.4 	"/>
	<path class="st14" d="M169.3,152c0.7-0.2,1.4-0.3,2.3-0.6l0.2-1.5"/>
	<path class="st14" d="M171.8,149.9l10.8,3.4c2.7,1.1,4.5,2,5.5,2.6"/>
	<line class="st14" x1="173.6" y1="137.4" x2="187.3" y2="139.3"/>
	<path class="st14" d="M143.5,212.9c0.9,1.4,1.8,2.9,2.4,4.5c0.6,1.4,1.1,2.9,1.5,4.5c-1.3,1.8-0.5,2.6,2.7,2.4
		c2.5,5,4.3,4.4,5.6-1.8c1.1-0.1,2.6-0.6,4.2-1.5c1.2-0.6,1.9-1.9,1.8-3.9c-0.3-11-5.6-19.8-16-26.4c-1.8-1.2-3.6-2.2-5.8-3.2"/>
	<path class="st14" d="M78.6,187.7c0.6,0.1,1.2,0.3,1.7,0.3c0.4,0.1,0.8,0.2,1.1,0.2c8.4,1.4,17.3,2,26.8,2
		c10.3,0,19.8-0.7,28.5-2.2c1-0.2,2-0.3,2.9-0.5c0.2,0,0.2,0,0.3,0"/>
	<path class="st14" d="M143.5,212.9c-0.1,7.2-0.9,12.8-2.4,16.7c-0.1,0.3-0.2,0.5-0.3,0.8c-1.8,4.5-4,9-6.7,13.5l8.5,6
		c-6.3,0.2-11.5,0.1-15.8-0.3c-1.3-0.1-2.4-0.3-3.5-0.5c1.1-5.4,0.6-9.7-1.4-12.7c-1.8-2.9-5.1-4.5-10-4.9c-5.4,0.4-9.1,2-11.4,4.9
		c-2.2,2.9-2.8,6.8-2.1,11.9c-1,0.3-2.1,0.6-3.5,0.8c-4,0.6-9.1,0.8-15.6,0.5l7-5c-2.2-2.3-4.1-6-5.7-11.2c-0.5-1.8-1-3.6-1.5-5.7
		c-0.2-0.6-0.3-1.2-0.4-1.8l0,0"/>
	<path class="st14" d="M137.1,205.8c2.6,2.2,4.7,4.5,6.4,7.1"/>
	<path class="st14" d="M51.2,130.4c-0.5,0-1.2,0-1.8,0"/>
	<path class="st14" d="M50.5,133.9c-0.6,3-1,5.8-1.4,8.4c-0.3,1.5-0.6,3.1-0.8,4.5c-1.8,12.3-2.1,20.3-1.1,24.1
		c1.1,4.3,5,8.1,11.5,11.1c5.1,2.3,11.6,4.2,19.9,5.7"/>
	<path class="st14" d="M59.1,141.8l-0.3,1.2c-0.3,0.9-0.5,1.8-0.6,2.7c-0.7,4.4,0.6,7.9,3.7,10.5c2.6,2.1,5.5,3.7,8.9,4.7"/>
	<path class="st14" d="M63.7,144.7c0.2-0.5,0.5-1,0.8-1.5c0.8-1,1.7-1.6,2.8-1.6s2.1,0.6,2.9,1.7c0.2,0.4,0.4,0.8,0.6,1.4l0,0
		c0.4,0.9,0.5,1.9,0.5,3c0,1.7-0.4,3.1-1.1,4.1c-0.8,1.2-1.8,1.9-2.9,1.7c-1.1,0-2-0.6-2.8-1.8c-0.8-1.3-1.2-2.7-1.2-4.4
		c0-0.7,0.1-1.5,0.2-2.1C63.6,145,63.7,144.9,63.7,144.7"/>
	<path class="st14" d="M80.7,162.3l-1.1,4.3c-0.3,1.4-1.3,1.9-2.9,1.6l-5-1c-1.7-0.4-2.3-1.2-1.9-2.5l1-3.8"/>
	<path class="st14" d="M96.6,163.5l-0.4,5.1c-0.2,1.4-1,2.1-2.7,1.9l-5.2-0.4c-1.6-0.1-2.4-0.9-2.2-2.3l0.4-4.9"/>
	<path class="st14" d="M96.6,163.5c1.9,0,4,0,6.1,0c2.8,0.2,5.6,0.2,8.5,0.2"/>
	<path class="st14" d="M70.8,160.9c1.4,0.4,3,0.7,4.6,0.8c1.8,0.3,3.5,0.5,5.3,0.6"/>
	<path class="st14" d="M80.7,162.3c1.9,0.2,3.8,0.4,5.8,0.6"/>
	<path class="st14" d="M86.5,162.9c3.4,0.3,6.8,0.4,10.1,0.6"/>
	<path class="st14" d="M69,213.3c0.3-2.9,1-5.9,2-9.2c1.2-3.3,2.7-6.8,4.5-10.6c0.8-1.5,1.7-3.2,2.6-4.8c0.2-0.4,0.3-0.7,0.5-1"/>
	<path class="st14" d="M78.4,197c-0.6,2.3-1,4.7-1.2,7.1c-0.4,3.6-0.4,7.2-0.2,10.9c0,0.3,0,0.5,0,0.8"/>
	<path class="st14" d="M77,215.8c0.1,0.9,0.2,1.9,0.3,3"/>
	<path class="st14" d="M72.3,214.4c0.1-0.5,0.3-1,0.4-1.7"/>
	<line class="st14" x1="77" y1="215.8" x2="72.3" y2="214.4"/>
	<path class="st14" d="M69.3,223.6c1.7-0.4,2.6-1.5,2.6-3.3c-0.1-1.8,1.8-2.3,5.4-1.5"/>
	<path class="st14" d="M77.3,218.8c0.5,2.5,0.9,4.8,1.4,7.1"/>
	<path class="st14" d="M69.3,223.6l-9.5-1.6c-0.1,0.1-0.4,0.2-0.6,0.4c-0.1,0-0.1,0-0.2,0.1c-0.8,0.4-1.7,0.9-2.7,1.3
		c-3.5,1.3-7.5,1.7-11.8,1.4c-0.7-0.1-1.4-0.1-2.2-0.2c-0.5-0.1-1-0.2-1.5-0.3c-0.3-0.1-0.6-0.2-1-0.2c-5.4-1.1-9.4-3.3-12-6.4
		c-2.7-3.1-3.8-6.4-3.3-10.1s2.8-6.5,6.7-8.3c3.8-1.9,8.6-2.4,14.2-1.4l0,0c0.2,0,0.3,0,0.4,0c0.5,0.2,0.9,0.2,1.3,0.4
		c0.3,0,0.7,0.1,1,0.2"/>
	<path class="st14" d="M48.1,198.9v0.1c0.2,0,0.2,0,0.3,0.1"/>
	<path class="st14" d="M48.1,198.9c0.2,0.1,0.2,0.1,0.3,0.2"/>
	<path class="st14" d="M48.4,199.1h0.2c0.2,0.1,0.5,0.1,0.7,0.1c1.5,0.5,2.8,1,4,1.6c2.2,1,4.2,2.2,5.9,3.7c0.2,0.2,0.5,0.4,0.7,0.6
		c2.2,2.1,3.6,4.2,4.1,6.4c0.1,0.1,0.2,0.2,0.2,0.4l4.8,1.4"/>
	<path class="st14" d="M69,213.3l-0.2,0.9c-0.2,2.5,0.2,3.8,1.2,3.8c1,0.1,1.8-1.1,2.3-3.6"/>
	<path class="st14" d="M78.7,225.9c-4.4,0.7-7.6,0-9.4-2.3"/>
	<path class="st14" d="M51.2,130.4c-0.2,1.2-0.4,2.3-0.7,3.5"/>
	<path class="st14" d="M111.2,163.7c3.4,0,6.7-0.1,10-0.2"/>
</g>
</svg>
