<svg width="540" height="280" viewBox="0 0 540 280" version="1.1" xmlns="http://www.w3.org/2000/svg" xmlns:xlink="http://www.w3.org/1999/xlink">
<title>Page 1</title>
<desc>Created using Figma</desc>
<g id="Canvas" transform="matrix(2 0 0 2 -2020 -7506)">
<g id="Page 1">
<g id="Stroke 1">
<use xlink:href="#path0_stroke" transform="translate(1045.11 3757.58)"/>
</g>
<g id="Fill 3">
<use xlink:href="#path1_fill" transform="translate(1089.51 3859.96)" fill="#FFFFFF"/>
</g>
<g id="Stroke 5">
<use xlink:href="#path2_stroke" transform="translate(1089.51 3859.96)"/>
</g>
<g id="Fill 7">
<use xlink:href="#path3_fill" transform="translate(1145.8 3859.36)" fill="#FFFFFF"/>
</g>
<g id="Stroke 9">
<use xlink:href="#path4_stroke" transform="translate(1145.8 3859.36)"/>
</g>
<g id="Fill 11">
<use xlink:href="#path5_fill" transform="translate(1244.3 3774.7)" fill="#FFFFFF"/>
</g>
<g id="Fill 13">
<use xlink:href="#path6_fill" transform="translate(1244.3 3774.57)" fill="#FFFFFF"/>
</g>
<g id="Fill 15">
<use xlink:href="#path7_fill" transform="translate(1248.53 3779.35)" fill="#FFFFFF"/>
</g>
<g id="Fill 17">
<use xlink:href="#path8_fill" transform="translate(1201.03 3799.54)" fill="#BFC1CA"/>
</g>
<g id="Fill 19">
<use xlink:href="#path9_fill" transform="translate(1259.72 3838.35)" fill="#BFC1CA"/>
</g>
<g id="Fill 21">
<use xlink:href="#path10_fill" transform="translate(1058.93 3757.58)" fill="#46C8F5"/>
</g>
<g id="Fill 23">
<use xlink:href="#path11_fill" transform="translate(1199.21 3799.54)" fill="#FFFFFF"/>
</g>
<g id="Fill 25">
<use xlink:href="#path12_fill" transform="translate(1200.15 3836.07)" fill="#54A7DC"/>
</g>
<g id="Fill 27">
<use xlink:href="#path13_fill" transform="translate(1212.38 3847.83)" fill="#54A7DC"/>
</g>
<g id="Fill 29">
<use xlink:href="#path14_fill" transform="translate(1219.63 3850.3)" fill="#54A7DC"/>
</g>
<g id="Fill 31">
<use xlink:href="#path15_fill" transform="translate(1198.11 3836.94)" fill="#54A7DC"/>
</g>
<g id="Fill 33">
<use xlink:href="#path16_fill" transform="translate(1201.22 3836.07)" fill="#54A7DC"/>
</g>
<g id="Fill 35">
<use xlink:href="#path17_fill" transform="translate(1062.68 3774.57)" fill="#FFFFFF"/>
</g>
<g id="Fill 37">
<use xlink:href="#path18_fill" transform="translate(1064.8 3785)" fill="#FFFFFF"/>
</g>
<g id="Fill 39">
<use xlink:href="#path19_fill" transform="translate(1057.83 3795.17)" fill="#BFC1CA"/>
</g>
<g id="Fill 41">
<use xlink:href="#path20_fill" transform="translate(1058.85 3788.48)" fill="#BFC1CA"/>
</g>
<g id="Fill 43">
<use xlink:href="#path21_fill" transform="translate(1045.15 3788.5)" fill="#BFC1CA"/>
</g>
<g id="Fill 45">
<use xlink:href="#path22_fill" transform="translate(1217.1 3850.54)" fill="#E0E0E0"/>
</g>
<g id="Stroke 47">
<use xlink:href="#path23_stroke" transform="translate(1217.1 3850.54)" fill="#5B5B5B"/>
</g>
<g id="Fill 49">
<use xlink:href="#path24_fill" transform="translate(1217.1 3850.81)" fill="#E0E0E0"/>
</g>
<g id="Stroke 51">
<use xlink:href="#path25_stroke" transform="translate(1217.1 3850.81)" fill="#5B5B5B"/>
</g>
<g id="Group 56">
<g id="Fill 53">
<use xlink:href="#path26_fill" transform="translate(1217.96 3850.54)" fill="#E0E0E0"/>
</g>
<g id="Stroke 55">
<use xlink:href="#path27_stroke" transform="translate(1217.96 3850.54)" fill="#5B5B5B"/>
</g>
</g>
<g id="Stroke 57">
<use xlink:href="#path28_stroke" transform="translate(1062.52 3794.53)"/>
</g>
<g id="Stroke 59">
<use xlink:href="#path29_stroke" transform="translate(1196.72 3799.8)"/>
</g>
<g id="Stroke 61">
<use xlink:href="#path30_stroke" transform="translate(1061.22 3851.01)"/>
</g>
<g id="Fill 63">
<use xlink:href="#path31_fill" transform="translate(1131.21 3803.94)" fill="#FFFFFF"/>
</g>
<g id="Stroke 65">
<use xlink:href="#path32_stroke" transform="translate(1131.21 3803.94)"/>
</g>
<g id="Fill 67">
<use xlink:href="#path33_fill" transform="translate(1096.98 3816.19)" fill="#FFFFFF"/>
</g>
<g id="Stroke 69">
<use xlink:href="#path34_stroke" transform="translate(1096.98 3816.19)"/>
</g>
<g id="Fill 71">
<use xlink:href="#path35_fill" transform="translate(1134.58 3820.44)"/>
</g>
<g id="Fill 73">
<use xlink:href="#path36_fill" transform="translate(1114.07 3829.33)"/>
</g>
<g id="Fill 75">
<use xlink:href="#path37_fill" transform="translate(1129.61 3796.62)"/>
</g>
<g id="Fill 77">
<use xlink:href="#path38_fill" transform="translate(1175.22 3825.03)"/>
</g>
<g id="Fill 79">
<use xlink:href="#path39_fill" transform="translate(1077.34 3848.74)"/>
</g>
<g id="Fill 81">
<use xlink:href="#path40_fill" transform="translate(1190 3847.42)"/>
</g>
<g id="Fill 83">
<use xlink:href="#path41_fill" transform="translate(1209.34 3843.01)" fill="#46C8F5"/>
</g>
<g id="Fill 85">
<use xlink:href="#path42_fill" transform="translate(1207.98 3841.65)"/>
</g>
<g id="Fill 87">
<use xlink:href="#path43_fill" transform="translate(1011.41 3842.56)" fill="#46C8F5"/>
</g>
<g id="Fill 89">
<use xlink:href="#path44_fill" transform="translate(1010 3841.2)"/>
</g>
</g>
</g>
<defs>
<path id="path0_stroke" d="M 173.192 88.1488C 170.707 88.1488 168.692 90.1635 168.692 92.6488C 168.692 95.134 170.707 97.1488 173.192 97.1488L 173.192 88.1488ZM 183.072 92.6488L 183.072 97.1488C 185.557 97.1488 187.572 95.134 187.572 92.6488L 183.072 92.6488ZM 183.038 92.1023L 178.675 93.2034C 178.785 93.6409 178.961 94.0593 179.196 94.4445L 183.038 92.1023ZM 182.915 91.4066L 178.936 93.508C 178.944 93.5236 178.952 93.5391 178.961 93.5546L 182.915 91.4066ZM 182.593 90.7763L 181.428 86.4295C 180.031 86.804 178.898 87.828 178.385 89.1812C 177.872 90.5344 178.041 92.0518 178.84 93.2588L 182.593 90.7763ZM 214.558 80.8766L 212.989 76.659C 212.98 76.6624 212.971 76.6658 212.962 76.6692L 214.558 80.8766ZM 214.918 80.7601L 213.335 76.5479L 214.918 80.7601ZM 217.066 79.9223L 215.398 75.7431C 215.388 75.747 215.378 75.7509 215.368 75.7548L 217.066 79.9223ZM 220.883 78.3387L 219.128 74.195C 219.106 74.2042 219.085 74.2137 219.063 74.2233L 220.883 78.3387ZM 207.688 26.666L 204.252 29.5723C 204.257 29.5778 204.261 29.5832 204.266 29.5887L 207.688 26.666ZM 207.565 26.5203L 211 23.614C 210.995 23.6076 210.989 23.6013 210.984 23.5949L 207.565 26.5203ZM 203.774 22.1729L 200.404 25.1547C 200.408 25.1589 200.411 25.1631 200.415 25.1674L 203.774 22.1729ZM 203.414 21.7698L 200.056 24.7653L 200.058 24.7678L 203.414 21.7698ZM 201.586 19.7376L 204.918 16.7136L 204.912 16.7063L 201.586 19.7376ZM 199.182 16.6999L 202.481 13.6392C 201.153 12.2083 199.055 11.7965 197.285 12.6195C 195.515 13.4425 194.477 15.3127 194.716 17.2499L 199.182 16.6999ZM 202.222 41.3792L 202.222 45.8792C 203.511 45.8792 204.738 45.3262 205.592 44.3604C 206.447 43.3946 206.845 42.1088 206.688 40.8292L 202.222 41.3792ZM 155.177 41.3792L 155.177 36.8792C 152.692 36.8792 150.677 38.8939 150.677 41.3792L 155.177 41.3792ZM 155.177 42.3626L 152.342 45.8572C 153.69 46.9506 155.546 47.1716 157.112 46.4252C 158.679 45.6788 159.677 44.098 159.677 42.3626L 155.177 42.3626ZM 126.17 26.1137L 123.052 22.8689C 121.9 23.9764 121.421 25.612 121.795 27.166C 122.169 28.72 123.339 29.9591 124.869 30.4214L 126.17 26.1137ZM 144.733 16.3946L 146.323 20.6041C 148.17 19.9062 149.347 18.086 149.224 16.1154C 149.102 14.1449 147.709 12.4843 145.79 12.0205L 144.733 16.3946ZM 106.622 22.632L 106.622 27.132C 107.348 27.132 108.064 26.9562 108.707 26.6195L 106.622 22.632ZM 106.088 22.4875L 103.475 26.1509C 104.238 26.6951 105.151 26.9875 106.088 26.9875L 106.088 22.4875ZM 74.5647 0L 77.1781 -3.6634C 75.4924 -4.86588 73.2038 -4.7629 71.633 -3.41389C 70.0621 -2.06489 69.6146 0.181905 70.5486 2.02987L 74.5647 0ZM 86.2968 23.2123L 85.3032 27.6012C 87.0029 27.986 88.772 27.3548 89.8442 25.981C 90.9165 24.6072 91.0991 22.7378 90.313 21.1824L 86.2968 23.2123ZM 60.1106 24.8086L 58.535 20.5935C 56.6894 21.2834 55.5073 23.0936 55.6177 25.0608C 55.7281 27.028 57.1054 28.6946 59.0166 29.1736L 60.1106 24.8086ZM 67.204 28.5968L 69.2735 32.5927C 70.3611 32.0294 71.1722 31.0471 71.5194 29.8725C 71.8666 28.6979 71.7201 27.4325 71.1135 26.3684L 67.204 28.5968ZM 46.2237 41.3792L 46.2237 45.8792C 47.3097 45.8792 48.359 45.4865 49.1782 44.7735L 46.2237 41.3792ZM 27.4122 41.3792L 22.9492 40.8035C 22.7836 42.0867 23.1784 43.379 24.0328 44.3507C 24.8871 45.3223 26.1184 45.8792 27.4122 45.8792L 27.4122 41.3792ZM 30.5957 16.6999L 35.0587 17.2756C 35.3087 15.3374 34.2792 13.4594 32.5107 12.6277C 30.7423 11.7961 28.6392 12.2008 27.3058 13.6295L 30.5957 16.6999ZM 21.3985 27.2078L 24.7858 30.1704C 24.7987 30.1555 24.8116 30.1406 24.8244 30.1256L 21.3985 27.2078ZM 19.7423 29.2003L 16.3682 26.2229C 16.2887 26.313 16.2128 26.4062 16.1407 26.5024L 19.7423 29.2003ZM 18.4394 30.8491L 15.2534 27.6712C 15.1438 27.781 15.0401 27.8964 14.9425 28.0169L 18.4394 30.8491ZM 13.7368 36.9164L 17.34 39.6121L 17.3426 39.6086L 13.7368 36.9164ZM 13.2544 37.5748L 16.8638 40.2623C 16.8688 40.2555 16.8739 40.2486 16.8789 40.2418L 13.2544 37.5748ZM 12.7163 38.317L 16.3431 40.9809L 16.3461 40.9768L 12.7163 38.317ZM 8.88891 78.3376L 10.7683 74.2488C 10.7229 74.2279 10.6771 74.2078 10.631 74.1884L 8.88891 78.3376ZM 19.597 82.5347L 23.0954 85.365C 24.0175 84.2253 24.3266 82.7078 23.9238 81.2982C 23.521 79.8886 22.4568 78.7636 21.0717 78.2832L 19.597 82.5347ZM 13.8205 92.6488L 9.66899 90.9123C 9.08798 92.3014 9.24018 93.889 10.0745 95.1423C 10.9089 96.3957 12.3148 97.1488 13.8205 97.1488L 13.8205 92.6488ZM 170.868 97.1488C 173.353 97.1488 175.368 95.134 175.368 92.6488C 175.368 90.1635 173.353 88.1488 170.868 88.1488L 170.868 97.1488ZM 173.192 97.1488L 183.072 97.1488L 183.072 88.1488L 173.192 88.1488L 173.192 97.1488ZM 187.572 92.6488L 187.572 92.629L 178.572 92.629L 178.572 92.6488L 187.572 92.6488ZM 187.572 92.629C 187.572 92.9367 187.533 93.1799 187.511 93.3015C 187.518 93.2658 187.503 93.3449 187.512 93.2964C 187.522 93.2455 187.553 93.0665 187.573 92.9187C 187.603 92.6166 187.585 91.791 187.486 91.2332C 187.34 90.6031 187.092 90.1077 186.88 89.7601L 179.196 94.4445C 179.054 94.2122 178.845 93.8114 178.719 93.2654C 178.583 92.6773 178.598 92.166 178.642 91.8117C 178.66 91.6656 178.682 91.5568 178.684 91.5461C 178.682 91.5564 178.677 91.583 178.662 91.661C 178.637 91.7996 178.583 92.2566 178.572 92.629L 187.572 92.629ZM 187.401 91.0011C 187.501 91.3975 187.51 91.859 187.491 91.4987C 187.483 91.3588 187.463 91.0179 187.372 90.6043C 187.274 90.1603 187.112 89.7063 186.869 89.2587L 178.961 93.5546C 178.781 93.2247 178.658 92.8802 178.583 92.5434C 178.516 92.2369 178.505 92.0008 178.503 91.9692C 178.503 91.9741 178.502 91.9551 178.503 91.9646C 178.503 91.9742 178.504 91.9935 178.505 92.017C 178.507 92.0634 178.514 92.1777 178.521 92.2749C 178.541 92.5174 178.582 92.8357 178.675 93.2034L 187.401 91.0011ZM 186.894 89.3053C 186.902 89.321 186.947 89.4142 186.842 89.1873C 186.767 89.0283 186.561 88.6333 186.346 88.2937L 178.84 93.2588C 178.79 93.1836 178.749 93.1135 178.718 93.0551C 178.689 93.0014 178.674 92.967 178.68 92.9807C 178.685 92.9914 178.69 93.0031 178.702 93.0295C 178.715 93.056 178.734 93.098 178.753 93.1397C 178.797 93.233 178.858 93.3604 178.936 93.508L 186.894 89.3053ZM 183.757 95.123C 196.925 91.5946 207.886 88.2183 216.154 85.0839L 212.962 76.6692C 204.965 79.7058 194.436 82.9456 181.428 86.4295L 183.757 95.123ZM 216.127 85.0941C 216.061 85.1187 216.015 85.1334 216.005 85.1365C 215.998 85.1388 215.995 85.1394 216.034 85.1279C 216.065 85.1184 216.131 85.0984 216.196 85.0781C 216.268 85.055 216.376 85.0194 216.502 84.9722L 213.335 76.5479C 213.404 76.5217 213.454 76.5058 213.466 76.502C 213.476 76.4988 213.48 76.4979 213.444 76.5087C 213.413 76.5178 213.35 76.5369 213.287 76.5566C 213.217 76.579 213.111 76.6135 212.989 76.659L 216.127 85.0941ZM 216.502 84.9722C 217.258 84.6879 218.033 84.3871 218.764 84.0897L 215.368 75.7548C 214.709 76.0237 214.048 76.2799 213.335 76.5479L 216.502 84.9722ZM 218.735 84.1015C 220.09 83.5605 221.465 83.0012 222.703 82.4542L 219.063 74.2233C 217.951 74.7156 216.727 75.2121 215.398 75.7431L 218.735 84.1015ZM 222.638 82.4825C 227.176 80.5606 230.746 77.5941 232.667 73.3557C 234.562 69.1737 234.549 64.4201 233.288 59.4837C 230.814 49.8014 223.134 37.8208 211.109 23.7433L 204.266 29.5887C 216.154 43.5067 222.638 54.1581 224.568 61.7112C 225.508 65.3924 225.255 67.9073 224.47 69.6404C 223.71 71.3171 222.157 72.9125 219.128 74.195L 222.638 82.4825ZM 211.123 23.7597L 211 23.614L 204.129 29.4267L 204.252 29.5723L 211.123 23.7597ZM 210.984 23.5949C 209.754 22.1579 208.473 20.6808 207.133 19.1785L 200.415 25.1674C 201.715 26.6247 202.936 28.0327 204.145 29.4458L 210.984 23.5949ZM 207.145 19.1911C 207.011 19.0402 206.882 18.8969 206.77 18.7717L 200.058 24.7678C 200.186 24.9106 200.301 25.0377 200.404 25.1547L 207.145 19.1911ZM 206.772 18.7742C 206.166 18.095 205.546 17.4049 204.918 16.7136L 198.253 22.7616C 198.867 23.4383 199.462 24.0998 200.056 24.7653L 206.772 18.7742ZM 204.912 16.7063C 204.672 16.453 204.418 16.0967 204.015 15.551C 203.611 15.0054 203.053 14.2651 202.481 13.6392L 195.883 19.7606C 196.132 20.0191 196.381 20.3654 196.778 20.9014C 197.174 21.4373 197.711 22.1576 198.26 22.7689L 204.912 16.7063ZM 194.716 17.2499L 197.755 41.9292L 206.688 40.8292L 203.648 16.1499L 194.716 17.2499ZM 202.222 36.8792L 200.773 36.8792L 200.773 45.8792L 202.222 45.8792L 202.222 36.8792ZM 200.773 36.8792L 192.382 36.8792L 192.382 45.8792L 200.773 45.8792L 200.773 36.8792ZM 192.382 36.8792L 155.177 36.8792L 155.177 45.8792L 192.382 45.8792L 192.382 36.8792ZM 150.677 41.3792L 150.677 42.3626L 159.677 42.3626L 159.677 41.3792L 150.677 41.3792ZM 158.012 38.8681C 148.464 31.136 138.561 25.1926 127.471 21.806L 124.869 30.4214C 134.907 33.4178 143.293 38.5021 152.342 45.8572L 158.012 38.8681ZM 129.288 29.3585C 132.015 26.7377 137.449 23.9575 146.323 20.6041L 143.142 12.1851C 134.359 15.5038 127.268 18.8176 123.052 22.8689L 129.288 29.3585ZM 145.79 12.0205C 132.475 8.80293 118.567 11.3057 104.536 18.6445L 108.707 26.6195C 121.302 20.0317 132.968 18.1812 143.676 20.7687L 145.79 12.0205ZM 106.622 18.132C 106.962 18.132 107.234 18.1729 107.401 18.2046C 107.574 18.2374 107.707 18.2744 107.782 18.2967C 107.859 18.3197 107.914 18.3389 107.931 18.3449C 107.946 18.3502 107.955 18.3537 107.925 18.3424C 107.9 18.3334 107.843 18.3122 107.786 18.2919C 107.721 18.269 107.62 18.2339 107.497 18.1974C 107.377 18.1615 107.2 18.1132 106.985 18.0726C 106.776 18.0329 106.465 17.9875 106.088 17.9875L 106.088 26.9875C 105.747 26.9875 105.475 26.9466 105.308 26.9149C 105.135 26.8821 105.002 26.8451 104.928 26.8228C 104.851 26.7999 104.796 26.7806 104.779 26.7746C 104.764 26.7693 104.755 26.7659 104.785 26.7771C 104.809 26.7862 104.867 26.8073 104.924 26.8277C 104.988 26.8506 105.09 26.8856 105.213 26.9222C 105.333 26.958 105.51 27.0063 105.724 27.047C 105.933 27.0866 106.245 27.132 106.622 27.132L 106.622 18.132ZM 108.701 18.8241L 77.1781 -3.6634L 71.9514 3.6634L 103.475 26.1509L 108.701 18.8241ZM 70.5486 2.02987L 82.2806 25.2422L 90.313 21.1824L 78.5809 -2.02987L 70.5486 2.02987ZM 87.2904 18.8233C 77.7127 16.698 67.7373 17.2104 58.535 20.5935L 61.6862 29.0238C 69.5602 26.0238 76.9376 25.6646 85.3032 27.6012L 87.2904 18.8233ZM 59.0166 29.1736C 60.7182 29.6001 61.8079 29.9476 62.5481 30.3097C 62.9377 30.4935 62.9863 30.5167 63.1743 30.6932C 63.3588 30.8319 63.2298 30.6721 63.2945 30.8251L 71.1135 26.3684C 68.8668 22.4267 64.3684 21.2366 61.2046 20.4437L 59.0166 29.1736ZM 65.1345 24.6009C 56.4457 29.1008 49.0423 33.001 43.2692 37.9849L 49.1782 44.7735C 54.1144 40.4357 60.5978 37.0858 69.2735 32.5927L 65.1345 24.6009ZM 46.2237 36.8792L 27.4122 36.8792L 27.4122 45.8792L 46.2237 45.8792L 46.2237 36.8792ZM 31.8752 41.9549L 35.0587 17.2756L 26.1326 16.1242L 22.9492 40.8035L 31.8752 41.9549ZM 27.3058 13.6295C 23.88 17.3026 20.7598 21.0177 17.9727 24.29L 24.8244 30.1256C 27.6325 26.8285 30.6189 23.268 33.8855 19.7703L 27.3058 13.6295ZM 18.0113 24.2453C 17.3495 25.0066 16.7979 25.7411 16.3682 26.2229L 23.1164 32.1778C 23.7746 31.4268 24.3387 30.6768 24.7858 30.1704L 18.0113 24.2453ZM 16.1407 26.5024C 15.8943 26.8318 15.6875 27.1212 15.51 27.3536C 15.4228 27.4683 15.3792 27.5245 15.3149 27.6005C 15.255 27.673 15.2289 27.6934 15.2534 27.6712L 21.6254 34.0271C 22.3377 33.2862 22.9653 32.402 23.3438 31.8983L 16.1407 26.5024ZM 14.9425 28.0169C 13.2185 30.146 11.6045 32.2507 10.1309 34.2242L 17.3426 39.6086C 18.7817 37.681 20.2873 35.7167 21.9363 33.6814L 14.9425 28.0169ZM 10.1335 34.2208C 9.94458 34.4738 9.76905 34.7189 9.62996 34.9077L 16.8789 40.2418C 17.0536 40.0042 17.2082 39.7879 17.34 39.6121L 10.1335 34.2208ZM 9.64509 34.8873C 9.41932 35.1914 9.23608 35.4536 9.08646 35.6573L 16.3461 40.9768C 16.5568 40.6887 16.7199 40.4545 16.8638 40.2623L 9.64509 34.8873ZM 9.0895 35.6531C 1.21023 46.3805 -3.63275 55.8478 -4.39371 63.7923C -4.78727 67.9012 -4.10428 71.782 -2.01208 75.138C 0.0666584 78.4724 3.26773 80.858 7.14685 82.4867L 10.631 74.1884C 8.00072 73.0841 6.48062 71.7486 5.62532 70.3767C 4.78349 69.0263 4.3196 67.2155 4.56529 64.6505C 5.08284 59.2471 8.66291 51.4372 16.3431 40.9809L 9.0895 35.6531ZM 7.00948 82.4263C 10.6344 84.0892 14.3107 85.4637 18.1223 86.7862L 21.0717 78.2832C 17.3587 76.9955 14.0892 75.7787 10.7683 74.2488L 7.00948 82.4263ZM 16.0986 79.7043C 13.4366 83.0295 11.2103 87.2385 9.66899 90.9123L 17.9719 94.3852C 19.355 91.0678 20.9572 87.9732 23.0954 85.365L 16.0986 79.7043ZM 13.8205 97.1488L 152.399 97.1488L 152.399 88.1488L 13.8205 88.1488L 13.8205 97.1488ZM 152.399 97.1488L 158.162 97.1488L 158.162 88.1488L 152.399 88.1488L 152.399 97.1488ZM 158.162 97.1488L 170.868 97.1488L 170.868 88.1488L 158.162 88.1488L 158.162 97.1488Z"/>
<path id="path1_fill" fill-rule="evenodd" d="M 0 0L 41.6991 4.06078L 18.278 30.2689L 0 0Z"/>
<path id="path2_stroke" d="M 0 0L 0.120671 -1.23914L -2.3478 -1.47953L -1.06576 0.643566L 0 0ZM 41.6991 4.06078L 42.6275 4.89039L 44.2636 3.05962L 41.8198 2.82164L 41.6991 4.06078ZM 18.278 30.2689L 17.2123 30.9124L 18.0834 32.355L 19.2063 31.0985L 18.278 30.2689ZM -0.120671 1.23914L 41.5785 5.29992L 41.8198 2.82164L 0.120671 -1.23914L -0.120671 1.23914ZM 40.7708 3.23118L 17.3497 29.4392L 19.2063 31.0985L 42.6275 4.89039L 40.7708 3.23118ZM 19.3438 29.6253L 1.06576 -0.643566L -1.06576 0.643566L 17.2123 30.9124L 19.3438 29.6253Z"/>
<path id="path3_fill" fill-rule="evenodd" d="M 0 3.95009C 0 3.95009 14.1229 3.00393 21.4522 2.51337C 33.1541 1.72802 48.0836 0 48.0836 0L 27.1613 31.4609L 0 3.95009Z"/>
<path id="path4_stroke" d="M 0 3.95009L -0.0832218 2.70787L -2.79652 2.88965L -0.885957 4.82479L 0 3.95009ZM 21.4522 2.51337L 21.5354 3.75559L 21.5356 3.75558L 21.4522 2.51337ZM 48.0836 0L 49.1202 0.689422L 50.6064 -1.54532L 47.9404 -1.23674L 48.0836 0ZM 27.1613 31.4609L 26.2754 32.3356L 27.3506 33.4246L 28.198 32.1503L 27.1613 31.4609ZM 0 3.95009C 0.0832218 5.1923 0.0832756 5.1923 0.0833832 5.19229C 0.0834908 5.19228 0.0836521 5.19227 0.0838669 5.19226C 0.0842967 5.19223 0.0849406 5.19219 0.0857976 5.19213C 0.0875116 5.19202 0.0900775 5.19184 0.0934856 5.19161C 0.100302 5.19116 0.110486 5.19048 0.123958 5.18957C 0.150904 5.18777 0.191002 5.18508 0.243616 5.18156C 0.348844 5.17451 0.504133 5.1641 0.704376 5.15069C 1.10486 5.12386 1.68517 5.08498 2.40444 5.0368C 3.84297 4.94043 5.83737 4.80683 8.06081 4.65791C 12.5077 4.36005 17.8707 4.00087 21.5354 3.75559L 21.3691 1.27115C 17.7044 1.51643 12.3413 1.87561 7.8944 2.17347C 5.67095 2.3224 3.67655 2.456 2.238 2.55237C 1.51873 2.60055 0.938426 2.63943 0.537938 2.66626C 0.337694 2.67967 0.182404 2.69008 0.0771755 2.69713C 0.024561 2.70065 -0.0155383 2.70334 -0.0424838 2.70514C -0.0559566 2.70605 -0.0661411 2.70673 -0.0729573 2.70718C -0.0763655 2.70741 -0.0789316 2.70758 -0.0806456 2.7077C -0.0815026 2.70776 -0.0821467 2.7078 -0.0825764 2.70783C -0.0827913 2.70784 -0.0829527 2.70785 -0.0830603 2.70786C -0.0831679 2.70787 -0.0832218 2.70787 0 3.95009ZM 21.5356 3.75558C 27.4033 3.36166 34.0827 2.73139 39.2825 2.20075C 41.8835 1.9353 44.1203 1.69422 45.7043 1.51979C 46.4968 1.43251 47.1275 1.36174 47.5592 1.31289C 47.7753 1.28843 47.9422 1.26939 48.0547 1.25652C 48.111 1.25006 48.154 1.24512 48.1828 1.24181C 48.1972 1.24015 48.2082 1.23888 48.2155 1.23804C 48.2191 1.23762 48.2219 1.23729 48.2238 1.23708C 48.2247 1.23697 48.2255 1.23689 48.2259 1.23683C 48.2262 1.2368 48.2264 1.23678 48.2265 1.23677C 48.2266 1.23675 48.2267 1.23674 48.0836 0C 47.9404 -1.23674 47.9404 -1.23674 47.9403 -1.23673C 47.9402 -1.23672 47.94 -1.2367 47.9398 -1.23667C 47.9394 -1.23662 47.9387 -1.23655 47.9379 -1.23645C 47.9361 -1.23624 47.9335 -1.23594 47.9299 -1.23553C 47.9227 -1.2347 47.9121 -1.23348 47.898 -1.23185C 47.8695 -1.22857 47.8272 -1.22371 47.7714 -1.21732C 47.6595 -1.2045 47.4942 -1.18565 47.2792 -1.16132C 46.8487 -1.1126 46.2217 -1.04224 45.4317 -0.955245C 43.8507 -0.781129 41.6237 -0.541113 39.0297 -0.276389C 33.8393 0.253314 27.203 0.879733 21.3688 1.27117L 21.5356 3.75558ZM 47.0469 -0.689422L 26.1246 30.7714L 28.198 32.1503L 49.1202 0.689422L 47.0469 -0.689422ZM 28.0473 30.5862L 0.885957 3.07538L -0.885957 4.82479L 26.2754 32.3356L 28.0473 30.5862Z"/>
<path id="path5_fill" fill-rule="evenodd" d="M 0 0C 0.82057 0.8844 1.61557 1.75365 2.40243 2.61941C 1.61789 1.75482 0.818246 0.88207 0 0"/>
<path id="path6_fill" fill-rule="evenodd" d="M 2.02586 29.2877L 2.31526 29.1421C 3.7623 33.6398 5.78816 37.9919 8.39399 42.1995C 13.8916 51.0493 20.2597 55.4014 27.3496 55.4014C 27.7843 55.4014 28.3631 55.4014 28.942 55.2558C 34.0885 46.0226 26.0502 29.2901 4.59217 5.18172C 4.47246 5.04656 4.35158 4.91256 4.23186 4.77739C 3.63213 4.10623 3.02309 3.42923 2.40243 2.74642C 1.61441 1.88066 0.82057 0.883235 0 0L 3.0382 24.9694L 1.59116 24.9694C 1.73645 26.1347 1.73645 26.8385 1.88057 27.8545C 1.88057 28.1447 1.88057 28.8519 2.02586 29.2877"/>
<path id="path7_fill" fill-rule="evenodd" d="M 0 0C 0.119715 0.134 0.240592 0.269165 0.360307 0.403165C 0.241754 0.269165 0.119715 0.134 0 0"/>
<path id="path8_fill" fill-rule="evenodd" d="M 58.6894 38.9357C 58.8033 38.8938 58.916 38.8507 59.0276 38.8087C 61.1976 37.9919 63.2025 37.111 64.975 36.3793C 68.3026 34.9286 70.9084 32.8976 72.2113 30.2863C 71.6325 30.432 71.0537 30.432 70.619 30.432C 63.5279 30.432 57.161 26.0787 51.6622 17.2301C 49.0575 13.0225 47.0317 8.66922 45.5846 4.17264L 45.2952 4.3183C 45.15 3.8825 45.15 3.17405 45.15 2.88391C 45.0058 1.86784 45.0058 1.16522 44.8605 0L 36.4677 0C 35.4542 1.16522 34.2966 1.43322 32.8495 2.30363C 28.219 5.20503 23.4432 8.89643 18.6674 13.104C 8.82868 21.5181 2.60467 29.2388 0 35.7675C 0.145285 36.0577 0.289408 36.3629 0.289408 36.5086C 2.82202 41.124 6.47274 45.0904 11.3485 48.2761C 12.6026 49.0953 13.9171 49.8806 15.3398 50.5926C 15.3642 50.6054 15.3816 50.7545 15.406 50.7662C 15.6455 50.8885 15.8628 51.2696 16.0767 51.2696L 18.6046 51.2696C 18.8975 51.2696 19.1974 50.9654 19.4868 50.8885C 21.9962 50.215 24.3835 49.5765 26.772 48.9228C 38.6377 45.7313 48.6229 42.6505 56.438 39.7491C 57.2063 39.5044 57.956 39.2072 58.6894 38.9357"/>
<path id="path9_fill" fill-rule="evenodd" d="M 0.338224 0C 0.226645 0.0419478 0.113904 0.0850609 0 0.127009C 0.116228 0.0850609 0.22432 0.0419478 0.338224 0"/>
<path id="path10_fill" fill-rule="evenodd" d="M 141.224 80.6622C 141.441 80.1541 141.695 79.7195 141.912 79.3571C 142.071 79.0891 142.196 78.8747 142.288 78.686C 142.32 78.6195 142.363 78.5438 142.382 78.4867C 142.382 78.3411 142.238 78.0509 142.092 77.7608C 137.752 68.7665 137.752 56.8708 142.092 42.3626C 132.975 34.819 123.281 29.3052 112.717 26.1149C 116.19 22.7777 122.267 19.7306 131.095 16.3946C 119.084 13.4921 106.205 15.6687 92.8918 22.632L 92.4571 22.632L 92.313 22.4875L 60.7652 0L 72.4868 23.2123C 63.5163 21.1813 54.8329 21.6171 46.2948 24.8086C 49.7677 25.6791 52.2282 26.9853 53.3859 29.0151C 44.7036 33.5128 37.7567 37.8649 32.4032 42.217C 19.2334 52.9533 10.2618 66.2997 5.77537 82.5487L 5.77537 82.6931C 3.37526 85.6598 1.46099 89.089 0 92.9622L 21.5929 96.4788C 21.5929 96.4788 20.0377 110.084 79.5744 111.564C 123.692 112.66 140.284 99.7985 140.284 99.7985C 142.142 93.0647 140.929 81.3298 141.224 80.6622"/>
<path id="path11_fill" fill-rule="evenodd" d="M 3.04738 35.799C 5.65205 29.2703 11.9842 21.581 21.8252 13.167C 26.601 8.95936 31.4314 5.20503 36.062 2.30363C 37.509 1.43322 38.7213 1.16522 39.7348 0L 2.82771 0L 2.82771 0.400835C -0.659135 14.9078 -1.29374 26.8047 3.04738 35.799"/>
<path id="path12_fill" fill-rule="evenodd" d="M 1.16898 0C 1.15038 0.0570957 1.10738 0.132835 1.07483 0.199252C 0.983011 0.388017 0.858647 0.602417 0.699415 0.870417C 0.482068 1.2328 0.228691 1.66859 0.0113444 2.17546C -0.175783 2.5996 1.98722 10.854 3.90382 17.6181L 16.9562 14.4755C 16.7424 14.352 16.525 14.2308 16.2856 14.1085C 16.2612 14.0968 16.2438 14.084 16.2193 14.0723C 14.7979 13.3592 13.4822 12.5785 12.2281 11.7594C 7.35231 8.57367 3.70159 4.61543 1.16898 0"/>
<path id="path13_fill" fill-rule="evenodd" d="M 4.05752 2.35024C 4.03311 2.33743 4.01568 2.32577 3.99127 2.31412C 2.5698 1.60101 1.2541 0.820313 0 0C 1.2541 0.820313 2.5698 1.59984 3.99127 2.31412C 4.01568 2.32577 4.03311 2.33743 4.05752 2.35024"/>
<path id="path14_fill" fill-rule="evenodd" d="M 0.882171 0C 0.593925 0.0769043 0.292895 0.166626 0 0.247026C 0.292895 0.166626 0.593925 0.0769043 0.882171 0"/>
<path id="path15_fill" fill-rule="evenodd" d="M 2.05325 1.30504C 2.2706 0.797009 2.52397 0.362383 2.74132 0C 2.52397 0.362383 2.2706 0.797009 2.05325 1.30504C 1.75803 1.97271 -0.62697 6.50075 0.157569 12.9397L 5.94573 16.7477C 4.02913 9.98358 1.86612 1.72918 2.05325 1.30504"/>
<path id="path16_fill" fill-rule="evenodd" d="M 0.0941447 0C 0.0755482 0.0570957 0.0325439 0.132835 0 0.199252C 0.0325439 0.132835 0.0755482 0.0570957 0.0941447 0"/>
<path id="path17_fill" fill-rule="evenodd" d="M 1.44704 14.345C 0.433531 16.6661 0 18.6971 0 20.2934C 0 22.3244 0 23.6294 0.289408 23.9196C 0.433531 24.3554 1.15763 24.663 2.17114 25.3889L 2.46055 24.9706L 9.84103 24.9706L 13.0234 0C 9.63531 3.63897 6.65987 7.1288 3.82739 10.3623C 3.24857 11.0416 2.67208 11.7524 2.11768 12.4189C 1.84686 13.097 1.58303 13.802 1.44704 14.345"/>
<path id="path18_fill" fill-rule="evenodd" d="M 1.70971 0C 1.15531 0.632713 0.597412 1.27009 0.0534649 1.88765C 0.0348684 1.93426 0.0185965 1.97854 0 2.02515C 0.554408 1.35864 1.1309 0.679322 1.70971 0"/>
<path id="path19_fill" fill-rule="evenodd" d="M 0 0.735252C 0.180154 0.489391 0.353333 0.248191 0.536974 0C 0.355658 0.247026 0.178991 0.490557 0 0.735252"/>
<path id="path20_fill" fill-rule="evenodd" d="M 4.70259 0C 3.01612 2.08224 1.45634 4.09108 0 6.04165C 1.45866 4.10157 3.04285 2.09157 4.73397 0.0233043L 4.70259 0Z"/>
<path id="path21_fill" fill-rule="evenodd" d="M 46.1849 11.0451L 27.3722 11.0451L 19.9917 11.0451L 19.7023 11.4634C 18.69 10.7375 17.9659 10.3658 17.8217 9.93115C 17.5323 9.64101 17.5323 8.36743 17.5323 6.33645C 17.5323 4.7401 17.9659 2.72544 18.9794 0.40433L 18.4319 0C 16.7408 2.06826 15.1566 4.08176 13.698 6.02184C 13.5376 6.23741 13.3725 6.45647 13.2145 6.66854C 13.0308 6.9179 12.8576 7.16026 12.6775 7.40496C -2.77504 28.577 -4.16164 41.815 8.84893 47.4243C 12.323 49.0195 14.7219 50.4714 18.4842 51.7764L 18.6202 51.3686C 23.1066 35.1208 33.0162 21.5321 46.1849 11.0451"/>
<path id="path22_fill" fill-rule="evenodd" d="M 0.854276 0.467252L 0.854276 0.467252C 0.542785 0.311113 0.271974 0.154974 0 0C 0.271974 0.154974 0.542785 0.311113 0.854276 0.467252"/>
<path id="path23_stroke" d="M 1.23092 -0.284134C 0.941185 -0.428967 0.689942 -0.574233 0.416115 -0.730266L -0.416115 0.730266C -0.145994 0.884181 0.144385 1.05119 0.477634 1.21864L 1.23092 -0.284134ZM -0.416115 0.730266C -0.145994 0.884181 0.144385 1.05119 0.477634 1.21864L 1.23092 -0.284134C 0.941185 -0.428967 0.689942 -0.574233 0.416115 -0.730266L -0.416115 0.730266Z"/>
<path id="path24_fill" fill-rule="evenodd" d="M 2.52796 0L 0 0C 0.273136 0 0.543947 0.312278 0.855439 0.467252C 1.42379 0.301791 1.97355 0 2.52796 0"/>
<path id="path25_stroke" d="M 0.855439 0.467252L 0.41 1.36256L 0.759814 1.5366L 1.13496 1.42739L 0.855439 0.467252ZM 2.52796 -1L 0 -1L 0 1L 2.52796 1L 2.52796 -1ZM 0 1C -0.122773 1 -0.201123 0.965105 -0.214034 0.959145C -0.223438 0.957226 -0.209497 0.960341 -0.155785 0.997765C -0.100474 1.03584 -0.0297208 1.0888 0.057961 1.14994C 0.14578 1.21081 0.28312 1.29772 0.41 1.36256L 1.30088 -0.42806C 1.23843 -0.452707 1.15197 -0.52865 0.982457 -0.646743C 0.853993 -0.735659 0.483081 -1 0 -1L 0 1ZM 1.13496 1.42739C 1.47269 1.32742 1.77563 1.20201 2.02396 1.11659C 2.27022 1.03079 2.38376 0.991115 2.52796 1L 2.52796 -1C 2.11775 -0.991115 1.67921 -0.879894 1.3699 -0.773435C 1.06266 -0.666594 0.80654 -0.558378 0.57592 -0.492888L 1.13496 1.42739Z"/>
<path id="path26_fill" fill-rule="evenodd" d="M 0 0.467252L 0 0.467252C 0.568355 0.300626 1.11928 0.151478 1.67252 0"/>
<path id="path27_stroke" d="M 0.236459 1.2738C 0.796416 1.10959 1.34007 0.962458 1.89448 0.810663L 1.45056 -0.810663C 0.898478 -0.659502 0.340295 -0.508342 -0.236459 -0.339301L 0.236459 1.2738Z"/>
<path id="path28_stroke" d="M 12.329 23.2484L 11.8153 22.8969L 11.8153 22.8969L 12.329 23.2484ZM -0.443459 45.6063C -0.517518 45.919 -0.570057 46.1683 -0.596759 46.3367C -0.611044 46.429 -0.621406 46.5337 -0.62249 46.6048C -0.622048 46.6535 -0.612677 46.7461 -0.59994 46.8051C -0.586806 46.8578 -0.522012 47.1055 -0.256122 47.2352C 0.0476952 47.3835 0.306193 47.24 0.378065 47.1932C 0.464837 47.1367 0.522124 47.0705 0.547702 47.0397C 0.592543 46.9839 0.650604 46.8962 0.693454 46.8221C 0.770214 46.688 0.871874 46.4854 0.986651 46.2425C 1.43827 45.2861 2.22953 43.4387 3.30811 41.0751C 5.46802 36.3417 8.77425 29.5429 12.8428 23.5999L 11.8153 22.8969C 7.69783 28.9173 4.34186 35.8109 2.17547 40.5583C 1.0909 42.9351 0.302984 44.7751 -0.139078 45.7107C -0.247723 45.9408 -0.326641 46.099 -0.386029 46.2018C -0.411254 46.2462 -0.411801 46.2447 -0.41098 46.2453C -0.408232 46.242 -0.370949 46.1953 -0.301331 46.1499C -0.246612 46.1143 -0.00241602 45.9737 0.289975 46.1164C 0.54444 46.2406 0.600683 46.4742 0.608169 46.5043C 0.623552 46.566 0.622501 46.6097 0.622498 46.6103C 0.623227 46.6195 0.623463 46.5903 0.633135 46.5301C 0.654347 46.3938 0.697324 46.1913 0.767969 45.8935L -0.443459 45.6063ZM 12.8427 23.6C 16.9083 17.6559 22.262 11.8885 26.6222 7.58126C 28.7997 5.42995 30.7183 3.65519 32.098 2.41302C 32.7866 1.79302 33.3374 1.30903 33.7181 0.978192C 33.9079 0.813273 34.0538 0.687768 34.1533 0.602694C 34.2027 0.560398 34.2399 0.528718 34.2652 0.507241C 34.2777 0.49662 34.287 0.488792 34.2933 0.48344C 34.2964 0.480822 34.2986 0.478942 34.3002 0.477627C 34.3009 0.476999 34.3014 0.476571 34.3018 0.476256C 34.302 0.476113 34.3021 0.476028 34.3022 0.475956C 34.3022 0.475914 34.3022 0.475914 33.9009 0C 33.4997 -0.475914 33.4996 -0.475828 33.4994 -0.475698C 33.4993 -0.475598 33.4991 -0.475425 33.4989 -0.475224C 33.4984 -0.474851 33.4977 -0.474249 33.4968 -0.473504C 33.4951 -0.472073 33.4925 -0.469841 33.4891 -0.466988C 33.4825 -0.461399 33.4724 -0.452857 33.4594 -0.441758C 33.4335 -0.419795 33.3945 -0.38664 33.3439 -0.343352C 33.2433 -0.257259 33.0937 -0.128603 32.9014 0.0384513C 32.5181 0.371555 31.9592 0.862768 31.265 1.48776C 29.879 2.73559 27.9394 4.53003 25.7472 6.69557C 21.368 11.022 15.9356 16.8788 11.8153 22.8969L 12.8427 23.6Z"/>
<path id="path29_stroke" d="M 0.790314 24.5185L 0.18846 24.6775L 0.188464 24.6775L 0.790314 24.5185ZM 5.12959 0C 5.12959 -0.0787995 5.14907 -0.121397 5.13885 -0.0912218C 5.13017 -0.0645728 5.1193 -0.0389414 5.09421 0.0153433C 5.04076 0.131954 4.96239 0.282163 4.85454 0.4816C 4.63702 0.883958 4.32551 1.43497 3.95941 2.11694C 3.22984 3.47623 2.27879 5.36948 1.43743 7.62422C -0.234502 12.1151 -1.49927 18.2232 0.18846 24.6775L 1.39217 24.3595C -0.254686 18.191 0.961434 12.4611 2.60403 8.05903C 3.41994 5.86729 4.33457 4.05035 5.05637 2.70575C 5.41595 2.03578 5.72654 1.48642 5.9497 1.07375C 6.06219 0.865667 6.1588 0.679693 6.22526 0.535673C 6.26011 0.459642 6.29542 0.373846 6.31794 0.308483C 6.3389 0.246647 6.37459 0.131453 6.37459 0L 5.12959 0ZM 0.188464 24.6775C 1.86026 31.0045 3.24342 35.2704 5.95011 39.2973C 8.65537 43.3042 12.7045 47.1067 19.6628 52.5646L 20.4311 51.5849C 13.5153 46.1619 9.6034 42.4972 6.98251 38.6015C 4.36305 34.7259 3.05495 30.6541 1.39216 24.3595L 0.188464 24.6775Z"/>
<path id="path30_stroke" d="M 138.897 5.226L 138.47 4.05675L 137.995 4.2302L 137.776 4.68503L 138.897 5.226ZM 18.2559 4.51871L 19.3533 3.93055L 19.0668 3.39609L 18.4694 3.29214L 18.2559 4.51871ZM 152.759 -1.16925L 138.47 4.05675L 139.325 6.39525L 153.614 1.16925L 152.759 -1.16925ZM 138.897 5.226C 137.776 4.68503 137.777 4.68317 137.778 4.68136C 137.778 4.68083 137.779 4.67907 137.779 4.678C 137.779 4.67888 137.783 4.67042 137.782 4.67217C 137.782 4.67313 137.787 4.66209 137.786 4.66403C 137.787 4.66286 137.789 4.65943 137.787 4.66167C 137.78 4.67616 137.776 4.68291 137.758 4.71078C 137.711 4.78616 137.656 4.869 137.544 5.00955C 137.294 5.32822 136.922 5.73863 136.261 6.28731C 134.937 7.39313 132.554 8.94257 128.418 10.5166C 120.135 13.6692 104.901 16.8893 77.2917 16.8893L 77.2917 19.3793C 105.061 19.3793 120.629 16.1452 129.304 12.8437C 133.647 11.1906 136.283 9.51301 137.857 8.19852C 138.644 7.53705 139.192 6.93901 139.499 6.55175C 139.665 6.33934 139.798 6.14485 139.869 6.03115C 139.911 5.96448 139.949 5.89874 139.968 5.86439C 139.98 5.84221 139.993 5.81792 139.999 5.80668C 140.003 5.79854 140.008 5.78863 140.01 5.78454C 140.012 5.78123 140.014 5.77684 140.015 5.77518C 140.015 5.77371 140.016 5.77166 140.017 5.77093C 140.018 5.76893 140.019 5.76697 138.897 5.226ZM 77.2917 16.8893C 51.519 16.8893 36.9357 13.4962 28.8449 10.1748C 24.8133 8.5266 22.4506 6.93142 21.0138 5.69996C 20.3236 5.1127 19.915 4.66413 19.6392 4.32164C 19.513 4.16623 19.4435 4.06745 19.3883 3.9839C 19.3659 3.95033 19.3577 3.93682 19.3473 3.91936C 19.3445 3.91479 19.3435 3.91284 19.3448 3.9152C 19.3443 3.91428 19.348 3.92085 19.3477 3.9204C 19.347 3.91912 19.3505 3.92549 19.3502 3.92485C 19.3506 3.9257 19.3514 3.92712 19.3516 3.92755C 19.3524 3.92902 19.3533 3.93055 18.2559 4.51871C 17.1586 5.10687 17.1595 5.10851 17.1604 5.11019C 17.1608 5.11082 17.1617 5.11256 17.1624 5.11382C 17.1632 5.11528 17.1652 5.11906 17.1669 5.12199C 17.1689 5.12574 17.1738 5.1345 17.178 5.14197C 17.1841 5.1527 17.197 5.17499 17.2096 5.19619C 17.23 5.23025 17.2691 5.29319 17.3127 5.35935C 17.3897 5.47524 17.5276 5.66898 17.7019 5.88588C 18.0274 6.28798 18.5931 6.90313 19.3955 7.59233C 20.9439 8.91378 23.6393 10.7225 27.8993 12.4782C 36.392 15.9646 51.3266 19.3793 77.2917 19.3793L 77.2917 16.8893ZM 18.4694 3.29214L 0.213413 0.115758L -0.213413 2.5689L 18.0425 5.74529L 18.4694 3.29214Z"/>
<path id="path31_fill" fill-rule="evenodd" d="M 10.9185 24.0653C 10.0433 24.8332 9.05765 25.2725 7.74544 25.2725C 6.54131 25.2725 5.44761 24.8332 4.68166 24.0653C 3.80647 23.0784 3.36829 22.0915 3.36829 20.8843C 3.36829 19.6771 3.80647 18.5807 4.68166 17.7033C 5.44761 16.9354 6.54131 16.4961 7.74544 16.4961C 9.05765 16.4961 10.0433 16.9354 10.9185 17.7033C 11.7937 18.5807 12.2318 19.6771 12.2318 20.8843C 12.2318 22.0915 11.7937 23.0784 10.9185 24.0653L 10.9185 24.0653ZM 40.459 7.00995C 35.7971 2.50405 30.303 0 23.8093 0C 17.1495 0 11.6554 2.50405 6.82607 7.00995C 2.16533 11.6848 0 17.526 0 23.8695C 0 30.3784 2.16533 36.0542 6.82607 40.7278C 11.6554 45.2337 17.1495 47.5712 23.8093 47.5712C 30.303 47.5712 35.7971 45.2337 40.459 40.7278C 45.1209 36.0542 47.4524 30.3784 47.4524 23.8695C 47.4524 17.526 45.1209 11.6848 40.459 7.00995L 40.459 7.00995Z"/>
<path id="path32_stroke" d="M 10.9185 24.0653L 11.329 24.5333L 11.3583 24.5075L 11.3842 24.4784L 10.9185 24.0653ZM 4.68166 24.0653L 4.21591 24.4784L 4.22803 24.492L 4.24093 24.505L 4.68166 24.0653ZM 4.68166 17.7033L 4.24093 17.2636L 4.24093 17.2636L 4.68166 17.7033ZM 10.9185 17.7033L 11.3592 17.2636L 11.3446 17.249L 11.329 17.2353L 10.9185 17.7033ZM 40.459 7.00995L 40.8999 6.57031L 40.8916 6.56235L 40.459 7.00995ZM 6.82607 7.00995L 6.4014 6.5548L 6.39318 6.56247L 6.38524 6.57044L 6.82607 7.00995ZM 6.82607 40.7278L 6.38529 41.1674L 6.39321 41.1753L 6.4014 41.183L 6.82607 40.7278ZM 40.459 40.7278L 40.8917 41.1755L 40.8997 41.1675L 40.459 40.7278ZM 10.5079 23.5974C 9.70749 24.309 8.92811 24.6636 7.74544 24.65L 7.74544 25.895C 9.18719 25.8814 10.379 25.3574 11.329 24.5333L 10.5079 23.5974ZM 7.74544 24.65C 6.69179 24.65 5.76143 24.2664 5.12239 23.6257L 4.24093 24.505C 5.13378 25.4001 6.39084 25.895 7.74544 25.895L 7.74544 24.65ZM 5.14741 23.6523C 4.35157 22.7549 3.99079 21.9095 3.99079 20.8843L 2.74579 20.8843C 2.74579 22.2734 3.26136 23.4019 4.21591 24.4784L 5.14741 23.6523ZM 3.99079 20.8843C 3.99079 19.8389 4.36575 18.9014 5.12239 18.1429L 4.24093 17.2636C 3.24718 18.2599 2.74579 19.5154 2.74579 20.8843L 3.99079 20.8843ZM 5.12239 18.1429C 5.76143 17.5022 6.69179 17.1186 7.74544 17.1186L 7.74544 15.8736C 6.39084 15.8736 5.13378 16.3685 4.24093 17.2636L 5.12239 18.1429ZM 7.74544 17.1186C 8.92811 17.105 9.70749 17.4596 10.5079 18.1712L 11.329 17.2353C 10.379 16.4112 9.18719 15.8872 7.74544 15.8736L 7.74544 17.1186ZM 10.4777 18.1429C 11.2344 18.9014 11.6093 19.8389 11.6093 20.8843L 12.8543 20.8843C 12.8543 19.5154 12.3529 18.2599 11.3592 17.2636L 10.4777 18.1429ZM 11.6093 20.8843C 11.6093 21.9095 11.2486 22.7549 10.4527 23.6523L 11.3842 24.4784C 12.3388 23.4019 12.8543 22.2734 12.8543 20.8843L 11.6093 20.8843ZM 40.8916 6.56235C 36.1279 1.95807 30.4832 -0.6225 23.8093 -0.6225L 23.8093 0.6225C 30.1227 0.6225 35.4663 3.05004 40.0264 7.45755L 40.8916 6.56235ZM 23.8093 -0.6225C 17.0174 -0.608324 11.3094 1.98652 6.4014 6.5548L 7.25075 7.4651C 12.0013 3.02159 17.2815 0.608324 23.8093 0.6225L 23.8093 -0.6225ZM 6.38524 6.57044C 1.59893 11.3712 -0.6225 17.3748 -0.6225 23.8695L 0.6225 23.8695C 0.6225 17.6773 2.73173 11.9984 7.26691 7.44946L 6.38524 6.57044ZM -0.6225 23.8695C -0.6225 30.5319 1.60046 36.3693 6.38529 41.1674L 7.26686 40.2883C 2.7302 35.739 0.6225 30.2248 0.6225 23.8695L -0.6225 23.8695ZM 6.4014 41.183C 11.316 45.7556 17.0251 48.1811 23.8093 48.1937L 23.8093 46.9487C 17.2738 46.9612 11.9947 44.7119 7.25075 40.2727L 6.4014 41.183ZM 23.8093 48.1937C 30.4722 48.1937 36.1194 45.788 40.8916 41.1754L 40.0264 40.2802C 35.4748 44.6795 30.1337 46.9487 23.8093 46.9487L 23.8093 48.1937ZM 40.8997 41.1675C 45.6778 36.3773 48.0749 30.5435 48.0749 23.8695L 46.8299 23.8695C 46.8299 30.2133 44.564 35.731 40.0183 40.2882L 40.8997 41.1675ZM 48.0749 23.8695C 48.0749 17.3633 45.6795 11.3634 40.8998 6.57038L 40.0182 7.44951C 44.5623 12.0062 46.8299 17.6888 46.8299 23.8695L 48.0749 23.8695Z"/>
<path id="path33_fill" fill-rule="evenodd" d="M 22.8842 18.9524C 22.2287 19.7203 21.4616 19.9405 20.4771 19.9405C 19.6019 19.9405 18.836 19.7203 18.1793 18.9524C 17.4133 18.2952 17.0856 17.5261 17.0856 16.5392C 17.0856 15.6618 17.4133 14.8939 18.1793 14.2356C 18.836 13.4677 19.6019 13.1379 20.4771 13.1379C 21.4616 13.1379 22.2287 13.4677 22.8842 14.2356C 23.6501 14.8939 23.9779 15.6618 23.9779 16.5392C 23.9779 17.5261 23.6501 18.2952 22.8842 18.9524L 22.8842 18.9524ZM 15.3398 0C 11.1428 0 7.52577 1.4507 4.4864 4.49774C 1.44704 7.54362 0 11.1709 0 15.3785C 0 19.7306 1.44704 23.2123 4.4864 26.2593C 7.52577 29.3052 11.1428 30.7559 15.3398 30.7559C 19.5368 30.7559 23.1538 29.3052 26.1932 26.2593C 29.0872 23.2123 30.6784 19.7306 30.6784 15.3785C 30.6784 11.1709 29.0872 7.54362 26.1932 4.49774C 23.1538 1.4507 19.5368 0 15.3398 0L 15.3398 0Z"/>
<path id="path34_stroke" d="M 22.8842 18.9524L 22.4788 18.4799L 22.4421 18.5114L 22.4107 18.5482L 22.8842 18.9524ZM 18.1793 18.9524L 18.6524 18.5478L 18.6211 18.5112L 18.5846 18.4799L 18.1793 18.9524ZM 18.1793 14.2356L 18.585 14.7077L 18.6213 14.6765L 18.6524 14.6402L 18.1793 14.2356ZM 22.8842 14.2356L 22.4107 14.6397L 22.442 14.6763L 22.4784 14.7077L 22.8842 14.2356ZM 4.4864 4.49774L 4.92705 4.93744L 4.92713 4.93736L 4.4864 4.49774ZM 4.4864 26.2593L 4.04567 26.699L 4.04576 26.699L 4.4864 26.2593ZM 26.1932 26.2593L 26.6338 26.699L 26.6392 26.6936L 26.6445 26.688L 26.1932 26.2593ZM 26.1932 4.49774L 26.6444 4.06895L 26.6392 4.06347L 26.6339 4.05812L 26.1932 4.49774ZM 22.4107 18.5482C 21.911 19.1336 21.3464 19.318 20.4771 19.318L 20.4771 20.563C 21.5767 20.563 22.5463 20.3069 23.3576 19.3565L 22.4107 18.5482ZM 20.4771 19.318C 19.7296 19.318 19.1596 19.1409 18.6524 18.5478L 17.7062 19.357C 18.5124 20.2996 19.4742 20.563 20.4771 20.563L 20.4771 19.318ZM 18.5846 18.4799C 17.9639 17.9473 17.7081 17.3545 17.7081 16.5392L 16.4631 16.5392C 16.4631 17.6978 16.8628 18.6431 17.7739 19.4248L 18.5846 18.4799ZM 17.7081 16.5392C 17.7081 15.846 17.9546 15.2496 18.585 14.7077L 17.7735 13.7635C 16.8721 14.5383 16.4631 15.4776 16.4631 16.5392L 17.7081 16.5392ZM 18.6524 14.6402C 19.1934 14.0075 19.7878 13.7604 20.4771 13.7604L 20.4771 12.5154C 19.416 12.5154 18.4785 12.9278 17.7062 13.831L 18.6524 14.6402ZM 20.4771 13.7604C 21.2882 13.7604 21.8791 14.0169 22.4107 14.6397L 23.3576 13.8314C 22.5783 12.9185 21.635 12.5154 20.4771 12.5154L 20.4771 13.7604ZM 22.4784 14.7077C 23.1089 15.2496 23.3554 15.846 23.3554 16.5392L 24.6004 16.5392C 24.6004 15.4776 24.1914 14.5383 23.29 13.7635L 22.4784 14.7077ZM 23.3554 16.5392C 23.3554 17.3545 23.0996 17.9473 22.4788 18.4799L 23.2895 19.4248C 24.2007 18.6431 24.6004 17.6978 24.6004 16.5392L 23.3554 16.5392ZM 15.3398 -0.6225C 10.9804 -0.6225 7.20392 0.891898 4.04567 4.05812L 4.92713 4.93736C 7.84762 2.00949 11.3052 0.6225 15.3398 0.6225L 15.3398 -0.6225ZM 4.04576 4.05804C 0.88745 7.22311 -0.6225 11.0096 -0.6225 15.3785L 0.6225 15.3785C 0.6225 11.3322 2.00663 7.86412 4.92705 4.93744L 4.04576 4.05804ZM -0.6225 15.3785C -0.6225 19.8952 0.889717 23.535 4.04567 26.699L 4.92713 25.8197C 2.00436 22.8896 0.6225 19.5661 0.6225 15.3785L -0.6225 15.3785ZM 4.04576 26.699C 7.20398 29.864 10.9804 31.3784 15.3398 31.3784L 15.3398 30.1334C 11.3051 30.1334 7.84756 28.7464 4.92705 25.8196L 4.04576 26.699ZM 15.3398 31.3784C 19.6991 31.3784 23.4756 29.864 26.6338 26.699L 25.7525 25.8196C 22.832 28.7464 19.3744 30.1334 15.3398 30.1334L 15.3398 31.3784ZM 26.6445 26.688C 29.6356 23.5389 31.3009 19.908 31.3009 15.3785L 30.0559 15.3785C 30.0559 19.5533 28.5389 22.8857 25.7418 25.8306L 26.6445 26.688ZM 31.3009 15.3785C 31.3009 10.9967 29.6379 7.21948 26.6444 4.06895L 25.7419 4.92652C 28.5365 7.86776 30.0559 11.3452 30.0559 15.3785L 31.3009 15.3785ZM 26.6339 4.05812C 23.4756 0.891898 19.6992 -0.6225 15.3398 -0.6225L 15.3398 0.6225C 19.3744 0.6225 22.8319 2.00949 25.7524 4.93736L 26.6339 4.05812Z"/>
<path id="path35_fill" fill-rule="evenodd" d="M 4.37715 0C 3.17419 0 2.07932 0.439287 1.31338 1.20717C 0.43818 2.08457 0 3.18104 0 4.38821C 0 5.59537 0.43818 6.58231 1.31338 7.56925C 2.07932 8.33713 3.17419 8.77642 4.37715 8.77642C 5.69053 8.77642 6.67614 8.33713 7.55018 7.56925C 8.42537 6.58231 8.86355 5.59537 8.86355 4.38821C 8.86355 3.18104 8.42537 2.08457 7.55018 1.20717C 6.67614 0.439287 5.69053 0 4.37715 0"/>
<path id="path36_fill" fill-rule="evenodd" d="M 3.39154 0C 2.51634 0 1.75039 0.329757 1.09371 1.09763C 0.327763 1.75482 0 2.52386 0 3.40127C 0 4.38821 0.327763 5.15609 1.09371 5.81444C 1.75039 6.58231 2.51634 6.80137 3.39154 6.80137C 4.37599 6.80137 5.14193 6.58231 5.79862 5.81444C 6.56456 5.15609 6.89232 4.38821 6.89232 3.40127C 6.89232 2.52386 6.56456 1.75482 5.79862 1.09763C 5.14193 0.329757 4.37599 0 3.39154 0"/>
<path id="path37_fill" fill-rule="evenodd" d="M 4.82437 4.73518C 9.44676 0.526415 15.0548 0.104606 15.0548 0.104606C 15.0548 0.104606 8.98883 -0.988368 3.30411 3.89156C -2.3806 8.77266 0.99466 15.4552 0.99466 15.4552C 0.99466 15.4552 0.203146 8.94394 4.82437 4.73518"/>
<path id="path38_fill" fill-rule="evenodd" d="M 8.82269 0C 8.82269 0 10.8206 7.98524 9.08885 13.6494C 7.35589 19.3158 -0.49067 24.7049 0.0242202 24.3892C 5.63571 20.9611 8.30082 19.9613 10.8613 14.0304C 13.4207 8.09826 8.82269 0 8.82269 0"/>
<path id="path39_fill" fill-rule="evenodd" d="M 3.16605 6.73539C 3.07539 4.40495 3.16605 3.49958 6.60292 2.29125C 10.0398 1.08059 15.8279 2.9694 15.4665 2.87852C 15.1038 2.78763 10.4919 -1.07507 4.34112 0.292898C 1.09836 1.01417 0 6.73539 0 6.73539L 3.16605 6.73539Z"/>
<path id="path40_fill" fill-rule="evenodd" d="M 0 1.8602C 0 1.8602 3.24741 0.67168 5.66728 1.8602C 12.2888 5.11116 6.72031 11.9452 6.72031 11.9452L 12.4097 7.53831C 12.4097 7.53831 14.833 1.58404 8.26033 0.163645C 4.47711 -0.654338 0 1.8602 0 1.8602"/>
<path id="path41_fill" fill-rule="evenodd" d="M 25.5882 46.4386C 25.4441 46.4386 25.2988 46.4153 25.1581 46.3675C 24.6921 46.2125 24.3457 45.8152 24.255 45.3305L 20.4695 25.2363C 19.9767 26.4341 19.363 27.6786 18.6145 28.7925C 16.2121 32.3721 12.2615 35.813 12.0953 35.9586C 11.8442 36.1753 11.5269 36.2895 11.2073 36.2895C 11.019 36.2895 10.8295 36.2499 10.6506 36.1695C 10.1694 35.9528 9.85671 35.4762 9.84974 34.9472L 9.54638 11.9808L 1.10823 10.4007C 0.660748 10.3168 0.28417 10.0127 0.106341 9.59207C -0.0703261 9.17143 -0.0249971 8.68903 0.22838 8.308C 0.4527 7.96892 5.94913 0 23.2962 0C 26.3088 0 29.5446 0.244696 32.914 0.728261C 32.9873 0.738748 33.0605 0.756226 33.1314 0.778365C 34.4657 1.20134 46.2454 5.01044 49.1592 8.50609C 52.2451 12.2115 45.9095 25.0102 43.8941 28.845C 43.6593 29.2936 43.1956 29.5721 42.6935 29.5721C 42.6737 29.5721 42.6551 29.5721 42.6354 29.5709C 42.1112 29.5487 41.6463 29.226 41.4429 28.7413L 37.6898 19.839C 37.0959 22.8161 36.1359 27.0109 34.6854 31.7592C 31.818 41.1427 26.7191 45.8851 26.5029 46.082C 26.2484 46.3162 25.9218 46.4386 25.5882 46.4386"/>
<path id="path42_fill" fill-rule="evenodd" d="M 24.6553 0C 17.2039 0 10.9392 1.41457 6.0367 4.20527C 2.20466 6.38656 0.622796 8.66106 0.455427 8.91275C -0.0501648 9.6748 -0.140823 10.6384 0.213673 11.4809C 0.567006 12.3222 1.32016 12.9304 2.21628 13.0982L 9.5619 14.4743L 9.85014 36.3257C 9.86409 37.3837 10.4894 38.338 11.4529 38.7714C 11.8086 38.9322 12.1875 39.0103 12.5652 39.0103C 13.2045 39.0103 13.8379 38.7843 14.3412 38.3485C 14.5132 38.1982 18.5951 34.6407 21.0975 30.9132C 21.1405 30.8515 21.1824 30.7885 21.2231 30.7245L 24.2775 46.9419C 24.46 47.9114 25.1527 48.7073 26.0849 49.0184C 26.3673 49.1127 26.6579 49.1594 26.945 49.1594C 27.6121 49.1594 28.2665 48.9135 28.7756 48.4486C 29.0022 48.24 34.3661 43.254 37.3404 33.5198C 38.2133 30.6604 38.9118 27.9978 39.4604 25.6744L 41.5502 30.6312C 41.9593 31.6007 42.888 32.2474 43.9352 32.2917C 43.9735 32.2928 44.0119 32.294 44.0503 32.294C 45.0556 32.294 45.982 31.737 46.4527 30.841C 46.5387 30.6767 48.5831 26.7755 50.3149 22.3931C 53.1137 15.3156 53.4868 11.3073 51.5586 8.99548C 48.4634 5.2796 37.137 1.5509 34.8985 0.841287C 34.7567 0.797009 34.6114 0.763217 34.4638 0.742243C 31.0315 0.249357 27.7307 0 24.6553 0L 24.6553 0ZM 24.6552 2.72192C 27.4598 2.72192 30.5921 2.93632 34.079 3.4362C 34.079 3.4362 46.7316 7.44805 49.4746 10.7398C 52.2175 14.0315 44.0502 29.572 44.0502 29.572L 38.505 16.4167C 38.505 16.4167 37.5356 23.5863 34.745 32.7216C 31.9532 41.8569 26.9461 46.4385 26.9461 46.4385L 22.147 20.9587C 22.147 20.9587 21.1753 25.9237 18.8461 29.3937C 16.5169 32.8626 12.5652 36.2895 12.5652 36.2895L 12.2467 12.208L 2.71484 10.4228C 2.71484 10.4228 7.83353 2.72192 24.6552 2.72192L 24.6552 2.72192Z"/>
<path id="path43_fill" fill-rule="evenodd" d="M 24.3943 43.4195C 24.3211 43.4195 24.2467 43.4137 24.1712 43.4009C 23.9329 43.3612 18.2993 42.3172 15.296 32.4886C 13.928 28.0095 12.9958 24.0233 12.3961 21.0881L 8.56755 31.8955C 8.38275 32.4198 7.89924 32.7764 7.346 32.8009C 7.32624 32.802 7.30648 32.802 7.28788 32.802C 6.75672 32.802 6.27321 32.4909 6.05238 32.0027C 4.05326 27.5889 -2.23003 12.9001 0.822115 9.23551C 3.69411 5.78996 13.0574 1.77696 14.1151 1.33068C 14.2104 1.2899 14.3092 1.26077 14.4103 1.24329C 19.1792 0.418313 23.6133 0 27.5894 0C 46.079 0 49.7425 8.9209 49.8901 9.30077C 50.0354 9.67713 50.0063 10.1001 49.8099 10.4543C 49.6135 10.8086 49.2706 11.0556 48.8731 11.1302L 40.435 12.7102L 40.1316 35.6766C 40.1246 36.2068 39.812 36.6834 39.3308 36.9001C 39.1518 36.9805 38.9624 37.0201 38.7741 37.0201C 38.4544 37.0201 38.1371 36.9059 37.8861 36.6892C 37.7187 36.5435 33.7693 33.1027 31.3669 29.5231C 30.5602 28.3229 29.9105 26.9701 29.3991 25.6872L 25.7182 42.3533C 25.5799 42.9849 25.0208 43.4195 24.3943 43.4195"/>
<path id="path44_fill" fill-rule="evenodd" d="M 29.0001 0C 24.9461 0 20.4341 0.425304 15.5885 1.2631C 15.3863 1.29805 15.1887 1.35631 14.9981 1.43671C 13.221 2.18595 4.20285 6.1069 1.19021 9.7249C -0.144083 11.3259 -1.04485 14.3042 2.39085 24.2598C 4.11103 29.2435 6.14037 33.7365 6.22521 33.9253C 6.66688 34.9006 7.63622 35.5217 8.69739 35.5217C 8.73574 35.5217 8.7741 35.5217 8.81245 35.5193C 9.91894 35.4727 10.886 34.7573 11.2556 33.7121L 13.5127 27.3407C 14.0241 29.4334 14.6494 31.7673 15.4084 34.2492C 18.5989 44.6942 24.6764 45.9911 25.3587 46.103C 25.5086 46.1286 25.6585 46.1414 25.805 46.1414C 27.0579 46.1414 28.1749 45.271 28.4538 44.0079L 31.3026 31.1031C 31.4153 31.2873 31.5316 31.4667 31.6501 31.6426C 34.1537 35.3702 38.2356 38.9276 38.4076 39.0779C 38.9109 39.5137 39.5432 39.7409 40.1847 39.7409C 40.5601 39.7409 40.9391 39.6628 41.2959 39.5009C 42.2594 39.0674 42.8847 38.1143 42.8987 37.0551L 43.1869 15.2038L 50.5325 13.8276C 51.3252 13.6797 52.0121 13.1833 52.4061 12.4771C 52.799 11.7699 52.8571 10.9239 52.5653 10.1689C 52.405 9.75287 48.409 0 29.0001 0L 29.0001 0ZM 29.0001 2.72192C 46.7737 2.72192 50.0339 11.1523 50.0339 11.1523L 40.502 12.9374L 40.1836 37.0201C 40.1836 37.0201 36.2318 33.5932 33.9026 30.1243C 31.5722 26.6543 30.6017 21.6882 30.6017 21.6882L 25.8027 43.4195C 25.8027 43.4195 20.7944 42.5863 18.0037 33.451C 15.2131 24.3157 14.2438 17.1461 14.2438 17.1461L 8.69737 32.8008C 8.69737 32.8008 0.530021 14.7609 3.273 11.4692C 6.01715 8.17747 16.0511 3.9454 16.0511 3.9454C 21.0524 3.08081 25.3343 2.72192 29.0001 2.72192L 29.0001 2.72192Z"/>
</defs>
</svg>
