<svg width="35" height="35" viewBox="0 0 35 35" fill="none" xmlns="http://www.w3.org/2000/svg">
<path fill-rule="evenodd" clip-rule="evenodd" d="M17.5 35C27.165 35 35 27.165 35 17.5C35 7.83502 27.165 0 17.5 0C7.83502 0 0 7.83502 0 17.5C0 27.165 7.83502 35 17.5 35ZM24.6786 11.8934C24.4671 12.5917 24.0314 13.1386 23.3787 13.5416C23.967 13.4605 24.5409 13.2966 25.0833 13.0548C24.7023 13.6309 24.2046 14.1505 23.592 14.6117V14.9928C23.5922 16.3703 23.2668 17.7285 22.6421 18.9563C22.0113 20.227 21.025 21.3045 19.6941 22.1778C18.3632 23.0565 16.83 23.4959 15.0961 23.4959C13.4658 23.5135 11.8667 23.0485 10.5 22.1596C10.6459 22.1869 10.8865 22.1906 11.2293 22.1906C12.575 22.2099 13.8859 21.7629 14.9394 20.9253C14.283 20.9071 13.6996 20.7065 13.1946 20.3237C12.6878 19.9426 12.3377 19.4467 12.1481 18.8323C12.3224 18.8874 12.5053 18.9102 12.6878 18.8998C12.9552 18.9012 13.2216 18.8688 13.4808 18.8031C12.7844 18.6555 12.2119 18.3054 11.7689 17.7585C11.3241 17.2043 11.1035 16.5753 11.1035 15.8223C11.5152 16.042 11.9688 16.1719 12.4344 16.2033C11.5483 15.5889 11.1035 14.7539 11.1035 13.7002C11.1078 13.1742 11.2506 12.6586 11.5173 12.2052C13.1436 14.1961 15.2055 15.228 17.6996 15.3155C17.6358 15.1259 17.6048 14.9016 17.6048 14.6518C17.599 14.2592 17.6733 13.8695 17.8231 13.5065C17.9729 13.1435 18.1952 12.8149 18.4763 12.5406C19.0597 11.9645 19.7725 11.6674 20.6185 11.6674C21.0229 11.6582 21.4246 11.736 21.7963 11.8955C22.1681 12.0549 22.5013 12.2924 22.7734 12.5917C23.4389 12.4523 24.0807 12.2171 24.6786 11.8934Z" fill="white"/>
</svg>
