<?xml version="1.0" encoding="utf-8"?>
<!-- Generator: Adobe Illustrator 20.1.0, SVG Export Plug-In . SVG Version: 6.00 Build 0)  -->
<svg version="1.1" id="Layer_1" xmlns="http://www.w3.org/2000/svg" xmlns:xlink="http://www.w3.org/1999/xlink" x="0px" y="0px"
	 viewBox="0 0 230 280" style="enable-background:new 0 0 230 280;" xml:space="preserve">
<style type="text/css">
	.st0{opacity:0.2;enable-background:new    ;}
	.st1{fill:none;stroke:#000000;stroke-width:6.25;stroke-linecap:round;stroke-linejoin:round;stroke-miterlimit:10;}
	.st2{fill:#F5EB0E;}
	.st3{fill:#F5AE1B;}
	.st4{fill:#FCEE21;}
	.st5{fill:#FFFFFF;}
	.st6{fill:#AA3378;}
	.st7{fill:#ED4087;}
	.st8{fill:#E6E6E6;}
	.st9{fill:#5A90C6;}
	.st10{fill:#C7D8EA;}
	.st11{fill:none;stroke:#EB2227;stroke-width:0.25;stroke-linecap:round;stroke-linejoin:round;stroke-miterlimit:10;}
	.st12{fill:none;stroke:#000000;stroke-width:0.75;stroke-linecap:round;stroke-linejoin:round;stroke-miterlimit:10;}
</style>
<g>
	<path class="st0" d="M143.8,239.1c8.8-1.7,13.3-3.8,13.3-6.2c0-2.6-5.8-5-17.6-7c-0.9-0.1-1.7-0.2-2.6-0.3c-4-0.6-8.2-1.1-12.6-1.5
		c-4.7-0.3-9.5-0.7-14.6-0.8c-4.1-0.2-8.3-0.2-12.8-0.2c-4.3,0-8.4,0-12.3,0.2c-4.2,0.1-8.2,0.3-12,0.6c-6.7,0.4-12.8,1.2-18.3,2
		c-11.8,2-17.7,4.4-17.7,7c0,2.7,5.9,5,17.7,7c11.7,1.9,26,2.8,42.6,2.8c16.7,0,30.9-0.9,42.6-2.8
		C141,239.6,142.4,239.4,143.8,239.1z"/>
	<path class="st1" d="M111.9,39c-4.7-1.1-10-1.5-15.8-1.1C81.6,38.8,71.9,43,67.2,50.7c-4.5,2.5-8.7,5.6-12.6,9.3
		c-10.7,9.9-17.2,22.3-19.5,37.4c-1.1,7.1-1.4,15-0.9,23.6c0.2,2,1.2,3.2,3.1,3.4h3.5c-1.6,8.2-2.5,12.6-2.5,13.2
		c-0.8,7.3-0.8,12.3,0,15.1c2,7.5,11.8,12.9,29.4,16.5c0.1,0,0.3,0,0.5,0.1c-2,1-4,2.1-5.8,3.2c-10.3,6.6-15.7,15.4-16,26.6
		c0,1.8,0.5,3.1,1.8,3.7c1.7,0.9,3.1,1.4,4.2,1.5c1.3,6.3,3.2,6.9,5.8,1.9c3.1,0.2,3.9-0.6,2.5-2.5c0.4-1.5,0.9-3,1.5-4.5
		c0.6-1.6,1.5-3.1,2.5-4.5c0.1,7.3,0.9,12.9,2.4,16.9c0.1,0.1,0.2,0.3,0.2,0.6c1.4,3.5,3,6.9,4.9,10.3c0.6,1.1,1.2,2.2,1.9,3.3
		l-8.4,6c6.1,0.2,11.5,0.1,15.8-0.2c1.2-0.2,2.3-0.3,3.3-0.5c-0.6-3.7-0.7-6.8-0.1-9.3c0.3-1.2,0.8-2.4,1.5-3.5
		c1.9-2.9,5.3-4.5,10.2-4.8c5.3,0.3,9.1,1.9,11.4,4.8c0.8,1.1,1.4,2.3,1.8,3.8c0.6,2.2,0.7,5,0.3,8.1c0.6,0.2,1.3,0.4,2,0.6
		c0.5,0.1,1,0.2,1.5,0.3c4,0.6,9.2,0.7,15.6,0.4l-7-4.9c0.9-1,1.7-2.1,2.5-3.5c1.5-2.7,2.9-6.3,4-10.9c0-0.1,0.1-0.2,0.1-0.3v0.3
		c4.4,0.5,7.5,0,9.3-1.5c-0.4-0.1-0.8-0.1-1.1-0.3c-0.1-0.1-0.2-0.2-0.3-0.2l17.7-3.6c1.1,1.5,2.3,2.8,3.6,4
		c3.1,2.6,6.3,3.6,9.7,3.2l1.9-0.3c0.5-0.2,1-0.4,1.5-0.7l0.1,0.4l9.5-2.2c0.4-0.1,0.6-0.2,0.9-0.3c1.1-0.4,2-1,2.7-1.6
		c1.4-1.3,2.5-2.8,3.6-4.8c1.2-2.4,1.9-5,2.1-7.6l-16.3,3.2l-5.4-3.3l2-6.7l17.4-3.7c-1.2-2.4-2.8-4.5-4.9-6.2
		c-1.7-1.4-3.5-2.3-5.2-2.8c-0.9-0.3-2-0.5-3-0.5c-0.4,0-0.8,0-1.1,0l-9.4,2.1v0.1c-0.1,0-0.2,0-0.3,0s-0.2,0-0.3,0.1
		c-0.1,0-0.2,0-0.2,0H163l-2.2,0.4h-0.2l-0.2,0.1c-3.3,0.9-5.8,3.2-7.6,6.7c-1.2,2.1-1.8,4.4-1.9,6.7l-11.8,2.5
		c-0.3-2.7-1-5.6-1.8-8.6c-1.2-4-2.7-7.8-4.5-11.4c-0.9-1.6-1.7-3.2-2.7-4.9c-0.1-0.3-0.2-0.6-0.4-1c8.2-1.5,14.9-3.4,19.9-5.6
		c6.5-3.1,10.4-6.9,11.6-11.2c1-3.8,0.6-11.8-1.1-24.1c-0.3-1.5-0.5-3-0.8-4.6c-0.2-0.8-0.6-3.1-1.4-7h16.9l-10.3-10.5
		c-1-1.1-1.7-2.3-2.3-3.7c-0.1-0.2-0.1-0.4-0.2-0.5c-0.9-16.8-7.4-30.9-19.6-42.3c-3.2-3-6.5-5.5-9.9-7.6c-0.1-0.1-0.1-0.3-0.3-0.4
		C127.3,45.3,120.5,40.9,111.9,39"/>
	<path class="st2" d="M132.3,52c-7.5-10.1-19-14.8-34.6-14.1c6.3,3.5,12.8,14.1,19.6,31.7c2,5.1,3.9,10.8,5.9,17
		c1.9,8.3,9.1,11.7,21.4,9.9c1-2.9,1.2-7.1,0.7-13c-0.5-4.6-1.7-9.2-3.4-13.9c-2.1-5.7-5.3-11.5-9.4-17.2
		C132.4,52.3,132.4,52.1,132.3,52z"/>
	<path class="st3" d="M97.7,37.9c-0.5,0-1,0-1.6,0c-11.2,0.6-19.5,3.2-24.8,8c-1.4,1.2-2.6,2.5-3.6,4c-0.1,0.2-0.4,0.5-0.5,0.8
		c3.4-1.9,6.9-3.4,10.5-4.6c4.1-1.3,8.5-2.3,13.1-2.8c8.1,2.7,15.1,11.5,20.9,26.3c0.5,1.3,1,2.6,1.4,3.9c1.9,5.3,3.5,9.6,4.9,13.1
		c1.5,3.8,2.6,6.7,3.6,8.5c1.8,3.7,4.4,5.7,7.7,6c3.2,0.3,7,0.1,11.3-0.7c1.9-0.3,3.2-1.6,4-3.9c-12.3,1.8-19.5-1.6-21.4-9.9
		c-2-6.2-3.9-11.9-5.9-17C110.5,52,104,41.4,97.7,37.9z"/>
	<path class="st3" d="M113.1,73.5c-0.4-1.3-0.9-2.6-1.4-3.9C105.9,54.8,98.9,46,90.8,43.3c-4.6,0.5-9,1.5-13.1,2.8
		c-3.6,1.2-7.1,2.7-10.5,4.6c-4.4,2.5-8.6,5.6-12.6,9.3c-0.8,0.8-1.5,1.5-2.3,2.3c-9.3,9.5-15,21.2-17.2,35.1
		c-1.1,7.1-1.4,15-0.9,23.6c0.2,2,1.2,3.2,3.1,3.4h3.5h11c2.4,0.3,4.4-0.8,6-3.5c0,0,0-0.1,0-0.2c-0.4-4.8-0.6-9.6-0.6-14
		c-3,0.2-5.9,0.3-8.8,0.5c-2.6-0.2-3.6-1.5-3-3.8l0.4-10c0-1.5,0.4-2.7,1.5-3.5c0.6-0.6,1.5-1,2.7-1.2c2.3-0.2,4.6-0.3,6.9-0.4
		c0.5-0.1,1.1-0.1,1.7-0.1c1.1-6.9,2.8-13.1,5.3-18.6c4.1-9.2,10.1-16.3,18-21.5c6,3.7,13.6,10.8,22.7,21.5c4.1,5,8.6,10.7,13.4,17
		C116.6,83.1,115,78.8,113.1,73.5z"/>
	<path class="st2" d="M129.3,101.1c-3.3-0.3-5.9-2.3-7.7-6c-1-1.8-2.1-4.7-3.6-8.5c-4.8-6.3-9.3-12-13.4-17
		c-9.1-10.7-16.7-17.8-22.7-21.5C74,53.3,68,60.4,63.9,69.6c-2.5,5.5-4.2,11.7-5.3,18.6c0.4-0.1,0.8-0.1,1.2-0.1
		c2.6,0.5,3.9,2.1,4,4.8l0.4,9.7c0.4,2.3-1.1,3.7-4.4,3.9c-0.6,0.1-1.2,0.1-1.9,0.1c-0.2,0-0.5,0-0.7,0.1c0,4.4,0.2,9.2,0.6,14h0.1
		c1.6-2.7,4.8-3.9,9.7-3.7H158h16.8l-10.2-10.5c-1.1-1.1-1.8-2.3-2.4-3.7c-0.1-0.2-0.1-0.4-0.2-0.5c-0.6-12.3-4.3-23.2-11.1-32.7
		c-2.4-3.3-5.3-6.6-8.5-9.6s-6.5-5.5-9.9-7.6c4.1,5.7,7.3,11.5,9.4,17.2c1.7,4.7,2.9,9.3,3.4,13.9c0.5,5.9,0.3,10.1-0.7,13
		c-0.8,2.3-2.1,3.6-4,3.9C136.3,101.2,132.5,101.4,129.3,101.1z M97.5,86.4h0.1c3.8,0.4,6,1.6,6.7,3.7l3.8,11.5c1,2.5-0.5,3.8-4.4,4
		c-3.7,0.1-7.7,0.2-12,0.2h-0.5c-1.7,0-3.4,0-4.9,0c-4.7-0.3-7.2-2.3-7.8-6.3l-0.7-5.9c-0.8-5.2,0.8-7.6,4.7-7.2c1.3,0,2.6,0,3.9,0
		c2.3,0,4.5,0,6.8,0C94.7,86.4,96.1,86.4,97.5,86.4z"/>
	<path class="st4" d="M97.6,86.4h-0.1c-1.4,0-2.8,0-4.3,0c-2.3,0-4.5,0-6.8,0c4.1,4.8,5.7,11.2,4.8,19.4h0.5c4.3,0,8.3-0.1,12-0.2
		c3.9-0.2,5.4-1.5,4.4-4l-3.8-11.5C103.6,88,101.4,86.8,97.6,86.4z"/>
	<path class="st3" d="M86.4,86.4c-1.3,0-2.6,0-3.9,0c-3.9-0.4-5.5,2-4.7,7.2l0.7,5.9c0.6,4,3.1,6,7.8,6.3c1.5,0,3.2,0,4.9,0
		C92.1,97.6,90.5,91.2,86.4,86.4z"/>
	<path class="st3" d="M45.8,93.4l-0.4,10c-0.6,2.3,0.4,3.6,3,3.8c2.9-0.2,5.8-0.3,8.8-0.5c0.2-0.1,0.5-0.1,0.7-0.1
		c-0.2-0.9-0.5-1.8-0.7-2.7c-1.5-6.5-1.6-11.8-0.3-15.6c-2.3,0.1-4.6,0.2-6.9,0.4c-1.2,0.2-2.1,0.6-2.7,1.2
		C46.2,90.7,45.8,91.9,45.8,93.4z"/>
	<path class="st4" d="M59.8,88.1c-0.4,0-0.8,0-1.2,0.1c-0.6,0-1.2,0-1.7,0.1c-1.3,3.8-1.2,9.1,0.3,15.6c0.2,0.9,0.5,1.8,0.7,2.7
		c0.7,0,1.3,0,1.9-0.1c3.3-0.2,4.8-1.6,4.4-3.9l-0.4-9.7C63.7,90.2,62.4,88.6,59.8,88.1z"/>
	<path class="st5" d="M57.8,120.7c0,0.1,0,0.2,0,0.2S57.8,120.8,57.8,120.7L57.8,120.7z"/>
	<path class="st6" d="M57.9,120.7c-0.1,0.1-0.1,0.2-0.1,0.2c-1.6,2.7-3.6,3.8-6,3.5h-11c-1.5,7.5-2.3,11.8-2.5,13c0,0.1,0,0.1,0,0.2
		c-0.8,7.3-0.8,12.3,0,15.1c2,7.5,11.8,12.9,29.4,16.5c0.1,0,0.3,0.1,0.5,0.1c0.1,0,0.2,0,0.4,0c0.9,0.1,1.9,0.4,3,0.6
		c8.7,1.5,18.2,2.2,28.5,2.2c9.5,0,18.4-0.7,26.8-2c0.3-0.2,0.7-0.2,1.1-0.2c0.5-0.1,1.1-0.2,1.7-0.4c2.4-0.4,4.8-0.9,7.1-1.5
		c-10.1,0.5-17.2,0.7-21.3,0.7c-24.1,0-42-2.7-53.7-8c-9.4-4.4-14.1-9.9-14.1-16.6c0-0.3,0.3-2.2,0.9-5.9c0.2-1.2,0.3-2.3,0.5-3.2
		c3.8-1.5,7.5-4,10.8-7.4c2.8-2.8,9.9-4.6,21.3-5.4c5-0.3,14.9-0.5,29.5-0.5c5.8,0,15.2,0.8,28.4,2.3c0.5-0.4,1.2-0.6,1.9-0.6
		c0.9,0,1.8,0.3,2.5,1.2c0.1,0.1,0.2,0.3,0.3,0.4l0.1-0.4c1.8,0.3,3.7,0.4,5.8,0.7c-0.1-0.2-0.1-0.4-0.1-0.5l-0.3-1.2l0.3,1.2
		c0,0.1,0,0.3,0.1,0.5c3.1,0.3,6.4,0.7,10,1.2c-0.1-0.8-0.2-1.6-0.4-2.5c-0.2-0.8-0.6-3.1-1.3-7H67.6
		C62.7,116.8,59.5,118,57.9,120.7z"/>
	<path class="st7" d="M60.3,133.6c0-0.4-0.1-0.7-0.1-1.2l0,0c-0.1-1,0-2.2,0.1-3.4c-0.1,1.2-0.2,2.4-0.1,3.4l0,0
		C60.2,132.9,60.3,133.2,60.3,133.6c0.5,2.4,1.7,4.4,3.7,5.9c0.8,0.6,1.6,1.2,2.6,1.8c2.7,1.6,5.7,2.7,9.2,3.1
		c0.5,0.1,1,0.1,1.6,0.2c3.2,0.3,6.4,0.5,9.6,0.6c3.3,0.2,6.6,0.2,10.1,0.2c2.8,0,5.6,0,8.5,0c2.1,0,4.1-0.1,6.1-0.2
		c3.3-0.1,6.7-0.3,10.1-0.6c1.9-0.1,3.8-0.2,5.8-0.5c1.8-0.2,3.5-0.3,5.3-0.5c1.7-0.2,3.2-0.5,4.7-0.9c3.3-1,6.3-2.6,8.8-4.7
		c3-2.5,4.3-5.7,3.9-9.9c-0.1,0-0.2,0-0.2,0v-0.5c0-0.1,0-0.1,0-0.2c-0.1-0.7-0.2-1.4-0.4-2.1c-2.1-0.3-4-0.4-5.8-0.7l-0.1,0.4
		c0.3,0.4,0.6,0.9,0.8,1.5c0.1,0.1,0.2,0.3,0.2,0.4c0.1,0.3,0.1,0.5,0.1,0.7c0.1,0.5,0.1,1,0.1,1.4c0,1.7-0.4,3.2-1.2,4.4
		c-0.7,1.3-1.7,1.9-2.8,1.9c-1.1,0.1-2-0.4-2.9-1.7c-0.7-1.1-1.1-2.5-1.1-4.2c0-0.8,0.1-1.6,0.3-2.3c0.1-0.2,0.1-0.3,0.2-0.5v-0.1
		c0-0.1,0-0.1,0.1-0.1c0-0.5,0.3-1,0.5-1.3c0.3-0.5,0.6-0.8,1-1.1c-13.2-1.5-22.6-2.3-28.4-2.3c-14.6,0-24.5,0.2-29.5,0.5
		c-11.4,0.8-18.5,2.6-21.3,5.4c-3.3,3.4-7,5.9-10.8,7.4c-0.2,0.9-0.3,2-0.5,3.2c-0.6,3.7-0.9,5.6-0.9,5.9c0,6.7,4.7,12.2,14.1,16.6
		c11.7,5.3,29.6,8,53.7,8c4.1,0,11.2-0.2,21.3-0.7c4.5-1.1,8.5-2.3,11.8-3.7c0.3-0.1,0.7-0.3,1-0.4c6.5-3.1,10.4-6.9,11.6-11.2
		c1-3.8,0.7-11.5-1.1-23.3c0-0.2,0-0.4,0-0.5c0-0.2,0-0.2,0-0.3c-0.2-0.7-0.3-1.4-0.4-2.1c-3.6-0.5-6.9-0.9-10-1.2
		c0.2,0.7,0.3,1.4,0.4,2.1c0,0.1,0,0.1,0,0.2c0.1,0.3,0.1,0.4,0.2,0.5c0.4,4.2-0.9,7.4-3.9,9.9c-2.5,2.1-5.5,3.7-8.8,4.7l1,3.7
		c0.3,1.4-0.3,2.2-2,2.5l-5,1c-1.5,0.3-2.5-0.2-2.9-1.5l-1.1-4.3c-2,0.3-3.9,0.4-5.8,0.5l0.3,5.1c0.2,1.3-0.5,2-2.1,2.2l-5.2,0.5
		c-1.7,0-2.6-0.7-2.7-2l-0.4-5.2c-2,0.1-4,0.2-6.1,0.2c-2.9,0-5.7,0-8.5,0l-0.2,4.4c-0.2,1.4-1.1,2.1-2.7,2l-5.1-0.1
		c-1.7,0-2.4-0.8-2.3-2.2l0.2-4.3c-3.2-0.1-6.4-0.3-9.6-0.6c-0.6-0.1-1.1-0.1-1.6-0.2l-1.5,3.9c-0.6,1.4-1.6,1.8-3.1,1.4l-4.9-1.3
		c-1.6-0.5-2.1-1.4-1.6-2.8l1.9-4.3c-1-0.6-1.8-1.2-2.6-1.8C62,138,60.8,136,60.3,133.6z M81.7,135.4c-1,1.2-2.3,1.8-3.8,1.8
		c-1.5,0.2-2.7-0.5-3.7-1.7c-0.7-0.7-1.1-1.6-1.4-2.5c-0.1-0.5-0.2-1-0.2-1.6v-0.3c0-0.1,0-0.1,0-0.1c0.1-0.1,0.1-0.3,0.1-0.6
		c0-0.1,0-0.3,0-0.4v-0.1c0.3-1.1,0.8-2,1.5-2.9c1-1.1,2.2-1.8,3.7-1.8s2.8,0.6,3.8,1.7c0.4,0.5,0.7,1,1,1.6
		c0.1,0.2,0.2,0.5,0.4,0.9c0.1,0.5,0.1,1,0.1,1.6c0,0,0,0.1,0,0.2C83.2,132.8,82.7,134.2,81.7,135.4z"/>
	<path d="M77.9,137.2c1.5,0,2.8-0.6,3.8-1.8s1.5-2.6,1.5-4.2c0-0.1,0-0.2,0-0.2c0-0.6,0-1.1-0.1-1.6c-0.2-0.4-0.3-0.7-0.4-0.9
		c-0.3-0.6-0.6-1.1-1-1.6c-1-1.1-2.3-1.7-3.8-1.7s-2.7,0.7-3.7,1.8c-0.7,0.9-1.2,1.8-1.5,2.9v0.1c0,0.1,0,0.3,0,0.4
		c0,0.3,0,0.5-0.1,0.6c0,0.1,0,0.3,0,0.4c0,0.6,0.1,1.1,0.2,1.6c0.3,0.9,0.7,1.8,1.4,2.5C75.2,136.7,76.4,137.4,77.9,137.2z"/>
	<path class="st5" d="M72.6,131.1v0.3c0-0.1,0-0.3,0-0.4C72.6,131,72.6,131,72.6,131.1z"/>
	<path class="st5" d="M66.6,141.3l-1.9,4.3c-0.5,1.4,0,2.3,1.6,2.8l4.9,1.3c1.5,0.4,2.5,0,3.1-1.4l1.5-3.9
		C72.3,144,69.3,142.9,66.6,141.3z"/>
	<path class="st5" d="M86.8,149.5c-0.1,1.4,0.6,2.2,2.3,2.2l5.1,0.1c1.6,0.1,2.5-0.6,2.7-2l0.2-4.4c-3.5,0-6.8,0-10.1-0.2
		L86.8,149.5z"/>
	<path class="st6" d="M46.4,199.1c0,1.8,0.6,3.1,1.9,3.7c1.6,0.9,3,1.4,4.1,1.5c1.3,6.3,3.2,6.9,5.8,1.9c3.1,0.2,3.9-0.5,2.5-2.5
		c0.4-1.5,0.9-3,1.5-4.5c0.6-1.6,1.5-3.1,2.5-4.5c1.6-2.5,3.8-4.9,6.5-7c-2.7,2.1-4.9,4.5-6.5,7c0.1,7.4,0.9,13,2.4,16.9
		c0.1,0.1,0.2,0.4,0.3,0.6c1.8,4.6,4,9.1,6.8,13.6l-8.5,6c6.2,0.2,11.5,0.1,15.8-0.2c1.2-0.2,2.3-0.3,3.3-0.5
		c-1-5.5-0.6-9.8,1.5-12.8c1.8-2.9,5.2-4.5,10.1-4.8c5.4,0.3,9.2,1.9,11.4,4.8c2.1,2.9,2.8,6.8,2.1,11.9c1,0.4,2.2,0.6,3.5,0.9
		c0.4,0,0.7,0,1.1,0.1c0.6-6.8-1.1-12.2-5-16.3c-3.4-3.6-7.6-5.3-12.6-5.2c-4.9,0.2-8.7,2.1-11.4,5.7c-6.1-12.2-6.8-24.4-2.4-36.5
		c17.3,3.8,33.9,2.8,49.9-3c0-0.2-0.1-0.4-0.2-0.5c-0.9-1.6-1.7-3.2-2.7-4.9c-0.1-0.3-0.2-0.6-0.4-1c-0.6,0.2-1.2,0.3-1.7,0.4
		c-0.4,0-0.8,0-1.1,0.2c-8.4,1.3-17.3,2-26.8,2c-10.3,0-19.8-0.7-28.5-2.2c-1.1-0.2-2.1-0.5-3-0.6c-0.2,0-0.3,0-0.4,0
		c-2,1-3.9,2.1-5.7,3.2C52.1,179.1,46.7,187.9,46.4,199.1z"/>
	<path d="M139.1,124c-0.4,0.3-0.7,0.6-1,1.1c-0.2,0.3-0.5,0.8-0.5,1.3c-0.1,0-0.1,0-0.1,0.1v0.1c-0.1,0.2-0.1,0.3-0.2,0.5
		c-0.2,0.7-0.3,1.5-0.3,2.3c0,1.7,0.4,3.1,1.1,4.2c0.9,1.3,1.8,1.8,2.9,1.7c1.1,0,2.1-0.6,2.8-1.9c0.8-1.2,1.2-2.7,1.2-4.4
		c0-0.4,0-0.9-0.1-1.4c0-0.2,0-0.4-0.1-0.7c0-0.1-0.1-0.3-0.2-0.4c-0.2-0.6-0.5-1.1-0.8-1.5c-0.1-0.1-0.2-0.3-0.3-0.4
		c-0.7-0.9-1.6-1.2-2.5-1.2C140.3,123.4,139.6,123.6,139.1,124z"/>
	<path class="st8" d="M150.3,128.1c-0.1-0.1-0.1-0.2-0.2-0.5v0.5C150.1,128.1,150.2,128.1,150.3,128.1z"/>
	<path class="st5" d="M138.6,146.4l-1-3.7c-1.5,0.4-3,0.7-4.7,0.9c-1.8,0.2-3.5,0.3-5.3,0.5l1.1,4.3c0.4,1.3,1.4,1.8,2.9,1.5l5-1
		C138.3,148.6,138.9,147.8,138.6,146.4z"/>
	<path class="st5" d="M111.7,145.2l0.4,5.2c0.1,1.3,1,2,2.7,2l5.2-0.5c1.6-0.2,2.3-0.9,2.1-2.2l-0.3-5.1
		C118.4,144.9,115,145.1,111.7,145.2z"/>
	<path class="st9" d="M131.3,197c0,0.2,0,0.4,0,0.7c-0.1,1-0.2,2-0.4,3c-0.3,2.4-0.8,4.5-1.2,6.5c3.8-0.5,5.7-0.1,5.6,1.1
		c0,0.9,0.3,1.5,1.2,1.9l17.8-3.6c1,1.5,2.2,2.8,3.6,4c3,2.6,6.2,3.6,9.7,3.2l3.4-0.6l-0.1-0.4c1.1-0.4,2-0.9,2.7-1.5
		c1.5-1.2,2.7-2.8,3.6-4.8c1.3-2.3,1.9-4.9,2-7.8l-5.7,1.2l-8.2,1.6l-5.4-3.4l2-6.4l8.2-1.8l7-1.4c-1.2-2.4-2.9-4.6-5-6.3
		c-1.6-1.3-3.4-2.3-5.2-2.8c-0.9-0.3-1.9-0.5-3-0.5c-0.1,0-0.1,0-0.1,0h-0.5c0,0-0.2,0-0.2,0.1H163l-0.4,0.1
		c-0.5,0.1-0.8,0.1-1.2,0.2l-0.5,0.1c-0.1,0-0.1,0-0.1,0c-0.1,0-0.1,0-0.2,0l-0.2,0.1c-3.3,0.9-5.8,3.2-7.6,6.7
		c-1.1,2.1-1.7,4.4-1.9,6.7l-11.8,2.5c0,0.2,0,0.4,0.1,0.7l0.2,0.9c0.1,2.5-0.3,3.8-1.3,3.8c-1,0.1-1.8-1.1-2.3-3.6
		c-0.1-0.4-0.2-0.6-0.2-1L131.3,197z"/>
	<path class="st7" d="M131.3,197.7c0-0.3,0-0.5,0-0.7v-0.1c0.5-6.4,0-12.5-1.4-18.1c1.4,5.6,1.9,11.7,1.4,18.1v0.1l4.3-0.8
		c0,0.4,0.1,0.6,0.2,1c0.5,2.5,1.3,3.7,2.3,3.6c1,0,1.4-1.3,1.3-3.8l-0.2-0.9c-0.1-0.3-0.1-0.5-0.1-0.7c-0.3-2.7-1-5.6-1.8-8.6
		c-1.2-3.8-2.6-7.4-4.3-10.9c-16,5.8-32.6,6.8-49.9,3c-4.4,12.1-3.7,24.3,2.4,36.5c2.7-3.6,6.5-5.5,11.4-5.7c5-0.1,9.2,1.6,12.6,5.2
		c3.9,4.1,5.6,9.5,5,16.3c3.8,0.6,8.6,0.6,14.5,0.3l-7-4.9c2.6-2.8,4.8-7.6,6.5-14.4c0-0.1,0.1-0.2,0.1-0.3c0.2-0.7,0.4-1.5,0.5-2.2
		c0.3-0.8,0.5-1.6,0.6-2.5c0.4-2,0.9-4.1,1.2-6.5C131.1,199.7,131.2,198.7,131.3,197.7z"/>
	<path class="st7" d="M128.6,211.9v0.3c4.4,0.5,7.5,0,9.3-1.5c-0.4-0.1-0.8-0.1-1-0.3c-0.2-0.1-0.3-0.1-0.4-0.2
		c-0.9-0.4-1.2-1-1.2-1.9c0.1-1.2-1.8-1.6-5.6-1.1c-0.1,0.9-0.3,1.7-0.6,2.5C129,210.4,128.8,211.2,128.6,211.9z"/>
	<path class="st10" d="M163.9,178.9L163.9,178.9c1.1,0,2.1,0.2,3,0.5c1.8,0.5,3.6,1.5,5.2,2.8c2.1,1.7,3.8,3.9,5,6.3l10.5-2.3
		c-1.2-2.4-2.9-4.5-5-6.2c-1.7-1.4-3.5-2.3-5.2-2.8c-0.9-0.3-1.9-0.5-3-0.5c-0.4,0-0.8,0-1,0L163.9,178.9z"/>
	<path class="st10" d="M173.5,199.9l-5.4-3.3l2-6.7l-8.2,1.8l-2,6.4l5.4,3.4L173.5,199.9z"/>
	<path class="st10" d="M189.8,196.7l-10.6,2c-0.1,2.9-0.7,5.5-2,7.8c-0.9,2-2.1,3.6-3.6,4.8c-0.7,0.6-1.6,1.1-2.7,1.5l0.1,0.4
		l9.5-2.2c0.4-0.1,0.6-0.2,0.9-0.3c1.1-0.4,2-1,2.7-1.6c1.4-1.3,2.5-2.8,3.6-4.8C189,201.9,189.6,199.4,189.8,196.7z"/>
	<path class="st5" d="M171,213.2l-0.1-0.4L171,213.2L171,213.2z"/>
	<path class="st11" d="M161.1,128.9c-0.4,0-0.7,0-1,0"/>
	<path class="st12" d="M132.5,52.4c-0.1-0.1-0.1-0.3-0.2-0.4c-7.5-10.1-19-14.8-34.6-14.1c-0.5,0-1,0-1.6,0
		c-11.2,0.6-19.5,3.2-24.8,8c-1.4,1.2-2.6,2.5-3.6,4c-0.1,0.2-0.4,0.5-0.5,0.8"/>
	<path class="st12" d="M67.2,50.7c3.4-1.9,6.9-3.4,10.5-4.6c4.1-1.3,8.5-2.3,13.1-2.8c8.1,2.7,15.1,11.5,20.9,26.3
		c0.5,1.3,1,2.6,1.4,3.9c1.9,5.3,3.5,9.6,4.9,13.1c1.5,3.8,2.6,6.7,3.6,8.5c1.8,3.7,4.4,5.7,7.7,6c3.2,0.3,7,0.1,11.3-0.7
		c1.9-0.3,3.2-1.6,4-3.9c1-2.9,1.2-7.1,0.7-13c-0.5-4.6-1.7-9.2-3.4-13.9c-2.1-5.7-5.3-11.5-9.4-17.2"/>
	<path class="st12" d="M97.5,86.4c-1.4,0-2.8,0-4.3,0c-2.3,0-4.5,0-6.8,0c-1.3,0-2.6,0-3.9,0c-3.9-0.4-5.5,2-4.7,7.2l0.7,5.9
		c0.6,4,3.1,6,7.8,6.3c1.5,0,3.2,0,4.9,0h0.5c4.3,0,8.3-0.1,12-0.2c3.9-0.2,5.4-1.5,4.4-4l-3.8-11.5c-0.7-2.1-2.9-3.3-6.7-3.7
		L97.5,86.4"/>
	<path class="st12" d="M158,117h16.8l-10.2-10.5c-1.1-1.1-1.8-2.3-2.4-3.7c-0.1-0.2-0.1-0.4-0.2-0.5c-0.6-12.3-4.3-23.2-11.1-32.7
		c-2.4-3.3-5.3-6.6-8.5-9.6s-6.5-5.5-9.9-7.6"/>
	<path class="st12" d="M67.2,50.7c-4.4,2.5-8.6,5.6-12.6,9.3c-0.8,0.8-1.5,1.5-2.3,2.3c-9.3,9.5-15,21.2-17.2,35.1
		c-1.1,7.1-1.4,15-0.9,23.6c0.2,2,1.2,3.2,3.1,3.4h3.5"/>
	<path class="st12" d="M45.4,103.4c-0.6,2.3,0.4,3.6,3,3.8c2.9-0.2,5.8-0.3,8.8-0.5c0.2-0.1,0.5-0.1,0.7-0.1c0.7,0,1.3,0,1.9-0.1
		c3.3-0.2,4.8-1.6,4.4-3.9l-0.4-9.7c-0.1-2.7-1.4-4.3-4-4.8c-0.4,0-0.8,0-1.2,0.1c-0.6,0-1.2,0-1.7,0.1c-2.3,0.1-4.6,0.2-6.9,0.4
		c-1.2,0.2-2.1,0.6-2.7,1.2c-1.1,0.8-1.5,2-1.5,3.5L45.4,103.4"/>
	<path class="st12" d="M81.7,135.4c1-1.2,1.5-2.6,1.5-4.2c0-0.1,0-0.2,0-0.2c0-0.6,0-1.1-0.1-1.6c-0.2-0.4-0.3-0.7-0.4-0.9
		c-0.3-0.6-0.6-1.1-1-1.6c-1-1.1-2.3-1.7-3.8-1.7s-2.7,0.7-3.7,1.8c-0.7,0.9-1.2,1.8-1.5,2.9v0.1c0,0.1,0,0.3,0,0.4
		c0,0.3,0,0.5-0.1,0.6c0,0.1,0,0.3,0,0.4c0,0.6,0.1,1.1,0.2,1.6c0.3,0.9,0.7,1.8,1.4,2.5c1,1.2,2.2,1.9,3.7,1.7
		C79.4,137.2,80.7,136.6,81.7,135.4"/>
	<path class="st12" d="M158,117H67.6c-4.9-0.2-8.1,1-9.7,3.7c-0.1,0.1-0.1,0.2-0.1,0.2c-1.6,2.7-3.6,3.8-6,3.5h-11"/>
	<path class="st12" d="M60.3,129c-0.1,1.2-0.2,2.4-0.1,3.4l0,0c0,0.5,0.1,0.8,0.1,1.2c0.5,2.4,1.7,4.4,3.7,5.9
		c0.8,0.6,1.6,1.2,2.6,1.8"/>
	<path class="st12" d="M66.6,141.3l-1.9,4.3c-0.5,1.4,0,2.3,1.6,2.8l4.9,1.3c1.5,0.4,2.5,0,3.1-1.4l1.5-3.9"/>
	<path class="st12" d="M75.8,144.4c0.5,0.1,1,0.1,1.6,0.2c3.2,0.3,6.4,0.5,9.6,0.6"/>
	<path class="st12" d="M87,145.2l-0.2,4.3c-0.1,1.4,0.6,2.2,2.3,2.2l5.1,0.1c1.6,0.1,2.5-0.6,2.7-2l0.2-4.4"/>
	<path class="st12" d="M75.8,144.4c-3.5-0.4-6.5-1.5-9.2-3.1"/>
	<path class="st12" d="M40.8,124.4c-1.5,7.5-2.3,11.8-2.5,13c0,0.1,0,0.1,0,0.2c-0.8,7.3-0.8,12.3,0,15.1c2,7.5,11.8,12.9,29.4,16.5
		c0.1,0,0.3,0.1,0.5,0.1"/>
	<path class="st12" d="M68.2,169.3c-2,1-3.9,2.1-5.7,3.2c-10.4,6.6-15.8,15.4-16.1,26.6c0,1.8,0.6,3.1,1.9,3.7
		c1.6,0.9,3,1.4,4.1,1.5c1.3,6.3,3.2,6.9,5.8,1.9c3.1,0.2,3.9-0.5,2.5-2.5c0.4-1.5,0.9-3,1.5-4.5c0.6-1.6,1.5-3.1,2.5-4.5"/>
	<path class="st12" d="M129.7,169.5c-0.6,0.2-1.2,0.3-1.7,0.4c-0.4,0-0.8,0-1.1,0.2c-8.4,1.3-17.3,2-26.8,2
		c-10.3,0-19.8-0.7-28.5-2.2c-1.1-0.2-2.1-0.5-3-0.6c-0.2,0-0.3,0-0.4,0"/>
	<path class="st12" d="M64.7,194.7c0.1,7.4,0.9,13,2.4,16.9c0.1,0.1,0.2,0.4,0.3,0.6c1.8,4.6,4,9.1,6.8,13.6l-8.5,6
		c6.2,0.2,11.5,0.1,15.8-0.2c1.2-0.2,2.3-0.3,3.3-0.5c-1-5.5-0.6-9.8,1.5-12.8c1.8-2.9,5.2-4.5,10.1-4.8c5.4,0.3,9.2,1.9,11.4,4.8
		c2.1,2.9,2.8,6.8,2.1,11.9c1,0.4,2.2,0.6,3.5,0.9c0.4,0,0.7,0,1.1,0.1c3.8,0.6,8.6,0.6,14.5,0.3l-7-4.9c2.6-2.8,4.8-7.6,6.5-14.4"
		/>
	<path class="st12" d="M71.2,187.7c-2.7,2.1-4.9,4.5-6.5,7"/>
	<path class="st12" d="M129.7,169.5c2.4-0.4,4.8-0.9,7.1-1.5c4.5-1.1,8.5-2.3,11.8-3.7c0.3-0.1,0.7-0.3,1-0.4
		c6.5-3.1,10.4-6.9,11.6-11.2c1-3.8,0.7-11.5-1.1-23.3c0-0.2,0-0.4,0-0.5c0-0.2,0-0.2,0-0.3c-0.2-0.7-0.3-1.4-0.4-2.1
		c-0.1-0.8-0.2-1.6-0.4-2.5c-0.2-0.8-0.6-3.1-1.3-7"/>
	<path class="st12" d="M149.3,123.6l0.3,1.2c0,0.1,0,0.3,0.1,0.5c0.2,0.7,0.3,1.4,0.4,2.1c0,0.1,0,0.1,0,0.2
		c0.1,0.3,0.1,0.4,0.2,0.5c0.4,4.2-0.9,7.4-3.9,9.9c-2.5,2.1-5.5,3.7-8.8,4.7"/>
	<path class="st12" d="M138.1,125.1c-0.2,0.3-0.5,0.8-0.5,1.3c-0.1,0-0.1,0-0.1,0.1v0.1c-0.1,0.2-0.1,0.3-0.2,0.5
		c-0.2,0.7-0.3,1.5-0.3,2.3c0,1.7,0.4,3.1,1.1,4.2c0.9,1.3,1.8,1.8,2.9,1.7c1.1,0,2.1-0.6,2.8-1.9c0.8-1.2,1.2-2.7,1.2-4.4
		c0-0.4,0-0.9-0.1-1.4c0-0.2,0-0.4-0.1-0.7c0-0.1-0.1-0.3-0.2-0.4c-0.2-0.6-0.5-1.1-0.8-1.5c-0.1-0.1-0.2-0.3-0.3-0.4
		c-0.7-0.9-1.6-1.2-2.5-1.2c-0.7,0-1.4,0.2-1.9,0.6C138.7,124.3,138.4,124.6,138.1,125.1"/>
	<path class="st12" d="M127.6,144.1l1.1,4.3c0.4,1.3,1.4,1.8,2.9,1.5l5-1c1.7-0.3,2.3-1.1,2-2.5l-1-3.7"/>
	<path class="st12" d="M97.1,145.4c2.8,0,5.6,0,8.5,0c2.1,0,4.1-0.1,6.1-0.2"/>
	<path class="st12" d="M111.7,145.2l0.4,5.2c0.1,1.3,1,2,2.7,2l5.2-0.5c1.6-0.2,2.3-0.9,2.1-2.2l-0.3-5.1"/>
	<path class="st12" d="M137.6,142.7c-1.5,0.4-3,0.7-4.7,0.9c-1.8,0.2-3.5,0.3-5.3,0.5"/>
	<path class="st12" d="M121.8,144.6c1.9-0.1,3.8-0.2,5.8-0.5"/>
	<path class="st12" d="M121.8,144.6c-3.4,0.3-6.8,0.5-10.1,0.6"/>
	<path class="st12" d="M139.1,195.4c-0.3-2.7-1-5.6-1.8-8.6c-1.2-3.8-2.6-7.4-4.3-10.9c0-0.2-0.1-0.4-0.2-0.5
		c-0.9-1.6-1.7-3.2-2.7-4.9c-0.1-0.3-0.2-0.6-0.4-1"/>
	<path class="st12" d="M129.7,207.2c0.4-2,0.9-4.1,1.2-6.5c0.2-1,0.3-2,0.4-3c0-0.3,0-0.5,0-0.7"/>
	<path class="st12" d="M129.9,178.8c1.4,5.6,1.9,11.7,1.4,18.1v0.1"/>
	<path class="st12" d="M128.5,212.2c0-0.1,0.1-0.2,0.1-0.3c0.2-0.7,0.4-1.5,0.5-2.2c0.3-0.8,0.5-1.6,0.6-2.5"/>
	<path class="st12" d="M128.5,212.2h0.1c4.4,0.5,7.5,0,9.3-1.5c-0.4-0.1-0.8-0.1-1-0.3c-0.2-0.1-0.3-0.1-0.4-0.2"/>
	<path class="st12" d="M160.9,179.4c-0.1,0-0.1,0-0.1,0c-0.1,0-0.1,0-0.2,0"/>
	<path class="st12" d="M160.6,179.4l-0.2,0.1c-3.3,0.9-5.8,3.2-7.6,6.7c-1.1,2.1-1.7,4.4-1.9,6.7l-11.8,2.5"/>
	<line class="st12" x1="160.9" y1="179.4" x2="160.6" y2="179.4"/>
	<path class="st12" d="M163.8,178.9h-0.5c0,0-0.2,0-0.2,0.1H163l-0.4,0.1c-0.5,0.1-0.8,0.1-1.2,0.2l-0.5,0.1"/>
	<path class="st12" d="M163.8,178.9c0,0,0,0,0.1,0"/>
	<path class="st12" d="M136.5,210.2l17.8-3.6c1,1.5,2.2,2.8,3.6,4c3,2.6,6.2,3.6,9.7,3.2l3.4-0.6l0,0l9.5-2.2
		c0.4-0.1,0.6-0.2,0.9-0.3c1.1-0.4,2-1,2.7-1.6c1.4-1.3,2.5-2.8,3.6-4.8c1.3-2.4,1.9-4.9,2.1-7.6l-10.6,2l-5.7,1.2l-5.4-3.3l2-6.7
		l7-1.4l10.5-2.3c-1.2-2.4-2.9-4.5-5-6.2c-1.7-1.4-3.5-2.3-5.2-2.8c-0.9-0.3-1.9-0.5-3-0.5c-0.4,0-0.8,0-1,0l-9.5,2.2h-0.1"/>
	<path class="st12" d="M131.3,197l4.3-0.8c0,0.4,0.1,0.6,0.2,1c0.5,2.5,1.3,3.7,2.3,3.6c1,0,1.4-1.3,1.3-3.8l-0.2-0.9
		c-0.1-0.3-0.1-0.5-0.1-0.7"/>
	<path class="st12" d="M136.5,210.2c-0.9-0.4-1.2-1-1.2-1.9c0.1-1.2-1.8-1.6-5.6-1.1"/>
	<path class="st12" d="M97.1,145.4c-3.5,0-6.8,0-10.1-0.2"/>
</g>
</svg>
